G04 #@! TF.GenerationSoftware,KiCad,Pcbnew,(5.1.4-0-10_14)*
G04 #@! TF.CreationDate,2019-10-10T23:08:38+03:00*
G04 #@! TF.ProjectId,RibbonCable_MB_BreakdownBoard_pt,52696262-6f6e-4436-9162-6c655f4d425f,rev?*
G04 #@! TF.SameCoordinates,Original*
G04 #@! TF.FileFunction,Copper,L2,Bot*
G04 #@! TF.FilePolarity,Positive*
%FSLAX46Y46*%
G04 Gerber Fmt 4.6, Leading zero omitted, Abs format (unit mm)*
G04 Created by KiCad (PCBNEW (5.1.4-0-10_14)) date 2019-10-10 23:08:38*
%MOMM*%
%LPD*%
G04 APERTURE LIST*
%ADD10R,1.700000X1.700000*%
%ADD11C,5.000000*%
%ADD12C,2.700000*%
%ADD13C,0.150000*%
%ADD14O,1.700000X1.700000*%
%ADD15C,1.700000*%
%ADD16O,1.727200X1.727200*%
%ADD17R,1.727200X1.727200*%
%ADD18C,2.000000*%
%ADD19C,0.300000*%
%ADD20C,1.000000*%
%ADD21C,0.500000*%
%ADD22C,0.254000*%
G04 APERTURE END LIST*
D10*
X160682330Y-78613693D03*
X160682330Y-76073693D03*
X160682330Y-73533693D03*
D11*
X113500000Y-84500000D03*
X160000000Y-84500000D03*
D12*
X119040000Y-85000000D03*
D13*
G36*
X124124503Y-83651204D02*
G01*
X124148772Y-83654804D01*
X124172570Y-83660765D01*
X124195670Y-83669030D01*
X124217849Y-83679520D01*
X124238892Y-83692133D01*
X124258598Y-83706748D01*
X124276776Y-83723224D01*
X124293252Y-83741402D01*
X124307867Y-83761108D01*
X124320480Y-83782151D01*
X124330970Y-83804330D01*
X124339235Y-83827430D01*
X124345196Y-83851228D01*
X124348796Y-83875497D01*
X124350000Y-83900001D01*
X124350000Y-86099999D01*
X124348796Y-86124503D01*
X124345196Y-86148772D01*
X124339235Y-86172570D01*
X124330970Y-86195670D01*
X124320480Y-86217849D01*
X124307867Y-86238892D01*
X124293252Y-86258598D01*
X124276776Y-86276776D01*
X124258598Y-86293252D01*
X124238892Y-86307867D01*
X124217849Y-86320480D01*
X124195670Y-86330970D01*
X124172570Y-86339235D01*
X124148772Y-86345196D01*
X124124503Y-86348796D01*
X124099999Y-86350000D01*
X121900001Y-86350000D01*
X121875497Y-86348796D01*
X121851228Y-86345196D01*
X121827430Y-86339235D01*
X121804330Y-86330970D01*
X121782151Y-86320480D01*
X121761108Y-86307867D01*
X121741402Y-86293252D01*
X121723224Y-86276776D01*
X121706748Y-86258598D01*
X121692133Y-86238892D01*
X121679520Y-86217849D01*
X121669030Y-86195670D01*
X121660765Y-86172570D01*
X121654804Y-86148772D01*
X121651204Y-86124503D01*
X121650000Y-86099999D01*
X121650000Y-83900001D01*
X121651204Y-83875497D01*
X121654804Y-83851228D01*
X121660765Y-83827430D01*
X121669030Y-83804330D01*
X121679520Y-83782151D01*
X121692133Y-83761108D01*
X121706748Y-83741402D01*
X121723224Y-83723224D01*
X121741402Y-83706748D01*
X121761108Y-83692133D01*
X121782151Y-83679520D01*
X121804330Y-83669030D01*
X121827430Y-83660765D01*
X121851228Y-83654804D01*
X121875497Y-83651204D01*
X121900001Y-83650000D01*
X124099999Y-83650000D01*
X124124503Y-83651204D01*
X124124503Y-83651204D01*
G37*
D12*
X123000000Y-85000000D03*
D14*
X127330000Y-86540000D03*
X127330000Y-84000000D03*
X129870000Y-86540000D03*
X129870000Y-84000000D03*
X132410000Y-86540000D03*
X132410000Y-84000000D03*
X134950000Y-86540000D03*
X134950000Y-84000000D03*
D10*
X137490000Y-86540000D03*
D14*
X137490000Y-84000000D03*
X140030000Y-86540000D03*
X140030000Y-84000000D03*
D10*
X142570000Y-86540000D03*
D14*
X142570000Y-84000000D03*
D10*
X145110000Y-86540000D03*
D14*
X145110000Y-84000000D03*
D10*
X147650000Y-86540000D03*
D14*
X147650000Y-84000000D03*
X150190000Y-86540000D03*
X150190000Y-84000000D03*
X152730000Y-86540000D03*
X152730000Y-84000000D03*
D10*
X155270000Y-86540000D03*
D15*
X155270000Y-84000000D03*
D16*
X118440000Y-76540000D03*
X118440000Y-74000000D03*
X120980000Y-76540000D03*
X120980000Y-74000000D03*
X123520000Y-76540000D03*
X123520000Y-74000000D03*
X126060000Y-76540000D03*
X126060000Y-74000000D03*
X128600000Y-76540000D03*
X128600000Y-74000000D03*
X131140000Y-76540000D03*
X131140000Y-74000000D03*
X133680000Y-76540000D03*
X133680000Y-74000000D03*
X136220000Y-76540000D03*
X136220000Y-74000000D03*
X138760000Y-76540000D03*
X138760000Y-74000000D03*
X141300000Y-76540000D03*
X141300000Y-74000000D03*
X143840000Y-76540000D03*
X143840000Y-74000000D03*
X146380000Y-76540000D03*
X146380000Y-74000000D03*
X148920000Y-76540000D03*
X148920000Y-74000000D03*
X151460000Y-76540000D03*
X151460000Y-74000000D03*
X154000000Y-76540000D03*
D17*
X154000000Y-74000000D03*
D18*
X120980000Y-76540000D02*
X118440000Y-76540000D01*
X118440000Y-74000000D02*
X118440000Y-76540000D01*
X118440000Y-84400000D02*
X119040000Y-85000000D01*
X118440000Y-76540000D02*
X118440000Y-84400000D01*
X120980000Y-74000000D02*
X123520000Y-74000000D01*
X123520000Y-74000000D02*
X123520000Y-76540000D01*
X123520000Y-84480000D02*
X123000000Y-85000000D01*
X123520000Y-76540000D02*
X123520000Y-84480000D01*
D19*
X127330000Y-75270000D02*
X127330000Y-84000000D01*
X126060000Y-74000000D02*
X127330000Y-75270000D01*
X129870000Y-75270000D02*
X129870000Y-84000000D01*
X128600000Y-74000000D02*
X129870000Y-75270000D01*
X132410000Y-75270000D02*
X132410000Y-84000000D01*
X131140000Y-74000000D02*
X132410000Y-75270000D01*
X134950000Y-75270000D02*
X134950000Y-84000000D01*
X133680000Y-74000000D02*
X134950000Y-75270000D01*
X137490000Y-75270000D02*
X137490000Y-84000000D01*
X136220000Y-74000000D02*
X137490000Y-75270000D01*
X140030000Y-75270000D02*
X140030000Y-84000000D01*
X138760000Y-74000000D02*
X140030000Y-75270000D01*
X142570000Y-75270000D02*
X142570000Y-84000000D01*
X141300000Y-74000000D02*
X142570000Y-75270000D01*
X145110000Y-75270000D02*
X145110000Y-84000000D01*
X143840000Y-74000000D02*
X145110000Y-75270000D01*
X147650000Y-75270000D02*
X147650000Y-84000000D01*
X146380000Y-74000000D02*
X147650000Y-75270000D01*
X150190000Y-75270000D02*
X150190000Y-84000000D01*
X148920000Y-74000000D02*
X150190000Y-75270000D01*
X152730000Y-75270000D02*
X152730000Y-84000000D01*
X151460000Y-74000000D02*
X152730000Y-75270000D01*
X155270000Y-74106400D02*
X155270000Y-82797919D01*
X155163600Y-74000000D02*
X155270000Y-74106400D01*
X155270000Y-82797919D02*
X155270000Y-84000000D01*
X154000000Y-74000000D02*
X155163600Y-74000000D01*
D20*
X160682330Y-73533693D02*
X160682330Y-76073693D01*
X160682330Y-76073693D02*
X160682330Y-78613693D01*
D21*
X142570000Y-87890000D02*
X142569968Y-87890032D01*
X142570000Y-86540000D02*
X142570000Y-87890000D01*
X159332330Y-78613693D02*
X160682330Y-78613693D01*
X156700000Y-88000000D02*
X156700000Y-81246023D01*
X156700000Y-81246023D02*
X159332330Y-78613693D01*
X142570000Y-88896659D02*
X142573341Y-88900000D01*
X142573341Y-88900000D02*
X155800000Y-88900000D01*
X155800000Y-88900000D02*
X156700000Y-88000000D01*
X142570000Y-87890000D02*
X142570000Y-88896659D01*
D22*
G36*
X158001554Y-86935114D02*
G01*
X158515021Y-87278201D01*
X159085554Y-87514524D01*
X159691229Y-87635000D01*
X160308771Y-87635000D01*
X160914446Y-87514524D01*
X161484979Y-87278201D01*
X161998446Y-86935114D01*
X162340001Y-86593559D01*
X162340001Y-88967711D01*
X162330420Y-89065424D01*
X162311420Y-89128357D01*
X162280554Y-89186406D01*
X162239011Y-89237343D01*
X162188356Y-89279248D01*
X162130529Y-89310515D01*
X162067728Y-89329956D01*
X161972165Y-89340000D01*
X156611578Y-89340000D01*
X157295050Y-88656529D01*
X157328817Y-88628817D01*
X157366533Y-88582861D01*
X157439410Y-88494060D01*
X157439411Y-88494059D01*
X157521589Y-88340313D01*
X157572195Y-88173490D01*
X157585000Y-88043477D01*
X157585000Y-88043467D01*
X157589281Y-88000001D01*
X157585000Y-87956535D01*
X157585000Y-86518560D01*
X158001554Y-86935114D01*
X158001554Y-86935114D01*
G37*
X158001554Y-86935114D02*
X158515021Y-87278201D01*
X159085554Y-87514524D01*
X159691229Y-87635000D01*
X160308771Y-87635000D01*
X160914446Y-87514524D01*
X161484979Y-87278201D01*
X161998446Y-86935114D01*
X162340001Y-86593559D01*
X162340001Y-88967711D01*
X162330420Y-89065424D01*
X162311420Y-89128357D01*
X162280554Y-89186406D01*
X162239011Y-89237343D01*
X162188356Y-89279248D01*
X162130529Y-89310515D01*
X162067728Y-89329956D01*
X161972165Y-89340000D01*
X156611578Y-89340000D01*
X157295050Y-88656529D01*
X157328817Y-88628817D01*
X157366533Y-88582861D01*
X157439410Y-88494060D01*
X157439411Y-88494059D01*
X157521589Y-88340313D01*
X157572195Y-88173490D01*
X157585000Y-88043477D01*
X157585000Y-88043467D01*
X157589281Y-88000001D01*
X157585000Y-87956535D01*
X157585000Y-86518560D01*
X158001554Y-86935114D01*
G36*
X162065424Y-70669580D02*
G01*
X162128356Y-70688580D01*
X162186405Y-70719445D01*
X162237343Y-70760989D01*
X162279248Y-70811644D01*
X162310515Y-70869471D01*
X162329956Y-70932272D01*
X162340000Y-71027835D01*
X162340001Y-82406441D01*
X161998446Y-82064886D01*
X161484979Y-81721799D01*
X160914446Y-81485476D01*
X160308771Y-81365000D01*
X159691229Y-81365000D01*
X159085554Y-81485476D01*
X158515021Y-81721799D01*
X158001554Y-82064886D01*
X157585000Y-82481440D01*
X157585000Y-81612601D01*
X159336781Y-79860820D01*
X159381145Y-79914878D01*
X159477836Y-79994230D01*
X159588150Y-80053195D01*
X159707848Y-80089505D01*
X159832330Y-80101765D01*
X161532330Y-80101765D01*
X161656812Y-80089505D01*
X161776510Y-80053195D01*
X161886824Y-79994230D01*
X161983515Y-79914878D01*
X162062867Y-79818187D01*
X162121832Y-79707873D01*
X162158142Y-79588175D01*
X162170402Y-79463693D01*
X162170402Y-77763693D01*
X162158142Y-77639211D01*
X162121832Y-77519513D01*
X162062867Y-77409199D01*
X162009108Y-77343693D01*
X162062867Y-77278187D01*
X162121832Y-77167873D01*
X162158142Y-77048175D01*
X162170402Y-76923693D01*
X162170402Y-75223693D01*
X162158142Y-75099211D01*
X162121832Y-74979513D01*
X162062867Y-74869199D01*
X162009108Y-74803693D01*
X162062867Y-74738187D01*
X162121832Y-74627873D01*
X162158142Y-74508175D01*
X162170402Y-74383693D01*
X162170402Y-72683693D01*
X162158142Y-72559211D01*
X162121832Y-72439513D01*
X162062867Y-72329199D01*
X161983515Y-72232508D01*
X161886824Y-72153156D01*
X161776510Y-72094191D01*
X161656812Y-72057881D01*
X161532330Y-72045621D01*
X159832330Y-72045621D01*
X159707848Y-72057881D01*
X159588150Y-72094191D01*
X159477836Y-72153156D01*
X159381145Y-72232508D01*
X159301793Y-72329199D01*
X159242828Y-72439513D01*
X159206518Y-72559211D01*
X159194258Y-72683693D01*
X159194258Y-74383693D01*
X159206518Y-74508175D01*
X159242828Y-74627873D01*
X159301793Y-74738187D01*
X159355552Y-74803693D01*
X159301793Y-74869199D01*
X159242828Y-74979513D01*
X159206518Y-75099211D01*
X159194258Y-75223693D01*
X159194258Y-76923693D01*
X159206518Y-77048175D01*
X159242828Y-77167873D01*
X159301793Y-77278187D01*
X159355552Y-77343693D01*
X159301793Y-77409199D01*
X159242828Y-77519513D01*
X159206518Y-77639211D01*
X159196812Y-77737758D01*
X159158840Y-77741498D01*
X158992017Y-77792104D01*
X158838271Y-77874282D01*
X158737283Y-77957161D01*
X158737281Y-77957163D01*
X158703513Y-77984876D01*
X158675800Y-78018644D01*
X156104951Y-80589494D01*
X156071184Y-80617206D01*
X156055000Y-80636926D01*
X156055000Y-74144952D01*
X156058797Y-74106399D01*
X156055000Y-74067846D01*
X156055000Y-74067839D01*
X156043641Y-73952513D01*
X155998754Y-73804540D01*
X155925862Y-73668167D01*
X155827764Y-73548636D01*
X155797811Y-73524054D01*
X155745947Y-73472190D01*
X155721364Y-73442236D01*
X155601833Y-73344138D01*
X155501672Y-73290601D01*
X155501672Y-73136400D01*
X155489412Y-73011918D01*
X155453102Y-72892220D01*
X155394137Y-72781906D01*
X155314785Y-72685215D01*
X155218094Y-72605863D01*
X155107780Y-72546898D01*
X154988082Y-72510588D01*
X154863600Y-72498328D01*
X153136400Y-72498328D01*
X153011918Y-72510588D01*
X152892220Y-72546898D01*
X152781906Y-72605863D01*
X152685215Y-72685215D01*
X152605863Y-72781906D01*
X152546898Y-72892220D01*
X152531414Y-72943265D01*
X152524797Y-72935203D01*
X152296606Y-72747931D01*
X152036264Y-72608775D01*
X151753777Y-72523084D01*
X151533619Y-72501400D01*
X151386381Y-72501400D01*
X151166223Y-72523084D01*
X150883736Y-72608775D01*
X150623394Y-72747931D01*
X150395203Y-72935203D01*
X150207931Y-73163394D01*
X150190000Y-73196940D01*
X150172069Y-73163394D01*
X149984797Y-72935203D01*
X149756606Y-72747931D01*
X149496264Y-72608775D01*
X149213777Y-72523084D01*
X148993619Y-72501400D01*
X148846381Y-72501400D01*
X148626223Y-72523084D01*
X148343736Y-72608775D01*
X148083394Y-72747931D01*
X147855203Y-72935203D01*
X147667931Y-73163394D01*
X147650000Y-73196940D01*
X147632069Y-73163394D01*
X147444797Y-72935203D01*
X147216606Y-72747931D01*
X146956264Y-72608775D01*
X146673777Y-72523084D01*
X146453619Y-72501400D01*
X146306381Y-72501400D01*
X146086223Y-72523084D01*
X145803736Y-72608775D01*
X145543394Y-72747931D01*
X145315203Y-72935203D01*
X145127931Y-73163394D01*
X145110000Y-73196940D01*
X145092069Y-73163394D01*
X144904797Y-72935203D01*
X144676606Y-72747931D01*
X144416264Y-72608775D01*
X144133777Y-72523084D01*
X143913619Y-72501400D01*
X143766381Y-72501400D01*
X143546223Y-72523084D01*
X143263736Y-72608775D01*
X143003394Y-72747931D01*
X142775203Y-72935203D01*
X142587931Y-73163394D01*
X142570000Y-73196940D01*
X142552069Y-73163394D01*
X142364797Y-72935203D01*
X142136606Y-72747931D01*
X141876264Y-72608775D01*
X141593777Y-72523084D01*
X141373619Y-72501400D01*
X141226381Y-72501400D01*
X141006223Y-72523084D01*
X140723736Y-72608775D01*
X140463394Y-72747931D01*
X140235203Y-72935203D01*
X140047931Y-73163394D01*
X140030000Y-73196940D01*
X140012069Y-73163394D01*
X139824797Y-72935203D01*
X139596606Y-72747931D01*
X139336264Y-72608775D01*
X139053777Y-72523084D01*
X138833619Y-72501400D01*
X138686381Y-72501400D01*
X138466223Y-72523084D01*
X138183736Y-72608775D01*
X137923394Y-72747931D01*
X137695203Y-72935203D01*
X137507931Y-73163394D01*
X137490000Y-73196940D01*
X137472069Y-73163394D01*
X137284797Y-72935203D01*
X137056606Y-72747931D01*
X136796264Y-72608775D01*
X136513777Y-72523084D01*
X136293619Y-72501400D01*
X136146381Y-72501400D01*
X135926223Y-72523084D01*
X135643736Y-72608775D01*
X135383394Y-72747931D01*
X135155203Y-72935203D01*
X134967931Y-73163394D01*
X134950000Y-73196940D01*
X134932069Y-73163394D01*
X134744797Y-72935203D01*
X134516606Y-72747931D01*
X134256264Y-72608775D01*
X133973777Y-72523084D01*
X133753619Y-72501400D01*
X133606381Y-72501400D01*
X133386223Y-72523084D01*
X133103736Y-72608775D01*
X132843394Y-72747931D01*
X132615203Y-72935203D01*
X132427931Y-73163394D01*
X132410000Y-73196940D01*
X132392069Y-73163394D01*
X132204797Y-72935203D01*
X131976606Y-72747931D01*
X131716264Y-72608775D01*
X131433777Y-72523084D01*
X131213619Y-72501400D01*
X131066381Y-72501400D01*
X130846223Y-72523084D01*
X130563736Y-72608775D01*
X130303394Y-72747931D01*
X130075203Y-72935203D01*
X129887931Y-73163394D01*
X129870000Y-73196940D01*
X129852069Y-73163394D01*
X129664797Y-72935203D01*
X129436606Y-72747931D01*
X129176264Y-72608775D01*
X128893777Y-72523084D01*
X128673619Y-72501400D01*
X128526381Y-72501400D01*
X128306223Y-72523084D01*
X128023736Y-72608775D01*
X127763394Y-72747931D01*
X127535203Y-72935203D01*
X127347931Y-73163394D01*
X127330000Y-73196940D01*
X127312069Y-73163394D01*
X127124797Y-72935203D01*
X126896606Y-72747931D01*
X126636264Y-72608775D01*
X126353777Y-72523084D01*
X126133619Y-72501400D01*
X125986381Y-72501400D01*
X125766223Y-72523084D01*
X125483736Y-72608775D01*
X125223394Y-72747931D01*
X124995203Y-72935203D01*
X124878227Y-73077739D01*
X124681714Y-72838286D01*
X124432752Y-72633969D01*
X124148715Y-72482148D01*
X123840516Y-72388657D01*
X123600322Y-72365000D01*
X123520000Y-72357089D01*
X123439678Y-72365000D01*
X120899678Y-72365000D01*
X120659484Y-72388657D01*
X120351285Y-72482148D01*
X120067248Y-72633969D01*
X119818286Y-72838286D01*
X119710000Y-72970233D01*
X119601714Y-72838286D01*
X119352751Y-72633969D01*
X119068714Y-72482148D01*
X118760515Y-72388657D01*
X118440000Y-72357089D01*
X118119484Y-72388657D01*
X117811285Y-72482148D01*
X117527248Y-72633969D01*
X117278286Y-72838286D01*
X117073969Y-73087249D01*
X116922148Y-73371286D01*
X116828657Y-73679485D01*
X116805000Y-73919679D01*
X116805001Y-76459669D01*
X116797089Y-76540000D01*
X116805000Y-76620322D01*
X116805001Y-84319671D01*
X116797089Y-84400000D01*
X116828658Y-84720516D01*
X116922148Y-85028714D01*
X117066777Y-85299294D01*
X117073970Y-85312752D01*
X117079714Y-85319751D01*
X117131282Y-85579003D01*
X117280915Y-85940250D01*
X117498149Y-86265364D01*
X117774636Y-86541851D01*
X118099750Y-86759085D01*
X118460997Y-86908718D01*
X118844495Y-86985000D01*
X119235505Y-86985000D01*
X119619003Y-86908718D01*
X119980250Y-86759085D01*
X120305364Y-86541851D01*
X120581851Y-86265364D01*
X120799085Y-85940250D01*
X120948718Y-85579003D01*
X121011928Y-85261223D01*
X121011928Y-86099999D01*
X121028992Y-86273253D01*
X121079529Y-86439850D01*
X121161595Y-86593386D01*
X121272039Y-86727961D01*
X121406614Y-86838405D01*
X121560150Y-86920471D01*
X121726747Y-86971008D01*
X121900001Y-86988072D01*
X124099999Y-86988072D01*
X124273253Y-86971008D01*
X124439850Y-86920471D01*
X124593386Y-86838405D01*
X124727961Y-86727961D01*
X124838405Y-86593386D01*
X124920471Y-86439850D01*
X124971008Y-86273253D01*
X124988072Y-86099999D01*
X124988072Y-85201847D01*
X125037852Y-85108715D01*
X125131343Y-84800516D01*
X125155000Y-84560322D01*
X125155000Y-84560320D01*
X125162911Y-84480001D01*
X125155000Y-84399681D01*
X125155000Y-77735939D01*
X125223394Y-77792069D01*
X125483736Y-77931225D01*
X125766223Y-78016916D01*
X125986381Y-78038600D01*
X126133619Y-78038600D01*
X126353777Y-78016916D01*
X126545000Y-77958909D01*
X126545001Y-82735768D01*
X126500986Y-82759294D01*
X126274866Y-82944866D01*
X126089294Y-83170986D01*
X125951401Y-83428966D01*
X125866487Y-83708889D01*
X125837815Y-84000000D01*
X125866487Y-84291111D01*
X125951401Y-84571034D01*
X126089294Y-84829014D01*
X126274866Y-85055134D01*
X126500986Y-85240706D01*
X126555791Y-85270000D01*
X126500986Y-85299294D01*
X126274866Y-85484866D01*
X126089294Y-85710986D01*
X125951401Y-85968966D01*
X125866487Y-86248889D01*
X125837815Y-86540000D01*
X125866487Y-86831111D01*
X125951401Y-87111034D01*
X126089294Y-87369014D01*
X126274866Y-87595134D01*
X126500986Y-87780706D01*
X126758966Y-87918599D01*
X127038889Y-88003513D01*
X127257050Y-88025000D01*
X127402950Y-88025000D01*
X127621111Y-88003513D01*
X127901034Y-87918599D01*
X128159014Y-87780706D01*
X128385134Y-87595134D01*
X128570706Y-87369014D01*
X128600000Y-87314209D01*
X128629294Y-87369014D01*
X128814866Y-87595134D01*
X129040986Y-87780706D01*
X129298966Y-87918599D01*
X129578889Y-88003513D01*
X129797050Y-88025000D01*
X129942950Y-88025000D01*
X130161111Y-88003513D01*
X130441034Y-87918599D01*
X130699014Y-87780706D01*
X130925134Y-87595134D01*
X131110706Y-87369014D01*
X131140000Y-87314209D01*
X131169294Y-87369014D01*
X131354866Y-87595134D01*
X131580986Y-87780706D01*
X131838966Y-87918599D01*
X132118889Y-88003513D01*
X132337050Y-88025000D01*
X132482950Y-88025000D01*
X132701111Y-88003513D01*
X132981034Y-87918599D01*
X133239014Y-87780706D01*
X133465134Y-87595134D01*
X133650706Y-87369014D01*
X133680000Y-87314209D01*
X133709294Y-87369014D01*
X133894866Y-87595134D01*
X134120986Y-87780706D01*
X134378966Y-87918599D01*
X134658889Y-88003513D01*
X134877050Y-88025000D01*
X135022950Y-88025000D01*
X135241111Y-88003513D01*
X135521034Y-87918599D01*
X135779014Y-87780706D01*
X136005134Y-87595134D01*
X136029607Y-87565313D01*
X136050498Y-87634180D01*
X136109463Y-87744494D01*
X136188815Y-87841185D01*
X136285506Y-87920537D01*
X136395820Y-87979502D01*
X136515518Y-88015812D01*
X136640000Y-88028072D01*
X138340000Y-88028072D01*
X138464482Y-88015812D01*
X138584180Y-87979502D01*
X138694494Y-87920537D01*
X138791185Y-87841185D01*
X138870537Y-87744494D01*
X138929502Y-87634180D01*
X138950393Y-87565313D01*
X138974866Y-87595134D01*
X139200986Y-87780706D01*
X139458966Y-87918599D01*
X139738889Y-88003513D01*
X139957050Y-88025000D01*
X140102950Y-88025000D01*
X140321111Y-88003513D01*
X140601034Y-87918599D01*
X140859014Y-87780706D01*
X141085134Y-87595134D01*
X141109607Y-87565313D01*
X141130498Y-87634180D01*
X141189463Y-87744494D01*
X141268815Y-87841185D01*
X141365506Y-87920537D01*
X141475820Y-87979502D01*
X141595518Y-88015812D01*
X141685000Y-88024625D01*
X141685001Y-88853181D01*
X141680719Y-88896659D01*
X141697805Y-89070149D01*
X141748412Y-89236972D01*
X141803481Y-89340000D01*
X111532279Y-89340000D01*
X111434576Y-89330420D01*
X111371643Y-89311420D01*
X111313594Y-89280554D01*
X111262657Y-89239011D01*
X111220752Y-89188356D01*
X111189485Y-89130529D01*
X111170044Y-89067728D01*
X111160000Y-88972165D01*
X111160000Y-86593560D01*
X111501554Y-86935114D01*
X112015021Y-87278201D01*
X112585554Y-87514524D01*
X113191229Y-87635000D01*
X113808771Y-87635000D01*
X114414446Y-87514524D01*
X114984979Y-87278201D01*
X115498446Y-86935114D01*
X115935114Y-86498446D01*
X116278201Y-85984979D01*
X116514524Y-85414446D01*
X116635000Y-84808771D01*
X116635000Y-84191229D01*
X116514524Y-83585554D01*
X116278201Y-83015021D01*
X115935114Y-82501554D01*
X115498446Y-82064886D01*
X114984979Y-81721799D01*
X114414446Y-81485476D01*
X113808771Y-81365000D01*
X113191229Y-81365000D01*
X112585554Y-81485476D01*
X112015021Y-81721799D01*
X111501554Y-82064886D01*
X111160000Y-82406440D01*
X111160000Y-71032279D01*
X111169580Y-70934576D01*
X111188580Y-70871644D01*
X111219445Y-70813595D01*
X111260989Y-70762657D01*
X111311644Y-70720752D01*
X111369471Y-70689485D01*
X111432272Y-70670044D01*
X111527835Y-70660000D01*
X161967721Y-70660000D01*
X162065424Y-70669580D01*
X162065424Y-70669580D01*
G37*
X162065424Y-70669580D02*
X162128356Y-70688580D01*
X162186405Y-70719445D01*
X162237343Y-70760989D01*
X162279248Y-70811644D01*
X162310515Y-70869471D01*
X162329956Y-70932272D01*
X162340000Y-71027835D01*
X162340001Y-82406441D01*
X161998446Y-82064886D01*
X161484979Y-81721799D01*
X160914446Y-81485476D01*
X160308771Y-81365000D01*
X159691229Y-81365000D01*
X159085554Y-81485476D01*
X158515021Y-81721799D01*
X158001554Y-82064886D01*
X157585000Y-82481440D01*
X157585000Y-81612601D01*
X159336781Y-79860820D01*
X159381145Y-79914878D01*
X159477836Y-79994230D01*
X159588150Y-80053195D01*
X159707848Y-80089505D01*
X159832330Y-80101765D01*
X161532330Y-80101765D01*
X161656812Y-80089505D01*
X161776510Y-80053195D01*
X161886824Y-79994230D01*
X161983515Y-79914878D01*
X162062867Y-79818187D01*
X162121832Y-79707873D01*
X162158142Y-79588175D01*
X162170402Y-79463693D01*
X162170402Y-77763693D01*
X162158142Y-77639211D01*
X162121832Y-77519513D01*
X162062867Y-77409199D01*
X162009108Y-77343693D01*
X162062867Y-77278187D01*
X162121832Y-77167873D01*
X162158142Y-77048175D01*
X162170402Y-76923693D01*
X162170402Y-75223693D01*
X162158142Y-75099211D01*
X162121832Y-74979513D01*
X162062867Y-74869199D01*
X162009108Y-74803693D01*
X162062867Y-74738187D01*
X162121832Y-74627873D01*
X162158142Y-74508175D01*
X162170402Y-74383693D01*
X162170402Y-72683693D01*
X162158142Y-72559211D01*
X162121832Y-72439513D01*
X162062867Y-72329199D01*
X161983515Y-72232508D01*
X161886824Y-72153156D01*
X161776510Y-72094191D01*
X161656812Y-72057881D01*
X161532330Y-72045621D01*
X159832330Y-72045621D01*
X159707848Y-72057881D01*
X159588150Y-72094191D01*
X159477836Y-72153156D01*
X159381145Y-72232508D01*
X159301793Y-72329199D01*
X159242828Y-72439513D01*
X159206518Y-72559211D01*
X159194258Y-72683693D01*
X159194258Y-74383693D01*
X159206518Y-74508175D01*
X159242828Y-74627873D01*
X159301793Y-74738187D01*
X159355552Y-74803693D01*
X159301793Y-74869199D01*
X159242828Y-74979513D01*
X159206518Y-75099211D01*
X159194258Y-75223693D01*
X159194258Y-76923693D01*
X159206518Y-77048175D01*
X159242828Y-77167873D01*
X159301793Y-77278187D01*
X159355552Y-77343693D01*
X159301793Y-77409199D01*
X159242828Y-77519513D01*
X159206518Y-77639211D01*
X159196812Y-77737758D01*
X159158840Y-77741498D01*
X158992017Y-77792104D01*
X158838271Y-77874282D01*
X158737283Y-77957161D01*
X158737281Y-77957163D01*
X158703513Y-77984876D01*
X158675800Y-78018644D01*
X156104951Y-80589494D01*
X156071184Y-80617206D01*
X156055000Y-80636926D01*
X156055000Y-74144952D01*
X156058797Y-74106399D01*
X156055000Y-74067846D01*
X156055000Y-74067839D01*
X156043641Y-73952513D01*
X155998754Y-73804540D01*
X155925862Y-73668167D01*
X155827764Y-73548636D01*
X155797811Y-73524054D01*
X155745947Y-73472190D01*
X155721364Y-73442236D01*
X155601833Y-73344138D01*
X155501672Y-73290601D01*
X155501672Y-73136400D01*
X155489412Y-73011918D01*
X155453102Y-72892220D01*
X155394137Y-72781906D01*
X155314785Y-72685215D01*
X155218094Y-72605863D01*
X155107780Y-72546898D01*
X154988082Y-72510588D01*
X154863600Y-72498328D01*
X153136400Y-72498328D01*
X153011918Y-72510588D01*
X152892220Y-72546898D01*
X152781906Y-72605863D01*
X152685215Y-72685215D01*
X152605863Y-72781906D01*
X152546898Y-72892220D01*
X152531414Y-72943265D01*
X152524797Y-72935203D01*
X152296606Y-72747931D01*
X152036264Y-72608775D01*
X151753777Y-72523084D01*
X151533619Y-72501400D01*
X151386381Y-72501400D01*
X151166223Y-72523084D01*
X150883736Y-72608775D01*
X150623394Y-72747931D01*
X150395203Y-72935203D01*
X150207931Y-73163394D01*
X150190000Y-73196940D01*
X150172069Y-73163394D01*
X149984797Y-72935203D01*
X149756606Y-72747931D01*
X149496264Y-72608775D01*
X149213777Y-72523084D01*
X148993619Y-72501400D01*
X148846381Y-72501400D01*
X148626223Y-72523084D01*
X148343736Y-72608775D01*
X148083394Y-72747931D01*
X147855203Y-72935203D01*
X147667931Y-73163394D01*
X147650000Y-73196940D01*
X147632069Y-73163394D01*
X147444797Y-72935203D01*
X147216606Y-72747931D01*
X146956264Y-72608775D01*
X146673777Y-72523084D01*
X146453619Y-72501400D01*
X146306381Y-72501400D01*
X146086223Y-72523084D01*
X145803736Y-72608775D01*
X145543394Y-72747931D01*
X145315203Y-72935203D01*
X145127931Y-73163394D01*
X145110000Y-73196940D01*
X145092069Y-73163394D01*
X144904797Y-72935203D01*
X144676606Y-72747931D01*
X144416264Y-72608775D01*
X144133777Y-72523084D01*
X143913619Y-72501400D01*
X143766381Y-72501400D01*
X143546223Y-72523084D01*
X143263736Y-72608775D01*
X143003394Y-72747931D01*
X142775203Y-72935203D01*
X142587931Y-73163394D01*
X142570000Y-73196940D01*
X142552069Y-73163394D01*
X142364797Y-72935203D01*
X142136606Y-72747931D01*
X141876264Y-72608775D01*
X141593777Y-72523084D01*
X141373619Y-72501400D01*
X141226381Y-72501400D01*
X141006223Y-72523084D01*
X140723736Y-72608775D01*
X140463394Y-72747931D01*
X140235203Y-72935203D01*
X140047931Y-73163394D01*
X140030000Y-73196940D01*
X140012069Y-73163394D01*
X139824797Y-72935203D01*
X139596606Y-72747931D01*
X139336264Y-72608775D01*
X139053777Y-72523084D01*
X138833619Y-72501400D01*
X138686381Y-72501400D01*
X138466223Y-72523084D01*
X138183736Y-72608775D01*
X137923394Y-72747931D01*
X137695203Y-72935203D01*
X137507931Y-73163394D01*
X137490000Y-73196940D01*
X137472069Y-73163394D01*
X137284797Y-72935203D01*
X137056606Y-72747931D01*
X136796264Y-72608775D01*
X136513777Y-72523084D01*
X136293619Y-72501400D01*
X136146381Y-72501400D01*
X135926223Y-72523084D01*
X135643736Y-72608775D01*
X135383394Y-72747931D01*
X135155203Y-72935203D01*
X134967931Y-73163394D01*
X134950000Y-73196940D01*
X134932069Y-73163394D01*
X134744797Y-72935203D01*
X134516606Y-72747931D01*
X134256264Y-72608775D01*
X133973777Y-72523084D01*
X133753619Y-72501400D01*
X133606381Y-72501400D01*
X133386223Y-72523084D01*
X133103736Y-72608775D01*
X132843394Y-72747931D01*
X132615203Y-72935203D01*
X132427931Y-73163394D01*
X132410000Y-73196940D01*
X132392069Y-73163394D01*
X132204797Y-72935203D01*
X131976606Y-72747931D01*
X131716264Y-72608775D01*
X131433777Y-72523084D01*
X131213619Y-72501400D01*
X131066381Y-72501400D01*
X130846223Y-72523084D01*
X130563736Y-72608775D01*
X130303394Y-72747931D01*
X130075203Y-72935203D01*
X129887931Y-73163394D01*
X129870000Y-73196940D01*
X129852069Y-73163394D01*
X129664797Y-72935203D01*
X129436606Y-72747931D01*
X129176264Y-72608775D01*
X128893777Y-72523084D01*
X128673619Y-72501400D01*
X128526381Y-72501400D01*
X128306223Y-72523084D01*
X128023736Y-72608775D01*
X127763394Y-72747931D01*
X127535203Y-72935203D01*
X127347931Y-73163394D01*
X127330000Y-73196940D01*
X127312069Y-73163394D01*
X127124797Y-72935203D01*
X126896606Y-72747931D01*
X126636264Y-72608775D01*
X126353777Y-72523084D01*
X126133619Y-72501400D01*
X125986381Y-72501400D01*
X125766223Y-72523084D01*
X125483736Y-72608775D01*
X125223394Y-72747931D01*
X124995203Y-72935203D01*
X124878227Y-73077739D01*
X124681714Y-72838286D01*
X124432752Y-72633969D01*
X124148715Y-72482148D01*
X123840516Y-72388657D01*
X123600322Y-72365000D01*
X123520000Y-72357089D01*
X123439678Y-72365000D01*
X120899678Y-72365000D01*
X120659484Y-72388657D01*
X120351285Y-72482148D01*
X120067248Y-72633969D01*
X119818286Y-72838286D01*
X119710000Y-72970233D01*
X119601714Y-72838286D01*
X119352751Y-72633969D01*
X119068714Y-72482148D01*
X118760515Y-72388657D01*
X118440000Y-72357089D01*
X118119484Y-72388657D01*
X117811285Y-72482148D01*
X117527248Y-72633969D01*
X117278286Y-72838286D01*
X117073969Y-73087249D01*
X116922148Y-73371286D01*
X116828657Y-73679485D01*
X116805000Y-73919679D01*
X116805001Y-76459669D01*
X116797089Y-76540000D01*
X116805000Y-76620322D01*
X116805001Y-84319671D01*
X116797089Y-84400000D01*
X116828658Y-84720516D01*
X116922148Y-85028714D01*
X117066777Y-85299294D01*
X117073970Y-85312752D01*
X117079714Y-85319751D01*
X117131282Y-85579003D01*
X117280915Y-85940250D01*
X117498149Y-86265364D01*
X117774636Y-86541851D01*
X118099750Y-86759085D01*
X118460997Y-86908718D01*
X118844495Y-86985000D01*
X119235505Y-86985000D01*
X119619003Y-86908718D01*
X119980250Y-86759085D01*
X120305364Y-86541851D01*
X120581851Y-86265364D01*
X120799085Y-85940250D01*
X120948718Y-85579003D01*
X121011928Y-85261223D01*
X121011928Y-86099999D01*
X121028992Y-86273253D01*
X121079529Y-86439850D01*
X121161595Y-86593386D01*
X121272039Y-86727961D01*
X121406614Y-86838405D01*
X121560150Y-86920471D01*
X121726747Y-86971008D01*
X121900001Y-86988072D01*
X124099999Y-86988072D01*
X124273253Y-86971008D01*
X124439850Y-86920471D01*
X124593386Y-86838405D01*
X124727961Y-86727961D01*
X124838405Y-86593386D01*
X124920471Y-86439850D01*
X124971008Y-86273253D01*
X124988072Y-86099999D01*
X124988072Y-85201847D01*
X125037852Y-85108715D01*
X125131343Y-84800516D01*
X125155000Y-84560322D01*
X125155000Y-84560320D01*
X125162911Y-84480001D01*
X125155000Y-84399681D01*
X125155000Y-77735939D01*
X125223394Y-77792069D01*
X125483736Y-77931225D01*
X125766223Y-78016916D01*
X125986381Y-78038600D01*
X126133619Y-78038600D01*
X126353777Y-78016916D01*
X126545000Y-77958909D01*
X126545001Y-82735768D01*
X126500986Y-82759294D01*
X126274866Y-82944866D01*
X126089294Y-83170986D01*
X125951401Y-83428966D01*
X125866487Y-83708889D01*
X125837815Y-84000000D01*
X125866487Y-84291111D01*
X125951401Y-84571034D01*
X126089294Y-84829014D01*
X126274866Y-85055134D01*
X126500986Y-85240706D01*
X126555791Y-85270000D01*
X126500986Y-85299294D01*
X126274866Y-85484866D01*
X126089294Y-85710986D01*
X125951401Y-85968966D01*
X125866487Y-86248889D01*
X125837815Y-86540000D01*
X125866487Y-86831111D01*
X125951401Y-87111034D01*
X126089294Y-87369014D01*
X126274866Y-87595134D01*
X126500986Y-87780706D01*
X126758966Y-87918599D01*
X127038889Y-88003513D01*
X127257050Y-88025000D01*
X127402950Y-88025000D01*
X127621111Y-88003513D01*
X127901034Y-87918599D01*
X128159014Y-87780706D01*
X128385134Y-87595134D01*
X128570706Y-87369014D01*
X128600000Y-87314209D01*
X128629294Y-87369014D01*
X128814866Y-87595134D01*
X129040986Y-87780706D01*
X129298966Y-87918599D01*
X129578889Y-88003513D01*
X129797050Y-88025000D01*
X129942950Y-88025000D01*
X130161111Y-88003513D01*
X130441034Y-87918599D01*
X130699014Y-87780706D01*
X130925134Y-87595134D01*
X131110706Y-87369014D01*
X131140000Y-87314209D01*
X131169294Y-87369014D01*
X131354866Y-87595134D01*
X131580986Y-87780706D01*
X131838966Y-87918599D01*
X132118889Y-88003513D01*
X132337050Y-88025000D01*
X132482950Y-88025000D01*
X132701111Y-88003513D01*
X132981034Y-87918599D01*
X133239014Y-87780706D01*
X133465134Y-87595134D01*
X133650706Y-87369014D01*
X133680000Y-87314209D01*
X133709294Y-87369014D01*
X133894866Y-87595134D01*
X134120986Y-87780706D01*
X134378966Y-87918599D01*
X134658889Y-88003513D01*
X134877050Y-88025000D01*
X135022950Y-88025000D01*
X135241111Y-88003513D01*
X135521034Y-87918599D01*
X135779014Y-87780706D01*
X136005134Y-87595134D01*
X136029607Y-87565313D01*
X136050498Y-87634180D01*
X136109463Y-87744494D01*
X136188815Y-87841185D01*
X136285506Y-87920537D01*
X136395820Y-87979502D01*
X136515518Y-88015812D01*
X136640000Y-88028072D01*
X138340000Y-88028072D01*
X138464482Y-88015812D01*
X138584180Y-87979502D01*
X138694494Y-87920537D01*
X138791185Y-87841185D01*
X138870537Y-87744494D01*
X138929502Y-87634180D01*
X138950393Y-87565313D01*
X138974866Y-87595134D01*
X139200986Y-87780706D01*
X139458966Y-87918599D01*
X139738889Y-88003513D01*
X139957050Y-88025000D01*
X140102950Y-88025000D01*
X140321111Y-88003513D01*
X140601034Y-87918599D01*
X140859014Y-87780706D01*
X141085134Y-87595134D01*
X141109607Y-87565313D01*
X141130498Y-87634180D01*
X141189463Y-87744494D01*
X141268815Y-87841185D01*
X141365506Y-87920537D01*
X141475820Y-87979502D01*
X141595518Y-88015812D01*
X141685000Y-88024625D01*
X141685001Y-88853181D01*
X141680719Y-88896659D01*
X141697805Y-89070149D01*
X141748412Y-89236972D01*
X141803481Y-89340000D01*
X111532279Y-89340000D01*
X111434576Y-89330420D01*
X111371643Y-89311420D01*
X111313594Y-89280554D01*
X111262657Y-89239011D01*
X111220752Y-89188356D01*
X111189485Y-89130529D01*
X111170044Y-89067728D01*
X111160000Y-88972165D01*
X111160000Y-86593560D01*
X111501554Y-86935114D01*
X112015021Y-87278201D01*
X112585554Y-87514524D01*
X113191229Y-87635000D01*
X113808771Y-87635000D01*
X114414446Y-87514524D01*
X114984979Y-87278201D01*
X115498446Y-86935114D01*
X115935114Y-86498446D01*
X116278201Y-85984979D01*
X116514524Y-85414446D01*
X116635000Y-84808771D01*
X116635000Y-84191229D01*
X116514524Y-83585554D01*
X116278201Y-83015021D01*
X115935114Y-82501554D01*
X115498446Y-82064886D01*
X114984979Y-81721799D01*
X114414446Y-81485476D01*
X113808771Y-81365000D01*
X113191229Y-81365000D01*
X112585554Y-81485476D01*
X112015021Y-81721799D01*
X111501554Y-82064886D01*
X111160000Y-82406440D01*
X111160000Y-71032279D01*
X111169580Y-70934576D01*
X111188580Y-70871644D01*
X111219445Y-70813595D01*
X111260989Y-70762657D01*
X111311644Y-70720752D01*
X111369471Y-70689485D01*
X111432272Y-70670044D01*
X111527835Y-70660000D01*
X161967721Y-70660000D01*
X162065424Y-70669580D01*
G36*
X143905506Y-87920537D02*
G01*
X144015820Y-87979502D01*
X144132841Y-88015000D01*
X143547159Y-88015000D01*
X143664180Y-87979502D01*
X143774494Y-87920537D01*
X143840000Y-87866778D01*
X143905506Y-87920537D01*
X143905506Y-87920537D01*
G37*
X143905506Y-87920537D02*
X144015820Y-87979502D01*
X144132841Y-88015000D01*
X143547159Y-88015000D01*
X143664180Y-87979502D01*
X143774494Y-87920537D01*
X143840000Y-87866778D01*
X143905506Y-87920537D01*
G36*
X146445506Y-87920537D02*
G01*
X146555820Y-87979502D01*
X146672841Y-88015000D01*
X146087159Y-88015000D01*
X146204180Y-87979502D01*
X146314494Y-87920537D01*
X146380000Y-87866778D01*
X146445506Y-87920537D01*
X146445506Y-87920537D01*
G37*
X146445506Y-87920537D02*
X146555820Y-87979502D01*
X146672841Y-88015000D01*
X146087159Y-88015000D01*
X146204180Y-87979502D01*
X146314494Y-87920537D01*
X146380000Y-87866778D01*
X146445506Y-87920537D01*
G36*
X151489294Y-87369014D02*
G01*
X151674866Y-87595134D01*
X151900986Y-87780706D01*
X152158966Y-87918599D01*
X152438889Y-88003513D01*
X152555518Y-88015000D01*
X150364482Y-88015000D01*
X150481111Y-88003513D01*
X150761034Y-87918599D01*
X151019014Y-87780706D01*
X151245134Y-87595134D01*
X151430706Y-87369014D01*
X151460000Y-87314209D01*
X151489294Y-87369014D01*
X151489294Y-87369014D01*
G37*
X151489294Y-87369014D02*
X151674866Y-87595134D01*
X151900986Y-87780706D01*
X152158966Y-87918599D01*
X152438889Y-88003513D01*
X152555518Y-88015000D01*
X150364482Y-88015000D01*
X150481111Y-88003513D01*
X150761034Y-87918599D01*
X151019014Y-87780706D01*
X151245134Y-87595134D01*
X151430706Y-87369014D01*
X151460000Y-87314209D01*
X151489294Y-87369014D01*
G36*
X153830498Y-87634180D02*
G01*
X153889463Y-87744494D01*
X153968815Y-87841185D01*
X154065506Y-87920537D01*
X154175820Y-87979502D01*
X154292841Y-88015000D01*
X152904482Y-88015000D01*
X153021111Y-88003513D01*
X153301034Y-87918599D01*
X153559014Y-87780706D01*
X153785134Y-87595134D01*
X153809607Y-87565313D01*
X153830498Y-87634180D01*
X153830498Y-87634180D01*
G37*
X153830498Y-87634180D02*
X153889463Y-87744494D01*
X153968815Y-87841185D01*
X154065506Y-87920537D01*
X154175820Y-87979502D01*
X154292841Y-88015000D01*
X152904482Y-88015000D01*
X153021111Y-88003513D01*
X153301034Y-87918599D01*
X153559014Y-87780706D01*
X153785134Y-87595134D01*
X153809607Y-87565313D01*
X153830498Y-87634180D01*
G36*
X149134866Y-87595134D02*
G01*
X149360986Y-87780706D01*
X149618966Y-87918599D01*
X149898889Y-88003513D01*
X150015518Y-88015000D01*
X148627159Y-88015000D01*
X148744180Y-87979502D01*
X148854494Y-87920537D01*
X148951185Y-87841185D01*
X149030537Y-87744494D01*
X149089502Y-87634180D01*
X149110393Y-87565313D01*
X149134866Y-87595134D01*
X149134866Y-87595134D01*
G37*
X149134866Y-87595134D02*
X149360986Y-87780706D01*
X149618966Y-87918599D01*
X149898889Y-88003513D01*
X150015518Y-88015000D01*
X148627159Y-88015000D01*
X148744180Y-87979502D01*
X148854494Y-87920537D01*
X148951185Y-87841185D01*
X149030537Y-87744494D01*
X149089502Y-87634180D01*
X149110393Y-87565313D01*
X149134866Y-87595134D01*
G36*
X131169294Y-84829014D02*
G01*
X131354866Y-85055134D01*
X131580986Y-85240706D01*
X131635791Y-85270000D01*
X131580986Y-85299294D01*
X131354866Y-85484866D01*
X131169294Y-85710986D01*
X131140000Y-85765791D01*
X131110706Y-85710986D01*
X130925134Y-85484866D01*
X130699014Y-85299294D01*
X130644209Y-85270000D01*
X130699014Y-85240706D01*
X130925134Y-85055134D01*
X131110706Y-84829014D01*
X131140000Y-84774209D01*
X131169294Y-84829014D01*
X131169294Y-84829014D01*
G37*
X131169294Y-84829014D02*
X131354866Y-85055134D01*
X131580986Y-85240706D01*
X131635791Y-85270000D01*
X131580986Y-85299294D01*
X131354866Y-85484866D01*
X131169294Y-85710986D01*
X131140000Y-85765791D01*
X131110706Y-85710986D01*
X130925134Y-85484866D01*
X130699014Y-85299294D01*
X130644209Y-85270000D01*
X130699014Y-85240706D01*
X130925134Y-85055134D01*
X131110706Y-84829014D01*
X131140000Y-84774209D01*
X131169294Y-84829014D01*
G36*
X133709294Y-84829014D02*
G01*
X133894866Y-85055134D01*
X134120986Y-85240706D01*
X134175791Y-85270000D01*
X134120986Y-85299294D01*
X133894866Y-85484866D01*
X133709294Y-85710986D01*
X133680000Y-85765791D01*
X133650706Y-85710986D01*
X133465134Y-85484866D01*
X133239014Y-85299294D01*
X133184209Y-85270000D01*
X133239014Y-85240706D01*
X133465134Y-85055134D01*
X133650706Y-84829014D01*
X133680000Y-84774209D01*
X133709294Y-84829014D01*
X133709294Y-84829014D01*
G37*
X133709294Y-84829014D02*
X133894866Y-85055134D01*
X134120986Y-85240706D01*
X134175791Y-85270000D01*
X134120986Y-85299294D01*
X133894866Y-85484866D01*
X133709294Y-85710986D01*
X133680000Y-85765791D01*
X133650706Y-85710986D01*
X133465134Y-85484866D01*
X133239014Y-85299294D01*
X133184209Y-85270000D01*
X133239014Y-85240706D01*
X133465134Y-85055134D01*
X133650706Y-84829014D01*
X133680000Y-84774209D01*
X133709294Y-84829014D01*
G36*
X151489294Y-84829014D02*
G01*
X151674866Y-85055134D01*
X151900986Y-85240706D01*
X151955791Y-85270000D01*
X151900986Y-85299294D01*
X151674866Y-85484866D01*
X151489294Y-85710986D01*
X151460000Y-85765791D01*
X151430706Y-85710986D01*
X151245134Y-85484866D01*
X151019014Y-85299294D01*
X150964209Y-85270000D01*
X151019014Y-85240706D01*
X151245134Y-85055134D01*
X151430706Y-84829014D01*
X151460000Y-84774209D01*
X151489294Y-84829014D01*
X151489294Y-84829014D01*
G37*
X151489294Y-84829014D02*
X151674866Y-85055134D01*
X151900986Y-85240706D01*
X151955791Y-85270000D01*
X151900986Y-85299294D01*
X151674866Y-85484866D01*
X151489294Y-85710986D01*
X151460000Y-85765791D01*
X151430706Y-85710986D01*
X151245134Y-85484866D01*
X151019014Y-85299294D01*
X150964209Y-85270000D01*
X151019014Y-85240706D01*
X151245134Y-85055134D01*
X151430706Y-84829014D01*
X151460000Y-84774209D01*
X151489294Y-84829014D01*
G36*
X128629294Y-84829014D02*
G01*
X128814866Y-85055134D01*
X129040986Y-85240706D01*
X129095791Y-85270000D01*
X129040986Y-85299294D01*
X128814866Y-85484866D01*
X128629294Y-85710986D01*
X128600000Y-85765791D01*
X128570706Y-85710986D01*
X128385134Y-85484866D01*
X128159014Y-85299294D01*
X128104209Y-85270000D01*
X128159014Y-85240706D01*
X128385134Y-85055134D01*
X128570706Y-84829014D01*
X128600000Y-84774209D01*
X128629294Y-84829014D01*
X128629294Y-84829014D01*
G37*
X128629294Y-84829014D02*
X128814866Y-85055134D01*
X129040986Y-85240706D01*
X129095791Y-85270000D01*
X129040986Y-85299294D01*
X128814866Y-85484866D01*
X128629294Y-85710986D01*
X128600000Y-85765791D01*
X128570706Y-85710986D01*
X128385134Y-85484866D01*
X128159014Y-85299294D01*
X128104209Y-85270000D01*
X128159014Y-85240706D01*
X128385134Y-85055134D01*
X128570706Y-84829014D01*
X128600000Y-84774209D01*
X128629294Y-84829014D01*
G36*
X136249294Y-84829014D02*
G01*
X136434866Y-85055134D01*
X136464687Y-85079607D01*
X136395820Y-85100498D01*
X136285506Y-85159463D01*
X136188815Y-85238815D01*
X136109463Y-85335506D01*
X136050498Y-85445820D01*
X136029607Y-85514687D01*
X136005134Y-85484866D01*
X135779014Y-85299294D01*
X135724209Y-85270000D01*
X135779014Y-85240706D01*
X136005134Y-85055134D01*
X136190706Y-84829014D01*
X136220000Y-84774209D01*
X136249294Y-84829014D01*
X136249294Y-84829014D01*
G37*
X136249294Y-84829014D02*
X136434866Y-85055134D01*
X136464687Y-85079607D01*
X136395820Y-85100498D01*
X136285506Y-85159463D01*
X136188815Y-85238815D01*
X136109463Y-85335506D01*
X136050498Y-85445820D01*
X136029607Y-85514687D01*
X136005134Y-85484866D01*
X135779014Y-85299294D01*
X135724209Y-85270000D01*
X135779014Y-85240706D01*
X136005134Y-85055134D01*
X136190706Y-84829014D01*
X136220000Y-84774209D01*
X136249294Y-84829014D01*
G36*
X148949294Y-84829014D02*
G01*
X149134866Y-85055134D01*
X149360986Y-85240706D01*
X149415791Y-85270000D01*
X149360986Y-85299294D01*
X149134866Y-85484866D01*
X149110393Y-85514687D01*
X149089502Y-85445820D01*
X149030537Y-85335506D01*
X148951185Y-85238815D01*
X148854494Y-85159463D01*
X148744180Y-85100498D01*
X148675313Y-85079607D01*
X148705134Y-85055134D01*
X148890706Y-84829014D01*
X148920000Y-84774209D01*
X148949294Y-84829014D01*
X148949294Y-84829014D01*
G37*
X148949294Y-84829014D02*
X149134866Y-85055134D01*
X149360986Y-85240706D01*
X149415791Y-85270000D01*
X149360986Y-85299294D01*
X149134866Y-85484866D01*
X149110393Y-85514687D01*
X149089502Y-85445820D01*
X149030537Y-85335506D01*
X148951185Y-85238815D01*
X148854494Y-85159463D01*
X148744180Y-85100498D01*
X148675313Y-85079607D01*
X148705134Y-85055134D01*
X148890706Y-84829014D01*
X148920000Y-84774209D01*
X148949294Y-84829014D01*
G36*
X141329294Y-84829014D02*
G01*
X141514866Y-85055134D01*
X141544687Y-85079607D01*
X141475820Y-85100498D01*
X141365506Y-85159463D01*
X141268815Y-85238815D01*
X141189463Y-85335506D01*
X141130498Y-85445820D01*
X141109607Y-85514687D01*
X141085134Y-85484866D01*
X140859014Y-85299294D01*
X140804209Y-85270000D01*
X140859014Y-85240706D01*
X141085134Y-85055134D01*
X141270706Y-84829014D01*
X141300000Y-84774209D01*
X141329294Y-84829014D01*
X141329294Y-84829014D01*
G37*
X141329294Y-84829014D02*
X141514866Y-85055134D01*
X141544687Y-85079607D01*
X141475820Y-85100498D01*
X141365506Y-85159463D01*
X141268815Y-85238815D01*
X141189463Y-85335506D01*
X141130498Y-85445820D01*
X141109607Y-85514687D01*
X141085134Y-85484866D01*
X140859014Y-85299294D01*
X140804209Y-85270000D01*
X140859014Y-85240706D01*
X141085134Y-85055134D01*
X141270706Y-84829014D01*
X141300000Y-84774209D01*
X141329294Y-84829014D01*
G36*
X138789294Y-84829014D02*
G01*
X138974866Y-85055134D01*
X139200986Y-85240706D01*
X139255791Y-85270000D01*
X139200986Y-85299294D01*
X138974866Y-85484866D01*
X138950393Y-85514687D01*
X138929502Y-85445820D01*
X138870537Y-85335506D01*
X138791185Y-85238815D01*
X138694494Y-85159463D01*
X138584180Y-85100498D01*
X138515313Y-85079607D01*
X138545134Y-85055134D01*
X138730706Y-84829014D01*
X138760000Y-84774209D01*
X138789294Y-84829014D01*
X138789294Y-84829014D01*
G37*
X138789294Y-84829014D02*
X138974866Y-85055134D01*
X139200986Y-85240706D01*
X139255791Y-85270000D01*
X139200986Y-85299294D01*
X138974866Y-85484866D01*
X138950393Y-85514687D01*
X138929502Y-85445820D01*
X138870537Y-85335506D01*
X138791185Y-85238815D01*
X138694494Y-85159463D01*
X138584180Y-85100498D01*
X138515313Y-85079607D01*
X138545134Y-85055134D01*
X138730706Y-84829014D01*
X138760000Y-84774209D01*
X138789294Y-84829014D01*
G36*
X154116525Y-84946632D02*
G01*
X154248380Y-85078487D01*
X154175820Y-85100498D01*
X154065506Y-85159463D01*
X153968815Y-85238815D01*
X153889463Y-85335506D01*
X153830498Y-85445820D01*
X153809607Y-85514687D01*
X153785134Y-85484866D01*
X153559014Y-85299294D01*
X153504209Y-85270000D01*
X153559014Y-85240706D01*
X153785134Y-85055134D01*
X153970706Y-84829014D01*
X154000585Y-84773115D01*
X154116525Y-84946632D01*
X154116525Y-84946632D01*
G37*
X154116525Y-84946632D02*
X154248380Y-85078487D01*
X154175820Y-85100498D01*
X154065506Y-85159463D01*
X153968815Y-85238815D01*
X153889463Y-85335506D01*
X153830498Y-85445820D01*
X153809607Y-85514687D01*
X153785134Y-85484866D01*
X153559014Y-85299294D01*
X153504209Y-85270000D01*
X153559014Y-85240706D01*
X153785134Y-85055134D01*
X153970706Y-84829014D01*
X154000585Y-84773115D01*
X154116525Y-84946632D01*
G36*
X143869294Y-84829014D02*
G01*
X144054866Y-85055134D01*
X144084687Y-85079607D01*
X144015820Y-85100498D01*
X143905506Y-85159463D01*
X143840000Y-85213222D01*
X143774494Y-85159463D01*
X143664180Y-85100498D01*
X143595313Y-85079607D01*
X143625134Y-85055134D01*
X143810706Y-84829014D01*
X143840000Y-84774209D01*
X143869294Y-84829014D01*
X143869294Y-84829014D01*
G37*
X143869294Y-84829014D02*
X144054866Y-85055134D01*
X144084687Y-85079607D01*
X144015820Y-85100498D01*
X143905506Y-85159463D01*
X143840000Y-85213222D01*
X143774494Y-85159463D01*
X143664180Y-85100498D01*
X143595313Y-85079607D01*
X143625134Y-85055134D01*
X143810706Y-84829014D01*
X143840000Y-84774209D01*
X143869294Y-84829014D01*
G36*
X146409294Y-84829014D02*
G01*
X146594866Y-85055134D01*
X146624687Y-85079607D01*
X146555820Y-85100498D01*
X146445506Y-85159463D01*
X146380000Y-85213222D01*
X146314494Y-85159463D01*
X146204180Y-85100498D01*
X146135313Y-85079607D01*
X146165134Y-85055134D01*
X146350706Y-84829014D01*
X146380000Y-84774209D01*
X146409294Y-84829014D01*
X146409294Y-84829014D01*
G37*
X146409294Y-84829014D02*
X146594866Y-85055134D01*
X146624687Y-85079607D01*
X146555820Y-85100498D01*
X146445506Y-85159463D01*
X146380000Y-85213222D01*
X146314494Y-85159463D01*
X146204180Y-85100498D01*
X146135313Y-85079607D01*
X146165134Y-85055134D01*
X146350706Y-84829014D01*
X146380000Y-84774209D01*
X146409294Y-84829014D01*
G36*
X121885001Y-83013405D02*
G01*
X121726747Y-83028992D01*
X121560150Y-83079529D01*
X121406614Y-83161595D01*
X121272039Y-83272039D01*
X121161595Y-83406614D01*
X121079529Y-83560150D01*
X121028992Y-83726747D01*
X121011928Y-83900001D01*
X121011928Y-84738777D01*
X120948718Y-84420997D01*
X120799085Y-84059750D01*
X120581851Y-83734636D01*
X120305364Y-83458149D01*
X120075000Y-83304225D01*
X120075000Y-78175000D01*
X121060322Y-78175000D01*
X121300516Y-78151343D01*
X121608715Y-78057852D01*
X121885000Y-77910174D01*
X121885001Y-83013405D01*
X121885001Y-83013405D01*
G37*
X121885001Y-83013405D02*
X121726747Y-83028992D01*
X121560150Y-83079529D01*
X121406614Y-83161595D01*
X121272039Y-83272039D01*
X121161595Y-83406614D01*
X121079529Y-83560150D01*
X121028992Y-83726747D01*
X121011928Y-83900001D01*
X121011928Y-84738777D01*
X120948718Y-84420997D01*
X120799085Y-84059750D01*
X120581851Y-83734636D01*
X120305364Y-83458149D01*
X120075000Y-83304225D01*
X120075000Y-78175000D01*
X121060322Y-78175000D01*
X121300516Y-78151343D01*
X121608715Y-78057852D01*
X121885000Y-77910174D01*
X121885001Y-83013405D01*
G36*
X154485001Y-82738525D02*
G01*
X154323368Y-82846525D01*
X154116525Y-83053368D01*
X154000585Y-83226885D01*
X153970706Y-83170986D01*
X153785134Y-82944866D01*
X153559014Y-82759294D01*
X153515000Y-82735768D01*
X153515000Y-77958909D01*
X153706223Y-78016916D01*
X153926381Y-78038600D01*
X154073619Y-78038600D01*
X154293777Y-78016916D01*
X154485000Y-77958909D01*
X154485001Y-82738525D01*
X154485001Y-82738525D01*
G37*
X154485001Y-82738525D02*
X154323368Y-82846525D01*
X154116525Y-83053368D01*
X154000585Y-83226885D01*
X153970706Y-83170986D01*
X153785134Y-82944866D01*
X153559014Y-82759294D01*
X153515000Y-82735768D01*
X153515000Y-77958909D01*
X153706223Y-78016916D01*
X153926381Y-78038600D01*
X154073619Y-78038600D01*
X154293777Y-78016916D01*
X154485000Y-77958909D01*
X154485001Y-82738525D01*
G36*
X136705001Y-82735768D02*
G01*
X136660986Y-82759294D01*
X136434866Y-82944866D01*
X136249294Y-83170986D01*
X136220000Y-83225791D01*
X136190706Y-83170986D01*
X136005134Y-82944866D01*
X135779014Y-82759294D01*
X135735000Y-82735768D01*
X135735000Y-77958909D01*
X135926223Y-78016916D01*
X136146381Y-78038600D01*
X136293619Y-78038600D01*
X136513777Y-78016916D01*
X136705000Y-77958909D01*
X136705001Y-82735768D01*
X136705001Y-82735768D01*
G37*
X136705001Y-82735768D02*
X136660986Y-82759294D01*
X136434866Y-82944866D01*
X136249294Y-83170986D01*
X136220000Y-83225791D01*
X136190706Y-83170986D01*
X136005134Y-82944866D01*
X135779014Y-82759294D01*
X135735000Y-82735768D01*
X135735000Y-77958909D01*
X135926223Y-78016916D01*
X136146381Y-78038600D01*
X136293619Y-78038600D01*
X136513777Y-78016916D01*
X136705000Y-77958909D01*
X136705001Y-82735768D01*
G36*
X139245001Y-82735768D02*
G01*
X139200986Y-82759294D01*
X138974866Y-82944866D01*
X138789294Y-83170986D01*
X138760000Y-83225791D01*
X138730706Y-83170986D01*
X138545134Y-82944866D01*
X138319014Y-82759294D01*
X138275000Y-82735768D01*
X138275000Y-77958909D01*
X138466223Y-78016916D01*
X138686381Y-78038600D01*
X138833619Y-78038600D01*
X139053777Y-78016916D01*
X139245000Y-77958909D01*
X139245001Y-82735768D01*
X139245001Y-82735768D01*
G37*
X139245001Y-82735768D02*
X139200986Y-82759294D01*
X138974866Y-82944866D01*
X138789294Y-83170986D01*
X138760000Y-83225791D01*
X138730706Y-83170986D01*
X138545134Y-82944866D01*
X138319014Y-82759294D01*
X138275000Y-82735768D01*
X138275000Y-77958909D01*
X138466223Y-78016916D01*
X138686381Y-78038600D01*
X138833619Y-78038600D01*
X139053777Y-78016916D01*
X139245000Y-77958909D01*
X139245001Y-82735768D01*
G36*
X141785001Y-82735768D02*
G01*
X141740986Y-82759294D01*
X141514866Y-82944866D01*
X141329294Y-83170986D01*
X141300000Y-83225791D01*
X141270706Y-83170986D01*
X141085134Y-82944866D01*
X140859014Y-82759294D01*
X140815000Y-82735768D01*
X140815000Y-77958909D01*
X141006223Y-78016916D01*
X141226381Y-78038600D01*
X141373619Y-78038600D01*
X141593777Y-78016916D01*
X141785000Y-77958909D01*
X141785001Y-82735768D01*
X141785001Y-82735768D01*
G37*
X141785001Y-82735768D02*
X141740986Y-82759294D01*
X141514866Y-82944866D01*
X141329294Y-83170986D01*
X141300000Y-83225791D01*
X141270706Y-83170986D01*
X141085134Y-82944866D01*
X140859014Y-82759294D01*
X140815000Y-82735768D01*
X140815000Y-77958909D01*
X141006223Y-78016916D01*
X141226381Y-78038600D01*
X141373619Y-78038600D01*
X141593777Y-78016916D01*
X141785000Y-77958909D01*
X141785001Y-82735768D01*
G36*
X144325001Y-82735768D02*
G01*
X144280986Y-82759294D01*
X144054866Y-82944866D01*
X143869294Y-83170986D01*
X143840000Y-83225791D01*
X143810706Y-83170986D01*
X143625134Y-82944866D01*
X143399014Y-82759294D01*
X143355000Y-82735768D01*
X143355000Y-77958909D01*
X143546223Y-78016916D01*
X143766381Y-78038600D01*
X143913619Y-78038600D01*
X144133777Y-78016916D01*
X144325000Y-77958909D01*
X144325001Y-82735768D01*
X144325001Y-82735768D01*
G37*
X144325001Y-82735768D02*
X144280986Y-82759294D01*
X144054866Y-82944866D01*
X143869294Y-83170986D01*
X143840000Y-83225791D01*
X143810706Y-83170986D01*
X143625134Y-82944866D01*
X143399014Y-82759294D01*
X143355000Y-82735768D01*
X143355000Y-77958909D01*
X143546223Y-78016916D01*
X143766381Y-78038600D01*
X143913619Y-78038600D01*
X144133777Y-78016916D01*
X144325000Y-77958909D01*
X144325001Y-82735768D01*
G36*
X146865001Y-82735768D02*
G01*
X146820986Y-82759294D01*
X146594866Y-82944866D01*
X146409294Y-83170986D01*
X146380000Y-83225791D01*
X146350706Y-83170986D01*
X146165134Y-82944866D01*
X145939014Y-82759294D01*
X145895000Y-82735768D01*
X145895000Y-77958909D01*
X146086223Y-78016916D01*
X146306381Y-78038600D01*
X146453619Y-78038600D01*
X146673777Y-78016916D01*
X146865000Y-77958909D01*
X146865001Y-82735768D01*
X146865001Y-82735768D01*
G37*
X146865001Y-82735768D02*
X146820986Y-82759294D01*
X146594866Y-82944866D01*
X146409294Y-83170986D01*
X146380000Y-83225791D01*
X146350706Y-83170986D01*
X146165134Y-82944866D01*
X145939014Y-82759294D01*
X145895000Y-82735768D01*
X145895000Y-77958909D01*
X146086223Y-78016916D01*
X146306381Y-78038600D01*
X146453619Y-78038600D01*
X146673777Y-78016916D01*
X146865000Y-77958909D01*
X146865001Y-82735768D01*
G36*
X149405001Y-82735768D02*
G01*
X149360986Y-82759294D01*
X149134866Y-82944866D01*
X148949294Y-83170986D01*
X148920000Y-83225791D01*
X148890706Y-83170986D01*
X148705134Y-82944866D01*
X148479014Y-82759294D01*
X148435000Y-82735768D01*
X148435000Y-77958909D01*
X148626223Y-78016916D01*
X148846381Y-78038600D01*
X148993619Y-78038600D01*
X149213777Y-78016916D01*
X149405000Y-77958909D01*
X149405001Y-82735768D01*
X149405001Y-82735768D01*
G37*
X149405001Y-82735768D02*
X149360986Y-82759294D01*
X149134866Y-82944866D01*
X148949294Y-83170986D01*
X148920000Y-83225791D01*
X148890706Y-83170986D01*
X148705134Y-82944866D01*
X148479014Y-82759294D01*
X148435000Y-82735768D01*
X148435000Y-77958909D01*
X148626223Y-78016916D01*
X148846381Y-78038600D01*
X148993619Y-78038600D01*
X149213777Y-78016916D01*
X149405000Y-77958909D01*
X149405001Y-82735768D01*
G36*
X131625001Y-82735768D02*
G01*
X131580986Y-82759294D01*
X131354866Y-82944866D01*
X131169294Y-83170986D01*
X131140000Y-83225791D01*
X131110706Y-83170986D01*
X130925134Y-82944866D01*
X130699014Y-82759294D01*
X130655000Y-82735768D01*
X130655000Y-77958909D01*
X130846223Y-78016916D01*
X131066381Y-78038600D01*
X131213619Y-78038600D01*
X131433777Y-78016916D01*
X131625000Y-77958909D01*
X131625001Y-82735768D01*
X131625001Y-82735768D01*
G37*
X131625001Y-82735768D02*
X131580986Y-82759294D01*
X131354866Y-82944866D01*
X131169294Y-83170986D01*
X131140000Y-83225791D01*
X131110706Y-83170986D01*
X130925134Y-82944866D01*
X130699014Y-82759294D01*
X130655000Y-82735768D01*
X130655000Y-77958909D01*
X130846223Y-78016916D01*
X131066381Y-78038600D01*
X131213619Y-78038600D01*
X131433777Y-78016916D01*
X131625000Y-77958909D01*
X131625001Y-82735768D01*
G36*
X129085001Y-82735768D02*
G01*
X129040986Y-82759294D01*
X128814866Y-82944866D01*
X128629294Y-83170986D01*
X128600000Y-83225791D01*
X128570706Y-83170986D01*
X128385134Y-82944866D01*
X128159014Y-82759294D01*
X128115000Y-82735768D01*
X128115000Y-77958909D01*
X128306223Y-78016916D01*
X128526381Y-78038600D01*
X128673619Y-78038600D01*
X128893777Y-78016916D01*
X129085000Y-77958909D01*
X129085001Y-82735768D01*
X129085001Y-82735768D01*
G37*
X129085001Y-82735768D02*
X129040986Y-82759294D01*
X128814866Y-82944866D01*
X128629294Y-83170986D01*
X128600000Y-83225791D01*
X128570706Y-83170986D01*
X128385134Y-82944866D01*
X128159014Y-82759294D01*
X128115000Y-82735768D01*
X128115000Y-77958909D01*
X128306223Y-78016916D01*
X128526381Y-78038600D01*
X128673619Y-78038600D01*
X128893777Y-78016916D01*
X129085000Y-77958909D01*
X129085001Y-82735768D01*
G36*
X134165001Y-82735768D02*
G01*
X134120986Y-82759294D01*
X133894866Y-82944866D01*
X133709294Y-83170986D01*
X133680000Y-83225791D01*
X133650706Y-83170986D01*
X133465134Y-82944866D01*
X133239014Y-82759294D01*
X133195000Y-82735768D01*
X133195000Y-77958909D01*
X133386223Y-78016916D01*
X133606381Y-78038600D01*
X133753619Y-78038600D01*
X133973777Y-78016916D01*
X134165000Y-77958909D01*
X134165001Y-82735768D01*
X134165001Y-82735768D01*
G37*
X134165001Y-82735768D02*
X134120986Y-82759294D01*
X133894866Y-82944866D01*
X133709294Y-83170986D01*
X133680000Y-83225791D01*
X133650706Y-83170986D01*
X133465134Y-82944866D01*
X133239014Y-82759294D01*
X133195000Y-82735768D01*
X133195000Y-77958909D01*
X133386223Y-78016916D01*
X133606381Y-78038600D01*
X133753619Y-78038600D01*
X133973777Y-78016916D01*
X134165000Y-77958909D01*
X134165001Y-82735768D01*
G36*
X151945001Y-82735768D02*
G01*
X151900986Y-82759294D01*
X151674866Y-82944866D01*
X151489294Y-83170986D01*
X151460000Y-83225791D01*
X151430706Y-83170986D01*
X151245134Y-82944866D01*
X151019014Y-82759294D01*
X150975000Y-82735768D01*
X150975000Y-77958909D01*
X151166223Y-78016916D01*
X151386381Y-78038600D01*
X151533619Y-78038600D01*
X151753777Y-78016916D01*
X151945000Y-77958909D01*
X151945001Y-82735768D01*
X151945001Y-82735768D01*
G37*
X151945001Y-82735768D02*
X151900986Y-82759294D01*
X151674866Y-82944866D01*
X151489294Y-83170986D01*
X151460000Y-83225791D01*
X151430706Y-83170986D01*
X151245134Y-82944866D01*
X151019014Y-82759294D01*
X150975000Y-82735768D01*
X150975000Y-77958909D01*
X151166223Y-78016916D01*
X151386381Y-78038600D01*
X151533619Y-78038600D01*
X151753777Y-78016916D01*
X151945000Y-77958909D01*
X151945001Y-82735768D01*
G36*
X125223394Y-75252069D02*
G01*
X125256940Y-75270000D01*
X125223394Y-75287931D01*
X125155000Y-75344061D01*
X125155000Y-75195939D01*
X125223394Y-75252069D01*
X125223394Y-75252069D01*
G37*
X125223394Y-75252069D02*
X125256940Y-75270000D01*
X125223394Y-75287931D01*
X125155000Y-75344061D01*
X125155000Y-75195939D01*
X125223394Y-75252069D01*
M02*
