M48
; DRILL file {KiCad (5.1.4-0-10_14)} date 2019 October 04, Friday 00:01:18
; FORMAT={-:-/ absolute / metric / decimal}
; #@! TF.CreationDate,2019-10-04T00:01:18+03:00
; #@! TF.GenerationSoftware,Kicad,Pcbnew,(5.1.4-0-10_14)
; #@! TF.FileFunction,Plated,1,2,PTH
FMAT,2
METRIC
T1C1.000
T2C1.016
T3C1.700
T4C3.200
%
G90
G05
T1
X127.33Y-84.0
X127.33Y-86.54
X129.87Y-84.0
X129.87Y-86.54
X132.41Y-84.0
X132.41Y-86.54
X134.95Y-84.0
X134.95Y-86.54
X137.49Y-84.0
X137.49Y-86.54
X140.03Y-84.0
X140.03Y-86.54
X142.57Y-84.0
X142.57Y-86.54
X145.11Y-84.0
X145.11Y-86.54
X147.65Y-84.0
X147.65Y-86.54
X150.19Y-84.0
X150.19Y-86.54
X152.73Y-84.0
X152.73Y-86.54
X155.27Y-84.0
X155.27Y-86.54
X160.682Y-73.534
X160.682Y-76.074
X160.682Y-78.614
T2
X118.44Y-74.0
X118.44Y-76.54
X120.98Y-74.0
X120.98Y-76.54
X123.52Y-74.0
X123.52Y-76.54
X126.06Y-74.0
X126.06Y-76.54
X128.6Y-74.0
X128.6Y-76.54
X131.14Y-74.0
X131.14Y-76.54
X133.68Y-74.0
X133.68Y-76.54
X136.22Y-74.0
X136.22Y-76.54
X138.76Y-74.0
X138.76Y-76.54
X141.3Y-74.0
X141.3Y-76.54
X143.84Y-74.0
X143.84Y-76.54
X146.38Y-74.0
X146.38Y-76.54
X148.92Y-74.0
X148.92Y-76.54
X151.46Y-74.0
X151.46Y-76.54
X154.0Y-74.0
X154.0Y-76.54
T3
X119.04Y-85.0
X123.0Y-85.0
T4
X160.0Y-84.5
X113.5Y-84.5
T0
M30
