G04 #@! TF.GenerationSoftware,KiCad,Pcbnew,(5.1.4-0-10_14)*
G04 #@! TF.CreationDate,2019-10-04T00:01:10+03:00*
G04 #@! TF.ProjectId,RibbonCable_MB_BreakdownBoard_pt,52696262-6f6e-4436-9162-6c655f4d425f,rev?*
G04 #@! TF.SameCoordinates,Original*
G04 #@! TF.FileFunction,Soldermask,Bot*
G04 #@! TF.FilePolarity,Negative*
%FSLAX46Y46*%
G04 Gerber Fmt 4.6, Leading zero omitted, Abs format (unit mm)*
G04 Created by KiCad (PCBNEW (5.1.4-0-10_14)) date 2019-10-04 00:01:10*
%MOMM*%
%LPD*%
G04 APERTURE LIST*
%ADD10C,0.150000*%
G04 APERTURE END LIST*
D10*
G36*
X156171000Y-87441000D02*
G01*
X154369000Y-87441000D01*
X154369000Y-85639000D01*
X156171000Y-85639000D01*
X156171000Y-87441000D01*
X156171000Y-87441000D01*
G37*
G36*
X152840443Y-85645519D02*
G01*
X152906627Y-85652037D01*
X153076466Y-85703557D01*
X153232991Y-85787222D01*
X153268729Y-85816552D01*
X153370186Y-85899814D01*
X153453448Y-86001271D01*
X153482778Y-86037009D01*
X153566443Y-86193534D01*
X153617963Y-86363373D01*
X153635359Y-86540000D01*
X153617963Y-86716627D01*
X153566443Y-86886466D01*
X153482778Y-87042991D01*
X153476205Y-87051000D01*
X153370186Y-87180186D01*
X153268729Y-87263448D01*
X153232991Y-87292778D01*
X153076466Y-87376443D01*
X152906627Y-87427963D01*
X152840442Y-87434482D01*
X152774260Y-87441000D01*
X152685740Y-87441000D01*
X152619558Y-87434482D01*
X152553373Y-87427963D01*
X152383534Y-87376443D01*
X152227009Y-87292778D01*
X152191271Y-87263448D01*
X152089814Y-87180186D01*
X151983795Y-87051000D01*
X151977222Y-87042991D01*
X151893557Y-86886466D01*
X151842037Y-86716627D01*
X151824641Y-86540000D01*
X151842037Y-86363373D01*
X151893557Y-86193534D01*
X151977222Y-86037009D01*
X152006552Y-86001271D01*
X152089814Y-85899814D01*
X152191271Y-85816552D01*
X152227009Y-85787222D01*
X152383534Y-85703557D01*
X152553373Y-85652037D01*
X152619557Y-85645519D01*
X152685740Y-85639000D01*
X152774260Y-85639000D01*
X152840443Y-85645519D01*
X152840443Y-85645519D01*
G37*
G36*
X150300443Y-85645519D02*
G01*
X150366627Y-85652037D01*
X150536466Y-85703557D01*
X150692991Y-85787222D01*
X150728729Y-85816552D01*
X150830186Y-85899814D01*
X150913448Y-86001271D01*
X150942778Y-86037009D01*
X151026443Y-86193534D01*
X151077963Y-86363373D01*
X151095359Y-86540000D01*
X151077963Y-86716627D01*
X151026443Y-86886466D01*
X150942778Y-87042991D01*
X150936205Y-87051000D01*
X150830186Y-87180186D01*
X150728729Y-87263448D01*
X150692991Y-87292778D01*
X150536466Y-87376443D01*
X150366627Y-87427963D01*
X150300442Y-87434482D01*
X150234260Y-87441000D01*
X150145740Y-87441000D01*
X150079558Y-87434482D01*
X150013373Y-87427963D01*
X149843534Y-87376443D01*
X149687009Y-87292778D01*
X149651271Y-87263448D01*
X149549814Y-87180186D01*
X149443795Y-87051000D01*
X149437222Y-87042991D01*
X149353557Y-86886466D01*
X149302037Y-86716627D01*
X149284641Y-86540000D01*
X149302037Y-86363373D01*
X149353557Y-86193534D01*
X149437222Y-86037009D01*
X149466552Y-86001271D01*
X149549814Y-85899814D01*
X149651271Y-85816552D01*
X149687009Y-85787222D01*
X149843534Y-85703557D01*
X150013373Y-85652037D01*
X150079557Y-85645519D01*
X150145740Y-85639000D01*
X150234260Y-85639000D01*
X150300443Y-85645519D01*
X150300443Y-85645519D01*
G37*
G36*
X148551000Y-87441000D02*
G01*
X146749000Y-87441000D01*
X146749000Y-85639000D01*
X148551000Y-85639000D01*
X148551000Y-87441000D01*
X148551000Y-87441000D01*
G37*
G36*
X146011000Y-87441000D02*
G01*
X144209000Y-87441000D01*
X144209000Y-85639000D01*
X146011000Y-85639000D01*
X146011000Y-87441000D01*
X146011000Y-87441000D01*
G37*
G36*
X143471000Y-87441000D02*
G01*
X141669000Y-87441000D01*
X141669000Y-85639000D01*
X143471000Y-85639000D01*
X143471000Y-87441000D01*
X143471000Y-87441000D01*
G37*
G36*
X140140443Y-85645519D02*
G01*
X140206627Y-85652037D01*
X140376466Y-85703557D01*
X140532991Y-85787222D01*
X140568729Y-85816552D01*
X140670186Y-85899814D01*
X140753448Y-86001271D01*
X140782778Y-86037009D01*
X140866443Y-86193534D01*
X140917963Y-86363373D01*
X140935359Y-86540000D01*
X140917963Y-86716627D01*
X140866443Y-86886466D01*
X140782778Y-87042991D01*
X140776205Y-87051000D01*
X140670186Y-87180186D01*
X140568729Y-87263448D01*
X140532991Y-87292778D01*
X140376466Y-87376443D01*
X140206627Y-87427963D01*
X140140442Y-87434482D01*
X140074260Y-87441000D01*
X139985740Y-87441000D01*
X139919558Y-87434482D01*
X139853373Y-87427963D01*
X139683534Y-87376443D01*
X139527009Y-87292778D01*
X139491271Y-87263448D01*
X139389814Y-87180186D01*
X139283795Y-87051000D01*
X139277222Y-87042991D01*
X139193557Y-86886466D01*
X139142037Y-86716627D01*
X139124641Y-86540000D01*
X139142037Y-86363373D01*
X139193557Y-86193534D01*
X139277222Y-86037009D01*
X139306552Y-86001271D01*
X139389814Y-85899814D01*
X139491271Y-85816552D01*
X139527009Y-85787222D01*
X139683534Y-85703557D01*
X139853373Y-85652037D01*
X139919557Y-85645519D01*
X139985740Y-85639000D01*
X140074260Y-85639000D01*
X140140443Y-85645519D01*
X140140443Y-85645519D01*
G37*
G36*
X138391000Y-87441000D02*
G01*
X136589000Y-87441000D01*
X136589000Y-85639000D01*
X138391000Y-85639000D01*
X138391000Y-87441000D01*
X138391000Y-87441000D01*
G37*
G36*
X135060443Y-85645519D02*
G01*
X135126627Y-85652037D01*
X135296466Y-85703557D01*
X135452991Y-85787222D01*
X135488729Y-85816552D01*
X135590186Y-85899814D01*
X135673448Y-86001271D01*
X135702778Y-86037009D01*
X135786443Y-86193534D01*
X135837963Y-86363373D01*
X135855359Y-86540000D01*
X135837963Y-86716627D01*
X135786443Y-86886466D01*
X135702778Y-87042991D01*
X135696205Y-87051000D01*
X135590186Y-87180186D01*
X135488729Y-87263448D01*
X135452991Y-87292778D01*
X135296466Y-87376443D01*
X135126627Y-87427963D01*
X135060442Y-87434482D01*
X134994260Y-87441000D01*
X134905740Y-87441000D01*
X134839558Y-87434482D01*
X134773373Y-87427963D01*
X134603534Y-87376443D01*
X134447009Y-87292778D01*
X134411271Y-87263448D01*
X134309814Y-87180186D01*
X134203795Y-87051000D01*
X134197222Y-87042991D01*
X134113557Y-86886466D01*
X134062037Y-86716627D01*
X134044641Y-86540000D01*
X134062037Y-86363373D01*
X134113557Y-86193534D01*
X134197222Y-86037009D01*
X134226552Y-86001271D01*
X134309814Y-85899814D01*
X134411271Y-85816552D01*
X134447009Y-85787222D01*
X134603534Y-85703557D01*
X134773373Y-85652037D01*
X134839557Y-85645519D01*
X134905740Y-85639000D01*
X134994260Y-85639000D01*
X135060443Y-85645519D01*
X135060443Y-85645519D01*
G37*
G36*
X132520443Y-85645519D02*
G01*
X132586627Y-85652037D01*
X132756466Y-85703557D01*
X132912991Y-85787222D01*
X132948729Y-85816552D01*
X133050186Y-85899814D01*
X133133448Y-86001271D01*
X133162778Y-86037009D01*
X133246443Y-86193534D01*
X133297963Y-86363373D01*
X133315359Y-86540000D01*
X133297963Y-86716627D01*
X133246443Y-86886466D01*
X133162778Y-87042991D01*
X133156205Y-87051000D01*
X133050186Y-87180186D01*
X132948729Y-87263448D01*
X132912991Y-87292778D01*
X132756466Y-87376443D01*
X132586627Y-87427963D01*
X132520442Y-87434482D01*
X132454260Y-87441000D01*
X132365740Y-87441000D01*
X132299558Y-87434482D01*
X132233373Y-87427963D01*
X132063534Y-87376443D01*
X131907009Y-87292778D01*
X131871271Y-87263448D01*
X131769814Y-87180186D01*
X131663795Y-87051000D01*
X131657222Y-87042991D01*
X131573557Y-86886466D01*
X131522037Y-86716627D01*
X131504641Y-86540000D01*
X131522037Y-86363373D01*
X131573557Y-86193534D01*
X131657222Y-86037009D01*
X131686552Y-86001271D01*
X131769814Y-85899814D01*
X131871271Y-85816552D01*
X131907009Y-85787222D01*
X132063534Y-85703557D01*
X132233373Y-85652037D01*
X132299557Y-85645519D01*
X132365740Y-85639000D01*
X132454260Y-85639000D01*
X132520443Y-85645519D01*
X132520443Y-85645519D01*
G37*
G36*
X129980443Y-85645519D02*
G01*
X130046627Y-85652037D01*
X130216466Y-85703557D01*
X130372991Y-85787222D01*
X130408729Y-85816552D01*
X130510186Y-85899814D01*
X130593448Y-86001271D01*
X130622778Y-86037009D01*
X130706443Y-86193534D01*
X130757963Y-86363373D01*
X130775359Y-86540000D01*
X130757963Y-86716627D01*
X130706443Y-86886466D01*
X130622778Y-87042991D01*
X130616205Y-87051000D01*
X130510186Y-87180186D01*
X130408729Y-87263448D01*
X130372991Y-87292778D01*
X130216466Y-87376443D01*
X130046627Y-87427963D01*
X129980442Y-87434482D01*
X129914260Y-87441000D01*
X129825740Y-87441000D01*
X129759558Y-87434482D01*
X129693373Y-87427963D01*
X129523534Y-87376443D01*
X129367009Y-87292778D01*
X129331271Y-87263448D01*
X129229814Y-87180186D01*
X129123795Y-87051000D01*
X129117222Y-87042991D01*
X129033557Y-86886466D01*
X128982037Y-86716627D01*
X128964641Y-86540000D01*
X128982037Y-86363373D01*
X129033557Y-86193534D01*
X129117222Y-86037009D01*
X129146552Y-86001271D01*
X129229814Y-85899814D01*
X129331271Y-85816552D01*
X129367009Y-85787222D01*
X129523534Y-85703557D01*
X129693373Y-85652037D01*
X129759557Y-85645519D01*
X129825740Y-85639000D01*
X129914260Y-85639000D01*
X129980443Y-85645519D01*
X129980443Y-85645519D01*
G37*
G36*
X127440443Y-85645519D02*
G01*
X127506627Y-85652037D01*
X127676466Y-85703557D01*
X127832991Y-85787222D01*
X127868729Y-85816552D01*
X127970186Y-85899814D01*
X128053448Y-86001271D01*
X128082778Y-86037009D01*
X128166443Y-86193534D01*
X128217963Y-86363373D01*
X128235359Y-86540000D01*
X128217963Y-86716627D01*
X128166443Y-86886466D01*
X128082778Y-87042991D01*
X128076205Y-87051000D01*
X127970186Y-87180186D01*
X127868729Y-87263448D01*
X127832991Y-87292778D01*
X127676466Y-87376443D01*
X127506627Y-87427963D01*
X127440442Y-87434482D01*
X127374260Y-87441000D01*
X127285740Y-87441000D01*
X127219558Y-87434482D01*
X127153373Y-87427963D01*
X126983534Y-87376443D01*
X126827009Y-87292778D01*
X126791271Y-87263448D01*
X126689814Y-87180186D01*
X126583795Y-87051000D01*
X126577222Y-87042991D01*
X126493557Y-86886466D01*
X126442037Y-86716627D01*
X126424641Y-86540000D01*
X126442037Y-86363373D01*
X126493557Y-86193534D01*
X126577222Y-86037009D01*
X126606552Y-86001271D01*
X126689814Y-85899814D01*
X126791271Y-85816552D01*
X126827009Y-85787222D01*
X126983534Y-85703557D01*
X127153373Y-85652037D01*
X127219557Y-85645519D01*
X127285740Y-85639000D01*
X127374260Y-85639000D01*
X127440443Y-85645519D01*
X127440443Y-85645519D01*
G37*
G36*
X114244098Y-82047033D02*
G01*
X114708350Y-82239332D01*
X114708352Y-82239333D01*
X115126168Y-82518509D01*
X115481491Y-82873832D01*
X115730982Y-83247222D01*
X115760668Y-83291650D01*
X115952967Y-83755902D01*
X116051000Y-84248747D01*
X116051000Y-84751253D01*
X115952967Y-85244098D01*
X115779195Y-85663621D01*
X115760667Y-85708352D01*
X115481491Y-86126168D01*
X115126168Y-86481491D01*
X114708352Y-86760667D01*
X114708351Y-86760668D01*
X114708350Y-86760668D01*
X114244098Y-86952967D01*
X113751253Y-87051000D01*
X113248747Y-87051000D01*
X112755902Y-86952967D01*
X112291650Y-86760668D01*
X112291649Y-86760668D01*
X112291648Y-86760667D01*
X111873832Y-86481491D01*
X111518509Y-86126168D01*
X111239333Y-85708352D01*
X111220805Y-85663621D01*
X111047033Y-85244098D01*
X110949000Y-84751253D01*
X110949000Y-84248747D01*
X111047033Y-83755902D01*
X111239332Y-83291650D01*
X111269018Y-83247222D01*
X111518509Y-82873832D01*
X111873832Y-82518509D01*
X112291648Y-82239333D01*
X112291650Y-82239332D01*
X112755902Y-82047033D01*
X113248747Y-81949000D01*
X113751253Y-81949000D01*
X114244098Y-82047033D01*
X114244098Y-82047033D01*
G37*
G36*
X160744098Y-82047033D02*
G01*
X161208350Y-82239332D01*
X161208352Y-82239333D01*
X161626168Y-82518509D01*
X161981491Y-82873832D01*
X162230982Y-83247222D01*
X162260668Y-83291650D01*
X162452967Y-83755902D01*
X162551000Y-84248747D01*
X162551000Y-84751253D01*
X162452967Y-85244098D01*
X162279195Y-85663621D01*
X162260667Y-85708352D01*
X161981491Y-86126168D01*
X161626168Y-86481491D01*
X161208352Y-86760667D01*
X161208351Y-86760668D01*
X161208350Y-86760668D01*
X160744098Y-86952967D01*
X160251253Y-87051000D01*
X159748747Y-87051000D01*
X159255902Y-86952967D01*
X158791650Y-86760668D01*
X158791649Y-86760668D01*
X158791648Y-86760667D01*
X158373832Y-86481491D01*
X158018509Y-86126168D01*
X157739333Y-85708352D01*
X157720805Y-85663621D01*
X157547033Y-85244098D01*
X157449000Y-84751253D01*
X157449000Y-84248747D01*
X157547033Y-83755902D01*
X157739332Y-83291650D01*
X157769018Y-83247222D01*
X158018509Y-82873832D01*
X158373832Y-82518509D01*
X158791648Y-82239333D01*
X158791650Y-82239332D01*
X159255902Y-82047033D01*
X159748747Y-81949000D01*
X160251253Y-81949000D01*
X160744098Y-82047033D01*
X160744098Y-82047033D01*
G37*
G36*
X119314038Y-83626062D02*
G01*
X119448657Y-83652839D01*
X119554097Y-83696514D01*
X119703621Y-83758449D01*
X119777525Y-83807830D01*
X119933086Y-83911772D01*
X120128228Y-84106914D01*
X120174807Y-84176625D01*
X120281551Y-84336379D01*
X120387161Y-84591344D01*
X120441000Y-84862012D01*
X120441000Y-85137988D01*
X120387161Y-85408656D01*
X120281551Y-85663621D01*
X120254866Y-85703558D01*
X120128228Y-85893086D01*
X119933086Y-86088228D01*
X119876304Y-86126168D01*
X119703621Y-86241551D01*
X119625207Y-86274031D01*
X119448657Y-86347161D01*
X119367142Y-86363375D01*
X119177988Y-86401000D01*
X118902012Y-86401000D01*
X118712858Y-86363375D01*
X118631343Y-86347161D01*
X118454793Y-86274031D01*
X118376379Y-86241551D01*
X118203696Y-86126168D01*
X118146914Y-86088228D01*
X117951772Y-85893086D01*
X117825134Y-85703558D01*
X117798449Y-85663621D01*
X117692839Y-85408656D01*
X117639000Y-85137988D01*
X117639000Y-84862012D01*
X117692839Y-84591344D01*
X117798449Y-84336379D01*
X117905193Y-84176625D01*
X117951772Y-84106914D01*
X118146914Y-83911772D01*
X118302475Y-83807830D01*
X118376379Y-83758449D01*
X118525903Y-83696514D01*
X118631343Y-83652839D01*
X118765962Y-83626062D01*
X118902012Y-83599000D01*
X119177988Y-83599000D01*
X119314038Y-83626062D01*
X119314038Y-83626062D01*
G37*
G36*
X124274031Y-83602621D02*
G01*
X124303486Y-83611556D01*
X124330623Y-83626062D01*
X124354414Y-83645586D01*
X124373938Y-83669377D01*
X124388444Y-83696514D01*
X124397379Y-83725969D01*
X124401000Y-83762734D01*
X124401000Y-86237266D01*
X124397379Y-86274031D01*
X124388444Y-86303486D01*
X124373938Y-86330623D01*
X124354414Y-86354414D01*
X124330623Y-86373938D01*
X124303486Y-86388444D01*
X124274031Y-86397379D01*
X124237266Y-86401000D01*
X121762734Y-86401000D01*
X121725969Y-86397379D01*
X121696514Y-86388444D01*
X121669377Y-86373938D01*
X121645586Y-86354414D01*
X121626062Y-86330623D01*
X121611556Y-86303486D01*
X121602621Y-86274031D01*
X121599000Y-86237266D01*
X121599000Y-83762734D01*
X121602621Y-83725969D01*
X121611556Y-83696514D01*
X121626062Y-83669377D01*
X121645586Y-83645586D01*
X121669377Y-83626062D01*
X121696514Y-83611556D01*
X121725969Y-83602621D01*
X121762734Y-83599000D01*
X124237266Y-83599000D01*
X124274031Y-83602621D01*
X124274031Y-83602621D01*
G37*
G36*
X150300442Y-83105518D02*
G01*
X150366627Y-83112037D01*
X150536466Y-83163557D01*
X150692991Y-83247222D01*
X150728729Y-83276552D01*
X150830186Y-83359814D01*
X150913448Y-83461271D01*
X150942778Y-83497009D01*
X151026443Y-83653534D01*
X151077963Y-83823373D01*
X151095359Y-84000000D01*
X151077963Y-84176627D01*
X151026443Y-84346466D01*
X150942778Y-84502991D01*
X150913448Y-84538729D01*
X150830186Y-84640186D01*
X150757480Y-84699853D01*
X150692991Y-84752778D01*
X150536466Y-84836443D01*
X150366627Y-84887963D01*
X150300442Y-84894482D01*
X150234260Y-84901000D01*
X150145740Y-84901000D01*
X150079558Y-84894482D01*
X150013373Y-84887963D01*
X149843534Y-84836443D01*
X149687009Y-84752778D01*
X149622520Y-84699853D01*
X149549814Y-84640186D01*
X149466552Y-84538729D01*
X149437222Y-84502991D01*
X149353557Y-84346466D01*
X149302037Y-84176627D01*
X149284641Y-84000000D01*
X149302037Y-83823373D01*
X149353557Y-83653534D01*
X149437222Y-83497009D01*
X149466552Y-83461271D01*
X149549814Y-83359814D01*
X149651271Y-83276552D01*
X149687009Y-83247222D01*
X149843534Y-83163557D01*
X150013373Y-83112037D01*
X150079558Y-83105518D01*
X150145740Y-83099000D01*
X150234260Y-83099000D01*
X150300442Y-83105518D01*
X150300442Y-83105518D01*
G37*
G36*
X142680442Y-83105518D02*
G01*
X142746627Y-83112037D01*
X142916466Y-83163557D01*
X143072991Y-83247222D01*
X143108729Y-83276552D01*
X143210186Y-83359814D01*
X143293448Y-83461271D01*
X143322778Y-83497009D01*
X143406443Y-83653534D01*
X143457963Y-83823373D01*
X143475359Y-84000000D01*
X143457963Y-84176627D01*
X143406443Y-84346466D01*
X143322778Y-84502991D01*
X143293448Y-84538729D01*
X143210186Y-84640186D01*
X143137480Y-84699853D01*
X143072991Y-84752778D01*
X142916466Y-84836443D01*
X142746627Y-84887963D01*
X142680442Y-84894482D01*
X142614260Y-84901000D01*
X142525740Y-84901000D01*
X142459558Y-84894482D01*
X142393373Y-84887963D01*
X142223534Y-84836443D01*
X142067009Y-84752778D01*
X142002520Y-84699853D01*
X141929814Y-84640186D01*
X141846552Y-84538729D01*
X141817222Y-84502991D01*
X141733557Y-84346466D01*
X141682037Y-84176627D01*
X141664641Y-84000000D01*
X141682037Y-83823373D01*
X141733557Y-83653534D01*
X141817222Y-83497009D01*
X141846552Y-83461271D01*
X141929814Y-83359814D01*
X142031271Y-83276552D01*
X142067009Y-83247222D01*
X142223534Y-83163557D01*
X142393373Y-83112037D01*
X142459558Y-83105518D01*
X142525740Y-83099000D01*
X142614260Y-83099000D01*
X142680442Y-83105518D01*
X142680442Y-83105518D01*
G37*
G36*
X147760442Y-83105518D02*
G01*
X147826627Y-83112037D01*
X147996466Y-83163557D01*
X148152991Y-83247222D01*
X148188729Y-83276552D01*
X148290186Y-83359814D01*
X148373448Y-83461271D01*
X148402778Y-83497009D01*
X148486443Y-83653534D01*
X148537963Y-83823373D01*
X148555359Y-84000000D01*
X148537963Y-84176627D01*
X148486443Y-84346466D01*
X148402778Y-84502991D01*
X148373448Y-84538729D01*
X148290186Y-84640186D01*
X148217480Y-84699853D01*
X148152991Y-84752778D01*
X147996466Y-84836443D01*
X147826627Y-84887963D01*
X147760442Y-84894482D01*
X147694260Y-84901000D01*
X147605740Y-84901000D01*
X147539558Y-84894482D01*
X147473373Y-84887963D01*
X147303534Y-84836443D01*
X147147009Y-84752778D01*
X147082520Y-84699853D01*
X147009814Y-84640186D01*
X146926552Y-84538729D01*
X146897222Y-84502991D01*
X146813557Y-84346466D01*
X146762037Y-84176627D01*
X146744641Y-84000000D01*
X146762037Y-83823373D01*
X146813557Y-83653534D01*
X146897222Y-83497009D01*
X146926552Y-83461271D01*
X147009814Y-83359814D01*
X147111271Y-83276552D01*
X147147009Y-83247222D01*
X147303534Y-83163557D01*
X147473373Y-83112037D01*
X147539558Y-83105518D01*
X147605740Y-83099000D01*
X147694260Y-83099000D01*
X147760442Y-83105518D01*
X147760442Y-83105518D01*
G37*
G36*
X145220442Y-83105518D02*
G01*
X145286627Y-83112037D01*
X145456466Y-83163557D01*
X145612991Y-83247222D01*
X145648729Y-83276552D01*
X145750186Y-83359814D01*
X145833448Y-83461271D01*
X145862778Y-83497009D01*
X145946443Y-83653534D01*
X145997963Y-83823373D01*
X146015359Y-84000000D01*
X145997963Y-84176627D01*
X145946443Y-84346466D01*
X145862778Y-84502991D01*
X145833448Y-84538729D01*
X145750186Y-84640186D01*
X145677480Y-84699853D01*
X145612991Y-84752778D01*
X145456466Y-84836443D01*
X145286627Y-84887963D01*
X145220442Y-84894482D01*
X145154260Y-84901000D01*
X145065740Y-84901000D01*
X144999558Y-84894482D01*
X144933373Y-84887963D01*
X144763534Y-84836443D01*
X144607009Y-84752778D01*
X144542520Y-84699853D01*
X144469814Y-84640186D01*
X144386552Y-84538729D01*
X144357222Y-84502991D01*
X144273557Y-84346466D01*
X144222037Y-84176627D01*
X144204641Y-84000000D01*
X144222037Y-83823373D01*
X144273557Y-83653534D01*
X144357222Y-83497009D01*
X144386552Y-83461271D01*
X144469814Y-83359814D01*
X144571271Y-83276552D01*
X144607009Y-83247222D01*
X144763534Y-83163557D01*
X144933373Y-83112037D01*
X144999558Y-83105518D01*
X145065740Y-83099000D01*
X145154260Y-83099000D01*
X145220442Y-83105518D01*
X145220442Y-83105518D01*
G37*
G36*
X140140442Y-83105518D02*
G01*
X140206627Y-83112037D01*
X140376466Y-83163557D01*
X140532991Y-83247222D01*
X140568729Y-83276552D01*
X140670186Y-83359814D01*
X140753448Y-83461271D01*
X140782778Y-83497009D01*
X140866443Y-83653534D01*
X140917963Y-83823373D01*
X140935359Y-84000000D01*
X140917963Y-84176627D01*
X140866443Y-84346466D01*
X140782778Y-84502991D01*
X140753448Y-84538729D01*
X140670186Y-84640186D01*
X140597480Y-84699853D01*
X140532991Y-84752778D01*
X140376466Y-84836443D01*
X140206627Y-84887963D01*
X140140442Y-84894482D01*
X140074260Y-84901000D01*
X139985740Y-84901000D01*
X139919558Y-84894482D01*
X139853373Y-84887963D01*
X139683534Y-84836443D01*
X139527009Y-84752778D01*
X139462520Y-84699853D01*
X139389814Y-84640186D01*
X139306552Y-84538729D01*
X139277222Y-84502991D01*
X139193557Y-84346466D01*
X139142037Y-84176627D01*
X139124641Y-84000000D01*
X139142037Y-83823373D01*
X139193557Y-83653534D01*
X139277222Y-83497009D01*
X139306552Y-83461271D01*
X139389814Y-83359814D01*
X139491271Y-83276552D01*
X139527009Y-83247222D01*
X139683534Y-83163557D01*
X139853373Y-83112037D01*
X139919558Y-83105518D01*
X139985740Y-83099000D01*
X140074260Y-83099000D01*
X140140442Y-83105518D01*
X140140442Y-83105518D01*
G37*
G36*
X152840442Y-83105518D02*
G01*
X152906627Y-83112037D01*
X153076466Y-83163557D01*
X153232991Y-83247222D01*
X153268729Y-83276552D01*
X153370186Y-83359814D01*
X153453448Y-83461271D01*
X153482778Y-83497009D01*
X153566443Y-83653534D01*
X153617963Y-83823373D01*
X153635359Y-84000000D01*
X153617963Y-84176627D01*
X153566443Y-84346466D01*
X153482778Y-84502991D01*
X153453448Y-84538729D01*
X153370186Y-84640186D01*
X153297480Y-84699853D01*
X153232991Y-84752778D01*
X153076466Y-84836443D01*
X152906627Y-84887963D01*
X152840442Y-84894482D01*
X152774260Y-84901000D01*
X152685740Y-84901000D01*
X152619558Y-84894482D01*
X152553373Y-84887963D01*
X152383534Y-84836443D01*
X152227009Y-84752778D01*
X152162520Y-84699853D01*
X152089814Y-84640186D01*
X152006552Y-84538729D01*
X151977222Y-84502991D01*
X151893557Y-84346466D01*
X151842037Y-84176627D01*
X151824641Y-84000000D01*
X151842037Y-83823373D01*
X151893557Y-83653534D01*
X151977222Y-83497009D01*
X152006552Y-83461271D01*
X152089814Y-83359814D01*
X152191271Y-83276552D01*
X152227009Y-83247222D01*
X152383534Y-83163557D01*
X152553373Y-83112037D01*
X152619558Y-83105518D01*
X152685740Y-83099000D01*
X152774260Y-83099000D01*
X152840442Y-83105518D01*
X152840442Y-83105518D01*
G37*
G36*
X137600442Y-83105518D02*
G01*
X137666627Y-83112037D01*
X137836466Y-83163557D01*
X137992991Y-83247222D01*
X138028729Y-83276552D01*
X138130186Y-83359814D01*
X138213448Y-83461271D01*
X138242778Y-83497009D01*
X138326443Y-83653534D01*
X138377963Y-83823373D01*
X138395359Y-84000000D01*
X138377963Y-84176627D01*
X138326443Y-84346466D01*
X138242778Y-84502991D01*
X138213448Y-84538729D01*
X138130186Y-84640186D01*
X138057480Y-84699853D01*
X137992991Y-84752778D01*
X137836466Y-84836443D01*
X137666627Y-84887963D01*
X137600442Y-84894482D01*
X137534260Y-84901000D01*
X137445740Y-84901000D01*
X137379558Y-84894482D01*
X137313373Y-84887963D01*
X137143534Y-84836443D01*
X136987009Y-84752778D01*
X136922520Y-84699853D01*
X136849814Y-84640186D01*
X136766552Y-84538729D01*
X136737222Y-84502991D01*
X136653557Y-84346466D01*
X136602037Y-84176627D01*
X136584641Y-84000000D01*
X136602037Y-83823373D01*
X136653557Y-83653534D01*
X136737222Y-83497009D01*
X136766552Y-83461271D01*
X136849814Y-83359814D01*
X136951271Y-83276552D01*
X136987009Y-83247222D01*
X137143534Y-83163557D01*
X137313373Y-83112037D01*
X137379558Y-83105518D01*
X137445740Y-83099000D01*
X137534260Y-83099000D01*
X137600442Y-83105518D01*
X137600442Y-83105518D01*
G37*
G36*
X155383512Y-83103927D02*
G01*
X155532812Y-83133624D01*
X155696784Y-83201544D01*
X155844354Y-83300147D01*
X155969853Y-83425646D01*
X156068456Y-83573216D01*
X156136376Y-83737188D01*
X156171000Y-83911259D01*
X156171000Y-84088741D01*
X156136376Y-84262812D01*
X156068456Y-84426784D01*
X155969853Y-84574354D01*
X155844354Y-84699853D01*
X155696784Y-84798456D01*
X155532812Y-84866376D01*
X155383512Y-84896073D01*
X155358742Y-84901000D01*
X155181258Y-84901000D01*
X155156488Y-84896073D01*
X155007188Y-84866376D01*
X154843216Y-84798456D01*
X154695646Y-84699853D01*
X154570147Y-84574354D01*
X154471544Y-84426784D01*
X154403624Y-84262812D01*
X154369000Y-84088741D01*
X154369000Y-83911259D01*
X154403624Y-83737188D01*
X154471544Y-83573216D01*
X154570147Y-83425646D01*
X154695646Y-83300147D01*
X154843216Y-83201544D01*
X155007188Y-83133624D01*
X155156488Y-83103927D01*
X155181258Y-83099000D01*
X155358742Y-83099000D01*
X155383512Y-83103927D01*
X155383512Y-83103927D01*
G37*
G36*
X135060442Y-83105518D02*
G01*
X135126627Y-83112037D01*
X135296466Y-83163557D01*
X135452991Y-83247222D01*
X135488729Y-83276552D01*
X135590186Y-83359814D01*
X135673448Y-83461271D01*
X135702778Y-83497009D01*
X135786443Y-83653534D01*
X135837963Y-83823373D01*
X135855359Y-84000000D01*
X135837963Y-84176627D01*
X135786443Y-84346466D01*
X135702778Y-84502991D01*
X135673448Y-84538729D01*
X135590186Y-84640186D01*
X135517480Y-84699853D01*
X135452991Y-84752778D01*
X135296466Y-84836443D01*
X135126627Y-84887963D01*
X135060442Y-84894482D01*
X134994260Y-84901000D01*
X134905740Y-84901000D01*
X134839558Y-84894482D01*
X134773373Y-84887963D01*
X134603534Y-84836443D01*
X134447009Y-84752778D01*
X134382520Y-84699853D01*
X134309814Y-84640186D01*
X134226552Y-84538729D01*
X134197222Y-84502991D01*
X134113557Y-84346466D01*
X134062037Y-84176627D01*
X134044641Y-84000000D01*
X134062037Y-83823373D01*
X134113557Y-83653534D01*
X134197222Y-83497009D01*
X134226552Y-83461271D01*
X134309814Y-83359814D01*
X134411271Y-83276552D01*
X134447009Y-83247222D01*
X134603534Y-83163557D01*
X134773373Y-83112037D01*
X134839558Y-83105518D01*
X134905740Y-83099000D01*
X134994260Y-83099000D01*
X135060442Y-83105518D01*
X135060442Y-83105518D01*
G37*
G36*
X132520442Y-83105518D02*
G01*
X132586627Y-83112037D01*
X132756466Y-83163557D01*
X132912991Y-83247222D01*
X132948729Y-83276552D01*
X133050186Y-83359814D01*
X133133448Y-83461271D01*
X133162778Y-83497009D01*
X133246443Y-83653534D01*
X133297963Y-83823373D01*
X133315359Y-84000000D01*
X133297963Y-84176627D01*
X133246443Y-84346466D01*
X133162778Y-84502991D01*
X133133448Y-84538729D01*
X133050186Y-84640186D01*
X132977480Y-84699853D01*
X132912991Y-84752778D01*
X132756466Y-84836443D01*
X132586627Y-84887963D01*
X132520442Y-84894482D01*
X132454260Y-84901000D01*
X132365740Y-84901000D01*
X132299558Y-84894482D01*
X132233373Y-84887963D01*
X132063534Y-84836443D01*
X131907009Y-84752778D01*
X131842520Y-84699853D01*
X131769814Y-84640186D01*
X131686552Y-84538729D01*
X131657222Y-84502991D01*
X131573557Y-84346466D01*
X131522037Y-84176627D01*
X131504641Y-84000000D01*
X131522037Y-83823373D01*
X131573557Y-83653534D01*
X131657222Y-83497009D01*
X131686552Y-83461271D01*
X131769814Y-83359814D01*
X131871271Y-83276552D01*
X131907009Y-83247222D01*
X132063534Y-83163557D01*
X132233373Y-83112037D01*
X132299558Y-83105518D01*
X132365740Y-83099000D01*
X132454260Y-83099000D01*
X132520442Y-83105518D01*
X132520442Y-83105518D01*
G37*
G36*
X129980442Y-83105518D02*
G01*
X130046627Y-83112037D01*
X130216466Y-83163557D01*
X130372991Y-83247222D01*
X130408729Y-83276552D01*
X130510186Y-83359814D01*
X130593448Y-83461271D01*
X130622778Y-83497009D01*
X130706443Y-83653534D01*
X130757963Y-83823373D01*
X130775359Y-84000000D01*
X130757963Y-84176627D01*
X130706443Y-84346466D01*
X130622778Y-84502991D01*
X130593448Y-84538729D01*
X130510186Y-84640186D01*
X130437480Y-84699853D01*
X130372991Y-84752778D01*
X130216466Y-84836443D01*
X130046627Y-84887963D01*
X129980442Y-84894482D01*
X129914260Y-84901000D01*
X129825740Y-84901000D01*
X129759558Y-84894482D01*
X129693373Y-84887963D01*
X129523534Y-84836443D01*
X129367009Y-84752778D01*
X129302520Y-84699853D01*
X129229814Y-84640186D01*
X129146552Y-84538729D01*
X129117222Y-84502991D01*
X129033557Y-84346466D01*
X128982037Y-84176627D01*
X128964641Y-84000000D01*
X128982037Y-83823373D01*
X129033557Y-83653534D01*
X129117222Y-83497009D01*
X129146552Y-83461271D01*
X129229814Y-83359814D01*
X129331271Y-83276552D01*
X129367009Y-83247222D01*
X129523534Y-83163557D01*
X129693373Y-83112037D01*
X129759558Y-83105518D01*
X129825740Y-83099000D01*
X129914260Y-83099000D01*
X129980442Y-83105518D01*
X129980442Y-83105518D01*
G37*
G36*
X127440442Y-83105518D02*
G01*
X127506627Y-83112037D01*
X127676466Y-83163557D01*
X127832991Y-83247222D01*
X127868729Y-83276552D01*
X127970186Y-83359814D01*
X128053448Y-83461271D01*
X128082778Y-83497009D01*
X128166443Y-83653534D01*
X128217963Y-83823373D01*
X128235359Y-84000000D01*
X128217963Y-84176627D01*
X128166443Y-84346466D01*
X128082778Y-84502991D01*
X128053448Y-84538729D01*
X127970186Y-84640186D01*
X127897480Y-84699853D01*
X127832991Y-84752778D01*
X127676466Y-84836443D01*
X127506627Y-84887963D01*
X127440442Y-84894482D01*
X127374260Y-84901000D01*
X127285740Y-84901000D01*
X127219558Y-84894482D01*
X127153373Y-84887963D01*
X126983534Y-84836443D01*
X126827009Y-84752778D01*
X126762520Y-84699853D01*
X126689814Y-84640186D01*
X126606552Y-84538729D01*
X126577222Y-84502991D01*
X126493557Y-84346466D01*
X126442037Y-84176627D01*
X126424641Y-84000000D01*
X126442037Y-83823373D01*
X126493557Y-83653534D01*
X126577222Y-83497009D01*
X126606552Y-83461271D01*
X126689814Y-83359814D01*
X126791271Y-83276552D01*
X126827009Y-83247222D01*
X126983534Y-83163557D01*
X127153373Y-83112037D01*
X127219558Y-83105518D01*
X127285740Y-83099000D01*
X127374260Y-83099000D01*
X127440442Y-83105518D01*
X127440442Y-83105518D01*
G37*
G36*
X161583330Y-79514693D02*
G01*
X159781330Y-79514693D01*
X159781330Y-77712693D01*
X161583330Y-77712693D01*
X161583330Y-79514693D01*
X161583330Y-79514693D01*
G37*
G36*
X154179294Y-75638633D02*
G01*
X154351695Y-75690931D01*
X154510583Y-75775858D01*
X154649849Y-75890151D01*
X154764142Y-76029417D01*
X154849069Y-76188305D01*
X154901367Y-76360706D01*
X154919025Y-76540000D01*
X154901367Y-76719294D01*
X154849069Y-76891695D01*
X154764142Y-77050583D01*
X154649849Y-77189849D01*
X154510583Y-77304142D01*
X154351695Y-77389069D01*
X154179294Y-77441367D01*
X154044931Y-77454600D01*
X153955069Y-77454600D01*
X153820706Y-77441367D01*
X153648305Y-77389069D01*
X153489417Y-77304142D01*
X153350151Y-77189849D01*
X153235858Y-77050583D01*
X153150931Y-76891695D01*
X153098633Y-76719294D01*
X153080975Y-76540000D01*
X153098633Y-76360706D01*
X153150931Y-76188305D01*
X153235858Y-76029417D01*
X153350151Y-75890151D01*
X153489417Y-75775858D01*
X153648305Y-75690931D01*
X153820706Y-75638633D01*
X153955069Y-75625400D01*
X154044931Y-75625400D01*
X154179294Y-75638633D01*
X154179294Y-75638633D01*
G37*
G36*
X151639294Y-75638633D02*
G01*
X151811695Y-75690931D01*
X151970583Y-75775858D01*
X152109849Y-75890151D01*
X152224142Y-76029417D01*
X152309069Y-76188305D01*
X152361367Y-76360706D01*
X152379025Y-76540000D01*
X152361367Y-76719294D01*
X152309069Y-76891695D01*
X152224142Y-77050583D01*
X152109849Y-77189849D01*
X151970583Y-77304142D01*
X151811695Y-77389069D01*
X151639294Y-77441367D01*
X151504931Y-77454600D01*
X151415069Y-77454600D01*
X151280706Y-77441367D01*
X151108305Y-77389069D01*
X150949417Y-77304142D01*
X150810151Y-77189849D01*
X150695858Y-77050583D01*
X150610931Y-76891695D01*
X150558633Y-76719294D01*
X150540975Y-76540000D01*
X150558633Y-76360706D01*
X150610931Y-76188305D01*
X150695858Y-76029417D01*
X150810151Y-75890151D01*
X150949417Y-75775858D01*
X151108305Y-75690931D01*
X151280706Y-75638633D01*
X151415069Y-75625400D01*
X151504931Y-75625400D01*
X151639294Y-75638633D01*
X151639294Y-75638633D01*
G37*
G36*
X149099294Y-75638633D02*
G01*
X149271695Y-75690931D01*
X149430583Y-75775858D01*
X149569849Y-75890151D01*
X149684142Y-76029417D01*
X149769069Y-76188305D01*
X149821367Y-76360706D01*
X149839025Y-76540000D01*
X149821367Y-76719294D01*
X149769069Y-76891695D01*
X149684142Y-77050583D01*
X149569849Y-77189849D01*
X149430583Y-77304142D01*
X149271695Y-77389069D01*
X149099294Y-77441367D01*
X148964931Y-77454600D01*
X148875069Y-77454600D01*
X148740706Y-77441367D01*
X148568305Y-77389069D01*
X148409417Y-77304142D01*
X148270151Y-77189849D01*
X148155858Y-77050583D01*
X148070931Y-76891695D01*
X148018633Y-76719294D01*
X148000975Y-76540000D01*
X148018633Y-76360706D01*
X148070931Y-76188305D01*
X148155858Y-76029417D01*
X148270151Y-75890151D01*
X148409417Y-75775858D01*
X148568305Y-75690931D01*
X148740706Y-75638633D01*
X148875069Y-75625400D01*
X148964931Y-75625400D01*
X149099294Y-75638633D01*
X149099294Y-75638633D01*
G37*
G36*
X146559294Y-75638633D02*
G01*
X146731695Y-75690931D01*
X146890583Y-75775858D01*
X147029849Y-75890151D01*
X147144142Y-76029417D01*
X147229069Y-76188305D01*
X147281367Y-76360706D01*
X147299025Y-76540000D01*
X147281367Y-76719294D01*
X147229069Y-76891695D01*
X147144142Y-77050583D01*
X147029849Y-77189849D01*
X146890583Y-77304142D01*
X146731695Y-77389069D01*
X146559294Y-77441367D01*
X146424931Y-77454600D01*
X146335069Y-77454600D01*
X146200706Y-77441367D01*
X146028305Y-77389069D01*
X145869417Y-77304142D01*
X145730151Y-77189849D01*
X145615858Y-77050583D01*
X145530931Y-76891695D01*
X145478633Y-76719294D01*
X145460975Y-76540000D01*
X145478633Y-76360706D01*
X145530931Y-76188305D01*
X145615858Y-76029417D01*
X145730151Y-75890151D01*
X145869417Y-75775858D01*
X146028305Y-75690931D01*
X146200706Y-75638633D01*
X146335069Y-75625400D01*
X146424931Y-75625400D01*
X146559294Y-75638633D01*
X146559294Y-75638633D01*
G37*
G36*
X144019294Y-75638633D02*
G01*
X144191695Y-75690931D01*
X144350583Y-75775858D01*
X144489849Y-75890151D01*
X144604142Y-76029417D01*
X144689069Y-76188305D01*
X144741367Y-76360706D01*
X144759025Y-76540000D01*
X144741367Y-76719294D01*
X144689069Y-76891695D01*
X144604142Y-77050583D01*
X144489849Y-77189849D01*
X144350583Y-77304142D01*
X144191695Y-77389069D01*
X144019294Y-77441367D01*
X143884931Y-77454600D01*
X143795069Y-77454600D01*
X143660706Y-77441367D01*
X143488305Y-77389069D01*
X143329417Y-77304142D01*
X143190151Y-77189849D01*
X143075858Y-77050583D01*
X142990931Y-76891695D01*
X142938633Y-76719294D01*
X142920975Y-76540000D01*
X142938633Y-76360706D01*
X142990931Y-76188305D01*
X143075858Y-76029417D01*
X143190151Y-75890151D01*
X143329417Y-75775858D01*
X143488305Y-75690931D01*
X143660706Y-75638633D01*
X143795069Y-75625400D01*
X143884931Y-75625400D01*
X144019294Y-75638633D01*
X144019294Y-75638633D01*
G37*
G36*
X141479294Y-75638633D02*
G01*
X141651695Y-75690931D01*
X141810583Y-75775858D01*
X141949849Y-75890151D01*
X142064142Y-76029417D01*
X142149069Y-76188305D01*
X142201367Y-76360706D01*
X142219025Y-76540000D01*
X142201367Y-76719294D01*
X142149069Y-76891695D01*
X142064142Y-77050583D01*
X141949849Y-77189849D01*
X141810583Y-77304142D01*
X141651695Y-77389069D01*
X141479294Y-77441367D01*
X141344931Y-77454600D01*
X141255069Y-77454600D01*
X141120706Y-77441367D01*
X140948305Y-77389069D01*
X140789417Y-77304142D01*
X140650151Y-77189849D01*
X140535858Y-77050583D01*
X140450931Y-76891695D01*
X140398633Y-76719294D01*
X140380975Y-76540000D01*
X140398633Y-76360706D01*
X140450931Y-76188305D01*
X140535858Y-76029417D01*
X140650151Y-75890151D01*
X140789417Y-75775858D01*
X140948305Y-75690931D01*
X141120706Y-75638633D01*
X141255069Y-75625400D01*
X141344931Y-75625400D01*
X141479294Y-75638633D01*
X141479294Y-75638633D01*
G37*
G36*
X138939294Y-75638633D02*
G01*
X139111695Y-75690931D01*
X139270583Y-75775858D01*
X139409849Y-75890151D01*
X139524142Y-76029417D01*
X139609069Y-76188305D01*
X139661367Y-76360706D01*
X139679025Y-76540000D01*
X139661367Y-76719294D01*
X139609069Y-76891695D01*
X139524142Y-77050583D01*
X139409849Y-77189849D01*
X139270583Y-77304142D01*
X139111695Y-77389069D01*
X138939294Y-77441367D01*
X138804931Y-77454600D01*
X138715069Y-77454600D01*
X138580706Y-77441367D01*
X138408305Y-77389069D01*
X138249417Y-77304142D01*
X138110151Y-77189849D01*
X137995858Y-77050583D01*
X137910931Y-76891695D01*
X137858633Y-76719294D01*
X137840975Y-76540000D01*
X137858633Y-76360706D01*
X137910931Y-76188305D01*
X137995858Y-76029417D01*
X138110151Y-75890151D01*
X138249417Y-75775858D01*
X138408305Y-75690931D01*
X138580706Y-75638633D01*
X138715069Y-75625400D01*
X138804931Y-75625400D01*
X138939294Y-75638633D01*
X138939294Y-75638633D01*
G37*
G36*
X136399294Y-75638633D02*
G01*
X136571695Y-75690931D01*
X136730583Y-75775858D01*
X136869849Y-75890151D01*
X136984142Y-76029417D01*
X137069069Y-76188305D01*
X137121367Y-76360706D01*
X137139025Y-76540000D01*
X137121367Y-76719294D01*
X137069069Y-76891695D01*
X136984142Y-77050583D01*
X136869849Y-77189849D01*
X136730583Y-77304142D01*
X136571695Y-77389069D01*
X136399294Y-77441367D01*
X136264931Y-77454600D01*
X136175069Y-77454600D01*
X136040706Y-77441367D01*
X135868305Y-77389069D01*
X135709417Y-77304142D01*
X135570151Y-77189849D01*
X135455858Y-77050583D01*
X135370931Y-76891695D01*
X135318633Y-76719294D01*
X135300975Y-76540000D01*
X135318633Y-76360706D01*
X135370931Y-76188305D01*
X135455858Y-76029417D01*
X135570151Y-75890151D01*
X135709417Y-75775858D01*
X135868305Y-75690931D01*
X136040706Y-75638633D01*
X136175069Y-75625400D01*
X136264931Y-75625400D01*
X136399294Y-75638633D01*
X136399294Y-75638633D01*
G37*
G36*
X133859294Y-75638633D02*
G01*
X134031695Y-75690931D01*
X134190583Y-75775858D01*
X134329849Y-75890151D01*
X134444142Y-76029417D01*
X134529069Y-76188305D01*
X134581367Y-76360706D01*
X134599025Y-76540000D01*
X134581367Y-76719294D01*
X134529069Y-76891695D01*
X134444142Y-77050583D01*
X134329849Y-77189849D01*
X134190583Y-77304142D01*
X134031695Y-77389069D01*
X133859294Y-77441367D01*
X133724931Y-77454600D01*
X133635069Y-77454600D01*
X133500706Y-77441367D01*
X133328305Y-77389069D01*
X133169417Y-77304142D01*
X133030151Y-77189849D01*
X132915858Y-77050583D01*
X132830931Y-76891695D01*
X132778633Y-76719294D01*
X132760975Y-76540000D01*
X132778633Y-76360706D01*
X132830931Y-76188305D01*
X132915858Y-76029417D01*
X133030151Y-75890151D01*
X133169417Y-75775858D01*
X133328305Y-75690931D01*
X133500706Y-75638633D01*
X133635069Y-75625400D01*
X133724931Y-75625400D01*
X133859294Y-75638633D01*
X133859294Y-75638633D01*
G37*
G36*
X131319294Y-75638633D02*
G01*
X131491695Y-75690931D01*
X131650583Y-75775858D01*
X131789849Y-75890151D01*
X131904142Y-76029417D01*
X131989069Y-76188305D01*
X132041367Y-76360706D01*
X132059025Y-76540000D01*
X132041367Y-76719294D01*
X131989069Y-76891695D01*
X131904142Y-77050583D01*
X131789849Y-77189849D01*
X131650583Y-77304142D01*
X131491695Y-77389069D01*
X131319294Y-77441367D01*
X131184931Y-77454600D01*
X131095069Y-77454600D01*
X130960706Y-77441367D01*
X130788305Y-77389069D01*
X130629417Y-77304142D01*
X130490151Y-77189849D01*
X130375858Y-77050583D01*
X130290931Y-76891695D01*
X130238633Y-76719294D01*
X130220975Y-76540000D01*
X130238633Y-76360706D01*
X130290931Y-76188305D01*
X130375858Y-76029417D01*
X130490151Y-75890151D01*
X130629417Y-75775858D01*
X130788305Y-75690931D01*
X130960706Y-75638633D01*
X131095069Y-75625400D01*
X131184931Y-75625400D01*
X131319294Y-75638633D01*
X131319294Y-75638633D01*
G37*
G36*
X128779294Y-75638633D02*
G01*
X128951695Y-75690931D01*
X129110583Y-75775858D01*
X129249849Y-75890151D01*
X129364142Y-76029417D01*
X129449069Y-76188305D01*
X129501367Y-76360706D01*
X129519025Y-76540000D01*
X129501367Y-76719294D01*
X129449069Y-76891695D01*
X129364142Y-77050583D01*
X129249849Y-77189849D01*
X129110583Y-77304142D01*
X128951695Y-77389069D01*
X128779294Y-77441367D01*
X128644931Y-77454600D01*
X128555069Y-77454600D01*
X128420706Y-77441367D01*
X128248305Y-77389069D01*
X128089417Y-77304142D01*
X127950151Y-77189849D01*
X127835858Y-77050583D01*
X127750931Y-76891695D01*
X127698633Y-76719294D01*
X127680975Y-76540000D01*
X127698633Y-76360706D01*
X127750931Y-76188305D01*
X127835858Y-76029417D01*
X127950151Y-75890151D01*
X128089417Y-75775858D01*
X128248305Y-75690931D01*
X128420706Y-75638633D01*
X128555069Y-75625400D01*
X128644931Y-75625400D01*
X128779294Y-75638633D01*
X128779294Y-75638633D01*
G37*
G36*
X126239294Y-75638633D02*
G01*
X126411695Y-75690931D01*
X126570583Y-75775858D01*
X126709849Y-75890151D01*
X126824142Y-76029417D01*
X126909069Y-76188305D01*
X126961367Y-76360706D01*
X126979025Y-76540000D01*
X126961367Y-76719294D01*
X126909069Y-76891695D01*
X126824142Y-77050583D01*
X126709849Y-77189849D01*
X126570583Y-77304142D01*
X126411695Y-77389069D01*
X126239294Y-77441367D01*
X126104931Y-77454600D01*
X126015069Y-77454600D01*
X125880706Y-77441367D01*
X125708305Y-77389069D01*
X125549417Y-77304142D01*
X125410151Y-77189849D01*
X125295858Y-77050583D01*
X125210931Y-76891695D01*
X125158633Y-76719294D01*
X125140975Y-76540000D01*
X125158633Y-76360706D01*
X125210931Y-76188305D01*
X125295858Y-76029417D01*
X125410151Y-75890151D01*
X125549417Y-75775858D01*
X125708305Y-75690931D01*
X125880706Y-75638633D01*
X126015069Y-75625400D01*
X126104931Y-75625400D01*
X126239294Y-75638633D01*
X126239294Y-75638633D01*
G37*
G36*
X123699294Y-75638633D02*
G01*
X123871695Y-75690931D01*
X124030583Y-75775858D01*
X124169849Y-75890151D01*
X124284142Y-76029417D01*
X124369069Y-76188305D01*
X124421367Y-76360706D01*
X124439025Y-76540000D01*
X124421367Y-76719294D01*
X124369069Y-76891695D01*
X124284142Y-77050583D01*
X124169849Y-77189849D01*
X124030583Y-77304142D01*
X123871695Y-77389069D01*
X123699294Y-77441367D01*
X123564931Y-77454600D01*
X123475069Y-77454600D01*
X123340706Y-77441367D01*
X123168305Y-77389069D01*
X123009417Y-77304142D01*
X122870151Y-77189849D01*
X122755858Y-77050583D01*
X122670931Y-76891695D01*
X122618633Y-76719294D01*
X122600975Y-76540000D01*
X122618633Y-76360706D01*
X122670931Y-76188305D01*
X122755858Y-76029417D01*
X122870151Y-75890151D01*
X123009417Y-75775858D01*
X123168305Y-75690931D01*
X123340706Y-75638633D01*
X123475069Y-75625400D01*
X123564931Y-75625400D01*
X123699294Y-75638633D01*
X123699294Y-75638633D01*
G37*
G36*
X121159294Y-75638633D02*
G01*
X121331695Y-75690931D01*
X121490583Y-75775858D01*
X121629849Y-75890151D01*
X121744142Y-76029417D01*
X121829069Y-76188305D01*
X121881367Y-76360706D01*
X121899025Y-76540000D01*
X121881367Y-76719294D01*
X121829069Y-76891695D01*
X121744142Y-77050583D01*
X121629849Y-77189849D01*
X121490583Y-77304142D01*
X121331695Y-77389069D01*
X121159294Y-77441367D01*
X121024931Y-77454600D01*
X120935069Y-77454600D01*
X120800706Y-77441367D01*
X120628305Y-77389069D01*
X120469417Y-77304142D01*
X120330151Y-77189849D01*
X120215858Y-77050583D01*
X120130931Y-76891695D01*
X120078633Y-76719294D01*
X120060975Y-76540000D01*
X120078633Y-76360706D01*
X120130931Y-76188305D01*
X120215858Y-76029417D01*
X120330151Y-75890151D01*
X120469417Y-75775858D01*
X120628305Y-75690931D01*
X120800706Y-75638633D01*
X120935069Y-75625400D01*
X121024931Y-75625400D01*
X121159294Y-75638633D01*
X121159294Y-75638633D01*
G37*
G36*
X118619294Y-75638633D02*
G01*
X118791695Y-75690931D01*
X118950583Y-75775858D01*
X119089849Y-75890151D01*
X119204142Y-76029417D01*
X119289069Y-76188305D01*
X119341367Y-76360706D01*
X119359025Y-76540000D01*
X119341367Y-76719294D01*
X119289069Y-76891695D01*
X119204142Y-77050583D01*
X119089849Y-77189849D01*
X118950583Y-77304142D01*
X118791695Y-77389069D01*
X118619294Y-77441367D01*
X118484931Y-77454600D01*
X118395069Y-77454600D01*
X118260706Y-77441367D01*
X118088305Y-77389069D01*
X117929417Y-77304142D01*
X117790151Y-77189849D01*
X117675858Y-77050583D01*
X117590931Y-76891695D01*
X117538633Y-76719294D01*
X117520975Y-76540000D01*
X117538633Y-76360706D01*
X117590931Y-76188305D01*
X117675858Y-76029417D01*
X117790151Y-75890151D01*
X117929417Y-75775858D01*
X118088305Y-75690931D01*
X118260706Y-75638633D01*
X118395069Y-75625400D01*
X118484931Y-75625400D01*
X118619294Y-75638633D01*
X118619294Y-75638633D01*
G37*
G36*
X161583330Y-76974693D02*
G01*
X159781330Y-76974693D01*
X159781330Y-75172693D01*
X161583330Y-75172693D01*
X161583330Y-76974693D01*
X161583330Y-76974693D01*
G37*
G36*
X123699294Y-73098633D02*
G01*
X123871695Y-73150931D01*
X124030583Y-73235858D01*
X124169849Y-73350151D01*
X124284142Y-73489417D01*
X124369069Y-73648305D01*
X124421367Y-73820706D01*
X124439025Y-74000000D01*
X124421367Y-74179294D01*
X124369069Y-74351695D01*
X124284142Y-74510583D01*
X124169849Y-74649849D01*
X124030583Y-74764142D01*
X123871695Y-74849069D01*
X123699294Y-74901367D01*
X123564931Y-74914600D01*
X123475069Y-74914600D01*
X123340706Y-74901367D01*
X123168305Y-74849069D01*
X123009417Y-74764142D01*
X122870151Y-74649849D01*
X122755858Y-74510583D01*
X122670931Y-74351695D01*
X122618633Y-74179294D01*
X122600975Y-74000000D01*
X122618633Y-73820706D01*
X122670931Y-73648305D01*
X122755858Y-73489417D01*
X122870151Y-73350151D01*
X123009417Y-73235858D01*
X123168305Y-73150931D01*
X123340706Y-73098633D01*
X123475069Y-73085400D01*
X123564931Y-73085400D01*
X123699294Y-73098633D01*
X123699294Y-73098633D01*
G37*
G36*
X154914600Y-74914600D02*
G01*
X153085400Y-74914600D01*
X153085400Y-73085400D01*
X154914600Y-73085400D01*
X154914600Y-74914600D01*
X154914600Y-74914600D01*
G37*
G36*
X151639294Y-73098633D02*
G01*
X151811695Y-73150931D01*
X151970583Y-73235858D01*
X152109849Y-73350151D01*
X152224142Y-73489417D01*
X152309069Y-73648305D01*
X152361367Y-73820706D01*
X152379025Y-74000000D01*
X152361367Y-74179294D01*
X152309069Y-74351695D01*
X152224142Y-74510583D01*
X152109849Y-74649849D01*
X151970583Y-74764142D01*
X151811695Y-74849069D01*
X151639294Y-74901367D01*
X151504931Y-74914600D01*
X151415069Y-74914600D01*
X151280706Y-74901367D01*
X151108305Y-74849069D01*
X150949417Y-74764142D01*
X150810151Y-74649849D01*
X150695858Y-74510583D01*
X150610931Y-74351695D01*
X150558633Y-74179294D01*
X150540975Y-74000000D01*
X150558633Y-73820706D01*
X150610931Y-73648305D01*
X150695858Y-73489417D01*
X150810151Y-73350151D01*
X150949417Y-73235858D01*
X151108305Y-73150931D01*
X151280706Y-73098633D01*
X151415069Y-73085400D01*
X151504931Y-73085400D01*
X151639294Y-73098633D01*
X151639294Y-73098633D01*
G37*
G36*
X118619294Y-73098633D02*
G01*
X118791695Y-73150931D01*
X118950583Y-73235858D01*
X119089849Y-73350151D01*
X119204142Y-73489417D01*
X119289069Y-73648305D01*
X119341367Y-73820706D01*
X119359025Y-74000000D01*
X119341367Y-74179294D01*
X119289069Y-74351695D01*
X119204142Y-74510583D01*
X119089849Y-74649849D01*
X118950583Y-74764142D01*
X118791695Y-74849069D01*
X118619294Y-74901367D01*
X118484931Y-74914600D01*
X118395069Y-74914600D01*
X118260706Y-74901367D01*
X118088305Y-74849069D01*
X117929417Y-74764142D01*
X117790151Y-74649849D01*
X117675858Y-74510583D01*
X117590931Y-74351695D01*
X117538633Y-74179294D01*
X117520975Y-74000000D01*
X117538633Y-73820706D01*
X117590931Y-73648305D01*
X117675858Y-73489417D01*
X117790151Y-73350151D01*
X117929417Y-73235858D01*
X118088305Y-73150931D01*
X118260706Y-73098633D01*
X118395069Y-73085400D01*
X118484931Y-73085400D01*
X118619294Y-73098633D01*
X118619294Y-73098633D01*
G37*
G36*
X149099294Y-73098633D02*
G01*
X149271695Y-73150931D01*
X149430583Y-73235858D01*
X149569849Y-73350151D01*
X149684142Y-73489417D01*
X149769069Y-73648305D01*
X149821367Y-73820706D01*
X149839025Y-74000000D01*
X149821367Y-74179294D01*
X149769069Y-74351695D01*
X149684142Y-74510583D01*
X149569849Y-74649849D01*
X149430583Y-74764142D01*
X149271695Y-74849069D01*
X149099294Y-74901367D01*
X148964931Y-74914600D01*
X148875069Y-74914600D01*
X148740706Y-74901367D01*
X148568305Y-74849069D01*
X148409417Y-74764142D01*
X148270151Y-74649849D01*
X148155858Y-74510583D01*
X148070931Y-74351695D01*
X148018633Y-74179294D01*
X148000975Y-74000000D01*
X148018633Y-73820706D01*
X148070931Y-73648305D01*
X148155858Y-73489417D01*
X148270151Y-73350151D01*
X148409417Y-73235858D01*
X148568305Y-73150931D01*
X148740706Y-73098633D01*
X148875069Y-73085400D01*
X148964931Y-73085400D01*
X149099294Y-73098633D01*
X149099294Y-73098633D01*
G37*
G36*
X121159294Y-73098633D02*
G01*
X121331695Y-73150931D01*
X121490583Y-73235858D01*
X121629849Y-73350151D01*
X121744142Y-73489417D01*
X121829069Y-73648305D01*
X121881367Y-73820706D01*
X121899025Y-74000000D01*
X121881367Y-74179294D01*
X121829069Y-74351695D01*
X121744142Y-74510583D01*
X121629849Y-74649849D01*
X121490583Y-74764142D01*
X121331695Y-74849069D01*
X121159294Y-74901367D01*
X121024931Y-74914600D01*
X120935069Y-74914600D01*
X120800706Y-74901367D01*
X120628305Y-74849069D01*
X120469417Y-74764142D01*
X120330151Y-74649849D01*
X120215858Y-74510583D01*
X120130931Y-74351695D01*
X120078633Y-74179294D01*
X120060975Y-74000000D01*
X120078633Y-73820706D01*
X120130931Y-73648305D01*
X120215858Y-73489417D01*
X120330151Y-73350151D01*
X120469417Y-73235858D01*
X120628305Y-73150931D01*
X120800706Y-73098633D01*
X120935069Y-73085400D01*
X121024931Y-73085400D01*
X121159294Y-73098633D01*
X121159294Y-73098633D01*
G37*
G36*
X146559294Y-73098633D02*
G01*
X146731695Y-73150931D01*
X146890583Y-73235858D01*
X147029849Y-73350151D01*
X147144142Y-73489417D01*
X147229069Y-73648305D01*
X147281367Y-73820706D01*
X147299025Y-74000000D01*
X147281367Y-74179294D01*
X147229069Y-74351695D01*
X147144142Y-74510583D01*
X147029849Y-74649849D01*
X146890583Y-74764142D01*
X146731695Y-74849069D01*
X146559294Y-74901367D01*
X146424931Y-74914600D01*
X146335069Y-74914600D01*
X146200706Y-74901367D01*
X146028305Y-74849069D01*
X145869417Y-74764142D01*
X145730151Y-74649849D01*
X145615858Y-74510583D01*
X145530931Y-74351695D01*
X145478633Y-74179294D01*
X145460975Y-74000000D01*
X145478633Y-73820706D01*
X145530931Y-73648305D01*
X145615858Y-73489417D01*
X145730151Y-73350151D01*
X145869417Y-73235858D01*
X146028305Y-73150931D01*
X146200706Y-73098633D01*
X146335069Y-73085400D01*
X146424931Y-73085400D01*
X146559294Y-73098633D01*
X146559294Y-73098633D01*
G37*
G36*
X144019294Y-73098633D02*
G01*
X144191695Y-73150931D01*
X144350583Y-73235858D01*
X144489849Y-73350151D01*
X144604142Y-73489417D01*
X144689069Y-73648305D01*
X144741367Y-73820706D01*
X144759025Y-74000000D01*
X144741367Y-74179294D01*
X144689069Y-74351695D01*
X144604142Y-74510583D01*
X144489849Y-74649849D01*
X144350583Y-74764142D01*
X144191695Y-74849069D01*
X144019294Y-74901367D01*
X143884931Y-74914600D01*
X143795069Y-74914600D01*
X143660706Y-74901367D01*
X143488305Y-74849069D01*
X143329417Y-74764142D01*
X143190151Y-74649849D01*
X143075858Y-74510583D01*
X142990931Y-74351695D01*
X142938633Y-74179294D01*
X142920975Y-74000000D01*
X142938633Y-73820706D01*
X142990931Y-73648305D01*
X143075858Y-73489417D01*
X143190151Y-73350151D01*
X143329417Y-73235858D01*
X143488305Y-73150931D01*
X143660706Y-73098633D01*
X143795069Y-73085400D01*
X143884931Y-73085400D01*
X144019294Y-73098633D01*
X144019294Y-73098633D01*
G37*
G36*
X126239294Y-73098633D02*
G01*
X126411695Y-73150931D01*
X126570583Y-73235858D01*
X126709849Y-73350151D01*
X126824142Y-73489417D01*
X126909069Y-73648305D01*
X126961367Y-73820706D01*
X126979025Y-74000000D01*
X126961367Y-74179294D01*
X126909069Y-74351695D01*
X126824142Y-74510583D01*
X126709849Y-74649849D01*
X126570583Y-74764142D01*
X126411695Y-74849069D01*
X126239294Y-74901367D01*
X126104931Y-74914600D01*
X126015069Y-74914600D01*
X125880706Y-74901367D01*
X125708305Y-74849069D01*
X125549417Y-74764142D01*
X125410151Y-74649849D01*
X125295858Y-74510583D01*
X125210931Y-74351695D01*
X125158633Y-74179294D01*
X125140975Y-74000000D01*
X125158633Y-73820706D01*
X125210931Y-73648305D01*
X125295858Y-73489417D01*
X125410151Y-73350151D01*
X125549417Y-73235858D01*
X125708305Y-73150931D01*
X125880706Y-73098633D01*
X126015069Y-73085400D01*
X126104931Y-73085400D01*
X126239294Y-73098633D01*
X126239294Y-73098633D01*
G37*
G36*
X141479294Y-73098633D02*
G01*
X141651695Y-73150931D01*
X141810583Y-73235858D01*
X141949849Y-73350151D01*
X142064142Y-73489417D01*
X142149069Y-73648305D01*
X142201367Y-73820706D01*
X142219025Y-74000000D01*
X142201367Y-74179294D01*
X142149069Y-74351695D01*
X142064142Y-74510583D01*
X141949849Y-74649849D01*
X141810583Y-74764142D01*
X141651695Y-74849069D01*
X141479294Y-74901367D01*
X141344931Y-74914600D01*
X141255069Y-74914600D01*
X141120706Y-74901367D01*
X140948305Y-74849069D01*
X140789417Y-74764142D01*
X140650151Y-74649849D01*
X140535858Y-74510583D01*
X140450931Y-74351695D01*
X140398633Y-74179294D01*
X140380975Y-74000000D01*
X140398633Y-73820706D01*
X140450931Y-73648305D01*
X140535858Y-73489417D01*
X140650151Y-73350151D01*
X140789417Y-73235858D01*
X140948305Y-73150931D01*
X141120706Y-73098633D01*
X141255069Y-73085400D01*
X141344931Y-73085400D01*
X141479294Y-73098633D01*
X141479294Y-73098633D01*
G37*
G36*
X128779294Y-73098633D02*
G01*
X128951695Y-73150931D01*
X129110583Y-73235858D01*
X129249849Y-73350151D01*
X129364142Y-73489417D01*
X129449069Y-73648305D01*
X129501367Y-73820706D01*
X129519025Y-74000000D01*
X129501367Y-74179294D01*
X129449069Y-74351695D01*
X129364142Y-74510583D01*
X129249849Y-74649849D01*
X129110583Y-74764142D01*
X128951695Y-74849069D01*
X128779294Y-74901367D01*
X128644931Y-74914600D01*
X128555069Y-74914600D01*
X128420706Y-74901367D01*
X128248305Y-74849069D01*
X128089417Y-74764142D01*
X127950151Y-74649849D01*
X127835858Y-74510583D01*
X127750931Y-74351695D01*
X127698633Y-74179294D01*
X127680975Y-74000000D01*
X127698633Y-73820706D01*
X127750931Y-73648305D01*
X127835858Y-73489417D01*
X127950151Y-73350151D01*
X128089417Y-73235858D01*
X128248305Y-73150931D01*
X128420706Y-73098633D01*
X128555069Y-73085400D01*
X128644931Y-73085400D01*
X128779294Y-73098633D01*
X128779294Y-73098633D01*
G37*
G36*
X138939294Y-73098633D02*
G01*
X139111695Y-73150931D01*
X139270583Y-73235858D01*
X139409849Y-73350151D01*
X139524142Y-73489417D01*
X139609069Y-73648305D01*
X139661367Y-73820706D01*
X139679025Y-74000000D01*
X139661367Y-74179294D01*
X139609069Y-74351695D01*
X139524142Y-74510583D01*
X139409849Y-74649849D01*
X139270583Y-74764142D01*
X139111695Y-74849069D01*
X138939294Y-74901367D01*
X138804931Y-74914600D01*
X138715069Y-74914600D01*
X138580706Y-74901367D01*
X138408305Y-74849069D01*
X138249417Y-74764142D01*
X138110151Y-74649849D01*
X137995858Y-74510583D01*
X137910931Y-74351695D01*
X137858633Y-74179294D01*
X137840975Y-74000000D01*
X137858633Y-73820706D01*
X137910931Y-73648305D01*
X137995858Y-73489417D01*
X138110151Y-73350151D01*
X138249417Y-73235858D01*
X138408305Y-73150931D01*
X138580706Y-73098633D01*
X138715069Y-73085400D01*
X138804931Y-73085400D01*
X138939294Y-73098633D01*
X138939294Y-73098633D01*
G37*
G36*
X131319294Y-73098633D02*
G01*
X131491695Y-73150931D01*
X131650583Y-73235858D01*
X131789849Y-73350151D01*
X131904142Y-73489417D01*
X131989069Y-73648305D01*
X132041367Y-73820706D01*
X132059025Y-74000000D01*
X132041367Y-74179294D01*
X131989069Y-74351695D01*
X131904142Y-74510583D01*
X131789849Y-74649849D01*
X131650583Y-74764142D01*
X131491695Y-74849069D01*
X131319294Y-74901367D01*
X131184931Y-74914600D01*
X131095069Y-74914600D01*
X130960706Y-74901367D01*
X130788305Y-74849069D01*
X130629417Y-74764142D01*
X130490151Y-74649849D01*
X130375858Y-74510583D01*
X130290931Y-74351695D01*
X130238633Y-74179294D01*
X130220975Y-74000000D01*
X130238633Y-73820706D01*
X130290931Y-73648305D01*
X130375858Y-73489417D01*
X130490151Y-73350151D01*
X130629417Y-73235858D01*
X130788305Y-73150931D01*
X130960706Y-73098633D01*
X131095069Y-73085400D01*
X131184931Y-73085400D01*
X131319294Y-73098633D01*
X131319294Y-73098633D01*
G37*
G36*
X136399294Y-73098633D02*
G01*
X136571695Y-73150931D01*
X136730583Y-73235858D01*
X136869849Y-73350151D01*
X136984142Y-73489417D01*
X137069069Y-73648305D01*
X137121367Y-73820706D01*
X137139025Y-74000000D01*
X137121367Y-74179294D01*
X137069069Y-74351695D01*
X136984142Y-74510583D01*
X136869849Y-74649849D01*
X136730583Y-74764142D01*
X136571695Y-74849069D01*
X136399294Y-74901367D01*
X136264931Y-74914600D01*
X136175069Y-74914600D01*
X136040706Y-74901367D01*
X135868305Y-74849069D01*
X135709417Y-74764142D01*
X135570151Y-74649849D01*
X135455858Y-74510583D01*
X135370931Y-74351695D01*
X135318633Y-74179294D01*
X135300975Y-74000000D01*
X135318633Y-73820706D01*
X135370931Y-73648305D01*
X135455858Y-73489417D01*
X135570151Y-73350151D01*
X135709417Y-73235858D01*
X135868305Y-73150931D01*
X136040706Y-73098633D01*
X136175069Y-73085400D01*
X136264931Y-73085400D01*
X136399294Y-73098633D01*
X136399294Y-73098633D01*
G37*
G36*
X133859294Y-73098633D02*
G01*
X134031695Y-73150931D01*
X134190583Y-73235858D01*
X134329849Y-73350151D01*
X134444142Y-73489417D01*
X134529069Y-73648305D01*
X134581367Y-73820706D01*
X134599025Y-74000000D01*
X134581367Y-74179294D01*
X134529069Y-74351695D01*
X134444142Y-74510583D01*
X134329849Y-74649849D01*
X134190583Y-74764142D01*
X134031695Y-74849069D01*
X133859294Y-74901367D01*
X133724931Y-74914600D01*
X133635069Y-74914600D01*
X133500706Y-74901367D01*
X133328305Y-74849069D01*
X133169417Y-74764142D01*
X133030151Y-74649849D01*
X132915858Y-74510583D01*
X132830931Y-74351695D01*
X132778633Y-74179294D01*
X132760975Y-74000000D01*
X132778633Y-73820706D01*
X132830931Y-73648305D01*
X132915858Y-73489417D01*
X133030151Y-73350151D01*
X133169417Y-73235858D01*
X133328305Y-73150931D01*
X133500706Y-73098633D01*
X133635069Y-73085400D01*
X133724931Y-73085400D01*
X133859294Y-73098633D01*
X133859294Y-73098633D01*
G37*
G36*
X161583330Y-74434693D02*
G01*
X159781330Y-74434693D01*
X159781330Y-72632693D01*
X161583330Y-72632693D01*
X161583330Y-74434693D01*
X161583330Y-74434693D01*
G37*
M02*
