G04 #@! TF.GenerationSoftware,KiCad,Pcbnew,(5.1.4-0-10_14)*
G04 #@! TF.CreationDate,2019-09-29T00:11:58+03:00*
G04 #@! TF.ProjectId,RibbonCable_MB_BreakdownBoard,52696262-6f6e-4436-9162-6c655f4d425f,rev?*
G04 #@! TF.SameCoordinates,Original*
G04 #@! TF.FileFunction,Soldermask,Top*
G04 #@! TF.FilePolarity,Negative*
%FSLAX46Y46*%
G04 Gerber Fmt 4.6, Leading zero omitted, Abs format (unit mm)*
G04 Created by KiCad (PCBNEW (5.1.4-0-10_14)) date 2019-09-29 00:11:58*
%MOMM*%
%LPD*%
G04 APERTURE LIST*
%ADD10C,0.150000*%
G04 APERTURE END LIST*
D10*
G36*
X163744098Y-99547033D02*
G01*
X164208350Y-99739332D01*
X164208352Y-99739333D01*
X164626168Y-100018509D01*
X164981491Y-100373832D01*
X165181639Y-100673375D01*
X165260668Y-100791650D01*
X165452967Y-101255902D01*
X165551000Y-101748747D01*
X165551000Y-102251253D01*
X165452967Y-102744098D01*
X165260668Y-103208350D01*
X165260667Y-103208352D01*
X164981491Y-103626168D01*
X164626168Y-103981491D01*
X164208352Y-104260667D01*
X164208351Y-104260668D01*
X164208350Y-104260668D01*
X163744098Y-104452967D01*
X163251253Y-104551000D01*
X162748747Y-104551000D01*
X162255902Y-104452967D01*
X161791650Y-104260668D01*
X161791649Y-104260668D01*
X161791648Y-104260667D01*
X161373832Y-103981491D01*
X161018509Y-103626168D01*
X160739333Y-103208352D01*
X160739332Y-103208350D01*
X160547033Y-102744098D01*
X160449000Y-102251253D01*
X160449000Y-101748747D01*
X160547033Y-101255902D01*
X160739332Y-100791650D01*
X160818361Y-100673375D01*
X161018509Y-100373832D01*
X161373832Y-100018509D01*
X161791648Y-99739333D01*
X161791650Y-99739332D01*
X162255902Y-99547033D01*
X162748747Y-99449000D01*
X163251253Y-99449000D01*
X163744098Y-99547033D01*
X163744098Y-99547033D01*
G37*
G36*
X109744098Y-99547033D02*
G01*
X110208350Y-99739332D01*
X110208352Y-99739333D01*
X110626168Y-100018509D01*
X110981491Y-100373832D01*
X111181639Y-100673375D01*
X111260668Y-100791650D01*
X111452967Y-101255902D01*
X111551000Y-101748747D01*
X111551000Y-102251253D01*
X111452967Y-102744098D01*
X111260668Y-103208350D01*
X111260667Y-103208352D01*
X110981491Y-103626168D01*
X110626168Y-103981491D01*
X110208352Y-104260667D01*
X110208351Y-104260668D01*
X110208350Y-104260668D01*
X109744098Y-104452967D01*
X109251253Y-104551000D01*
X108748747Y-104551000D01*
X108255902Y-104452967D01*
X107791650Y-104260668D01*
X107791649Y-104260668D01*
X107791648Y-104260667D01*
X107373832Y-103981491D01*
X107018509Y-103626168D01*
X106739333Y-103208352D01*
X106739332Y-103208350D01*
X106547033Y-102744098D01*
X106449000Y-102251253D01*
X106449000Y-101748747D01*
X106547033Y-101255902D01*
X106739332Y-100791650D01*
X106818361Y-100673375D01*
X107018509Y-100373832D01*
X107373832Y-100018509D01*
X107791648Y-99739333D01*
X107791650Y-99739332D01*
X108255902Y-99547033D01*
X108748747Y-99449000D01*
X109251253Y-99449000D01*
X109744098Y-99547033D01*
X109744098Y-99547033D01*
G37*
G36*
X150676627Y-99962037D02*
G01*
X150846466Y-100013557D01*
X150846468Y-100013558D01*
X150870899Y-100026617D01*
X151002991Y-100097222D01*
X151038729Y-100126552D01*
X151140186Y-100209814D01*
X151223448Y-100311271D01*
X151252778Y-100347009D01*
X151336443Y-100503534D01*
X151387963Y-100673374D01*
X151401000Y-100805743D01*
X151401000Y-101194258D01*
X151387963Y-101326627D01*
X151336443Y-101496466D01*
X151252778Y-101652991D01*
X151223448Y-101688729D01*
X151140186Y-101790186D01*
X151002989Y-101902779D01*
X150846467Y-101986442D01*
X150846465Y-101986443D01*
X150676626Y-102037963D01*
X150500000Y-102055359D01*
X150323373Y-102037963D01*
X150153534Y-101986443D01*
X149997009Y-101902778D01*
X149954750Y-101868097D01*
X149859814Y-101790186D01*
X149747221Y-101652989D01*
X149663558Y-101496467D01*
X149663557Y-101496465D01*
X149612037Y-101326626D01*
X149599000Y-101194257D01*
X149599000Y-100805742D01*
X149612037Y-100673373D01*
X149663557Y-100503534D01*
X149747222Y-100347009D01*
X149859815Y-100209815D01*
X149997010Y-100097222D01*
X150129102Y-100026617D01*
X150153533Y-100013558D01*
X150153535Y-100013557D01*
X150323374Y-99962037D01*
X150500000Y-99944641D01*
X150676627Y-99962037D01*
X150676627Y-99962037D01*
G37*
G36*
X153758600Y-99952989D02*
G01*
X153791652Y-99963015D01*
X153822103Y-99979292D01*
X153848799Y-100001201D01*
X153870708Y-100027897D01*
X153886985Y-100058348D01*
X153897011Y-100091400D01*
X153901000Y-100131903D01*
X153901000Y-101868097D01*
X153897011Y-101908600D01*
X153886985Y-101941652D01*
X153870708Y-101972103D01*
X153848799Y-101998799D01*
X153822103Y-102020708D01*
X153791652Y-102036985D01*
X153758600Y-102047011D01*
X153718097Y-102051000D01*
X152281903Y-102051000D01*
X152241400Y-102047011D01*
X152208348Y-102036985D01*
X152177897Y-102020708D01*
X152151201Y-101998799D01*
X152129292Y-101972103D01*
X152113015Y-101941652D01*
X152102989Y-101908600D01*
X152099000Y-101868097D01*
X152099000Y-100131903D01*
X152102989Y-100091400D01*
X152113015Y-100058348D01*
X152129292Y-100027897D01*
X152151201Y-100001201D01*
X152177897Y-99979292D01*
X152208348Y-99963015D01*
X152241400Y-99952989D01*
X152281903Y-99949000D01*
X153718097Y-99949000D01*
X153758600Y-99952989D01*
X153758600Y-99952989D01*
G37*
G36*
X141676627Y-91962037D02*
G01*
X141846466Y-92013557D01*
X142002991Y-92097222D01*
X142026359Y-92116400D01*
X142140186Y-92209814D01*
X142223448Y-92311271D01*
X142252778Y-92347009D01*
X142336443Y-92503534D01*
X142387963Y-92673374D01*
X142401000Y-92805743D01*
X142401000Y-93194258D01*
X142387963Y-93326627D01*
X142336443Y-93496466D01*
X142252778Y-93652991D01*
X142223448Y-93688729D01*
X142140186Y-93790186D01*
X142002989Y-93902779D01*
X141870120Y-93973799D01*
X141846465Y-93986443D01*
X141676626Y-94037963D01*
X141500000Y-94055359D01*
X141323373Y-94037963D01*
X141153534Y-93986443D01*
X140997009Y-93902778D01*
X140947822Y-93862411D01*
X140859814Y-93790186D01*
X140747221Y-93652989D01*
X140663558Y-93496467D01*
X140663557Y-93496465D01*
X140612037Y-93326626D01*
X140599000Y-93194257D01*
X140599000Y-92805742D01*
X140612037Y-92673373D01*
X140663557Y-92503534D01*
X140747222Y-92347009D01*
X140859815Y-92209815D01*
X140997010Y-92097222D01*
X141153535Y-92013557D01*
X141323374Y-91962037D01*
X141500000Y-91944641D01*
X141676627Y-91962037D01*
X141676627Y-91962037D01*
G37*
G36*
X150676627Y-91962037D02*
G01*
X150846466Y-92013557D01*
X151002991Y-92097222D01*
X151026359Y-92116400D01*
X151140186Y-92209814D01*
X151223448Y-92311271D01*
X151252778Y-92347009D01*
X151336443Y-92503534D01*
X151387963Y-92673374D01*
X151401000Y-92805743D01*
X151401000Y-93194258D01*
X151387963Y-93326627D01*
X151336443Y-93496466D01*
X151252778Y-93652991D01*
X151223448Y-93688729D01*
X151140186Y-93790186D01*
X151002989Y-93902779D01*
X150870120Y-93973799D01*
X150846465Y-93986443D01*
X150676626Y-94037963D01*
X150500000Y-94055359D01*
X150323373Y-94037963D01*
X150153534Y-93986443D01*
X149997009Y-93902778D01*
X149947822Y-93862411D01*
X149859814Y-93790186D01*
X149747221Y-93652989D01*
X149663558Y-93496467D01*
X149663557Y-93496465D01*
X149612037Y-93326626D01*
X149599000Y-93194257D01*
X149599000Y-92805742D01*
X149612037Y-92673373D01*
X149663557Y-92503534D01*
X149747222Y-92347009D01*
X149859815Y-92209815D01*
X149997010Y-92097222D01*
X150153535Y-92013557D01*
X150323374Y-91962037D01*
X150500000Y-91944641D01*
X150676627Y-91962037D01*
X150676627Y-91962037D01*
G37*
G36*
X159676627Y-91962037D02*
G01*
X159846466Y-92013557D01*
X160002991Y-92097222D01*
X160026359Y-92116400D01*
X160140186Y-92209814D01*
X160223448Y-92311271D01*
X160252778Y-92347009D01*
X160336443Y-92503534D01*
X160387963Y-92673374D01*
X160401000Y-92805743D01*
X160401000Y-93194258D01*
X160387963Y-93326627D01*
X160336443Y-93496466D01*
X160252778Y-93652991D01*
X160223448Y-93688729D01*
X160140186Y-93790186D01*
X160002989Y-93902779D01*
X159870120Y-93973799D01*
X159846465Y-93986443D01*
X159676626Y-94037963D01*
X159500000Y-94055359D01*
X159323373Y-94037963D01*
X159153534Y-93986443D01*
X158997009Y-93902778D01*
X158947822Y-93862411D01*
X158859814Y-93790186D01*
X158747221Y-93652989D01*
X158663558Y-93496467D01*
X158663557Y-93496465D01*
X158612037Y-93326626D01*
X158599000Y-93194257D01*
X158599000Y-92805742D01*
X158612037Y-92673373D01*
X158663557Y-92503534D01*
X158747222Y-92347009D01*
X158859815Y-92209815D01*
X158997010Y-92097222D01*
X159153535Y-92013557D01*
X159323374Y-91962037D01*
X159500000Y-91944641D01*
X159676627Y-91962037D01*
X159676627Y-91962037D01*
G37*
G36*
X162758600Y-91952989D02*
G01*
X162791652Y-91963015D01*
X162822103Y-91979292D01*
X162848799Y-92001201D01*
X162870708Y-92027897D01*
X162886985Y-92058348D01*
X162897011Y-92091400D01*
X162901000Y-92131903D01*
X162901000Y-93868097D01*
X162897011Y-93908600D01*
X162886985Y-93941652D01*
X162870708Y-93972103D01*
X162848799Y-93998799D01*
X162822103Y-94020708D01*
X162791652Y-94036985D01*
X162758600Y-94047011D01*
X162718097Y-94051000D01*
X161281903Y-94051000D01*
X161241400Y-94047011D01*
X161208348Y-94036985D01*
X161177897Y-94020708D01*
X161151201Y-93998799D01*
X161129292Y-93972103D01*
X161113015Y-93941652D01*
X161102989Y-93908600D01*
X161099000Y-93868097D01*
X161099000Y-92131903D01*
X161102989Y-92091400D01*
X161113015Y-92058348D01*
X161129292Y-92027897D01*
X161151201Y-92001201D01*
X161177897Y-91979292D01*
X161208348Y-91963015D01*
X161241400Y-91952989D01*
X161281903Y-91949000D01*
X162718097Y-91949000D01*
X162758600Y-91952989D01*
X162758600Y-91952989D01*
G37*
G36*
X153758600Y-91952989D02*
G01*
X153791652Y-91963015D01*
X153822103Y-91979292D01*
X153848799Y-92001201D01*
X153870708Y-92027897D01*
X153886985Y-92058348D01*
X153897011Y-92091400D01*
X153901000Y-92131903D01*
X153901000Y-93868097D01*
X153897011Y-93908600D01*
X153886985Y-93941652D01*
X153870708Y-93972103D01*
X153848799Y-93998799D01*
X153822103Y-94020708D01*
X153791652Y-94036985D01*
X153758600Y-94047011D01*
X153718097Y-94051000D01*
X152281903Y-94051000D01*
X152241400Y-94047011D01*
X152208348Y-94036985D01*
X152177897Y-94020708D01*
X152151201Y-93998799D01*
X152129292Y-93972103D01*
X152113015Y-93941652D01*
X152102989Y-93908600D01*
X152099000Y-93868097D01*
X152099000Y-92131903D01*
X152102989Y-92091400D01*
X152113015Y-92058348D01*
X152129292Y-92027897D01*
X152151201Y-92001201D01*
X152177897Y-91979292D01*
X152208348Y-91963015D01*
X152241400Y-91952989D01*
X152281903Y-91949000D01*
X153718097Y-91949000D01*
X153758600Y-91952989D01*
X153758600Y-91952989D01*
G37*
G36*
X144758600Y-91952989D02*
G01*
X144791652Y-91963015D01*
X144822103Y-91979292D01*
X144848799Y-92001201D01*
X144870708Y-92027897D01*
X144886985Y-92058348D01*
X144897011Y-92091400D01*
X144901000Y-92131903D01*
X144901000Y-93868097D01*
X144897011Y-93908600D01*
X144886985Y-93941652D01*
X144870708Y-93972103D01*
X144848799Y-93998799D01*
X144822103Y-94020708D01*
X144791652Y-94036985D01*
X144758600Y-94047011D01*
X144718097Y-94051000D01*
X143281903Y-94051000D01*
X143241400Y-94047011D01*
X143208348Y-94036985D01*
X143177897Y-94020708D01*
X143151201Y-93998799D01*
X143129292Y-93972103D01*
X143113015Y-93941652D01*
X143102989Y-93908600D01*
X143099000Y-93868097D01*
X143099000Y-92131903D01*
X143102989Y-92091400D01*
X143113015Y-92058348D01*
X143129292Y-92027897D01*
X143151201Y-92001201D01*
X143177897Y-91979292D01*
X143208348Y-91963015D01*
X143241400Y-91952989D01*
X143281903Y-91949000D01*
X144718097Y-91949000D01*
X144758600Y-91952989D01*
X144758600Y-91952989D01*
G37*
G36*
X119676627Y-91987037D02*
G01*
X119846466Y-92038557D01*
X120002991Y-92122222D01*
X120038729Y-92151552D01*
X120140186Y-92234814D01*
X120223448Y-92336271D01*
X120252778Y-92372009D01*
X120336443Y-92528534D01*
X120387963Y-92698374D01*
X120387963Y-92698376D01*
X120398538Y-92805740D01*
X120401000Y-92830743D01*
X120401000Y-93169258D01*
X120387963Y-93301627D01*
X120336443Y-93471466D01*
X120252778Y-93627991D01*
X120232262Y-93652990D01*
X120140186Y-93765186D01*
X120002989Y-93877779D01*
X119846467Y-93961442D01*
X119846465Y-93961443D01*
X119676626Y-94012963D01*
X119500000Y-94030359D01*
X119323373Y-94012963D01*
X119153534Y-93961443D01*
X118997009Y-93877778D01*
X118948173Y-93837699D01*
X118859814Y-93765186D01*
X118747221Y-93627989D01*
X118663558Y-93471467D01*
X118663557Y-93471465D01*
X118612037Y-93301626D01*
X118605518Y-93235441D01*
X118599000Y-93169259D01*
X118599000Y-92830740D01*
X118612037Y-92698375D01*
X118612037Y-92698373D01*
X118663557Y-92528534D01*
X118747222Y-92372009D01*
X118859815Y-92234815D01*
X118997010Y-92122222D01*
X119153535Y-92038557D01*
X119323374Y-91987037D01*
X119500000Y-91969641D01*
X119676627Y-91987037D01*
X119676627Y-91987037D01*
G37*
G36*
X122176627Y-91987037D02*
G01*
X122346466Y-92038557D01*
X122502991Y-92122222D01*
X122538729Y-92151552D01*
X122640186Y-92234814D01*
X122723448Y-92336271D01*
X122752778Y-92372009D01*
X122836443Y-92528534D01*
X122887963Y-92698374D01*
X122887963Y-92698376D01*
X122898538Y-92805740D01*
X122901000Y-92830743D01*
X122901000Y-93169258D01*
X122887963Y-93301627D01*
X122836443Y-93471466D01*
X122752778Y-93627991D01*
X122732262Y-93652990D01*
X122640186Y-93765186D01*
X122502989Y-93877779D01*
X122346467Y-93961442D01*
X122346465Y-93961443D01*
X122176626Y-94012963D01*
X122000000Y-94030359D01*
X121823373Y-94012963D01*
X121653534Y-93961443D01*
X121497009Y-93877778D01*
X121448173Y-93837699D01*
X121359814Y-93765186D01*
X121247221Y-93627989D01*
X121163558Y-93471467D01*
X121163557Y-93471465D01*
X121112037Y-93301626D01*
X121105518Y-93235441D01*
X121099000Y-93169259D01*
X121099000Y-92830740D01*
X121112037Y-92698375D01*
X121112037Y-92698373D01*
X121163557Y-92528534D01*
X121247222Y-92372009D01*
X121359815Y-92234815D01*
X121497010Y-92122222D01*
X121653535Y-92038557D01*
X121823374Y-91987037D01*
X122000000Y-91969641D01*
X122176627Y-91987037D01*
X122176627Y-91987037D01*
G37*
G36*
X124676627Y-91987037D02*
G01*
X124846466Y-92038557D01*
X125002991Y-92122222D01*
X125038729Y-92151552D01*
X125140186Y-92234814D01*
X125223448Y-92336271D01*
X125252778Y-92372009D01*
X125336443Y-92528534D01*
X125387963Y-92698374D01*
X125387963Y-92698376D01*
X125398538Y-92805740D01*
X125401000Y-92830743D01*
X125401000Y-93169258D01*
X125387963Y-93301627D01*
X125336443Y-93471466D01*
X125252778Y-93627991D01*
X125232262Y-93652990D01*
X125140186Y-93765186D01*
X125002989Y-93877779D01*
X124846467Y-93961442D01*
X124846465Y-93961443D01*
X124676626Y-94012963D01*
X124500000Y-94030359D01*
X124323373Y-94012963D01*
X124153534Y-93961443D01*
X123997009Y-93877778D01*
X123948173Y-93837699D01*
X123859814Y-93765186D01*
X123747221Y-93627989D01*
X123663558Y-93471467D01*
X123663557Y-93471465D01*
X123612037Y-93301626D01*
X123605518Y-93235441D01*
X123599000Y-93169259D01*
X123599000Y-92830740D01*
X123612037Y-92698375D01*
X123612037Y-92698373D01*
X123663557Y-92528534D01*
X123747222Y-92372009D01*
X123859815Y-92234815D01*
X123997010Y-92122222D01*
X124153535Y-92038557D01*
X124323374Y-91987037D01*
X124500000Y-91969641D01*
X124676627Y-91987037D01*
X124676627Y-91987037D01*
G37*
G36*
X127758600Y-91977989D02*
G01*
X127791652Y-91988015D01*
X127822103Y-92004292D01*
X127848799Y-92026201D01*
X127870708Y-92052897D01*
X127886985Y-92083348D01*
X127897011Y-92116400D01*
X127901000Y-92156903D01*
X127901000Y-93843097D01*
X127897011Y-93883600D01*
X127886985Y-93916652D01*
X127870708Y-93947103D01*
X127848799Y-93973799D01*
X127822103Y-93995708D01*
X127791652Y-94011985D01*
X127758600Y-94022011D01*
X127718097Y-94026000D01*
X126281903Y-94026000D01*
X126241400Y-94022011D01*
X126208348Y-94011985D01*
X126177897Y-93995708D01*
X126151201Y-93973799D01*
X126129292Y-93947103D01*
X126113015Y-93916652D01*
X126102989Y-93883600D01*
X126099000Y-93843097D01*
X126099000Y-92156903D01*
X126102989Y-92116400D01*
X126113015Y-92083348D01*
X126129292Y-92052897D01*
X126151201Y-92026201D01*
X126177897Y-92004292D01*
X126208348Y-91988015D01*
X126241400Y-91977989D01*
X126281903Y-91974000D01*
X127718097Y-91974000D01*
X127758600Y-91977989D01*
X127758600Y-91977989D01*
G37*
G36*
X135113512Y-89603927D02*
G01*
X135262812Y-89633624D01*
X135426784Y-89701544D01*
X135574354Y-89800147D01*
X135699853Y-89925646D01*
X135798456Y-90073216D01*
X135866376Y-90237188D01*
X135901000Y-90411259D01*
X135901000Y-90588741D01*
X135866376Y-90762812D01*
X135798456Y-90926784D01*
X135699853Y-91074354D01*
X135574354Y-91199853D01*
X135426784Y-91298456D01*
X135262812Y-91366376D01*
X135113512Y-91396073D01*
X135088742Y-91401000D01*
X134911258Y-91401000D01*
X134886488Y-91396073D01*
X134737188Y-91366376D01*
X134573216Y-91298456D01*
X134425646Y-91199853D01*
X134300147Y-91074354D01*
X134201544Y-90926784D01*
X134133624Y-90762812D01*
X134099000Y-90588741D01*
X134099000Y-90411259D01*
X134133624Y-90237188D01*
X134201544Y-90073216D01*
X134300147Y-89925646D01*
X134425646Y-89800147D01*
X134573216Y-89701544D01*
X134737188Y-89633624D01*
X134886488Y-89603927D01*
X134911258Y-89599000D01*
X135088742Y-89599000D01*
X135113512Y-89603927D01*
X135113512Y-89603927D01*
G37*
G36*
X135091177Y-87063621D02*
G01*
X135176627Y-87072037D01*
X135346466Y-87123557D01*
X135502991Y-87207222D01*
X135538729Y-87236552D01*
X135640186Y-87319814D01*
X135723448Y-87421271D01*
X135752778Y-87457009D01*
X135836443Y-87613534D01*
X135887963Y-87783373D01*
X135905359Y-87960000D01*
X135887963Y-88136627D01*
X135836443Y-88306466D01*
X135752778Y-88462991D01*
X135723448Y-88498729D01*
X135640186Y-88600186D01*
X135538729Y-88683448D01*
X135502991Y-88712778D01*
X135346466Y-88796443D01*
X135176627Y-88847963D01*
X135110442Y-88854482D01*
X135044260Y-88861000D01*
X134955740Y-88861000D01*
X134889558Y-88854482D01*
X134823373Y-88847963D01*
X134653534Y-88796443D01*
X134497009Y-88712778D01*
X134461271Y-88683448D01*
X134359814Y-88600186D01*
X134276552Y-88498729D01*
X134247222Y-88462991D01*
X134163557Y-88306466D01*
X134112037Y-88136627D01*
X134094641Y-87960000D01*
X134112037Y-87783373D01*
X134163557Y-87613534D01*
X134247222Y-87457009D01*
X134276552Y-87421271D01*
X134359814Y-87319814D01*
X134461271Y-87236552D01*
X134497009Y-87207222D01*
X134653534Y-87123557D01*
X134823373Y-87072037D01*
X134908823Y-87063621D01*
X134955740Y-87059000D01*
X135044260Y-87059000D01*
X135091177Y-87063621D01*
X135091177Y-87063621D01*
G37*
G36*
X109314038Y-85026062D02*
G01*
X109448657Y-85052839D01*
X109554097Y-85096514D01*
X109703621Y-85158449D01*
X109757211Y-85194257D01*
X109933086Y-85311772D01*
X110128228Y-85506914D01*
X110225832Y-85652989D01*
X110281551Y-85736379D01*
X110313164Y-85812699D01*
X110387161Y-85991343D01*
X110405107Y-86081567D01*
X110441000Y-86262012D01*
X110441000Y-86537988D01*
X110387161Y-86808656D01*
X110281551Y-87063621D01*
X110241503Y-87123557D01*
X110128228Y-87293086D01*
X109933086Y-87488228D01*
X109853276Y-87541555D01*
X109703621Y-87641551D01*
X109625207Y-87674031D01*
X109448657Y-87747161D01*
X109358433Y-87765107D01*
X109177988Y-87801000D01*
X108902012Y-87801000D01*
X108721567Y-87765107D01*
X108631343Y-87747161D01*
X108454793Y-87674031D01*
X108376379Y-87641551D01*
X108226724Y-87541555D01*
X108146914Y-87488228D01*
X107951772Y-87293086D01*
X107838497Y-87123557D01*
X107798449Y-87063621D01*
X107692839Y-86808656D01*
X107639000Y-86537988D01*
X107639000Y-86262012D01*
X107674893Y-86081567D01*
X107692839Y-85991343D01*
X107766836Y-85812699D01*
X107798449Y-85736379D01*
X107854168Y-85652989D01*
X107951772Y-85506914D01*
X108146914Y-85311772D01*
X108322789Y-85194257D01*
X108376379Y-85158449D01*
X108525903Y-85096514D01*
X108631343Y-85052839D01*
X108765962Y-85026062D01*
X108902012Y-84999000D01*
X109177988Y-84999000D01*
X109314038Y-85026062D01*
X109314038Y-85026062D01*
G37*
G36*
X114274031Y-85002621D02*
G01*
X114303486Y-85011556D01*
X114330623Y-85026062D01*
X114354414Y-85045586D01*
X114373938Y-85069377D01*
X114388444Y-85096514D01*
X114397379Y-85125969D01*
X114401000Y-85162734D01*
X114401000Y-87637266D01*
X114397379Y-87674031D01*
X114388444Y-87703486D01*
X114373938Y-87730623D01*
X114354414Y-87754414D01*
X114330623Y-87773938D01*
X114303486Y-87788444D01*
X114274031Y-87797379D01*
X114237266Y-87801000D01*
X111762734Y-87801000D01*
X111725969Y-87797379D01*
X111696514Y-87788444D01*
X111669377Y-87773938D01*
X111645586Y-87754414D01*
X111626062Y-87730623D01*
X111611556Y-87703486D01*
X111602621Y-87674031D01*
X111599000Y-87637266D01*
X111599000Y-85162734D01*
X111602621Y-85125969D01*
X111611556Y-85096514D01*
X111626062Y-85069377D01*
X111645586Y-85045586D01*
X111669377Y-85026062D01*
X111696514Y-85011556D01*
X111725969Y-85002621D01*
X111762734Y-84999000D01*
X114237266Y-84999000D01*
X114274031Y-85002621D01*
X114274031Y-85002621D01*
G37*
G36*
X135110442Y-84525518D02*
G01*
X135176627Y-84532037D01*
X135346466Y-84583557D01*
X135502991Y-84667222D01*
X135538729Y-84696552D01*
X135640186Y-84779814D01*
X135723448Y-84881271D01*
X135752778Y-84917009D01*
X135752779Y-84917011D01*
X135811069Y-85026062D01*
X135836443Y-85073534D01*
X135887963Y-85243373D01*
X135905359Y-85420000D01*
X135887963Y-85596627D01*
X135836443Y-85766466D01*
X135752778Y-85922991D01*
X135731939Y-85948383D01*
X135640186Y-86060186D01*
X135538729Y-86143448D01*
X135502991Y-86172778D01*
X135346466Y-86256443D01*
X135176627Y-86307963D01*
X135110443Y-86314481D01*
X135044260Y-86321000D01*
X134955740Y-86321000D01*
X134889557Y-86314481D01*
X134823373Y-86307963D01*
X134653534Y-86256443D01*
X134497009Y-86172778D01*
X134461271Y-86143448D01*
X134359814Y-86060186D01*
X134268061Y-85948383D01*
X134247222Y-85922991D01*
X134163557Y-85766466D01*
X134112037Y-85596627D01*
X134094641Y-85420000D01*
X134112037Y-85243373D01*
X134163557Y-85073534D01*
X134188932Y-85026062D01*
X134247221Y-84917011D01*
X134247222Y-84917009D01*
X134276552Y-84881271D01*
X134359814Y-84779814D01*
X134461271Y-84696552D01*
X134497009Y-84667222D01*
X134653534Y-84583557D01*
X134823373Y-84532037D01*
X134889558Y-84525518D01*
X134955740Y-84519000D01*
X135044260Y-84519000D01*
X135110442Y-84525518D01*
X135110442Y-84525518D01*
G37*
G36*
X141676627Y-83962037D02*
G01*
X141846466Y-84013557D01*
X142002991Y-84097222D01*
X142026359Y-84116400D01*
X142140186Y-84209814D01*
X142223448Y-84311271D01*
X142252778Y-84347009D01*
X142336443Y-84503534D01*
X142387963Y-84673374D01*
X142387963Y-84673376D01*
X142401000Y-84805741D01*
X142401000Y-85194260D01*
X142394678Y-85258445D01*
X142387963Y-85326627D01*
X142336443Y-85496466D01*
X142252778Y-85652991D01*
X142223448Y-85688729D01*
X142140186Y-85790186D01*
X142002989Y-85902779D01*
X141870120Y-85973799D01*
X141846465Y-85986443D01*
X141676626Y-86037963D01*
X141500000Y-86055359D01*
X141323373Y-86037963D01*
X141153534Y-85986443D01*
X140997009Y-85902778D01*
X140947822Y-85862411D01*
X140859814Y-85790186D01*
X140747221Y-85652989D01*
X140663558Y-85496467D01*
X140663557Y-85496465D01*
X140612037Y-85326626D01*
X140599000Y-85194257D01*
X140599000Y-84805742D01*
X140601554Y-84779815D01*
X140605519Y-84739557D01*
X140612037Y-84673373D01*
X140663557Y-84503534D01*
X140747222Y-84347009D01*
X140859815Y-84209815D01*
X140997010Y-84097222D01*
X141153535Y-84013557D01*
X141323374Y-83962037D01*
X141500000Y-83944641D01*
X141676627Y-83962037D01*
X141676627Y-83962037D01*
G37*
G36*
X150676627Y-83962037D02*
G01*
X150846466Y-84013557D01*
X151002991Y-84097222D01*
X151026359Y-84116400D01*
X151140186Y-84209814D01*
X151223448Y-84311271D01*
X151252778Y-84347009D01*
X151336443Y-84503534D01*
X151387963Y-84673374D01*
X151387963Y-84673376D01*
X151401000Y-84805741D01*
X151401000Y-85194260D01*
X151394678Y-85258445D01*
X151387963Y-85326627D01*
X151336443Y-85496466D01*
X151252778Y-85652991D01*
X151223448Y-85688729D01*
X151140186Y-85790186D01*
X151002989Y-85902779D01*
X150870120Y-85973799D01*
X150846465Y-85986443D01*
X150676626Y-86037963D01*
X150500000Y-86055359D01*
X150323373Y-86037963D01*
X150153534Y-85986443D01*
X149997009Y-85902778D01*
X149947822Y-85862411D01*
X149859814Y-85790186D01*
X149747221Y-85652989D01*
X149663558Y-85496467D01*
X149663557Y-85496465D01*
X149612037Y-85326626D01*
X149599000Y-85194257D01*
X149599000Y-84805742D01*
X149601554Y-84779815D01*
X149605519Y-84739557D01*
X149612037Y-84673373D01*
X149663557Y-84503534D01*
X149747222Y-84347009D01*
X149859815Y-84209815D01*
X149997010Y-84097222D01*
X150153535Y-84013557D01*
X150323374Y-83962037D01*
X150500000Y-83944641D01*
X150676627Y-83962037D01*
X150676627Y-83962037D01*
G37*
G36*
X159676627Y-83962037D02*
G01*
X159846466Y-84013557D01*
X160002991Y-84097222D01*
X160026359Y-84116400D01*
X160140186Y-84209814D01*
X160223448Y-84311271D01*
X160252778Y-84347009D01*
X160336443Y-84503534D01*
X160387963Y-84673374D01*
X160387963Y-84673376D01*
X160401000Y-84805741D01*
X160401000Y-85194260D01*
X160394678Y-85258445D01*
X160387963Y-85326627D01*
X160336443Y-85496466D01*
X160252778Y-85652991D01*
X160223448Y-85688729D01*
X160140186Y-85790186D01*
X160002989Y-85902779D01*
X159870120Y-85973799D01*
X159846465Y-85986443D01*
X159676626Y-86037963D01*
X159500000Y-86055359D01*
X159323373Y-86037963D01*
X159153534Y-85986443D01*
X158997009Y-85902778D01*
X158947822Y-85862411D01*
X158859814Y-85790186D01*
X158747221Y-85652989D01*
X158663558Y-85496467D01*
X158663557Y-85496465D01*
X158612037Y-85326626D01*
X158599000Y-85194257D01*
X158599000Y-84805742D01*
X158601554Y-84779815D01*
X158605519Y-84739557D01*
X158612037Y-84673373D01*
X158663557Y-84503534D01*
X158747222Y-84347009D01*
X158859815Y-84209815D01*
X158997010Y-84097222D01*
X159153535Y-84013557D01*
X159323374Y-83962037D01*
X159500000Y-83944641D01*
X159676627Y-83962037D01*
X159676627Y-83962037D01*
G37*
G36*
X162758600Y-83952989D02*
G01*
X162791652Y-83963015D01*
X162822103Y-83979292D01*
X162848799Y-84001201D01*
X162870708Y-84027897D01*
X162886985Y-84058348D01*
X162897011Y-84091400D01*
X162901000Y-84131903D01*
X162901000Y-85868097D01*
X162897011Y-85908600D01*
X162886985Y-85941652D01*
X162870708Y-85972103D01*
X162848799Y-85998799D01*
X162822103Y-86020708D01*
X162791652Y-86036985D01*
X162758600Y-86047011D01*
X162718097Y-86051000D01*
X161281903Y-86051000D01*
X161241400Y-86047011D01*
X161208348Y-86036985D01*
X161177897Y-86020708D01*
X161151201Y-85998799D01*
X161129292Y-85972103D01*
X161113015Y-85941652D01*
X161102989Y-85908600D01*
X161099000Y-85868097D01*
X161099000Y-84131903D01*
X161102989Y-84091400D01*
X161113015Y-84058348D01*
X161129292Y-84027897D01*
X161151201Y-84001201D01*
X161177897Y-83979292D01*
X161208348Y-83963015D01*
X161241400Y-83952989D01*
X161281903Y-83949000D01*
X162718097Y-83949000D01*
X162758600Y-83952989D01*
X162758600Y-83952989D01*
G37*
G36*
X153758600Y-83952989D02*
G01*
X153791652Y-83963015D01*
X153822103Y-83979292D01*
X153848799Y-84001201D01*
X153870708Y-84027897D01*
X153886985Y-84058348D01*
X153897011Y-84091400D01*
X153901000Y-84131903D01*
X153901000Y-85868097D01*
X153897011Y-85908600D01*
X153886985Y-85941652D01*
X153870708Y-85972103D01*
X153848799Y-85998799D01*
X153822103Y-86020708D01*
X153791652Y-86036985D01*
X153758600Y-86047011D01*
X153718097Y-86051000D01*
X152281903Y-86051000D01*
X152241400Y-86047011D01*
X152208348Y-86036985D01*
X152177897Y-86020708D01*
X152151201Y-85998799D01*
X152129292Y-85972103D01*
X152113015Y-85941652D01*
X152102989Y-85908600D01*
X152099000Y-85868097D01*
X152099000Y-84131903D01*
X152102989Y-84091400D01*
X152113015Y-84058348D01*
X152129292Y-84027897D01*
X152151201Y-84001201D01*
X152177897Y-83979292D01*
X152208348Y-83963015D01*
X152241400Y-83952989D01*
X152281903Y-83949000D01*
X153718097Y-83949000D01*
X153758600Y-83952989D01*
X153758600Y-83952989D01*
G37*
G36*
X144758600Y-83952989D02*
G01*
X144791652Y-83963015D01*
X144822103Y-83979292D01*
X144848799Y-84001201D01*
X144870708Y-84027897D01*
X144886985Y-84058348D01*
X144897011Y-84091400D01*
X144901000Y-84131903D01*
X144901000Y-85868097D01*
X144897011Y-85908600D01*
X144886985Y-85941652D01*
X144870708Y-85972103D01*
X144848799Y-85998799D01*
X144822103Y-86020708D01*
X144791652Y-86036985D01*
X144758600Y-86047011D01*
X144718097Y-86051000D01*
X143281903Y-86051000D01*
X143241400Y-86047011D01*
X143208348Y-86036985D01*
X143177897Y-86020708D01*
X143151201Y-85998799D01*
X143129292Y-85972103D01*
X143113015Y-85941652D01*
X143102989Y-85908600D01*
X143099000Y-85868097D01*
X143099000Y-84131903D01*
X143102989Y-84091400D01*
X143113015Y-84058348D01*
X143129292Y-84027897D01*
X143151201Y-84001201D01*
X143177897Y-83979292D01*
X143208348Y-83963015D01*
X143241400Y-83952989D01*
X143281903Y-83949000D01*
X144718097Y-83949000D01*
X144758600Y-83952989D01*
X144758600Y-83952989D01*
G37*
G36*
X124676627Y-83987037D02*
G01*
X124846466Y-84038557D01*
X125002991Y-84122222D01*
X125038729Y-84151552D01*
X125140186Y-84234814D01*
X125223448Y-84336271D01*
X125252778Y-84372009D01*
X125336443Y-84528534D01*
X125387963Y-84698374D01*
X125387963Y-84698376D01*
X125398538Y-84805740D01*
X125401000Y-84830743D01*
X125401000Y-85169258D01*
X125387963Y-85301627D01*
X125336443Y-85471466D01*
X125252778Y-85627991D01*
X125232262Y-85652990D01*
X125140186Y-85765186D01*
X125002989Y-85877779D01*
X124846467Y-85961442D01*
X124846465Y-85961443D01*
X124676626Y-86012963D01*
X124500000Y-86030359D01*
X124323373Y-86012963D01*
X124153534Y-85961443D01*
X123997009Y-85877778D01*
X123948173Y-85837699D01*
X123859814Y-85765186D01*
X123747221Y-85627989D01*
X123663558Y-85471467D01*
X123663557Y-85471465D01*
X123612037Y-85301626D01*
X123602799Y-85207830D01*
X123599000Y-85169259D01*
X123599000Y-84830740D01*
X123612037Y-84698375D01*
X123612037Y-84698373D01*
X123663557Y-84528534D01*
X123747222Y-84372009D01*
X123859815Y-84234815D01*
X123997010Y-84122222D01*
X124153535Y-84038557D01*
X124323374Y-83987037D01*
X124500000Y-83969641D01*
X124676627Y-83987037D01*
X124676627Y-83987037D01*
G37*
G36*
X119676627Y-83987037D02*
G01*
X119846466Y-84038557D01*
X120002991Y-84122222D01*
X120038729Y-84151552D01*
X120140186Y-84234814D01*
X120223448Y-84336271D01*
X120252778Y-84372009D01*
X120336443Y-84528534D01*
X120387963Y-84698374D01*
X120387963Y-84698376D01*
X120398538Y-84805740D01*
X120401000Y-84830743D01*
X120401000Y-85169258D01*
X120387963Y-85301627D01*
X120336443Y-85471466D01*
X120252778Y-85627991D01*
X120232262Y-85652990D01*
X120140186Y-85765186D01*
X120002989Y-85877779D01*
X119846467Y-85961442D01*
X119846465Y-85961443D01*
X119676626Y-86012963D01*
X119500000Y-86030359D01*
X119323373Y-86012963D01*
X119153534Y-85961443D01*
X118997009Y-85877778D01*
X118948173Y-85837699D01*
X118859814Y-85765186D01*
X118747221Y-85627989D01*
X118663558Y-85471467D01*
X118663557Y-85471465D01*
X118612037Y-85301626D01*
X118602799Y-85207830D01*
X118599000Y-85169259D01*
X118599000Y-84830740D01*
X118612037Y-84698375D01*
X118612037Y-84698373D01*
X118663557Y-84528534D01*
X118747222Y-84372009D01*
X118859815Y-84234815D01*
X118997010Y-84122222D01*
X119153535Y-84038557D01*
X119323374Y-83987037D01*
X119500000Y-83969641D01*
X119676627Y-83987037D01*
X119676627Y-83987037D01*
G37*
G36*
X122176627Y-83987037D02*
G01*
X122346466Y-84038557D01*
X122502991Y-84122222D01*
X122538729Y-84151552D01*
X122640186Y-84234814D01*
X122723448Y-84336271D01*
X122752778Y-84372009D01*
X122836443Y-84528534D01*
X122887963Y-84698374D01*
X122887963Y-84698376D01*
X122898538Y-84805740D01*
X122901000Y-84830743D01*
X122901000Y-85169258D01*
X122887963Y-85301627D01*
X122836443Y-85471466D01*
X122752778Y-85627991D01*
X122732262Y-85652990D01*
X122640186Y-85765186D01*
X122502989Y-85877779D01*
X122346467Y-85961442D01*
X122346465Y-85961443D01*
X122176626Y-86012963D01*
X122000000Y-86030359D01*
X121823373Y-86012963D01*
X121653534Y-85961443D01*
X121497009Y-85877778D01*
X121448173Y-85837699D01*
X121359814Y-85765186D01*
X121247221Y-85627989D01*
X121163558Y-85471467D01*
X121163557Y-85471465D01*
X121112037Y-85301626D01*
X121102799Y-85207830D01*
X121099000Y-85169259D01*
X121099000Y-84830740D01*
X121112037Y-84698375D01*
X121112037Y-84698373D01*
X121163557Y-84528534D01*
X121247222Y-84372009D01*
X121359815Y-84234815D01*
X121497010Y-84122222D01*
X121653535Y-84038557D01*
X121823374Y-83987037D01*
X122000000Y-83969641D01*
X122176627Y-83987037D01*
X122176627Y-83987037D01*
G37*
G36*
X127758600Y-83977989D02*
G01*
X127791652Y-83988015D01*
X127822103Y-84004292D01*
X127848799Y-84026201D01*
X127870708Y-84052897D01*
X127886985Y-84083348D01*
X127897011Y-84116400D01*
X127901000Y-84156903D01*
X127901000Y-85843097D01*
X127897011Y-85883600D01*
X127886985Y-85916652D01*
X127870708Y-85947103D01*
X127848799Y-85973799D01*
X127822103Y-85995708D01*
X127791652Y-86011985D01*
X127758600Y-86022011D01*
X127718097Y-86026000D01*
X126281903Y-86026000D01*
X126241400Y-86022011D01*
X126208348Y-86011985D01*
X126177897Y-85995708D01*
X126151201Y-85973799D01*
X126129292Y-85947103D01*
X126113015Y-85916652D01*
X126102989Y-85883600D01*
X126099000Y-85843097D01*
X126099000Y-84156903D01*
X126102989Y-84116400D01*
X126113015Y-84083348D01*
X126129292Y-84052897D01*
X126151201Y-84026201D01*
X126177897Y-84004292D01*
X126208348Y-83988015D01*
X126241400Y-83977989D01*
X126281903Y-83974000D01*
X127718097Y-83974000D01*
X127758600Y-83977989D01*
X127758600Y-83977989D01*
G37*
G36*
X135110443Y-81985519D02*
G01*
X135176627Y-81992037D01*
X135346466Y-82043557D01*
X135502991Y-82127222D01*
X135538729Y-82156552D01*
X135640186Y-82239814D01*
X135723448Y-82341271D01*
X135752778Y-82377009D01*
X135836443Y-82533534D01*
X135887963Y-82703373D01*
X135905359Y-82880000D01*
X135887963Y-83056627D01*
X135836443Y-83226466D01*
X135752778Y-83382991D01*
X135723448Y-83418729D01*
X135640186Y-83520186D01*
X135538729Y-83603448D01*
X135502991Y-83632778D01*
X135346466Y-83716443D01*
X135176627Y-83767963D01*
X135110442Y-83774482D01*
X135044260Y-83781000D01*
X134955740Y-83781000D01*
X134889558Y-83774482D01*
X134823373Y-83767963D01*
X134653534Y-83716443D01*
X134497009Y-83632778D01*
X134461271Y-83603448D01*
X134359814Y-83520186D01*
X134276552Y-83418729D01*
X134247222Y-83382991D01*
X134163557Y-83226466D01*
X134112037Y-83056627D01*
X134094641Y-82880000D01*
X134112037Y-82703373D01*
X134163557Y-82533534D01*
X134247222Y-82377009D01*
X134276552Y-82341271D01*
X134359814Y-82239814D01*
X134461271Y-82156552D01*
X134497009Y-82127222D01*
X134653534Y-82043557D01*
X134823373Y-81992037D01*
X134889557Y-81985519D01*
X134955740Y-81979000D01*
X135044260Y-81979000D01*
X135110443Y-81985519D01*
X135110443Y-81985519D01*
G37*
G36*
X164051000Y-79901000D02*
G01*
X162249000Y-79901000D01*
X162249000Y-78099000D01*
X164051000Y-78099000D01*
X164051000Y-79901000D01*
X164051000Y-79901000D01*
G37*
G36*
X123699294Y-75638633D02*
G01*
X123871695Y-75690931D01*
X124030583Y-75775858D01*
X124169849Y-75890151D01*
X124284142Y-76029417D01*
X124369069Y-76188305D01*
X124421367Y-76360706D01*
X124439025Y-76540000D01*
X124421367Y-76719294D01*
X124369069Y-76891695D01*
X124284142Y-77050583D01*
X124169849Y-77189849D01*
X124030583Y-77304142D01*
X123871695Y-77389069D01*
X123699294Y-77441367D01*
X123564931Y-77454600D01*
X123475069Y-77454600D01*
X123340706Y-77441367D01*
X123168305Y-77389069D01*
X123009417Y-77304142D01*
X122870151Y-77189849D01*
X122755858Y-77050583D01*
X122670931Y-76891695D01*
X122618633Y-76719294D01*
X122600975Y-76540000D01*
X122618633Y-76360706D01*
X122670931Y-76188305D01*
X122755858Y-76029417D01*
X122870151Y-75890151D01*
X123009417Y-75775858D01*
X123168305Y-75690931D01*
X123340706Y-75638633D01*
X123475069Y-75625400D01*
X123564931Y-75625400D01*
X123699294Y-75638633D01*
X123699294Y-75638633D01*
G37*
G36*
X126239294Y-75638633D02*
G01*
X126411695Y-75690931D01*
X126570583Y-75775858D01*
X126709849Y-75890151D01*
X126824142Y-76029417D01*
X126909069Y-76188305D01*
X126961367Y-76360706D01*
X126979025Y-76540000D01*
X126961367Y-76719294D01*
X126909069Y-76891695D01*
X126824142Y-77050583D01*
X126709849Y-77189849D01*
X126570583Y-77304142D01*
X126411695Y-77389069D01*
X126239294Y-77441367D01*
X126104931Y-77454600D01*
X126015069Y-77454600D01*
X125880706Y-77441367D01*
X125708305Y-77389069D01*
X125549417Y-77304142D01*
X125410151Y-77189849D01*
X125295858Y-77050583D01*
X125210931Y-76891695D01*
X125158633Y-76719294D01*
X125140975Y-76540000D01*
X125158633Y-76360706D01*
X125210931Y-76188305D01*
X125295858Y-76029417D01*
X125410151Y-75890151D01*
X125549417Y-75775858D01*
X125708305Y-75690931D01*
X125880706Y-75638633D01*
X126015069Y-75625400D01*
X126104931Y-75625400D01*
X126239294Y-75638633D01*
X126239294Y-75638633D01*
G37*
G36*
X128779294Y-75638633D02*
G01*
X128951695Y-75690931D01*
X129110583Y-75775858D01*
X129249849Y-75890151D01*
X129364142Y-76029417D01*
X129449069Y-76188305D01*
X129501367Y-76360706D01*
X129519025Y-76540000D01*
X129501367Y-76719294D01*
X129449069Y-76891695D01*
X129364142Y-77050583D01*
X129249849Y-77189849D01*
X129110583Y-77304142D01*
X128951695Y-77389069D01*
X128779294Y-77441367D01*
X128644931Y-77454600D01*
X128555069Y-77454600D01*
X128420706Y-77441367D01*
X128248305Y-77389069D01*
X128089417Y-77304142D01*
X127950151Y-77189849D01*
X127835858Y-77050583D01*
X127750931Y-76891695D01*
X127698633Y-76719294D01*
X127680975Y-76540000D01*
X127698633Y-76360706D01*
X127750931Y-76188305D01*
X127835858Y-76029417D01*
X127950151Y-75890151D01*
X128089417Y-75775858D01*
X128248305Y-75690931D01*
X128420706Y-75638633D01*
X128555069Y-75625400D01*
X128644931Y-75625400D01*
X128779294Y-75638633D01*
X128779294Y-75638633D01*
G37*
G36*
X131319294Y-75638633D02*
G01*
X131491695Y-75690931D01*
X131650583Y-75775858D01*
X131789849Y-75890151D01*
X131904142Y-76029417D01*
X131989069Y-76188305D01*
X132041367Y-76360706D01*
X132059025Y-76540000D01*
X132041367Y-76719294D01*
X131989069Y-76891695D01*
X131904142Y-77050583D01*
X131789849Y-77189849D01*
X131650583Y-77304142D01*
X131491695Y-77389069D01*
X131319294Y-77441367D01*
X131184931Y-77454600D01*
X131095069Y-77454600D01*
X130960706Y-77441367D01*
X130788305Y-77389069D01*
X130629417Y-77304142D01*
X130490151Y-77189849D01*
X130375858Y-77050583D01*
X130290931Y-76891695D01*
X130238633Y-76719294D01*
X130220975Y-76540000D01*
X130238633Y-76360706D01*
X130290931Y-76188305D01*
X130375858Y-76029417D01*
X130490151Y-75890151D01*
X130629417Y-75775858D01*
X130788305Y-75690931D01*
X130960706Y-75638633D01*
X131095069Y-75625400D01*
X131184931Y-75625400D01*
X131319294Y-75638633D01*
X131319294Y-75638633D01*
G37*
G36*
X133859294Y-75638633D02*
G01*
X134031695Y-75690931D01*
X134190583Y-75775858D01*
X134329849Y-75890151D01*
X134444142Y-76029417D01*
X134529069Y-76188305D01*
X134581367Y-76360706D01*
X134599025Y-76540000D01*
X134581367Y-76719294D01*
X134529069Y-76891695D01*
X134444142Y-77050583D01*
X134329849Y-77189849D01*
X134190583Y-77304142D01*
X134031695Y-77389069D01*
X133859294Y-77441367D01*
X133724931Y-77454600D01*
X133635069Y-77454600D01*
X133500706Y-77441367D01*
X133328305Y-77389069D01*
X133169417Y-77304142D01*
X133030151Y-77189849D01*
X132915858Y-77050583D01*
X132830931Y-76891695D01*
X132778633Y-76719294D01*
X132760975Y-76540000D01*
X132778633Y-76360706D01*
X132830931Y-76188305D01*
X132915858Y-76029417D01*
X133030151Y-75890151D01*
X133169417Y-75775858D01*
X133328305Y-75690931D01*
X133500706Y-75638633D01*
X133635069Y-75625400D01*
X133724931Y-75625400D01*
X133859294Y-75638633D01*
X133859294Y-75638633D01*
G37*
G36*
X121159294Y-75638633D02*
G01*
X121331695Y-75690931D01*
X121490583Y-75775858D01*
X121629849Y-75890151D01*
X121744142Y-76029417D01*
X121829069Y-76188305D01*
X121881367Y-76360706D01*
X121899025Y-76540000D01*
X121881367Y-76719294D01*
X121829069Y-76891695D01*
X121744142Y-77050583D01*
X121629849Y-77189849D01*
X121490583Y-77304142D01*
X121331695Y-77389069D01*
X121159294Y-77441367D01*
X121024931Y-77454600D01*
X120935069Y-77454600D01*
X120800706Y-77441367D01*
X120628305Y-77389069D01*
X120469417Y-77304142D01*
X120330151Y-77189849D01*
X120215858Y-77050583D01*
X120130931Y-76891695D01*
X120078633Y-76719294D01*
X120060975Y-76540000D01*
X120078633Y-76360706D01*
X120130931Y-76188305D01*
X120215858Y-76029417D01*
X120330151Y-75890151D01*
X120469417Y-75775858D01*
X120628305Y-75690931D01*
X120800706Y-75638633D01*
X120935069Y-75625400D01*
X121024931Y-75625400D01*
X121159294Y-75638633D01*
X121159294Y-75638633D01*
G37*
G36*
X136399294Y-75638633D02*
G01*
X136571695Y-75690931D01*
X136730583Y-75775858D01*
X136869849Y-75890151D01*
X136984142Y-76029417D01*
X137069069Y-76188305D01*
X137121367Y-76360706D01*
X137139025Y-76540000D01*
X137121367Y-76719294D01*
X137069069Y-76891695D01*
X136984142Y-77050583D01*
X136869849Y-77189849D01*
X136730583Y-77304142D01*
X136571695Y-77389069D01*
X136399294Y-77441367D01*
X136264931Y-77454600D01*
X136175069Y-77454600D01*
X136040706Y-77441367D01*
X135868305Y-77389069D01*
X135709417Y-77304142D01*
X135570151Y-77189849D01*
X135455858Y-77050583D01*
X135370931Y-76891695D01*
X135318633Y-76719294D01*
X135300975Y-76540000D01*
X135318633Y-76360706D01*
X135370931Y-76188305D01*
X135455858Y-76029417D01*
X135570151Y-75890151D01*
X135709417Y-75775858D01*
X135868305Y-75690931D01*
X136040706Y-75638633D01*
X136175069Y-75625400D01*
X136264931Y-75625400D01*
X136399294Y-75638633D01*
X136399294Y-75638633D01*
G37*
G36*
X138939294Y-75638633D02*
G01*
X139111695Y-75690931D01*
X139270583Y-75775858D01*
X139409849Y-75890151D01*
X139524142Y-76029417D01*
X139609069Y-76188305D01*
X139661367Y-76360706D01*
X139679025Y-76540000D01*
X139661367Y-76719294D01*
X139609069Y-76891695D01*
X139524142Y-77050583D01*
X139409849Y-77189849D01*
X139270583Y-77304142D01*
X139111695Y-77389069D01*
X138939294Y-77441367D01*
X138804931Y-77454600D01*
X138715069Y-77454600D01*
X138580706Y-77441367D01*
X138408305Y-77389069D01*
X138249417Y-77304142D01*
X138110151Y-77189849D01*
X137995858Y-77050583D01*
X137910931Y-76891695D01*
X137858633Y-76719294D01*
X137840975Y-76540000D01*
X137858633Y-76360706D01*
X137910931Y-76188305D01*
X137995858Y-76029417D01*
X138110151Y-75890151D01*
X138249417Y-75775858D01*
X138408305Y-75690931D01*
X138580706Y-75638633D01*
X138715069Y-75625400D01*
X138804931Y-75625400D01*
X138939294Y-75638633D01*
X138939294Y-75638633D01*
G37*
G36*
X141479294Y-75638633D02*
G01*
X141651695Y-75690931D01*
X141810583Y-75775858D01*
X141949849Y-75890151D01*
X142064142Y-76029417D01*
X142149069Y-76188305D01*
X142201367Y-76360706D01*
X142219025Y-76540000D01*
X142201367Y-76719294D01*
X142149069Y-76891695D01*
X142064142Y-77050583D01*
X141949849Y-77189849D01*
X141810583Y-77304142D01*
X141651695Y-77389069D01*
X141479294Y-77441367D01*
X141344931Y-77454600D01*
X141255069Y-77454600D01*
X141120706Y-77441367D01*
X140948305Y-77389069D01*
X140789417Y-77304142D01*
X140650151Y-77189849D01*
X140535858Y-77050583D01*
X140450931Y-76891695D01*
X140398633Y-76719294D01*
X140380975Y-76540000D01*
X140398633Y-76360706D01*
X140450931Y-76188305D01*
X140535858Y-76029417D01*
X140650151Y-75890151D01*
X140789417Y-75775858D01*
X140948305Y-75690931D01*
X141120706Y-75638633D01*
X141255069Y-75625400D01*
X141344931Y-75625400D01*
X141479294Y-75638633D01*
X141479294Y-75638633D01*
G37*
G36*
X144019294Y-75638633D02*
G01*
X144191695Y-75690931D01*
X144350583Y-75775858D01*
X144489849Y-75890151D01*
X144604142Y-76029417D01*
X144689069Y-76188305D01*
X144741367Y-76360706D01*
X144759025Y-76540000D01*
X144741367Y-76719294D01*
X144689069Y-76891695D01*
X144604142Y-77050583D01*
X144489849Y-77189849D01*
X144350583Y-77304142D01*
X144191695Y-77389069D01*
X144019294Y-77441367D01*
X143884931Y-77454600D01*
X143795069Y-77454600D01*
X143660706Y-77441367D01*
X143488305Y-77389069D01*
X143329417Y-77304142D01*
X143190151Y-77189849D01*
X143075858Y-77050583D01*
X142990931Y-76891695D01*
X142938633Y-76719294D01*
X142920975Y-76540000D01*
X142938633Y-76360706D01*
X142990931Y-76188305D01*
X143075858Y-76029417D01*
X143190151Y-75890151D01*
X143329417Y-75775858D01*
X143488305Y-75690931D01*
X143660706Y-75638633D01*
X143795069Y-75625400D01*
X143884931Y-75625400D01*
X144019294Y-75638633D01*
X144019294Y-75638633D01*
G37*
G36*
X146559294Y-75638633D02*
G01*
X146731695Y-75690931D01*
X146890583Y-75775858D01*
X147029849Y-75890151D01*
X147144142Y-76029417D01*
X147229069Y-76188305D01*
X147281367Y-76360706D01*
X147299025Y-76540000D01*
X147281367Y-76719294D01*
X147229069Y-76891695D01*
X147144142Y-77050583D01*
X147029849Y-77189849D01*
X146890583Y-77304142D01*
X146731695Y-77389069D01*
X146559294Y-77441367D01*
X146424931Y-77454600D01*
X146335069Y-77454600D01*
X146200706Y-77441367D01*
X146028305Y-77389069D01*
X145869417Y-77304142D01*
X145730151Y-77189849D01*
X145615858Y-77050583D01*
X145530931Y-76891695D01*
X145478633Y-76719294D01*
X145460975Y-76540000D01*
X145478633Y-76360706D01*
X145530931Y-76188305D01*
X145615858Y-76029417D01*
X145730151Y-75890151D01*
X145869417Y-75775858D01*
X146028305Y-75690931D01*
X146200706Y-75638633D01*
X146335069Y-75625400D01*
X146424931Y-75625400D01*
X146559294Y-75638633D01*
X146559294Y-75638633D01*
G37*
G36*
X149099294Y-75638633D02*
G01*
X149271695Y-75690931D01*
X149430583Y-75775858D01*
X149569849Y-75890151D01*
X149684142Y-76029417D01*
X149769069Y-76188305D01*
X149821367Y-76360706D01*
X149839025Y-76540000D01*
X149821367Y-76719294D01*
X149769069Y-76891695D01*
X149684142Y-77050583D01*
X149569849Y-77189849D01*
X149430583Y-77304142D01*
X149271695Y-77389069D01*
X149099294Y-77441367D01*
X148964931Y-77454600D01*
X148875069Y-77454600D01*
X148740706Y-77441367D01*
X148568305Y-77389069D01*
X148409417Y-77304142D01*
X148270151Y-77189849D01*
X148155858Y-77050583D01*
X148070931Y-76891695D01*
X148018633Y-76719294D01*
X148000975Y-76540000D01*
X148018633Y-76360706D01*
X148070931Y-76188305D01*
X148155858Y-76029417D01*
X148270151Y-75890151D01*
X148409417Y-75775858D01*
X148568305Y-75690931D01*
X148740706Y-75638633D01*
X148875069Y-75625400D01*
X148964931Y-75625400D01*
X149099294Y-75638633D01*
X149099294Y-75638633D01*
G37*
G36*
X151639294Y-75638633D02*
G01*
X151811695Y-75690931D01*
X151970583Y-75775858D01*
X152109849Y-75890151D01*
X152224142Y-76029417D01*
X152309069Y-76188305D01*
X152361367Y-76360706D01*
X152379025Y-76540000D01*
X152361367Y-76719294D01*
X152309069Y-76891695D01*
X152224142Y-77050583D01*
X152109849Y-77189849D01*
X151970583Y-77304142D01*
X151811695Y-77389069D01*
X151639294Y-77441367D01*
X151504931Y-77454600D01*
X151415069Y-77454600D01*
X151280706Y-77441367D01*
X151108305Y-77389069D01*
X150949417Y-77304142D01*
X150810151Y-77189849D01*
X150695858Y-77050583D01*
X150610931Y-76891695D01*
X150558633Y-76719294D01*
X150540975Y-76540000D01*
X150558633Y-76360706D01*
X150610931Y-76188305D01*
X150695858Y-76029417D01*
X150810151Y-75890151D01*
X150949417Y-75775858D01*
X151108305Y-75690931D01*
X151280706Y-75638633D01*
X151415069Y-75625400D01*
X151504931Y-75625400D01*
X151639294Y-75638633D01*
X151639294Y-75638633D01*
G37*
G36*
X154179294Y-75638633D02*
G01*
X154351695Y-75690931D01*
X154510583Y-75775858D01*
X154649849Y-75890151D01*
X154764142Y-76029417D01*
X154849069Y-76188305D01*
X154901367Y-76360706D01*
X154919025Y-76540000D01*
X154901367Y-76719294D01*
X154849069Y-76891695D01*
X154764142Y-77050583D01*
X154649849Y-77189849D01*
X154510583Y-77304142D01*
X154351695Y-77389069D01*
X154179294Y-77441367D01*
X154044931Y-77454600D01*
X153955069Y-77454600D01*
X153820706Y-77441367D01*
X153648305Y-77389069D01*
X153489417Y-77304142D01*
X153350151Y-77189849D01*
X153235858Y-77050583D01*
X153150931Y-76891695D01*
X153098633Y-76719294D01*
X153080975Y-76540000D01*
X153098633Y-76360706D01*
X153150931Y-76188305D01*
X153235858Y-76029417D01*
X153350151Y-75890151D01*
X153489417Y-75775858D01*
X153648305Y-75690931D01*
X153820706Y-75638633D01*
X153955069Y-75625400D01*
X154044931Y-75625400D01*
X154179294Y-75638633D01*
X154179294Y-75638633D01*
G37*
G36*
X118619294Y-75638633D02*
G01*
X118791695Y-75690931D01*
X118950583Y-75775858D01*
X119089849Y-75890151D01*
X119204142Y-76029417D01*
X119289069Y-76188305D01*
X119341367Y-76360706D01*
X119359025Y-76540000D01*
X119341367Y-76719294D01*
X119289069Y-76891695D01*
X119204142Y-77050583D01*
X119089849Y-77189849D01*
X118950583Y-77304142D01*
X118791695Y-77389069D01*
X118619294Y-77441367D01*
X118484931Y-77454600D01*
X118395069Y-77454600D01*
X118260706Y-77441367D01*
X118088305Y-77389069D01*
X117929417Y-77304142D01*
X117790151Y-77189849D01*
X117675858Y-77050583D01*
X117590931Y-76891695D01*
X117538633Y-76719294D01*
X117520975Y-76540000D01*
X117538633Y-76360706D01*
X117590931Y-76188305D01*
X117675858Y-76029417D01*
X117790151Y-75890151D01*
X117929417Y-75775858D01*
X118088305Y-75690931D01*
X118260706Y-75638633D01*
X118395069Y-75625400D01*
X118484931Y-75625400D01*
X118619294Y-75638633D01*
X118619294Y-75638633D01*
G37*
G36*
X163744098Y-70547033D02*
G01*
X164208350Y-70739332D01*
X164208352Y-70739333D01*
X164626168Y-71018509D01*
X164981491Y-71373832D01*
X165260667Y-71791648D01*
X165260668Y-71791650D01*
X165452967Y-72255902D01*
X165551000Y-72748747D01*
X165551000Y-73251253D01*
X165452967Y-73744098D01*
X165346969Y-74000000D01*
X165260667Y-74208352D01*
X164981491Y-74626168D01*
X164626168Y-74981491D01*
X164208352Y-75260667D01*
X164208351Y-75260668D01*
X164208350Y-75260668D01*
X163744098Y-75452967D01*
X163251253Y-75551000D01*
X162748747Y-75551000D01*
X162255902Y-75452967D01*
X161791650Y-75260668D01*
X161791649Y-75260668D01*
X161791648Y-75260667D01*
X161373832Y-74981491D01*
X161018509Y-74626168D01*
X160739333Y-74208352D01*
X160653031Y-74000000D01*
X160547033Y-73744098D01*
X160449000Y-73251253D01*
X160449000Y-72748747D01*
X160547033Y-72255902D01*
X160739332Y-71791650D01*
X160739333Y-71791648D01*
X161018509Y-71373832D01*
X161373832Y-71018509D01*
X161791648Y-70739333D01*
X161791650Y-70739332D01*
X162255902Y-70547033D01*
X162748747Y-70449000D01*
X163251253Y-70449000D01*
X163744098Y-70547033D01*
X163744098Y-70547033D01*
G37*
G36*
X109744098Y-70547033D02*
G01*
X110208350Y-70739332D01*
X110208352Y-70739333D01*
X110626168Y-71018509D01*
X110981491Y-71373832D01*
X111260667Y-71791648D01*
X111260668Y-71791650D01*
X111452967Y-72255902D01*
X111551000Y-72748747D01*
X111551000Y-73251253D01*
X111452967Y-73744098D01*
X111346969Y-74000000D01*
X111260667Y-74208352D01*
X110981491Y-74626168D01*
X110626168Y-74981491D01*
X110208352Y-75260667D01*
X110208351Y-75260668D01*
X110208350Y-75260668D01*
X109744098Y-75452967D01*
X109251253Y-75551000D01*
X108748747Y-75551000D01*
X108255902Y-75452967D01*
X107791650Y-75260668D01*
X107791649Y-75260668D01*
X107791648Y-75260667D01*
X107373832Y-74981491D01*
X107018509Y-74626168D01*
X106739333Y-74208352D01*
X106653031Y-74000000D01*
X106547033Y-73744098D01*
X106449000Y-73251253D01*
X106449000Y-72748747D01*
X106547033Y-72255902D01*
X106739332Y-71791650D01*
X106739333Y-71791648D01*
X107018509Y-71373832D01*
X107373832Y-71018509D01*
X107791648Y-70739333D01*
X107791650Y-70739332D01*
X108255902Y-70547033D01*
X108748747Y-70449000D01*
X109251253Y-70449000D01*
X109744098Y-70547033D01*
X109744098Y-70547033D01*
G37*
G36*
X131319294Y-73098633D02*
G01*
X131491695Y-73150931D01*
X131650583Y-73235858D01*
X131789849Y-73350151D01*
X131904142Y-73489417D01*
X131989069Y-73648305D01*
X132041367Y-73820706D01*
X132059025Y-74000000D01*
X132041367Y-74179294D01*
X131989069Y-74351695D01*
X131904142Y-74510583D01*
X131789849Y-74649849D01*
X131650583Y-74764142D01*
X131491695Y-74849069D01*
X131319294Y-74901367D01*
X131184931Y-74914600D01*
X131095069Y-74914600D01*
X130960706Y-74901367D01*
X130788305Y-74849069D01*
X130629417Y-74764142D01*
X130490151Y-74649849D01*
X130375858Y-74510583D01*
X130290931Y-74351695D01*
X130238633Y-74179294D01*
X130220975Y-74000000D01*
X130238633Y-73820706D01*
X130290931Y-73648305D01*
X130375858Y-73489417D01*
X130490151Y-73350151D01*
X130629417Y-73235858D01*
X130788305Y-73150931D01*
X130960706Y-73098633D01*
X131095069Y-73085400D01*
X131184931Y-73085400D01*
X131319294Y-73098633D01*
X131319294Y-73098633D01*
G37*
G36*
X144019294Y-73098633D02*
G01*
X144191695Y-73150931D01*
X144350583Y-73235858D01*
X144489849Y-73350151D01*
X144604142Y-73489417D01*
X144689069Y-73648305D01*
X144741367Y-73820706D01*
X144759025Y-74000000D01*
X144741367Y-74179294D01*
X144689069Y-74351695D01*
X144604142Y-74510583D01*
X144489849Y-74649849D01*
X144350583Y-74764142D01*
X144191695Y-74849069D01*
X144019294Y-74901367D01*
X143884931Y-74914600D01*
X143795069Y-74914600D01*
X143660706Y-74901367D01*
X143488305Y-74849069D01*
X143329417Y-74764142D01*
X143190151Y-74649849D01*
X143075858Y-74510583D01*
X142990931Y-74351695D01*
X142938633Y-74179294D01*
X142920975Y-74000000D01*
X142938633Y-73820706D01*
X142990931Y-73648305D01*
X143075858Y-73489417D01*
X143190151Y-73350151D01*
X143329417Y-73235858D01*
X143488305Y-73150931D01*
X143660706Y-73098633D01*
X143795069Y-73085400D01*
X143884931Y-73085400D01*
X144019294Y-73098633D01*
X144019294Y-73098633D01*
G37*
G36*
X128779294Y-73098633D02*
G01*
X128951695Y-73150931D01*
X129110583Y-73235858D01*
X129249849Y-73350151D01*
X129364142Y-73489417D01*
X129449069Y-73648305D01*
X129501367Y-73820706D01*
X129519025Y-74000000D01*
X129501367Y-74179294D01*
X129449069Y-74351695D01*
X129364142Y-74510583D01*
X129249849Y-74649849D01*
X129110583Y-74764142D01*
X128951695Y-74849069D01*
X128779294Y-74901367D01*
X128644931Y-74914600D01*
X128555069Y-74914600D01*
X128420706Y-74901367D01*
X128248305Y-74849069D01*
X128089417Y-74764142D01*
X127950151Y-74649849D01*
X127835858Y-74510583D01*
X127750931Y-74351695D01*
X127698633Y-74179294D01*
X127680975Y-74000000D01*
X127698633Y-73820706D01*
X127750931Y-73648305D01*
X127835858Y-73489417D01*
X127950151Y-73350151D01*
X128089417Y-73235858D01*
X128248305Y-73150931D01*
X128420706Y-73098633D01*
X128555069Y-73085400D01*
X128644931Y-73085400D01*
X128779294Y-73098633D01*
X128779294Y-73098633D01*
G37*
G36*
X146559294Y-73098633D02*
G01*
X146731695Y-73150931D01*
X146890583Y-73235858D01*
X147029849Y-73350151D01*
X147144142Y-73489417D01*
X147229069Y-73648305D01*
X147281367Y-73820706D01*
X147299025Y-74000000D01*
X147281367Y-74179294D01*
X147229069Y-74351695D01*
X147144142Y-74510583D01*
X147029849Y-74649849D01*
X146890583Y-74764142D01*
X146731695Y-74849069D01*
X146559294Y-74901367D01*
X146424931Y-74914600D01*
X146335069Y-74914600D01*
X146200706Y-74901367D01*
X146028305Y-74849069D01*
X145869417Y-74764142D01*
X145730151Y-74649849D01*
X145615858Y-74510583D01*
X145530931Y-74351695D01*
X145478633Y-74179294D01*
X145460975Y-74000000D01*
X145478633Y-73820706D01*
X145530931Y-73648305D01*
X145615858Y-73489417D01*
X145730151Y-73350151D01*
X145869417Y-73235858D01*
X146028305Y-73150931D01*
X146200706Y-73098633D01*
X146335069Y-73085400D01*
X146424931Y-73085400D01*
X146559294Y-73098633D01*
X146559294Y-73098633D01*
G37*
G36*
X126239294Y-73098633D02*
G01*
X126411695Y-73150931D01*
X126570583Y-73235858D01*
X126709849Y-73350151D01*
X126824142Y-73489417D01*
X126909069Y-73648305D01*
X126961367Y-73820706D01*
X126979025Y-74000000D01*
X126961367Y-74179294D01*
X126909069Y-74351695D01*
X126824142Y-74510583D01*
X126709849Y-74649849D01*
X126570583Y-74764142D01*
X126411695Y-74849069D01*
X126239294Y-74901367D01*
X126104931Y-74914600D01*
X126015069Y-74914600D01*
X125880706Y-74901367D01*
X125708305Y-74849069D01*
X125549417Y-74764142D01*
X125410151Y-74649849D01*
X125295858Y-74510583D01*
X125210931Y-74351695D01*
X125158633Y-74179294D01*
X125140975Y-74000000D01*
X125158633Y-73820706D01*
X125210931Y-73648305D01*
X125295858Y-73489417D01*
X125410151Y-73350151D01*
X125549417Y-73235858D01*
X125708305Y-73150931D01*
X125880706Y-73098633D01*
X126015069Y-73085400D01*
X126104931Y-73085400D01*
X126239294Y-73098633D01*
X126239294Y-73098633D01*
G37*
G36*
X149099294Y-73098633D02*
G01*
X149271695Y-73150931D01*
X149430583Y-73235858D01*
X149569849Y-73350151D01*
X149684142Y-73489417D01*
X149769069Y-73648305D01*
X149821367Y-73820706D01*
X149839025Y-74000000D01*
X149821367Y-74179294D01*
X149769069Y-74351695D01*
X149684142Y-74510583D01*
X149569849Y-74649849D01*
X149430583Y-74764142D01*
X149271695Y-74849069D01*
X149099294Y-74901367D01*
X148964931Y-74914600D01*
X148875069Y-74914600D01*
X148740706Y-74901367D01*
X148568305Y-74849069D01*
X148409417Y-74764142D01*
X148270151Y-74649849D01*
X148155858Y-74510583D01*
X148070931Y-74351695D01*
X148018633Y-74179294D01*
X148000975Y-74000000D01*
X148018633Y-73820706D01*
X148070931Y-73648305D01*
X148155858Y-73489417D01*
X148270151Y-73350151D01*
X148409417Y-73235858D01*
X148568305Y-73150931D01*
X148740706Y-73098633D01*
X148875069Y-73085400D01*
X148964931Y-73085400D01*
X149099294Y-73098633D01*
X149099294Y-73098633D01*
G37*
G36*
X123699294Y-73098633D02*
G01*
X123871695Y-73150931D01*
X124030583Y-73235858D01*
X124169849Y-73350151D01*
X124284142Y-73489417D01*
X124369069Y-73648305D01*
X124421367Y-73820706D01*
X124439025Y-74000000D01*
X124421367Y-74179294D01*
X124369069Y-74351695D01*
X124284142Y-74510583D01*
X124169849Y-74649849D01*
X124030583Y-74764142D01*
X123871695Y-74849069D01*
X123699294Y-74901367D01*
X123564931Y-74914600D01*
X123475069Y-74914600D01*
X123340706Y-74901367D01*
X123168305Y-74849069D01*
X123009417Y-74764142D01*
X122870151Y-74649849D01*
X122755858Y-74510583D01*
X122670931Y-74351695D01*
X122618633Y-74179294D01*
X122600975Y-74000000D01*
X122618633Y-73820706D01*
X122670931Y-73648305D01*
X122755858Y-73489417D01*
X122870151Y-73350151D01*
X123009417Y-73235858D01*
X123168305Y-73150931D01*
X123340706Y-73098633D01*
X123475069Y-73085400D01*
X123564931Y-73085400D01*
X123699294Y-73098633D01*
X123699294Y-73098633D01*
G37*
G36*
X151639294Y-73098633D02*
G01*
X151811695Y-73150931D01*
X151970583Y-73235858D01*
X152109849Y-73350151D01*
X152224142Y-73489417D01*
X152309069Y-73648305D01*
X152361367Y-73820706D01*
X152379025Y-74000000D01*
X152361367Y-74179294D01*
X152309069Y-74351695D01*
X152224142Y-74510583D01*
X152109849Y-74649849D01*
X151970583Y-74764142D01*
X151811695Y-74849069D01*
X151639294Y-74901367D01*
X151504931Y-74914600D01*
X151415069Y-74914600D01*
X151280706Y-74901367D01*
X151108305Y-74849069D01*
X150949417Y-74764142D01*
X150810151Y-74649849D01*
X150695858Y-74510583D01*
X150610931Y-74351695D01*
X150558633Y-74179294D01*
X150540975Y-74000000D01*
X150558633Y-73820706D01*
X150610931Y-73648305D01*
X150695858Y-73489417D01*
X150810151Y-73350151D01*
X150949417Y-73235858D01*
X151108305Y-73150931D01*
X151280706Y-73098633D01*
X151415069Y-73085400D01*
X151504931Y-73085400D01*
X151639294Y-73098633D01*
X151639294Y-73098633D01*
G37*
G36*
X121159294Y-73098633D02*
G01*
X121331695Y-73150931D01*
X121490583Y-73235858D01*
X121629849Y-73350151D01*
X121744142Y-73489417D01*
X121829069Y-73648305D01*
X121881367Y-73820706D01*
X121899025Y-74000000D01*
X121881367Y-74179294D01*
X121829069Y-74351695D01*
X121744142Y-74510583D01*
X121629849Y-74649849D01*
X121490583Y-74764142D01*
X121331695Y-74849069D01*
X121159294Y-74901367D01*
X121024931Y-74914600D01*
X120935069Y-74914600D01*
X120800706Y-74901367D01*
X120628305Y-74849069D01*
X120469417Y-74764142D01*
X120330151Y-74649849D01*
X120215858Y-74510583D01*
X120130931Y-74351695D01*
X120078633Y-74179294D01*
X120060975Y-74000000D01*
X120078633Y-73820706D01*
X120130931Y-73648305D01*
X120215858Y-73489417D01*
X120330151Y-73350151D01*
X120469417Y-73235858D01*
X120628305Y-73150931D01*
X120800706Y-73098633D01*
X120935069Y-73085400D01*
X121024931Y-73085400D01*
X121159294Y-73098633D01*
X121159294Y-73098633D01*
G37*
G36*
X154914600Y-74914600D02*
G01*
X153085400Y-74914600D01*
X153085400Y-73085400D01*
X154914600Y-73085400D01*
X154914600Y-74914600D01*
X154914600Y-74914600D01*
G37*
G36*
X136399294Y-73098633D02*
G01*
X136571695Y-73150931D01*
X136730583Y-73235858D01*
X136869849Y-73350151D01*
X136984142Y-73489417D01*
X137069069Y-73648305D01*
X137121367Y-73820706D01*
X137139025Y-74000000D01*
X137121367Y-74179294D01*
X137069069Y-74351695D01*
X136984142Y-74510583D01*
X136869849Y-74649849D01*
X136730583Y-74764142D01*
X136571695Y-74849069D01*
X136399294Y-74901367D01*
X136264931Y-74914600D01*
X136175069Y-74914600D01*
X136040706Y-74901367D01*
X135868305Y-74849069D01*
X135709417Y-74764142D01*
X135570151Y-74649849D01*
X135455858Y-74510583D01*
X135370931Y-74351695D01*
X135318633Y-74179294D01*
X135300975Y-74000000D01*
X135318633Y-73820706D01*
X135370931Y-73648305D01*
X135455858Y-73489417D01*
X135570151Y-73350151D01*
X135709417Y-73235858D01*
X135868305Y-73150931D01*
X136040706Y-73098633D01*
X136175069Y-73085400D01*
X136264931Y-73085400D01*
X136399294Y-73098633D01*
X136399294Y-73098633D01*
G37*
G36*
X141479294Y-73098633D02*
G01*
X141651695Y-73150931D01*
X141810583Y-73235858D01*
X141949849Y-73350151D01*
X142064142Y-73489417D01*
X142149069Y-73648305D01*
X142201367Y-73820706D01*
X142219025Y-74000000D01*
X142201367Y-74179294D01*
X142149069Y-74351695D01*
X142064142Y-74510583D01*
X141949849Y-74649849D01*
X141810583Y-74764142D01*
X141651695Y-74849069D01*
X141479294Y-74901367D01*
X141344931Y-74914600D01*
X141255069Y-74914600D01*
X141120706Y-74901367D01*
X140948305Y-74849069D01*
X140789417Y-74764142D01*
X140650151Y-74649849D01*
X140535858Y-74510583D01*
X140450931Y-74351695D01*
X140398633Y-74179294D01*
X140380975Y-74000000D01*
X140398633Y-73820706D01*
X140450931Y-73648305D01*
X140535858Y-73489417D01*
X140650151Y-73350151D01*
X140789417Y-73235858D01*
X140948305Y-73150931D01*
X141120706Y-73098633D01*
X141255069Y-73085400D01*
X141344931Y-73085400D01*
X141479294Y-73098633D01*
X141479294Y-73098633D01*
G37*
G36*
X118619294Y-73098633D02*
G01*
X118791695Y-73150931D01*
X118950583Y-73235858D01*
X119089849Y-73350151D01*
X119204142Y-73489417D01*
X119289069Y-73648305D01*
X119341367Y-73820706D01*
X119359025Y-74000000D01*
X119341367Y-74179294D01*
X119289069Y-74351695D01*
X119204142Y-74510583D01*
X119089849Y-74649849D01*
X118950583Y-74764142D01*
X118791695Y-74849069D01*
X118619294Y-74901367D01*
X118484931Y-74914600D01*
X118395069Y-74914600D01*
X118260706Y-74901367D01*
X118088305Y-74849069D01*
X117929417Y-74764142D01*
X117790151Y-74649849D01*
X117675858Y-74510583D01*
X117590931Y-74351695D01*
X117538633Y-74179294D01*
X117520975Y-74000000D01*
X117538633Y-73820706D01*
X117590931Y-73648305D01*
X117675858Y-73489417D01*
X117790151Y-73350151D01*
X117929417Y-73235858D01*
X118088305Y-73150931D01*
X118260706Y-73098633D01*
X118395069Y-73085400D01*
X118484931Y-73085400D01*
X118619294Y-73098633D01*
X118619294Y-73098633D01*
G37*
G36*
X133859294Y-73098633D02*
G01*
X134031695Y-73150931D01*
X134190583Y-73235858D01*
X134329849Y-73350151D01*
X134444142Y-73489417D01*
X134529069Y-73648305D01*
X134581367Y-73820706D01*
X134599025Y-74000000D01*
X134581367Y-74179294D01*
X134529069Y-74351695D01*
X134444142Y-74510583D01*
X134329849Y-74649849D01*
X134190583Y-74764142D01*
X134031695Y-74849069D01*
X133859294Y-74901367D01*
X133724931Y-74914600D01*
X133635069Y-74914600D01*
X133500706Y-74901367D01*
X133328305Y-74849069D01*
X133169417Y-74764142D01*
X133030151Y-74649849D01*
X132915858Y-74510583D01*
X132830931Y-74351695D01*
X132778633Y-74179294D01*
X132760975Y-74000000D01*
X132778633Y-73820706D01*
X132830931Y-73648305D01*
X132915858Y-73489417D01*
X133030151Y-73350151D01*
X133169417Y-73235858D01*
X133328305Y-73150931D01*
X133500706Y-73098633D01*
X133635069Y-73085400D01*
X133724931Y-73085400D01*
X133859294Y-73098633D01*
X133859294Y-73098633D01*
G37*
G36*
X138939294Y-73098633D02*
G01*
X139111695Y-73150931D01*
X139270583Y-73235858D01*
X139409849Y-73350151D01*
X139524142Y-73489417D01*
X139609069Y-73648305D01*
X139661367Y-73820706D01*
X139679025Y-74000000D01*
X139661367Y-74179294D01*
X139609069Y-74351695D01*
X139524142Y-74510583D01*
X139409849Y-74649849D01*
X139270583Y-74764142D01*
X139111695Y-74849069D01*
X138939294Y-74901367D01*
X138804931Y-74914600D01*
X138715069Y-74914600D01*
X138580706Y-74901367D01*
X138408305Y-74849069D01*
X138249417Y-74764142D01*
X138110151Y-74649849D01*
X137995858Y-74510583D01*
X137910931Y-74351695D01*
X137858633Y-74179294D01*
X137840975Y-74000000D01*
X137858633Y-73820706D01*
X137910931Y-73648305D01*
X137995858Y-73489417D01*
X138110151Y-73350151D01*
X138249417Y-73235858D01*
X138408305Y-73150931D01*
X138580706Y-73098633D01*
X138715069Y-73085400D01*
X138804931Y-73085400D01*
X138939294Y-73098633D01*
X138939294Y-73098633D01*
G37*
M02*
