G04 #@! TF.GenerationSoftware,KiCad,Pcbnew,(5.1.4-0-10_14)*
G04 #@! TF.CreationDate,2019-09-29T00:11:58+03:00*
G04 #@! TF.ProjectId,RibbonCable_MB_BreakdownBoard,52696262-6f6e-4436-9162-6c655f4d425f,rev?*
G04 #@! TF.SameCoordinates,Original*
G04 #@! TF.FileFunction,Copper,L2,Bot*
G04 #@! TF.FilePolarity,Positive*
%FSLAX46Y46*%
G04 Gerber Fmt 4.6, Leading zero omitted, Abs format (unit mm)*
G04 Created by KiCad (PCBNEW (5.1.4-0-10_14)) date 2019-09-29 00:11:58*
%MOMM*%
%LPD*%
G04 APERTURE LIST*
%ADD10C,5.000000*%
%ADD11R,1.700000X1.700000*%
%ADD12O,1.700000X2.000000*%
%ADD13C,0.150000*%
%ADD14C,1.700000*%
%ADD15O,1.727200X1.727200*%
%ADD16R,1.727200X1.727200*%
%ADD17O,1.700000X1.950000*%
%ADD18C,2.700000*%
%ADD19O,1.700000X1.700000*%
%ADD20C,0.300000*%
%ADD21C,2.000000*%
%ADD22C,0.254000*%
G04 APERTURE END LIST*
D10*
X163000000Y-73000000D03*
X163000000Y-102000000D03*
X109000000Y-102000000D03*
X109000000Y-73000000D03*
D11*
X163150000Y-79000000D03*
D12*
X159500000Y-85000000D03*
D13*
G36*
X162624504Y-84001204D02*
G01*
X162648773Y-84004804D01*
X162672571Y-84010765D01*
X162695671Y-84019030D01*
X162717849Y-84029520D01*
X162738893Y-84042133D01*
X162758598Y-84056747D01*
X162776777Y-84073223D01*
X162793253Y-84091402D01*
X162807867Y-84111107D01*
X162820480Y-84132151D01*
X162830970Y-84154329D01*
X162839235Y-84177429D01*
X162845196Y-84201227D01*
X162848796Y-84225496D01*
X162850000Y-84250000D01*
X162850000Y-85750000D01*
X162848796Y-85774504D01*
X162845196Y-85798773D01*
X162839235Y-85822571D01*
X162830970Y-85845671D01*
X162820480Y-85867849D01*
X162807867Y-85888893D01*
X162793253Y-85908598D01*
X162776777Y-85926777D01*
X162758598Y-85943253D01*
X162738893Y-85957867D01*
X162717849Y-85970480D01*
X162695671Y-85980970D01*
X162672571Y-85989235D01*
X162648773Y-85995196D01*
X162624504Y-85998796D01*
X162600000Y-86000000D01*
X161400000Y-86000000D01*
X161375496Y-85998796D01*
X161351227Y-85995196D01*
X161327429Y-85989235D01*
X161304329Y-85980970D01*
X161282151Y-85970480D01*
X161261107Y-85957867D01*
X161241402Y-85943253D01*
X161223223Y-85926777D01*
X161206747Y-85908598D01*
X161192133Y-85888893D01*
X161179520Y-85867849D01*
X161169030Y-85845671D01*
X161160765Y-85822571D01*
X161154804Y-85798773D01*
X161151204Y-85774504D01*
X161150000Y-85750000D01*
X161150000Y-84250000D01*
X161151204Y-84225496D01*
X161154804Y-84201227D01*
X161160765Y-84177429D01*
X161169030Y-84154329D01*
X161179520Y-84132151D01*
X161192133Y-84111107D01*
X161206747Y-84091402D01*
X161223223Y-84073223D01*
X161241402Y-84056747D01*
X161261107Y-84042133D01*
X161282151Y-84029520D01*
X161304329Y-84019030D01*
X161327429Y-84010765D01*
X161351227Y-84004804D01*
X161375496Y-84001204D01*
X161400000Y-84000000D01*
X162600000Y-84000000D01*
X162624504Y-84001204D01*
X162624504Y-84001204D01*
G37*
D14*
X162000000Y-85000000D03*
D12*
X150500000Y-93000000D03*
D13*
G36*
X153624504Y-92001204D02*
G01*
X153648773Y-92004804D01*
X153672571Y-92010765D01*
X153695671Y-92019030D01*
X153717849Y-92029520D01*
X153738893Y-92042133D01*
X153758598Y-92056747D01*
X153776777Y-92073223D01*
X153793253Y-92091402D01*
X153807867Y-92111107D01*
X153820480Y-92132151D01*
X153830970Y-92154329D01*
X153839235Y-92177429D01*
X153845196Y-92201227D01*
X153848796Y-92225496D01*
X153850000Y-92250000D01*
X153850000Y-93750000D01*
X153848796Y-93774504D01*
X153845196Y-93798773D01*
X153839235Y-93822571D01*
X153830970Y-93845671D01*
X153820480Y-93867849D01*
X153807867Y-93888893D01*
X153793253Y-93908598D01*
X153776777Y-93926777D01*
X153758598Y-93943253D01*
X153738893Y-93957867D01*
X153717849Y-93970480D01*
X153695671Y-93980970D01*
X153672571Y-93989235D01*
X153648773Y-93995196D01*
X153624504Y-93998796D01*
X153600000Y-94000000D01*
X152400000Y-94000000D01*
X152375496Y-93998796D01*
X152351227Y-93995196D01*
X152327429Y-93989235D01*
X152304329Y-93980970D01*
X152282151Y-93970480D01*
X152261107Y-93957867D01*
X152241402Y-93943253D01*
X152223223Y-93926777D01*
X152206747Y-93908598D01*
X152192133Y-93888893D01*
X152179520Y-93867849D01*
X152169030Y-93845671D01*
X152160765Y-93822571D01*
X152154804Y-93798773D01*
X152151204Y-93774504D01*
X152150000Y-93750000D01*
X152150000Y-92250000D01*
X152151204Y-92225496D01*
X152154804Y-92201227D01*
X152160765Y-92177429D01*
X152169030Y-92154329D01*
X152179520Y-92132151D01*
X152192133Y-92111107D01*
X152206747Y-92091402D01*
X152223223Y-92073223D01*
X152241402Y-92056747D01*
X152261107Y-92042133D01*
X152282151Y-92029520D01*
X152304329Y-92019030D01*
X152327429Y-92010765D01*
X152351227Y-92004804D01*
X152375496Y-92001204D01*
X152400000Y-92000000D01*
X153600000Y-92000000D01*
X153624504Y-92001204D01*
X153624504Y-92001204D01*
G37*
D14*
X153000000Y-93000000D03*
D12*
X141500000Y-93000000D03*
D13*
G36*
X144624504Y-92001204D02*
G01*
X144648773Y-92004804D01*
X144672571Y-92010765D01*
X144695671Y-92019030D01*
X144717849Y-92029520D01*
X144738893Y-92042133D01*
X144758598Y-92056747D01*
X144776777Y-92073223D01*
X144793253Y-92091402D01*
X144807867Y-92111107D01*
X144820480Y-92132151D01*
X144830970Y-92154329D01*
X144839235Y-92177429D01*
X144845196Y-92201227D01*
X144848796Y-92225496D01*
X144850000Y-92250000D01*
X144850000Y-93750000D01*
X144848796Y-93774504D01*
X144845196Y-93798773D01*
X144839235Y-93822571D01*
X144830970Y-93845671D01*
X144820480Y-93867849D01*
X144807867Y-93888893D01*
X144793253Y-93908598D01*
X144776777Y-93926777D01*
X144758598Y-93943253D01*
X144738893Y-93957867D01*
X144717849Y-93970480D01*
X144695671Y-93980970D01*
X144672571Y-93989235D01*
X144648773Y-93995196D01*
X144624504Y-93998796D01*
X144600000Y-94000000D01*
X143400000Y-94000000D01*
X143375496Y-93998796D01*
X143351227Y-93995196D01*
X143327429Y-93989235D01*
X143304329Y-93980970D01*
X143282151Y-93970480D01*
X143261107Y-93957867D01*
X143241402Y-93943253D01*
X143223223Y-93926777D01*
X143206747Y-93908598D01*
X143192133Y-93888893D01*
X143179520Y-93867849D01*
X143169030Y-93845671D01*
X143160765Y-93822571D01*
X143154804Y-93798773D01*
X143151204Y-93774504D01*
X143150000Y-93750000D01*
X143150000Y-92250000D01*
X143151204Y-92225496D01*
X143154804Y-92201227D01*
X143160765Y-92177429D01*
X143169030Y-92154329D01*
X143179520Y-92132151D01*
X143192133Y-92111107D01*
X143206747Y-92091402D01*
X143223223Y-92073223D01*
X143241402Y-92056747D01*
X143261107Y-92042133D01*
X143282151Y-92029520D01*
X143304329Y-92019030D01*
X143327429Y-92010765D01*
X143351227Y-92004804D01*
X143375496Y-92001204D01*
X143400000Y-92000000D01*
X144600000Y-92000000D01*
X144624504Y-92001204D01*
X144624504Y-92001204D01*
G37*
D14*
X144000000Y-93000000D03*
D12*
X150500000Y-101000000D03*
D13*
G36*
X153624504Y-100001204D02*
G01*
X153648773Y-100004804D01*
X153672571Y-100010765D01*
X153695671Y-100019030D01*
X153717849Y-100029520D01*
X153738893Y-100042133D01*
X153758598Y-100056747D01*
X153776777Y-100073223D01*
X153793253Y-100091402D01*
X153807867Y-100111107D01*
X153820480Y-100132151D01*
X153830970Y-100154329D01*
X153839235Y-100177429D01*
X153845196Y-100201227D01*
X153848796Y-100225496D01*
X153850000Y-100250000D01*
X153850000Y-101750000D01*
X153848796Y-101774504D01*
X153845196Y-101798773D01*
X153839235Y-101822571D01*
X153830970Y-101845671D01*
X153820480Y-101867849D01*
X153807867Y-101888893D01*
X153793253Y-101908598D01*
X153776777Y-101926777D01*
X153758598Y-101943253D01*
X153738893Y-101957867D01*
X153717849Y-101970480D01*
X153695671Y-101980970D01*
X153672571Y-101989235D01*
X153648773Y-101995196D01*
X153624504Y-101998796D01*
X153600000Y-102000000D01*
X152400000Y-102000000D01*
X152375496Y-101998796D01*
X152351227Y-101995196D01*
X152327429Y-101989235D01*
X152304329Y-101980970D01*
X152282151Y-101970480D01*
X152261107Y-101957867D01*
X152241402Y-101943253D01*
X152223223Y-101926777D01*
X152206747Y-101908598D01*
X152192133Y-101888893D01*
X152179520Y-101867849D01*
X152169030Y-101845671D01*
X152160765Y-101822571D01*
X152154804Y-101798773D01*
X152151204Y-101774504D01*
X152150000Y-101750000D01*
X152150000Y-100250000D01*
X152151204Y-100225496D01*
X152154804Y-100201227D01*
X152160765Y-100177429D01*
X152169030Y-100154329D01*
X152179520Y-100132151D01*
X152192133Y-100111107D01*
X152206747Y-100091402D01*
X152223223Y-100073223D01*
X152241402Y-100056747D01*
X152261107Y-100042133D01*
X152282151Y-100029520D01*
X152304329Y-100019030D01*
X152327429Y-100010765D01*
X152351227Y-100004804D01*
X152375496Y-100001204D01*
X152400000Y-100000000D01*
X153600000Y-100000000D01*
X153624504Y-100001204D01*
X153624504Y-100001204D01*
G37*
D14*
X153000000Y-101000000D03*
D15*
X118440000Y-76540000D03*
X118440000Y-74000000D03*
X120980000Y-76540000D03*
X120980000Y-74000000D03*
X123520000Y-76540000D03*
X123520000Y-74000000D03*
X126060000Y-76540000D03*
X126060000Y-74000000D03*
X128600000Y-76540000D03*
X128600000Y-74000000D03*
X131140000Y-76540000D03*
X131140000Y-74000000D03*
X133680000Y-76540000D03*
X133680000Y-74000000D03*
X136220000Y-76540000D03*
X136220000Y-74000000D03*
X138760000Y-76540000D03*
X138760000Y-74000000D03*
X141300000Y-76540000D03*
X141300000Y-74000000D03*
X143840000Y-76540000D03*
X143840000Y-74000000D03*
X146380000Y-76540000D03*
X146380000Y-74000000D03*
X148920000Y-76540000D03*
X148920000Y-74000000D03*
X151460000Y-76540000D03*
X151460000Y-74000000D03*
X154000000Y-76540000D03*
D16*
X154000000Y-74000000D03*
D12*
X159500000Y-93000000D03*
D13*
G36*
X162624504Y-92001204D02*
G01*
X162648773Y-92004804D01*
X162672571Y-92010765D01*
X162695671Y-92019030D01*
X162717849Y-92029520D01*
X162738893Y-92042133D01*
X162758598Y-92056747D01*
X162776777Y-92073223D01*
X162793253Y-92091402D01*
X162807867Y-92111107D01*
X162820480Y-92132151D01*
X162830970Y-92154329D01*
X162839235Y-92177429D01*
X162845196Y-92201227D01*
X162848796Y-92225496D01*
X162850000Y-92250000D01*
X162850000Y-93750000D01*
X162848796Y-93774504D01*
X162845196Y-93798773D01*
X162839235Y-93822571D01*
X162830970Y-93845671D01*
X162820480Y-93867849D01*
X162807867Y-93888893D01*
X162793253Y-93908598D01*
X162776777Y-93926777D01*
X162758598Y-93943253D01*
X162738893Y-93957867D01*
X162717849Y-93970480D01*
X162695671Y-93980970D01*
X162672571Y-93989235D01*
X162648773Y-93995196D01*
X162624504Y-93998796D01*
X162600000Y-94000000D01*
X161400000Y-94000000D01*
X161375496Y-93998796D01*
X161351227Y-93995196D01*
X161327429Y-93989235D01*
X161304329Y-93980970D01*
X161282151Y-93970480D01*
X161261107Y-93957867D01*
X161241402Y-93943253D01*
X161223223Y-93926777D01*
X161206747Y-93908598D01*
X161192133Y-93888893D01*
X161179520Y-93867849D01*
X161169030Y-93845671D01*
X161160765Y-93822571D01*
X161154804Y-93798773D01*
X161151204Y-93774504D01*
X161150000Y-93750000D01*
X161150000Y-92250000D01*
X161151204Y-92225496D01*
X161154804Y-92201227D01*
X161160765Y-92177429D01*
X161169030Y-92154329D01*
X161179520Y-92132151D01*
X161192133Y-92111107D01*
X161206747Y-92091402D01*
X161223223Y-92073223D01*
X161241402Y-92056747D01*
X161261107Y-92042133D01*
X161282151Y-92029520D01*
X161304329Y-92019030D01*
X161327429Y-92010765D01*
X161351227Y-92004804D01*
X161375496Y-92001204D01*
X161400000Y-92000000D01*
X162600000Y-92000000D01*
X162624504Y-92001204D01*
X162624504Y-92001204D01*
G37*
D14*
X162000000Y-93000000D03*
D17*
X119500000Y-85000000D03*
X122000000Y-85000000D03*
X124500000Y-85000000D03*
D13*
G36*
X127624504Y-84026204D02*
G01*
X127648773Y-84029804D01*
X127672571Y-84035765D01*
X127695671Y-84044030D01*
X127717849Y-84054520D01*
X127738893Y-84067133D01*
X127758598Y-84081747D01*
X127776777Y-84098223D01*
X127793253Y-84116402D01*
X127807867Y-84136107D01*
X127820480Y-84157151D01*
X127830970Y-84179329D01*
X127839235Y-84202429D01*
X127845196Y-84226227D01*
X127848796Y-84250496D01*
X127850000Y-84275000D01*
X127850000Y-85725000D01*
X127848796Y-85749504D01*
X127845196Y-85773773D01*
X127839235Y-85797571D01*
X127830970Y-85820671D01*
X127820480Y-85842849D01*
X127807867Y-85863893D01*
X127793253Y-85883598D01*
X127776777Y-85901777D01*
X127758598Y-85918253D01*
X127738893Y-85932867D01*
X127717849Y-85945480D01*
X127695671Y-85955970D01*
X127672571Y-85964235D01*
X127648773Y-85970196D01*
X127624504Y-85973796D01*
X127600000Y-85975000D01*
X126400000Y-85975000D01*
X126375496Y-85973796D01*
X126351227Y-85970196D01*
X126327429Y-85964235D01*
X126304329Y-85955970D01*
X126282151Y-85945480D01*
X126261107Y-85932867D01*
X126241402Y-85918253D01*
X126223223Y-85901777D01*
X126206747Y-85883598D01*
X126192133Y-85863893D01*
X126179520Y-85842849D01*
X126169030Y-85820671D01*
X126160765Y-85797571D01*
X126154804Y-85773773D01*
X126151204Y-85749504D01*
X126150000Y-85725000D01*
X126150000Y-84275000D01*
X126151204Y-84250496D01*
X126154804Y-84226227D01*
X126160765Y-84202429D01*
X126169030Y-84179329D01*
X126179520Y-84157151D01*
X126192133Y-84136107D01*
X126206747Y-84116402D01*
X126223223Y-84098223D01*
X126241402Y-84081747D01*
X126261107Y-84067133D01*
X126282151Y-84054520D01*
X126304329Y-84044030D01*
X126327429Y-84035765D01*
X126351227Y-84029804D01*
X126375496Y-84026204D01*
X126400000Y-84025000D01*
X127600000Y-84025000D01*
X127624504Y-84026204D01*
X127624504Y-84026204D01*
G37*
D14*
X127000000Y-85000000D03*
D17*
X119500000Y-93000000D03*
X122000000Y-93000000D03*
X124500000Y-93000000D03*
D13*
G36*
X127624504Y-92026204D02*
G01*
X127648773Y-92029804D01*
X127672571Y-92035765D01*
X127695671Y-92044030D01*
X127717849Y-92054520D01*
X127738893Y-92067133D01*
X127758598Y-92081747D01*
X127776777Y-92098223D01*
X127793253Y-92116402D01*
X127807867Y-92136107D01*
X127820480Y-92157151D01*
X127830970Y-92179329D01*
X127839235Y-92202429D01*
X127845196Y-92226227D01*
X127848796Y-92250496D01*
X127850000Y-92275000D01*
X127850000Y-93725000D01*
X127848796Y-93749504D01*
X127845196Y-93773773D01*
X127839235Y-93797571D01*
X127830970Y-93820671D01*
X127820480Y-93842849D01*
X127807867Y-93863893D01*
X127793253Y-93883598D01*
X127776777Y-93901777D01*
X127758598Y-93918253D01*
X127738893Y-93932867D01*
X127717849Y-93945480D01*
X127695671Y-93955970D01*
X127672571Y-93964235D01*
X127648773Y-93970196D01*
X127624504Y-93973796D01*
X127600000Y-93975000D01*
X126400000Y-93975000D01*
X126375496Y-93973796D01*
X126351227Y-93970196D01*
X126327429Y-93964235D01*
X126304329Y-93955970D01*
X126282151Y-93945480D01*
X126261107Y-93932867D01*
X126241402Y-93918253D01*
X126223223Y-93901777D01*
X126206747Y-93883598D01*
X126192133Y-93863893D01*
X126179520Y-93842849D01*
X126169030Y-93820671D01*
X126160765Y-93797571D01*
X126154804Y-93773773D01*
X126151204Y-93749504D01*
X126150000Y-93725000D01*
X126150000Y-92275000D01*
X126151204Y-92250496D01*
X126154804Y-92226227D01*
X126160765Y-92202429D01*
X126169030Y-92179329D01*
X126179520Y-92157151D01*
X126192133Y-92136107D01*
X126206747Y-92116402D01*
X126223223Y-92098223D01*
X126241402Y-92081747D01*
X126261107Y-92067133D01*
X126282151Y-92054520D01*
X126304329Y-92044030D01*
X126327429Y-92035765D01*
X126351227Y-92029804D01*
X126375496Y-92026204D01*
X126400000Y-92025000D01*
X127600000Y-92025000D01*
X127624504Y-92026204D01*
X127624504Y-92026204D01*
G37*
D14*
X127000000Y-93000000D03*
D18*
X109040000Y-86400000D03*
D13*
G36*
X114124503Y-85051204D02*
G01*
X114148772Y-85054804D01*
X114172570Y-85060765D01*
X114195670Y-85069030D01*
X114217849Y-85079520D01*
X114238892Y-85092133D01*
X114258598Y-85106748D01*
X114276776Y-85123224D01*
X114293252Y-85141402D01*
X114307867Y-85161108D01*
X114320480Y-85182151D01*
X114330970Y-85204330D01*
X114339235Y-85227430D01*
X114345196Y-85251228D01*
X114348796Y-85275497D01*
X114350000Y-85300001D01*
X114350000Y-87499999D01*
X114348796Y-87524503D01*
X114345196Y-87548772D01*
X114339235Y-87572570D01*
X114330970Y-87595670D01*
X114320480Y-87617849D01*
X114307867Y-87638892D01*
X114293252Y-87658598D01*
X114276776Y-87676776D01*
X114258598Y-87693252D01*
X114238892Y-87707867D01*
X114217849Y-87720480D01*
X114195670Y-87730970D01*
X114172570Y-87739235D01*
X114148772Y-87745196D01*
X114124503Y-87748796D01*
X114099999Y-87750000D01*
X111900001Y-87750000D01*
X111875497Y-87748796D01*
X111851228Y-87745196D01*
X111827430Y-87739235D01*
X111804330Y-87730970D01*
X111782151Y-87720480D01*
X111761108Y-87707867D01*
X111741402Y-87693252D01*
X111723224Y-87676776D01*
X111706748Y-87658598D01*
X111692133Y-87638892D01*
X111679520Y-87617849D01*
X111669030Y-87595670D01*
X111660765Y-87572570D01*
X111654804Y-87548772D01*
X111651204Y-87524503D01*
X111650000Y-87499999D01*
X111650000Y-85300001D01*
X111651204Y-85275497D01*
X111654804Y-85251228D01*
X111660765Y-85227430D01*
X111669030Y-85204330D01*
X111679520Y-85182151D01*
X111692133Y-85161108D01*
X111706748Y-85141402D01*
X111723224Y-85123224D01*
X111741402Y-85106748D01*
X111761108Y-85092133D01*
X111782151Y-85079520D01*
X111804330Y-85069030D01*
X111827430Y-85060765D01*
X111851228Y-85054804D01*
X111875497Y-85051204D01*
X111900001Y-85050000D01*
X114099999Y-85050000D01*
X114124503Y-85051204D01*
X114124503Y-85051204D01*
G37*
D18*
X113000000Y-86400000D03*
D12*
X150500000Y-85000000D03*
D13*
G36*
X153624504Y-84001204D02*
G01*
X153648773Y-84004804D01*
X153672571Y-84010765D01*
X153695671Y-84019030D01*
X153717849Y-84029520D01*
X153738893Y-84042133D01*
X153758598Y-84056747D01*
X153776777Y-84073223D01*
X153793253Y-84091402D01*
X153807867Y-84111107D01*
X153820480Y-84132151D01*
X153830970Y-84154329D01*
X153839235Y-84177429D01*
X153845196Y-84201227D01*
X153848796Y-84225496D01*
X153850000Y-84250000D01*
X153850000Y-85750000D01*
X153848796Y-85774504D01*
X153845196Y-85798773D01*
X153839235Y-85822571D01*
X153830970Y-85845671D01*
X153820480Y-85867849D01*
X153807867Y-85888893D01*
X153793253Y-85908598D01*
X153776777Y-85926777D01*
X153758598Y-85943253D01*
X153738893Y-85957867D01*
X153717849Y-85970480D01*
X153695671Y-85980970D01*
X153672571Y-85989235D01*
X153648773Y-85995196D01*
X153624504Y-85998796D01*
X153600000Y-86000000D01*
X152400000Y-86000000D01*
X152375496Y-85998796D01*
X152351227Y-85995196D01*
X152327429Y-85989235D01*
X152304329Y-85980970D01*
X152282151Y-85970480D01*
X152261107Y-85957867D01*
X152241402Y-85943253D01*
X152223223Y-85926777D01*
X152206747Y-85908598D01*
X152192133Y-85888893D01*
X152179520Y-85867849D01*
X152169030Y-85845671D01*
X152160765Y-85822571D01*
X152154804Y-85798773D01*
X152151204Y-85774504D01*
X152150000Y-85750000D01*
X152150000Y-84250000D01*
X152151204Y-84225496D01*
X152154804Y-84201227D01*
X152160765Y-84177429D01*
X152169030Y-84154329D01*
X152179520Y-84132151D01*
X152192133Y-84111107D01*
X152206747Y-84091402D01*
X152223223Y-84073223D01*
X152241402Y-84056747D01*
X152261107Y-84042133D01*
X152282151Y-84029520D01*
X152304329Y-84019030D01*
X152327429Y-84010765D01*
X152351227Y-84004804D01*
X152375496Y-84001204D01*
X152400000Y-84000000D01*
X153600000Y-84000000D01*
X153624504Y-84001204D01*
X153624504Y-84001204D01*
G37*
D14*
X153000000Y-85000000D03*
D12*
X141500000Y-85000000D03*
D13*
G36*
X144624504Y-84001204D02*
G01*
X144648773Y-84004804D01*
X144672571Y-84010765D01*
X144695671Y-84019030D01*
X144717849Y-84029520D01*
X144738893Y-84042133D01*
X144758598Y-84056747D01*
X144776777Y-84073223D01*
X144793253Y-84091402D01*
X144807867Y-84111107D01*
X144820480Y-84132151D01*
X144830970Y-84154329D01*
X144839235Y-84177429D01*
X144845196Y-84201227D01*
X144848796Y-84225496D01*
X144850000Y-84250000D01*
X144850000Y-85750000D01*
X144848796Y-85774504D01*
X144845196Y-85798773D01*
X144839235Y-85822571D01*
X144830970Y-85845671D01*
X144820480Y-85867849D01*
X144807867Y-85888893D01*
X144793253Y-85908598D01*
X144776777Y-85926777D01*
X144758598Y-85943253D01*
X144738893Y-85957867D01*
X144717849Y-85970480D01*
X144695671Y-85980970D01*
X144672571Y-85989235D01*
X144648773Y-85995196D01*
X144624504Y-85998796D01*
X144600000Y-86000000D01*
X143400000Y-86000000D01*
X143375496Y-85998796D01*
X143351227Y-85995196D01*
X143327429Y-85989235D01*
X143304329Y-85980970D01*
X143282151Y-85970480D01*
X143261107Y-85957867D01*
X143241402Y-85943253D01*
X143223223Y-85926777D01*
X143206747Y-85908598D01*
X143192133Y-85888893D01*
X143179520Y-85867849D01*
X143169030Y-85845671D01*
X143160765Y-85822571D01*
X143154804Y-85798773D01*
X143151204Y-85774504D01*
X143150000Y-85750000D01*
X143150000Y-84250000D01*
X143151204Y-84225496D01*
X143154804Y-84201227D01*
X143160765Y-84177429D01*
X143169030Y-84154329D01*
X143179520Y-84132151D01*
X143192133Y-84111107D01*
X143206747Y-84091402D01*
X143223223Y-84073223D01*
X143241402Y-84056747D01*
X143261107Y-84042133D01*
X143282151Y-84029520D01*
X143304329Y-84019030D01*
X143327429Y-84010765D01*
X143351227Y-84004804D01*
X143375496Y-84001204D01*
X143400000Y-84000000D01*
X144600000Y-84000000D01*
X144624504Y-84001204D01*
X144624504Y-84001204D01*
G37*
D14*
X144000000Y-85000000D03*
D19*
X135000000Y-82880000D03*
X135000000Y-85420000D03*
X135000000Y-87960000D03*
D14*
X135000000Y-90500000D03*
D20*
X135849999Y-82030001D02*
X135000000Y-82880000D01*
X137546399Y-80333601D02*
X135849999Y-82030001D01*
X137546399Y-75213601D02*
X137546399Y-80333601D01*
X138760000Y-74000000D02*
X137546399Y-75213601D01*
X138760000Y-81660000D02*
X135000000Y-85420000D01*
X138760000Y-76540000D02*
X138760000Y-81660000D01*
X151649990Y-83649990D02*
X152094447Y-84094447D01*
X148409990Y-83649990D02*
X151649990Y-83649990D01*
X152094447Y-84094447D02*
X153000000Y-85000000D01*
X141300000Y-76540000D02*
X148409990Y-83649990D01*
X161094447Y-84094447D02*
X162000000Y-85000000D01*
X162000000Y-85000000D02*
X162000000Y-93000000D01*
X153905553Y-93905553D02*
X153000000Y-93000000D01*
X155000000Y-95000000D02*
X153905553Y-93905553D01*
X160000000Y-95000000D02*
X155000000Y-95000000D01*
X162000000Y-93000000D02*
X160000000Y-95000000D01*
X153000000Y-93000000D02*
X153000000Y-101000000D01*
X153000000Y-85000000D02*
X153000000Y-93000000D01*
D21*
X120980000Y-76540000D02*
X118440000Y-76540000D01*
X118440000Y-74000000D02*
X118440000Y-76540000D01*
X109040000Y-85940000D02*
X109040000Y-86400000D01*
X118440000Y-76540000D02*
X109040000Y-85940000D01*
X120980000Y-74000000D02*
X123520000Y-74000000D01*
X123520000Y-74000000D02*
X123520000Y-76540000D01*
X114881314Y-86400000D02*
X114450000Y-86400000D01*
X114450000Y-86400000D02*
X113000000Y-86400000D01*
X123520000Y-77761314D02*
X114881314Y-86400000D01*
X123520000Y-76540000D02*
X123520000Y-77761314D01*
D20*
X133680000Y-74000000D02*
X132466399Y-75213601D01*
X132466399Y-81826479D02*
X126292878Y-88000000D01*
X126292878Y-88000000D02*
X124375000Y-88000000D01*
X132466399Y-75213601D02*
X132466399Y-81826479D01*
X124375000Y-88000000D02*
X119500000Y-92875000D01*
X119500000Y-92875000D02*
X119500000Y-93000000D01*
X133680000Y-77761314D02*
X133000000Y-78441314D01*
X133680000Y-76540000D02*
X133680000Y-77761314D01*
X133000000Y-78441314D02*
X133000000Y-82000000D01*
X133000000Y-82000000D02*
X122000000Y-93000000D01*
X127386399Y-75213601D02*
X127386399Y-80613601D01*
X128600000Y-74000000D02*
X127386399Y-75213601D01*
X127386399Y-80613601D02*
X126000000Y-82000000D01*
X119500000Y-84875000D02*
X119500000Y-85000000D01*
X122375000Y-82000000D02*
X119500000Y-84875000D01*
X126000000Y-82000000D02*
X122375000Y-82000000D01*
X122000000Y-83725000D02*
X122000000Y-85000000D01*
X122725000Y-83000000D02*
X122000000Y-83725000D01*
X126000000Y-83000000D02*
X122725000Y-83000000D01*
X128000000Y-81000000D02*
X126000000Y-83000000D01*
X128600000Y-77761314D02*
X128000000Y-78361314D01*
X128000000Y-78361314D02*
X128000000Y-81000000D01*
X128600000Y-76540000D02*
X128600000Y-77761314D01*
X159500000Y-92850000D02*
X159500000Y-93000000D01*
X156000000Y-89350000D02*
X159500000Y-92850000D01*
X156000000Y-83620000D02*
X156000000Y-89350000D01*
X148920000Y-76540000D02*
X156000000Y-83620000D01*
X139973601Y-75326399D02*
X139973601Y-87973601D01*
X141300000Y-74000000D02*
X139973601Y-75326399D01*
X139973601Y-87973601D02*
X141000000Y-89000000D01*
X149350000Y-93000000D02*
X150500000Y-93000000D01*
X145350000Y-89000000D02*
X149350000Y-93000000D01*
X141000000Y-89000000D02*
X145350000Y-89000000D01*
X159500000Y-83700000D02*
X159500000Y-85000000D01*
X155163600Y-74000000D02*
X159500000Y-78336400D01*
X159500000Y-78336400D02*
X159500000Y-83700000D01*
X154000000Y-74000000D02*
X155163600Y-74000000D01*
D22*
G36*
X160564886Y-71001554D02*
G01*
X160221799Y-71515021D01*
X159985476Y-72085554D01*
X159865000Y-72691229D01*
X159865000Y-73308771D01*
X159985476Y-73914446D01*
X160221799Y-74484979D01*
X160564886Y-74998446D01*
X161001554Y-75435114D01*
X161515021Y-75778201D01*
X162085554Y-76014524D01*
X162691229Y-76135000D01*
X163308771Y-76135000D01*
X163914446Y-76014524D01*
X164484979Y-75778201D01*
X164998446Y-75435114D01*
X165340000Y-75093560D01*
X165340001Y-99906441D01*
X164998446Y-99564886D01*
X164484979Y-99221799D01*
X163914446Y-98985476D01*
X163308771Y-98865000D01*
X162691229Y-98865000D01*
X162085554Y-98985476D01*
X161515021Y-99221799D01*
X161001554Y-99564886D01*
X160564886Y-100001554D01*
X160221799Y-100515021D01*
X159985476Y-101085554D01*
X159865000Y-101691229D01*
X159865000Y-102308771D01*
X159985476Y-102914446D01*
X160221799Y-103484979D01*
X160564886Y-103998446D01*
X160906440Y-104340000D01*
X111093560Y-104340000D01*
X111435114Y-103998446D01*
X111778201Y-103484979D01*
X112014524Y-102914446D01*
X112135000Y-102308771D01*
X112135000Y-101691229D01*
X112014524Y-101085554D01*
X111778201Y-100515021D01*
X111435114Y-100001554D01*
X110998446Y-99564886D01*
X110484979Y-99221799D01*
X109914446Y-98985476D01*
X109308771Y-98865000D01*
X108691229Y-98865000D01*
X108085554Y-98985476D01*
X107515021Y-99221799D01*
X107001554Y-99564886D01*
X106660000Y-99906440D01*
X106660000Y-86204495D01*
X107055000Y-86204495D01*
X107055000Y-86595505D01*
X107131282Y-86979003D01*
X107280915Y-87340250D01*
X107498149Y-87665364D01*
X107774636Y-87941851D01*
X108099750Y-88159085D01*
X108460997Y-88308718D01*
X108844495Y-88385000D01*
X109235505Y-88385000D01*
X109619003Y-88308718D01*
X109980250Y-88159085D01*
X110305364Y-87941851D01*
X110581851Y-87665364D01*
X110799085Y-87340250D01*
X110948718Y-86979003D01*
X111011928Y-86661223D01*
X111011928Y-87499999D01*
X111028992Y-87673253D01*
X111079529Y-87839850D01*
X111161595Y-87993386D01*
X111272039Y-88127961D01*
X111406614Y-88238405D01*
X111560150Y-88320471D01*
X111726747Y-88371008D01*
X111900001Y-88388072D01*
X114099999Y-88388072D01*
X114273253Y-88371008D01*
X114439850Y-88320471D01*
X114593386Y-88238405D01*
X114727961Y-88127961D01*
X114804009Y-88035297D01*
X114881314Y-88042911D01*
X114961633Y-88035000D01*
X114961636Y-88035000D01*
X115201830Y-88011343D01*
X115510029Y-87917852D01*
X115794066Y-87766031D01*
X116043028Y-87561714D01*
X116094239Y-87499313D01*
X118069294Y-85524259D01*
X118121401Y-85696033D01*
X118259294Y-85954013D01*
X118444866Y-86180134D01*
X118670986Y-86365706D01*
X118928966Y-86503599D01*
X119208889Y-86588513D01*
X119500000Y-86617185D01*
X119791110Y-86588513D01*
X120071033Y-86503599D01*
X120329013Y-86365706D01*
X120555134Y-86180134D01*
X120740706Y-85954014D01*
X120750000Y-85936626D01*
X120759294Y-85954013D01*
X120944866Y-86180134D01*
X121170986Y-86365706D01*
X121428966Y-86503599D01*
X121708889Y-86588513D01*
X122000000Y-86617185D01*
X122291110Y-86588513D01*
X122571033Y-86503599D01*
X122829013Y-86365706D01*
X123055134Y-86180134D01*
X123240706Y-85954014D01*
X123250000Y-85936626D01*
X123259294Y-85954013D01*
X123444866Y-86180134D01*
X123670986Y-86365706D01*
X123928966Y-86503599D01*
X124208889Y-86588513D01*
X124500000Y-86617185D01*
X124791110Y-86588513D01*
X125071033Y-86503599D01*
X125329013Y-86365706D01*
X125555134Y-86180134D01*
X125607223Y-86116663D01*
X125661595Y-86218386D01*
X125772038Y-86352962D01*
X125906614Y-86463405D01*
X126060150Y-86545472D01*
X126226746Y-86596008D01*
X126400000Y-86613072D01*
X126569649Y-86613072D01*
X125967721Y-87215000D01*
X124413552Y-87215000D01*
X124374999Y-87211203D01*
X124336446Y-87215000D01*
X124336439Y-87215000D01*
X124235490Y-87224943D01*
X124221112Y-87226359D01*
X124073140Y-87271246D01*
X123936767Y-87344138D01*
X123882145Y-87388966D01*
X123847187Y-87417655D01*
X123847184Y-87417658D01*
X123817236Y-87442236D01*
X123792658Y-87472184D01*
X119838869Y-91425974D01*
X119791111Y-91411487D01*
X119500000Y-91382815D01*
X119208890Y-91411487D01*
X118928967Y-91496401D01*
X118670987Y-91634294D01*
X118444866Y-91819866D01*
X118259294Y-92045986D01*
X118121401Y-92303966D01*
X118036487Y-92583889D01*
X118015000Y-92802050D01*
X118015000Y-93197949D01*
X118036487Y-93416110D01*
X118121401Y-93696033D01*
X118259294Y-93954013D01*
X118444866Y-94180134D01*
X118670986Y-94365706D01*
X118928966Y-94503599D01*
X119208889Y-94588513D01*
X119500000Y-94617185D01*
X119791110Y-94588513D01*
X120071033Y-94503599D01*
X120329013Y-94365706D01*
X120555134Y-94180134D01*
X120740706Y-93954014D01*
X120750000Y-93936626D01*
X120759294Y-93954013D01*
X120944866Y-94180134D01*
X121170986Y-94365706D01*
X121428966Y-94503599D01*
X121708889Y-94588513D01*
X122000000Y-94617185D01*
X122291110Y-94588513D01*
X122571033Y-94503599D01*
X122829013Y-94365706D01*
X123055134Y-94180134D01*
X123240706Y-93954014D01*
X123250000Y-93936626D01*
X123259294Y-93954013D01*
X123444866Y-94180134D01*
X123670986Y-94365706D01*
X123928966Y-94503599D01*
X124208889Y-94588513D01*
X124500000Y-94617185D01*
X124791110Y-94588513D01*
X125071033Y-94503599D01*
X125329013Y-94365706D01*
X125555134Y-94180134D01*
X125607223Y-94116663D01*
X125661595Y-94218386D01*
X125772038Y-94352962D01*
X125906614Y-94463405D01*
X126060150Y-94545472D01*
X126226746Y-94596008D01*
X126400000Y-94613072D01*
X127600000Y-94613072D01*
X127773254Y-94596008D01*
X127939850Y-94545472D01*
X128093386Y-94463405D01*
X128227962Y-94352962D01*
X128338405Y-94218386D01*
X128420472Y-94064850D01*
X128471008Y-93898254D01*
X128488072Y-93725000D01*
X128488072Y-92777050D01*
X140015000Y-92777050D01*
X140015000Y-93222949D01*
X140036487Y-93441110D01*
X140121401Y-93721033D01*
X140259294Y-93979013D01*
X140444866Y-94205134D01*
X140670986Y-94390706D01*
X140928966Y-94528599D01*
X141208889Y-94613513D01*
X141500000Y-94642185D01*
X141791110Y-94613513D01*
X142071033Y-94528599D01*
X142329013Y-94390706D01*
X142555134Y-94205134D01*
X142607223Y-94141663D01*
X142661595Y-94243386D01*
X142772038Y-94377962D01*
X142906614Y-94488405D01*
X143060150Y-94570472D01*
X143226746Y-94621008D01*
X143400000Y-94638072D01*
X144600000Y-94638072D01*
X144773254Y-94621008D01*
X144939850Y-94570472D01*
X145093386Y-94488405D01*
X145227962Y-94377962D01*
X145338405Y-94243386D01*
X145420472Y-94089850D01*
X145471008Y-93923254D01*
X145488072Y-93750000D01*
X145488072Y-92250000D01*
X145471008Y-92076746D01*
X145420472Y-91910150D01*
X145338405Y-91756614D01*
X145227962Y-91622038D01*
X145093386Y-91511595D01*
X144939850Y-91429528D01*
X144773254Y-91378992D01*
X144600000Y-91361928D01*
X143400000Y-91361928D01*
X143226746Y-91378992D01*
X143060150Y-91429528D01*
X142906614Y-91511595D01*
X142772038Y-91622038D01*
X142661595Y-91756614D01*
X142607223Y-91858337D01*
X142555134Y-91794866D01*
X142329014Y-91609294D01*
X142071034Y-91471401D01*
X141791111Y-91386487D01*
X141500000Y-91357815D01*
X141208890Y-91386487D01*
X140928967Y-91471401D01*
X140670987Y-91609294D01*
X140444866Y-91794866D01*
X140259294Y-92020986D01*
X140121401Y-92278966D01*
X140036487Y-92558889D01*
X140015000Y-92777050D01*
X128488072Y-92777050D01*
X128488072Y-92275000D01*
X128471008Y-92101746D01*
X128420472Y-91935150D01*
X128338405Y-91781614D01*
X128227962Y-91647038D01*
X128093386Y-91536595D01*
X127939850Y-91454528D01*
X127773254Y-91403992D01*
X127600000Y-91386928D01*
X126400000Y-91386928D01*
X126226746Y-91403992D01*
X126060150Y-91454528D01*
X125906614Y-91536595D01*
X125772038Y-91647038D01*
X125661595Y-91781614D01*
X125607223Y-91883337D01*
X125555134Y-91819866D01*
X125329014Y-91634294D01*
X125071034Y-91496401D01*
X124791111Y-91411487D01*
X124706959Y-91403199D01*
X133527816Y-82582342D01*
X133542006Y-82570697D01*
X133536487Y-82588889D01*
X133507815Y-82880000D01*
X133536487Y-83171111D01*
X133621401Y-83451034D01*
X133759294Y-83709014D01*
X133944866Y-83935134D01*
X134170986Y-84120706D01*
X134225791Y-84150000D01*
X134170986Y-84179294D01*
X133944866Y-84364866D01*
X133759294Y-84590986D01*
X133621401Y-84848966D01*
X133536487Y-85128889D01*
X133507815Y-85420000D01*
X133536487Y-85711111D01*
X133621401Y-85991034D01*
X133759294Y-86249014D01*
X133944866Y-86475134D01*
X134170986Y-86660706D01*
X134225791Y-86690000D01*
X134170986Y-86719294D01*
X133944866Y-86904866D01*
X133759294Y-87130986D01*
X133621401Y-87388966D01*
X133536487Y-87668889D01*
X133507815Y-87960000D01*
X133536487Y-88251111D01*
X133621401Y-88531034D01*
X133759294Y-88789014D01*
X133944866Y-89015134D01*
X134170986Y-89200706D01*
X134226885Y-89230585D01*
X134053368Y-89346525D01*
X133846525Y-89553368D01*
X133684010Y-89796589D01*
X133572068Y-90066842D01*
X133515000Y-90353740D01*
X133515000Y-90646260D01*
X133572068Y-90933158D01*
X133684010Y-91203411D01*
X133846525Y-91446632D01*
X134053368Y-91653475D01*
X134296589Y-91815990D01*
X134566842Y-91927932D01*
X134853740Y-91985000D01*
X135146260Y-91985000D01*
X135433158Y-91927932D01*
X135703411Y-91815990D01*
X135946632Y-91653475D01*
X136153475Y-91446632D01*
X136315990Y-91203411D01*
X136427932Y-90933158D01*
X136485000Y-90646260D01*
X136485000Y-90353740D01*
X136427932Y-90066842D01*
X136315990Y-89796589D01*
X136153475Y-89553368D01*
X135946632Y-89346525D01*
X135773115Y-89230585D01*
X135829014Y-89200706D01*
X136055134Y-89015134D01*
X136240706Y-88789014D01*
X136378599Y-88531034D01*
X136463513Y-88251111D01*
X136492185Y-87960000D01*
X136463513Y-87668889D01*
X136378599Y-87388966D01*
X136240706Y-87130986D01*
X136055134Y-86904866D01*
X135829014Y-86719294D01*
X135774209Y-86690000D01*
X135829014Y-86660706D01*
X136055134Y-86475134D01*
X136240706Y-86249014D01*
X136378599Y-85991034D01*
X136463513Y-85711111D01*
X136492185Y-85420000D01*
X136463513Y-85128889D01*
X136449026Y-85081131D01*
X139188602Y-82341556D01*
X139188602Y-87935038D01*
X139184804Y-87973601D01*
X139199960Y-88127487D01*
X139244847Y-88275460D01*
X139244848Y-88275461D01*
X139317740Y-88411834D01*
X139342691Y-88442236D01*
X139391256Y-88501413D01*
X139391260Y-88501417D01*
X139415838Y-88531365D01*
X139445786Y-88555943D01*
X140417657Y-89527815D01*
X140442236Y-89557764D01*
X140472184Y-89582342D01*
X140472187Y-89582345D01*
X140501559Y-89606450D01*
X140561767Y-89655862D01*
X140698140Y-89728754D01*
X140811672Y-89763194D01*
X140846112Y-89773641D01*
X140860490Y-89775057D01*
X140961439Y-89785000D01*
X140961446Y-89785000D01*
X140999999Y-89788797D01*
X141038552Y-89785000D01*
X145024843Y-89785000D01*
X148767655Y-93527813D01*
X148792236Y-93557764D01*
X148822184Y-93582342D01*
X148822187Y-93582345D01*
X148848200Y-93603693D01*
X148911767Y-93655862D01*
X149048140Y-93728754D01*
X149140504Y-93756772D01*
X149259294Y-93979013D01*
X149444866Y-94205134D01*
X149670986Y-94390706D01*
X149928966Y-94528599D01*
X150208889Y-94613513D01*
X150500000Y-94642185D01*
X150791110Y-94613513D01*
X151071033Y-94528599D01*
X151329013Y-94390706D01*
X151555134Y-94205134D01*
X151607223Y-94141663D01*
X151661595Y-94243386D01*
X151772038Y-94377962D01*
X151906614Y-94488405D01*
X152060150Y-94570472D01*
X152215000Y-94617445D01*
X152215001Y-99382555D01*
X152060150Y-99429528D01*
X151906614Y-99511595D01*
X151772038Y-99622038D01*
X151661595Y-99756614D01*
X151607223Y-99858337D01*
X151555134Y-99794866D01*
X151329014Y-99609294D01*
X151071034Y-99471401D01*
X150791111Y-99386487D01*
X150500000Y-99357815D01*
X150208890Y-99386487D01*
X149928967Y-99471401D01*
X149670987Y-99609294D01*
X149444866Y-99794866D01*
X149259294Y-100020986D01*
X149121401Y-100278966D01*
X149036487Y-100558889D01*
X149015000Y-100777050D01*
X149015000Y-101222949D01*
X149036487Y-101441110D01*
X149121401Y-101721033D01*
X149259294Y-101979013D01*
X149444866Y-102205134D01*
X149670986Y-102390706D01*
X149928966Y-102528599D01*
X150208889Y-102613513D01*
X150500000Y-102642185D01*
X150791110Y-102613513D01*
X151071033Y-102528599D01*
X151329013Y-102390706D01*
X151555134Y-102205134D01*
X151607223Y-102141663D01*
X151661595Y-102243386D01*
X151772038Y-102377962D01*
X151906614Y-102488405D01*
X152060150Y-102570472D01*
X152226746Y-102621008D01*
X152400000Y-102638072D01*
X153600000Y-102638072D01*
X153773254Y-102621008D01*
X153939850Y-102570472D01*
X154093386Y-102488405D01*
X154227962Y-102377962D01*
X154338405Y-102243386D01*
X154420472Y-102089850D01*
X154471008Y-101923254D01*
X154488072Y-101750000D01*
X154488072Y-100250000D01*
X154471008Y-100076746D01*
X154420472Y-99910150D01*
X154338405Y-99756614D01*
X154227962Y-99622038D01*
X154093386Y-99511595D01*
X153939850Y-99429528D01*
X153785000Y-99382555D01*
X153785000Y-94895157D01*
X154417653Y-95527810D01*
X154442236Y-95557764D01*
X154561767Y-95655862D01*
X154698140Y-95728754D01*
X154846113Y-95773642D01*
X154921026Y-95781020D01*
X154961439Y-95785000D01*
X154961444Y-95785000D01*
X155000000Y-95788797D01*
X155038556Y-95785000D01*
X159961447Y-95785000D01*
X160000000Y-95788797D01*
X160038553Y-95785000D01*
X160038561Y-95785000D01*
X160153887Y-95773641D01*
X160301860Y-95728754D01*
X160438233Y-95655862D01*
X160557764Y-95557764D01*
X160582347Y-95527810D01*
X161472085Y-94638072D01*
X162600000Y-94638072D01*
X162773254Y-94621008D01*
X162939850Y-94570472D01*
X163093386Y-94488405D01*
X163227962Y-94377962D01*
X163338405Y-94243386D01*
X163420472Y-94089850D01*
X163471008Y-93923254D01*
X163488072Y-93750000D01*
X163488072Y-92250000D01*
X163471008Y-92076746D01*
X163420472Y-91910150D01*
X163338405Y-91756614D01*
X163227962Y-91622038D01*
X163093386Y-91511595D01*
X162939850Y-91429528D01*
X162785000Y-91382555D01*
X162785000Y-86617445D01*
X162939850Y-86570472D01*
X163093386Y-86488405D01*
X163227962Y-86377962D01*
X163338405Y-86243386D01*
X163420472Y-86089850D01*
X163471008Y-85923254D01*
X163488072Y-85750000D01*
X163488072Y-84250000D01*
X163471008Y-84076746D01*
X163420472Y-83910150D01*
X163338405Y-83756614D01*
X163227962Y-83622038D01*
X163093386Y-83511595D01*
X162939850Y-83429528D01*
X162773254Y-83378992D01*
X162600000Y-83361928D01*
X161400000Y-83361928D01*
X161387842Y-83363125D01*
X161248333Y-83320806D01*
X161094447Y-83305650D01*
X160940561Y-83320806D01*
X160792588Y-83365693D01*
X160656215Y-83438586D01*
X160536683Y-83536683D01*
X160438586Y-83656215D01*
X160422609Y-83686106D01*
X160329014Y-83609294D01*
X160285000Y-83585768D01*
X160285000Y-78374956D01*
X160288797Y-78336400D01*
X160285000Y-78297840D01*
X160285000Y-78297839D01*
X160281020Y-78257426D01*
X160273642Y-78182513D01*
X160263780Y-78150000D01*
X161661928Y-78150000D01*
X161661928Y-79850000D01*
X161674188Y-79974482D01*
X161710498Y-80094180D01*
X161769463Y-80204494D01*
X161848815Y-80301185D01*
X161945506Y-80380537D01*
X162055820Y-80439502D01*
X162175518Y-80475812D01*
X162300000Y-80488072D01*
X164000000Y-80488072D01*
X164124482Y-80475812D01*
X164244180Y-80439502D01*
X164354494Y-80380537D01*
X164451185Y-80301185D01*
X164530537Y-80204494D01*
X164589502Y-80094180D01*
X164625812Y-79974482D01*
X164638072Y-79850000D01*
X164638072Y-78150000D01*
X164625812Y-78025518D01*
X164589502Y-77905820D01*
X164530537Y-77795506D01*
X164451185Y-77698815D01*
X164354494Y-77619463D01*
X164244180Y-77560498D01*
X164124482Y-77524188D01*
X164000000Y-77511928D01*
X162300000Y-77511928D01*
X162175518Y-77524188D01*
X162055820Y-77560498D01*
X161945506Y-77619463D01*
X161848815Y-77698815D01*
X161769463Y-77795506D01*
X161710498Y-77905820D01*
X161674188Y-78025518D01*
X161661928Y-78150000D01*
X160263780Y-78150000D01*
X160228754Y-78034540D01*
X160219334Y-78016916D01*
X160155862Y-77898167D01*
X160057764Y-77778636D01*
X160027811Y-77754054D01*
X155745947Y-73472190D01*
X155721364Y-73442236D01*
X155601833Y-73344138D01*
X155501672Y-73290601D01*
X155501672Y-73136400D01*
X155489412Y-73011918D01*
X155453102Y-72892220D01*
X155394137Y-72781906D01*
X155314785Y-72685215D01*
X155218094Y-72605863D01*
X155107780Y-72546898D01*
X154988082Y-72510588D01*
X154863600Y-72498328D01*
X153136400Y-72498328D01*
X153011918Y-72510588D01*
X152892220Y-72546898D01*
X152781906Y-72605863D01*
X152685215Y-72685215D01*
X152605863Y-72781906D01*
X152546898Y-72892220D01*
X152531414Y-72943265D01*
X152524797Y-72935203D01*
X152296606Y-72747931D01*
X152036264Y-72608775D01*
X151753777Y-72523084D01*
X151533619Y-72501400D01*
X151386381Y-72501400D01*
X151166223Y-72523084D01*
X150883736Y-72608775D01*
X150623394Y-72747931D01*
X150395203Y-72935203D01*
X150207931Y-73163394D01*
X150190000Y-73196940D01*
X150172069Y-73163394D01*
X149984797Y-72935203D01*
X149756606Y-72747931D01*
X149496264Y-72608775D01*
X149213777Y-72523084D01*
X148993619Y-72501400D01*
X148846381Y-72501400D01*
X148626223Y-72523084D01*
X148343736Y-72608775D01*
X148083394Y-72747931D01*
X147855203Y-72935203D01*
X147667931Y-73163394D01*
X147650000Y-73196940D01*
X147632069Y-73163394D01*
X147444797Y-72935203D01*
X147216606Y-72747931D01*
X146956264Y-72608775D01*
X146673777Y-72523084D01*
X146453619Y-72501400D01*
X146306381Y-72501400D01*
X146086223Y-72523084D01*
X145803736Y-72608775D01*
X145543394Y-72747931D01*
X145315203Y-72935203D01*
X145127931Y-73163394D01*
X145110000Y-73196940D01*
X145092069Y-73163394D01*
X144904797Y-72935203D01*
X144676606Y-72747931D01*
X144416264Y-72608775D01*
X144133777Y-72523084D01*
X143913619Y-72501400D01*
X143766381Y-72501400D01*
X143546223Y-72523084D01*
X143263736Y-72608775D01*
X143003394Y-72747931D01*
X142775203Y-72935203D01*
X142587931Y-73163394D01*
X142570000Y-73196940D01*
X142552069Y-73163394D01*
X142364797Y-72935203D01*
X142136606Y-72747931D01*
X141876264Y-72608775D01*
X141593777Y-72523084D01*
X141373619Y-72501400D01*
X141226381Y-72501400D01*
X141006223Y-72523084D01*
X140723736Y-72608775D01*
X140463394Y-72747931D01*
X140235203Y-72935203D01*
X140047931Y-73163394D01*
X140030000Y-73196940D01*
X140012069Y-73163394D01*
X139824797Y-72935203D01*
X139596606Y-72747931D01*
X139336264Y-72608775D01*
X139053777Y-72523084D01*
X138833619Y-72501400D01*
X138686381Y-72501400D01*
X138466223Y-72523084D01*
X138183736Y-72608775D01*
X137923394Y-72747931D01*
X137695203Y-72935203D01*
X137507931Y-73163394D01*
X137490000Y-73196940D01*
X137472069Y-73163394D01*
X137284797Y-72935203D01*
X137056606Y-72747931D01*
X136796264Y-72608775D01*
X136513777Y-72523084D01*
X136293619Y-72501400D01*
X136146381Y-72501400D01*
X135926223Y-72523084D01*
X135643736Y-72608775D01*
X135383394Y-72747931D01*
X135155203Y-72935203D01*
X134967931Y-73163394D01*
X134950000Y-73196940D01*
X134932069Y-73163394D01*
X134744797Y-72935203D01*
X134516606Y-72747931D01*
X134256264Y-72608775D01*
X133973777Y-72523084D01*
X133753619Y-72501400D01*
X133606381Y-72501400D01*
X133386223Y-72523084D01*
X133103736Y-72608775D01*
X132843394Y-72747931D01*
X132615203Y-72935203D01*
X132427931Y-73163394D01*
X132410000Y-73196940D01*
X132392069Y-73163394D01*
X132204797Y-72935203D01*
X131976606Y-72747931D01*
X131716264Y-72608775D01*
X131433777Y-72523084D01*
X131213619Y-72501400D01*
X131066381Y-72501400D01*
X130846223Y-72523084D01*
X130563736Y-72608775D01*
X130303394Y-72747931D01*
X130075203Y-72935203D01*
X129887931Y-73163394D01*
X129870000Y-73196940D01*
X129852069Y-73163394D01*
X129664797Y-72935203D01*
X129436606Y-72747931D01*
X129176264Y-72608775D01*
X128893777Y-72523084D01*
X128673619Y-72501400D01*
X128526381Y-72501400D01*
X128306223Y-72523084D01*
X128023736Y-72608775D01*
X127763394Y-72747931D01*
X127535203Y-72935203D01*
X127347931Y-73163394D01*
X127330000Y-73196940D01*
X127312069Y-73163394D01*
X127124797Y-72935203D01*
X126896606Y-72747931D01*
X126636264Y-72608775D01*
X126353777Y-72523084D01*
X126133619Y-72501400D01*
X125986381Y-72501400D01*
X125766223Y-72523084D01*
X125483736Y-72608775D01*
X125223394Y-72747931D01*
X124995203Y-72935203D01*
X124878227Y-73077739D01*
X124681714Y-72838286D01*
X124432752Y-72633969D01*
X124148715Y-72482148D01*
X123840516Y-72388657D01*
X123600322Y-72365000D01*
X123520000Y-72357089D01*
X123439678Y-72365000D01*
X120899678Y-72365000D01*
X120659484Y-72388657D01*
X120351285Y-72482148D01*
X120067248Y-72633969D01*
X119818286Y-72838286D01*
X119710000Y-72970233D01*
X119601714Y-72838286D01*
X119352751Y-72633969D01*
X119068714Y-72482148D01*
X118760515Y-72388657D01*
X118440000Y-72357089D01*
X118119484Y-72388657D01*
X117811285Y-72482148D01*
X117527248Y-72633969D01*
X117278286Y-72838286D01*
X117073969Y-73087249D01*
X116922148Y-73371286D01*
X116828657Y-73679485D01*
X116805000Y-73919679D01*
X116805001Y-75862760D01*
X107940687Y-84727075D01*
X107878286Y-84778286D01*
X107859013Y-84801770D01*
X107774636Y-84858149D01*
X107498149Y-85134636D01*
X107280915Y-85459750D01*
X107131282Y-85820997D01*
X107055000Y-86204495D01*
X106660000Y-86204495D01*
X106660000Y-75093560D01*
X107001554Y-75435114D01*
X107515021Y-75778201D01*
X108085554Y-76014524D01*
X108691229Y-76135000D01*
X109308771Y-76135000D01*
X109914446Y-76014524D01*
X110484979Y-75778201D01*
X110998446Y-75435114D01*
X111435114Y-74998446D01*
X111778201Y-74484979D01*
X112014524Y-73914446D01*
X112135000Y-73308771D01*
X112135000Y-72691229D01*
X112014524Y-72085554D01*
X111778201Y-71515021D01*
X111435114Y-71001554D01*
X111093560Y-70660000D01*
X160906440Y-70660000D01*
X160564886Y-71001554D01*
X160564886Y-71001554D01*
G37*
X160564886Y-71001554D02*
X160221799Y-71515021D01*
X159985476Y-72085554D01*
X159865000Y-72691229D01*
X159865000Y-73308771D01*
X159985476Y-73914446D01*
X160221799Y-74484979D01*
X160564886Y-74998446D01*
X161001554Y-75435114D01*
X161515021Y-75778201D01*
X162085554Y-76014524D01*
X162691229Y-76135000D01*
X163308771Y-76135000D01*
X163914446Y-76014524D01*
X164484979Y-75778201D01*
X164998446Y-75435114D01*
X165340000Y-75093560D01*
X165340001Y-99906441D01*
X164998446Y-99564886D01*
X164484979Y-99221799D01*
X163914446Y-98985476D01*
X163308771Y-98865000D01*
X162691229Y-98865000D01*
X162085554Y-98985476D01*
X161515021Y-99221799D01*
X161001554Y-99564886D01*
X160564886Y-100001554D01*
X160221799Y-100515021D01*
X159985476Y-101085554D01*
X159865000Y-101691229D01*
X159865000Y-102308771D01*
X159985476Y-102914446D01*
X160221799Y-103484979D01*
X160564886Y-103998446D01*
X160906440Y-104340000D01*
X111093560Y-104340000D01*
X111435114Y-103998446D01*
X111778201Y-103484979D01*
X112014524Y-102914446D01*
X112135000Y-102308771D01*
X112135000Y-101691229D01*
X112014524Y-101085554D01*
X111778201Y-100515021D01*
X111435114Y-100001554D01*
X110998446Y-99564886D01*
X110484979Y-99221799D01*
X109914446Y-98985476D01*
X109308771Y-98865000D01*
X108691229Y-98865000D01*
X108085554Y-98985476D01*
X107515021Y-99221799D01*
X107001554Y-99564886D01*
X106660000Y-99906440D01*
X106660000Y-86204495D01*
X107055000Y-86204495D01*
X107055000Y-86595505D01*
X107131282Y-86979003D01*
X107280915Y-87340250D01*
X107498149Y-87665364D01*
X107774636Y-87941851D01*
X108099750Y-88159085D01*
X108460997Y-88308718D01*
X108844495Y-88385000D01*
X109235505Y-88385000D01*
X109619003Y-88308718D01*
X109980250Y-88159085D01*
X110305364Y-87941851D01*
X110581851Y-87665364D01*
X110799085Y-87340250D01*
X110948718Y-86979003D01*
X111011928Y-86661223D01*
X111011928Y-87499999D01*
X111028992Y-87673253D01*
X111079529Y-87839850D01*
X111161595Y-87993386D01*
X111272039Y-88127961D01*
X111406614Y-88238405D01*
X111560150Y-88320471D01*
X111726747Y-88371008D01*
X111900001Y-88388072D01*
X114099999Y-88388072D01*
X114273253Y-88371008D01*
X114439850Y-88320471D01*
X114593386Y-88238405D01*
X114727961Y-88127961D01*
X114804009Y-88035297D01*
X114881314Y-88042911D01*
X114961633Y-88035000D01*
X114961636Y-88035000D01*
X115201830Y-88011343D01*
X115510029Y-87917852D01*
X115794066Y-87766031D01*
X116043028Y-87561714D01*
X116094239Y-87499313D01*
X118069294Y-85524259D01*
X118121401Y-85696033D01*
X118259294Y-85954013D01*
X118444866Y-86180134D01*
X118670986Y-86365706D01*
X118928966Y-86503599D01*
X119208889Y-86588513D01*
X119500000Y-86617185D01*
X119791110Y-86588513D01*
X120071033Y-86503599D01*
X120329013Y-86365706D01*
X120555134Y-86180134D01*
X120740706Y-85954014D01*
X120750000Y-85936626D01*
X120759294Y-85954013D01*
X120944866Y-86180134D01*
X121170986Y-86365706D01*
X121428966Y-86503599D01*
X121708889Y-86588513D01*
X122000000Y-86617185D01*
X122291110Y-86588513D01*
X122571033Y-86503599D01*
X122829013Y-86365706D01*
X123055134Y-86180134D01*
X123240706Y-85954014D01*
X123250000Y-85936626D01*
X123259294Y-85954013D01*
X123444866Y-86180134D01*
X123670986Y-86365706D01*
X123928966Y-86503599D01*
X124208889Y-86588513D01*
X124500000Y-86617185D01*
X124791110Y-86588513D01*
X125071033Y-86503599D01*
X125329013Y-86365706D01*
X125555134Y-86180134D01*
X125607223Y-86116663D01*
X125661595Y-86218386D01*
X125772038Y-86352962D01*
X125906614Y-86463405D01*
X126060150Y-86545472D01*
X126226746Y-86596008D01*
X126400000Y-86613072D01*
X126569649Y-86613072D01*
X125967721Y-87215000D01*
X124413552Y-87215000D01*
X124374999Y-87211203D01*
X124336446Y-87215000D01*
X124336439Y-87215000D01*
X124235490Y-87224943D01*
X124221112Y-87226359D01*
X124073140Y-87271246D01*
X123936767Y-87344138D01*
X123882145Y-87388966D01*
X123847187Y-87417655D01*
X123847184Y-87417658D01*
X123817236Y-87442236D01*
X123792658Y-87472184D01*
X119838869Y-91425974D01*
X119791111Y-91411487D01*
X119500000Y-91382815D01*
X119208890Y-91411487D01*
X118928967Y-91496401D01*
X118670987Y-91634294D01*
X118444866Y-91819866D01*
X118259294Y-92045986D01*
X118121401Y-92303966D01*
X118036487Y-92583889D01*
X118015000Y-92802050D01*
X118015000Y-93197949D01*
X118036487Y-93416110D01*
X118121401Y-93696033D01*
X118259294Y-93954013D01*
X118444866Y-94180134D01*
X118670986Y-94365706D01*
X118928966Y-94503599D01*
X119208889Y-94588513D01*
X119500000Y-94617185D01*
X119791110Y-94588513D01*
X120071033Y-94503599D01*
X120329013Y-94365706D01*
X120555134Y-94180134D01*
X120740706Y-93954014D01*
X120750000Y-93936626D01*
X120759294Y-93954013D01*
X120944866Y-94180134D01*
X121170986Y-94365706D01*
X121428966Y-94503599D01*
X121708889Y-94588513D01*
X122000000Y-94617185D01*
X122291110Y-94588513D01*
X122571033Y-94503599D01*
X122829013Y-94365706D01*
X123055134Y-94180134D01*
X123240706Y-93954014D01*
X123250000Y-93936626D01*
X123259294Y-93954013D01*
X123444866Y-94180134D01*
X123670986Y-94365706D01*
X123928966Y-94503599D01*
X124208889Y-94588513D01*
X124500000Y-94617185D01*
X124791110Y-94588513D01*
X125071033Y-94503599D01*
X125329013Y-94365706D01*
X125555134Y-94180134D01*
X125607223Y-94116663D01*
X125661595Y-94218386D01*
X125772038Y-94352962D01*
X125906614Y-94463405D01*
X126060150Y-94545472D01*
X126226746Y-94596008D01*
X126400000Y-94613072D01*
X127600000Y-94613072D01*
X127773254Y-94596008D01*
X127939850Y-94545472D01*
X128093386Y-94463405D01*
X128227962Y-94352962D01*
X128338405Y-94218386D01*
X128420472Y-94064850D01*
X128471008Y-93898254D01*
X128488072Y-93725000D01*
X128488072Y-92777050D01*
X140015000Y-92777050D01*
X140015000Y-93222949D01*
X140036487Y-93441110D01*
X140121401Y-93721033D01*
X140259294Y-93979013D01*
X140444866Y-94205134D01*
X140670986Y-94390706D01*
X140928966Y-94528599D01*
X141208889Y-94613513D01*
X141500000Y-94642185D01*
X141791110Y-94613513D01*
X142071033Y-94528599D01*
X142329013Y-94390706D01*
X142555134Y-94205134D01*
X142607223Y-94141663D01*
X142661595Y-94243386D01*
X142772038Y-94377962D01*
X142906614Y-94488405D01*
X143060150Y-94570472D01*
X143226746Y-94621008D01*
X143400000Y-94638072D01*
X144600000Y-94638072D01*
X144773254Y-94621008D01*
X144939850Y-94570472D01*
X145093386Y-94488405D01*
X145227962Y-94377962D01*
X145338405Y-94243386D01*
X145420472Y-94089850D01*
X145471008Y-93923254D01*
X145488072Y-93750000D01*
X145488072Y-92250000D01*
X145471008Y-92076746D01*
X145420472Y-91910150D01*
X145338405Y-91756614D01*
X145227962Y-91622038D01*
X145093386Y-91511595D01*
X144939850Y-91429528D01*
X144773254Y-91378992D01*
X144600000Y-91361928D01*
X143400000Y-91361928D01*
X143226746Y-91378992D01*
X143060150Y-91429528D01*
X142906614Y-91511595D01*
X142772038Y-91622038D01*
X142661595Y-91756614D01*
X142607223Y-91858337D01*
X142555134Y-91794866D01*
X142329014Y-91609294D01*
X142071034Y-91471401D01*
X141791111Y-91386487D01*
X141500000Y-91357815D01*
X141208890Y-91386487D01*
X140928967Y-91471401D01*
X140670987Y-91609294D01*
X140444866Y-91794866D01*
X140259294Y-92020986D01*
X140121401Y-92278966D01*
X140036487Y-92558889D01*
X140015000Y-92777050D01*
X128488072Y-92777050D01*
X128488072Y-92275000D01*
X128471008Y-92101746D01*
X128420472Y-91935150D01*
X128338405Y-91781614D01*
X128227962Y-91647038D01*
X128093386Y-91536595D01*
X127939850Y-91454528D01*
X127773254Y-91403992D01*
X127600000Y-91386928D01*
X126400000Y-91386928D01*
X126226746Y-91403992D01*
X126060150Y-91454528D01*
X125906614Y-91536595D01*
X125772038Y-91647038D01*
X125661595Y-91781614D01*
X125607223Y-91883337D01*
X125555134Y-91819866D01*
X125329014Y-91634294D01*
X125071034Y-91496401D01*
X124791111Y-91411487D01*
X124706959Y-91403199D01*
X133527816Y-82582342D01*
X133542006Y-82570697D01*
X133536487Y-82588889D01*
X133507815Y-82880000D01*
X133536487Y-83171111D01*
X133621401Y-83451034D01*
X133759294Y-83709014D01*
X133944866Y-83935134D01*
X134170986Y-84120706D01*
X134225791Y-84150000D01*
X134170986Y-84179294D01*
X133944866Y-84364866D01*
X133759294Y-84590986D01*
X133621401Y-84848966D01*
X133536487Y-85128889D01*
X133507815Y-85420000D01*
X133536487Y-85711111D01*
X133621401Y-85991034D01*
X133759294Y-86249014D01*
X133944866Y-86475134D01*
X134170986Y-86660706D01*
X134225791Y-86690000D01*
X134170986Y-86719294D01*
X133944866Y-86904866D01*
X133759294Y-87130986D01*
X133621401Y-87388966D01*
X133536487Y-87668889D01*
X133507815Y-87960000D01*
X133536487Y-88251111D01*
X133621401Y-88531034D01*
X133759294Y-88789014D01*
X133944866Y-89015134D01*
X134170986Y-89200706D01*
X134226885Y-89230585D01*
X134053368Y-89346525D01*
X133846525Y-89553368D01*
X133684010Y-89796589D01*
X133572068Y-90066842D01*
X133515000Y-90353740D01*
X133515000Y-90646260D01*
X133572068Y-90933158D01*
X133684010Y-91203411D01*
X133846525Y-91446632D01*
X134053368Y-91653475D01*
X134296589Y-91815990D01*
X134566842Y-91927932D01*
X134853740Y-91985000D01*
X135146260Y-91985000D01*
X135433158Y-91927932D01*
X135703411Y-91815990D01*
X135946632Y-91653475D01*
X136153475Y-91446632D01*
X136315990Y-91203411D01*
X136427932Y-90933158D01*
X136485000Y-90646260D01*
X136485000Y-90353740D01*
X136427932Y-90066842D01*
X136315990Y-89796589D01*
X136153475Y-89553368D01*
X135946632Y-89346525D01*
X135773115Y-89230585D01*
X135829014Y-89200706D01*
X136055134Y-89015134D01*
X136240706Y-88789014D01*
X136378599Y-88531034D01*
X136463513Y-88251111D01*
X136492185Y-87960000D01*
X136463513Y-87668889D01*
X136378599Y-87388966D01*
X136240706Y-87130986D01*
X136055134Y-86904866D01*
X135829014Y-86719294D01*
X135774209Y-86690000D01*
X135829014Y-86660706D01*
X136055134Y-86475134D01*
X136240706Y-86249014D01*
X136378599Y-85991034D01*
X136463513Y-85711111D01*
X136492185Y-85420000D01*
X136463513Y-85128889D01*
X136449026Y-85081131D01*
X139188602Y-82341556D01*
X139188602Y-87935038D01*
X139184804Y-87973601D01*
X139199960Y-88127487D01*
X139244847Y-88275460D01*
X139244848Y-88275461D01*
X139317740Y-88411834D01*
X139342691Y-88442236D01*
X139391256Y-88501413D01*
X139391260Y-88501417D01*
X139415838Y-88531365D01*
X139445786Y-88555943D01*
X140417657Y-89527815D01*
X140442236Y-89557764D01*
X140472184Y-89582342D01*
X140472187Y-89582345D01*
X140501559Y-89606450D01*
X140561767Y-89655862D01*
X140698140Y-89728754D01*
X140811672Y-89763194D01*
X140846112Y-89773641D01*
X140860490Y-89775057D01*
X140961439Y-89785000D01*
X140961446Y-89785000D01*
X140999999Y-89788797D01*
X141038552Y-89785000D01*
X145024843Y-89785000D01*
X148767655Y-93527813D01*
X148792236Y-93557764D01*
X148822184Y-93582342D01*
X148822187Y-93582345D01*
X148848200Y-93603693D01*
X148911767Y-93655862D01*
X149048140Y-93728754D01*
X149140504Y-93756772D01*
X149259294Y-93979013D01*
X149444866Y-94205134D01*
X149670986Y-94390706D01*
X149928966Y-94528599D01*
X150208889Y-94613513D01*
X150500000Y-94642185D01*
X150791110Y-94613513D01*
X151071033Y-94528599D01*
X151329013Y-94390706D01*
X151555134Y-94205134D01*
X151607223Y-94141663D01*
X151661595Y-94243386D01*
X151772038Y-94377962D01*
X151906614Y-94488405D01*
X152060150Y-94570472D01*
X152215000Y-94617445D01*
X152215001Y-99382555D01*
X152060150Y-99429528D01*
X151906614Y-99511595D01*
X151772038Y-99622038D01*
X151661595Y-99756614D01*
X151607223Y-99858337D01*
X151555134Y-99794866D01*
X151329014Y-99609294D01*
X151071034Y-99471401D01*
X150791111Y-99386487D01*
X150500000Y-99357815D01*
X150208890Y-99386487D01*
X149928967Y-99471401D01*
X149670987Y-99609294D01*
X149444866Y-99794866D01*
X149259294Y-100020986D01*
X149121401Y-100278966D01*
X149036487Y-100558889D01*
X149015000Y-100777050D01*
X149015000Y-101222949D01*
X149036487Y-101441110D01*
X149121401Y-101721033D01*
X149259294Y-101979013D01*
X149444866Y-102205134D01*
X149670986Y-102390706D01*
X149928966Y-102528599D01*
X150208889Y-102613513D01*
X150500000Y-102642185D01*
X150791110Y-102613513D01*
X151071033Y-102528599D01*
X151329013Y-102390706D01*
X151555134Y-102205134D01*
X151607223Y-102141663D01*
X151661595Y-102243386D01*
X151772038Y-102377962D01*
X151906614Y-102488405D01*
X152060150Y-102570472D01*
X152226746Y-102621008D01*
X152400000Y-102638072D01*
X153600000Y-102638072D01*
X153773254Y-102621008D01*
X153939850Y-102570472D01*
X154093386Y-102488405D01*
X154227962Y-102377962D01*
X154338405Y-102243386D01*
X154420472Y-102089850D01*
X154471008Y-101923254D01*
X154488072Y-101750000D01*
X154488072Y-100250000D01*
X154471008Y-100076746D01*
X154420472Y-99910150D01*
X154338405Y-99756614D01*
X154227962Y-99622038D01*
X154093386Y-99511595D01*
X153939850Y-99429528D01*
X153785000Y-99382555D01*
X153785000Y-94895157D01*
X154417653Y-95527810D01*
X154442236Y-95557764D01*
X154561767Y-95655862D01*
X154698140Y-95728754D01*
X154846113Y-95773642D01*
X154921026Y-95781020D01*
X154961439Y-95785000D01*
X154961444Y-95785000D01*
X155000000Y-95788797D01*
X155038556Y-95785000D01*
X159961447Y-95785000D01*
X160000000Y-95788797D01*
X160038553Y-95785000D01*
X160038561Y-95785000D01*
X160153887Y-95773641D01*
X160301860Y-95728754D01*
X160438233Y-95655862D01*
X160557764Y-95557764D01*
X160582347Y-95527810D01*
X161472085Y-94638072D01*
X162600000Y-94638072D01*
X162773254Y-94621008D01*
X162939850Y-94570472D01*
X163093386Y-94488405D01*
X163227962Y-94377962D01*
X163338405Y-94243386D01*
X163420472Y-94089850D01*
X163471008Y-93923254D01*
X163488072Y-93750000D01*
X163488072Y-92250000D01*
X163471008Y-92076746D01*
X163420472Y-91910150D01*
X163338405Y-91756614D01*
X163227962Y-91622038D01*
X163093386Y-91511595D01*
X162939850Y-91429528D01*
X162785000Y-91382555D01*
X162785000Y-86617445D01*
X162939850Y-86570472D01*
X163093386Y-86488405D01*
X163227962Y-86377962D01*
X163338405Y-86243386D01*
X163420472Y-86089850D01*
X163471008Y-85923254D01*
X163488072Y-85750000D01*
X163488072Y-84250000D01*
X163471008Y-84076746D01*
X163420472Y-83910150D01*
X163338405Y-83756614D01*
X163227962Y-83622038D01*
X163093386Y-83511595D01*
X162939850Y-83429528D01*
X162773254Y-83378992D01*
X162600000Y-83361928D01*
X161400000Y-83361928D01*
X161387842Y-83363125D01*
X161248333Y-83320806D01*
X161094447Y-83305650D01*
X160940561Y-83320806D01*
X160792588Y-83365693D01*
X160656215Y-83438586D01*
X160536683Y-83536683D01*
X160438586Y-83656215D01*
X160422609Y-83686106D01*
X160329014Y-83609294D01*
X160285000Y-83585768D01*
X160285000Y-78374956D01*
X160288797Y-78336400D01*
X160285000Y-78297840D01*
X160285000Y-78297839D01*
X160281020Y-78257426D01*
X160273642Y-78182513D01*
X160263780Y-78150000D01*
X161661928Y-78150000D01*
X161661928Y-79850000D01*
X161674188Y-79974482D01*
X161710498Y-80094180D01*
X161769463Y-80204494D01*
X161848815Y-80301185D01*
X161945506Y-80380537D01*
X162055820Y-80439502D01*
X162175518Y-80475812D01*
X162300000Y-80488072D01*
X164000000Y-80488072D01*
X164124482Y-80475812D01*
X164244180Y-80439502D01*
X164354494Y-80380537D01*
X164451185Y-80301185D01*
X164530537Y-80204494D01*
X164589502Y-80094180D01*
X164625812Y-79974482D01*
X164638072Y-79850000D01*
X164638072Y-78150000D01*
X164625812Y-78025518D01*
X164589502Y-77905820D01*
X164530537Y-77795506D01*
X164451185Y-77698815D01*
X164354494Y-77619463D01*
X164244180Y-77560498D01*
X164124482Y-77524188D01*
X164000000Y-77511928D01*
X162300000Y-77511928D01*
X162175518Y-77524188D01*
X162055820Y-77560498D01*
X161945506Y-77619463D01*
X161848815Y-77698815D01*
X161769463Y-77795506D01*
X161710498Y-77905820D01*
X161674188Y-78025518D01*
X161661928Y-78150000D01*
X160263780Y-78150000D01*
X160228754Y-78034540D01*
X160219334Y-78016916D01*
X160155862Y-77898167D01*
X160057764Y-77778636D01*
X160027811Y-77754054D01*
X155745947Y-73472190D01*
X155721364Y-73442236D01*
X155601833Y-73344138D01*
X155501672Y-73290601D01*
X155501672Y-73136400D01*
X155489412Y-73011918D01*
X155453102Y-72892220D01*
X155394137Y-72781906D01*
X155314785Y-72685215D01*
X155218094Y-72605863D01*
X155107780Y-72546898D01*
X154988082Y-72510588D01*
X154863600Y-72498328D01*
X153136400Y-72498328D01*
X153011918Y-72510588D01*
X152892220Y-72546898D01*
X152781906Y-72605863D01*
X152685215Y-72685215D01*
X152605863Y-72781906D01*
X152546898Y-72892220D01*
X152531414Y-72943265D01*
X152524797Y-72935203D01*
X152296606Y-72747931D01*
X152036264Y-72608775D01*
X151753777Y-72523084D01*
X151533619Y-72501400D01*
X151386381Y-72501400D01*
X151166223Y-72523084D01*
X150883736Y-72608775D01*
X150623394Y-72747931D01*
X150395203Y-72935203D01*
X150207931Y-73163394D01*
X150190000Y-73196940D01*
X150172069Y-73163394D01*
X149984797Y-72935203D01*
X149756606Y-72747931D01*
X149496264Y-72608775D01*
X149213777Y-72523084D01*
X148993619Y-72501400D01*
X148846381Y-72501400D01*
X148626223Y-72523084D01*
X148343736Y-72608775D01*
X148083394Y-72747931D01*
X147855203Y-72935203D01*
X147667931Y-73163394D01*
X147650000Y-73196940D01*
X147632069Y-73163394D01*
X147444797Y-72935203D01*
X147216606Y-72747931D01*
X146956264Y-72608775D01*
X146673777Y-72523084D01*
X146453619Y-72501400D01*
X146306381Y-72501400D01*
X146086223Y-72523084D01*
X145803736Y-72608775D01*
X145543394Y-72747931D01*
X145315203Y-72935203D01*
X145127931Y-73163394D01*
X145110000Y-73196940D01*
X145092069Y-73163394D01*
X144904797Y-72935203D01*
X144676606Y-72747931D01*
X144416264Y-72608775D01*
X144133777Y-72523084D01*
X143913619Y-72501400D01*
X143766381Y-72501400D01*
X143546223Y-72523084D01*
X143263736Y-72608775D01*
X143003394Y-72747931D01*
X142775203Y-72935203D01*
X142587931Y-73163394D01*
X142570000Y-73196940D01*
X142552069Y-73163394D01*
X142364797Y-72935203D01*
X142136606Y-72747931D01*
X141876264Y-72608775D01*
X141593777Y-72523084D01*
X141373619Y-72501400D01*
X141226381Y-72501400D01*
X141006223Y-72523084D01*
X140723736Y-72608775D01*
X140463394Y-72747931D01*
X140235203Y-72935203D01*
X140047931Y-73163394D01*
X140030000Y-73196940D01*
X140012069Y-73163394D01*
X139824797Y-72935203D01*
X139596606Y-72747931D01*
X139336264Y-72608775D01*
X139053777Y-72523084D01*
X138833619Y-72501400D01*
X138686381Y-72501400D01*
X138466223Y-72523084D01*
X138183736Y-72608775D01*
X137923394Y-72747931D01*
X137695203Y-72935203D01*
X137507931Y-73163394D01*
X137490000Y-73196940D01*
X137472069Y-73163394D01*
X137284797Y-72935203D01*
X137056606Y-72747931D01*
X136796264Y-72608775D01*
X136513777Y-72523084D01*
X136293619Y-72501400D01*
X136146381Y-72501400D01*
X135926223Y-72523084D01*
X135643736Y-72608775D01*
X135383394Y-72747931D01*
X135155203Y-72935203D01*
X134967931Y-73163394D01*
X134950000Y-73196940D01*
X134932069Y-73163394D01*
X134744797Y-72935203D01*
X134516606Y-72747931D01*
X134256264Y-72608775D01*
X133973777Y-72523084D01*
X133753619Y-72501400D01*
X133606381Y-72501400D01*
X133386223Y-72523084D01*
X133103736Y-72608775D01*
X132843394Y-72747931D01*
X132615203Y-72935203D01*
X132427931Y-73163394D01*
X132410000Y-73196940D01*
X132392069Y-73163394D01*
X132204797Y-72935203D01*
X131976606Y-72747931D01*
X131716264Y-72608775D01*
X131433777Y-72523084D01*
X131213619Y-72501400D01*
X131066381Y-72501400D01*
X130846223Y-72523084D01*
X130563736Y-72608775D01*
X130303394Y-72747931D01*
X130075203Y-72935203D01*
X129887931Y-73163394D01*
X129870000Y-73196940D01*
X129852069Y-73163394D01*
X129664797Y-72935203D01*
X129436606Y-72747931D01*
X129176264Y-72608775D01*
X128893777Y-72523084D01*
X128673619Y-72501400D01*
X128526381Y-72501400D01*
X128306223Y-72523084D01*
X128023736Y-72608775D01*
X127763394Y-72747931D01*
X127535203Y-72935203D01*
X127347931Y-73163394D01*
X127330000Y-73196940D01*
X127312069Y-73163394D01*
X127124797Y-72935203D01*
X126896606Y-72747931D01*
X126636264Y-72608775D01*
X126353777Y-72523084D01*
X126133619Y-72501400D01*
X125986381Y-72501400D01*
X125766223Y-72523084D01*
X125483736Y-72608775D01*
X125223394Y-72747931D01*
X124995203Y-72935203D01*
X124878227Y-73077739D01*
X124681714Y-72838286D01*
X124432752Y-72633969D01*
X124148715Y-72482148D01*
X123840516Y-72388657D01*
X123600322Y-72365000D01*
X123520000Y-72357089D01*
X123439678Y-72365000D01*
X120899678Y-72365000D01*
X120659484Y-72388657D01*
X120351285Y-72482148D01*
X120067248Y-72633969D01*
X119818286Y-72838286D01*
X119710000Y-72970233D01*
X119601714Y-72838286D01*
X119352751Y-72633969D01*
X119068714Y-72482148D01*
X118760515Y-72388657D01*
X118440000Y-72357089D01*
X118119484Y-72388657D01*
X117811285Y-72482148D01*
X117527248Y-72633969D01*
X117278286Y-72838286D01*
X117073969Y-73087249D01*
X116922148Y-73371286D01*
X116828657Y-73679485D01*
X116805000Y-73919679D01*
X116805001Y-75862760D01*
X107940687Y-84727075D01*
X107878286Y-84778286D01*
X107859013Y-84801770D01*
X107774636Y-84858149D01*
X107498149Y-85134636D01*
X107280915Y-85459750D01*
X107131282Y-85820997D01*
X107055000Y-86204495D01*
X106660000Y-86204495D01*
X106660000Y-75093560D01*
X107001554Y-75435114D01*
X107515021Y-75778201D01*
X108085554Y-76014524D01*
X108691229Y-76135000D01*
X109308771Y-76135000D01*
X109914446Y-76014524D01*
X110484979Y-75778201D01*
X110998446Y-75435114D01*
X111435114Y-74998446D01*
X111778201Y-74484979D01*
X112014524Y-73914446D01*
X112135000Y-73308771D01*
X112135000Y-72691229D01*
X112014524Y-72085554D01*
X111778201Y-71515021D01*
X111435114Y-71001554D01*
X111093560Y-70660000D01*
X160906440Y-70660000D01*
X160564886Y-71001554D01*
G36*
X147667931Y-77376606D02*
G01*
X147855203Y-77604797D01*
X148083394Y-77792069D01*
X148343736Y-77931225D01*
X148626223Y-78016916D01*
X148846381Y-78038600D01*
X148993619Y-78038600D01*
X149213777Y-78016916D01*
X149269773Y-77999930D01*
X155215000Y-83945158D01*
X155215001Y-89311437D01*
X155211203Y-89350000D01*
X155226359Y-89503886D01*
X155271246Y-89651859D01*
X155273386Y-89655862D01*
X155344139Y-89788233D01*
X155350997Y-89796589D01*
X155417655Y-89877812D01*
X155417659Y-89877816D01*
X155442237Y-89907764D01*
X155472185Y-89932342D01*
X158050974Y-92511132D01*
X158036487Y-92558889D01*
X158015000Y-92777050D01*
X158015000Y-93222949D01*
X158036487Y-93441110D01*
X158121401Y-93721033D01*
X158259294Y-93979013D01*
X158444866Y-94205134D01*
X158456888Y-94215000D01*
X155325157Y-94215000D01*
X154488072Y-93377915D01*
X154488072Y-92250000D01*
X154471008Y-92076746D01*
X154420472Y-91910150D01*
X154338405Y-91756614D01*
X154227962Y-91622038D01*
X154093386Y-91511595D01*
X153939850Y-91429528D01*
X153785000Y-91382555D01*
X153785000Y-86617445D01*
X153939850Y-86570472D01*
X154093386Y-86488405D01*
X154227962Y-86377962D01*
X154338405Y-86243386D01*
X154420472Y-86089850D01*
X154471008Y-85923254D01*
X154488072Y-85750000D01*
X154488072Y-84250000D01*
X154471008Y-84076746D01*
X154420472Y-83910150D01*
X154338405Y-83756614D01*
X154227962Y-83622038D01*
X154093386Y-83511595D01*
X153939850Y-83429528D01*
X153773254Y-83378992D01*
X153600000Y-83361928D01*
X152472085Y-83361928D01*
X152232337Y-83122180D01*
X152207754Y-83092226D01*
X152088223Y-82994128D01*
X151951850Y-82921236D01*
X151803877Y-82876349D01*
X151688551Y-82864990D01*
X151688543Y-82864990D01*
X151649990Y-82861193D01*
X151611437Y-82864990D01*
X148735148Y-82864990D01*
X143908757Y-78038600D01*
X143913619Y-78038600D01*
X144133777Y-78016916D01*
X144416264Y-77931225D01*
X144676606Y-77792069D01*
X144904797Y-77604797D01*
X145092069Y-77376606D01*
X145110000Y-77343060D01*
X145127931Y-77376606D01*
X145315203Y-77604797D01*
X145543394Y-77792069D01*
X145803736Y-77931225D01*
X146086223Y-78016916D01*
X146306381Y-78038600D01*
X146453619Y-78038600D01*
X146673777Y-78016916D01*
X146956264Y-77931225D01*
X147216606Y-77792069D01*
X147444797Y-77604797D01*
X147632069Y-77376606D01*
X147650000Y-77343060D01*
X147667931Y-77376606D01*
X147667931Y-77376606D01*
G37*
X147667931Y-77376606D02*
X147855203Y-77604797D01*
X148083394Y-77792069D01*
X148343736Y-77931225D01*
X148626223Y-78016916D01*
X148846381Y-78038600D01*
X148993619Y-78038600D01*
X149213777Y-78016916D01*
X149269773Y-77999930D01*
X155215000Y-83945158D01*
X155215001Y-89311437D01*
X155211203Y-89350000D01*
X155226359Y-89503886D01*
X155271246Y-89651859D01*
X155273386Y-89655862D01*
X155344139Y-89788233D01*
X155350997Y-89796589D01*
X155417655Y-89877812D01*
X155417659Y-89877816D01*
X155442237Y-89907764D01*
X155472185Y-89932342D01*
X158050974Y-92511132D01*
X158036487Y-92558889D01*
X158015000Y-92777050D01*
X158015000Y-93222949D01*
X158036487Y-93441110D01*
X158121401Y-93721033D01*
X158259294Y-93979013D01*
X158444866Y-94205134D01*
X158456888Y-94215000D01*
X155325157Y-94215000D01*
X154488072Y-93377915D01*
X154488072Y-92250000D01*
X154471008Y-92076746D01*
X154420472Y-91910150D01*
X154338405Y-91756614D01*
X154227962Y-91622038D01*
X154093386Y-91511595D01*
X153939850Y-91429528D01*
X153785000Y-91382555D01*
X153785000Y-86617445D01*
X153939850Y-86570472D01*
X154093386Y-86488405D01*
X154227962Y-86377962D01*
X154338405Y-86243386D01*
X154420472Y-86089850D01*
X154471008Y-85923254D01*
X154488072Y-85750000D01*
X154488072Y-84250000D01*
X154471008Y-84076746D01*
X154420472Y-83910150D01*
X154338405Y-83756614D01*
X154227962Y-83622038D01*
X154093386Y-83511595D01*
X153939850Y-83429528D01*
X153773254Y-83378992D01*
X153600000Y-83361928D01*
X152472085Y-83361928D01*
X152232337Y-83122180D01*
X152207754Y-83092226D01*
X152088223Y-82994128D01*
X151951850Y-82921236D01*
X151803877Y-82876349D01*
X151688551Y-82864990D01*
X151688543Y-82864990D01*
X151649990Y-82861193D01*
X151611437Y-82864990D01*
X148735148Y-82864990D01*
X143908757Y-78038600D01*
X143913619Y-78038600D01*
X144133777Y-78016916D01*
X144416264Y-77931225D01*
X144676606Y-77792069D01*
X144904797Y-77604797D01*
X145092069Y-77376606D01*
X145110000Y-77343060D01*
X145127931Y-77376606D01*
X145315203Y-77604797D01*
X145543394Y-77792069D01*
X145803736Y-77931225D01*
X146086223Y-78016916D01*
X146306381Y-78038600D01*
X146453619Y-78038600D01*
X146673777Y-78016916D01*
X146956264Y-77931225D01*
X147216606Y-77792069D01*
X147444797Y-77604797D01*
X147632069Y-77376606D01*
X147650000Y-77343060D01*
X147667931Y-77376606D01*
G36*
X141006223Y-78016916D02*
G01*
X141226381Y-78038600D01*
X141373619Y-78038600D01*
X141593777Y-78016916D01*
X141649773Y-77999930D01*
X147827648Y-84177806D01*
X147852226Y-84207754D01*
X147882174Y-84232332D01*
X147882177Y-84232335D01*
X147901671Y-84248333D01*
X147971757Y-84305852D01*
X148108130Y-84378744D01*
X148207202Y-84408797D01*
X148256102Y-84423631D01*
X148270480Y-84425047D01*
X148371429Y-84434990D01*
X148371436Y-84434990D01*
X148409989Y-84438787D01*
X148448542Y-84434990D01*
X149074071Y-84434990D01*
X149036487Y-84558889D01*
X149015000Y-84777050D01*
X149015000Y-85222949D01*
X149036487Y-85441110D01*
X149121401Y-85721033D01*
X149259294Y-85979013D01*
X149444866Y-86205134D01*
X149670986Y-86390706D01*
X149928966Y-86528599D01*
X150208889Y-86613513D01*
X150500000Y-86642185D01*
X150791110Y-86613513D01*
X151071033Y-86528599D01*
X151329013Y-86390706D01*
X151555134Y-86205134D01*
X151607223Y-86141663D01*
X151661595Y-86243386D01*
X151772038Y-86377962D01*
X151906614Y-86488405D01*
X152060150Y-86570472D01*
X152215000Y-86617445D01*
X152215001Y-91382555D01*
X152060150Y-91429528D01*
X151906614Y-91511595D01*
X151772038Y-91622038D01*
X151661595Y-91756614D01*
X151607223Y-91858337D01*
X151555134Y-91794866D01*
X151329014Y-91609294D01*
X151071034Y-91471401D01*
X150791111Y-91386487D01*
X150500000Y-91357815D01*
X150208890Y-91386487D01*
X149928967Y-91471401D01*
X149670987Y-91609294D01*
X149444866Y-91794866D01*
X149359294Y-91899136D01*
X145932347Y-88472190D01*
X145907764Y-88442236D01*
X145788233Y-88344138D01*
X145651860Y-88271246D01*
X145503887Y-88226359D01*
X145388561Y-88215000D01*
X145388553Y-88215000D01*
X145350000Y-88211203D01*
X145311447Y-88215000D01*
X141325158Y-88215000D01*
X140758601Y-87648444D01*
X140758601Y-86437537D01*
X140928966Y-86528599D01*
X141208889Y-86613513D01*
X141500000Y-86642185D01*
X141791110Y-86613513D01*
X142071033Y-86528599D01*
X142329013Y-86390706D01*
X142555134Y-86205134D01*
X142607223Y-86141663D01*
X142661595Y-86243386D01*
X142772038Y-86377962D01*
X142906614Y-86488405D01*
X143060150Y-86570472D01*
X143226746Y-86621008D01*
X143400000Y-86638072D01*
X144600000Y-86638072D01*
X144773254Y-86621008D01*
X144939850Y-86570472D01*
X145093386Y-86488405D01*
X145227962Y-86377962D01*
X145338405Y-86243386D01*
X145420472Y-86089850D01*
X145471008Y-85923254D01*
X145488072Y-85750000D01*
X145488072Y-84250000D01*
X145471008Y-84076746D01*
X145420472Y-83910150D01*
X145338405Y-83756614D01*
X145227962Y-83622038D01*
X145093386Y-83511595D01*
X144939850Y-83429528D01*
X144773254Y-83378992D01*
X144600000Y-83361928D01*
X143400000Y-83361928D01*
X143226746Y-83378992D01*
X143060150Y-83429528D01*
X142906614Y-83511595D01*
X142772038Y-83622038D01*
X142661595Y-83756614D01*
X142607223Y-83858337D01*
X142555134Y-83794866D01*
X142329014Y-83609294D01*
X142071034Y-83471401D01*
X141791111Y-83386487D01*
X141500000Y-83357815D01*
X141208890Y-83386487D01*
X140928967Y-83471401D01*
X140758601Y-83562463D01*
X140758601Y-77941801D01*
X141006223Y-78016916D01*
X141006223Y-78016916D01*
G37*
X141006223Y-78016916D02*
X141226381Y-78038600D01*
X141373619Y-78038600D01*
X141593777Y-78016916D01*
X141649773Y-77999930D01*
X147827648Y-84177806D01*
X147852226Y-84207754D01*
X147882174Y-84232332D01*
X147882177Y-84232335D01*
X147901671Y-84248333D01*
X147971757Y-84305852D01*
X148108130Y-84378744D01*
X148207202Y-84408797D01*
X148256102Y-84423631D01*
X148270480Y-84425047D01*
X148371429Y-84434990D01*
X148371436Y-84434990D01*
X148409989Y-84438787D01*
X148448542Y-84434990D01*
X149074071Y-84434990D01*
X149036487Y-84558889D01*
X149015000Y-84777050D01*
X149015000Y-85222949D01*
X149036487Y-85441110D01*
X149121401Y-85721033D01*
X149259294Y-85979013D01*
X149444866Y-86205134D01*
X149670986Y-86390706D01*
X149928966Y-86528599D01*
X150208889Y-86613513D01*
X150500000Y-86642185D01*
X150791110Y-86613513D01*
X151071033Y-86528599D01*
X151329013Y-86390706D01*
X151555134Y-86205134D01*
X151607223Y-86141663D01*
X151661595Y-86243386D01*
X151772038Y-86377962D01*
X151906614Y-86488405D01*
X152060150Y-86570472D01*
X152215000Y-86617445D01*
X152215001Y-91382555D01*
X152060150Y-91429528D01*
X151906614Y-91511595D01*
X151772038Y-91622038D01*
X151661595Y-91756614D01*
X151607223Y-91858337D01*
X151555134Y-91794866D01*
X151329014Y-91609294D01*
X151071034Y-91471401D01*
X150791111Y-91386487D01*
X150500000Y-91357815D01*
X150208890Y-91386487D01*
X149928967Y-91471401D01*
X149670987Y-91609294D01*
X149444866Y-91794866D01*
X149359294Y-91899136D01*
X145932347Y-88472190D01*
X145907764Y-88442236D01*
X145788233Y-88344138D01*
X145651860Y-88271246D01*
X145503887Y-88226359D01*
X145388561Y-88215000D01*
X145388553Y-88215000D01*
X145350000Y-88211203D01*
X145311447Y-88215000D01*
X141325158Y-88215000D01*
X140758601Y-87648444D01*
X140758601Y-86437537D01*
X140928966Y-86528599D01*
X141208889Y-86613513D01*
X141500000Y-86642185D01*
X141791110Y-86613513D01*
X142071033Y-86528599D01*
X142329013Y-86390706D01*
X142555134Y-86205134D01*
X142607223Y-86141663D01*
X142661595Y-86243386D01*
X142772038Y-86377962D01*
X142906614Y-86488405D01*
X143060150Y-86570472D01*
X143226746Y-86621008D01*
X143400000Y-86638072D01*
X144600000Y-86638072D01*
X144773254Y-86621008D01*
X144939850Y-86570472D01*
X145093386Y-86488405D01*
X145227962Y-86377962D01*
X145338405Y-86243386D01*
X145420472Y-86089850D01*
X145471008Y-85923254D01*
X145488072Y-85750000D01*
X145488072Y-84250000D01*
X145471008Y-84076746D01*
X145420472Y-83910150D01*
X145338405Y-83756614D01*
X145227962Y-83622038D01*
X145093386Y-83511595D01*
X144939850Y-83429528D01*
X144773254Y-83378992D01*
X144600000Y-83361928D01*
X143400000Y-83361928D01*
X143226746Y-83378992D01*
X143060150Y-83429528D01*
X142906614Y-83511595D01*
X142772038Y-83622038D01*
X142661595Y-83756614D01*
X142607223Y-83858337D01*
X142555134Y-83794866D01*
X142329014Y-83609294D01*
X142071034Y-83471401D01*
X141791111Y-83386487D01*
X141500000Y-83357815D01*
X141208890Y-83386487D01*
X140928967Y-83471401D01*
X140758601Y-83562463D01*
X140758601Y-77941801D01*
X141006223Y-78016916D01*
G36*
X158715000Y-78661557D02*
G01*
X158715001Y-83585768D01*
X158670987Y-83609294D01*
X158444866Y-83794866D01*
X158259294Y-84020986D01*
X158121401Y-84278966D01*
X158036487Y-84558889D01*
X158015000Y-84777050D01*
X158015000Y-85222949D01*
X158036487Y-85441110D01*
X158121401Y-85721033D01*
X158259294Y-85979013D01*
X158444866Y-86205134D01*
X158670986Y-86390706D01*
X158928966Y-86528599D01*
X159208889Y-86613513D01*
X159500000Y-86642185D01*
X159791110Y-86613513D01*
X160071033Y-86528599D01*
X160329013Y-86390706D01*
X160555134Y-86205134D01*
X160607223Y-86141663D01*
X160661595Y-86243386D01*
X160772038Y-86377962D01*
X160906614Y-86488405D01*
X161060150Y-86570472D01*
X161215000Y-86617445D01*
X161215001Y-91382555D01*
X161060150Y-91429528D01*
X160906614Y-91511595D01*
X160772038Y-91622038D01*
X160661595Y-91756614D01*
X160607223Y-91858337D01*
X160555134Y-91794866D01*
X160329014Y-91609294D01*
X160071034Y-91471401D01*
X159791111Y-91386487D01*
X159500000Y-91357815D01*
X159208890Y-91386487D01*
X159161132Y-91400974D01*
X156785000Y-89024843D01*
X156785000Y-83658552D01*
X156788797Y-83619999D01*
X156785000Y-83581446D01*
X156785000Y-83581439D01*
X156773641Y-83466113D01*
X156728754Y-83318140D01*
X156655862Y-83181767D01*
X156557764Y-83062236D01*
X156527817Y-83037659D01*
X151528757Y-78038600D01*
X151533619Y-78038600D01*
X151753777Y-78016916D01*
X152036264Y-77931225D01*
X152296606Y-77792069D01*
X152524797Y-77604797D01*
X152712069Y-77376606D01*
X152730000Y-77343060D01*
X152747931Y-77376606D01*
X152935203Y-77604797D01*
X153163394Y-77792069D01*
X153423736Y-77931225D01*
X153706223Y-78016916D01*
X153926381Y-78038600D01*
X154073619Y-78038600D01*
X154293777Y-78016916D01*
X154576264Y-77931225D01*
X154836606Y-77792069D01*
X155064797Y-77604797D01*
X155252069Y-77376606D01*
X155391225Y-77116264D01*
X155476916Y-76833777D01*
X155505851Y-76540000D01*
X155476916Y-76246223D01*
X155391225Y-75963736D01*
X155252069Y-75703394D01*
X155064797Y-75475203D01*
X155056735Y-75468586D01*
X155107780Y-75453102D01*
X155218094Y-75394137D01*
X155314785Y-75314785D01*
X155338875Y-75285432D01*
X158715000Y-78661557D01*
X158715000Y-78661557D01*
G37*
X158715000Y-78661557D02*
X158715001Y-83585768D01*
X158670987Y-83609294D01*
X158444866Y-83794866D01*
X158259294Y-84020986D01*
X158121401Y-84278966D01*
X158036487Y-84558889D01*
X158015000Y-84777050D01*
X158015000Y-85222949D01*
X158036487Y-85441110D01*
X158121401Y-85721033D01*
X158259294Y-85979013D01*
X158444866Y-86205134D01*
X158670986Y-86390706D01*
X158928966Y-86528599D01*
X159208889Y-86613513D01*
X159500000Y-86642185D01*
X159791110Y-86613513D01*
X160071033Y-86528599D01*
X160329013Y-86390706D01*
X160555134Y-86205134D01*
X160607223Y-86141663D01*
X160661595Y-86243386D01*
X160772038Y-86377962D01*
X160906614Y-86488405D01*
X161060150Y-86570472D01*
X161215000Y-86617445D01*
X161215001Y-91382555D01*
X161060150Y-91429528D01*
X160906614Y-91511595D01*
X160772038Y-91622038D01*
X160661595Y-91756614D01*
X160607223Y-91858337D01*
X160555134Y-91794866D01*
X160329014Y-91609294D01*
X160071034Y-91471401D01*
X159791111Y-91386487D01*
X159500000Y-91357815D01*
X159208890Y-91386487D01*
X159161132Y-91400974D01*
X156785000Y-89024843D01*
X156785000Y-83658552D01*
X156788797Y-83619999D01*
X156785000Y-83581446D01*
X156785000Y-83581439D01*
X156773641Y-83466113D01*
X156728754Y-83318140D01*
X156655862Y-83181767D01*
X156557764Y-83062236D01*
X156527817Y-83037659D01*
X151528757Y-78038600D01*
X151533619Y-78038600D01*
X151753777Y-78016916D01*
X152036264Y-77931225D01*
X152296606Y-77792069D01*
X152524797Y-77604797D01*
X152712069Y-77376606D01*
X152730000Y-77343060D01*
X152747931Y-77376606D01*
X152935203Y-77604797D01*
X153163394Y-77792069D01*
X153423736Y-77931225D01*
X153706223Y-78016916D01*
X153926381Y-78038600D01*
X154073619Y-78038600D01*
X154293777Y-78016916D01*
X154576264Y-77931225D01*
X154836606Y-77792069D01*
X155064797Y-77604797D01*
X155252069Y-77376606D01*
X155391225Y-77116264D01*
X155476916Y-76833777D01*
X155505851Y-76540000D01*
X155476916Y-76246223D01*
X155391225Y-75963736D01*
X155252069Y-75703394D01*
X155064797Y-75475203D01*
X155056735Y-75468586D01*
X155107780Y-75453102D01*
X155218094Y-75394137D01*
X155314785Y-75314785D01*
X155338875Y-75285432D01*
X158715000Y-78661557D01*
G36*
X122434776Y-91455067D02*
G01*
X122291111Y-91411487D01*
X122093166Y-91391991D01*
X124700158Y-88785000D01*
X125104843Y-88785000D01*
X122434776Y-91455067D01*
X122434776Y-91455067D01*
G37*
X122434776Y-91455067D02*
X122291111Y-91411487D01*
X122093166Y-91391991D01*
X124700158Y-88785000D01*
X125104843Y-88785000D01*
X122434776Y-91455067D01*
G36*
X129887931Y-77376606D02*
G01*
X130075203Y-77604797D01*
X130303394Y-77792069D01*
X130563736Y-77931225D01*
X130846223Y-78016916D01*
X131066381Y-78038600D01*
X131213619Y-78038600D01*
X131433777Y-78016916D01*
X131681399Y-77941801D01*
X131681400Y-81501320D01*
X128488072Y-84694649D01*
X128488072Y-84275000D01*
X128471008Y-84101746D01*
X128420472Y-83935150D01*
X128338405Y-83781614D01*
X128227962Y-83647038D01*
X128093386Y-83536595D01*
X127939850Y-83454528D01*
X127773254Y-83403992D01*
X127600000Y-83386928D01*
X126723229Y-83386928D01*
X128527816Y-81582342D01*
X128557764Y-81557764D01*
X128655862Y-81438233D01*
X128728754Y-81301860D01*
X128738041Y-81271246D01*
X128773641Y-81153888D01*
X128778728Y-81102236D01*
X128785000Y-81038561D01*
X128785000Y-81038554D01*
X128788797Y-81000001D01*
X128785000Y-80961448D01*
X128785000Y-78686471D01*
X129127815Y-78343657D01*
X129157764Y-78319078D01*
X129255862Y-78199547D01*
X129328754Y-78063174D01*
X129368780Y-77931225D01*
X129373641Y-77915202D01*
X129376758Y-77883550D01*
X129382944Y-77820752D01*
X129436606Y-77792069D01*
X129664797Y-77604797D01*
X129852069Y-77376606D01*
X129870000Y-77343060D01*
X129887931Y-77376606D01*
X129887931Y-77376606D01*
G37*
X129887931Y-77376606D02*
X130075203Y-77604797D01*
X130303394Y-77792069D01*
X130563736Y-77931225D01*
X130846223Y-78016916D01*
X131066381Y-78038600D01*
X131213619Y-78038600D01*
X131433777Y-78016916D01*
X131681399Y-77941801D01*
X131681400Y-81501320D01*
X128488072Y-84694649D01*
X128488072Y-84275000D01*
X128471008Y-84101746D01*
X128420472Y-83935150D01*
X128338405Y-83781614D01*
X128227962Y-83647038D01*
X128093386Y-83536595D01*
X127939850Y-83454528D01*
X127773254Y-83403992D01*
X127600000Y-83386928D01*
X126723229Y-83386928D01*
X128527816Y-81582342D01*
X128557764Y-81557764D01*
X128655862Y-81438233D01*
X128728754Y-81301860D01*
X128738041Y-81271246D01*
X128773641Y-81153888D01*
X128778728Y-81102236D01*
X128785000Y-81038561D01*
X128785000Y-81038554D01*
X128788797Y-81000001D01*
X128785000Y-80961448D01*
X128785000Y-78686471D01*
X129127815Y-78343657D01*
X129157764Y-78319078D01*
X129255862Y-78199547D01*
X129328754Y-78063174D01*
X129368780Y-77931225D01*
X129373641Y-77915202D01*
X129376758Y-77883550D01*
X129382944Y-77820752D01*
X129436606Y-77792069D01*
X129664797Y-77604797D01*
X129852069Y-77376606D01*
X129870000Y-77343060D01*
X129887931Y-77376606D01*
G36*
X114472236Y-84496840D02*
G01*
X114439850Y-84479529D01*
X114273253Y-84428992D01*
X114099999Y-84411928D01*
X112880310Y-84411928D01*
X119117239Y-78175000D01*
X120794075Y-78175000D01*
X114472236Y-84496840D01*
X114472236Y-84496840D01*
G37*
X114472236Y-84496840D02*
X114439850Y-84479529D01*
X114273253Y-84428992D01*
X114099999Y-84411928D01*
X112880310Y-84411928D01*
X119117239Y-78175000D01*
X120794075Y-78175000D01*
X114472236Y-84496840D01*
G36*
X123444866Y-83819866D02*
G01*
X123259294Y-84045986D01*
X123250000Y-84063374D01*
X123240706Y-84045986D01*
X123055134Y-83819866D01*
X123033250Y-83801907D01*
X123050157Y-83785000D01*
X123487351Y-83785000D01*
X123444866Y-83819866D01*
X123444866Y-83819866D01*
G37*
X123444866Y-83819866D02*
X123259294Y-84045986D01*
X123250000Y-84063374D01*
X123240706Y-84045986D01*
X123055134Y-83819866D01*
X123033250Y-83801907D01*
X123050157Y-83785000D01*
X123487351Y-83785000D01*
X123444866Y-83819866D01*
G36*
X125607223Y-83883337D02*
G01*
X125555134Y-83819866D01*
X125512650Y-83785000D01*
X125659785Y-83785000D01*
X125607223Y-83883337D01*
X125607223Y-83883337D01*
G37*
X125607223Y-83883337D02*
X125555134Y-83819866D01*
X125512650Y-83785000D01*
X125659785Y-83785000D01*
X125607223Y-83883337D01*
G36*
X137975001Y-81334841D02*
G01*
X136486595Y-82823247D01*
X136463513Y-82588889D01*
X136449026Y-82541131D01*
X137975001Y-81015156D01*
X137975001Y-81334841D01*
X137975001Y-81334841D01*
G37*
X137975001Y-81334841D02*
X136486595Y-82823247D01*
X136463513Y-82588889D01*
X136449026Y-82541131D01*
X137975001Y-81015156D01*
X137975001Y-81334841D01*
G36*
X134967931Y-77376606D02*
G01*
X135155203Y-77604797D01*
X135383394Y-77792069D01*
X135643736Y-77931225D01*
X135926223Y-78016916D01*
X136146381Y-78038600D01*
X136293619Y-78038600D01*
X136513777Y-78016916D01*
X136761400Y-77941801D01*
X136761400Y-80008443D01*
X135338869Y-81430974D01*
X135291111Y-81416487D01*
X135072950Y-81395000D01*
X134927050Y-81395000D01*
X134708889Y-81416487D01*
X134428966Y-81501401D01*
X134170986Y-81639294D01*
X133944866Y-81824866D01*
X133787114Y-82017087D01*
X133788797Y-82000001D01*
X133785000Y-81961448D01*
X133785000Y-78766471D01*
X134207815Y-78343657D01*
X134237764Y-78319078D01*
X134335862Y-78199547D01*
X134408754Y-78063174D01*
X134448780Y-77931225D01*
X134453641Y-77915202D01*
X134456758Y-77883550D01*
X134462944Y-77820752D01*
X134516606Y-77792069D01*
X134744797Y-77604797D01*
X134932069Y-77376606D01*
X134950000Y-77343060D01*
X134967931Y-77376606D01*
X134967931Y-77376606D01*
G37*
X134967931Y-77376606D02*
X135155203Y-77604797D01*
X135383394Y-77792069D01*
X135643736Y-77931225D01*
X135926223Y-78016916D01*
X136146381Y-78038600D01*
X136293619Y-78038600D01*
X136513777Y-78016916D01*
X136761400Y-77941801D01*
X136761400Y-80008443D01*
X135338869Y-81430974D01*
X135291111Y-81416487D01*
X135072950Y-81395000D01*
X134927050Y-81395000D01*
X134708889Y-81416487D01*
X134428966Y-81501401D01*
X134170986Y-81639294D01*
X133944866Y-81824866D01*
X133787114Y-82017087D01*
X133788797Y-82000001D01*
X133785000Y-81961448D01*
X133785000Y-78766471D01*
X134207815Y-78343657D01*
X134237764Y-78319078D01*
X134335862Y-78199547D01*
X134408754Y-78063174D01*
X134448780Y-77931225D01*
X134453641Y-77915202D01*
X134456758Y-77883550D01*
X134462944Y-77820752D01*
X134516606Y-77792069D01*
X134744797Y-77604797D01*
X134932069Y-77376606D01*
X134950000Y-77343060D01*
X134967931Y-77376606D01*
G36*
X125223394Y-77792069D02*
G01*
X125483736Y-77931225D01*
X125766223Y-78016916D01*
X125986381Y-78038600D01*
X126133619Y-78038600D01*
X126353777Y-78016916D01*
X126601400Y-77941801D01*
X126601400Y-80288442D01*
X125674843Y-81215000D01*
X122413553Y-81215000D01*
X122381691Y-81211862D01*
X124619319Y-78974234D01*
X124681714Y-78923028D01*
X124886031Y-78674066D01*
X125037852Y-78390029D01*
X125131343Y-78081830D01*
X125155000Y-77841636D01*
X125155000Y-77841634D01*
X125162911Y-77761314D01*
X125160888Y-77740771D01*
X125223394Y-77792069D01*
X125223394Y-77792069D01*
G37*
X125223394Y-77792069D02*
X125483736Y-77931225D01*
X125766223Y-78016916D01*
X125986381Y-78038600D01*
X126133619Y-78038600D01*
X126353777Y-78016916D01*
X126601400Y-77941801D01*
X126601400Y-80288442D01*
X125674843Y-81215000D01*
X122413553Y-81215000D01*
X122381691Y-81211862D01*
X124619319Y-78974234D01*
X124681714Y-78923028D01*
X124886031Y-78674066D01*
X125037852Y-78390029D01*
X125131343Y-78081830D01*
X125155000Y-77841636D01*
X125155000Y-77841634D01*
X125162911Y-77761314D01*
X125160888Y-77740771D01*
X125223394Y-77792069D01*
G36*
X150207931Y-74836606D02*
G01*
X150395203Y-75064797D01*
X150623394Y-75252069D01*
X150656940Y-75270000D01*
X150623394Y-75287931D01*
X150395203Y-75475203D01*
X150207931Y-75703394D01*
X150190000Y-75736940D01*
X150172069Y-75703394D01*
X149984797Y-75475203D01*
X149756606Y-75287931D01*
X149723060Y-75270000D01*
X149756606Y-75252069D01*
X149984797Y-75064797D01*
X150172069Y-74836606D01*
X150190000Y-74803060D01*
X150207931Y-74836606D01*
X150207931Y-74836606D01*
G37*
X150207931Y-74836606D02*
X150395203Y-75064797D01*
X150623394Y-75252069D01*
X150656940Y-75270000D01*
X150623394Y-75287931D01*
X150395203Y-75475203D01*
X150207931Y-75703394D01*
X150190000Y-75736940D01*
X150172069Y-75703394D01*
X149984797Y-75475203D01*
X149756606Y-75287931D01*
X149723060Y-75270000D01*
X149756606Y-75252069D01*
X149984797Y-75064797D01*
X150172069Y-74836606D01*
X150190000Y-74803060D01*
X150207931Y-74836606D01*
G36*
X147667931Y-74836606D02*
G01*
X147855203Y-75064797D01*
X148083394Y-75252069D01*
X148116940Y-75270000D01*
X148083394Y-75287931D01*
X147855203Y-75475203D01*
X147667931Y-75703394D01*
X147650000Y-75736940D01*
X147632069Y-75703394D01*
X147444797Y-75475203D01*
X147216606Y-75287931D01*
X147183060Y-75270000D01*
X147216606Y-75252069D01*
X147444797Y-75064797D01*
X147632069Y-74836606D01*
X147650000Y-74803060D01*
X147667931Y-74836606D01*
X147667931Y-74836606D01*
G37*
X147667931Y-74836606D02*
X147855203Y-75064797D01*
X148083394Y-75252069D01*
X148116940Y-75270000D01*
X148083394Y-75287931D01*
X147855203Y-75475203D01*
X147667931Y-75703394D01*
X147650000Y-75736940D01*
X147632069Y-75703394D01*
X147444797Y-75475203D01*
X147216606Y-75287931D01*
X147183060Y-75270000D01*
X147216606Y-75252069D01*
X147444797Y-75064797D01*
X147632069Y-74836606D01*
X147650000Y-74803060D01*
X147667931Y-74836606D01*
G36*
X145127931Y-74836606D02*
G01*
X145315203Y-75064797D01*
X145543394Y-75252069D01*
X145576940Y-75270000D01*
X145543394Y-75287931D01*
X145315203Y-75475203D01*
X145127931Y-75703394D01*
X145110000Y-75736940D01*
X145092069Y-75703394D01*
X144904797Y-75475203D01*
X144676606Y-75287931D01*
X144643060Y-75270000D01*
X144676606Y-75252069D01*
X144904797Y-75064797D01*
X145092069Y-74836606D01*
X145110000Y-74803060D01*
X145127931Y-74836606D01*
X145127931Y-74836606D01*
G37*
X145127931Y-74836606D02*
X145315203Y-75064797D01*
X145543394Y-75252069D01*
X145576940Y-75270000D01*
X145543394Y-75287931D01*
X145315203Y-75475203D01*
X145127931Y-75703394D01*
X145110000Y-75736940D01*
X145092069Y-75703394D01*
X144904797Y-75475203D01*
X144676606Y-75287931D01*
X144643060Y-75270000D01*
X144676606Y-75252069D01*
X144904797Y-75064797D01*
X145092069Y-74836606D01*
X145110000Y-74803060D01*
X145127931Y-74836606D01*
G36*
X152546898Y-75107780D02*
G01*
X152605863Y-75218094D01*
X152685215Y-75314785D01*
X152781906Y-75394137D01*
X152892220Y-75453102D01*
X152943265Y-75468586D01*
X152935203Y-75475203D01*
X152747931Y-75703394D01*
X152730000Y-75736940D01*
X152712069Y-75703394D01*
X152524797Y-75475203D01*
X152296606Y-75287931D01*
X152263060Y-75270000D01*
X152296606Y-75252069D01*
X152524797Y-75064797D01*
X152531414Y-75056735D01*
X152546898Y-75107780D01*
X152546898Y-75107780D01*
G37*
X152546898Y-75107780D02*
X152605863Y-75218094D01*
X152685215Y-75314785D01*
X152781906Y-75394137D01*
X152892220Y-75453102D01*
X152943265Y-75468586D01*
X152935203Y-75475203D01*
X152747931Y-75703394D01*
X152730000Y-75736940D01*
X152712069Y-75703394D01*
X152524797Y-75475203D01*
X152296606Y-75287931D01*
X152263060Y-75270000D01*
X152296606Y-75252069D01*
X152524797Y-75064797D01*
X152531414Y-75056735D01*
X152546898Y-75107780D01*
G36*
X134967931Y-74836606D02*
G01*
X135155203Y-75064797D01*
X135383394Y-75252069D01*
X135416940Y-75270000D01*
X135383394Y-75287931D01*
X135155203Y-75475203D01*
X134967931Y-75703394D01*
X134950000Y-75736940D01*
X134932069Y-75703394D01*
X134744797Y-75475203D01*
X134516606Y-75287931D01*
X134483060Y-75270000D01*
X134516606Y-75252069D01*
X134744797Y-75064797D01*
X134932069Y-74836606D01*
X134950000Y-74803060D01*
X134967931Y-74836606D01*
X134967931Y-74836606D01*
G37*
X134967931Y-74836606D02*
X135155203Y-75064797D01*
X135383394Y-75252069D01*
X135416940Y-75270000D01*
X135383394Y-75287931D01*
X135155203Y-75475203D01*
X134967931Y-75703394D01*
X134950000Y-75736940D01*
X134932069Y-75703394D01*
X134744797Y-75475203D01*
X134516606Y-75287931D01*
X134483060Y-75270000D01*
X134516606Y-75252069D01*
X134744797Y-75064797D01*
X134932069Y-74836606D01*
X134950000Y-74803060D01*
X134967931Y-74836606D01*
G36*
X129887931Y-74836606D02*
G01*
X130075203Y-75064797D01*
X130303394Y-75252069D01*
X130336940Y-75270000D01*
X130303394Y-75287931D01*
X130075203Y-75475203D01*
X129887931Y-75703394D01*
X129870000Y-75736940D01*
X129852069Y-75703394D01*
X129664797Y-75475203D01*
X129436606Y-75287931D01*
X129403060Y-75270000D01*
X129436606Y-75252069D01*
X129664797Y-75064797D01*
X129852069Y-74836606D01*
X129870000Y-74803060D01*
X129887931Y-74836606D01*
X129887931Y-74836606D01*
G37*
X129887931Y-74836606D02*
X130075203Y-75064797D01*
X130303394Y-75252069D01*
X130336940Y-75270000D01*
X130303394Y-75287931D01*
X130075203Y-75475203D01*
X129887931Y-75703394D01*
X129870000Y-75736940D01*
X129852069Y-75703394D01*
X129664797Y-75475203D01*
X129436606Y-75287931D01*
X129403060Y-75270000D01*
X129436606Y-75252069D01*
X129664797Y-75064797D01*
X129852069Y-74836606D01*
X129870000Y-74803060D01*
X129887931Y-74836606D01*
G36*
X142587931Y-74836606D02*
G01*
X142775203Y-75064797D01*
X143003394Y-75252069D01*
X143036940Y-75270000D01*
X143003394Y-75287931D01*
X142775203Y-75475203D01*
X142587931Y-75703394D01*
X142570000Y-75736940D01*
X142552069Y-75703394D01*
X142364797Y-75475203D01*
X142136606Y-75287931D01*
X142103060Y-75270000D01*
X142136606Y-75252069D01*
X142364797Y-75064797D01*
X142552069Y-74836606D01*
X142570000Y-74803060D01*
X142587931Y-74836606D01*
X142587931Y-74836606D01*
G37*
X142587931Y-74836606D02*
X142775203Y-75064797D01*
X143003394Y-75252069D01*
X143036940Y-75270000D01*
X143003394Y-75287931D01*
X142775203Y-75475203D01*
X142587931Y-75703394D01*
X142570000Y-75736940D01*
X142552069Y-75703394D01*
X142364797Y-75475203D01*
X142136606Y-75287931D01*
X142103060Y-75270000D01*
X142136606Y-75252069D01*
X142364797Y-75064797D01*
X142552069Y-74836606D01*
X142570000Y-74803060D01*
X142587931Y-74836606D01*
G36*
X125223394Y-75252069D02*
G01*
X125256940Y-75270000D01*
X125223394Y-75287931D01*
X125155000Y-75344061D01*
X125155000Y-75195939D01*
X125223394Y-75252069D01*
X125223394Y-75252069D01*
G37*
X125223394Y-75252069D02*
X125256940Y-75270000D01*
X125223394Y-75287931D01*
X125155000Y-75344061D01*
X125155000Y-75195939D01*
X125223394Y-75252069D01*
G36*
X160564886Y-71001554D02*
G01*
X160221799Y-71515021D01*
X159985476Y-72085554D01*
X159865000Y-72691229D01*
X159865000Y-73308771D01*
X159985476Y-73914446D01*
X160221799Y-74484979D01*
X160564886Y-74998446D01*
X161001554Y-75435114D01*
X161515021Y-75778201D01*
X162085554Y-76014524D01*
X162691229Y-76135000D01*
X163308771Y-76135000D01*
X163914446Y-76014524D01*
X164484979Y-75778201D01*
X164998446Y-75435114D01*
X165340000Y-75093560D01*
X165340001Y-99906441D01*
X164998446Y-99564886D01*
X164484979Y-99221799D01*
X163914446Y-98985476D01*
X163308771Y-98865000D01*
X162691229Y-98865000D01*
X162085554Y-98985476D01*
X161515021Y-99221799D01*
X161001554Y-99564886D01*
X160564886Y-100001554D01*
X160221799Y-100515021D01*
X159985476Y-101085554D01*
X159865000Y-101691229D01*
X159865000Y-102308771D01*
X159985476Y-102914446D01*
X160221799Y-103484979D01*
X160564886Y-103998446D01*
X160906440Y-104340000D01*
X111093560Y-104340000D01*
X111435114Y-103998446D01*
X111778201Y-103484979D01*
X112014524Y-102914446D01*
X112135000Y-102308771D01*
X112135000Y-101691229D01*
X112014524Y-101085554D01*
X111778201Y-100515021D01*
X111435114Y-100001554D01*
X110998446Y-99564886D01*
X110484979Y-99221799D01*
X109914446Y-98985476D01*
X109308771Y-98865000D01*
X108691229Y-98865000D01*
X108085554Y-98985476D01*
X107515021Y-99221799D01*
X107001554Y-99564886D01*
X106660000Y-99906440D01*
X106660000Y-86204495D01*
X107055000Y-86204495D01*
X107055000Y-86595505D01*
X107131282Y-86979003D01*
X107280915Y-87340250D01*
X107498149Y-87665364D01*
X107774636Y-87941851D01*
X108099750Y-88159085D01*
X108460997Y-88308718D01*
X108844495Y-88385000D01*
X109235505Y-88385000D01*
X109619003Y-88308718D01*
X109980250Y-88159085D01*
X110305364Y-87941851D01*
X110581851Y-87665364D01*
X110799085Y-87340250D01*
X110948718Y-86979003D01*
X111011928Y-86661223D01*
X111011928Y-87499999D01*
X111028992Y-87673253D01*
X111079529Y-87839850D01*
X111161595Y-87993386D01*
X111272039Y-88127961D01*
X111406614Y-88238405D01*
X111560150Y-88320471D01*
X111726747Y-88371008D01*
X111900001Y-88388072D01*
X114099999Y-88388072D01*
X114273253Y-88371008D01*
X114439850Y-88320471D01*
X114593386Y-88238405D01*
X114727961Y-88127961D01*
X114804009Y-88035297D01*
X114881314Y-88042911D01*
X114961633Y-88035000D01*
X114961636Y-88035000D01*
X115201830Y-88011343D01*
X115510029Y-87917852D01*
X115794066Y-87766031D01*
X116043028Y-87561714D01*
X116094239Y-87499313D01*
X118069294Y-85524259D01*
X118121401Y-85696033D01*
X118259294Y-85954013D01*
X118444866Y-86180134D01*
X118670986Y-86365706D01*
X118928966Y-86503599D01*
X119208889Y-86588513D01*
X119500000Y-86617185D01*
X119791110Y-86588513D01*
X120071033Y-86503599D01*
X120329013Y-86365706D01*
X120555134Y-86180134D01*
X120740706Y-85954014D01*
X120750000Y-85936626D01*
X120759294Y-85954013D01*
X120944866Y-86180134D01*
X121170986Y-86365706D01*
X121428966Y-86503599D01*
X121708889Y-86588513D01*
X122000000Y-86617185D01*
X122291110Y-86588513D01*
X122571033Y-86503599D01*
X122829013Y-86365706D01*
X123055134Y-86180134D01*
X123240706Y-85954014D01*
X123250000Y-85936626D01*
X123259294Y-85954013D01*
X123444866Y-86180134D01*
X123670986Y-86365706D01*
X123928966Y-86503599D01*
X124208889Y-86588513D01*
X124500000Y-86617185D01*
X124791110Y-86588513D01*
X125071033Y-86503599D01*
X125329013Y-86365706D01*
X125555134Y-86180134D01*
X125607223Y-86116663D01*
X125661595Y-86218386D01*
X125772038Y-86352962D01*
X125906614Y-86463405D01*
X126060150Y-86545472D01*
X126226746Y-86596008D01*
X126400000Y-86613072D01*
X126569649Y-86613072D01*
X125967721Y-87215000D01*
X124413552Y-87215000D01*
X124374999Y-87211203D01*
X124336446Y-87215000D01*
X124336439Y-87215000D01*
X124235490Y-87224943D01*
X124221112Y-87226359D01*
X124073140Y-87271246D01*
X123936767Y-87344138D01*
X123882145Y-87388966D01*
X123847187Y-87417655D01*
X123847184Y-87417658D01*
X123817236Y-87442236D01*
X123792658Y-87472184D01*
X119838869Y-91425974D01*
X119791111Y-91411487D01*
X119500000Y-91382815D01*
X119208890Y-91411487D01*
X118928967Y-91496401D01*
X118670987Y-91634294D01*
X118444866Y-91819866D01*
X118259294Y-92045986D01*
X118121401Y-92303966D01*
X118036487Y-92583889D01*
X118015000Y-92802050D01*
X118015000Y-93197949D01*
X118036487Y-93416110D01*
X118121401Y-93696033D01*
X118259294Y-93954013D01*
X118444866Y-94180134D01*
X118670986Y-94365706D01*
X118928966Y-94503599D01*
X119208889Y-94588513D01*
X119500000Y-94617185D01*
X119791110Y-94588513D01*
X120071033Y-94503599D01*
X120329013Y-94365706D01*
X120555134Y-94180134D01*
X120740706Y-93954014D01*
X120750000Y-93936626D01*
X120759294Y-93954013D01*
X120944866Y-94180134D01*
X121170986Y-94365706D01*
X121428966Y-94503599D01*
X121708889Y-94588513D01*
X122000000Y-94617185D01*
X122291110Y-94588513D01*
X122571033Y-94503599D01*
X122829013Y-94365706D01*
X123055134Y-94180134D01*
X123240706Y-93954014D01*
X123250000Y-93936626D01*
X123259294Y-93954013D01*
X123444866Y-94180134D01*
X123670986Y-94365706D01*
X123928966Y-94503599D01*
X124208889Y-94588513D01*
X124500000Y-94617185D01*
X124791110Y-94588513D01*
X125071033Y-94503599D01*
X125329013Y-94365706D01*
X125555134Y-94180134D01*
X125607223Y-94116663D01*
X125661595Y-94218386D01*
X125772038Y-94352962D01*
X125906614Y-94463405D01*
X126060150Y-94545472D01*
X126226746Y-94596008D01*
X126400000Y-94613072D01*
X127600000Y-94613072D01*
X127773254Y-94596008D01*
X127939850Y-94545472D01*
X128093386Y-94463405D01*
X128227962Y-94352962D01*
X128338405Y-94218386D01*
X128420472Y-94064850D01*
X128471008Y-93898254D01*
X128488072Y-93725000D01*
X128488072Y-92777050D01*
X140015000Y-92777050D01*
X140015000Y-93222949D01*
X140036487Y-93441110D01*
X140121401Y-93721033D01*
X140259294Y-93979013D01*
X140444866Y-94205134D01*
X140670986Y-94390706D01*
X140928966Y-94528599D01*
X141208889Y-94613513D01*
X141500000Y-94642185D01*
X141791110Y-94613513D01*
X142071033Y-94528599D01*
X142329013Y-94390706D01*
X142555134Y-94205134D01*
X142607223Y-94141663D01*
X142661595Y-94243386D01*
X142772038Y-94377962D01*
X142906614Y-94488405D01*
X143060150Y-94570472D01*
X143226746Y-94621008D01*
X143400000Y-94638072D01*
X144600000Y-94638072D01*
X144773254Y-94621008D01*
X144939850Y-94570472D01*
X145093386Y-94488405D01*
X145227962Y-94377962D01*
X145338405Y-94243386D01*
X145420472Y-94089850D01*
X145471008Y-93923254D01*
X145488072Y-93750000D01*
X145488072Y-92250000D01*
X145471008Y-92076746D01*
X145420472Y-91910150D01*
X145338405Y-91756614D01*
X145227962Y-91622038D01*
X145093386Y-91511595D01*
X144939850Y-91429528D01*
X144773254Y-91378992D01*
X144600000Y-91361928D01*
X143400000Y-91361928D01*
X143226746Y-91378992D01*
X143060150Y-91429528D01*
X142906614Y-91511595D01*
X142772038Y-91622038D01*
X142661595Y-91756614D01*
X142607223Y-91858337D01*
X142555134Y-91794866D01*
X142329014Y-91609294D01*
X142071034Y-91471401D01*
X141791111Y-91386487D01*
X141500000Y-91357815D01*
X141208890Y-91386487D01*
X140928967Y-91471401D01*
X140670987Y-91609294D01*
X140444866Y-91794866D01*
X140259294Y-92020986D01*
X140121401Y-92278966D01*
X140036487Y-92558889D01*
X140015000Y-92777050D01*
X128488072Y-92777050D01*
X128488072Y-92275000D01*
X128471008Y-92101746D01*
X128420472Y-91935150D01*
X128338405Y-91781614D01*
X128227962Y-91647038D01*
X128093386Y-91536595D01*
X127939850Y-91454528D01*
X127773254Y-91403992D01*
X127600000Y-91386928D01*
X126400000Y-91386928D01*
X126226746Y-91403992D01*
X126060150Y-91454528D01*
X125906614Y-91536595D01*
X125772038Y-91647038D01*
X125661595Y-91781614D01*
X125607223Y-91883337D01*
X125555134Y-91819866D01*
X125329014Y-91634294D01*
X125071034Y-91496401D01*
X124791111Y-91411487D01*
X124706959Y-91403199D01*
X133527816Y-82582342D01*
X133542006Y-82570697D01*
X133536487Y-82588889D01*
X133507815Y-82880000D01*
X133536487Y-83171111D01*
X133621401Y-83451034D01*
X133759294Y-83709014D01*
X133944866Y-83935134D01*
X134170986Y-84120706D01*
X134225791Y-84150000D01*
X134170986Y-84179294D01*
X133944866Y-84364866D01*
X133759294Y-84590986D01*
X133621401Y-84848966D01*
X133536487Y-85128889D01*
X133507815Y-85420000D01*
X133536487Y-85711111D01*
X133621401Y-85991034D01*
X133759294Y-86249014D01*
X133944866Y-86475134D01*
X134170986Y-86660706D01*
X134225791Y-86690000D01*
X134170986Y-86719294D01*
X133944866Y-86904866D01*
X133759294Y-87130986D01*
X133621401Y-87388966D01*
X133536487Y-87668889D01*
X133507815Y-87960000D01*
X133536487Y-88251111D01*
X133621401Y-88531034D01*
X133759294Y-88789014D01*
X133944866Y-89015134D01*
X134170986Y-89200706D01*
X134226885Y-89230585D01*
X134053368Y-89346525D01*
X133846525Y-89553368D01*
X133684010Y-89796589D01*
X133572068Y-90066842D01*
X133515000Y-90353740D01*
X133515000Y-90646260D01*
X133572068Y-90933158D01*
X133684010Y-91203411D01*
X133846525Y-91446632D01*
X134053368Y-91653475D01*
X134296589Y-91815990D01*
X134566842Y-91927932D01*
X134853740Y-91985000D01*
X135146260Y-91985000D01*
X135433158Y-91927932D01*
X135703411Y-91815990D01*
X135946632Y-91653475D01*
X136153475Y-91446632D01*
X136315990Y-91203411D01*
X136427932Y-90933158D01*
X136485000Y-90646260D01*
X136485000Y-90353740D01*
X136427932Y-90066842D01*
X136315990Y-89796589D01*
X136153475Y-89553368D01*
X135946632Y-89346525D01*
X135773115Y-89230585D01*
X135829014Y-89200706D01*
X136055134Y-89015134D01*
X136240706Y-88789014D01*
X136378599Y-88531034D01*
X136463513Y-88251111D01*
X136492185Y-87960000D01*
X136463513Y-87668889D01*
X136378599Y-87388966D01*
X136240706Y-87130986D01*
X136055134Y-86904866D01*
X135829014Y-86719294D01*
X135774209Y-86690000D01*
X135829014Y-86660706D01*
X136055134Y-86475134D01*
X136240706Y-86249014D01*
X136378599Y-85991034D01*
X136463513Y-85711111D01*
X136492185Y-85420000D01*
X136463513Y-85128889D01*
X136449026Y-85081131D01*
X139188602Y-82341556D01*
X139188602Y-87935038D01*
X139184804Y-87973601D01*
X139199960Y-88127487D01*
X139244847Y-88275460D01*
X139244848Y-88275461D01*
X139317740Y-88411834D01*
X139342691Y-88442236D01*
X139391256Y-88501413D01*
X139391260Y-88501417D01*
X139415838Y-88531365D01*
X139445786Y-88555943D01*
X140417657Y-89527815D01*
X140442236Y-89557764D01*
X140472184Y-89582342D01*
X140472187Y-89582345D01*
X140501559Y-89606450D01*
X140561767Y-89655862D01*
X140698140Y-89728754D01*
X140811672Y-89763194D01*
X140846112Y-89773641D01*
X140860490Y-89775057D01*
X140961439Y-89785000D01*
X140961446Y-89785000D01*
X140999999Y-89788797D01*
X141038552Y-89785000D01*
X145024843Y-89785000D01*
X148767655Y-93527813D01*
X148792236Y-93557764D01*
X148822184Y-93582342D01*
X148822187Y-93582345D01*
X148848200Y-93603693D01*
X148911767Y-93655862D01*
X149048140Y-93728754D01*
X149140504Y-93756772D01*
X149259294Y-93979013D01*
X149444866Y-94205134D01*
X149670986Y-94390706D01*
X149928966Y-94528599D01*
X150208889Y-94613513D01*
X150500000Y-94642185D01*
X150791110Y-94613513D01*
X151071033Y-94528599D01*
X151329013Y-94390706D01*
X151555134Y-94205134D01*
X151607223Y-94141663D01*
X151661595Y-94243386D01*
X151772038Y-94377962D01*
X151906614Y-94488405D01*
X152060150Y-94570472D01*
X152215000Y-94617445D01*
X152215001Y-99382555D01*
X152060150Y-99429528D01*
X151906614Y-99511595D01*
X151772038Y-99622038D01*
X151661595Y-99756614D01*
X151607223Y-99858337D01*
X151555134Y-99794866D01*
X151329014Y-99609294D01*
X151071034Y-99471401D01*
X150791111Y-99386487D01*
X150500000Y-99357815D01*
X150208890Y-99386487D01*
X149928967Y-99471401D01*
X149670987Y-99609294D01*
X149444866Y-99794866D01*
X149259294Y-100020986D01*
X149121401Y-100278966D01*
X149036487Y-100558889D01*
X149015000Y-100777050D01*
X149015000Y-101222949D01*
X149036487Y-101441110D01*
X149121401Y-101721033D01*
X149259294Y-101979013D01*
X149444866Y-102205134D01*
X149670986Y-102390706D01*
X149928966Y-102528599D01*
X150208889Y-102613513D01*
X150500000Y-102642185D01*
X150791110Y-102613513D01*
X151071033Y-102528599D01*
X151329013Y-102390706D01*
X151555134Y-102205134D01*
X151607223Y-102141663D01*
X151661595Y-102243386D01*
X151772038Y-102377962D01*
X151906614Y-102488405D01*
X152060150Y-102570472D01*
X152226746Y-102621008D01*
X152400000Y-102638072D01*
X153600000Y-102638072D01*
X153773254Y-102621008D01*
X153939850Y-102570472D01*
X154093386Y-102488405D01*
X154227962Y-102377962D01*
X154338405Y-102243386D01*
X154420472Y-102089850D01*
X154471008Y-101923254D01*
X154488072Y-101750000D01*
X154488072Y-100250000D01*
X154471008Y-100076746D01*
X154420472Y-99910150D01*
X154338405Y-99756614D01*
X154227962Y-99622038D01*
X154093386Y-99511595D01*
X153939850Y-99429528D01*
X153785000Y-99382555D01*
X153785000Y-94895157D01*
X154417653Y-95527810D01*
X154442236Y-95557764D01*
X154561767Y-95655862D01*
X154698140Y-95728754D01*
X154846113Y-95773642D01*
X154921026Y-95781020D01*
X154961439Y-95785000D01*
X154961444Y-95785000D01*
X155000000Y-95788797D01*
X155038556Y-95785000D01*
X159961447Y-95785000D01*
X160000000Y-95788797D01*
X160038553Y-95785000D01*
X160038561Y-95785000D01*
X160153887Y-95773641D01*
X160301860Y-95728754D01*
X160438233Y-95655862D01*
X160557764Y-95557764D01*
X160582347Y-95527810D01*
X161472085Y-94638072D01*
X162600000Y-94638072D01*
X162773254Y-94621008D01*
X162939850Y-94570472D01*
X163093386Y-94488405D01*
X163227962Y-94377962D01*
X163338405Y-94243386D01*
X163420472Y-94089850D01*
X163471008Y-93923254D01*
X163488072Y-93750000D01*
X163488072Y-92250000D01*
X163471008Y-92076746D01*
X163420472Y-91910150D01*
X163338405Y-91756614D01*
X163227962Y-91622038D01*
X163093386Y-91511595D01*
X162939850Y-91429528D01*
X162785000Y-91382555D01*
X162785000Y-86617445D01*
X162939850Y-86570472D01*
X163093386Y-86488405D01*
X163227962Y-86377962D01*
X163338405Y-86243386D01*
X163420472Y-86089850D01*
X163471008Y-85923254D01*
X163488072Y-85750000D01*
X163488072Y-84250000D01*
X163471008Y-84076746D01*
X163420472Y-83910150D01*
X163338405Y-83756614D01*
X163227962Y-83622038D01*
X163093386Y-83511595D01*
X162939850Y-83429528D01*
X162773254Y-83378992D01*
X162600000Y-83361928D01*
X161400000Y-83361928D01*
X161387842Y-83363125D01*
X161248333Y-83320806D01*
X161094447Y-83305650D01*
X160940561Y-83320806D01*
X160792588Y-83365693D01*
X160656215Y-83438586D01*
X160536683Y-83536683D01*
X160438586Y-83656215D01*
X160422609Y-83686106D01*
X160329014Y-83609294D01*
X160285000Y-83585768D01*
X160285000Y-78374956D01*
X160288797Y-78336400D01*
X160285000Y-78297840D01*
X160285000Y-78297839D01*
X160281020Y-78257426D01*
X160273642Y-78182513D01*
X160263780Y-78150000D01*
X161661928Y-78150000D01*
X161661928Y-79850000D01*
X161674188Y-79974482D01*
X161710498Y-80094180D01*
X161769463Y-80204494D01*
X161848815Y-80301185D01*
X161945506Y-80380537D01*
X162055820Y-80439502D01*
X162175518Y-80475812D01*
X162300000Y-80488072D01*
X164000000Y-80488072D01*
X164124482Y-80475812D01*
X164244180Y-80439502D01*
X164354494Y-80380537D01*
X164451185Y-80301185D01*
X164530537Y-80204494D01*
X164589502Y-80094180D01*
X164625812Y-79974482D01*
X164638072Y-79850000D01*
X164638072Y-78150000D01*
X164625812Y-78025518D01*
X164589502Y-77905820D01*
X164530537Y-77795506D01*
X164451185Y-77698815D01*
X164354494Y-77619463D01*
X164244180Y-77560498D01*
X164124482Y-77524188D01*
X164000000Y-77511928D01*
X162300000Y-77511928D01*
X162175518Y-77524188D01*
X162055820Y-77560498D01*
X161945506Y-77619463D01*
X161848815Y-77698815D01*
X161769463Y-77795506D01*
X161710498Y-77905820D01*
X161674188Y-78025518D01*
X161661928Y-78150000D01*
X160263780Y-78150000D01*
X160228754Y-78034540D01*
X160219334Y-78016916D01*
X160155862Y-77898167D01*
X160057764Y-77778636D01*
X160027811Y-77754054D01*
X155745947Y-73472190D01*
X155721364Y-73442236D01*
X155601833Y-73344138D01*
X155501672Y-73290601D01*
X155501672Y-73136400D01*
X155489412Y-73011918D01*
X155453102Y-72892220D01*
X155394137Y-72781906D01*
X155314785Y-72685215D01*
X155218094Y-72605863D01*
X155107780Y-72546898D01*
X154988082Y-72510588D01*
X154863600Y-72498328D01*
X153136400Y-72498328D01*
X153011918Y-72510588D01*
X152892220Y-72546898D01*
X152781906Y-72605863D01*
X152685215Y-72685215D01*
X152605863Y-72781906D01*
X152546898Y-72892220D01*
X152531414Y-72943265D01*
X152524797Y-72935203D01*
X152296606Y-72747931D01*
X152036264Y-72608775D01*
X151753777Y-72523084D01*
X151533619Y-72501400D01*
X151386381Y-72501400D01*
X151166223Y-72523084D01*
X150883736Y-72608775D01*
X150623394Y-72747931D01*
X150395203Y-72935203D01*
X150207931Y-73163394D01*
X150190000Y-73196940D01*
X150172069Y-73163394D01*
X149984797Y-72935203D01*
X149756606Y-72747931D01*
X149496264Y-72608775D01*
X149213777Y-72523084D01*
X148993619Y-72501400D01*
X148846381Y-72501400D01*
X148626223Y-72523084D01*
X148343736Y-72608775D01*
X148083394Y-72747931D01*
X147855203Y-72935203D01*
X147667931Y-73163394D01*
X147650000Y-73196940D01*
X147632069Y-73163394D01*
X147444797Y-72935203D01*
X147216606Y-72747931D01*
X146956264Y-72608775D01*
X146673777Y-72523084D01*
X146453619Y-72501400D01*
X146306381Y-72501400D01*
X146086223Y-72523084D01*
X145803736Y-72608775D01*
X145543394Y-72747931D01*
X145315203Y-72935203D01*
X145127931Y-73163394D01*
X145110000Y-73196940D01*
X145092069Y-73163394D01*
X144904797Y-72935203D01*
X144676606Y-72747931D01*
X144416264Y-72608775D01*
X144133777Y-72523084D01*
X143913619Y-72501400D01*
X143766381Y-72501400D01*
X143546223Y-72523084D01*
X143263736Y-72608775D01*
X143003394Y-72747931D01*
X142775203Y-72935203D01*
X142587931Y-73163394D01*
X142570000Y-73196940D01*
X142552069Y-73163394D01*
X142364797Y-72935203D01*
X142136606Y-72747931D01*
X141876264Y-72608775D01*
X141593777Y-72523084D01*
X141373619Y-72501400D01*
X141226381Y-72501400D01*
X141006223Y-72523084D01*
X140723736Y-72608775D01*
X140463394Y-72747931D01*
X140235203Y-72935203D01*
X140047931Y-73163394D01*
X140030000Y-73196940D01*
X140012069Y-73163394D01*
X139824797Y-72935203D01*
X139596606Y-72747931D01*
X139336264Y-72608775D01*
X139053777Y-72523084D01*
X138833619Y-72501400D01*
X138686381Y-72501400D01*
X138466223Y-72523084D01*
X138183736Y-72608775D01*
X137923394Y-72747931D01*
X137695203Y-72935203D01*
X137507931Y-73163394D01*
X137490000Y-73196940D01*
X137472069Y-73163394D01*
X137284797Y-72935203D01*
X137056606Y-72747931D01*
X136796264Y-72608775D01*
X136513777Y-72523084D01*
X136293619Y-72501400D01*
X136146381Y-72501400D01*
X135926223Y-72523084D01*
X135643736Y-72608775D01*
X135383394Y-72747931D01*
X135155203Y-72935203D01*
X134967931Y-73163394D01*
X134950000Y-73196940D01*
X134932069Y-73163394D01*
X134744797Y-72935203D01*
X134516606Y-72747931D01*
X134256264Y-72608775D01*
X133973777Y-72523084D01*
X133753619Y-72501400D01*
X133606381Y-72501400D01*
X133386223Y-72523084D01*
X133103736Y-72608775D01*
X132843394Y-72747931D01*
X132615203Y-72935203D01*
X132427931Y-73163394D01*
X132410000Y-73196940D01*
X132392069Y-73163394D01*
X132204797Y-72935203D01*
X131976606Y-72747931D01*
X131716264Y-72608775D01*
X131433777Y-72523084D01*
X131213619Y-72501400D01*
X131066381Y-72501400D01*
X130846223Y-72523084D01*
X130563736Y-72608775D01*
X130303394Y-72747931D01*
X130075203Y-72935203D01*
X129887931Y-73163394D01*
X129870000Y-73196940D01*
X129852069Y-73163394D01*
X129664797Y-72935203D01*
X129436606Y-72747931D01*
X129176264Y-72608775D01*
X128893777Y-72523084D01*
X128673619Y-72501400D01*
X128526381Y-72501400D01*
X128306223Y-72523084D01*
X128023736Y-72608775D01*
X127763394Y-72747931D01*
X127535203Y-72935203D01*
X127347931Y-73163394D01*
X127330000Y-73196940D01*
X127312069Y-73163394D01*
X127124797Y-72935203D01*
X126896606Y-72747931D01*
X126636264Y-72608775D01*
X126353777Y-72523084D01*
X126133619Y-72501400D01*
X125986381Y-72501400D01*
X125766223Y-72523084D01*
X125483736Y-72608775D01*
X125223394Y-72747931D01*
X124995203Y-72935203D01*
X124878227Y-73077739D01*
X124681714Y-72838286D01*
X124432752Y-72633969D01*
X124148715Y-72482148D01*
X123840516Y-72388657D01*
X123600322Y-72365000D01*
X123520000Y-72357089D01*
X123439678Y-72365000D01*
X120899678Y-72365000D01*
X120659484Y-72388657D01*
X120351285Y-72482148D01*
X120067248Y-72633969D01*
X119818286Y-72838286D01*
X119710000Y-72970233D01*
X119601714Y-72838286D01*
X119352751Y-72633969D01*
X119068714Y-72482148D01*
X118760515Y-72388657D01*
X118440000Y-72357089D01*
X118119484Y-72388657D01*
X117811285Y-72482148D01*
X117527248Y-72633969D01*
X117278286Y-72838286D01*
X117073969Y-73087249D01*
X116922148Y-73371286D01*
X116828657Y-73679485D01*
X116805000Y-73919679D01*
X116805001Y-75862760D01*
X107940687Y-84727075D01*
X107878286Y-84778286D01*
X107859013Y-84801770D01*
X107774636Y-84858149D01*
X107498149Y-85134636D01*
X107280915Y-85459750D01*
X107131282Y-85820997D01*
X107055000Y-86204495D01*
X106660000Y-86204495D01*
X106660000Y-75093560D01*
X107001554Y-75435114D01*
X107515021Y-75778201D01*
X108085554Y-76014524D01*
X108691229Y-76135000D01*
X109308771Y-76135000D01*
X109914446Y-76014524D01*
X110484979Y-75778201D01*
X110998446Y-75435114D01*
X111435114Y-74998446D01*
X111778201Y-74484979D01*
X112014524Y-73914446D01*
X112135000Y-73308771D01*
X112135000Y-72691229D01*
X112014524Y-72085554D01*
X111778201Y-71515021D01*
X111435114Y-71001554D01*
X111093560Y-70660000D01*
X160906440Y-70660000D01*
X160564886Y-71001554D01*
X160564886Y-71001554D01*
G37*
X160564886Y-71001554D02*
X160221799Y-71515021D01*
X159985476Y-72085554D01*
X159865000Y-72691229D01*
X159865000Y-73308771D01*
X159985476Y-73914446D01*
X160221799Y-74484979D01*
X160564886Y-74998446D01*
X161001554Y-75435114D01*
X161515021Y-75778201D01*
X162085554Y-76014524D01*
X162691229Y-76135000D01*
X163308771Y-76135000D01*
X163914446Y-76014524D01*
X164484979Y-75778201D01*
X164998446Y-75435114D01*
X165340000Y-75093560D01*
X165340001Y-99906441D01*
X164998446Y-99564886D01*
X164484979Y-99221799D01*
X163914446Y-98985476D01*
X163308771Y-98865000D01*
X162691229Y-98865000D01*
X162085554Y-98985476D01*
X161515021Y-99221799D01*
X161001554Y-99564886D01*
X160564886Y-100001554D01*
X160221799Y-100515021D01*
X159985476Y-101085554D01*
X159865000Y-101691229D01*
X159865000Y-102308771D01*
X159985476Y-102914446D01*
X160221799Y-103484979D01*
X160564886Y-103998446D01*
X160906440Y-104340000D01*
X111093560Y-104340000D01*
X111435114Y-103998446D01*
X111778201Y-103484979D01*
X112014524Y-102914446D01*
X112135000Y-102308771D01*
X112135000Y-101691229D01*
X112014524Y-101085554D01*
X111778201Y-100515021D01*
X111435114Y-100001554D01*
X110998446Y-99564886D01*
X110484979Y-99221799D01*
X109914446Y-98985476D01*
X109308771Y-98865000D01*
X108691229Y-98865000D01*
X108085554Y-98985476D01*
X107515021Y-99221799D01*
X107001554Y-99564886D01*
X106660000Y-99906440D01*
X106660000Y-86204495D01*
X107055000Y-86204495D01*
X107055000Y-86595505D01*
X107131282Y-86979003D01*
X107280915Y-87340250D01*
X107498149Y-87665364D01*
X107774636Y-87941851D01*
X108099750Y-88159085D01*
X108460997Y-88308718D01*
X108844495Y-88385000D01*
X109235505Y-88385000D01*
X109619003Y-88308718D01*
X109980250Y-88159085D01*
X110305364Y-87941851D01*
X110581851Y-87665364D01*
X110799085Y-87340250D01*
X110948718Y-86979003D01*
X111011928Y-86661223D01*
X111011928Y-87499999D01*
X111028992Y-87673253D01*
X111079529Y-87839850D01*
X111161595Y-87993386D01*
X111272039Y-88127961D01*
X111406614Y-88238405D01*
X111560150Y-88320471D01*
X111726747Y-88371008D01*
X111900001Y-88388072D01*
X114099999Y-88388072D01*
X114273253Y-88371008D01*
X114439850Y-88320471D01*
X114593386Y-88238405D01*
X114727961Y-88127961D01*
X114804009Y-88035297D01*
X114881314Y-88042911D01*
X114961633Y-88035000D01*
X114961636Y-88035000D01*
X115201830Y-88011343D01*
X115510029Y-87917852D01*
X115794066Y-87766031D01*
X116043028Y-87561714D01*
X116094239Y-87499313D01*
X118069294Y-85524259D01*
X118121401Y-85696033D01*
X118259294Y-85954013D01*
X118444866Y-86180134D01*
X118670986Y-86365706D01*
X118928966Y-86503599D01*
X119208889Y-86588513D01*
X119500000Y-86617185D01*
X119791110Y-86588513D01*
X120071033Y-86503599D01*
X120329013Y-86365706D01*
X120555134Y-86180134D01*
X120740706Y-85954014D01*
X120750000Y-85936626D01*
X120759294Y-85954013D01*
X120944866Y-86180134D01*
X121170986Y-86365706D01*
X121428966Y-86503599D01*
X121708889Y-86588513D01*
X122000000Y-86617185D01*
X122291110Y-86588513D01*
X122571033Y-86503599D01*
X122829013Y-86365706D01*
X123055134Y-86180134D01*
X123240706Y-85954014D01*
X123250000Y-85936626D01*
X123259294Y-85954013D01*
X123444866Y-86180134D01*
X123670986Y-86365706D01*
X123928966Y-86503599D01*
X124208889Y-86588513D01*
X124500000Y-86617185D01*
X124791110Y-86588513D01*
X125071033Y-86503599D01*
X125329013Y-86365706D01*
X125555134Y-86180134D01*
X125607223Y-86116663D01*
X125661595Y-86218386D01*
X125772038Y-86352962D01*
X125906614Y-86463405D01*
X126060150Y-86545472D01*
X126226746Y-86596008D01*
X126400000Y-86613072D01*
X126569649Y-86613072D01*
X125967721Y-87215000D01*
X124413552Y-87215000D01*
X124374999Y-87211203D01*
X124336446Y-87215000D01*
X124336439Y-87215000D01*
X124235490Y-87224943D01*
X124221112Y-87226359D01*
X124073140Y-87271246D01*
X123936767Y-87344138D01*
X123882145Y-87388966D01*
X123847187Y-87417655D01*
X123847184Y-87417658D01*
X123817236Y-87442236D01*
X123792658Y-87472184D01*
X119838869Y-91425974D01*
X119791111Y-91411487D01*
X119500000Y-91382815D01*
X119208890Y-91411487D01*
X118928967Y-91496401D01*
X118670987Y-91634294D01*
X118444866Y-91819866D01*
X118259294Y-92045986D01*
X118121401Y-92303966D01*
X118036487Y-92583889D01*
X118015000Y-92802050D01*
X118015000Y-93197949D01*
X118036487Y-93416110D01*
X118121401Y-93696033D01*
X118259294Y-93954013D01*
X118444866Y-94180134D01*
X118670986Y-94365706D01*
X118928966Y-94503599D01*
X119208889Y-94588513D01*
X119500000Y-94617185D01*
X119791110Y-94588513D01*
X120071033Y-94503599D01*
X120329013Y-94365706D01*
X120555134Y-94180134D01*
X120740706Y-93954014D01*
X120750000Y-93936626D01*
X120759294Y-93954013D01*
X120944866Y-94180134D01*
X121170986Y-94365706D01*
X121428966Y-94503599D01*
X121708889Y-94588513D01*
X122000000Y-94617185D01*
X122291110Y-94588513D01*
X122571033Y-94503599D01*
X122829013Y-94365706D01*
X123055134Y-94180134D01*
X123240706Y-93954014D01*
X123250000Y-93936626D01*
X123259294Y-93954013D01*
X123444866Y-94180134D01*
X123670986Y-94365706D01*
X123928966Y-94503599D01*
X124208889Y-94588513D01*
X124500000Y-94617185D01*
X124791110Y-94588513D01*
X125071033Y-94503599D01*
X125329013Y-94365706D01*
X125555134Y-94180134D01*
X125607223Y-94116663D01*
X125661595Y-94218386D01*
X125772038Y-94352962D01*
X125906614Y-94463405D01*
X126060150Y-94545472D01*
X126226746Y-94596008D01*
X126400000Y-94613072D01*
X127600000Y-94613072D01*
X127773254Y-94596008D01*
X127939850Y-94545472D01*
X128093386Y-94463405D01*
X128227962Y-94352962D01*
X128338405Y-94218386D01*
X128420472Y-94064850D01*
X128471008Y-93898254D01*
X128488072Y-93725000D01*
X128488072Y-92777050D01*
X140015000Y-92777050D01*
X140015000Y-93222949D01*
X140036487Y-93441110D01*
X140121401Y-93721033D01*
X140259294Y-93979013D01*
X140444866Y-94205134D01*
X140670986Y-94390706D01*
X140928966Y-94528599D01*
X141208889Y-94613513D01*
X141500000Y-94642185D01*
X141791110Y-94613513D01*
X142071033Y-94528599D01*
X142329013Y-94390706D01*
X142555134Y-94205134D01*
X142607223Y-94141663D01*
X142661595Y-94243386D01*
X142772038Y-94377962D01*
X142906614Y-94488405D01*
X143060150Y-94570472D01*
X143226746Y-94621008D01*
X143400000Y-94638072D01*
X144600000Y-94638072D01*
X144773254Y-94621008D01*
X144939850Y-94570472D01*
X145093386Y-94488405D01*
X145227962Y-94377962D01*
X145338405Y-94243386D01*
X145420472Y-94089850D01*
X145471008Y-93923254D01*
X145488072Y-93750000D01*
X145488072Y-92250000D01*
X145471008Y-92076746D01*
X145420472Y-91910150D01*
X145338405Y-91756614D01*
X145227962Y-91622038D01*
X145093386Y-91511595D01*
X144939850Y-91429528D01*
X144773254Y-91378992D01*
X144600000Y-91361928D01*
X143400000Y-91361928D01*
X143226746Y-91378992D01*
X143060150Y-91429528D01*
X142906614Y-91511595D01*
X142772038Y-91622038D01*
X142661595Y-91756614D01*
X142607223Y-91858337D01*
X142555134Y-91794866D01*
X142329014Y-91609294D01*
X142071034Y-91471401D01*
X141791111Y-91386487D01*
X141500000Y-91357815D01*
X141208890Y-91386487D01*
X140928967Y-91471401D01*
X140670987Y-91609294D01*
X140444866Y-91794866D01*
X140259294Y-92020986D01*
X140121401Y-92278966D01*
X140036487Y-92558889D01*
X140015000Y-92777050D01*
X128488072Y-92777050D01*
X128488072Y-92275000D01*
X128471008Y-92101746D01*
X128420472Y-91935150D01*
X128338405Y-91781614D01*
X128227962Y-91647038D01*
X128093386Y-91536595D01*
X127939850Y-91454528D01*
X127773254Y-91403992D01*
X127600000Y-91386928D01*
X126400000Y-91386928D01*
X126226746Y-91403992D01*
X126060150Y-91454528D01*
X125906614Y-91536595D01*
X125772038Y-91647038D01*
X125661595Y-91781614D01*
X125607223Y-91883337D01*
X125555134Y-91819866D01*
X125329014Y-91634294D01*
X125071034Y-91496401D01*
X124791111Y-91411487D01*
X124706959Y-91403199D01*
X133527816Y-82582342D01*
X133542006Y-82570697D01*
X133536487Y-82588889D01*
X133507815Y-82880000D01*
X133536487Y-83171111D01*
X133621401Y-83451034D01*
X133759294Y-83709014D01*
X133944866Y-83935134D01*
X134170986Y-84120706D01*
X134225791Y-84150000D01*
X134170986Y-84179294D01*
X133944866Y-84364866D01*
X133759294Y-84590986D01*
X133621401Y-84848966D01*
X133536487Y-85128889D01*
X133507815Y-85420000D01*
X133536487Y-85711111D01*
X133621401Y-85991034D01*
X133759294Y-86249014D01*
X133944866Y-86475134D01*
X134170986Y-86660706D01*
X134225791Y-86690000D01*
X134170986Y-86719294D01*
X133944866Y-86904866D01*
X133759294Y-87130986D01*
X133621401Y-87388966D01*
X133536487Y-87668889D01*
X133507815Y-87960000D01*
X133536487Y-88251111D01*
X133621401Y-88531034D01*
X133759294Y-88789014D01*
X133944866Y-89015134D01*
X134170986Y-89200706D01*
X134226885Y-89230585D01*
X134053368Y-89346525D01*
X133846525Y-89553368D01*
X133684010Y-89796589D01*
X133572068Y-90066842D01*
X133515000Y-90353740D01*
X133515000Y-90646260D01*
X133572068Y-90933158D01*
X133684010Y-91203411D01*
X133846525Y-91446632D01*
X134053368Y-91653475D01*
X134296589Y-91815990D01*
X134566842Y-91927932D01*
X134853740Y-91985000D01*
X135146260Y-91985000D01*
X135433158Y-91927932D01*
X135703411Y-91815990D01*
X135946632Y-91653475D01*
X136153475Y-91446632D01*
X136315990Y-91203411D01*
X136427932Y-90933158D01*
X136485000Y-90646260D01*
X136485000Y-90353740D01*
X136427932Y-90066842D01*
X136315990Y-89796589D01*
X136153475Y-89553368D01*
X135946632Y-89346525D01*
X135773115Y-89230585D01*
X135829014Y-89200706D01*
X136055134Y-89015134D01*
X136240706Y-88789014D01*
X136378599Y-88531034D01*
X136463513Y-88251111D01*
X136492185Y-87960000D01*
X136463513Y-87668889D01*
X136378599Y-87388966D01*
X136240706Y-87130986D01*
X136055134Y-86904866D01*
X135829014Y-86719294D01*
X135774209Y-86690000D01*
X135829014Y-86660706D01*
X136055134Y-86475134D01*
X136240706Y-86249014D01*
X136378599Y-85991034D01*
X136463513Y-85711111D01*
X136492185Y-85420000D01*
X136463513Y-85128889D01*
X136449026Y-85081131D01*
X139188602Y-82341556D01*
X139188602Y-87935038D01*
X139184804Y-87973601D01*
X139199960Y-88127487D01*
X139244847Y-88275460D01*
X139244848Y-88275461D01*
X139317740Y-88411834D01*
X139342691Y-88442236D01*
X139391256Y-88501413D01*
X139391260Y-88501417D01*
X139415838Y-88531365D01*
X139445786Y-88555943D01*
X140417657Y-89527815D01*
X140442236Y-89557764D01*
X140472184Y-89582342D01*
X140472187Y-89582345D01*
X140501559Y-89606450D01*
X140561767Y-89655862D01*
X140698140Y-89728754D01*
X140811672Y-89763194D01*
X140846112Y-89773641D01*
X140860490Y-89775057D01*
X140961439Y-89785000D01*
X140961446Y-89785000D01*
X140999999Y-89788797D01*
X141038552Y-89785000D01*
X145024843Y-89785000D01*
X148767655Y-93527813D01*
X148792236Y-93557764D01*
X148822184Y-93582342D01*
X148822187Y-93582345D01*
X148848200Y-93603693D01*
X148911767Y-93655862D01*
X149048140Y-93728754D01*
X149140504Y-93756772D01*
X149259294Y-93979013D01*
X149444866Y-94205134D01*
X149670986Y-94390706D01*
X149928966Y-94528599D01*
X150208889Y-94613513D01*
X150500000Y-94642185D01*
X150791110Y-94613513D01*
X151071033Y-94528599D01*
X151329013Y-94390706D01*
X151555134Y-94205134D01*
X151607223Y-94141663D01*
X151661595Y-94243386D01*
X151772038Y-94377962D01*
X151906614Y-94488405D01*
X152060150Y-94570472D01*
X152215000Y-94617445D01*
X152215001Y-99382555D01*
X152060150Y-99429528D01*
X151906614Y-99511595D01*
X151772038Y-99622038D01*
X151661595Y-99756614D01*
X151607223Y-99858337D01*
X151555134Y-99794866D01*
X151329014Y-99609294D01*
X151071034Y-99471401D01*
X150791111Y-99386487D01*
X150500000Y-99357815D01*
X150208890Y-99386487D01*
X149928967Y-99471401D01*
X149670987Y-99609294D01*
X149444866Y-99794866D01*
X149259294Y-100020986D01*
X149121401Y-100278966D01*
X149036487Y-100558889D01*
X149015000Y-100777050D01*
X149015000Y-101222949D01*
X149036487Y-101441110D01*
X149121401Y-101721033D01*
X149259294Y-101979013D01*
X149444866Y-102205134D01*
X149670986Y-102390706D01*
X149928966Y-102528599D01*
X150208889Y-102613513D01*
X150500000Y-102642185D01*
X150791110Y-102613513D01*
X151071033Y-102528599D01*
X151329013Y-102390706D01*
X151555134Y-102205134D01*
X151607223Y-102141663D01*
X151661595Y-102243386D01*
X151772038Y-102377962D01*
X151906614Y-102488405D01*
X152060150Y-102570472D01*
X152226746Y-102621008D01*
X152400000Y-102638072D01*
X153600000Y-102638072D01*
X153773254Y-102621008D01*
X153939850Y-102570472D01*
X154093386Y-102488405D01*
X154227962Y-102377962D01*
X154338405Y-102243386D01*
X154420472Y-102089850D01*
X154471008Y-101923254D01*
X154488072Y-101750000D01*
X154488072Y-100250000D01*
X154471008Y-100076746D01*
X154420472Y-99910150D01*
X154338405Y-99756614D01*
X154227962Y-99622038D01*
X154093386Y-99511595D01*
X153939850Y-99429528D01*
X153785000Y-99382555D01*
X153785000Y-94895157D01*
X154417653Y-95527810D01*
X154442236Y-95557764D01*
X154561767Y-95655862D01*
X154698140Y-95728754D01*
X154846113Y-95773642D01*
X154921026Y-95781020D01*
X154961439Y-95785000D01*
X154961444Y-95785000D01*
X155000000Y-95788797D01*
X155038556Y-95785000D01*
X159961447Y-95785000D01*
X160000000Y-95788797D01*
X160038553Y-95785000D01*
X160038561Y-95785000D01*
X160153887Y-95773641D01*
X160301860Y-95728754D01*
X160438233Y-95655862D01*
X160557764Y-95557764D01*
X160582347Y-95527810D01*
X161472085Y-94638072D01*
X162600000Y-94638072D01*
X162773254Y-94621008D01*
X162939850Y-94570472D01*
X163093386Y-94488405D01*
X163227962Y-94377962D01*
X163338405Y-94243386D01*
X163420472Y-94089850D01*
X163471008Y-93923254D01*
X163488072Y-93750000D01*
X163488072Y-92250000D01*
X163471008Y-92076746D01*
X163420472Y-91910150D01*
X163338405Y-91756614D01*
X163227962Y-91622038D01*
X163093386Y-91511595D01*
X162939850Y-91429528D01*
X162785000Y-91382555D01*
X162785000Y-86617445D01*
X162939850Y-86570472D01*
X163093386Y-86488405D01*
X163227962Y-86377962D01*
X163338405Y-86243386D01*
X163420472Y-86089850D01*
X163471008Y-85923254D01*
X163488072Y-85750000D01*
X163488072Y-84250000D01*
X163471008Y-84076746D01*
X163420472Y-83910150D01*
X163338405Y-83756614D01*
X163227962Y-83622038D01*
X163093386Y-83511595D01*
X162939850Y-83429528D01*
X162773254Y-83378992D01*
X162600000Y-83361928D01*
X161400000Y-83361928D01*
X161387842Y-83363125D01*
X161248333Y-83320806D01*
X161094447Y-83305650D01*
X160940561Y-83320806D01*
X160792588Y-83365693D01*
X160656215Y-83438586D01*
X160536683Y-83536683D01*
X160438586Y-83656215D01*
X160422609Y-83686106D01*
X160329014Y-83609294D01*
X160285000Y-83585768D01*
X160285000Y-78374956D01*
X160288797Y-78336400D01*
X160285000Y-78297840D01*
X160285000Y-78297839D01*
X160281020Y-78257426D01*
X160273642Y-78182513D01*
X160263780Y-78150000D01*
X161661928Y-78150000D01*
X161661928Y-79850000D01*
X161674188Y-79974482D01*
X161710498Y-80094180D01*
X161769463Y-80204494D01*
X161848815Y-80301185D01*
X161945506Y-80380537D01*
X162055820Y-80439502D01*
X162175518Y-80475812D01*
X162300000Y-80488072D01*
X164000000Y-80488072D01*
X164124482Y-80475812D01*
X164244180Y-80439502D01*
X164354494Y-80380537D01*
X164451185Y-80301185D01*
X164530537Y-80204494D01*
X164589502Y-80094180D01*
X164625812Y-79974482D01*
X164638072Y-79850000D01*
X164638072Y-78150000D01*
X164625812Y-78025518D01*
X164589502Y-77905820D01*
X164530537Y-77795506D01*
X164451185Y-77698815D01*
X164354494Y-77619463D01*
X164244180Y-77560498D01*
X164124482Y-77524188D01*
X164000000Y-77511928D01*
X162300000Y-77511928D01*
X162175518Y-77524188D01*
X162055820Y-77560498D01*
X161945506Y-77619463D01*
X161848815Y-77698815D01*
X161769463Y-77795506D01*
X161710498Y-77905820D01*
X161674188Y-78025518D01*
X161661928Y-78150000D01*
X160263780Y-78150000D01*
X160228754Y-78034540D01*
X160219334Y-78016916D01*
X160155862Y-77898167D01*
X160057764Y-77778636D01*
X160027811Y-77754054D01*
X155745947Y-73472190D01*
X155721364Y-73442236D01*
X155601833Y-73344138D01*
X155501672Y-73290601D01*
X155501672Y-73136400D01*
X155489412Y-73011918D01*
X155453102Y-72892220D01*
X155394137Y-72781906D01*
X155314785Y-72685215D01*
X155218094Y-72605863D01*
X155107780Y-72546898D01*
X154988082Y-72510588D01*
X154863600Y-72498328D01*
X153136400Y-72498328D01*
X153011918Y-72510588D01*
X152892220Y-72546898D01*
X152781906Y-72605863D01*
X152685215Y-72685215D01*
X152605863Y-72781906D01*
X152546898Y-72892220D01*
X152531414Y-72943265D01*
X152524797Y-72935203D01*
X152296606Y-72747931D01*
X152036264Y-72608775D01*
X151753777Y-72523084D01*
X151533619Y-72501400D01*
X151386381Y-72501400D01*
X151166223Y-72523084D01*
X150883736Y-72608775D01*
X150623394Y-72747931D01*
X150395203Y-72935203D01*
X150207931Y-73163394D01*
X150190000Y-73196940D01*
X150172069Y-73163394D01*
X149984797Y-72935203D01*
X149756606Y-72747931D01*
X149496264Y-72608775D01*
X149213777Y-72523084D01*
X148993619Y-72501400D01*
X148846381Y-72501400D01*
X148626223Y-72523084D01*
X148343736Y-72608775D01*
X148083394Y-72747931D01*
X147855203Y-72935203D01*
X147667931Y-73163394D01*
X147650000Y-73196940D01*
X147632069Y-73163394D01*
X147444797Y-72935203D01*
X147216606Y-72747931D01*
X146956264Y-72608775D01*
X146673777Y-72523084D01*
X146453619Y-72501400D01*
X146306381Y-72501400D01*
X146086223Y-72523084D01*
X145803736Y-72608775D01*
X145543394Y-72747931D01*
X145315203Y-72935203D01*
X145127931Y-73163394D01*
X145110000Y-73196940D01*
X145092069Y-73163394D01*
X144904797Y-72935203D01*
X144676606Y-72747931D01*
X144416264Y-72608775D01*
X144133777Y-72523084D01*
X143913619Y-72501400D01*
X143766381Y-72501400D01*
X143546223Y-72523084D01*
X143263736Y-72608775D01*
X143003394Y-72747931D01*
X142775203Y-72935203D01*
X142587931Y-73163394D01*
X142570000Y-73196940D01*
X142552069Y-73163394D01*
X142364797Y-72935203D01*
X142136606Y-72747931D01*
X141876264Y-72608775D01*
X141593777Y-72523084D01*
X141373619Y-72501400D01*
X141226381Y-72501400D01*
X141006223Y-72523084D01*
X140723736Y-72608775D01*
X140463394Y-72747931D01*
X140235203Y-72935203D01*
X140047931Y-73163394D01*
X140030000Y-73196940D01*
X140012069Y-73163394D01*
X139824797Y-72935203D01*
X139596606Y-72747931D01*
X139336264Y-72608775D01*
X139053777Y-72523084D01*
X138833619Y-72501400D01*
X138686381Y-72501400D01*
X138466223Y-72523084D01*
X138183736Y-72608775D01*
X137923394Y-72747931D01*
X137695203Y-72935203D01*
X137507931Y-73163394D01*
X137490000Y-73196940D01*
X137472069Y-73163394D01*
X137284797Y-72935203D01*
X137056606Y-72747931D01*
X136796264Y-72608775D01*
X136513777Y-72523084D01*
X136293619Y-72501400D01*
X136146381Y-72501400D01*
X135926223Y-72523084D01*
X135643736Y-72608775D01*
X135383394Y-72747931D01*
X135155203Y-72935203D01*
X134967931Y-73163394D01*
X134950000Y-73196940D01*
X134932069Y-73163394D01*
X134744797Y-72935203D01*
X134516606Y-72747931D01*
X134256264Y-72608775D01*
X133973777Y-72523084D01*
X133753619Y-72501400D01*
X133606381Y-72501400D01*
X133386223Y-72523084D01*
X133103736Y-72608775D01*
X132843394Y-72747931D01*
X132615203Y-72935203D01*
X132427931Y-73163394D01*
X132410000Y-73196940D01*
X132392069Y-73163394D01*
X132204797Y-72935203D01*
X131976606Y-72747931D01*
X131716264Y-72608775D01*
X131433777Y-72523084D01*
X131213619Y-72501400D01*
X131066381Y-72501400D01*
X130846223Y-72523084D01*
X130563736Y-72608775D01*
X130303394Y-72747931D01*
X130075203Y-72935203D01*
X129887931Y-73163394D01*
X129870000Y-73196940D01*
X129852069Y-73163394D01*
X129664797Y-72935203D01*
X129436606Y-72747931D01*
X129176264Y-72608775D01*
X128893777Y-72523084D01*
X128673619Y-72501400D01*
X128526381Y-72501400D01*
X128306223Y-72523084D01*
X128023736Y-72608775D01*
X127763394Y-72747931D01*
X127535203Y-72935203D01*
X127347931Y-73163394D01*
X127330000Y-73196940D01*
X127312069Y-73163394D01*
X127124797Y-72935203D01*
X126896606Y-72747931D01*
X126636264Y-72608775D01*
X126353777Y-72523084D01*
X126133619Y-72501400D01*
X125986381Y-72501400D01*
X125766223Y-72523084D01*
X125483736Y-72608775D01*
X125223394Y-72747931D01*
X124995203Y-72935203D01*
X124878227Y-73077739D01*
X124681714Y-72838286D01*
X124432752Y-72633969D01*
X124148715Y-72482148D01*
X123840516Y-72388657D01*
X123600322Y-72365000D01*
X123520000Y-72357089D01*
X123439678Y-72365000D01*
X120899678Y-72365000D01*
X120659484Y-72388657D01*
X120351285Y-72482148D01*
X120067248Y-72633969D01*
X119818286Y-72838286D01*
X119710000Y-72970233D01*
X119601714Y-72838286D01*
X119352751Y-72633969D01*
X119068714Y-72482148D01*
X118760515Y-72388657D01*
X118440000Y-72357089D01*
X118119484Y-72388657D01*
X117811285Y-72482148D01*
X117527248Y-72633969D01*
X117278286Y-72838286D01*
X117073969Y-73087249D01*
X116922148Y-73371286D01*
X116828657Y-73679485D01*
X116805000Y-73919679D01*
X116805001Y-75862760D01*
X107940687Y-84727075D01*
X107878286Y-84778286D01*
X107859013Y-84801770D01*
X107774636Y-84858149D01*
X107498149Y-85134636D01*
X107280915Y-85459750D01*
X107131282Y-85820997D01*
X107055000Y-86204495D01*
X106660000Y-86204495D01*
X106660000Y-75093560D01*
X107001554Y-75435114D01*
X107515021Y-75778201D01*
X108085554Y-76014524D01*
X108691229Y-76135000D01*
X109308771Y-76135000D01*
X109914446Y-76014524D01*
X110484979Y-75778201D01*
X110998446Y-75435114D01*
X111435114Y-74998446D01*
X111778201Y-74484979D01*
X112014524Y-73914446D01*
X112135000Y-73308771D01*
X112135000Y-72691229D01*
X112014524Y-72085554D01*
X111778201Y-71515021D01*
X111435114Y-71001554D01*
X111093560Y-70660000D01*
X160906440Y-70660000D01*
X160564886Y-71001554D01*
G36*
X147667931Y-77376606D02*
G01*
X147855203Y-77604797D01*
X148083394Y-77792069D01*
X148343736Y-77931225D01*
X148626223Y-78016916D01*
X148846381Y-78038600D01*
X148993619Y-78038600D01*
X149213777Y-78016916D01*
X149269773Y-77999930D01*
X155215000Y-83945158D01*
X155215001Y-89311437D01*
X155211203Y-89350000D01*
X155226359Y-89503886D01*
X155271246Y-89651859D01*
X155273386Y-89655862D01*
X155344139Y-89788233D01*
X155350997Y-89796589D01*
X155417655Y-89877812D01*
X155417659Y-89877816D01*
X155442237Y-89907764D01*
X155472185Y-89932342D01*
X158050974Y-92511132D01*
X158036487Y-92558889D01*
X158015000Y-92777050D01*
X158015000Y-93222949D01*
X158036487Y-93441110D01*
X158121401Y-93721033D01*
X158259294Y-93979013D01*
X158444866Y-94205134D01*
X158456888Y-94215000D01*
X155325157Y-94215000D01*
X154488072Y-93377915D01*
X154488072Y-92250000D01*
X154471008Y-92076746D01*
X154420472Y-91910150D01*
X154338405Y-91756614D01*
X154227962Y-91622038D01*
X154093386Y-91511595D01*
X153939850Y-91429528D01*
X153785000Y-91382555D01*
X153785000Y-86617445D01*
X153939850Y-86570472D01*
X154093386Y-86488405D01*
X154227962Y-86377962D01*
X154338405Y-86243386D01*
X154420472Y-86089850D01*
X154471008Y-85923254D01*
X154488072Y-85750000D01*
X154488072Y-84250000D01*
X154471008Y-84076746D01*
X154420472Y-83910150D01*
X154338405Y-83756614D01*
X154227962Y-83622038D01*
X154093386Y-83511595D01*
X153939850Y-83429528D01*
X153773254Y-83378992D01*
X153600000Y-83361928D01*
X152472085Y-83361928D01*
X152232337Y-83122180D01*
X152207754Y-83092226D01*
X152088223Y-82994128D01*
X151951850Y-82921236D01*
X151803877Y-82876349D01*
X151688551Y-82864990D01*
X151688543Y-82864990D01*
X151649990Y-82861193D01*
X151611437Y-82864990D01*
X148735148Y-82864990D01*
X143908757Y-78038600D01*
X143913619Y-78038600D01*
X144133777Y-78016916D01*
X144416264Y-77931225D01*
X144676606Y-77792069D01*
X144904797Y-77604797D01*
X145092069Y-77376606D01*
X145110000Y-77343060D01*
X145127931Y-77376606D01*
X145315203Y-77604797D01*
X145543394Y-77792069D01*
X145803736Y-77931225D01*
X146086223Y-78016916D01*
X146306381Y-78038600D01*
X146453619Y-78038600D01*
X146673777Y-78016916D01*
X146956264Y-77931225D01*
X147216606Y-77792069D01*
X147444797Y-77604797D01*
X147632069Y-77376606D01*
X147650000Y-77343060D01*
X147667931Y-77376606D01*
X147667931Y-77376606D01*
G37*
X147667931Y-77376606D02*
X147855203Y-77604797D01*
X148083394Y-77792069D01*
X148343736Y-77931225D01*
X148626223Y-78016916D01*
X148846381Y-78038600D01*
X148993619Y-78038600D01*
X149213777Y-78016916D01*
X149269773Y-77999930D01*
X155215000Y-83945158D01*
X155215001Y-89311437D01*
X155211203Y-89350000D01*
X155226359Y-89503886D01*
X155271246Y-89651859D01*
X155273386Y-89655862D01*
X155344139Y-89788233D01*
X155350997Y-89796589D01*
X155417655Y-89877812D01*
X155417659Y-89877816D01*
X155442237Y-89907764D01*
X155472185Y-89932342D01*
X158050974Y-92511132D01*
X158036487Y-92558889D01*
X158015000Y-92777050D01*
X158015000Y-93222949D01*
X158036487Y-93441110D01*
X158121401Y-93721033D01*
X158259294Y-93979013D01*
X158444866Y-94205134D01*
X158456888Y-94215000D01*
X155325157Y-94215000D01*
X154488072Y-93377915D01*
X154488072Y-92250000D01*
X154471008Y-92076746D01*
X154420472Y-91910150D01*
X154338405Y-91756614D01*
X154227962Y-91622038D01*
X154093386Y-91511595D01*
X153939850Y-91429528D01*
X153785000Y-91382555D01*
X153785000Y-86617445D01*
X153939850Y-86570472D01*
X154093386Y-86488405D01*
X154227962Y-86377962D01*
X154338405Y-86243386D01*
X154420472Y-86089850D01*
X154471008Y-85923254D01*
X154488072Y-85750000D01*
X154488072Y-84250000D01*
X154471008Y-84076746D01*
X154420472Y-83910150D01*
X154338405Y-83756614D01*
X154227962Y-83622038D01*
X154093386Y-83511595D01*
X153939850Y-83429528D01*
X153773254Y-83378992D01*
X153600000Y-83361928D01*
X152472085Y-83361928D01*
X152232337Y-83122180D01*
X152207754Y-83092226D01*
X152088223Y-82994128D01*
X151951850Y-82921236D01*
X151803877Y-82876349D01*
X151688551Y-82864990D01*
X151688543Y-82864990D01*
X151649990Y-82861193D01*
X151611437Y-82864990D01*
X148735148Y-82864990D01*
X143908757Y-78038600D01*
X143913619Y-78038600D01*
X144133777Y-78016916D01*
X144416264Y-77931225D01*
X144676606Y-77792069D01*
X144904797Y-77604797D01*
X145092069Y-77376606D01*
X145110000Y-77343060D01*
X145127931Y-77376606D01*
X145315203Y-77604797D01*
X145543394Y-77792069D01*
X145803736Y-77931225D01*
X146086223Y-78016916D01*
X146306381Y-78038600D01*
X146453619Y-78038600D01*
X146673777Y-78016916D01*
X146956264Y-77931225D01*
X147216606Y-77792069D01*
X147444797Y-77604797D01*
X147632069Y-77376606D01*
X147650000Y-77343060D01*
X147667931Y-77376606D01*
G36*
X141006223Y-78016916D02*
G01*
X141226381Y-78038600D01*
X141373619Y-78038600D01*
X141593777Y-78016916D01*
X141649773Y-77999930D01*
X147827648Y-84177806D01*
X147852226Y-84207754D01*
X147882174Y-84232332D01*
X147882177Y-84232335D01*
X147901671Y-84248333D01*
X147971757Y-84305852D01*
X148108130Y-84378744D01*
X148207202Y-84408797D01*
X148256102Y-84423631D01*
X148270480Y-84425047D01*
X148371429Y-84434990D01*
X148371436Y-84434990D01*
X148409989Y-84438787D01*
X148448542Y-84434990D01*
X149074071Y-84434990D01*
X149036487Y-84558889D01*
X149015000Y-84777050D01*
X149015000Y-85222949D01*
X149036487Y-85441110D01*
X149121401Y-85721033D01*
X149259294Y-85979013D01*
X149444866Y-86205134D01*
X149670986Y-86390706D01*
X149928966Y-86528599D01*
X150208889Y-86613513D01*
X150500000Y-86642185D01*
X150791110Y-86613513D01*
X151071033Y-86528599D01*
X151329013Y-86390706D01*
X151555134Y-86205134D01*
X151607223Y-86141663D01*
X151661595Y-86243386D01*
X151772038Y-86377962D01*
X151906614Y-86488405D01*
X152060150Y-86570472D01*
X152215000Y-86617445D01*
X152215001Y-91382555D01*
X152060150Y-91429528D01*
X151906614Y-91511595D01*
X151772038Y-91622038D01*
X151661595Y-91756614D01*
X151607223Y-91858337D01*
X151555134Y-91794866D01*
X151329014Y-91609294D01*
X151071034Y-91471401D01*
X150791111Y-91386487D01*
X150500000Y-91357815D01*
X150208890Y-91386487D01*
X149928967Y-91471401D01*
X149670987Y-91609294D01*
X149444866Y-91794866D01*
X149359294Y-91899136D01*
X145932347Y-88472190D01*
X145907764Y-88442236D01*
X145788233Y-88344138D01*
X145651860Y-88271246D01*
X145503887Y-88226359D01*
X145388561Y-88215000D01*
X145388553Y-88215000D01*
X145350000Y-88211203D01*
X145311447Y-88215000D01*
X141325158Y-88215000D01*
X140758601Y-87648444D01*
X140758601Y-86437537D01*
X140928966Y-86528599D01*
X141208889Y-86613513D01*
X141500000Y-86642185D01*
X141791110Y-86613513D01*
X142071033Y-86528599D01*
X142329013Y-86390706D01*
X142555134Y-86205134D01*
X142607223Y-86141663D01*
X142661595Y-86243386D01*
X142772038Y-86377962D01*
X142906614Y-86488405D01*
X143060150Y-86570472D01*
X143226746Y-86621008D01*
X143400000Y-86638072D01*
X144600000Y-86638072D01*
X144773254Y-86621008D01*
X144939850Y-86570472D01*
X145093386Y-86488405D01*
X145227962Y-86377962D01*
X145338405Y-86243386D01*
X145420472Y-86089850D01*
X145471008Y-85923254D01*
X145488072Y-85750000D01*
X145488072Y-84250000D01*
X145471008Y-84076746D01*
X145420472Y-83910150D01*
X145338405Y-83756614D01*
X145227962Y-83622038D01*
X145093386Y-83511595D01*
X144939850Y-83429528D01*
X144773254Y-83378992D01*
X144600000Y-83361928D01*
X143400000Y-83361928D01*
X143226746Y-83378992D01*
X143060150Y-83429528D01*
X142906614Y-83511595D01*
X142772038Y-83622038D01*
X142661595Y-83756614D01*
X142607223Y-83858337D01*
X142555134Y-83794866D01*
X142329014Y-83609294D01*
X142071034Y-83471401D01*
X141791111Y-83386487D01*
X141500000Y-83357815D01*
X141208890Y-83386487D01*
X140928967Y-83471401D01*
X140758601Y-83562463D01*
X140758601Y-77941801D01*
X141006223Y-78016916D01*
X141006223Y-78016916D01*
G37*
X141006223Y-78016916D02*
X141226381Y-78038600D01*
X141373619Y-78038600D01*
X141593777Y-78016916D01*
X141649773Y-77999930D01*
X147827648Y-84177806D01*
X147852226Y-84207754D01*
X147882174Y-84232332D01*
X147882177Y-84232335D01*
X147901671Y-84248333D01*
X147971757Y-84305852D01*
X148108130Y-84378744D01*
X148207202Y-84408797D01*
X148256102Y-84423631D01*
X148270480Y-84425047D01*
X148371429Y-84434990D01*
X148371436Y-84434990D01*
X148409989Y-84438787D01*
X148448542Y-84434990D01*
X149074071Y-84434990D01*
X149036487Y-84558889D01*
X149015000Y-84777050D01*
X149015000Y-85222949D01*
X149036487Y-85441110D01*
X149121401Y-85721033D01*
X149259294Y-85979013D01*
X149444866Y-86205134D01*
X149670986Y-86390706D01*
X149928966Y-86528599D01*
X150208889Y-86613513D01*
X150500000Y-86642185D01*
X150791110Y-86613513D01*
X151071033Y-86528599D01*
X151329013Y-86390706D01*
X151555134Y-86205134D01*
X151607223Y-86141663D01*
X151661595Y-86243386D01*
X151772038Y-86377962D01*
X151906614Y-86488405D01*
X152060150Y-86570472D01*
X152215000Y-86617445D01*
X152215001Y-91382555D01*
X152060150Y-91429528D01*
X151906614Y-91511595D01*
X151772038Y-91622038D01*
X151661595Y-91756614D01*
X151607223Y-91858337D01*
X151555134Y-91794866D01*
X151329014Y-91609294D01*
X151071034Y-91471401D01*
X150791111Y-91386487D01*
X150500000Y-91357815D01*
X150208890Y-91386487D01*
X149928967Y-91471401D01*
X149670987Y-91609294D01*
X149444866Y-91794866D01*
X149359294Y-91899136D01*
X145932347Y-88472190D01*
X145907764Y-88442236D01*
X145788233Y-88344138D01*
X145651860Y-88271246D01*
X145503887Y-88226359D01*
X145388561Y-88215000D01*
X145388553Y-88215000D01*
X145350000Y-88211203D01*
X145311447Y-88215000D01*
X141325158Y-88215000D01*
X140758601Y-87648444D01*
X140758601Y-86437537D01*
X140928966Y-86528599D01*
X141208889Y-86613513D01*
X141500000Y-86642185D01*
X141791110Y-86613513D01*
X142071033Y-86528599D01*
X142329013Y-86390706D01*
X142555134Y-86205134D01*
X142607223Y-86141663D01*
X142661595Y-86243386D01*
X142772038Y-86377962D01*
X142906614Y-86488405D01*
X143060150Y-86570472D01*
X143226746Y-86621008D01*
X143400000Y-86638072D01*
X144600000Y-86638072D01*
X144773254Y-86621008D01*
X144939850Y-86570472D01*
X145093386Y-86488405D01*
X145227962Y-86377962D01*
X145338405Y-86243386D01*
X145420472Y-86089850D01*
X145471008Y-85923254D01*
X145488072Y-85750000D01*
X145488072Y-84250000D01*
X145471008Y-84076746D01*
X145420472Y-83910150D01*
X145338405Y-83756614D01*
X145227962Y-83622038D01*
X145093386Y-83511595D01*
X144939850Y-83429528D01*
X144773254Y-83378992D01*
X144600000Y-83361928D01*
X143400000Y-83361928D01*
X143226746Y-83378992D01*
X143060150Y-83429528D01*
X142906614Y-83511595D01*
X142772038Y-83622038D01*
X142661595Y-83756614D01*
X142607223Y-83858337D01*
X142555134Y-83794866D01*
X142329014Y-83609294D01*
X142071034Y-83471401D01*
X141791111Y-83386487D01*
X141500000Y-83357815D01*
X141208890Y-83386487D01*
X140928967Y-83471401D01*
X140758601Y-83562463D01*
X140758601Y-77941801D01*
X141006223Y-78016916D01*
G36*
X158715000Y-78661557D02*
G01*
X158715001Y-83585768D01*
X158670987Y-83609294D01*
X158444866Y-83794866D01*
X158259294Y-84020986D01*
X158121401Y-84278966D01*
X158036487Y-84558889D01*
X158015000Y-84777050D01*
X158015000Y-85222949D01*
X158036487Y-85441110D01*
X158121401Y-85721033D01*
X158259294Y-85979013D01*
X158444866Y-86205134D01*
X158670986Y-86390706D01*
X158928966Y-86528599D01*
X159208889Y-86613513D01*
X159500000Y-86642185D01*
X159791110Y-86613513D01*
X160071033Y-86528599D01*
X160329013Y-86390706D01*
X160555134Y-86205134D01*
X160607223Y-86141663D01*
X160661595Y-86243386D01*
X160772038Y-86377962D01*
X160906614Y-86488405D01*
X161060150Y-86570472D01*
X161215000Y-86617445D01*
X161215001Y-91382555D01*
X161060150Y-91429528D01*
X160906614Y-91511595D01*
X160772038Y-91622038D01*
X160661595Y-91756614D01*
X160607223Y-91858337D01*
X160555134Y-91794866D01*
X160329014Y-91609294D01*
X160071034Y-91471401D01*
X159791111Y-91386487D01*
X159500000Y-91357815D01*
X159208890Y-91386487D01*
X159161132Y-91400974D01*
X156785000Y-89024843D01*
X156785000Y-83658552D01*
X156788797Y-83619999D01*
X156785000Y-83581446D01*
X156785000Y-83581439D01*
X156773641Y-83466113D01*
X156728754Y-83318140D01*
X156655862Y-83181767D01*
X156557764Y-83062236D01*
X156527817Y-83037659D01*
X151528757Y-78038600D01*
X151533619Y-78038600D01*
X151753777Y-78016916D01*
X152036264Y-77931225D01*
X152296606Y-77792069D01*
X152524797Y-77604797D01*
X152712069Y-77376606D01*
X152730000Y-77343060D01*
X152747931Y-77376606D01*
X152935203Y-77604797D01*
X153163394Y-77792069D01*
X153423736Y-77931225D01*
X153706223Y-78016916D01*
X153926381Y-78038600D01*
X154073619Y-78038600D01*
X154293777Y-78016916D01*
X154576264Y-77931225D01*
X154836606Y-77792069D01*
X155064797Y-77604797D01*
X155252069Y-77376606D01*
X155391225Y-77116264D01*
X155476916Y-76833777D01*
X155505851Y-76540000D01*
X155476916Y-76246223D01*
X155391225Y-75963736D01*
X155252069Y-75703394D01*
X155064797Y-75475203D01*
X155056735Y-75468586D01*
X155107780Y-75453102D01*
X155218094Y-75394137D01*
X155314785Y-75314785D01*
X155338875Y-75285432D01*
X158715000Y-78661557D01*
X158715000Y-78661557D01*
G37*
X158715000Y-78661557D02*
X158715001Y-83585768D01*
X158670987Y-83609294D01*
X158444866Y-83794866D01*
X158259294Y-84020986D01*
X158121401Y-84278966D01*
X158036487Y-84558889D01*
X158015000Y-84777050D01*
X158015000Y-85222949D01*
X158036487Y-85441110D01*
X158121401Y-85721033D01*
X158259294Y-85979013D01*
X158444866Y-86205134D01*
X158670986Y-86390706D01*
X158928966Y-86528599D01*
X159208889Y-86613513D01*
X159500000Y-86642185D01*
X159791110Y-86613513D01*
X160071033Y-86528599D01*
X160329013Y-86390706D01*
X160555134Y-86205134D01*
X160607223Y-86141663D01*
X160661595Y-86243386D01*
X160772038Y-86377962D01*
X160906614Y-86488405D01*
X161060150Y-86570472D01*
X161215000Y-86617445D01*
X161215001Y-91382555D01*
X161060150Y-91429528D01*
X160906614Y-91511595D01*
X160772038Y-91622038D01*
X160661595Y-91756614D01*
X160607223Y-91858337D01*
X160555134Y-91794866D01*
X160329014Y-91609294D01*
X160071034Y-91471401D01*
X159791111Y-91386487D01*
X159500000Y-91357815D01*
X159208890Y-91386487D01*
X159161132Y-91400974D01*
X156785000Y-89024843D01*
X156785000Y-83658552D01*
X156788797Y-83619999D01*
X156785000Y-83581446D01*
X156785000Y-83581439D01*
X156773641Y-83466113D01*
X156728754Y-83318140D01*
X156655862Y-83181767D01*
X156557764Y-83062236D01*
X156527817Y-83037659D01*
X151528757Y-78038600D01*
X151533619Y-78038600D01*
X151753777Y-78016916D01*
X152036264Y-77931225D01*
X152296606Y-77792069D01*
X152524797Y-77604797D01*
X152712069Y-77376606D01*
X152730000Y-77343060D01*
X152747931Y-77376606D01*
X152935203Y-77604797D01*
X153163394Y-77792069D01*
X153423736Y-77931225D01*
X153706223Y-78016916D01*
X153926381Y-78038600D01*
X154073619Y-78038600D01*
X154293777Y-78016916D01*
X154576264Y-77931225D01*
X154836606Y-77792069D01*
X155064797Y-77604797D01*
X155252069Y-77376606D01*
X155391225Y-77116264D01*
X155476916Y-76833777D01*
X155505851Y-76540000D01*
X155476916Y-76246223D01*
X155391225Y-75963736D01*
X155252069Y-75703394D01*
X155064797Y-75475203D01*
X155056735Y-75468586D01*
X155107780Y-75453102D01*
X155218094Y-75394137D01*
X155314785Y-75314785D01*
X155338875Y-75285432D01*
X158715000Y-78661557D01*
G36*
X122434776Y-91455067D02*
G01*
X122291111Y-91411487D01*
X122093166Y-91391991D01*
X124700158Y-88785000D01*
X125104843Y-88785000D01*
X122434776Y-91455067D01*
X122434776Y-91455067D01*
G37*
X122434776Y-91455067D02*
X122291111Y-91411487D01*
X122093166Y-91391991D01*
X124700158Y-88785000D01*
X125104843Y-88785000D01*
X122434776Y-91455067D01*
G36*
X129887931Y-77376606D02*
G01*
X130075203Y-77604797D01*
X130303394Y-77792069D01*
X130563736Y-77931225D01*
X130846223Y-78016916D01*
X131066381Y-78038600D01*
X131213619Y-78038600D01*
X131433777Y-78016916D01*
X131681399Y-77941801D01*
X131681400Y-81501320D01*
X128488072Y-84694649D01*
X128488072Y-84275000D01*
X128471008Y-84101746D01*
X128420472Y-83935150D01*
X128338405Y-83781614D01*
X128227962Y-83647038D01*
X128093386Y-83536595D01*
X127939850Y-83454528D01*
X127773254Y-83403992D01*
X127600000Y-83386928D01*
X126723229Y-83386928D01*
X128527816Y-81582342D01*
X128557764Y-81557764D01*
X128655862Y-81438233D01*
X128728754Y-81301860D01*
X128738041Y-81271246D01*
X128773641Y-81153888D01*
X128778728Y-81102236D01*
X128785000Y-81038561D01*
X128785000Y-81038554D01*
X128788797Y-81000001D01*
X128785000Y-80961448D01*
X128785000Y-78686471D01*
X129127815Y-78343657D01*
X129157764Y-78319078D01*
X129255862Y-78199547D01*
X129328754Y-78063174D01*
X129368780Y-77931225D01*
X129373641Y-77915202D01*
X129376758Y-77883550D01*
X129382944Y-77820752D01*
X129436606Y-77792069D01*
X129664797Y-77604797D01*
X129852069Y-77376606D01*
X129870000Y-77343060D01*
X129887931Y-77376606D01*
X129887931Y-77376606D01*
G37*
X129887931Y-77376606D02*
X130075203Y-77604797D01*
X130303394Y-77792069D01*
X130563736Y-77931225D01*
X130846223Y-78016916D01*
X131066381Y-78038600D01*
X131213619Y-78038600D01*
X131433777Y-78016916D01*
X131681399Y-77941801D01*
X131681400Y-81501320D01*
X128488072Y-84694649D01*
X128488072Y-84275000D01*
X128471008Y-84101746D01*
X128420472Y-83935150D01*
X128338405Y-83781614D01*
X128227962Y-83647038D01*
X128093386Y-83536595D01*
X127939850Y-83454528D01*
X127773254Y-83403992D01*
X127600000Y-83386928D01*
X126723229Y-83386928D01*
X128527816Y-81582342D01*
X128557764Y-81557764D01*
X128655862Y-81438233D01*
X128728754Y-81301860D01*
X128738041Y-81271246D01*
X128773641Y-81153888D01*
X128778728Y-81102236D01*
X128785000Y-81038561D01*
X128785000Y-81038554D01*
X128788797Y-81000001D01*
X128785000Y-80961448D01*
X128785000Y-78686471D01*
X129127815Y-78343657D01*
X129157764Y-78319078D01*
X129255862Y-78199547D01*
X129328754Y-78063174D01*
X129368780Y-77931225D01*
X129373641Y-77915202D01*
X129376758Y-77883550D01*
X129382944Y-77820752D01*
X129436606Y-77792069D01*
X129664797Y-77604797D01*
X129852069Y-77376606D01*
X129870000Y-77343060D01*
X129887931Y-77376606D01*
G36*
X114472236Y-84496840D02*
G01*
X114439850Y-84479529D01*
X114273253Y-84428992D01*
X114099999Y-84411928D01*
X112880310Y-84411928D01*
X119117239Y-78175000D01*
X120794075Y-78175000D01*
X114472236Y-84496840D01*
X114472236Y-84496840D01*
G37*
X114472236Y-84496840D02*
X114439850Y-84479529D01*
X114273253Y-84428992D01*
X114099999Y-84411928D01*
X112880310Y-84411928D01*
X119117239Y-78175000D01*
X120794075Y-78175000D01*
X114472236Y-84496840D01*
G36*
X123444866Y-83819866D02*
G01*
X123259294Y-84045986D01*
X123250000Y-84063374D01*
X123240706Y-84045986D01*
X123055134Y-83819866D01*
X123033250Y-83801907D01*
X123050157Y-83785000D01*
X123487351Y-83785000D01*
X123444866Y-83819866D01*
X123444866Y-83819866D01*
G37*
X123444866Y-83819866D02*
X123259294Y-84045986D01*
X123250000Y-84063374D01*
X123240706Y-84045986D01*
X123055134Y-83819866D01*
X123033250Y-83801907D01*
X123050157Y-83785000D01*
X123487351Y-83785000D01*
X123444866Y-83819866D01*
G36*
X125607223Y-83883337D02*
G01*
X125555134Y-83819866D01*
X125512650Y-83785000D01*
X125659785Y-83785000D01*
X125607223Y-83883337D01*
X125607223Y-83883337D01*
G37*
X125607223Y-83883337D02*
X125555134Y-83819866D01*
X125512650Y-83785000D01*
X125659785Y-83785000D01*
X125607223Y-83883337D01*
G36*
X137975001Y-81334841D02*
G01*
X136486595Y-82823247D01*
X136463513Y-82588889D01*
X136449026Y-82541131D01*
X137975001Y-81015156D01*
X137975001Y-81334841D01*
X137975001Y-81334841D01*
G37*
X137975001Y-81334841D02*
X136486595Y-82823247D01*
X136463513Y-82588889D01*
X136449026Y-82541131D01*
X137975001Y-81015156D01*
X137975001Y-81334841D01*
G36*
X134967931Y-77376606D02*
G01*
X135155203Y-77604797D01*
X135383394Y-77792069D01*
X135643736Y-77931225D01*
X135926223Y-78016916D01*
X136146381Y-78038600D01*
X136293619Y-78038600D01*
X136513777Y-78016916D01*
X136761400Y-77941801D01*
X136761400Y-80008443D01*
X135338869Y-81430974D01*
X135291111Y-81416487D01*
X135072950Y-81395000D01*
X134927050Y-81395000D01*
X134708889Y-81416487D01*
X134428966Y-81501401D01*
X134170986Y-81639294D01*
X133944866Y-81824866D01*
X133787114Y-82017087D01*
X133788797Y-82000001D01*
X133785000Y-81961448D01*
X133785000Y-78766471D01*
X134207815Y-78343657D01*
X134237764Y-78319078D01*
X134335862Y-78199547D01*
X134408754Y-78063174D01*
X134448780Y-77931225D01*
X134453641Y-77915202D01*
X134456758Y-77883550D01*
X134462944Y-77820752D01*
X134516606Y-77792069D01*
X134744797Y-77604797D01*
X134932069Y-77376606D01*
X134950000Y-77343060D01*
X134967931Y-77376606D01*
X134967931Y-77376606D01*
G37*
X134967931Y-77376606D02*
X135155203Y-77604797D01*
X135383394Y-77792069D01*
X135643736Y-77931225D01*
X135926223Y-78016916D01*
X136146381Y-78038600D01*
X136293619Y-78038600D01*
X136513777Y-78016916D01*
X136761400Y-77941801D01*
X136761400Y-80008443D01*
X135338869Y-81430974D01*
X135291111Y-81416487D01*
X135072950Y-81395000D01*
X134927050Y-81395000D01*
X134708889Y-81416487D01*
X134428966Y-81501401D01*
X134170986Y-81639294D01*
X133944866Y-81824866D01*
X133787114Y-82017087D01*
X133788797Y-82000001D01*
X133785000Y-81961448D01*
X133785000Y-78766471D01*
X134207815Y-78343657D01*
X134237764Y-78319078D01*
X134335862Y-78199547D01*
X134408754Y-78063174D01*
X134448780Y-77931225D01*
X134453641Y-77915202D01*
X134456758Y-77883550D01*
X134462944Y-77820752D01*
X134516606Y-77792069D01*
X134744797Y-77604797D01*
X134932069Y-77376606D01*
X134950000Y-77343060D01*
X134967931Y-77376606D01*
G36*
X125223394Y-77792069D02*
G01*
X125483736Y-77931225D01*
X125766223Y-78016916D01*
X125986381Y-78038600D01*
X126133619Y-78038600D01*
X126353777Y-78016916D01*
X126601400Y-77941801D01*
X126601400Y-80288442D01*
X125674843Y-81215000D01*
X122413553Y-81215000D01*
X122381691Y-81211862D01*
X124619319Y-78974234D01*
X124681714Y-78923028D01*
X124886031Y-78674066D01*
X125037852Y-78390029D01*
X125131343Y-78081830D01*
X125155000Y-77841636D01*
X125155000Y-77841634D01*
X125162911Y-77761314D01*
X125160888Y-77740771D01*
X125223394Y-77792069D01*
X125223394Y-77792069D01*
G37*
X125223394Y-77792069D02*
X125483736Y-77931225D01*
X125766223Y-78016916D01*
X125986381Y-78038600D01*
X126133619Y-78038600D01*
X126353777Y-78016916D01*
X126601400Y-77941801D01*
X126601400Y-80288442D01*
X125674843Y-81215000D01*
X122413553Y-81215000D01*
X122381691Y-81211862D01*
X124619319Y-78974234D01*
X124681714Y-78923028D01*
X124886031Y-78674066D01*
X125037852Y-78390029D01*
X125131343Y-78081830D01*
X125155000Y-77841636D01*
X125155000Y-77841634D01*
X125162911Y-77761314D01*
X125160888Y-77740771D01*
X125223394Y-77792069D01*
G36*
X150207931Y-74836606D02*
G01*
X150395203Y-75064797D01*
X150623394Y-75252069D01*
X150656940Y-75270000D01*
X150623394Y-75287931D01*
X150395203Y-75475203D01*
X150207931Y-75703394D01*
X150190000Y-75736940D01*
X150172069Y-75703394D01*
X149984797Y-75475203D01*
X149756606Y-75287931D01*
X149723060Y-75270000D01*
X149756606Y-75252069D01*
X149984797Y-75064797D01*
X150172069Y-74836606D01*
X150190000Y-74803060D01*
X150207931Y-74836606D01*
X150207931Y-74836606D01*
G37*
X150207931Y-74836606D02*
X150395203Y-75064797D01*
X150623394Y-75252069D01*
X150656940Y-75270000D01*
X150623394Y-75287931D01*
X150395203Y-75475203D01*
X150207931Y-75703394D01*
X150190000Y-75736940D01*
X150172069Y-75703394D01*
X149984797Y-75475203D01*
X149756606Y-75287931D01*
X149723060Y-75270000D01*
X149756606Y-75252069D01*
X149984797Y-75064797D01*
X150172069Y-74836606D01*
X150190000Y-74803060D01*
X150207931Y-74836606D01*
G36*
X147667931Y-74836606D02*
G01*
X147855203Y-75064797D01*
X148083394Y-75252069D01*
X148116940Y-75270000D01*
X148083394Y-75287931D01*
X147855203Y-75475203D01*
X147667931Y-75703394D01*
X147650000Y-75736940D01*
X147632069Y-75703394D01*
X147444797Y-75475203D01*
X147216606Y-75287931D01*
X147183060Y-75270000D01*
X147216606Y-75252069D01*
X147444797Y-75064797D01*
X147632069Y-74836606D01*
X147650000Y-74803060D01*
X147667931Y-74836606D01*
X147667931Y-74836606D01*
G37*
X147667931Y-74836606D02*
X147855203Y-75064797D01*
X148083394Y-75252069D01*
X148116940Y-75270000D01*
X148083394Y-75287931D01*
X147855203Y-75475203D01*
X147667931Y-75703394D01*
X147650000Y-75736940D01*
X147632069Y-75703394D01*
X147444797Y-75475203D01*
X147216606Y-75287931D01*
X147183060Y-75270000D01*
X147216606Y-75252069D01*
X147444797Y-75064797D01*
X147632069Y-74836606D01*
X147650000Y-74803060D01*
X147667931Y-74836606D01*
G36*
X145127931Y-74836606D02*
G01*
X145315203Y-75064797D01*
X145543394Y-75252069D01*
X145576940Y-75270000D01*
X145543394Y-75287931D01*
X145315203Y-75475203D01*
X145127931Y-75703394D01*
X145110000Y-75736940D01*
X145092069Y-75703394D01*
X144904797Y-75475203D01*
X144676606Y-75287931D01*
X144643060Y-75270000D01*
X144676606Y-75252069D01*
X144904797Y-75064797D01*
X145092069Y-74836606D01*
X145110000Y-74803060D01*
X145127931Y-74836606D01*
X145127931Y-74836606D01*
G37*
X145127931Y-74836606D02*
X145315203Y-75064797D01*
X145543394Y-75252069D01*
X145576940Y-75270000D01*
X145543394Y-75287931D01*
X145315203Y-75475203D01*
X145127931Y-75703394D01*
X145110000Y-75736940D01*
X145092069Y-75703394D01*
X144904797Y-75475203D01*
X144676606Y-75287931D01*
X144643060Y-75270000D01*
X144676606Y-75252069D01*
X144904797Y-75064797D01*
X145092069Y-74836606D01*
X145110000Y-74803060D01*
X145127931Y-74836606D01*
G36*
X152546898Y-75107780D02*
G01*
X152605863Y-75218094D01*
X152685215Y-75314785D01*
X152781906Y-75394137D01*
X152892220Y-75453102D01*
X152943265Y-75468586D01*
X152935203Y-75475203D01*
X152747931Y-75703394D01*
X152730000Y-75736940D01*
X152712069Y-75703394D01*
X152524797Y-75475203D01*
X152296606Y-75287931D01*
X152263060Y-75270000D01*
X152296606Y-75252069D01*
X152524797Y-75064797D01*
X152531414Y-75056735D01*
X152546898Y-75107780D01*
X152546898Y-75107780D01*
G37*
X152546898Y-75107780D02*
X152605863Y-75218094D01*
X152685215Y-75314785D01*
X152781906Y-75394137D01*
X152892220Y-75453102D01*
X152943265Y-75468586D01*
X152935203Y-75475203D01*
X152747931Y-75703394D01*
X152730000Y-75736940D01*
X152712069Y-75703394D01*
X152524797Y-75475203D01*
X152296606Y-75287931D01*
X152263060Y-75270000D01*
X152296606Y-75252069D01*
X152524797Y-75064797D01*
X152531414Y-75056735D01*
X152546898Y-75107780D01*
G36*
X134967931Y-74836606D02*
G01*
X135155203Y-75064797D01*
X135383394Y-75252069D01*
X135416940Y-75270000D01*
X135383394Y-75287931D01*
X135155203Y-75475203D01*
X134967931Y-75703394D01*
X134950000Y-75736940D01*
X134932069Y-75703394D01*
X134744797Y-75475203D01*
X134516606Y-75287931D01*
X134483060Y-75270000D01*
X134516606Y-75252069D01*
X134744797Y-75064797D01*
X134932069Y-74836606D01*
X134950000Y-74803060D01*
X134967931Y-74836606D01*
X134967931Y-74836606D01*
G37*
X134967931Y-74836606D02*
X135155203Y-75064797D01*
X135383394Y-75252069D01*
X135416940Y-75270000D01*
X135383394Y-75287931D01*
X135155203Y-75475203D01*
X134967931Y-75703394D01*
X134950000Y-75736940D01*
X134932069Y-75703394D01*
X134744797Y-75475203D01*
X134516606Y-75287931D01*
X134483060Y-75270000D01*
X134516606Y-75252069D01*
X134744797Y-75064797D01*
X134932069Y-74836606D01*
X134950000Y-74803060D01*
X134967931Y-74836606D01*
G36*
X129887931Y-74836606D02*
G01*
X130075203Y-75064797D01*
X130303394Y-75252069D01*
X130336940Y-75270000D01*
X130303394Y-75287931D01*
X130075203Y-75475203D01*
X129887931Y-75703394D01*
X129870000Y-75736940D01*
X129852069Y-75703394D01*
X129664797Y-75475203D01*
X129436606Y-75287931D01*
X129403060Y-75270000D01*
X129436606Y-75252069D01*
X129664797Y-75064797D01*
X129852069Y-74836606D01*
X129870000Y-74803060D01*
X129887931Y-74836606D01*
X129887931Y-74836606D01*
G37*
X129887931Y-74836606D02*
X130075203Y-75064797D01*
X130303394Y-75252069D01*
X130336940Y-75270000D01*
X130303394Y-75287931D01*
X130075203Y-75475203D01*
X129887931Y-75703394D01*
X129870000Y-75736940D01*
X129852069Y-75703394D01*
X129664797Y-75475203D01*
X129436606Y-75287931D01*
X129403060Y-75270000D01*
X129436606Y-75252069D01*
X129664797Y-75064797D01*
X129852069Y-74836606D01*
X129870000Y-74803060D01*
X129887931Y-74836606D01*
G36*
X142587931Y-74836606D02*
G01*
X142775203Y-75064797D01*
X143003394Y-75252069D01*
X143036940Y-75270000D01*
X143003394Y-75287931D01*
X142775203Y-75475203D01*
X142587931Y-75703394D01*
X142570000Y-75736940D01*
X142552069Y-75703394D01*
X142364797Y-75475203D01*
X142136606Y-75287931D01*
X142103060Y-75270000D01*
X142136606Y-75252069D01*
X142364797Y-75064797D01*
X142552069Y-74836606D01*
X142570000Y-74803060D01*
X142587931Y-74836606D01*
X142587931Y-74836606D01*
G37*
X142587931Y-74836606D02*
X142775203Y-75064797D01*
X143003394Y-75252069D01*
X143036940Y-75270000D01*
X143003394Y-75287931D01*
X142775203Y-75475203D01*
X142587931Y-75703394D01*
X142570000Y-75736940D01*
X142552069Y-75703394D01*
X142364797Y-75475203D01*
X142136606Y-75287931D01*
X142103060Y-75270000D01*
X142136606Y-75252069D01*
X142364797Y-75064797D01*
X142552069Y-74836606D01*
X142570000Y-74803060D01*
X142587931Y-74836606D01*
G36*
X125223394Y-75252069D02*
G01*
X125256940Y-75270000D01*
X125223394Y-75287931D01*
X125155000Y-75344061D01*
X125155000Y-75195939D01*
X125223394Y-75252069D01*
X125223394Y-75252069D01*
G37*
X125223394Y-75252069D02*
X125256940Y-75270000D01*
X125223394Y-75287931D01*
X125155000Y-75344061D01*
X125155000Y-75195939D01*
X125223394Y-75252069D01*
M02*
