M48
; DRILL file {KiCad (5.1.4-0-10_14)} date 2019 September 29, Sunday 00:12:15
; FORMAT={-:-/ absolute / metric / decimal}
; #@! TF.CreationDate,2019-09-29T00:12:15+03:00
; #@! TF.GenerationSoftware,Kicad,Pcbnew,(5.1.4-0-10_14)
; #@! TF.FileFunction,Plated,1,2,PTH
FMAT,2
METRIC
T1C0.950
T2C1.000
T3C1.016
T4C1.700
T5C3.200
%
G90
G05
T1
X119.5Y-85.0
X122.0Y-85.0
X124.5Y-85.0
X127.0Y-85.0
X119.5Y-93.0
X122.0Y-93.0
X124.5Y-93.0
X127.0Y-93.0
T2
X150.5Y-93.0
X153.0Y-93.0
X150.5Y-85.0
X153.0Y-85.0
X135.0Y-82.88
X135.0Y-85.42
X135.0Y-87.96
X135.0Y-90.5
X141.5Y-93.0
X144.0Y-93.0
X150.5Y-101.0
X153.0Y-101.0
X141.5Y-85.0
X144.0Y-85.0
X159.5Y-85.0
X162.0Y-85.0
X159.5Y-93.0
X162.0Y-93.0
X163.15Y-79.0
T3
X118.44Y-74.0
X118.44Y-76.54
X120.98Y-74.0
X120.98Y-76.54
X123.52Y-74.0
X123.52Y-76.54
X126.06Y-74.0
X126.06Y-76.54
X128.6Y-74.0
X128.6Y-76.54
X131.14Y-74.0
X131.14Y-76.54
X133.68Y-74.0
X133.68Y-76.54
X136.22Y-74.0
X136.22Y-76.54
X138.76Y-74.0
X138.76Y-76.54
X141.3Y-74.0
X141.3Y-76.54
X143.84Y-74.0
X143.84Y-76.54
X146.38Y-74.0
X146.38Y-76.54
X148.92Y-74.0
X148.92Y-76.54
X151.46Y-74.0
X151.46Y-76.54
X154.0Y-74.0
X154.0Y-76.54
T4
X109.04Y-86.4
X113.0Y-86.4
T5
X109.0Y-102.0
X163.0Y-102.0
X109.0Y-73.0
X163.0Y-73.0
T0
M30
