G04 #@! TF.GenerationSoftware,KiCad,Pcbnew,(5.1.4-0-10_14)*
G04 #@! TF.CreationDate,2019-09-29T00:11:58+03:00*
G04 #@! TF.ProjectId,RibbonCable_MB_BreakdownBoard,52696262-6f6e-4436-9162-6c655f4d425f,rev?*
G04 #@! TF.SameCoordinates,Original*
G04 #@! TF.FileFunction,Legend,Top*
G04 #@! TF.FilePolarity,Positive*
%FSLAX46Y46*%
G04 Gerber Fmt 4.6, Leading zero omitted, Abs format (unit mm)*
G04 Created by KiCad (PCBNEW (5.1.4-0-10_14)) date 2019-09-29 00:11:58*
%MOMM*%
%LPD*%
G04 APERTURE LIST*
%ADD10C,0.150000*%
%ADD11C,0.010000*%
%ADD12C,0.120000*%
G04 APERTURE END LIST*
D10*
X115183333Y-100650000D02*
X115150000Y-100683333D01*
X115050000Y-100716666D01*
X114983333Y-100716666D01*
X114883333Y-100683333D01*
X114816666Y-100616666D01*
X114783333Y-100550000D01*
X114750000Y-100416666D01*
X114750000Y-100316666D01*
X114783333Y-100183333D01*
X114816666Y-100116666D01*
X114883333Y-100050000D01*
X114983333Y-100016666D01*
X115050000Y-100016666D01*
X115150000Y-100050000D01*
X115183333Y-100083333D01*
X115883333Y-100716666D02*
X115650000Y-100383333D01*
X115483333Y-100716666D02*
X115483333Y-100016666D01*
X115750000Y-100016666D01*
X115816666Y-100050000D01*
X115850000Y-100083333D01*
X115883333Y-100150000D01*
X115883333Y-100250000D01*
X115850000Y-100316666D01*
X115816666Y-100350000D01*
X115750000Y-100383333D01*
X115483333Y-100383333D01*
X116183333Y-100450000D02*
X116716666Y-100450000D01*
X117416666Y-100716666D02*
X117016666Y-100716666D01*
X117216666Y-100716666D02*
X117216666Y-100016666D01*
X117150000Y-100116666D01*
X117083333Y-100183333D01*
X117016666Y-100216666D01*
X117850000Y-100016666D02*
X117916666Y-100016666D01*
X117983333Y-100050000D01*
X118016666Y-100083333D01*
X118050000Y-100150000D01*
X118083333Y-100283333D01*
X118083333Y-100450000D01*
X118050000Y-100583333D01*
X118016666Y-100650000D01*
X117983333Y-100683333D01*
X117916666Y-100716666D01*
X117850000Y-100716666D01*
X117783333Y-100683333D01*
X117750000Y-100650000D01*
X117716666Y-100583333D01*
X117683333Y-100450000D01*
X117683333Y-100283333D01*
X117716666Y-100150000D01*
X117750000Y-100083333D01*
X117783333Y-100050000D01*
X117850000Y-100016666D01*
X118350000Y-100683333D02*
X118450000Y-100716666D01*
X118616666Y-100716666D01*
X118683333Y-100683333D01*
X118716666Y-100650000D01*
X118750000Y-100583333D01*
X118750000Y-100516666D01*
X118716666Y-100450000D01*
X118683333Y-100416666D01*
X118616666Y-100383333D01*
X118483333Y-100350000D01*
X118416666Y-100316666D01*
X118383333Y-100283333D01*
X118350000Y-100216666D01*
X118350000Y-100150000D01*
X118383333Y-100083333D01*
X118416666Y-100050000D01*
X118483333Y-100016666D01*
X118650000Y-100016666D01*
X118750000Y-100050000D01*
X119583333Y-100716666D02*
X119583333Y-100016666D01*
X119850000Y-100016666D01*
X119916666Y-100050000D01*
X119950000Y-100083333D01*
X119983333Y-100150000D01*
X119983333Y-100250000D01*
X119950000Y-100316666D01*
X119916666Y-100350000D01*
X119850000Y-100383333D01*
X119583333Y-100383333D01*
X120283333Y-100716666D02*
X120283333Y-100250000D01*
X120283333Y-100383333D02*
X120316666Y-100316666D01*
X120350000Y-100283333D01*
X120416666Y-100250000D01*
X120483333Y-100250000D01*
X120816666Y-100716666D02*
X120750000Y-100683333D01*
X120716666Y-100650000D01*
X120683333Y-100583333D01*
X120683333Y-100383333D01*
X120716666Y-100316666D01*
X120750000Y-100283333D01*
X120816666Y-100250000D01*
X120916666Y-100250000D01*
X120983333Y-100283333D01*
X121016666Y-100316666D01*
X121050000Y-100383333D01*
X121050000Y-100583333D01*
X121016666Y-100650000D01*
X120983333Y-100683333D01*
X120916666Y-100716666D01*
X120816666Y-100716666D01*
X121883333Y-100716666D02*
X121883333Y-100250000D01*
X121883333Y-100383333D02*
X121916666Y-100316666D01*
X121950000Y-100283333D01*
X122016666Y-100250000D01*
X122083333Y-100250000D01*
X122316666Y-100716666D02*
X122316666Y-100250000D01*
X122316666Y-100016666D02*
X122283333Y-100050000D01*
X122316666Y-100083333D01*
X122350000Y-100050000D01*
X122316666Y-100016666D01*
X122316666Y-100083333D01*
X122650000Y-100716666D02*
X122650000Y-100016666D01*
X122650000Y-100283333D02*
X122716666Y-100250000D01*
X122850000Y-100250000D01*
X122916666Y-100283333D01*
X122950000Y-100316666D01*
X122983333Y-100383333D01*
X122983333Y-100583333D01*
X122950000Y-100650000D01*
X122916666Y-100683333D01*
X122850000Y-100716666D01*
X122716666Y-100716666D01*
X122650000Y-100683333D01*
X123283333Y-100716666D02*
X123283333Y-100016666D01*
X123283333Y-100283333D02*
X123350000Y-100250000D01*
X123483333Y-100250000D01*
X123550000Y-100283333D01*
X123583333Y-100316666D01*
X123616666Y-100383333D01*
X123616666Y-100583333D01*
X123583333Y-100650000D01*
X123550000Y-100683333D01*
X123483333Y-100716666D01*
X123350000Y-100716666D01*
X123283333Y-100683333D01*
X124016666Y-100716666D02*
X123950000Y-100683333D01*
X123916666Y-100650000D01*
X123883333Y-100583333D01*
X123883333Y-100383333D01*
X123916666Y-100316666D01*
X123950000Y-100283333D01*
X124016666Y-100250000D01*
X124116666Y-100250000D01*
X124183333Y-100283333D01*
X124216666Y-100316666D01*
X124250000Y-100383333D01*
X124250000Y-100583333D01*
X124216666Y-100650000D01*
X124183333Y-100683333D01*
X124116666Y-100716666D01*
X124016666Y-100716666D01*
X124550000Y-100250000D02*
X124550000Y-100716666D01*
X124550000Y-100316666D02*
X124583333Y-100283333D01*
X124650000Y-100250000D01*
X124750000Y-100250000D01*
X124816666Y-100283333D01*
X124850000Y-100350000D01*
X124850000Y-100716666D01*
X126016666Y-100683333D02*
X125950000Y-100716666D01*
X125816666Y-100716666D01*
X125750000Y-100683333D01*
X125716666Y-100650000D01*
X125683333Y-100583333D01*
X125683333Y-100383333D01*
X125716666Y-100316666D01*
X125750000Y-100283333D01*
X125816666Y-100250000D01*
X125950000Y-100250000D01*
X126016666Y-100283333D01*
X126616666Y-100716666D02*
X126616666Y-100350000D01*
X126583333Y-100283333D01*
X126516666Y-100250000D01*
X126383333Y-100250000D01*
X126316666Y-100283333D01*
X126616666Y-100683333D02*
X126550000Y-100716666D01*
X126383333Y-100716666D01*
X126316666Y-100683333D01*
X126283333Y-100616666D01*
X126283333Y-100550000D01*
X126316666Y-100483333D01*
X126383333Y-100450000D01*
X126550000Y-100450000D01*
X126616666Y-100416666D01*
X126950000Y-100716666D02*
X126950000Y-100016666D01*
X126950000Y-100283333D02*
X127016666Y-100250000D01*
X127150000Y-100250000D01*
X127216666Y-100283333D01*
X127250000Y-100316666D01*
X127283333Y-100383333D01*
X127283333Y-100583333D01*
X127250000Y-100650000D01*
X127216666Y-100683333D01*
X127150000Y-100716666D01*
X127016666Y-100716666D01*
X126950000Y-100683333D01*
X127683333Y-100716666D02*
X127616666Y-100683333D01*
X127583333Y-100616666D01*
X127583333Y-100016666D01*
X128216666Y-100683333D02*
X128150000Y-100716666D01*
X128016666Y-100716666D01*
X127950000Y-100683333D01*
X127916666Y-100616666D01*
X127916666Y-100350000D01*
X127950000Y-100283333D01*
X128016666Y-100250000D01*
X128150000Y-100250000D01*
X128216666Y-100283333D01*
X128250000Y-100350000D01*
X128250000Y-100416666D01*
X127916666Y-100483333D01*
X116150000Y-101916666D02*
X116150000Y-101216666D01*
X116383333Y-101716666D01*
X116616666Y-101216666D01*
X116616666Y-101916666D01*
X117183333Y-101550000D02*
X117283333Y-101583333D01*
X117316666Y-101616666D01*
X117350000Y-101683333D01*
X117350000Y-101783333D01*
X117316666Y-101850000D01*
X117283333Y-101883333D01*
X117216666Y-101916666D01*
X116950000Y-101916666D01*
X116950000Y-101216666D01*
X117183333Y-101216666D01*
X117250000Y-101250000D01*
X117283333Y-101283333D01*
X117316666Y-101350000D01*
X117316666Y-101416666D01*
X117283333Y-101483333D01*
X117250000Y-101516666D01*
X117183333Y-101550000D01*
X116950000Y-101550000D01*
X118183333Y-101916666D02*
X118183333Y-101216666D01*
X118183333Y-101483333D02*
X118250000Y-101450000D01*
X118383333Y-101450000D01*
X118450000Y-101483333D01*
X118483333Y-101516666D01*
X118516666Y-101583333D01*
X118516666Y-101783333D01*
X118483333Y-101850000D01*
X118450000Y-101883333D01*
X118383333Y-101916666D01*
X118250000Y-101916666D01*
X118183333Y-101883333D01*
X118816666Y-101916666D02*
X118816666Y-101450000D01*
X118816666Y-101583333D02*
X118850000Y-101516666D01*
X118883333Y-101483333D01*
X118950000Y-101450000D01*
X119016666Y-101450000D01*
X119516666Y-101883333D02*
X119450000Y-101916666D01*
X119316666Y-101916666D01*
X119250000Y-101883333D01*
X119216666Y-101816666D01*
X119216666Y-101550000D01*
X119250000Y-101483333D01*
X119316666Y-101450000D01*
X119450000Y-101450000D01*
X119516666Y-101483333D01*
X119550000Y-101550000D01*
X119550000Y-101616666D01*
X119216666Y-101683333D01*
X120150000Y-101916666D02*
X120150000Y-101550000D01*
X120116666Y-101483333D01*
X120050000Y-101450000D01*
X119916666Y-101450000D01*
X119850000Y-101483333D01*
X120150000Y-101883333D02*
X120083333Y-101916666D01*
X119916666Y-101916666D01*
X119850000Y-101883333D01*
X119816666Y-101816666D01*
X119816666Y-101750000D01*
X119850000Y-101683333D01*
X119916666Y-101650000D01*
X120083333Y-101650000D01*
X120150000Y-101616666D01*
X120483333Y-101916666D02*
X120483333Y-101216666D01*
X120550000Y-101650000D02*
X120750000Y-101916666D01*
X120750000Y-101450000D02*
X120483333Y-101716666D01*
X121350000Y-101916666D02*
X121350000Y-101216666D01*
X121350000Y-101883333D02*
X121283333Y-101916666D01*
X121150000Y-101916666D01*
X121083333Y-101883333D01*
X121050000Y-101850000D01*
X121016666Y-101783333D01*
X121016666Y-101583333D01*
X121050000Y-101516666D01*
X121083333Y-101483333D01*
X121150000Y-101450000D01*
X121283333Y-101450000D01*
X121350000Y-101483333D01*
X121783333Y-101916666D02*
X121716666Y-101883333D01*
X121683333Y-101850000D01*
X121650000Y-101783333D01*
X121650000Y-101583333D01*
X121683333Y-101516666D01*
X121716666Y-101483333D01*
X121783333Y-101450000D01*
X121883333Y-101450000D01*
X121950000Y-101483333D01*
X121983333Y-101516666D01*
X122016666Y-101583333D01*
X122016666Y-101783333D01*
X121983333Y-101850000D01*
X121950000Y-101883333D01*
X121883333Y-101916666D01*
X121783333Y-101916666D01*
X122250000Y-101450000D02*
X122383333Y-101916666D01*
X122516666Y-101583333D01*
X122650000Y-101916666D01*
X122783333Y-101450000D01*
X123050000Y-101450000D02*
X123050000Y-101916666D01*
X123050000Y-101516666D02*
X123083333Y-101483333D01*
X123150000Y-101450000D01*
X123250000Y-101450000D01*
X123316666Y-101483333D01*
X123350000Y-101550000D01*
X123350000Y-101916666D01*
X124216666Y-101916666D02*
X124216666Y-101216666D01*
X124216666Y-101483333D02*
X124283333Y-101450000D01*
X124416666Y-101450000D01*
X124483333Y-101483333D01*
X124516666Y-101516666D01*
X124550000Y-101583333D01*
X124550000Y-101783333D01*
X124516666Y-101850000D01*
X124483333Y-101883333D01*
X124416666Y-101916666D01*
X124283333Y-101916666D01*
X124216666Y-101883333D01*
X124950000Y-101916666D02*
X124883333Y-101883333D01*
X124850000Y-101850000D01*
X124816666Y-101783333D01*
X124816666Y-101583333D01*
X124850000Y-101516666D01*
X124883333Y-101483333D01*
X124950000Y-101450000D01*
X125050000Y-101450000D01*
X125116666Y-101483333D01*
X125150000Y-101516666D01*
X125183333Y-101583333D01*
X125183333Y-101783333D01*
X125150000Y-101850000D01*
X125116666Y-101883333D01*
X125050000Y-101916666D01*
X124950000Y-101916666D01*
X125783333Y-101916666D02*
X125783333Y-101550000D01*
X125750000Y-101483333D01*
X125683333Y-101450000D01*
X125550000Y-101450000D01*
X125483333Y-101483333D01*
X125783333Y-101883333D02*
X125716666Y-101916666D01*
X125550000Y-101916666D01*
X125483333Y-101883333D01*
X125450000Y-101816666D01*
X125450000Y-101750000D01*
X125483333Y-101683333D01*
X125550000Y-101650000D01*
X125716666Y-101650000D01*
X125783333Y-101616666D01*
X126116666Y-101916666D02*
X126116666Y-101450000D01*
X126116666Y-101583333D02*
X126150000Y-101516666D01*
X126183333Y-101483333D01*
X126250000Y-101450000D01*
X126316666Y-101450000D01*
X126850000Y-101916666D02*
X126850000Y-101216666D01*
X126850000Y-101883333D02*
X126783333Y-101916666D01*
X126650000Y-101916666D01*
X126583333Y-101883333D01*
X126550000Y-101850000D01*
X126516666Y-101783333D01*
X126516666Y-101583333D01*
X126550000Y-101516666D01*
X126583333Y-101483333D01*
X126650000Y-101450000D01*
X126783333Y-101450000D01*
X126850000Y-101483333D01*
X129285714Y-88952380D02*
X128714285Y-88952380D01*
X129000000Y-88952380D02*
X129000000Y-87952380D01*
X128904761Y-88095238D01*
X128809523Y-88190476D01*
X128714285Y-88238095D01*
X118190476Y-88285714D02*
X118190476Y-88952380D01*
X117952380Y-87904761D02*
X117714285Y-88619047D01*
X118333333Y-88619047D01*
X118190476Y-96285714D02*
X118190476Y-96952380D01*
X117952380Y-95904761D02*
X117714285Y-96619047D01*
X118333333Y-96619047D01*
X129285714Y-96952380D02*
X128714285Y-96952380D01*
X129000000Y-96952380D02*
X129000000Y-95952380D01*
X128904761Y-96095238D01*
X128809523Y-96190476D01*
X128714285Y-96238095D01*
X130800000Y-90758166D02*
X130400000Y-90758166D01*
X130600000Y-90758166D02*
X130600000Y-90058166D01*
X130533333Y-90158166D01*
X130466666Y-90224833D01*
X130400000Y-90258166D01*
X131400000Y-90058166D02*
X131266666Y-90058166D01*
X131200000Y-90091500D01*
X131166666Y-90124833D01*
X131100000Y-90224833D01*
X131066666Y-90358166D01*
X131066666Y-90624833D01*
X131100000Y-90691500D01*
X131133333Y-90724833D01*
X131200000Y-90758166D01*
X131333333Y-90758166D01*
X131400000Y-90724833D01*
X131433333Y-90691500D01*
X131466666Y-90624833D01*
X131466666Y-90458166D01*
X131433333Y-90391500D01*
X131400000Y-90358166D01*
X131333333Y-90324833D01*
X131200000Y-90324833D01*
X131133333Y-90358166D01*
X131100000Y-90391500D01*
X131066666Y-90458166D01*
X131966666Y-91024833D02*
X131933333Y-90991500D01*
X131866666Y-90891500D01*
X131833333Y-90824833D01*
X131800000Y-90724833D01*
X131766666Y-90558166D01*
X131766666Y-90424833D01*
X131800000Y-90258166D01*
X131833333Y-90158166D01*
X131866666Y-90091500D01*
X131933333Y-89991500D01*
X131966666Y-89958166D01*
X132600000Y-90758166D02*
X132200000Y-90758166D01*
X132400000Y-90758166D02*
X132400000Y-90058166D01*
X132333333Y-90158166D01*
X132266666Y-90224833D01*
X132200000Y-90258166D01*
X132833333Y-91024833D02*
X132866666Y-90991500D01*
X132933333Y-90891500D01*
X132966666Y-90824833D01*
X133000000Y-90724833D01*
X133033333Y-90558166D01*
X133033333Y-90424833D01*
X133000000Y-90258166D01*
X132966666Y-90158166D01*
X132933333Y-90091500D01*
X132866666Y-89991500D01*
X132833333Y-89958166D01*
X130800000Y-88218166D02*
X130400000Y-88218166D01*
X130600000Y-88218166D02*
X130600000Y-87518166D01*
X130533333Y-87618166D01*
X130466666Y-87684833D01*
X130400000Y-87718166D01*
X131433333Y-87518166D02*
X131100000Y-87518166D01*
X131066666Y-87851500D01*
X131100000Y-87818166D01*
X131166666Y-87784833D01*
X131333333Y-87784833D01*
X131400000Y-87818166D01*
X131433333Y-87851500D01*
X131466666Y-87918166D01*
X131466666Y-88084833D01*
X131433333Y-88151500D01*
X131400000Y-88184833D01*
X131333333Y-88218166D01*
X131166666Y-88218166D01*
X131100000Y-88184833D01*
X131066666Y-88151500D01*
X131966666Y-88484833D02*
X131933333Y-88451500D01*
X131866666Y-88351500D01*
X131833333Y-88284833D01*
X131800000Y-88184833D01*
X131766666Y-88018166D01*
X131766666Y-87884833D01*
X131800000Y-87718166D01*
X131833333Y-87618166D01*
X131866666Y-87551500D01*
X131933333Y-87451500D01*
X131966666Y-87418166D01*
X132200000Y-87584833D02*
X132233333Y-87551500D01*
X132300000Y-87518166D01*
X132466666Y-87518166D01*
X132533333Y-87551500D01*
X132566666Y-87584833D01*
X132600000Y-87651500D01*
X132600000Y-87718166D01*
X132566666Y-87818166D01*
X132166666Y-88218166D01*
X132600000Y-88218166D01*
X132833333Y-88484833D02*
X132866666Y-88451500D01*
X132933333Y-88351500D01*
X132966666Y-88284833D01*
X133000000Y-88184833D01*
X133033333Y-88018166D01*
X133033333Y-87884833D01*
X133000000Y-87718166D01*
X132966666Y-87618166D01*
X132933333Y-87551500D01*
X132866666Y-87451500D01*
X132833333Y-87418166D01*
X130800000Y-85678166D02*
X130400000Y-85678166D01*
X130600000Y-85678166D02*
X130600000Y-84978166D01*
X130533333Y-85078166D01*
X130466666Y-85144833D01*
X130400000Y-85178166D01*
X131400000Y-85211500D02*
X131400000Y-85678166D01*
X131233333Y-84944833D02*
X131066666Y-85444833D01*
X131500000Y-85444833D01*
X131966666Y-85944833D02*
X131933333Y-85911500D01*
X131866666Y-85811500D01*
X131833333Y-85744833D01*
X131800000Y-85644833D01*
X131766666Y-85478166D01*
X131766666Y-85344833D01*
X131800000Y-85178166D01*
X131833333Y-85078166D01*
X131866666Y-85011500D01*
X131933333Y-84911500D01*
X131966666Y-84878166D01*
X132166666Y-84978166D02*
X132600000Y-84978166D01*
X132366666Y-85244833D01*
X132466666Y-85244833D01*
X132533333Y-85278166D01*
X132566666Y-85311500D01*
X132600000Y-85378166D01*
X132600000Y-85544833D01*
X132566666Y-85611500D01*
X132533333Y-85644833D01*
X132466666Y-85678166D01*
X132266666Y-85678166D01*
X132200000Y-85644833D01*
X132166666Y-85611500D01*
X132833333Y-85944833D02*
X132866666Y-85911500D01*
X132933333Y-85811500D01*
X132966666Y-85744833D01*
X133000000Y-85644833D01*
X133033333Y-85478166D01*
X133033333Y-85344833D01*
X133000000Y-85178166D01*
X132966666Y-85078166D01*
X132933333Y-85011500D01*
X132866666Y-84911500D01*
X132833333Y-84878166D01*
X130800000Y-83138166D02*
X130400000Y-83138166D01*
X130600000Y-83138166D02*
X130600000Y-82438166D01*
X130533333Y-82538166D01*
X130466666Y-82604833D01*
X130400000Y-82638166D01*
X131033333Y-82438166D02*
X131466666Y-82438166D01*
X131233333Y-82704833D01*
X131333333Y-82704833D01*
X131400000Y-82738166D01*
X131433333Y-82771500D01*
X131466666Y-82838166D01*
X131466666Y-83004833D01*
X131433333Y-83071500D01*
X131400000Y-83104833D01*
X131333333Y-83138166D01*
X131133333Y-83138166D01*
X131066666Y-83104833D01*
X131033333Y-83071500D01*
X131966666Y-83404833D02*
X131933333Y-83371500D01*
X131866666Y-83271500D01*
X131833333Y-83204833D01*
X131800000Y-83104833D01*
X131766666Y-82938166D01*
X131766666Y-82804833D01*
X131800000Y-82638166D01*
X131833333Y-82538166D01*
X131866666Y-82471500D01*
X131933333Y-82371500D01*
X131966666Y-82338166D01*
X132533333Y-82671500D02*
X132533333Y-83138166D01*
X132366666Y-82404833D02*
X132200000Y-82904833D01*
X132633333Y-82904833D01*
X132833333Y-83404833D02*
X132866666Y-83371500D01*
X132933333Y-83271500D01*
X132966666Y-83204833D01*
X133000000Y-83104833D01*
X133033333Y-82938166D01*
X133033333Y-82804833D01*
X133000000Y-82638166D01*
X132966666Y-82538166D01*
X132933333Y-82471500D01*
X132866666Y-82371500D01*
X132833333Y-82338166D01*
D11*
G36*
X135139878Y-96287776D02*
G01*
X135245612Y-96288355D01*
X135322132Y-96289922D01*
X135374372Y-96292972D01*
X135407263Y-96297996D01*
X135425737Y-96305489D01*
X135434727Y-96315944D01*
X135439163Y-96329853D01*
X135439594Y-96331654D01*
X135446333Y-96364145D01*
X135458808Y-96428252D01*
X135475719Y-96517151D01*
X135495771Y-96624019D01*
X135517664Y-96742033D01*
X135518429Y-96746178D01*
X135540359Y-96861831D01*
X135560877Y-96964014D01*
X135578659Y-97046598D01*
X135592381Y-97103456D01*
X135600718Y-97128458D01*
X135601116Y-97128901D01*
X135625677Y-97141110D01*
X135676315Y-97161456D01*
X135742095Y-97185545D01*
X135742461Y-97185674D01*
X135825317Y-97216818D01*
X135923000Y-97256491D01*
X136015077Y-97296381D01*
X136019434Y-97298353D01*
X136169407Y-97366420D01*
X136501498Y-97139639D01*
X136603374Y-97070504D01*
X136695657Y-97008697D01*
X136773003Y-96957733D01*
X136830064Y-96921127D01*
X136861495Y-96902394D01*
X136864479Y-96901004D01*
X136887321Y-96907190D01*
X136929982Y-96937035D01*
X136994128Y-96991947D01*
X137081421Y-97073334D01*
X137170535Y-97159922D01*
X137256441Y-97245247D01*
X137333327Y-97323108D01*
X137396564Y-97388697D01*
X137441523Y-97437205D01*
X137463576Y-97463825D01*
X137464396Y-97465195D01*
X137466834Y-97483463D01*
X137457650Y-97513295D01*
X137434574Y-97558721D01*
X137395337Y-97623770D01*
X137337670Y-97712470D01*
X137260795Y-97826657D01*
X137192570Y-97927162D01*
X137131582Y-98017303D01*
X137081356Y-98091849D01*
X137045416Y-98145565D01*
X137027287Y-98173218D01*
X137026146Y-98175095D01*
X137028359Y-98201590D01*
X137045138Y-98253086D01*
X137073142Y-98319851D01*
X137083122Y-98341172D01*
X137126672Y-98436159D01*
X137173134Y-98543937D01*
X137210877Y-98637192D01*
X137238073Y-98706406D01*
X137259675Y-98759006D01*
X137272158Y-98786497D01*
X137273709Y-98788616D01*
X137296668Y-98792124D01*
X137350786Y-98801738D01*
X137428868Y-98816089D01*
X137523719Y-98833807D01*
X137628143Y-98853525D01*
X137734944Y-98873874D01*
X137836926Y-98893486D01*
X137926894Y-98910991D01*
X137997653Y-98925022D01*
X138042006Y-98934209D01*
X138052885Y-98936807D01*
X138064122Y-98943218D01*
X138072605Y-98957697D01*
X138078714Y-98985133D01*
X138082832Y-99030411D01*
X138085341Y-99098420D01*
X138086621Y-99194047D01*
X138087054Y-99322180D01*
X138087077Y-99374701D01*
X138087077Y-99801845D01*
X137984500Y-99822091D01*
X137927431Y-99833070D01*
X137842269Y-99849095D01*
X137739372Y-99868233D01*
X137629096Y-99888551D01*
X137598615Y-99894132D01*
X137496855Y-99913917D01*
X137408205Y-99933373D01*
X137340108Y-99950697D01*
X137300004Y-99964088D01*
X137293323Y-99968079D01*
X137276919Y-99996342D01*
X137253399Y-100051109D01*
X137227316Y-100121588D01*
X137222142Y-100136769D01*
X137187956Y-100230896D01*
X137145523Y-100337101D01*
X137103997Y-100432473D01*
X137103792Y-100432916D01*
X137034640Y-100582525D01*
X137489512Y-101251617D01*
X137197500Y-101544116D01*
X137109180Y-101631170D01*
X137028625Y-101707909D01*
X136960360Y-101770237D01*
X136908908Y-101814056D01*
X136878794Y-101835270D01*
X136874474Y-101836616D01*
X136849111Y-101826016D01*
X136797358Y-101796547D01*
X136724868Y-101751705D01*
X136637294Y-101694984D01*
X136542612Y-101631462D01*
X136446516Y-101566668D01*
X136360837Y-101510287D01*
X136291016Y-101465788D01*
X136242494Y-101436639D01*
X136220782Y-101426308D01*
X136194293Y-101435050D01*
X136144062Y-101458087D01*
X136080451Y-101490631D01*
X136073708Y-101494249D01*
X135988046Y-101537210D01*
X135929306Y-101558279D01*
X135892772Y-101558503D01*
X135873731Y-101538928D01*
X135873620Y-101538654D01*
X135864102Y-101515472D01*
X135841403Y-101460441D01*
X135807282Y-101377822D01*
X135763500Y-101271872D01*
X135711816Y-101146852D01*
X135653992Y-101007020D01*
X135597991Y-100871637D01*
X135536447Y-100722234D01*
X135479939Y-100583832D01*
X135430161Y-100460673D01*
X135388806Y-100357002D01*
X135357568Y-100277059D01*
X135338141Y-100225088D01*
X135332154Y-100205692D01*
X135347168Y-100183443D01*
X135386439Y-100147982D01*
X135438807Y-100108887D01*
X135587941Y-99985245D01*
X135704511Y-99843522D01*
X135787118Y-99686704D01*
X135834366Y-99517775D01*
X135844857Y-99339722D01*
X135837231Y-99257539D01*
X135795682Y-99087031D01*
X135724123Y-98936459D01*
X135626995Y-98807309D01*
X135508734Y-98701064D01*
X135373780Y-98619210D01*
X135226571Y-98563232D01*
X135071544Y-98534615D01*
X134913139Y-98534844D01*
X134755794Y-98565405D01*
X134603946Y-98627782D01*
X134462035Y-98723460D01*
X134402803Y-98777572D01*
X134289203Y-98916520D01*
X134210106Y-99068361D01*
X134164986Y-99228667D01*
X134153316Y-99393012D01*
X134174569Y-99556971D01*
X134228220Y-99716118D01*
X134313740Y-99866025D01*
X134430605Y-100002267D01*
X134561193Y-100108887D01*
X134615588Y-100149642D01*
X134654014Y-100184718D01*
X134667846Y-100205726D01*
X134660603Y-100228635D01*
X134640005Y-100283365D01*
X134607746Y-100365672D01*
X134565521Y-100471315D01*
X134515023Y-100596050D01*
X134457948Y-100735636D01*
X134401854Y-100871670D01*
X134339967Y-101021201D01*
X134282644Y-101159767D01*
X134231644Y-101283107D01*
X134188727Y-101386964D01*
X134155653Y-101467080D01*
X134134181Y-101519195D01*
X134126225Y-101538654D01*
X134107429Y-101558423D01*
X134071074Y-101558365D01*
X134012479Y-101537441D01*
X133926968Y-101494613D01*
X133926292Y-101494249D01*
X133861907Y-101461012D01*
X133809861Y-101436802D01*
X133780512Y-101426404D01*
X133779217Y-101426308D01*
X133757124Y-101436855D01*
X133708348Y-101466184D01*
X133638331Y-101510827D01*
X133552514Y-101567314D01*
X133457388Y-101631462D01*
X133360540Y-101696411D01*
X133273253Y-101752896D01*
X133201181Y-101797421D01*
X133149977Y-101826490D01*
X133125526Y-101836616D01*
X133103010Y-101823307D01*
X133057742Y-101786112D01*
X132994244Y-101729128D01*
X132917039Y-101656449D01*
X132830651Y-101572171D01*
X132802399Y-101544016D01*
X132510287Y-101251416D01*
X132732631Y-100925104D01*
X132800202Y-100824897D01*
X132859507Y-100734963D01*
X132907217Y-100660510D01*
X132940007Y-100606751D01*
X132954548Y-100578894D01*
X132954974Y-100576912D01*
X132947308Y-100550655D01*
X132926689Y-100497837D01*
X132896685Y-100427310D01*
X132875625Y-100380093D01*
X132836248Y-100289694D01*
X132799165Y-100198366D01*
X132770415Y-100121200D01*
X132762605Y-100097692D01*
X132740417Y-100034916D01*
X132718727Y-99986411D01*
X132706813Y-99968079D01*
X132680523Y-99956859D01*
X132623142Y-99940954D01*
X132542118Y-99922167D01*
X132444895Y-99902299D01*
X132401385Y-99894132D01*
X132290896Y-99873829D01*
X132184916Y-99854170D01*
X132093801Y-99837088D01*
X132027908Y-99824518D01*
X132015500Y-99822091D01*
X131912923Y-99801845D01*
X131912923Y-99374701D01*
X131913153Y-99234246D01*
X131914099Y-99127979D01*
X131916141Y-99051013D01*
X131919662Y-98998460D01*
X131925043Y-98965433D01*
X131932666Y-98947045D01*
X131942912Y-98938408D01*
X131947115Y-98936807D01*
X131972470Y-98931127D01*
X132028484Y-98919795D01*
X132107964Y-98904179D01*
X132203712Y-98885647D01*
X132308533Y-98865569D01*
X132415232Y-98845312D01*
X132516613Y-98826246D01*
X132605479Y-98809739D01*
X132674637Y-98797159D01*
X132716889Y-98789875D01*
X132726290Y-98788616D01*
X132734807Y-98771763D01*
X132753660Y-98726870D01*
X132779324Y-98662430D01*
X132789123Y-98637192D01*
X132828648Y-98539686D01*
X132875192Y-98431959D01*
X132916877Y-98341172D01*
X132947550Y-98271753D01*
X132967956Y-98214710D01*
X132974768Y-98179777D01*
X132973682Y-98175095D01*
X132959285Y-98152991D01*
X132926412Y-98103831D01*
X132878590Y-98032848D01*
X132819348Y-97945278D01*
X132752215Y-97846357D01*
X132738941Y-97826830D01*
X132661046Y-97711140D01*
X132603787Y-97623044D01*
X132564881Y-97558486D01*
X132542044Y-97513411D01*
X132532994Y-97483763D01*
X132535448Y-97465485D01*
X132535511Y-97465369D01*
X132554827Y-97441361D01*
X132597551Y-97394947D01*
X132659051Y-97330937D01*
X132734698Y-97254145D01*
X132819861Y-97169382D01*
X132829465Y-97159922D01*
X132936790Y-97055989D01*
X133019615Y-96979675D01*
X133079605Y-96929571D01*
X133118423Y-96904270D01*
X133135520Y-96901004D01*
X133160473Y-96915250D01*
X133212255Y-96948156D01*
X133285520Y-96996208D01*
X133374920Y-97055890D01*
X133475111Y-97123688D01*
X133498501Y-97139639D01*
X133830593Y-97366420D01*
X133980565Y-97298353D01*
X134071770Y-97258685D01*
X134169669Y-97218791D01*
X134253831Y-97186983D01*
X134257538Y-97185674D01*
X134323369Y-97161576D01*
X134374116Y-97141200D01*
X134398842Y-97128936D01*
X134398884Y-97128901D01*
X134406729Y-97106734D01*
X134420066Y-97052217D01*
X134437570Y-96971480D01*
X134457917Y-96870650D01*
X134479782Y-96755856D01*
X134481571Y-96746178D01*
X134503504Y-96627904D01*
X134523640Y-96520542D01*
X134540680Y-96430917D01*
X134553328Y-96365851D01*
X134560284Y-96332168D01*
X134560406Y-96331654D01*
X134564639Y-96317325D01*
X134572871Y-96306507D01*
X134590033Y-96298706D01*
X134621058Y-96293429D01*
X134670878Y-96290182D01*
X134744424Y-96288472D01*
X134846629Y-96287807D01*
X134982425Y-96287693D01*
X135000000Y-96287692D01*
X135139878Y-96287776D01*
X135139878Y-96287776D01*
G37*
X135139878Y-96287776D02*
X135245612Y-96288355D01*
X135322132Y-96289922D01*
X135374372Y-96292972D01*
X135407263Y-96297996D01*
X135425737Y-96305489D01*
X135434727Y-96315944D01*
X135439163Y-96329853D01*
X135439594Y-96331654D01*
X135446333Y-96364145D01*
X135458808Y-96428252D01*
X135475719Y-96517151D01*
X135495771Y-96624019D01*
X135517664Y-96742033D01*
X135518429Y-96746178D01*
X135540359Y-96861831D01*
X135560877Y-96964014D01*
X135578659Y-97046598D01*
X135592381Y-97103456D01*
X135600718Y-97128458D01*
X135601116Y-97128901D01*
X135625677Y-97141110D01*
X135676315Y-97161456D01*
X135742095Y-97185545D01*
X135742461Y-97185674D01*
X135825317Y-97216818D01*
X135923000Y-97256491D01*
X136015077Y-97296381D01*
X136019434Y-97298353D01*
X136169407Y-97366420D01*
X136501498Y-97139639D01*
X136603374Y-97070504D01*
X136695657Y-97008697D01*
X136773003Y-96957733D01*
X136830064Y-96921127D01*
X136861495Y-96902394D01*
X136864479Y-96901004D01*
X136887321Y-96907190D01*
X136929982Y-96937035D01*
X136994128Y-96991947D01*
X137081421Y-97073334D01*
X137170535Y-97159922D01*
X137256441Y-97245247D01*
X137333327Y-97323108D01*
X137396564Y-97388697D01*
X137441523Y-97437205D01*
X137463576Y-97463825D01*
X137464396Y-97465195D01*
X137466834Y-97483463D01*
X137457650Y-97513295D01*
X137434574Y-97558721D01*
X137395337Y-97623770D01*
X137337670Y-97712470D01*
X137260795Y-97826657D01*
X137192570Y-97927162D01*
X137131582Y-98017303D01*
X137081356Y-98091849D01*
X137045416Y-98145565D01*
X137027287Y-98173218D01*
X137026146Y-98175095D01*
X137028359Y-98201590D01*
X137045138Y-98253086D01*
X137073142Y-98319851D01*
X137083122Y-98341172D01*
X137126672Y-98436159D01*
X137173134Y-98543937D01*
X137210877Y-98637192D01*
X137238073Y-98706406D01*
X137259675Y-98759006D01*
X137272158Y-98786497D01*
X137273709Y-98788616D01*
X137296668Y-98792124D01*
X137350786Y-98801738D01*
X137428868Y-98816089D01*
X137523719Y-98833807D01*
X137628143Y-98853525D01*
X137734944Y-98873874D01*
X137836926Y-98893486D01*
X137926894Y-98910991D01*
X137997653Y-98925022D01*
X138042006Y-98934209D01*
X138052885Y-98936807D01*
X138064122Y-98943218D01*
X138072605Y-98957697D01*
X138078714Y-98985133D01*
X138082832Y-99030411D01*
X138085341Y-99098420D01*
X138086621Y-99194047D01*
X138087054Y-99322180D01*
X138087077Y-99374701D01*
X138087077Y-99801845D01*
X137984500Y-99822091D01*
X137927431Y-99833070D01*
X137842269Y-99849095D01*
X137739372Y-99868233D01*
X137629096Y-99888551D01*
X137598615Y-99894132D01*
X137496855Y-99913917D01*
X137408205Y-99933373D01*
X137340108Y-99950697D01*
X137300004Y-99964088D01*
X137293323Y-99968079D01*
X137276919Y-99996342D01*
X137253399Y-100051109D01*
X137227316Y-100121588D01*
X137222142Y-100136769D01*
X137187956Y-100230896D01*
X137145523Y-100337101D01*
X137103997Y-100432473D01*
X137103792Y-100432916D01*
X137034640Y-100582525D01*
X137489512Y-101251617D01*
X137197500Y-101544116D01*
X137109180Y-101631170D01*
X137028625Y-101707909D01*
X136960360Y-101770237D01*
X136908908Y-101814056D01*
X136878794Y-101835270D01*
X136874474Y-101836616D01*
X136849111Y-101826016D01*
X136797358Y-101796547D01*
X136724868Y-101751705D01*
X136637294Y-101694984D01*
X136542612Y-101631462D01*
X136446516Y-101566668D01*
X136360837Y-101510287D01*
X136291016Y-101465788D01*
X136242494Y-101436639D01*
X136220782Y-101426308D01*
X136194293Y-101435050D01*
X136144062Y-101458087D01*
X136080451Y-101490631D01*
X136073708Y-101494249D01*
X135988046Y-101537210D01*
X135929306Y-101558279D01*
X135892772Y-101558503D01*
X135873731Y-101538928D01*
X135873620Y-101538654D01*
X135864102Y-101515472D01*
X135841403Y-101460441D01*
X135807282Y-101377822D01*
X135763500Y-101271872D01*
X135711816Y-101146852D01*
X135653992Y-101007020D01*
X135597991Y-100871637D01*
X135536447Y-100722234D01*
X135479939Y-100583832D01*
X135430161Y-100460673D01*
X135388806Y-100357002D01*
X135357568Y-100277059D01*
X135338141Y-100225088D01*
X135332154Y-100205692D01*
X135347168Y-100183443D01*
X135386439Y-100147982D01*
X135438807Y-100108887D01*
X135587941Y-99985245D01*
X135704511Y-99843522D01*
X135787118Y-99686704D01*
X135834366Y-99517775D01*
X135844857Y-99339722D01*
X135837231Y-99257539D01*
X135795682Y-99087031D01*
X135724123Y-98936459D01*
X135626995Y-98807309D01*
X135508734Y-98701064D01*
X135373780Y-98619210D01*
X135226571Y-98563232D01*
X135071544Y-98534615D01*
X134913139Y-98534844D01*
X134755794Y-98565405D01*
X134603946Y-98627782D01*
X134462035Y-98723460D01*
X134402803Y-98777572D01*
X134289203Y-98916520D01*
X134210106Y-99068361D01*
X134164986Y-99228667D01*
X134153316Y-99393012D01*
X134174569Y-99556971D01*
X134228220Y-99716118D01*
X134313740Y-99866025D01*
X134430605Y-100002267D01*
X134561193Y-100108887D01*
X134615588Y-100149642D01*
X134654014Y-100184718D01*
X134667846Y-100205726D01*
X134660603Y-100228635D01*
X134640005Y-100283365D01*
X134607746Y-100365672D01*
X134565521Y-100471315D01*
X134515023Y-100596050D01*
X134457948Y-100735636D01*
X134401854Y-100871670D01*
X134339967Y-101021201D01*
X134282644Y-101159767D01*
X134231644Y-101283107D01*
X134188727Y-101386964D01*
X134155653Y-101467080D01*
X134134181Y-101519195D01*
X134126225Y-101538654D01*
X134107429Y-101558423D01*
X134071074Y-101558365D01*
X134012479Y-101537441D01*
X133926968Y-101494613D01*
X133926292Y-101494249D01*
X133861907Y-101461012D01*
X133809861Y-101436802D01*
X133780512Y-101426404D01*
X133779217Y-101426308D01*
X133757124Y-101436855D01*
X133708348Y-101466184D01*
X133638331Y-101510827D01*
X133552514Y-101567314D01*
X133457388Y-101631462D01*
X133360540Y-101696411D01*
X133273253Y-101752896D01*
X133201181Y-101797421D01*
X133149977Y-101826490D01*
X133125526Y-101836616D01*
X133103010Y-101823307D01*
X133057742Y-101786112D01*
X132994244Y-101729128D01*
X132917039Y-101656449D01*
X132830651Y-101572171D01*
X132802399Y-101544016D01*
X132510287Y-101251416D01*
X132732631Y-100925104D01*
X132800202Y-100824897D01*
X132859507Y-100734963D01*
X132907217Y-100660510D01*
X132940007Y-100606751D01*
X132954548Y-100578894D01*
X132954974Y-100576912D01*
X132947308Y-100550655D01*
X132926689Y-100497837D01*
X132896685Y-100427310D01*
X132875625Y-100380093D01*
X132836248Y-100289694D01*
X132799165Y-100198366D01*
X132770415Y-100121200D01*
X132762605Y-100097692D01*
X132740417Y-100034916D01*
X132718727Y-99986411D01*
X132706813Y-99968079D01*
X132680523Y-99956859D01*
X132623142Y-99940954D01*
X132542118Y-99922167D01*
X132444895Y-99902299D01*
X132401385Y-99894132D01*
X132290896Y-99873829D01*
X132184916Y-99854170D01*
X132093801Y-99837088D01*
X132027908Y-99824518D01*
X132015500Y-99822091D01*
X131912923Y-99801845D01*
X131912923Y-99374701D01*
X131913153Y-99234246D01*
X131914099Y-99127979D01*
X131916141Y-99051013D01*
X131919662Y-98998460D01*
X131925043Y-98965433D01*
X131932666Y-98947045D01*
X131942912Y-98938408D01*
X131947115Y-98936807D01*
X131972470Y-98931127D01*
X132028484Y-98919795D01*
X132107964Y-98904179D01*
X132203712Y-98885647D01*
X132308533Y-98865569D01*
X132415232Y-98845312D01*
X132516613Y-98826246D01*
X132605479Y-98809739D01*
X132674637Y-98797159D01*
X132716889Y-98789875D01*
X132726290Y-98788616D01*
X132734807Y-98771763D01*
X132753660Y-98726870D01*
X132779324Y-98662430D01*
X132789123Y-98637192D01*
X132828648Y-98539686D01*
X132875192Y-98431959D01*
X132916877Y-98341172D01*
X132947550Y-98271753D01*
X132967956Y-98214710D01*
X132974768Y-98179777D01*
X132973682Y-98175095D01*
X132959285Y-98152991D01*
X132926412Y-98103831D01*
X132878590Y-98032848D01*
X132819348Y-97945278D01*
X132752215Y-97846357D01*
X132738941Y-97826830D01*
X132661046Y-97711140D01*
X132603787Y-97623044D01*
X132564881Y-97558486D01*
X132542044Y-97513411D01*
X132532994Y-97483763D01*
X132535448Y-97465485D01*
X132535511Y-97465369D01*
X132554827Y-97441361D01*
X132597551Y-97394947D01*
X132659051Y-97330937D01*
X132734698Y-97254145D01*
X132819861Y-97169382D01*
X132829465Y-97159922D01*
X132936790Y-97055989D01*
X133019615Y-96979675D01*
X133079605Y-96929571D01*
X133118423Y-96904270D01*
X133135520Y-96901004D01*
X133160473Y-96915250D01*
X133212255Y-96948156D01*
X133285520Y-96996208D01*
X133374920Y-97055890D01*
X133475111Y-97123688D01*
X133498501Y-97139639D01*
X133830593Y-97366420D01*
X133980565Y-97298353D01*
X134071770Y-97258685D01*
X134169669Y-97218791D01*
X134253831Y-97186983D01*
X134257538Y-97185674D01*
X134323369Y-97161576D01*
X134374116Y-97141200D01*
X134398842Y-97128936D01*
X134398884Y-97128901D01*
X134406729Y-97106734D01*
X134420066Y-97052217D01*
X134437570Y-96971480D01*
X134457917Y-96870650D01*
X134479782Y-96755856D01*
X134481571Y-96746178D01*
X134503504Y-96627904D01*
X134523640Y-96520542D01*
X134540680Y-96430917D01*
X134553328Y-96365851D01*
X134560284Y-96332168D01*
X134560406Y-96331654D01*
X134564639Y-96317325D01*
X134572871Y-96306507D01*
X134590033Y-96298706D01*
X134621058Y-96293429D01*
X134670878Y-96290182D01*
X134744424Y-96288472D01*
X134846629Y-96287807D01*
X134982425Y-96287693D01*
X135000000Y-96287692D01*
X135139878Y-96287776D01*
G36*
X139245224Y-102647838D02*
G01*
X139322528Y-102698361D01*
X139359814Y-102743590D01*
X139389353Y-102825663D01*
X139391699Y-102890607D01*
X139386385Y-102977445D01*
X139186115Y-103065103D01*
X139088739Y-103109887D01*
X139025113Y-103145913D01*
X138992029Y-103177117D01*
X138986280Y-103207436D01*
X139004658Y-103240805D01*
X139024923Y-103262923D01*
X139083889Y-103298393D01*
X139148024Y-103300879D01*
X139206926Y-103273235D01*
X139250197Y-103218320D01*
X139257936Y-103198928D01*
X139295006Y-103138364D01*
X139337654Y-103112552D01*
X139396154Y-103090471D01*
X139396154Y-103174184D01*
X139390982Y-103231150D01*
X139370723Y-103279189D01*
X139328262Y-103334346D01*
X139321951Y-103341514D01*
X139274720Y-103390585D01*
X139234121Y-103416920D01*
X139183328Y-103429035D01*
X139141220Y-103433003D01*
X139065902Y-103433991D01*
X139012286Y-103421466D01*
X138978838Y-103402869D01*
X138926268Y-103361975D01*
X138889879Y-103317748D01*
X138866850Y-103262126D01*
X138854359Y-103187047D01*
X138849587Y-103084449D01*
X138849206Y-103032376D01*
X138850501Y-102969948D01*
X138968471Y-102969948D01*
X138969839Y-103003438D01*
X138973249Y-103008923D01*
X138995753Y-103001472D01*
X139044182Y-102981753D01*
X139108908Y-102953718D01*
X139122443Y-102947692D01*
X139204244Y-102906096D01*
X139249312Y-102869538D01*
X139259217Y-102835296D01*
X139235526Y-102800648D01*
X139215960Y-102785339D01*
X139145360Y-102754721D01*
X139079280Y-102759780D01*
X139023959Y-102797151D01*
X138985636Y-102863473D01*
X138973349Y-102916116D01*
X138968471Y-102969948D01*
X138850501Y-102969948D01*
X138851730Y-102910720D01*
X138861032Y-102820710D01*
X138879460Y-102755167D01*
X138909360Y-102706912D01*
X138953080Y-102668767D01*
X138972141Y-102656440D01*
X139058726Y-102624336D01*
X139153522Y-102622316D01*
X139245224Y-102647838D01*
X139245224Y-102647838D01*
G37*
X139245224Y-102647838D02*
X139322528Y-102698361D01*
X139359814Y-102743590D01*
X139389353Y-102825663D01*
X139391699Y-102890607D01*
X139386385Y-102977445D01*
X139186115Y-103065103D01*
X139088739Y-103109887D01*
X139025113Y-103145913D01*
X138992029Y-103177117D01*
X138986280Y-103207436D01*
X139004658Y-103240805D01*
X139024923Y-103262923D01*
X139083889Y-103298393D01*
X139148024Y-103300879D01*
X139206926Y-103273235D01*
X139250197Y-103218320D01*
X139257936Y-103198928D01*
X139295006Y-103138364D01*
X139337654Y-103112552D01*
X139396154Y-103090471D01*
X139396154Y-103174184D01*
X139390982Y-103231150D01*
X139370723Y-103279189D01*
X139328262Y-103334346D01*
X139321951Y-103341514D01*
X139274720Y-103390585D01*
X139234121Y-103416920D01*
X139183328Y-103429035D01*
X139141220Y-103433003D01*
X139065902Y-103433991D01*
X139012286Y-103421466D01*
X138978838Y-103402869D01*
X138926268Y-103361975D01*
X138889879Y-103317748D01*
X138866850Y-103262126D01*
X138854359Y-103187047D01*
X138849587Y-103084449D01*
X138849206Y-103032376D01*
X138850501Y-102969948D01*
X138968471Y-102969948D01*
X138969839Y-103003438D01*
X138973249Y-103008923D01*
X138995753Y-103001472D01*
X139044182Y-102981753D01*
X139108908Y-102953718D01*
X139122443Y-102947692D01*
X139204244Y-102906096D01*
X139249312Y-102869538D01*
X139259217Y-102835296D01*
X139235526Y-102800648D01*
X139215960Y-102785339D01*
X139145360Y-102754721D01*
X139079280Y-102759780D01*
X139023959Y-102797151D01*
X138985636Y-102863473D01*
X138973349Y-102916116D01*
X138968471Y-102969948D01*
X138850501Y-102969948D01*
X138851730Y-102910720D01*
X138861032Y-102820710D01*
X138879460Y-102755167D01*
X138909360Y-102706912D01*
X138953080Y-102668767D01*
X138972141Y-102656440D01*
X139058726Y-102624336D01*
X139153522Y-102622316D01*
X139245224Y-102647838D01*
G36*
X138570807Y-102636782D02*
G01*
X138594161Y-102646988D01*
X138649902Y-102691134D01*
X138697569Y-102754967D01*
X138727048Y-102823087D01*
X138731846Y-102856670D01*
X138715760Y-102903556D01*
X138680475Y-102928365D01*
X138642644Y-102943387D01*
X138625321Y-102946155D01*
X138616886Y-102926066D01*
X138600230Y-102882351D01*
X138592923Y-102862598D01*
X138551948Y-102794271D01*
X138492622Y-102760191D01*
X138416552Y-102761239D01*
X138410918Y-102762581D01*
X138370305Y-102781836D01*
X138340448Y-102819375D01*
X138320055Y-102879809D01*
X138307836Y-102967751D01*
X138302500Y-103087813D01*
X138302000Y-103151698D01*
X138301752Y-103252403D01*
X138300126Y-103321054D01*
X138295801Y-103364673D01*
X138287454Y-103390282D01*
X138273765Y-103404903D01*
X138253411Y-103415558D01*
X138252234Y-103416095D01*
X138213038Y-103432667D01*
X138193619Y-103438769D01*
X138190635Y-103420319D01*
X138188081Y-103369323D01*
X138186140Y-103292308D01*
X138184997Y-103195805D01*
X138184769Y-103125184D01*
X138185932Y-102988525D01*
X138190479Y-102884851D01*
X138199999Y-102808108D01*
X138216081Y-102752246D01*
X138240313Y-102711212D01*
X138274286Y-102678954D01*
X138307833Y-102656440D01*
X138388499Y-102626476D01*
X138482381Y-102619718D01*
X138570807Y-102636782D01*
X138570807Y-102636782D01*
G37*
X138570807Y-102636782D02*
X138594161Y-102646988D01*
X138649902Y-102691134D01*
X138697569Y-102754967D01*
X138727048Y-102823087D01*
X138731846Y-102856670D01*
X138715760Y-102903556D01*
X138680475Y-102928365D01*
X138642644Y-102943387D01*
X138625321Y-102946155D01*
X138616886Y-102926066D01*
X138600230Y-102882351D01*
X138592923Y-102862598D01*
X138551948Y-102794271D01*
X138492622Y-102760191D01*
X138416552Y-102761239D01*
X138410918Y-102762581D01*
X138370305Y-102781836D01*
X138340448Y-102819375D01*
X138320055Y-102879809D01*
X138307836Y-102967751D01*
X138302500Y-103087813D01*
X138302000Y-103151698D01*
X138301752Y-103252403D01*
X138300126Y-103321054D01*
X138295801Y-103364673D01*
X138287454Y-103390282D01*
X138273765Y-103404903D01*
X138253411Y-103415558D01*
X138252234Y-103416095D01*
X138213038Y-103432667D01*
X138193619Y-103438769D01*
X138190635Y-103420319D01*
X138188081Y-103369323D01*
X138186140Y-103292308D01*
X138184997Y-103195805D01*
X138184769Y-103125184D01*
X138185932Y-102988525D01*
X138190479Y-102884851D01*
X138199999Y-102808108D01*
X138216081Y-102752246D01*
X138240313Y-102711212D01*
X138274286Y-102678954D01*
X138307833Y-102656440D01*
X138388499Y-102626476D01*
X138482381Y-102619718D01*
X138570807Y-102636782D01*
G36*
X137887333Y-102633528D02*
G01*
X137943590Y-102659117D01*
X137987747Y-102690124D01*
X138020101Y-102724795D01*
X138042438Y-102769520D01*
X138056546Y-102830692D01*
X138064211Y-102914701D01*
X138067220Y-103027940D01*
X138067538Y-103102509D01*
X138067538Y-103393420D01*
X138017773Y-103416095D01*
X137978576Y-103432667D01*
X137959157Y-103438769D01*
X137955442Y-103420610D01*
X137952495Y-103371648D01*
X137950691Y-103300153D01*
X137950308Y-103243385D01*
X137948661Y-103161371D01*
X137944222Y-103096309D01*
X137937740Y-103056467D01*
X137932590Y-103048000D01*
X137897977Y-103056646D01*
X137843640Y-103078823D01*
X137780722Y-103108886D01*
X137720368Y-103141192D01*
X137673721Y-103170098D01*
X137651926Y-103189961D01*
X137651839Y-103190175D01*
X137653714Y-103226935D01*
X137670525Y-103262026D01*
X137700039Y-103290528D01*
X137743116Y-103300061D01*
X137779932Y-103298950D01*
X137832074Y-103298133D01*
X137859444Y-103310349D01*
X137875882Y-103342624D01*
X137877955Y-103348710D01*
X137885081Y-103394739D01*
X137866024Y-103422687D01*
X137816353Y-103436007D01*
X137762697Y-103438470D01*
X137666142Y-103420210D01*
X137616159Y-103394131D01*
X137554429Y-103332868D01*
X137521690Y-103257670D01*
X137518753Y-103178211D01*
X137546424Y-103104167D01*
X137588047Y-103057769D01*
X137629604Y-103031793D01*
X137694922Y-102998907D01*
X137771038Y-102965557D01*
X137783726Y-102960461D01*
X137867333Y-102923565D01*
X137915530Y-102891046D01*
X137931030Y-102858718D01*
X137916550Y-102822394D01*
X137891692Y-102794000D01*
X137832939Y-102759039D01*
X137768293Y-102756417D01*
X137709008Y-102783358D01*
X137666339Y-102837088D01*
X137660739Y-102850950D01*
X137628133Y-102901936D01*
X137580530Y-102939787D01*
X137520461Y-102970850D01*
X137520461Y-102882768D01*
X137523997Y-102828951D01*
X137539156Y-102786534D01*
X137572768Y-102741279D01*
X137605035Y-102706420D01*
X137655209Y-102657062D01*
X137694193Y-102630547D01*
X137736064Y-102619911D01*
X137783460Y-102618154D01*
X137887333Y-102633528D01*
X137887333Y-102633528D01*
G37*
X137887333Y-102633528D02*
X137943590Y-102659117D01*
X137987747Y-102690124D01*
X138020101Y-102724795D01*
X138042438Y-102769520D01*
X138056546Y-102830692D01*
X138064211Y-102914701D01*
X138067220Y-103027940D01*
X138067538Y-103102509D01*
X138067538Y-103393420D01*
X138017773Y-103416095D01*
X137978576Y-103432667D01*
X137959157Y-103438769D01*
X137955442Y-103420610D01*
X137952495Y-103371648D01*
X137950691Y-103300153D01*
X137950308Y-103243385D01*
X137948661Y-103161371D01*
X137944222Y-103096309D01*
X137937740Y-103056467D01*
X137932590Y-103048000D01*
X137897977Y-103056646D01*
X137843640Y-103078823D01*
X137780722Y-103108886D01*
X137720368Y-103141192D01*
X137673721Y-103170098D01*
X137651926Y-103189961D01*
X137651839Y-103190175D01*
X137653714Y-103226935D01*
X137670525Y-103262026D01*
X137700039Y-103290528D01*
X137743116Y-103300061D01*
X137779932Y-103298950D01*
X137832074Y-103298133D01*
X137859444Y-103310349D01*
X137875882Y-103342624D01*
X137877955Y-103348710D01*
X137885081Y-103394739D01*
X137866024Y-103422687D01*
X137816353Y-103436007D01*
X137762697Y-103438470D01*
X137666142Y-103420210D01*
X137616159Y-103394131D01*
X137554429Y-103332868D01*
X137521690Y-103257670D01*
X137518753Y-103178211D01*
X137546424Y-103104167D01*
X137588047Y-103057769D01*
X137629604Y-103031793D01*
X137694922Y-102998907D01*
X137771038Y-102965557D01*
X137783726Y-102960461D01*
X137867333Y-102923565D01*
X137915530Y-102891046D01*
X137931030Y-102858718D01*
X137916550Y-102822394D01*
X137891692Y-102794000D01*
X137832939Y-102759039D01*
X137768293Y-102756417D01*
X137709008Y-102783358D01*
X137666339Y-102837088D01*
X137660739Y-102850950D01*
X137628133Y-102901936D01*
X137580530Y-102939787D01*
X137520461Y-102970850D01*
X137520461Y-102882768D01*
X137523997Y-102828951D01*
X137539156Y-102786534D01*
X137572768Y-102741279D01*
X137605035Y-102706420D01*
X137655209Y-102657062D01*
X137694193Y-102630547D01*
X137736064Y-102619911D01*
X137783460Y-102618154D01*
X137887333Y-102633528D01*
G36*
X137395929Y-102636662D02*
G01*
X137398911Y-102688068D01*
X137401247Y-102766192D01*
X137402749Y-102864857D01*
X137403231Y-102968343D01*
X137403231Y-103318533D01*
X137341401Y-103380363D01*
X137298793Y-103418462D01*
X137261390Y-103433895D01*
X137210270Y-103432918D01*
X137189978Y-103430433D01*
X137126554Y-103423200D01*
X137074095Y-103419055D01*
X137061308Y-103418672D01*
X137018199Y-103421176D01*
X136956544Y-103427462D01*
X136932638Y-103430433D01*
X136873922Y-103435028D01*
X136834464Y-103425046D01*
X136795338Y-103394228D01*
X136781215Y-103380363D01*
X136719385Y-103318533D01*
X136719385Y-102663503D01*
X136769150Y-102640829D01*
X136812002Y-102624034D01*
X136837073Y-102618154D01*
X136843501Y-102636736D01*
X136849509Y-102688655D01*
X136854697Y-102768172D01*
X136858664Y-102869546D01*
X136860577Y-102955192D01*
X136865923Y-103292231D01*
X136912560Y-103298825D01*
X136954976Y-103294214D01*
X136975760Y-103279287D01*
X136981570Y-103251377D01*
X136986530Y-103191925D01*
X136990246Y-103108466D01*
X136992324Y-103008532D01*
X136992624Y-102957104D01*
X136992923Y-102661054D01*
X137054454Y-102639604D01*
X137098004Y-102625020D01*
X137121694Y-102618219D01*
X137122377Y-102618154D01*
X137124754Y-102636642D01*
X137127366Y-102687906D01*
X137129995Y-102765649D01*
X137132421Y-102863574D01*
X137134115Y-102955192D01*
X137139461Y-103292231D01*
X137256692Y-103292231D01*
X137262072Y-102984746D01*
X137267451Y-102677261D01*
X137324601Y-102647707D01*
X137366797Y-102627413D01*
X137391770Y-102618204D01*
X137392491Y-102618154D01*
X137395929Y-102636662D01*
X137395929Y-102636662D01*
G37*
X137395929Y-102636662D02*
X137398911Y-102688068D01*
X137401247Y-102766192D01*
X137402749Y-102864857D01*
X137403231Y-102968343D01*
X137403231Y-103318533D01*
X137341401Y-103380363D01*
X137298793Y-103418462D01*
X137261390Y-103433895D01*
X137210270Y-103432918D01*
X137189978Y-103430433D01*
X137126554Y-103423200D01*
X137074095Y-103419055D01*
X137061308Y-103418672D01*
X137018199Y-103421176D01*
X136956544Y-103427462D01*
X136932638Y-103430433D01*
X136873922Y-103435028D01*
X136834464Y-103425046D01*
X136795338Y-103394228D01*
X136781215Y-103380363D01*
X136719385Y-103318533D01*
X136719385Y-102663503D01*
X136769150Y-102640829D01*
X136812002Y-102624034D01*
X136837073Y-102618154D01*
X136843501Y-102636736D01*
X136849509Y-102688655D01*
X136854697Y-102768172D01*
X136858664Y-102869546D01*
X136860577Y-102955192D01*
X136865923Y-103292231D01*
X136912560Y-103298825D01*
X136954976Y-103294214D01*
X136975760Y-103279287D01*
X136981570Y-103251377D01*
X136986530Y-103191925D01*
X136990246Y-103108466D01*
X136992324Y-103008532D01*
X136992624Y-102957104D01*
X136992923Y-102661054D01*
X137054454Y-102639604D01*
X137098004Y-102625020D01*
X137121694Y-102618219D01*
X137122377Y-102618154D01*
X137124754Y-102636642D01*
X137127366Y-102687906D01*
X137129995Y-102765649D01*
X137132421Y-102863574D01*
X137134115Y-102955192D01*
X137139461Y-103292231D01*
X137256692Y-103292231D01*
X137262072Y-102984746D01*
X137267451Y-102677261D01*
X137324601Y-102647707D01*
X137366797Y-102627413D01*
X137391770Y-102618204D01*
X137392491Y-102618154D01*
X137395929Y-102636662D01*
G36*
X136602081Y-102780289D02*
G01*
X136601833Y-102926320D01*
X136600872Y-103038655D01*
X136598794Y-103122678D01*
X136595193Y-103183769D01*
X136589665Y-103227309D01*
X136581804Y-103258679D01*
X136571207Y-103283262D01*
X136563182Y-103297294D01*
X136496728Y-103373388D01*
X136412470Y-103421084D01*
X136319249Y-103438199D01*
X136225900Y-103422546D01*
X136170312Y-103394418D01*
X136111957Y-103345760D01*
X136072186Y-103286333D01*
X136048190Y-103208507D01*
X136037161Y-103104652D01*
X136035599Y-103028462D01*
X136035809Y-103022986D01*
X136172308Y-103022986D01*
X136173141Y-103110355D01*
X136176961Y-103168192D01*
X136185746Y-103206029D01*
X136201474Y-103233398D01*
X136220266Y-103254042D01*
X136283375Y-103293890D01*
X136351137Y-103297295D01*
X136415179Y-103264025D01*
X136420164Y-103259517D01*
X136441439Y-103236067D01*
X136454779Y-103208166D01*
X136462001Y-103166641D01*
X136464923Y-103102316D01*
X136465385Y-103031200D01*
X136464383Y-102941858D01*
X136460238Y-102882258D01*
X136451236Y-102843089D01*
X136435667Y-102815040D01*
X136422902Y-102800144D01*
X136363600Y-102762575D01*
X136295301Y-102758057D01*
X136230110Y-102786753D01*
X136217528Y-102797406D01*
X136196111Y-102821063D01*
X136182744Y-102849251D01*
X136175566Y-102891245D01*
X136172719Y-102956319D01*
X136172308Y-103022986D01*
X136035809Y-103022986D01*
X136040322Y-102905765D01*
X136056362Y-102813577D01*
X136086528Y-102744269D01*
X136133629Y-102690211D01*
X136170312Y-102662505D01*
X136236990Y-102632572D01*
X136314272Y-102618678D01*
X136386110Y-102622397D01*
X136426308Y-102637400D01*
X136442082Y-102641670D01*
X136452550Y-102625750D01*
X136459856Y-102583089D01*
X136465385Y-102518106D01*
X136471437Y-102445732D01*
X136479844Y-102402187D01*
X136495141Y-102377287D01*
X136521864Y-102360845D01*
X136538654Y-102353564D01*
X136602154Y-102326963D01*
X136602081Y-102780289D01*
X136602081Y-102780289D01*
G37*
X136602081Y-102780289D02*
X136601833Y-102926320D01*
X136600872Y-103038655D01*
X136598794Y-103122678D01*
X136595193Y-103183769D01*
X136589665Y-103227309D01*
X136581804Y-103258679D01*
X136571207Y-103283262D01*
X136563182Y-103297294D01*
X136496728Y-103373388D01*
X136412470Y-103421084D01*
X136319249Y-103438199D01*
X136225900Y-103422546D01*
X136170312Y-103394418D01*
X136111957Y-103345760D01*
X136072186Y-103286333D01*
X136048190Y-103208507D01*
X136037161Y-103104652D01*
X136035599Y-103028462D01*
X136035809Y-103022986D01*
X136172308Y-103022986D01*
X136173141Y-103110355D01*
X136176961Y-103168192D01*
X136185746Y-103206029D01*
X136201474Y-103233398D01*
X136220266Y-103254042D01*
X136283375Y-103293890D01*
X136351137Y-103297295D01*
X136415179Y-103264025D01*
X136420164Y-103259517D01*
X136441439Y-103236067D01*
X136454779Y-103208166D01*
X136462001Y-103166641D01*
X136464923Y-103102316D01*
X136465385Y-103031200D01*
X136464383Y-102941858D01*
X136460238Y-102882258D01*
X136451236Y-102843089D01*
X136435667Y-102815040D01*
X136422902Y-102800144D01*
X136363600Y-102762575D01*
X136295301Y-102758057D01*
X136230110Y-102786753D01*
X136217528Y-102797406D01*
X136196111Y-102821063D01*
X136182744Y-102849251D01*
X136175566Y-102891245D01*
X136172719Y-102956319D01*
X136172308Y-103022986D01*
X136035809Y-103022986D01*
X136040322Y-102905765D01*
X136056362Y-102813577D01*
X136086528Y-102744269D01*
X136133629Y-102690211D01*
X136170312Y-102662505D01*
X136236990Y-102632572D01*
X136314272Y-102618678D01*
X136386110Y-102622397D01*
X136426308Y-102637400D01*
X136442082Y-102641670D01*
X136452550Y-102625750D01*
X136459856Y-102583089D01*
X136465385Y-102518106D01*
X136471437Y-102445732D01*
X136479844Y-102402187D01*
X136495141Y-102377287D01*
X136521864Y-102360845D01*
X136538654Y-102353564D01*
X136602154Y-102326963D01*
X136602081Y-102780289D01*
G36*
X135713362Y-102624670D02*
G01*
X135802117Y-102657421D01*
X135874022Y-102715350D01*
X135902144Y-102756128D01*
X135932802Y-102830954D01*
X135932165Y-102885058D01*
X135899987Y-102921446D01*
X135888081Y-102927633D01*
X135836675Y-102946925D01*
X135810422Y-102941982D01*
X135801530Y-102909587D01*
X135801077Y-102891692D01*
X135784797Y-102825859D01*
X135742365Y-102779807D01*
X135683388Y-102757564D01*
X135617475Y-102763161D01*
X135563895Y-102792229D01*
X135545798Y-102808810D01*
X135532971Y-102828925D01*
X135524306Y-102859332D01*
X135518696Y-102906788D01*
X135515035Y-102978050D01*
X135512215Y-103079875D01*
X135511484Y-103112115D01*
X135508820Y-103222410D01*
X135505792Y-103300036D01*
X135501250Y-103351396D01*
X135494046Y-103382890D01*
X135483033Y-103400920D01*
X135467060Y-103411888D01*
X135456834Y-103416733D01*
X135413406Y-103433301D01*
X135387842Y-103438769D01*
X135379395Y-103420507D01*
X135374239Y-103365296D01*
X135372346Y-103272499D01*
X135373689Y-103141478D01*
X135374107Y-103121269D01*
X135377058Y-103001733D01*
X135380548Y-102914449D01*
X135385514Y-102852591D01*
X135392893Y-102809336D01*
X135403624Y-102777860D01*
X135418645Y-102751339D01*
X135426502Y-102739975D01*
X135471553Y-102689692D01*
X135521940Y-102650581D01*
X135528108Y-102647167D01*
X135618458Y-102620212D01*
X135713362Y-102624670D01*
X135713362Y-102624670D01*
G37*
X135713362Y-102624670D02*
X135802117Y-102657421D01*
X135874022Y-102715350D01*
X135902144Y-102756128D01*
X135932802Y-102830954D01*
X135932165Y-102885058D01*
X135899987Y-102921446D01*
X135888081Y-102927633D01*
X135836675Y-102946925D01*
X135810422Y-102941982D01*
X135801530Y-102909587D01*
X135801077Y-102891692D01*
X135784797Y-102825859D01*
X135742365Y-102779807D01*
X135683388Y-102757564D01*
X135617475Y-102763161D01*
X135563895Y-102792229D01*
X135545798Y-102808810D01*
X135532971Y-102828925D01*
X135524306Y-102859332D01*
X135518696Y-102906788D01*
X135515035Y-102978050D01*
X135512215Y-103079875D01*
X135511484Y-103112115D01*
X135508820Y-103222410D01*
X135505792Y-103300036D01*
X135501250Y-103351396D01*
X135494046Y-103382890D01*
X135483033Y-103400920D01*
X135467060Y-103411888D01*
X135456834Y-103416733D01*
X135413406Y-103433301D01*
X135387842Y-103438769D01*
X135379395Y-103420507D01*
X135374239Y-103365296D01*
X135372346Y-103272499D01*
X135373689Y-103141478D01*
X135374107Y-103121269D01*
X135377058Y-103001733D01*
X135380548Y-102914449D01*
X135385514Y-102852591D01*
X135392893Y-102809336D01*
X135403624Y-102777860D01*
X135418645Y-102751339D01*
X135426502Y-102739975D01*
X135471553Y-102689692D01*
X135521940Y-102650581D01*
X135528108Y-102647167D01*
X135618458Y-102620212D01*
X135713362Y-102624670D01*
G36*
X135053501Y-102626303D02*
G01*
X135130060Y-102654733D01*
X135130936Y-102655279D01*
X135178285Y-102690127D01*
X135213241Y-102730852D01*
X135237825Y-102783925D01*
X135254062Y-102855814D01*
X135263975Y-102952992D01*
X135269586Y-103081928D01*
X135270077Y-103100298D01*
X135277141Y-103377287D01*
X135217695Y-103408028D01*
X135174681Y-103428802D01*
X135148710Y-103438646D01*
X135147509Y-103438769D01*
X135143014Y-103420606D01*
X135139444Y-103371612D01*
X135137248Y-103300031D01*
X135136769Y-103242068D01*
X135136758Y-103148170D01*
X135132466Y-103089203D01*
X135117503Y-103061079D01*
X135085482Y-103059706D01*
X135030014Y-103080998D01*
X134946269Y-103120136D01*
X134884689Y-103152643D01*
X134853017Y-103180845D01*
X134843706Y-103211582D01*
X134843692Y-103213104D01*
X134859057Y-103266054D01*
X134904547Y-103294660D01*
X134974166Y-103298803D01*
X135024313Y-103298084D01*
X135050754Y-103312527D01*
X135067243Y-103347218D01*
X135076733Y-103391416D01*
X135063057Y-103416493D01*
X135057907Y-103420082D01*
X135009425Y-103434496D01*
X134941531Y-103436537D01*
X134871612Y-103426983D01*
X134822068Y-103409522D01*
X134753570Y-103351364D01*
X134714634Y-103270408D01*
X134706923Y-103207160D01*
X134712807Y-103150111D01*
X134734101Y-103103542D01*
X134776265Y-103062181D01*
X134844759Y-103020755D01*
X134945044Y-102973993D01*
X134951154Y-102971350D01*
X135041490Y-102929617D01*
X135097235Y-102895391D01*
X135121129Y-102864635D01*
X135115913Y-102833311D01*
X135084328Y-102797383D01*
X135074883Y-102789116D01*
X135011617Y-102757058D01*
X134946064Y-102758407D01*
X134888972Y-102789838D01*
X134851093Y-102848024D01*
X134847574Y-102859446D01*
X134813300Y-102914837D01*
X134769809Y-102941518D01*
X134706923Y-102967960D01*
X134706923Y-102899548D01*
X134726052Y-102800110D01*
X134782831Y-102708902D01*
X134812378Y-102678389D01*
X134879542Y-102639228D01*
X134964956Y-102621500D01*
X135053501Y-102626303D01*
X135053501Y-102626303D01*
G37*
X135053501Y-102626303D02*
X135130060Y-102654733D01*
X135130936Y-102655279D01*
X135178285Y-102690127D01*
X135213241Y-102730852D01*
X135237825Y-102783925D01*
X135254062Y-102855814D01*
X135263975Y-102952992D01*
X135269586Y-103081928D01*
X135270077Y-103100298D01*
X135277141Y-103377287D01*
X135217695Y-103408028D01*
X135174681Y-103428802D01*
X135148710Y-103438646D01*
X135147509Y-103438769D01*
X135143014Y-103420606D01*
X135139444Y-103371612D01*
X135137248Y-103300031D01*
X135136769Y-103242068D01*
X135136758Y-103148170D01*
X135132466Y-103089203D01*
X135117503Y-103061079D01*
X135085482Y-103059706D01*
X135030014Y-103080998D01*
X134946269Y-103120136D01*
X134884689Y-103152643D01*
X134853017Y-103180845D01*
X134843706Y-103211582D01*
X134843692Y-103213104D01*
X134859057Y-103266054D01*
X134904547Y-103294660D01*
X134974166Y-103298803D01*
X135024313Y-103298084D01*
X135050754Y-103312527D01*
X135067243Y-103347218D01*
X135076733Y-103391416D01*
X135063057Y-103416493D01*
X135057907Y-103420082D01*
X135009425Y-103434496D01*
X134941531Y-103436537D01*
X134871612Y-103426983D01*
X134822068Y-103409522D01*
X134753570Y-103351364D01*
X134714634Y-103270408D01*
X134706923Y-103207160D01*
X134712807Y-103150111D01*
X134734101Y-103103542D01*
X134776265Y-103062181D01*
X134844759Y-103020755D01*
X134945044Y-102973993D01*
X134951154Y-102971350D01*
X135041490Y-102929617D01*
X135097235Y-102895391D01*
X135121129Y-102864635D01*
X135115913Y-102833311D01*
X135084328Y-102797383D01*
X135074883Y-102789116D01*
X135011617Y-102757058D01*
X134946064Y-102758407D01*
X134888972Y-102789838D01*
X134851093Y-102848024D01*
X134847574Y-102859446D01*
X134813300Y-102914837D01*
X134769809Y-102941518D01*
X134706923Y-102967960D01*
X134706923Y-102899548D01*
X134726052Y-102800110D01*
X134782831Y-102708902D01*
X134812378Y-102678389D01*
X134879542Y-102639228D01*
X134964956Y-102621500D01*
X135053501Y-102626303D01*
G36*
X134159846Y-102492120D02*
G01*
X134165572Y-102571980D01*
X134172149Y-102619039D01*
X134181262Y-102639566D01*
X134194598Y-102639829D01*
X134198923Y-102637378D01*
X134256444Y-102619636D01*
X134331268Y-102620672D01*
X134407339Y-102638910D01*
X134454918Y-102662505D01*
X134503702Y-102700198D01*
X134539364Y-102742855D01*
X134563845Y-102797057D01*
X134579087Y-102869384D01*
X134587030Y-102966419D01*
X134589616Y-103094742D01*
X134589662Y-103119358D01*
X134589692Y-103395870D01*
X134528161Y-103417320D01*
X134484459Y-103431912D01*
X134460482Y-103438706D01*
X134459777Y-103438769D01*
X134457415Y-103420345D01*
X134455406Y-103369526D01*
X134453901Y-103292993D01*
X134453053Y-103197430D01*
X134452923Y-103139329D01*
X134452651Y-103024771D01*
X134451252Y-102942667D01*
X134447849Y-102886393D01*
X134441567Y-102849326D01*
X134431529Y-102824844D01*
X134416861Y-102806325D01*
X134407702Y-102797406D01*
X134344789Y-102761466D01*
X134276136Y-102758775D01*
X134213848Y-102789170D01*
X134202329Y-102800144D01*
X134185433Y-102820779D01*
X134173714Y-102845256D01*
X134166233Y-102880647D01*
X134162054Y-102934026D01*
X134160237Y-103012466D01*
X134159846Y-103120617D01*
X134159846Y-103395870D01*
X134098315Y-103417320D01*
X134054613Y-103431912D01*
X134030636Y-103438706D01*
X134029930Y-103438769D01*
X134028126Y-103420069D01*
X134026500Y-103367322D01*
X134025117Y-103285557D01*
X134024042Y-103179805D01*
X134023340Y-103055094D01*
X134023077Y-102916455D01*
X134023077Y-102381806D01*
X134150077Y-102328236D01*
X134159846Y-102492120D01*
X134159846Y-102492120D01*
G37*
X134159846Y-102492120D02*
X134165572Y-102571980D01*
X134172149Y-102619039D01*
X134181262Y-102639566D01*
X134194598Y-102639829D01*
X134198923Y-102637378D01*
X134256444Y-102619636D01*
X134331268Y-102620672D01*
X134407339Y-102638910D01*
X134454918Y-102662505D01*
X134503702Y-102700198D01*
X134539364Y-102742855D01*
X134563845Y-102797057D01*
X134579087Y-102869384D01*
X134587030Y-102966419D01*
X134589616Y-103094742D01*
X134589662Y-103119358D01*
X134589692Y-103395870D01*
X134528161Y-103417320D01*
X134484459Y-103431912D01*
X134460482Y-103438706D01*
X134459777Y-103438769D01*
X134457415Y-103420345D01*
X134455406Y-103369526D01*
X134453901Y-103292993D01*
X134453053Y-103197430D01*
X134452923Y-103139329D01*
X134452651Y-103024771D01*
X134451252Y-102942667D01*
X134447849Y-102886393D01*
X134441567Y-102849326D01*
X134431529Y-102824844D01*
X134416861Y-102806325D01*
X134407702Y-102797406D01*
X134344789Y-102761466D01*
X134276136Y-102758775D01*
X134213848Y-102789170D01*
X134202329Y-102800144D01*
X134185433Y-102820779D01*
X134173714Y-102845256D01*
X134166233Y-102880647D01*
X134162054Y-102934026D01*
X134160237Y-103012466D01*
X134159846Y-103120617D01*
X134159846Y-103395870D01*
X134098315Y-103417320D01*
X134054613Y-103431912D01*
X134030636Y-103438706D01*
X134029930Y-103438769D01*
X134028126Y-103420069D01*
X134026500Y-103367322D01*
X134025117Y-103285557D01*
X134024042Y-103179805D01*
X134023340Y-103055094D01*
X134023077Y-102916455D01*
X134023077Y-102381806D01*
X134150077Y-102328236D01*
X134159846Y-102492120D01*
G36*
X132534254Y-102599745D02*
G01*
X132611286Y-102651567D01*
X132670816Y-102726412D01*
X132706378Y-102821654D01*
X132713571Y-102891756D01*
X132712754Y-102921009D01*
X132705914Y-102943407D01*
X132687112Y-102963474D01*
X132650408Y-102985733D01*
X132589862Y-103014709D01*
X132499534Y-103054927D01*
X132499077Y-103055129D01*
X132415933Y-103093210D01*
X132347753Y-103127025D01*
X132301505Y-103152933D01*
X132284158Y-103167295D01*
X132284154Y-103167411D01*
X132299443Y-103198685D01*
X132335196Y-103233157D01*
X132376242Y-103257990D01*
X132397037Y-103262923D01*
X132453770Y-103245862D01*
X132502627Y-103203133D01*
X132526465Y-103156155D01*
X132549397Y-103121522D01*
X132594318Y-103082081D01*
X132647123Y-103048009D01*
X132693710Y-103029480D01*
X132703452Y-103028462D01*
X132714418Y-103045215D01*
X132715079Y-103088039D01*
X132707020Y-103145781D01*
X132691827Y-103207289D01*
X132671086Y-103261409D01*
X132670038Y-103263510D01*
X132607621Y-103350660D01*
X132526726Y-103409939D01*
X132434856Y-103439034D01*
X132339513Y-103435634D01*
X132248198Y-103397428D01*
X132244138Y-103394741D01*
X132172306Y-103329642D01*
X132125073Y-103244705D01*
X132098934Y-103133021D01*
X132095426Y-103101643D01*
X132089213Y-102953536D01*
X132096661Y-102884468D01*
X132284154Y-102884468D01*
X132286590Y-102927552D01*
X132299914Y-102940126D01*
X132333132Y-102930719D01*
X132385494Y-102908483D01*
X132444024Y-102880610D01*
X132445479Y-102879872D01*
X132495089Y-102853777D01*
X132515000Y-102836363D01*
X132510090Y-102818107D01*
X132489416Y-102794120D01*
X132436819Y-102759406D01*
X132380177Y-102756856D01*
X132329369Y-102782119D01*
X132294276Y-102830847D01*
X132284154Y-102884468D01*
X132096661Y-102884468D01*
X132101992Y-102835036D01*
X132134778Y-102741055D01*
X132180421Y-102675215D01*
X132262802Y-102608681D01*
X132353546Y-102575676D01*
X132446185Y-102573573D01*
X132534254Y-102599745D01*
X132534254Y-102599745D01*
G37*
X132534254Y-102599745D02*
X132611286Y-102651567D01*
X132670816Y-102726412D01*
X132706378Y-102821654D01*
X132713571Y-102891756D01*
X132712754Y-102921009D01*
X132705914Y-102943407D01*
X132687112Y-102963474D01*
X132650408Y-102985733D01*
X132589862Y-103014709D01*
X132499534Y-103054927D01*
X132499077Y-103055129D01*
X132415933Y-103093210D01*
X132347753Y-103127025D01*
X132301505Y-103152933D01*
X132284158Y-103167295D01*
X132284154Y-103167411D01*
X132299443Y-103198685D01*
X132335196Y-103233157D01*
X132376242Y-103257990D01*
X132397037Y-103262923D01*
X132453770Y-103245862D01*
X132502627Y-103203133D01*
X132526465Y-103156155D01*
X132549397Y-103121522D01*
X132594318Y-103082081D01*
X132647123Y-103048009D01*
X132693710Y-103029480D01*
X132703452Y-103028462D01*
X132714418Y-103045215D01*
X132715079Y-103088039D01*
X132707020Y-103145781D01*
X132691827Y-103207289D01*
X132671086Y-103261409D01*
X132670038Y-103263510D01*
X132607621Y-103350660D01*
X132526726Y-103409939D01*
X132434856Y-103439034D01*
X132339513Y-103435634D01*
X132248198Y-103397428D01*
X132244138Y-103394741D01*
X132172306Y-103329642D01*
X132125073Y-103244705D01*
X132098934Y-103133021D01*
X132095426Y-103101643D01*
X132089213Y-102953536D01*
X132096661Y-102884468D01*
X132284154Y-102884468D01*
X132286590Y-102927552D01*
X132299914Y-102940126D01*
X132333132Y-102930719D01*
X132385494Y-102908483D01*
X132444024Y-102880610D01*
X132445479Y-102879872D01*
X132495089Y-102853777D01*
X132515000Y-102836363D01*
X132510090Y-102818107D01*
X132489416Y-102794120D01*
X132436819Y-102759406D01*
X132380177Y-102756856D01*
X132329369Y-102782119D01*
X132294276Y-102830847D01*
X132284154Y-102884468D01*
X132096661Y-102884468D01*
X132101992Y-102835036D01*
X132134778Y-102741055D01*
X132180421Y-102675215D01*
X132262802Y-102608681D01*
X132353546Y-102575676D01*
X132446185Y-102573573D01*
X132534254Y-102599745D01*
G36*
X131016886Y-102587256D02*
G01*
X131108464Y-102635409D01*
X131176049Y-102712905D01*
X131200057Y-102762727D01*
X131218738Y-102837533D01*
X131228301Y-102932052D01*
X131229208Y-103035210D01*
X131221921Y-103135935D01*
X131206903Y-103223153D01*
X131184615Y-103285791D01*
X131177765Y-103296579D01*
X131096632Y-103377105D01*
X131000266Y-103425336D01*
X130895701Y-103439450D01*
X130789968Y-103417629D01*
X130760543Y-103404547D01*
X130703241Y-103364231D01*
X130652950Y-103310775D01*
X130648197Y-103303995D01*
X130628878Y-103271321D01*
X130616108Y-103236394D01*
X130608564Y-103190414D01*
X130604924Y-103124584D01*
X130603865Y-103030105D01*
X130603846Y-103008923D01*
X130603894Y-103002182D01*
X130799231Y-103002182D01*
X130800368Y-103091349D01*
X130804841Y-103150520D01*
X130814246Y-103188741D01*
X130830176Y-103215053D01*
X130838308Y-103223846D01*
X130885058Y-103257261D01*
X130930447Y-103255737D01*
X130976340Y-103226752D01*
X131003712Y-103195809D01*
X131019923Y-103150643D01*
X131029026Y-103079420D01*
X131029651Y-103071114D01*
X131031204Y-102942037D01*
X131014965Y-102846172D01*
X130981152Y-102784107D01*
X130929984Y-102756432D01*
X130911720Y-102754923D01*
X130863760Y-102762513D01*
X130830953Y-102788808D01*
X130810895Y-102839095D01*
X130801178Y-102918664D01*
X130799231Y-103002182D01*
X130603894Y-103002182D01*
X130604574Y-102908249D01*
X130607629Y-102837906D01*
X130614322Y-102789163D01*
X130625960Y-102753288D01*
X130643853Y-102721548D01*
X130647808Y-102715648D01*
X130714267Y-102636104D01*
X130786685Y-102589929D01*
X130874849Y-102571599D01*
X130904787Y-102570703D01*
X131016886Y-102587256D01*
X131016886Y-102587256D01*
G37*
X131016886Y-102587256D02*
X131108464Y-102635409D01*
X131176049Y-102712905D01*
X131200057Y-102762727D01*
X131218738Y-102837533D01*
X131228301Y-102932052D01*
X131229208Y-103035210D01*
X131221921Y-103135935D01*
X131206903Y-103223153D01*
X131184615Y-103285791D01*
X131177765Y-103296579D01*
X131096632Y-103377105D01*
X131000266Y-103425336D01*
X130895701Y-103439450D01*
X130789968Y-103417629D01*
X130760543Y-103404547D01*
X130703241Y-103364231D01*
X130652950Y-103310775D01*
X130648197Y-103303995D01*
X130628878Y-103271321D01*
X130616108Y-103236394D01*
X130608564Y-103190414D01*
X130604924Y-103124584D01*
X130603865Y-103030105D01*
X130603846Y-103008923D01*
X130603894Y-103002182D01*
X130799231Y-103002182D01*
X130800368Y-103091349D01*
X130804841Y-103150520D01*
X130814246Y-103188741D01*
X130830176Y-103215053D01*
X130838308Y-103223846D01*
X130885058Y-103257261D01*
X130930447Y-103255737D01*
X130976340Y-103226752D01*
X131003712Y-103195809D01*
X131019923Y-103150643D01*
X131029026Y-103079420D01*
X131029651Y-103071114D01*
X131031204Y-102942037D01*
X131014965Y-102846172D01*
X130981152Y-102784107D01*
X130929984Y-102756432D01*
X130911720Y-102754923D01*
X130863760Y-102762513D01*
X130830953Y-102788808D01*
X130810895Y-102839095D01*
X130801178Y-102918664D01*
X130799231Y-103002182D01*
X130603894Y-103002182D01*
X130604574Y-102908249D01*
X130607629Y-102837906D01*
X130614322Y-102789163D01*
X130625960Y-102753288D01*
X130643853Y-102721548D01*
X130647808Y-102715648D01*
X130714267Y-102636104D01*
X130786685Y-102589929D01*
X130874849Y-102571599D01*
X130904787Y-102570703D01*
X131016886Y-102587256D01*
G36*
X133271664Y-102595089D02*
G01*
X133334367Y-102631358D01*
X133377961Y-102667358D01*
X133409845Y-102705075D01*
X133431810Y-102751199D01*
X133445649Y-102812421D01*
X133453153Y-102895431D01*
X133456117Y-103006919D01*
X133456461Y-103087062D01*
X133456461Y-103382065D01*
X133290385Y-103456515D01*
X133280615Y-103133402D01*
X133276579Y-103012729D01*
X133272344Y-102925141D01*
X133267097Y-102864650D01*
X133260025Y-102825268D01*
X133250311Y-102801007D01*
X133237144Y-102785880D01*
X133232919Y-102782606D01*
X133168909Y-102757034D01*
X133104208Y-102767153D01*
X133065692Y-102794000D01*
X133050025Y-102813024D01*
X133039180Y-102837988D01*
X133032288Y-102875834D01*
X133028479Y-102933502D01*
X133026883Y-103017935D01*
X133026615Y-103105928D01*
X133026563Y-103216323D01*
X133024672Y-103294463D01*
X133018345Y-103347165D01*
X133004983Y-103381242D01*
X132981985Y-103403511D01*
X132946754Y-103420787D01*
X132899697Y-103438738D01*
X132848303Y-103458278D01*
X132854421Y-103111485D01*
X132856884Y-102986468D01*
X132859767Y-102894082D01*
X132863898Y-102827881D01*
X132870107Y-102781420D01*
X132879226Y-102748256D01*
X132892083Y-102721944D01*
X132907584Y-102698729D01*
X132982371Y-102624569D01*
X133073628Y-102581684D01*
X133172883Y-102571412D01*
X133271664Y-102595089D01*
X133271664Y-102595089D01*
G37*
X133271664Y-102595089D02*
X133334367Y-102631358D01*
X133377961Y-102667358D01*
X133409845Y-102705075D01*
X133431810Y-102751199D01*
X133445649Y-102812421D01*
X133453153Y-102895431D01*
X133456117Y-103006919D01*
X133456461Y-103087062D01*
X133456461Y-103382065D01*
X133290385Y-103456515D01*
X133280615Y-103133402D01*
X133276579Y-103012729D01*
X133272344Y-102925141D01*
X133267097Y-102864650D01*
X133260025Y-102825268D01*
X133250311Y-102801007D01*
X133237144Y-102785880D01*
X133232919Y-102782606D01*
X133168909Y-102757034D01*
X133104208Y-102767153D01*
X133065692Y-102794000D01*
X133050025Y-102813024D01*
X133039180Y-102837988D01*
X133032288Y-102875834D01*
X133028479Y-102933502D01*
X133026883Y-103017935D01*
X133026615Y-103105928D01*
X133026563Y-103216323D01*
X133024672Y-103294463D01*
X133018345Y-103347165D01*
X133004983Y-103381242D01*
X132981985Y-103403511D01*
X132946754Y-103420787D01*
X132899697Y-103438738D01*
X132848303Y-103458278D01*
X132854421Y-103111485D01*
X132856884Y-102986468D01*
X132859767Y-102894082D01*
X132863898Y-102827881D01*
X132870107Y-102781420D01*
X132879226Y-102748256D01*
X132892083Y-102721944D01*
X132907584Y-102698729D01*
X132982371Y-102624569D01*
X133073628Y-102581684D01*
X133172883Y-102571412D01*
X133271664Y-102595089D01*
G36*
X131768886Y-102584505D02*
G01*
X131843539Y-102621727D01*
X131909431Y-102690261D01*
X131927577Y-102715648D01*
X131947345Y-102748866D01*
X131960172Y-102784945D01*
X131967510Y-102833098D01*
X131970813Y-102902536D01*
X131971538Y-102994206D01*
X131968263Y-103119830D01*
X131956877Y-103214154D01*
X131935041Y-103284523D01*
X131900419Y-103338286D01*
X131850670Y-103382788D01*
X131847014Y-103385423D01*
X131797985Y-103412377D01*
X131738945Y-103425712D01*
X131663859Y-103429000D01*
X131541795Y-103429000D01*
X131541744Y-103547497D01*
X131540608Y-103613492D01*
X131533686Y-103652202D01*
X131515598Y-103675419D01*
X131480962Y-103694933D01*
X131472645Y-103698920D01*
X131433720Y-103717603D01*
X131403583Y-103729403D01*
X131381174Y-103730422D01*
X131365433Y-103716761D01*
X131355302Y-103684522D01*
X131349723Y-103629804D01*
X131347635Y-103548711D01*
X131347981Y-103437344D01*
X131349700Y-103291802D01*
X131350237Y-103248269D01*
X131352172Y-103098205D01*
X131353904Y-103000042D01*
X131541692Y-103000042D01*
X131542748Y-103083364D01*
X131547438Y-103137880D01*
X131558051Y-103173837D01*
X131576872Y-103201482D01*
X131589650Y-103214965D01*
X131641890Y-103254417D01*
X131688142Y-103257628D01*
X131735867Y-103225049D01*
X131737077Y-103223846D01*
X131756494Y-103198668D01*
X131768307Y-103164447D01*
X131774265Y-103111748D01*
X131776120Y-103031131D01*
X131776154Y-103013271D01*
X131771670Y-102902175D01*
X131757074Y-102825161D01*
X131730650Y-102778147D01*
X131690683Y-102757050D01*
X131667584Y-102754923D01*
X131612762Y-102764900D01*
X131575158Y-102797752D01*
X131552523Y-102857857D01*
X131542606Y-102949598D01*
X131541692Y-103000042D01*
X131353904Y-103000042D01*
X131354222Y-102982060D01*
X131356873Y-102894679D01*
X131360606Y-102830905D01*
X131365907Y-102785582D01*
X131373258Y-102753555D01*
X131383143Y-102729668D01*
X131396046Y-102708764D01*
X131401579Y-102700898D01*
X131474969Y-102626595D01*
X131567760Y-102584467D01*
X131675096Y-102572722D01*
X131768886Y-102584505D01*
X131768886Y-102584505D01*
G37*
X131768886Y-102584505D02*
X131843539Y-102621727D01*
X131909431Y-102690261D01*
X131927577Y-102715648D01*
X131947345Y-102748866D01*
X131960172Y-102784945D01*
X131967510Y-102833098D01*
X131970813Y-102902536D01*
X131971538Y-102994206D01*
X131968263Y-103119830D01*
X131956877Y-103214154D01*
X131935041Y-103284523D01*
X131900419Y-103338286D01*
X131850670Y-103382788D01*
X131847014Y-103385423D01*
X131797985Y-103412377D01*
X131738945Y-103425712D01*
X131663859Y-103429000D01*
X131541795Y-103429000D01*
X131541744Y-103547497D01*
X131540608Y-103613492D01*
X131533686Y-103652202D01*
X131515598Y-103675419D01*
X131480962Y-103694933D01*
X131472645Y-103698920D01*
X131433720Y-103717603D01*
X131403583Y-103729403D01*
X131381174Y-103730422D01*
X131365433Y-103716761D01*
X131355302Y-103684522D01*
X131349723Y-103629804D01*
X131347635Y-103548711D01*
X131347981Y-103437344D01*
X131349700Y-103291802D01*
X131350237Y-103248269D01*
X131352172Y-103098205D01*
X131353904Y-103000042D01*
X131541692Y-103000042D01*
X131542748Y-103083364D01*
X131547438Y-103137880D01*
X131558051Y-103173837D01*
X131576872Y-103201482D01*
X131589650Y-103214965D01*
X131641890Y-103254417D01*
X131688142Y-103257628D01*
X131735867Y-103225049D01*
X131737077Y-103223846D01*
X131756494Y-103198668D01*
X131768307Y-103164447D01*
X131774265Y-103111748D01*
X131776120Y-103031131D01*
X131776154Y-103013271D01*
X131771670Y-102902175D01*
X131757074Y-102825161D01*
X131730650Y-102778147D01*
X131690683Y-102757050D01*
X131667584Y-102754923D01*
X131612762Y-102764900D01*
X131575158Y-102797752D01*
X131552523Y-102857857D01*
X131542606Y-102949598D01*
X131541692Y-103000042D01*
X131353904Y-103000042D01*
X131354222Y-102982060D01*
X131356873Y-102894679D01*
X131360606Y-102830905D01*
X131365907Y-102785582D01*
X131373258Y-102753555D01*
X131383143Y-102729668D01*
X131396046Y-102708764D01*
X131401579Y-102700898D01*
X131474969Y-102626595D01*
X131567760Y-102584467D01*
X131675096Y-102572722D01*
X131768886Y-102584505D01*
D12*
X164251000Y-73000000D02*
G75*
G03X164251000Y-73000000I-1251000J0D01*
G01*
X164251000Y-102000000D02*
G75*
G03X164251000Y-102000000I-1251000J0D01*
G01*
X110251000Y-102000000D02*
G75*
G03X110251000Y-102000000I-1251000J0D01*
G01*
X110251000Y-73000000D02*
G75*
G03X110251000Y-73000000I-1251000J0D01*
G01*
X161820000Y-77670000D02*
X163150000Y-77670000D01*
X161820000Y-79000000D02*
X161820000Y-77670000D01*
X161820000Y-80270000D02*
X164480000Y-80270000D01*
X164480000Y-80270000D02*
X164480000Y-80330000D01*
X161820000Y-80270000D02*
X161820000Y-80330000D01*
X161820000Y-80330000D02*
X164480000Y-80330000D01*
X164850000Y-87750000D02*
X164850000Y-86500000D01*
X163600000Y-87750000D02*
X164850000Y-87750000D01*
X157700000Y-82250000D02*
X160750000Y-82250000D01*
X157700000Y-85200000D02*
X157700000Y-82250000D01*
X156950000Y-85200000D02*
X157700000Y-85200000D01*
X163800000Y-82250000D02*
X160750000Y-82250000D01*
X163800000Y-85200000D02*
X163800000Y-82250000D01*
X164550000Y-85200000D02*
X163800000Y-85200000D01*
X156950000Y-87450000D02*
X158750000Y-87450000D01*
X156950000Y-86700000D02*
X156950000Y-87450000D01*
X158750000Y-86700000D02*
X156950000Y-86700000D01*
X158750000Y-87450000D02*
X158750000Y-86700000D01*
X162750000Y-87450000D02*
X164550000Y-87450000D01*
X162750000Y-86700000D02*
X162750000Y-87450000D01*
X164550000Y-86700000D02*
X162750000Y-86700000D01*
X164550000Y-87450000D02*
X164550000Y-86700000D01*
X160250000Y-87450000D02*
X161250000Y-87450000D01*
X160250000Y-86700000D02*
X160250000Y-87450000D01*
X161250000Y-86700000D02*
X160250000Y-86700000D01*
X161250000Y-87450000D02*
X161250000Y-86700000D01*
X156940000Y-87460000D02*
X164560000Y-87460000D01*
X156940000Y-81490000D02*
X156940000Y-87460000D01*
X164560000Y-81490000D02*
X156940000Y-81490000D01*
X164560000Y-87460000D02*
X164560000Y-81490000D01*
X155850000Y-95750000D02*
X155850000Y-94500000D01*
X154600000Y-95750000D02*
X155850000Y-95750000D01*
X148700000Y-90250000D02*
X151750000Y-90250000D01*
X148700000Y-93200000D02*
X148700000Y-90250000D01*
X147950000Y-93200000D02*
X148700000Y-93200000D01*
X154800000Y-90250000D02*
X151750000Y-90250000D01*
X154800000Y-93200000D02*
X154800000Y-90250000D01*
X155550000Y-93200000D02*
X154800000Y-93200000D01*
X147950000Y-95450000D02*
X149750000Y-95450000D01*
X147950000Y-94700000D02*
X147950000Y-95450000D01*
X149750000Y-94700000D02*
X147950000Y-94700000D01*
X149750000Y-95450000D02*
X149750000Y-94700000D01*
X153750000Y-95450000D02*
X155550000Y-95450000D01*
X153750000Y-94700000D02*
X153750000Y-95450000D01*
X155550000Y-94700000D02*
X153750000Y-94700000D01*
X155550000Y-95450000D02*
X155550000Y-94700000D01*
X151250000Y-95450000D02*
X152250000Y-95450000D01*
X151250000Y-94700000D02*
X151250000Y-95450000D01*
X152250000Y-94700000D02*
X151250000Y-94700000D01*
X152250000Y-95450000D02*
X152250000Y-94700000D01*
X147940000Y-95460000D02*
X155560000Y-95460000D01*
X147940000Y-89490000D02*
X147940000Y-95460000D01*
X155560000Y-89490000D02*
X147940000Y-89490000D01*
X155560000Y-95460000D02*
X155560000Y-89490000D01*
X146850000Y-95750000D02*
X146850000Y-94500000D01*
X145600000Y-95750000D02*
X146850000Y-95750000D01*
X139700000Y-90250000D02*
X142750000Y-90250000D01*
X139700000Y-93200000D02*
X139700000Y-90250000D01*
X138950000Y-93200000D02*
X139700000Y-93200000D01*
X145800000Y-90250000D02*
X142750000Y-90250000D01*
X145800000Y-93200000D02*
X145800000Y-90250000D01*
X146550000Y-93200000D02*
X145800000Y-93200000D01*
X138950000Y-95450000D02*
X140750000Y-95450000D01*
X138950000Y-94700000D02*
X138950000Y-95450000D01*
X140750000Y-94700000D02*
X138950000Y-94700000D01*
X140750000Y-95450000D02*
X140750000Y-94700000D01*
X144750000Y-95450000D02*
X146550000Y-95450000D01*
X144750000Y-94700000D02*
X144750000Y-95450000D01*
X146550000Y-94700000D02*
X144750000Y-94700000D01*
X146550000Y-95450000D02*
X146550000Y-94700000D01*
X142250000Y-95450000D02*
X143250000Y-95450000D01*
X142250000Y-94700000D02*
X142250000Y-95450000D01*
X143250000Y-94700000D02*
X142250000Y-94700000D01*
X143250000Y-95450000D02*
X143250000Y-94700000D01*
X138940000Y-95460000D02*
X146560000Y-95460000D01*
X138940000Y-89490000D02*
X138940000Y-95460000D01*
X146560000Y-89490000D02*
X138940000Y-89490000D01*
X146560000Y-95460000D02*
X146560000Y-89490000D01*
X155850000Y-103750000D02*
X155850000Y-102500000D01*
X154600000Y-103750000D02*
X155850000Y-103750000D01*
X148700000Y-98250000D02*
X151750000Y-98250000D01*
X148700000Y-101200000D02*
X148700000Y-98250000D01*
X147950000Y-101200000D02*
X148700000Y-101200000D01*
X154800000Y-98250000D02*
X151750000Y-98250000D01*
X154800000Y-101200000D02*
X154800000Y-98250000D01*
X155550000Y-101200000D02*
X154800000Y-101200000D01*
X147950000Y-103450000D02*
X149750000Y-103450000D01*
X147950000Y-102700000D02*
X147950000Y-103450000D01*
X149750000Y-102700000D02*
X147950000Y-102700000D01*
X149750000Y-103450000D02*
X149750000Y-102700000D01*
X153750000Y-103450000D02*
X155550000Y-103450000D01*
X153750000Y-102700000D02*
X153750000Y-103450000D01*
X155550000Y-102700000D02*
X153750000Y-102700000D01*
X155550000Y-103450000D02*
X155550000Y-102700000D01*
X151250000Y-103450000D02*
X152250000Y-103450000D01*
X151250000Y-102700000D02*
X151250000Y-103450000D01*
X152250000Y-102700000D02*
X151250000Y-102700000D01*
X152250000Y-103450000D02*
X152250000Y-102700000D01*
X147940000Y-103460000D02*
X155560000Y-103460000D01*
X147940000Y-97490000D02*
X147940000Y-103460000D01*
X155560000Y-97490000D02*
X147940000Y-97490000D01*
X155560000Y-103460000D02*
X155560000Y-97490000D01*
X159600000Y-70345000D02*
X159600000Y-72885000D01*
X159600000Y-70345000D02*
X157060000Y-70345000D01*
X159350000Y-70595000D02*
X159350000Y-79945000D01*
X113090000Y-70595000D02*
X159350000Y-70595000D01*
X113090000Y-79945000D02*
X113090000Y-70595000D01*
X159350000Y-79945000D02*
X113090000Y-79945000D01*
X164850000Y-95750000D02*
X164850000Y-94500000D01*
X163600000Y-95750000D02*
X164850000Y-95750000D01*
X157700000Y-90250000D02*
X160750000Y-90250000D01*
X157700000Y-93200000D02*
X157700000Y-90250000D01*
X156950000Y-93200000D02*
X157700000Y-93200000D01*
X163800000Y-90250000D02*
X160750000Y-90250000D01*
X163800000Y-93200000D02*
X163800000Y-90250000D01*
X164550000Y-93200000D02*
X163800000Y-93200000D01*
X156950000Y-95450000D02*
X158750000Y-95450000D01*
X156950000Y-94700000D02*
X156950000Y-95450000D01*
X158750000Y-94700000D02*
X156950000Y-94700000D01*
X158750000Y-95450000D02*
X158750000Y-94700000D01*
X162750000Y-95450000D02*
X164550000Y-95450000D01*
X162750000Y-94700000D02*
X162750000Y-95450000D01*
X164550000Y-94700000D02*
X162750000Y-94700000D01*
X164550000Y-95450000D02*
X164550000Y-94700000D01*
X160250000Y-95450000D02*
X161250000Y-95450000D01*
X160250000Y-94700000D02*
X160250000Y-95450000D01*
X161250000Y-94700000D02*
X160250000Y-94700000D01*
X161250000Y-95450000D02*
X161250000Y-94700000D01*
X156940000Y-95460000D02*
X164560000Y-95460000D01*
X156940000Y-89490000D02*
X156940000Y-95460000D01*
X164560000Y-89490000D02*
X156940000Y-89490000D01*
X164560000Y-95460000D02*
X164560000Y-89490000D01*
X129850000Y-87750000D02*
X129850000Y-86500000D01*
X128600000Y-87750000D02*
X129850000Y-87750000D01*
X117700000Y-82250000D02*
X123250000Y-82250000D01*
X117700000Y-85200000D02*
X117700000Y-82250000D01*
X116950000Y-85200000D02*
X117700000Y-85200000D01*
X128800000Y-82250000D02*
X123250000Y-82250000D01*
X128800000Y-85200000D02*
X128800000Y-82250000D01*
X129550000Y-85200000D02*
X128800000Y-85200000D01*
X116950000Y-87450000D02*
X118750000Y-87450000D01*
X116950000Y-86700000D02*
X116950000Y-87450000D01*
X118750000Y-86700000D02*
X116950000Y-86700000D01*
X118750000Y-87450000D02*
X118750000Y-86700000D01*
X127750000Y-87450000D02*
X129550000Y-87450000D01*
X127750000Y-86700000D02*
X127750000Y-87450000D01*
X129550000Y-86700000D02*
X127750000Y-86700000D01*
X129550000Y-87450000D02*
X129550000Y-86700000D01*
X120250000Y-87450000D02*
X126250000Y-87450000D01*
X120250000Y-86700000D02*
X120250000Y-87450000D01*
X126250000Y-86700000D02*
X120250000Y-86700000D01*
X126250000Y-87450000D02*
X126250000Y-86700000D01*
X116940000Y-87460000D02*
X129560000Y-87460000D01*
X116940000Y-81490000D02*
X116940000Y-87460000D01*
X129560000Y-81490000D02*
X116940000Y-81490000D01*
X129560000Y-87460000D02*
X129560000Y-81490000D01*
X129850000Y-95750000D02*
X129850000Y-94500000D01*
X128600000Y-95750000D02*
X129850000Y-95750000D01*
X117700000Y-90250000D02*
X123250000Y-90250000D01*
X117700000Y-93200000D02*
X117700000Y-90250000D01*
X116950000Y-93200000D02*
X117700000Y-93200000D01*
X128800000Y-90250000D02*
X123250000Y-90250000D01*
X128800000Y-93200000D02*
X128800000Y-90250000D01*
X129550000Y-93200000D02*
X128800000Y-93200000D01*
X116950000Y-95450000D02*
X118750000Y-95450000D01*
X116950000Y-94700000D02*
X116950000Y-95450000D01*
X118750000Y-94700000D02*
X116950000Y-94700000D01*
X118750000Y-95450000D02*
X118750000Y-94700000D01*
X127750000Y-95450000D02*
X129550000Y-95450000D01*
X127750000Y-94700000D02*
X127750000Y-95450000D01*
X129550000Y-94700000D02*
X127750000Y-94700000D01*
X129550000Y-95450000D02*
X129550000Y-94700000D01*
X120250000Y-95450000D02*
X126250000Y-95450000D01*
X120250000Y-94700000D02*
X120250000Y-95450000D01*
X126250000Y-94700000D02*
X120250000Y-94700000D01*
X126250000Y-95450000D02*
X126250000Y-94700000D01*
X116940000Y-95460000D02*
X129560000Y-95460000D01*
X116940000Y-89490000D02*
X116940000Y-95460000D01*
X129560000Y-89490000D02*
X116940000Y-89490000D01*
X129560000Y-95460000D02*
X129560000Y-89490000D01*
X115860000Y-86700000D02*
X115260000Y-86400000D01*
X115860000Y-86100000D02*
X115860000Y-86700000D01*
X115260000Y-86400000D02*
X115860000Y-86100000D01*
X106980000Y-81490000D02*
X115060000Y-81490000D01*
X106980000Y-88510000D02*
X106980000Y-81490000D01*
X108180000Y-88510000D02*
X106980000Y-88510000D01*
X108180000Y-90210000D02*
X108180000Y-88510000D01*
X113860000Y-90210000D02*
X108180000Y-90210000D01*
X113860000Y-88510000D02*
X113860000Y-90210000D01*
X115060000Y-88510000D02*
X113860000Y-88510000D01*
X115060000Y-81490000D02*
X115060000Y-88510000D01*
X155850000Y-87750000D02*
X155850000Y-86500000D01*
X154600000Y-87750000D02*
X155850000Y-87750000D01*
X148700000Y-82250000D02*
X151750000Y-82250000D01*
X148700000Y-85200000D02*
X148700000Y-82250000D01*
X147950000Y-85200000D02*
X148700000Y-85200000D01*
X154800000Y-82250000D02*
X151750000Y-82250000D01*
X154800000Y-85200000D02*
X154800000Y-82250000D01*
X155550000Y-85200000D02*
X154800000Y-85200000D01*
X147950000Y-87450000D02*
X149750000Y-87450000D01*
X147950000Y-86700000D02*
X147950000Y-87450000D01*
X149750000Y-86700000D02*
X147950000Y-86700000D01*
X149750000Y-87450000D02*
X149750000Y-86700000D01*
X153750000Y-87450000D02*
X155550000Y-87450000D01*
X153750000Y-86700000D02*
X153750000Y-87450000D01*
X155550000Y-86700000D02*
X153750000Y-86700000D01*
X155550000Y-87450000D02*
X155550000Y-86700000D01*
X151250000Y-87450000D02*
X152250000Y-87450000D01*
X151250000Y-86700000D02*
X151250000Y-87450000D01*
X152250000Y-86700000D02*
X151250000Y-86700000D01*
X152250000Y-87450000D02*
X152250000Y-86700000D01*
X147940000Y-87460000D02*
X155560000Y-87460000D01*
X147940000Y-81490000D02*
X147940000Y-87460000D01*
X155560000Y-81490000D02*
X147940000Y-81490000D01*
X155560000Y-87460000D02*
X155560000Y-81490000D01*
X146850000Y-87750000D02*
X146850000Y-86500000D01*
X145600000Y-87750000D02*
X146850000Y-87750000D01*
X139700000Y-82250000D02*
X142750000Y-82250000D01*
X139700000Y-85200000D02*
X139700000Y-82250000D01*
X138950000Y-85200000D02*
X139700000Y-85200000D01*
X145800000Y-82250000D02*
X142750000Y-82250000D01*
X145800000Y-85200000D02*
X145800000Y-82250000D01*
X146550000Y-85200000D02*
X145800000Y-85200000D01*
X138950000Y-87450000D02*
X140750000Y-87450000D01*
X138950000Y-86700000D02*
X138950000Y-87450000D01*
X140750000Y-86700000D02*
X138950000Y-86700000D01*
X140750000Y-87450000D02*
X140750000Y-86700000D01*
X144750000Y-87450000D02*
X146550000Y-87450000D01*
X144750000Y-86700000D02*
X144750000Y-87450000D01*
X146550000Y-86700000D02*
X144750000Y-86700000D01*
X146550000Y-87450000D02*
X146550000Y-86700000D01*
X142250000Y-87450000D02*
X143250000Y-87450000D01*
X142250000Y-86700000D02*
X142250000Y-87450000D01*
X143250000Y-86700000D02*
X142250000Y-86700000D01*
X143250000Y-87450000D02*
X143250000Y-86700000D01*
X138940000Y-87460000D02*
X146560000Y-87460000D01*
X138940000Y-81490000D02*
X138940000Y-87460000D01*
X146560000Y-81490000D02*
X138940000Y-81490000D01*
X146560000Y-87460000D02*
X146560000Y-81490000D01*
X136330000Y-91830000D02*
X135000000Y-91830000D01*
X136330000Y-90500000D02*
X136330000Y-91830000D01*
X136330000Y-89230000D02*
X133670000Y-89230000D01*
X133670000Y-89230000D02*
X133670000Y-81550000D01*
X136330000Y-89230000D02*
X136330000Y-81550000D01*
X136330000Y-81550000D02*
X133670000Y-81550000D01*
D10*
X162340476Y-76122380D02*
X161864285Y-76122380D01*
X161816666Y-76598571D01*
X161864285Y-76550952D01*
X161959523Y-76503333D01*
X162197619Y-76503333D01*
X162292857Y-76550952D01*
X162340476Y-76598571D01*
X162388095Y-76693809D01*
X162388095Y-76931904D01*
X162340476Y-77027142D01*
X162292857Y-77074761D01*
X162197619Y-77122380D01*
X161959523Y-77122380D01*
X161864285Y-77074761D01*
X161816666Y-77027142D01*
X162673809Y-76122380D02*
X163007142Y-77122380D01*
X163340476Y-76122380D01*
X163673809Y-76741428D02*
X164435714Y-76741428D01*
X164054761Y-77122380D02*
X164054761Y-76360476D01*
X158702380Y-88002380D02*
X159369047Y-88002380D01*
X158702380Y-89002380D01*
X159369047Y-89002380D01*
X159511904Y-89097619D02*
X160273809Y-89097619D01*
X160511904Y-89002380D02*
X160511904Y-88002380D01*
X160845238Y-88716666D01*
X161178571Y-88002380D01*
X161178571Y-89002380D01*
X161654761Y-89002380D02*
X161654761Y-88002380D01*
X162130952Y-89002380D02*
X162130952Y-88002380D01*
X162702380Y-89002380D01*
X162702380Y-88002380D01*
X149702380Y-96002380D02*
X150369047Y-97002380D01*
X150369047Y-96002380D02*
X149702380Y-97002380D01*
X150511904Y-97097619D02*
X151273809Y-97097619D01*
X151511904Y-97002380D02*
X151511904Y-96002380D01*
X151845238Y-96716666D01*
X152178571Y-96002380D01*
X152178571Y-97002380D01*
X152654761Y-97002380D02*
X152654761Y-96002380D01*
X153130952Y-97002380D02*
X153130952Y-96002380D01*
X153702380Y-97002380D01*
X153702380Y-96002380D01*
X140654761Y-96002380D02*
X141321428Y-97002380D01*
X141321428Y-96002380D02*
X140654761Y-97002380D01*
X141464285Y-97097619D02*
X142226190Y-97097619D01*
X142797619Y-96478571D02*
X142464285Y-96478571D01*
X142464285Y-97002380D02*
X142464285Y-96002380D01*
X142940476Y-96002380D01*
X143273809Y-96716666D02*
X143750000Y-96716666D01*
X143178571Y-97002380D02*
X143511904Y-96002380D01*
X143845238Y-97002380D01*
X144178571Y-97002380D02*
X144178571Y-96002380D01*
X144750000Y-97002380D01*
X144750000Y-96002380D01*
X157190476Y-102452380D02*
X157761904Y-102452380D01*
X157476190Y-103452380D02*
X157476190Y-102452380D01*
X158095238Y-103452380D02*
X158095238Y-102452380D01*
X158095238Y-102928571D02*
X158666666Y-102928571D01*
X158666666Y-103452380D02*
X158666666Y-102452380D01*
X158678571Y-97002380D02*
X158678571Y-96002380D01*
X159059523Y-96002380D01*
X159154761Y-96050000D01*
X159202380Y-96097619D01*
X159250000Y-96192857D01*
X159250000Y-96335714D01*
X159202380Y-96430952D01*
X159154761Y-96478571D01*
X159059523Y-96526190D01*
X158678571Y-96526190D01*
X159535714Y-96002380D02*
X160107142Y-96002380D01*
X159821428Y-97002380D02*
X159821428Y-96002380D01*
X160964285Y-97002380D02*
X160392857Y-97002380D01*
X160678571Y-97002380D02*
X160678571Y-96002380D01*
X160583333Y-96145238D01*
X160488095Y-96240476D01*
X160392857Y-96288095D01*
X161583333Y-96002380D02*
X161678571Y-96002380D01*
X161773809Y-96050000D01*
X161821428Y-96097619D01*
X161869047Y-96192857D01*
X161916666Y-96383333D01*
X161916666Y-96621428D01*
X161869047Y-96811904D01*
X161821428Y-96907142D01*
X161773809Y-96954761D01*
X161678571Y-97002380D01*
X161583333Y-97002380D01*
X161488095Y-96954761D01*
X161440476Y-96907142D01*
X161392857Y-96811904D01*
X161345238Y-96621428D01*
X161345238Y-96383333D01*
X161392857Y-96192857D01*
X161440476Y-96097619D01*
X161488095Y-96050000D01*
X161583333Y-96002380D01*
X162535714Y-96002380D02*
X162630952Y-96002380D01*
X162726190Y-96050000D01*
X162773809Y-96097619D01*
X162821428Y-96192857D01*
X162869047Y-96383333D01*
X162869047Y-96621428D01*
X162821428Y-96811904D01*
X162773809Y-96907142D01*
X162726190Y-96954761D01*
X162630952Y-97002380D01*
X162535714Y-97002380D01*
X162440476Y-96954761D01*
X162392857Y-96907142D01*
X162345238Y-96811904D01*
X162297619Y-96621428D01*
X162297619Y-96383333D01*
X162345238Y-96192857D01*
X162392857Y-96097619D01*
X162440476Y-96050000D01*
X162535714Y-96002380D01*
X120559523Y-89002380D02*
X120559523Y-88002380D01*
X120892857Y-88716666D01*
X121226190Y-88002380D01*
X121226190Y-89002380D01*
X121845238Y-89002380D02*
X121750000Y-88954761D01*
X121702380Y-88907142D01*
X121654761Y-88811904D01*
X121654761Y-88526190D01*
X121702380Y-88430952D01*
X121750000Y-88383333D01*
X121845238Y-88335714D01*
X121988095Y-88335714D01*
X122083333Y-88383333D01*
X122130952Y-88430952D01*
X122178571Y-88526190D01*
X122178571Y-88811904D01*
X122130952Y-88907142D01*
X122083333Y-88954761D01*
X121988095Y-89002380D01*
X121845238Y-89002380D01*
X122464285Y-88335714D02*
X122845238Y-88335714D01*
X122607142Y-88002380D02*
X122607142Y-88859523D01*
X122654761Y-88954761D01*
X122750000Y-89002380D01*
X122845238Y-89002380D01*
X123321428Y-89002380D02*
X123226190Y-88954761D01*
X123178571Y-88907142D01*
X123130952Y-88811904D01*
X123130952Y-88526190D01*
X123178571Y-88430952D01*
X123226190Y-88383333D01*
X123321428Y-88335714D01*
X123464285Y-88335714D01*
X123559523Y-88383333D01*
X123607142Y-88430952D01*
X123654761Y-88526190D01*
X123654761Y-88811904D01*
X123607142Y-88907142D01*
X123559523Y-88954761D01*
X123464285Y-89002380D01*
X123321428Y-89002380D01*
X124083333Y-89002380D02*
X124083333Y-88335714D01*
X124083333Y-88526190D02*
X124130952Y-88430952D01*
X124178571Y-88383333D01*
X124273809Y-88335714D01*
X124369047Y-88335714D01*
X124464285Y-89097619D02*
X125226190Y-89097619D01*
X125369047Y-88002380D02*
X126035714Y-89002380D01*
X126035714Y-88002380D02*
X125369047Y-89002380D01*
X120583333Y-97002380D02*
X120583333Y-96002380D01*
X120916666Y-96716666D01*
X121250000Y-96002380D01*
X121250000Y-97002380D01*
X121869047Y-97002380D02*
X121773809Y-96954761D01*
X121726190Y-96907142D01*
X121678571Y-96811904D01*
X121678571Y-96526190D01*
X121726190Y-96430952D01*
X121773809Y-96383333D01*
X121869047Y-96335714D01*
X122011904Y-96335714D01*
X122107142Y-96383333D01*
X122154761Y-96430952D01*
X122202380Y-96526190D01*
X122202380Y-96811904D01*
X122154761Y-96907142D01*
X122107142Y-96954761D01*
X122011904Y-97002380D01*
X121869047Y-97002380D01*
X122488095Y-96335714D02*
X122869047Y-96335714D01*
X122630952Y-96002380D02*
X122630952Y-96859523D01*
X122678571Y-96954761D01*
X122773809Y-97002380D01*
X122869047Y-97002380D01*
X123345238Y-97002380D02*
X123250000Y-96954761D01*
X123202380Y-96907142D01*
X123154761Y-96811904D01*
X123154761Y-96526190D01*
X123202380Y-96430952D01*
X123250000Y-96383333D01*
X123345238Y-96335714D01*
X123488095Y-96335714D01*
X123583333Y-96383333D01*
X123630952Y-96430952D01*
X123678571Y-96526190D01*
X123678571Y-96811904D01*
X123630952Y-96907142D01*
X123583333Y-96954761D01*
X123488095Y-97002380D01*
X123345238Y-97002380D01*
X124107142Y-97002380D02*
X124107142Y-96335714D01*
X124107142Y-96526190D02*
X124154761Y-96430952D01*
X124202380Y-96383333D01*
X124297619Y-96335714D01*
X124392857Y-96335714D01*
X124488095Y-97097619D02*
X125250000Y-97097619D01*
X125488095Y-96478571D02*
X125821428Y-96478571D01*
X125964285Y-97002380D02*
X125488095Y-97002380D01*
X125488095Y-96002380D01*
X125964285Y-96002380D01*
X109472380Y-91752380D02*
X109472380Y-90752380D01*
X109472380Y-91228571D02*
X110043809Y-91228571D01*
X110043809Y-91752380D02*
X110043809Y-90752380D01*
X110520000Y-91228571D02*
X110853333Y-91228571D01*
X110996190Y-91752380D02*
X110520000Y-91752380D01*
X110520000Y-90752380D01*
X110996190Y-90752380D01*
X111377142Y-91466666D02*
X111853333Y-91466666D01*
X111281904Y-91752380D02*
X111615238Y-90752380D01*
X111948571Y-91752380D01*
X112139047Y-90752380D02*
X112710476Y-90752380D01*
X112424761Y-91752380D02*
X112424761Y-90752380D01*
X148940476Y-88478571D02*
X148607142Y-88478571D01*
X148607142Y-89002380D02*
X148607142Y-88002380D01*
X149083333Y-88002380D01*
X149464285Y-89002380D02*
X149464285Y-88002380D01*
X150416666Y-89002380D02*
X149940476Y-89002380D01*
X149940476Y-88002380D01*
X150511904Y-89097619D02*
X151273809Y-89097619D01*
X151464285Y-88954761D02*
X151607142Y-89002380D01*
X151845238Y-89002380D01*
X151940476Y-88954761D01*
X151988095Y-88907142D01*
X152035714Y-88811904D01*
X152035714Y-88716666D01*
X151988095Y-88621428D01*
X151940476Y-88573809D01*
X151845238Y-88526190D01*
X151654761Y-88478571D01*
X151559523Y-88430952D01*
X151511904Y-88383333D01*
X151464285Y-88288095D01*
X151464285Y-88192857D01*
X151511904Y-88097619D01*
X151559523Y-88050000D01*
X151654761Y-88002380D01*
X151892857Y-88002380D01*
X152035714Y-88050000D01*
X152464285Y-88478571D02*
X152797619Y-88478571D01*
X152940476Y-89002380D02*
X152464285Y-89002380D01*
X152464285Y-88002380D01*
X152940476Y-88002380D01*
X153369047Y-89002380D02*
X153369047Y-88002380D01*
X153940476Y-89002380D01*
X153940476Y-88002380D01*
X154369047Y-88954761D02*
X154511904Y-89002380D01*
X154750000Y-89002380D01*
X154845238Y-88954761D01*
X154892857Y-88907142D01*
X154940476Y-88811904D01*
X154940476Y-88716666D01*
X154892857Y-88621428D01*
X154845238Y-88573809D01*
X154750000Y-88526190D01*
X154559523Y-88478571D01*
X154464285Y-88430952D01*
X154416666Y-88383333D01*
X154369047Y-88288095D01*
X154369047Y-88192857D01*
X154416666Y-88097619D01*
X154464285Y-88050000D01*
X154559523Y-88002380D01*
X154797619Y-88002380D01*
X154940476Y-88050000D01*
X141940476Y-88478571D02*
X141607142Y-88478571D01*
X141607142Y-89002380D02*
X141607142Y-88002380D01*
X142083333Y-88002380D01*
X142416666Y-88716666D02*
X142892857Y-88716666D01*
X142321428Y-89002380D02*
X142654761Y-88002380D01*
X142988095Y-89002380D01*
X143321428Y-89002380D02*
X143321428Y-88002380D01*
X143892857Y-89002380D01*
X143892857Y-88002380D01*
X132500000Y-92758571D02*
X132642857Y-92806190D01*
X132690476Y-92853809D01*
X132738095Y-92949047D01*
X132738095Y-93091904D01*
X132690476Y-93187142D01*
X132642857Y-93234761D01*
X132547619Y-93282380D01*
X132166666Y-93282380D01*
X132166666Y-92282380D01*
X132500000Y-92282380D01*
X132595238Y-92330000D01*
X132642857Y-92377619D01*
X132690476Y-92472857D01*
X132690476Y-92568095D01*
X132642857Y-92663333D01*
X132595238Y-92710952D01*
X132500000Y-92758571D01*
X132166666Y-92758571D01*
X133642857Y-93282380D02*
X133166666Y-93282380D01*
X133166666Y-92282380D01*
X133833333Y-92282380D02*
X134404761Y-92282380D01*
X134119047Y-93282380D02*
X134119047Y-92282380D01*
X134880952Y-93282380D02*
X134785714Y-93234761D01*
X134738095Y-93187142D01*
X134690476Y-93091904D01*
X134690476Y-92806190D01*
X134738095Y-92710952D01*
X134785714Y-92663333D01*
X134880952Y-92615714D01*
X135023809Y-92615714D01*
X135119047Y-92663333D01*
X135166666Y-92710952D01*
X135214285Y-92806190D01*
X135214285Y-93091904D01*
X135166666Y-93187142D01*
X135119047Y-93234761D01*
X135023809Y-93282380D01*
X134880952Y-93282380D01*
X136071428Y-92615714D02*
X136071428Y-93282380D01*
X135642857Y-92615714D02*
X135642857Y-93139523D01*
X135690476Y-93234761D01*
X135785714Y-93282380D01*
X135928571Y-93282380D01*
X136023809Y-93234761D01*
X136071428Y-93187142D01*
X136976190Y-93234761D02*
X136880952Y-93282380D01*
X136690476Y-93282380D01*
X136595238Y-93234761D01*
X136547619Y-93187142D01*
X136500000Y-93091904D01*
X136500000Y-92806190D01*
X136547619Y-92710952D01*
X136595238Y-92663333D01*
X136690476Y-92615714D01*
X136880952Y-92615714D01*
X136976190Y-92663333D01*
X137404761Y-93282380D02*
X137404761Y-92282380D01*
X137833333Y-93282380D02*
X137833333Y-92758571D01*
X137785714Y-92663333D01*
X137690476Y-92615714D01*
X137547619Y-92615714D01*
X137452380Y-92663333D01*
X137404761Y-92710952D01*
M02*
