M48
; DRILL file {KiCad (5.1.4-0-10_14)} date 2019 October 10, Thursday 23:16:08
; FORMAT={-:-/ absolute / metric / decimal}
; #@! TF.CreationDate,2019-10-10T23:16:08+03:00
; #@! TF.GenerationSoftware,Kicad,Pcbnew,(5.1.4-0-10_14)
; #@! TF.FileFunction,Plated,1,2,PTH
FMAT,2
METRIC
T1C0.950
T2C1.000
T3C1.016
T4C1.700
T5C3.200
%
G90
G05
T1
X126.5Y-50.0
X129.0Y-50.0
X131.5Y-50.0
X134.0Y-50.0
X126.5Y-68.0
X129.0Y-68.0
X131.5Y-68.0
X134.0Y-68.0
X126.5Y-57.5
X129.0Y-57.5
X131.5Y-57.5
X134.0Y-57.5
X125.5Y-91.5
X125.5Y-94.0
X125.5Y-96.5
X125.5Y-80.0
X125.5Y-82.5
X125.5Y-85.0
T2
X135.0Y-87.5
X137.5Y-87.5
X144.5Y-78.0
X147.0Y-78.0
X135.0Y-78.0
X137.5Y-78.0
X144.5Y-87.5
X147.0Y-87.5
T3
X104.96Y-55.94
X104.96Y-58.48
X104.96Y-61.02
X104.96Y-63.56
X104.96Y-66.1
X104.96Y-68.64
X104.96Y-71.18
X104.96Y-73.72
X104.96Y-76.26
X104.96Y-78.8
X104.96Y-81.34
X104.96Y-83.88
X104.96Y-86.42
X104.96Y-88.96
X104.96Y-91.5
X107.5Y-55.94
X107.5Y-58.48
X107.5Y-61.02
X107.5Y-63.56
X107.5Y-66.1
X107.5Y-68.64
X107.5Y-71.18
X107.5Y-73.72
X107.5Y-76.26
X107.5Y-78.8
X107.5Y-81.34
X107.5Y-83.88
X107.5Y-86.42
X107.5Y-88.96
X107.5Y-91.5
T4
X113.54Y-52.5
X117.5Y-52.5
T5
X115.6Y-92.9
X115.6Y-59.7
T0
M30
