G04 #@! TF.GenerationSoftware,KiCad,Pcbnew,(5.1.4-0-10_14)*
G04 #@! TF.CreationDate,2019-10-10T19:21:02+03:00*
G04 #@! TF.ProjectId,Transfer_Board,5472616e-7366-4657-925f-426f6172642e,rev?*
G04 #@! TF.SameCoordinates,Original*
G04 #@! TF.FileFunction,Copper,L1,Top*
G04 #@! TF.FilePolarity,Positive*
%FSLAX46Y46*%
G04 Gerber Fmt 4.6, Leading zero omitted, Abs format (unit mm)*
G04 Created by KiCad (PCBNEW (5.1.4-0-10_14)) date 2019-10-10 19:21:02*
%MOMM*%
%LPD*%
G04 APERTURE LIST*
%ADD10C,5.000000*%
%ADD11O,1.700000X2.000000*%
%ADD12C,0.100000*%
%ADD13C,1.700000*%
%ADD14O,1.727200X1.727200*%
%ADD15C,1.727200*%
%ADD16O,1.700000X1.950000*%
%ADD17O,1.950000X1.700000*%
%ADD18C,2.700000*%
%ADD19C,0.300000*%
%ADD20C,0.254000*%
G04 APERTURE END LIST*
D10*
X115600000Y-92900000D03*
X115600000Y-59700000D03*
D11*
X135000000Y-87500000D03*
D12*
G36*
X138124504Y-86501204D02*
G01*
X138148773Y-86504804D01*
X138172571Y-86510765D01*
X138195671Y-86519030D01*
X138217849Y-86529520D01*
X138238893Y-86542133D01*
X138258598Y-86556747D01*
X138276777Y-86573223D01*
X138293253Y-86591402D01*
X138307867Y-86611107D01*
X138320480Y-86632151D01*
X138330970Y-86654329D01*
X138339235Y-86677429D01*
X138345196Y-86701227D01*
X138348796Y-86725496D01*
X138350000Y-86750000D01*
X138350000Y-88250000D01*
X138348796Y-88274504D01*
X138345196Y-88298773D01*
X138339235Y-88322571D01*
X138330970Y-88345671D01*
X138320480Y-88367849D01*
X138307867Y-88388893D01*
X138293253Y-88408598D01*
X138276777Y-88426777D01*
X138258598Y-88443253D01*
X138238893Y-88457867D01*
X138217849Y-88470480D01*
X138195671Y-88480970D01*
X138172571Y-88489235D01*
X138148773Y-88495196D01*
X138124504Y-88498796D01*
X138100000Y-88500000D01*
X136900000Y-88500000D01*
X136875496Y-88498796D01*
X136851227Y-88495196D01*
X136827429Y-88489235D01*
X136804329Y-88480970D01*
X136782151Y-88470480D01*
X136761107Y-88457867D01*
X136741402Y-88443253D01*
X136723223Y-88426777D01*
X136706747Y-88408598D01*
X136692133Y-88388893D01*
X136679520Y-88367849D01*
X136669030Y-88345671D01*
X136660765Y-88322571D01*
X136654804Y-88298773D01*
X136651204Y-88274504D01*
X136650000Y-88250000D01*
X136650000Y-86750000D01*
X136651204Y-86725496D01*
X136654804Y-86701227D01*
X136660765Y-86677429D01*
X136669030Y-86654329D01*
X136679520Y-86632151D01*
X136692133Y-86611107D01*
X136706747Y-86591402D01*
X136723223Y-86573223D01*
X136741402Y-86556747D01*
X136761107Y-86542133D01*
X136782151Y-86529520D01*
X136804329Y-86519030D01*
X136827429Y-86510765D01*
X136851227Y-86504804D01*
X136875496Y-86501204D01*
X136900000Y-86500000D01*
X138100000Y-86500000D01*
X138124504Y-86501204D01*
X138124504Y-86501204D01*
G37*
D13*
X137500000Y-87500000D03*
D11*
X144500000Y-87500000D03*
D12*
G36*
X147624504Y-86501204D02*
G01*
X147648773Y-86504804D01*
X147672571Y-86510765D01*
X147695671Y-86519030D01*
X147717849Y-86529520D01*
X147738893Y-86542133D01*
X147758598Y-86556747D01*
X147776777Y-86573223D01*
X147793253Y-86591402D01*
X147807867Y-86611107D01*
X147820480Y-86632151D01*
X147830970Y-86654329D01*
X147839235Y-86677429D01*
X147845196Y-86701227D01*
X147848796Y-86725496D01*
X147850000Y-86750000D01*
X147850000Y-88250000D01*
X147848796Y-88274504D01*
X147845196Y-88298773D01*
X147839235Y-88322571D01*
X147830970Y-88345671D01*
X147820480Y-88367849D01*
X147807867Y-88388893D01*
X147793253Y-88408598D01*
X147776777Y-88426777D01*
X147758598Y-88443253D01*
X147738893Y-88457867D01*
X147717849Y-88470480D01*
X147695671Y-88480970D01*
X147672571Y-88489235D01*
X147648773Y-88495196D01*
X147624504Y-88498796D01*
X147600000Y-88500000D01*
X146400000Y-88500000D01*
X146375496Y-88498796D01*
X146351227Y-88495196D01*
X146327429Y-88489235D01*
X146304329Y-88480970D01*
X146282151Y-88470480D01*
X146261107Y-88457867D01*
X146241402Y-88443253D01*
X146223223Y-88426777D01*
X146206747Y-88408598D01*
X146192133Y-88388893D01*
X146179520Y-88367849D01*
X146169030Y-88345671D01*
X146160765Y-88322571D01*
X146154804Y-88298773D01*
X146151204Y-88274504D01*
X146150000Y-88250000D01*
X146150000Y-86750000D01*
X146151204Y-86725496D01*
X146154804Y-86701227D01*
X146160765Y-86677429D01*
X146169030Y-86654329D01*
X146179520Y-86632151D01*
X146192133Y-86611107D01*
X146206747Y-86591402D01*
X146223223Y-86573223D01*
X146241402Y-86556747D01*
X146261107Y-86542133D01*
X146282151Y-86529520D01*
X146304329Y-86519030D01*
X146327429Y-86510765D01*
X146351227Y-86504804D01*
X146375496Y-86501204D01*
X146400000Y-86500000D01*
X147600000Y-86500000D01*
X147624504Y-86501204D01*
X147624504Y-86501204D01*
G37*
D13*
X147000000Y-87500000D03*
D14*
X104960000Y-55940000D03*
X107500000Y-55940000D03*
X104960000Y-58480000D03*
X107500000Y-58480000D03*
X104960000Y-61020000D03*
X107500000Y-61020000D03*
X104960000Y-63560000D03*
X107500000Y-63560000D03*
X104960000Y-66100000D03*
X107500000Y-66100000D03*
X104960000Y-68640000D03*
X107500000Y-68640000D03*
X104960000Y-71180000D03*
X107500000Y-71180000D03*
X104960000Y-73720000D03*
X107500000Y-73720000D03*
X104960000Y-76260000D03*
X107500000Y-76260000D03*
X104960000Y-78800000D03*
X107500000Y-78800000D03*
X104960000Y-81340000D03*
X107500000Y-81340000D03*
X104960000Y-83880000D03*
X107500000Y-83880000D03*
X104960000Y-86420000D03*
X107500000Y-86420000D03*
X104960000Y-88960000D03*
X107500000Y-88960000D03*
X104960000Y-91500000D03*
D15*
X107500000Y-91500000D03*
D11*
X135000000Y-78000000D03*
D12*
G36*
X138124504Y-77001204D02*
G01*
X138148773Y-77004804D01*
X138172571Y-77010765D01*
X138195671Y-77019030D01*
X138217849Y-77029520D01*
X138238893Y-77042133D01*
X138258598Y-77056747D01*
X138276777Y-77073223D01*
X138293253Y-77091402D01*
X138307867Y-77111107D01*
X138320480Y-77132151D01*
X138330970Y-77154329D01*
X138339235Y-77177429D01*
X138345196Y-77201227D01*
X138348796Y-77225496D01*
X138350000Y-77250000D01*
X138350000Y-78750000D01*
X138348796Y-78774504D01*
X138345196Y-78798773D01*
X138339235Y-78822571D01*
X138330970Y-78845671D01*
X138320480Y-78867849D01*
X138307867Y-78888893D01*
X138293253Y-78908598D01*
X138276777Y-78926777D01*
X138258598Y-78943253D01*
X138238893Y-78957867D01*
X138217849Y-78970480D01*
X138195671Y-78980970D01*
X138172571Y-78989235D01*
X138148773Y-78995196D01*
X138124504Y-78998796D01*
X138100000Y-79000000D01*
X136900000Y-79000000D01*
X136875496Y-78998796D01*
X136851227Y-78995196D01*
X136827429Y-78989235D01*
X136804329Y-78980970D01*
X136782151Y-78970480D01*
X136761107Y-78957867D01*
X136741402Y-78943253D01*
X136723223Y-78926777D01*
X136706747Y-78908598D01*
X136692133Y-78888893D01*
X136679520Y-78867849D01*
X136669030Y-78845671D01*
X136660765Y-78822571D01*
X136654804Y-78798773D01*
X136651204Y-78774504D01*
X136650000Y-78750000D01*
X136650000Y-77250000D01*
X136651204Y-77225496D01*
X136654804Y-77201227D01*
X136660765Y-77177429D01*
X136669030Y-77154329D01*
X136679520Y-77132151D01*
X136692133Y-77111107D01*
X136706747Y-77091402D01*
X136723223Y-77073223D01*
X136741402Y-77056747D01*
X136761107Y-77042133D01*
X136782151Y-77029520D01*
X136804329Y-77019030D01*
X136827429Y-77010765D01*
X136851227Y-77004804D01*
X136875496Y-77001204D01*
X136900000Y-77000000D01*
X138100000Y-77000000D01*
X138124504Y-77001204D01*
X138124504Y-77001204D01*
G37*
D13*
X137500000Y-78000000D03*
D16*
X134000000Y-50000000D03*
X131500000Y-50000000D03*
X129000000Y-50000000D03*
X126500000Y-50000000D03*
X134000000Y-57500000D03*
X131500000Y-57500000D03*
X129000000Y-57500000D03*
X126500000Y-57500000D03*
D17*
X125500000Y-96500000D03*
X125500000Y-94000000D03*
D12*
G36*
X126249504Y-90651204D02*
G01*
X126273773Y-90654804D01*
X126297571Y-90660765D01*
X126320671Y-90669030D01*
X126342849Y-90679520D01*
X126363893Y-90692133D01*
X126383598Y-90706747D01*
X126401777Y-90723223D01*
X126418253Y-90741402D01*
X126432867Y-90761107D01*
X126445480Y-90782151D01*
X126455970Y-90804329D01*
X126464235Y-90827429D01*
X126470196Y-90851227D01*
X126473796Y-90875496D01*
X126475000Y-90900000D01*
X126475000Y-92100000D01*
X126473796Y-92124504D01*
X126470196Y-92148773D01*
X126464235Y-92172571D01*
X126455970Y-92195671D01*
X126445480Y-92217849D01*
X126432867Y-92238893D01*
X126418253Y-92258598D01*
X126401777Y-92276777D01*
X126383598Y-92293253D01*
X126363893Y-92307867D01*
X126342849Y-92320480D01*
X126320671Y-92330970D01*
X126297571Y-92339235D01*
X126273773Y-92345196D01*
X126249504Y-92348796D01*
X126225000Y-92350000D01*
X124775000Y-92350000D01*
X124750496Y-92348796D01*
X124726227Y-92345196D01*
X124702429Y-92339235D01*
X124679329Y-92330970D01*
X124657151Y-92320480D01*
X124636107Y-92307867D01*
X124616402Y-92293253D01*
X124598223Y-92276777D01*
X124581747Y-92258598D01*
X124567133Y-92238893D01*
X124554520Y-92217849D01*
X124544030Y-92195671D01*
X124535765Y-92172571D01*
X124529804Y-92148773D01*
X124526204Y-92124504D01*
X124525000Y-92100000D01*
X124525000Y-90900000D01*
X124526204Y-90875496D01*
X124529804Y-90851227D01*
X124535765Y-90827429D01*
X124544030Y-90804329D01*
X124554520Y-90782151D01*
X124567133Y-90761107D01*
X124581747Y-90741402D01*
X124598223Y-90723223D01*
X124616402Y-90706747D01*
X124636107Y-90692133D01*
X124657151Y-90679520D01*
X124679329Y-90669030D01*
X124702429Y-90660765D01*
X124726227Y-90654804D01*
X124750496Y-90651204D01*
X124775000Y-90650000D01*
X126225000Y-90650000D01*
X126249504Y-90651204D01*
X126249504Y-90651204D01*
G37*
D13*
X125500000Y-91500000D03*
D11*
X144500000Y-78000000D03*
D12*
G36*
X147624504Y-77001204D02*
G01*
X147648773Y-77004804D01*
X147672571Y-77010765D01*
X147695671Y-77019030D01*
X147717849Y-77029520D01*
X147738893Y-77042133D01*
X147758598Y-77056747D01*
X147776777Y-77073223D01*
X147793253Y-77091402D01*
X147807867Y-77111107D01*
X147820480Y-77132151D01*
X147830970Y-77154329D01*
X147839235Y-77177429D01*
X147845196Y-77201227D01*
X147848796Y-77225496D01*
X147850000Y-77250000D01*
X147850000Y-78750000D01*
X147848796Y-78774504D01*
X147845196Y-78798773D01*
X147839235Y-78822571D01*
X147830970Y-78845671D01*
X147820480Y-78867849D01*
X147807867Y-78888893D01*
X147793253Y-78908598D01*
X147776777Y-78926777D01*
X147758598Y-78943253D01*
X147738893Y-78957867D01*
X147717849Y-78970480D01*
X147695671Y-78980970D01*
X147672571Y-78989235D01*
X147648773Y-78995196D01*
X147624504Y-78998796D01*
X147600000Y-79000000D01*
X146400000Y-79000000D01*
X146375496Y-78998796D01*
X146351227Y-78995196D01*
X146327429Y-78989235D01*
X146304329Y-78980970D01*
X146282151Y-78970480D01*
X146261107Y-78957867D01*
X146241402Y-78943253D01*
X146223223Y-78926777D01*
X146206747Y-78908598D01*
X146192133Y-78888893D01*
X146179520Y-78867849D01*
X146169030Y-78845671D01*
X146160765Y-78822571D01*
X146154804Y-78798773D01*
X146151204Y-78774504D01*
X146150000Y-78750000D01*
X146150000Y-77250000D01*
X146151204Y-77225496D01*
X146154804Y-77201227D01*
X146160765Y-77177429D01*
X146169030Y-77154329D01*
X146179520Y-77132151D01*
X146192133Y-77111107D01*
X146206747Y-77091402D01*
X146223223Y-77073223D01*
X146241402Y-77056747D01*
X146261107Y-77042133D01*
X146282151Y-77029520D01*
X146304329Y-77019030D01*
X146327429Y-77010765D01*
X146351227Y-77004804D01*
X146375496Y-77001204D01*
X146400000Y-77000000D01*
X147600000Y-77000000D01*
X147624504Y-77001204D01*
X147624504Y-77001204D01*
G37*
D13*
X147000000Y-78000000D03*
D18*
X113540000Y-52500000D03*
D12*
G36*
X118624503Y-51151204D02*
G01*
X118648772Y-51154804D01*
X118672570Y-51160765D01*
X118695670Y-51169030D01*
X118717849Y-51179520D01*
X118738892Y-51192133D01*
X118758598Y-51206748D01*
X118776776Y-51223224D01*
X118793252Y-51241402D01*
X118807867Y-51261108D01*
X118820480Y-51282151D01*
X118830970Y-51304330D01*
X118839235Y-51327430D01*
X118845196Y-51351228D01*
X118848796Y-51375497D01*
X118850000Y-51400001D01*
X118850000Y-53599999D01*
X118848796Y-53624503D01*
X118845196Y-53648772D01*
X118839235Y-53672570D01*
X118830970Y-53695670D01*
X118820480Y-53717849D01*
X118807867Y-53738892D01*
X118793252Y-53758598D01*
X118776776Y-53776776D01*
X118758598Y-53793252D01*
X118738892Y-53807867D01*
X118717849Y-53820480D01*
X118695670Y-53830970D01*
X118672570Y-53839235D01*
X118648772Y-53845196D01*
X118624503Y-53848796D01*
X118599999Y-53850000D01*
X116400001Y-53850000D01*
X116375497Y-53848796D01*
X116351228Y-53845196D01*
X116327430Y-53839235D01*
X116304330Y-53830970D01*
X116282151Y-53820480D01*
X116261108Y-53807867D01*
X116241402Y-53793252D01*
X116223224Y-53776776D01*
X116206748Y-53758598D01*
X116192133Y-53738892D01*
X116179520Y-53717849D01*
X116169030Y-53695670D01*
X116160765Y-53672570D01*
X116154804Y-53648772D01*
X116151204Y-53624503D01*
X116150000Y-53599999D01*
X116150000Y-51400001D01*
X116151204Y-51375497D01*
X116154804Y-51351228D01*
X116160765Y-51327430D01*
X116169030Y-51304330D01*
X116179520Y-51282151D01*
X116192133Y-51261108D01*
X116206748Y-51241402D01*
X116223224Y-51223224D01*
X116241402Y-51206748D01*
X116261108Y-51192133D01*
X116282151Y-51179520D01*
X116304330Y-51169030D01*
X116327430Y-51160765D01*
X116351228Y-51154804D01*
X116375497Y-51151204D01*
X116400001Y-51150000D01*
X118599999Y-51150000D01*
X118624503Y-51151204D01*
X118624503Y-51151204D01*
G37*
D18*
X117500000Y-52500000D03*
D17*
X125500000Y-85000000D03*
X125500000Y-82500000D03*
D12*
G36*
X126249504Y-79151204D02*
G01*
X126273773Y-79154804D01*
X126297571Y-79160765D01*
X126320671Y-79169030D01*
X126342849Y-79179520D01*
X126363893Y-79192133D01*
X126383598Y-79206747D01*
X126401777Y-79223223D01*
X126418253Y-79241402D01*
X126432867Y-79261107D01*
X126445480Y-79282151D01*
X126455970Y-79304329D01*
X126464235Y-79327429D01*
X126470196Y-79351227D01*
X126473796Y-79375496D01*
X126475000Y-79400000D01*
X126475000Y-80600000D01*
X126473796Y-80624504D01*
X126470196Y-80648773D01*
X126464235Y-80672571D01*
X126455970Y-80695671D01*
X126445480Y-80717849D01*
X126432867Y-80738893D01*
X126418253Y-80758598D01*
X126401777Y-80776777D01*
X126383598Y-80793253D01*
X126363893Y-80807867D01*
X126342849Y-80820480D01*
X126320671Y-80830970D01*
X126297571Y-80839235D01*
X126273773Y-80845196D01*
X126249504Y-80848796D01*
X126225000Y-80850000D01*
X124775000Y-80850000D01*
X124750496Y-80848796D01*
X124726227Y-80845196D01*
X124702429Y-80839235D01*
X124679329Y-80830970D01*
X124657151Y-80820480D01*
X124636107Y-80807867D01*
X124616402Y-80793253D01*
X124598223Y-80776777D01*
X124581747Y-80758598D01*
X124567133Y-80738893D01*
X124554520Y-80717849D01*
X124544030Y-80695671D01*
X124535765Y-80672571D01*
X124529804Y-80648773D01*
X124526204Y-80624504D01*
X124525000Y-80600000D01*
X124525000Y-79400000D01*
X124526204Y-79375496D01*
X124529804Y-79351227D01*
X124535765Y-79327429D01*
X124544030Y-79304329D01*
X124554520Y-79282151D01*
X124567133Y-79261107D01*
X124581747Y-79241402D01*
X124598223Y-79223223D01*
X124616402Y-79206747D01*
X124636107Y-79192133D01*
X124657151Y-79179520D01*
X124679329Y-79169030D01*
X124702429Y-79160765D01*
X124726227Y-79154804D01*
X124750496Y-79151204D01*
X124775000Y-79150000D01*
X126225000Y-79150000D01*
X126249504Y-79151204D01*
X126249504Y-79151204D01*
G37*
D13*
X125500000Y-80000000D03*
D16*
X134000000Y-68000000D03*
X131500000Y-68000000D03*
X129000000Y-68000000D03*
D12*
G36*
X127124504Y-67026204D02*
G01*
X127148773Y-67029804D01*
X127172571Y-67035765D01*
X127195671Y-67044030D01*
X127217849Y-67054520D01*
X127238893Y-67067133D01*
X127258598Y-67081747D01*
X127276777Y-67098223D01*
X127293253Y-67116402D01*
X127307867Y-67136107D01*
X127320480Y-67157151D01*
X127330970Y-67179329D01*
X127339235Y-67202429D01*
X127345196Y-67226227D01*
X127348796Y-67250496D01*
X127350000Y-67275000D01*
X127350000Y-68725000D01*
X127348796Y-68749504D01*
X127345196Y-68773773D01*
X127339235Y-68797571D01*
X127330970Y-68820671D01*
X127320480Y-68842849D01*
X127307867Y-68863893D01*
X127293253Y-68883598D01*
X127276777Y-68901777D01*
X127258598Y-68918253D01*
X127238893Y-68932867D01*
X127217849Y-68945480D01*
X127195671Y-68955970D01*
X127172571Y-68964235D01*
X127148773Y-68970196D01*
X127124504Y-68973796D01*
X127100000Y-68975000D01*
X125900000Y-68975000D01*
X125875496Y-68973796D01*
X125851227Y-68970196D01*
X125827429Y-68964235D01*
X125804329Y-68955970D01*
X125782151Y-68945480D01*
X125761107Y-68932867D01*
X125741402Y-68918253D01*
X125723223Y-68901777D01*
X125706747Y-68883598D01*
X125692133Y-68863893D01*
X125679520Y-68842849D01*
X125669030Y-68820671D01*
X125660765Y-68797571D01*
X125654804Y-68773773D01*
X125651204Y-68749504D01*
X125650000Y-68725000D01*
X125650000Y-67275000D01*
X125651204Y-67250496D01*
X125654804Y-67226227D01*
X125660765Y-67202429D01*
X125669030Y-67179329D01*
X125679520Y-67157151D01*
X125692133Y-67136107D01*
X125706747Y-67116402D01*
X125723223Y-67098223D01*
X125741402Y-67081747D01*
X125761107Y-67067133D01*
X125782151Y-67054520D01*
X125804329Y-67044030D01*
X125827429Y-67035765D01*
X125851227Y-67029804D01*
X125875496Y-67026204D01*
X125900000Y-67025000D01*
X127100000Y-67025000D01*
X127124504Y-67026204D01*
X127124504Y-67026204D01*
G37*
D13*
X126500000Y-68000000D03*
D19*
X134000000Y-68125000D02*
X134000000Y-68000000D01*
X131625000Y-70500000D02*
X134000000Y-68125000D01*
X108363599Y-75396401D02*
X110103599Y-75396401D01*
X115000000Y-70500000D02*
X131625000Y-70500000D01*
X110103599Y-75396401D02*
X115000000Y-70500000D01*
X107500000Y-76260000D02*
X108363599Y-75396401D01*
X129000000Y-68125000D02*
X129000000Y-68000000D01*
X107500000Y-73720000D02*
X111072878Y-73720000D01*
X111072878Y-73720000D02*
X114792888Y-69999990D01*
X114792888Y-69999990D02*
X127125010Y-69999990D01*
X127125010Y-69999990D02*
X129000000Y-68125000D01*
X147000000Y-86400000D02*
X145600000Y-85000000D01*
X147000000Y-87500000D02*
X147000000Y-86400000D01*
X140000000Y-85000000D02*
X137500000Y-87500000D01*
X145600000Y-85000000D02*
X140000000Y-85000000D01*
X112500000Y-80000000D02*
X110000000Y-77500000D01*
X110000000Y-77500000D02*
X106260000Y-77500000D01*
X125500000Y-80000000D02*
X112500000Y-80000000D01*
X106260000Y-77500000D02*
X104960000Y-78800000D01*
X136594447Y-86594447D02*
X137500000Y-87500000D01*
X130898372Y-80898372D02*
X136594447Y-86594447D01*
X126398372Y-80898372D02*
X130898372Y-80898372D01*
X125500000Y-80000000D02*
X126398372Y-80898372D01*
X113500000Y-96500000D02*
X125500000Y-96500000D01*
X110000000Y-88500000D02*
X110000000Y-93000000D01*
X109133601Y-87633601D02*
X110000000Y-88500000D01*
X110000000Y-93000000D02*
X113500000Y-96500000D01*
X106173601Y-87633601D02*
X109133601Y-87633601D01*
X104960000Y-86420000D02*
X106173601Y-87633601D01*
X134000000Y-57625000D02*
X134000000Y-57500000D01*
X131625000Y-60000000D02*
X134000000Y-57625000D01*
X110820000Y-71180000D02*
X122000000Y-60000000D01*
X122000000Y-60000000D02*
X131625000Y-60000000D01*
X107500000Y-71180000D02*
X110820000Y-71180000D01*
X108363599Y-67776401D02*
X113223599Y-67776401D01*
X107500000Y-68640000D02*
X108363599Y-67776401D01*
X113223599Y-67776401D02*
X121500000Y-59500000D01*
X129000000Y-57625000D02*
X129000000Y-57500000D01*
X127125000Y-59500000D02*
X129000000Y-57625000D01*
X121500000Y-59500000D02*
X127125000Y-59500000D01*
X131000000Y-53000000D02*
X134000000Y-50000000D01*
X124500000Y-53000000D02*
X131000000Y-53000000D01*
X122500000Y-55000000D02*
X124500000Y-53000000D01*
X113000000Y-55000000D02*
X122500000Y-55000000D01*
X110500000Y-57500000D02*
X113000000Y-55000000D01*
X110500000Y-63100000D02*
X110500000Y-57500000D01*
X107500000Y-66100000D02*
X110500000Y-63100000D01*
X107500000Y-63560000D02*
X110000000Y-61060000D01*
X110000000Y-61060000D02*
X110000000Y-57000000D01*
X110000000Y-57000000D02*
X112500000Y-54500000D01*
X112500000Y-54500000D02*
X122000000Y-54500000D01*
X122000000Y-54500000D02*
X124000000Y-52500000D01*
X124000000Y-52500000D02*
X126500000Y-52500000D01*
X126500000Y-52500000D02*
X129000000Y-50000000D01*
X107500000Y-78800000D02*
X116200000Y-87500000D01*
X116200000Y-87500000D02*
X135000000Y-87500000D01*
X141000000Y-87500000D02*
X144500000Y-87500000D01*
X139000000Y-89500000D02*
X141000000Y-87500000D01*
X108920000Y-86420000D02*
X112000000Y-89500000D01*
X112000000Y-89500000D02*
X139000000Y-89500000D01*
X107500000Y-86420000D02*
X108920000Y-86420000D01*
D20*
G36*
X135259659Y-47688625D02*
G01*
X135509429Y-47764035D01*
X135739792Y-47886522D01*
X135941980Y-48051422D01*
X136108286Y-48252450D01*
X136232378Y-48481954D01*
X136309531Y-48731195D01*
X136340001Y-49021098D01*
X136340000Y-71032418D01*
X136342852Y-71061372D01*
X136342765Y-71073781D01*
X136343665Y-71082952D01*
X136384466Y-71471145D01*
X136396487Y-71529708D01*
X136407702Y-71588501D01*
X136410366Y-71597323D01*
X136525790Y-71970198D01*
X136548975Y-72025353D01*
X136571379Y-72080806D01*
X136575706Y-72088943D01*
X136761357Y-72432298D01*
X136794780Y-72481849D01*
X136827562Y-72531946D01*
X136833387Y-72539087D01*
X137082194Y-72839841D01*
X137124629Y-72881981D01*
X137166492Y-72924730D01*
X137173592Y-72930604D01*
X137476077Y-73177305D01*
X137525904Y-73210409D01*
X137575259Y-73244204D01*
X137583365Y-73248587D01*
X137928007Y-73431837D01*
X137983311Y-73454631D01*
X138038295Y-73478198D01*
X138047098Y-73480923D01*
X138420770Y-73593741D01*
X138479458Y-73605361D01*
X138537961Y-73617797D01*
X138547126Y-73618760D01*
X138935595Y-73656850D01*
X138935598Y-73656850D01*
X138967581Y-73660000D01*
X148967721Y-73660000D01*
X149259659Y-73688625D01*
X149509429Y-73764035D01*
X149739792Y-73886522D01*
X149941980Y-74051422D01*
X150108286Y-74252450D01*
X150232378Y-74481954D01*
X150309531Y-74731195D01*
X150340001Y-75021098D01*
X150340000Y-97967721D01*
X150311375Y-98259660D01*
X150235965Y-98509429D01*
X150113477Y-98739794D01*
X149948579Y-98941979D01*
X149747546Y-99108288D01*
X149518046Y-99232378D01*
X149268805Y-99309531D01*
X148978911Y-99340000D01*
X102032279Y-99340000D01*
X101740340Y-99311375D01*
X101490571Y-99235965D01*
X101260206Y-99113477D01*
X101058021Y-98948579D01*
X100891712Y-98747546D01*
X100767622Y-98518046D01*
X100690469Y-98268805D01*
X100660000Y-97978911D01*
X100660000Y-55940000D01*
X103454149Y-55940000D01*
X103483084Y-56233777D01*
X103568775Y-56516264D01*
X103707931Y-56776606D01*
X103895203Y-57004797D01*
X104123394Y-57192069D01*
X104156940Y-57210000D01*
X104123394Y-57227931D01*
X103895203Y-57415203D01*
X103707931Y-57643394D01*
X103568775Y-57903736D01*
X103483084Y-58186223D01*
X103454149Y-58480000D01*
X103483084Y-58773777D01*
X103568775Y-59056264D01*
X103707931Y-59316606D01*
X103895203Y-59544797D01*
X104123394Y-59732069D01*
X104156940Y-59750000D01*
X104123394Y-59767931D01*
X103895203Y-59955203D01*
X103707931Y-60183394D01*
X103568775Y-60443736D01*
X103483084Y-60726223D01*
X103454149Y-61020000D01*
X103483084Y-61313777D01*
X103568775Y-61596264D01*
X103707931Y-61856606D01*
X103895203Y-62084797D01*
X104123394Y-62272069D01*
X104156940Y-62290000D01*
X104123394Y-62307931D01*
X103895203Y-62495203D01*
X103707931Y-62723394D01*
X103568775Y-62983736D01*
X103483084Y-63266223D01*
X103454149Y-63560000D01*
X103483084Y-63853777D01*
X103568775Y-64136264D01*
X103707931Y-64396606D01*
X103895203Y-64624797D01*
X104123394Y-64812069D01*
X104156940Y-64830000D01*
X104123394Y-64847931D01*
X103895203Y-65035203D01*
X103707931Y-65263394D01*
X103568775Y-65523736D01*
X103483084Y-65806223D01*
X103454149Y-66100000D01*
X103483084Y-66393777D01*
X103568775Y-66676264D01*
X103707931Y-66936606D01*
X103895203Y-67164797D01*
X104123394Y-67352069D01*
X104156940Y-67370000D01*
X104123394Y-67387931D01*
X103895203Y-67575203D01*
X103707931Y-67803394D01*
X103568775Y-68063736D01*
X103483084Y-68346223D01*
X103454149Y-68640000D01*
X103483084Y-68933777D01*
X103568775Y-69216264D01*
X103707931Y-69476606D01*
X103895203Y-69704797D01*
X104123394Y-69892069D01*
X104156940Y-69910000D01*
X104123394Y-69927931D01*
X103895203Y-70115203D01*
X103707931Y-70343394D01*
X103568775Y-70603736D01*
X103483084Y-70886223D01*
X103454149Y-71180000D01*
X103483084Y-71473777D01*
X103568775Y-71756264D01*
X103707931Y-72016606D01*
X103895203Y-72244797D01*
X104123394Y-72432069D01*
X104156940Y-72450000D01*
X104123394Y-72467931D01*
X103895203Y-72655203D01*
X103707931Y-72883394D01*
X103568775Y-73143736D01*
X103483084Y-73426223D01*
X103454149Y-73720000D01*
X103483084Y-74013777D01*
X103568775Y-74296264D01*
X103707931Y-74556606D01*
X103895203Y-74784797D01*
X104123394Y-74972069D01*
X104156940Y-74990000D01*
X104123394Y-75007931D01*
X103895203Y-75195203D01*
X103707931Y-75423394D01*
X103568775Y-75683736D01*
X103483084Y-75966223D01*
X103454149Y-76260000D01*
X103483084Y-76553777D01*
X103568775Y-76836264D01*
X103707931Y-77096606D01*
X103895203Y-77324797D01*
X104123394Y-77512069D01*
X104156940Y-77530000D01*
X104123394Y-77547931D01*
X103895203Y-77735203D01*
X103707931Y-77963394D01*
X103568775Y-78223736D01*
X103483084Y-78506223D01*
X103454149Y-78800000D01*
X103483084Y-79093777D01*
X103568775Y-79376264D01*
X103707931Y-79636606D01*
X103895203Y-79864797D01*
X104123394Y-80052069D01*
X104156940Y-80070000D01*
X104123394Y-80087931D01*
X103895203Y-80275203D01*
X103707931Y-80503394D01*
X103568775Y-80763736D01*
X103483084Y-81046223D01*
X103454149Y-81340000D01*
X103483084Y-81633777D01*
X103568775Y-81916264D01*
X103707931Y-82176606D01*
X103895203Y-82404797D01*
X104123394Y-82592069D01*
X104156940Y-82610000D01*
X104123394Y-82627931D01*
X103895203Y-82815203D01*
X103707931Y-83043394D01*
X103568775Y-83303736D01*
X103483084Y-83586223D01*
X103454149Y-83880000D01*
X103483084Y-84173777D01*
X103568775Y-84456264D01*
X103707931Y-84716606D01*
X103895203Y-84944797D01*
X104123394Y-85132069D01*
X104156940Y-85150000D01*
X104123394Y-85167931D01*
X103895203Y-85355203D01*
X103707931Y-85583394D01*
X103568775Y-85843736D01*
X103483084Y-86126223D01*
X103454149Y-86420000D01*
X103483084Y-86713777D01*
X103568775Y-86996264D01*
X103707931Y-87256606D01*
X103895203Y-87484797D01*
X104123394Y-87672069D01*
X104156940Y-87690000D01*
X104123394Y-87707931D01*
X103895203Y-87895203D01*
X103707931Y-88123394D01*
X103568775Y-88383736D01*
X103483084Y-88666223D01*
X103454149Y-88960000D01*
X103483084Y-89253777D01*
X103568775Y-89536264D01*
X103707931Y-89796606D01*
X103895203Y-90024797D01*
X104123394Y-90212069D01*
X104156940Y-90230000D01*
X104123394Y-90247931D01*
X103895203Y-90435203D01*
X103707931Y-90663394D01*
X103568775Y-90923736D01*
X103483084Y-91206223D01*
X103454149Y-91500000D01*
X103483084Y-91793777D01*
X103568775Y-92076264D01*
X103707931Y-92336606D01*
X103895203Y-92564797D01*
X104123394Y-92752069D01*
X104383736Y-92891225D01*
X104666223Y-92976916D01*
X104886381Y-92998600D01*
X105033619Y-92998600D01*
X105253777Y-92976916D01*
X105536264Y-92891225D01*
X105796606Y-92752069D01*
X106024797Y-92564797D01*
X106212069Y-92336606D01*
X106231883Y-92299537D01*
X106335961Y-92455302D01*
X106544698Y-92664039D01*
X106790147Y-92828042D01*
X107062875Y-92941010D01*
X107352401Y-92998600D01*
X107647599Y-92998600D01*
X107937125Y-92941010D01*
X108209853Y-92828042D01*
X108455302Y-92664039D01*
X108664039Y-92455302D01*
X108828042Y-92209853D01*
X108941010Y-91937125D01*
X108998600Y-91647599D01*
X108998600Y-91352401D01*
X108941010Y-91062875D01*
X108828042Y-90790147D01*
X108664039Y-90544698D01*
X108455302Y-90335961D01*
X108299537Y-90231883D01*
X108336606Y-90212069D01*
X108564797Y-90024797D01*
X108752069Y-89796606D01*
X108891225Y-89536264D01*
X108976916Y-89253777D01*
X109005851Y-88960000D01*
X108976916Y-88666223D01*
X108942452Y-88552609D01*
X109215000Y-88825158D01*
X109215001Y-92961437D01*
X109211203Y-93000000D01*
X109226359Y-93153886D01*
X109271246Y-93301859D01*
X109271247Y-93301860D01*
X109344139Y-93438233D01*
X109384690Y-93487644D01*
X109417655Y-93527812D01*
X109417659Y-93527816D01*
X109442237Y-93557764D01*
X109472185Y-93582342D01*
X112917658Y-97027816D01*
X112942236Y-97057764D01*
X112972184Y-97082342D01*
X112972187Y-97082345D01*
X113001559Y-97106450D01*
X113061767Y-97155862D01*
X113198140Y-97228754D01*
X113311672Y-97263194D01*
X113346112Y-97273641D01*
X113360490Y-97275057D01*
X113461439Y-97285000D01*
X113461446Y-97285000D01*
X113499999Y-97288797D01*
X113538552Y-97285000D01*
X124110768Y-97285000D01*
X124134294Y-97329014D01*
X124319866Y-97555134D01*
X124545986Y-97740706D01*
X124803966Y-97878599D01*
X125083889Y-97963513D01*
X125302050Y-97985000D01*
X125697950Y-97985000D01*
X125916111Y-97963513D01*
X126196034Y-97878599D01*
X126454014Y-97740706D01*
X126680134Y-97555134D01*
X126865706Y-97329014D01*
X127003599Y-97071034D01*
X127088513Y-96791111D01*
X127117185Y-96500000D01*
X127088513Y-96208889D01*
X127003599Y-95928966D01*
X126865706Y-95670986D01*
X126680134Y-95444866D01*
X126454014Y-95259294D01*
X126436626Y-95250000D01*
X126454014Y-95240706D01*
X126680134Y-95055134D01*
X126865706Y-94829014D01*
X127003599Y-94571034D01*
X127088513Y-94291111D01*
X127117185Y-94000000D01*
X127088513Y-93708889D01*
X127003599Y-93428966D01*
X126865706Y-93170986D01*
X126680134Y-92944866D01*
X126616663Y-92892777D01*
X126718386Y-92838405D01*
X126852962Y-92727962D01*
X126963405Y-92593386D01*
X127045472Y-92439850D01*
X127096008Y-92273254D01*
X127113072Y-92100000D01*
X127113072Y-90900000D01*
X127096008Y-90726746D01*
X127045472Y-90560150D01*
X126963405Y-90406614D01*
X126863600Y-90285000D01*
X138961447Y-90285000D01*
X139000000Y-90288797D01*
X139038553Y-90285000D01*
X139038561Y-90285000D01*
X139153887Y-90273641D01*
X139301860Y-90228754D01*
X139438233Y-90155862D01*
X139557764Y-90057764D01*
X139582347Y-90027810D01*
X141325158Y-88285000D01*
X143155592Y-88285000D01*
X143259294Y-88479013D01*
X143444866Y-88705134D01*
X143670986Y-88890706D01*
X143928966Y-89028599D01*
X144208889Y-89113513D01*
X144500000Y-89142185D01*
X144791110Y-89113513D01*
X145071033Y-89028599D01*
X145329013Y-88890706D01*
X145555134Y-88705134D01*
X145607223Y-88641663D01*
X145661595Y-88743386D01*
X145772038Y-88877962D01*
X145906614Y-88988405D01*
X146060150Y-89070472D01*
X146226746Y-89121008D01*
X146400000Y-89138072D01*
X147600000Y-89138072D01*
X147773254Y-89121008D01*
X147939850Y-89070472D01*
X148093386Y-88988405D01*
X148227962Y-88877962D01*
X148338405Y-88743386D01*
X148420472Y-88589850D01*
X148471008Y-88423254D01*
X148488072Y-88250000D01*
X148488072Y-86750000D01*
X148471008Y-86576746D01*
X148420472Y-86410150D01*
X148338405Y-86256614D01*
X148227962Y-86122038D01*
X148093386Y-86011595D01*
X147939850Y-85929528D01*
X147773254Y-85878992D01*
X147600000Y-85861928D01*
X147573925Y-85861928D01*
X147557764Y-85842236D01*
X147527816Y-85817658D01*
X146182347Y-84472190D01*
X146157764Y-84442236D01*
X146038233Y-84344138D01*
X145901860Y-84271246D01*
X145753887Y-84226359D01*
X145638561Y-84215000D01*
X145638553Y-84215000D01*
X145600000Y-84211203D01*
X145561447Y-84215000D01*
X140038556Y-84215000D01*
X140000000Y-84211203D01*
X139961444Y-84215000D01*
X139961439Y-84215000D01*
X139921026Y-84218980D01*
X139846113Y-84226358D01*
X139698140Y-84271246D01*
X139561767Y-84344138D01*
X139501559Y-84393550D01*
X139472187Y-84417655D01*
X139472184Y-84417658D01*
X139442236Y-84442236D01*
X139417658Y-84472184D01*
X138027915Y-85861928D01*
X136972085Y-85861928D01*
X131480717Y-80370560D01*
X131456136Y-80340608D01*
X131336605Y-80242510D01*
X131200232Y-80169618D01*
X131052259Y-80124731D01*
X130936933Y-80113372D01*
X130936925Y-80113372D01*
X130898372Y-80109575D01*
X130859819Y-80113372D01*
X127113072Y-80113372D01*
X127113072Y-79400000D01*
X127096008Y-79226746D01*
X127045472Y-79060150D01*
X126963405Y-78906614D01*
X126852962Y-78772038D01*
X126718386Y-78661595D01*
X126564850Y-78579528D01*
X126398254Y-78528992D01*
X126225000Y-78511928D01*
X124775000Y-78511928D01*
X124601746Y-78528992D01*
X124435150Y-78579528D01*
X124281614Y-78661595D01*
X124147038Y-78772038D01*
X124036595Y-78906614D01*
X123954528Y-79060150D01*
X123907555Y-79215000D01*
X112825158Y-79215000D01*
X111387208Y-77777050D01*
X133515000Y-77777050D01*
X133515000Y-78222949D01*
X133536487Y-78441110D01*
X133621401Y-78721033D01*
X133759294Y-78979013D01*
X133944866Y-79205134D01*
X134170986Y-79390706D01*
X134428966Y-79528599D01*
X134708889Y-79613513D01*
X135000000Y-79642185D01*
X135291110Y-79613513D01*
X135571033Y-79528599D01*
X135829013Y-79390706D01*
X136055134Y-79205134D01*
X136107223Y-79141663D01*
X136161595Y-79243386D01*
X136272038Y-79377962D01*
X136406614Y-79488405D01*
X136560150Y-79570472D01*
X136726746Y-79621008D01*
X136900000Y-79638072D01*
X138100000Y-79638072D01*
X138273254Y-79621008D01*
X138439850Y-79570472D01*
X138593386Y-79488405D01*
X138727962Y-79377962D01*
X138838405Y-79243386D01*
X138920472Y-79089850D01*
X138971008Y-78923254D01*
X138988072Y-78750000D01*
X138988072Y-77777050D01*
X143015000Y-77777050D01*
X143015000Y-78222949D01*
X143036487Y-78441110D01*
X143121401Y-78721033D01*
X143259294Y-78979013D01*
X143444866Y-79205134D01*
X143670986Y-79390706D01*
X143928966Y-79528599D01*
X144208889Y-79613513D01*
X144500000Y-79642185D01*
X144791110Y-79613513D01*
X145071033Y-79528599D01*
X145329013Y-79390706D01*
X145555134Y-79205134D01*
X145607223Y-79141663D01*
X145661595Y-79243386D01*
X145772038Y-79377962D01*
X145906614Y-79488405D01*
X146060150Y-79570472D01*
X146226746Y-79621008D01*
X146400000Y-79638072D01*
X147600000Y-79638072D01*
X147773254Y-79621008D01*
X147939850Y-79570472D01*
X148093386Y-79488405D01*
X148227962Y-79377962D01*
X148338405Y-79243386D01*
X148420472Y-79089850D01*
X148471008Y-78923254D01*
X148488072Y-78750000D01*
X148488072Y-77250000D01*
X148471008Y-77076746D01*
X148420472Y-76910150D01*
X148338405Y-76756614D01*
X148227962Y-76622038D01*
X148093386Y-76511595D01*
X147939850Y-76429528D01*
X147773254Y-76378992D01*
X147600000Y-76361928D01*
X146400000Y-76361928D01*
X146226746Y-76378992D01*
X146060150Y-76429528D01*
X145906614Y-76511595D01*
X145772038Y-76622038D01*
X145661595Y-76756614D01*
X145607223Y-76858337D01*
X145555134Y-76794866D01*
X145329014Y-76609294D01*
X145071034Y-76471401D01*
X144791111Y-76386487D01*
X144500000Y-76357815D01*
X144208890Y-76386487D01*
X143928967Y-76471401D01*
X143670987Y-76609294D01*
X143444866Y-76794866D01*
X143259294Y-77020986D01*
X143121401Y-77278966D01*
X143036487Y-77558889D01*
X143015000Y-77777050D01*
X138988072Y-77777050D01*
X138988072Y-77250000D01*
X138971008Y-77076746D01*
X138920472Y-76910150D01*
X138838405Y-76756614D01*
X138727962Y-76622038D01*
X138593386Y-76511595D01*
X138439850Y-76429528D01*
X138273254Y-76378992D01*
X138100000Y-76361928D01*
X136900000Y-76361928D01*
X136726746Y-76378992D01*
X136560150Y-76429528D01*
X136406614Y-76511595D01*
X136272038Y-76622038D01*
X136161595Y-76756614D01*
X136107223Y-76858337D01*
X136055134Y-76794866D01*
X135829014Y-76609294D01*
X135571034Y-76471401D01*
X135291111Y-76386487D01*
X135000000Y-76357815D01*
X134708890Y-76386487D01*
X134428967Y-76471401D01*
X134170987Y-76609294D01*
X133944866Y-76794866D01*
X133759294Y-77020986D01*
X133621401Y-77278966D01*
X133536487Y-77558889D01*
X133515000Y-77777050D01*
X111387208Y-77777050D01*
X110582347Y-76972190D01*
X110557764Y-76942236D01*
X110438233Y-76844138D01*
X110301860Y-76771246D01*
X110153887Y-76726359D01*
X110038561Y-76715000D01*
X110038553Y-76715000D01*
X110000000Y-76711203D01*
X109961447Y-76715000D01*
X108928010Y-76715000D01*
X108976916Y-76553777D01*
X109005851Y-76260000D01*
X108998110Y-76181401D01*
X110065046Y-76181401D01*
X110103599Y-76185198D01*
X110142152Y-76181401D01*
X110142160Y-76181401D01*
X110257486Y-76170042D01*
X110405459Y-76125155D01*
X110541832Y-76052263D01*
X110661363Y-75954165D01*
X110685946Y-75924211D01*
X115325157Y-71285000D01*
X131586447Y-71285000D01*
X131625000Y-71288797D01*
X131663553Y-71285000D01*
X131663561Y-71285000D01*
X131778887Y-71273641D01*
X131926860Y-71228754D01*
X132063233Y-71155862D01*
X132182764Y-71057764D01*
X132207347Y-71027810D01*
X133661132Y-69574026D01*
X133708890Y-69588513D01*
X134000000Y-69617185D01*
X134291111Y-69588513D01*
X134571034Y-69503599D01*
X134829014Y-69365706D01*
X135055134Y-69180134D01*
X135240706Y-68954014D01*
X135378599Y-68696033D01*
X135463513Y-68416110D01*
X135485000Y-68197949D01*
X135485000Y-67802050D01*
X135463513Y-67583889D01*
X135378599Y-67303966D01*
X135240706Y-67045986D01*
X135055134Y-66819866D01*
X134829013Y-66634294D01*
X134571033Y-66496401D01*
X134291110Y-66411487D01*
X134000000Y-66382815D01*
X133708889Y-66411487D01*
X133428966Y-66496401D01*
X133170986Y-66634294D01*
X132944866Y-66819866D01*
X132759294Y-67045987D01*
X132750000Y-67063374D01*
X132740706Y-67045986D01*
X132555134Y-66819866D01*
X132329013Y-66634294D01*
X132071033Y-66496401D01*
X131791110Y-66411487D01*
X131500000Y-66382815D01*
X131208889Y-66411487D01*
X130928966Y-66496401D01*
X130670986Y-66634294D01*
X130444866Y-66819866D01*
X130259294Y-67045987D01*
X130250000Y-67063374D01*
X130240706Y-67045986D01*
X130055134Y-66819866D01*
X129829013Y-66634294D01*
X129571033Y-66496401D01*
X129291110Y-66411487D01*
X129000000Y-66382815D01*
X128708889Y-66411487D01*
X128428966Y-66496401D01*
X128170986Y-66634294D01*
X127944866Y-66819866D01*
X127892777Y-66883337D01*
X127838405Y-66781614D01*
X127727962Y-66647038D01*
X127593386Y-66536595D01*
X127439850Y-66454528D01*
X127273254Y-66403992D01*
X127100000Y-66386928D01*
X125900000Y-66386928D01*
X125726746Y-66403992D01*
X125560150Y-66454528D01*
X125406614Y-66536595D01*
X125272038Y-66647038D01*
X125161595Y-66781614D01*
X125079528Y-66935150D01*
X125028992Y-67101746D01*
X125011928Y-67275000D01*
X125011928Y-68725000D01*
X125028992Y-68898254D01*
X125079528Y-69064850D01*
X125159780Y-69214990D01*
X114831444Y-69214990D01*
X114792888Y-69211193D01*
X114754332Y-69214990D01*
X114754327Y-69214990D01*
X114713914Y-69218970D01*
X114639001Y-69226348D01*
X114491028Y-69271236D01*
X114354655Y-69344128D01*
X114235124Y-69442226D01*
X114210543Y-69472178D01*
X110747721Y-72935000D01*
X108779653Y-72935000D01*
X108752069Y-72883394D01*
X108564797Y-72655203D01*
X108336606Y-72467931D01*
X108303060Y-72450000D01*
X108336606Y-72432069D01*
X108564797Y-72244797D01*
X108752069Y-72016606D01*
X108779653Y-71965000D01*
X110781447Y-71965000D01*
X110820000Y-71968797D01*
X110858553Y-71965000D01*
X110858561Y-71965000D01*
X110973887Y-71953641D01*
X111121860Y-71908754D01*
X111258233Y-71835862D01*
X111377764Y-71737764D01*
X111402347Y-71707810D01*
X122325157Y-60785000D01*
X131586447Y-60785000D01*
X131625000Y-60788797D01*
X131663553Y-60785000D01*
X131663561Y-60785000D01*
X131778887Y-60773641D01*
X131926860Y-60728754D01*
X132063233Y-60655862D01*
X132182764Y-60557764D01*
X132207347Y-60527810D01*
X133661132Y-59074026D01*
X133708890Y-59088513D01*
X134000000Y-59117185D01*
X134291111Y-59088513D01*
X134571034Y-59003599D01*
X134829014Y-58865706D01*
X135055134Y-58680134D01*
X135240706Y-58454014D01*
X135378599Y-58196033D01*
X135463513Y-57916110D01*
X135485000Y-57697949D01*
X135485000Y-57302050D01*
X135463513Y-57083889D01*
X135378599Y-56803966D01*
X135240706Y-56545986D01*
X135055134Y-56319866D01*
X134829013Y-56134294D01*
X134571033Y-55996401D01*
X134291110Y-55911487D01*
X134000000Y-55882815D01*
X133708889Y-55911487D01*
X133428966Y-55996401D01*
X133170986Y-56134294D01*
X132944866Y-56319866D01*
X132759294Y-56545987D01*
X132750000Y-56563374D01*
X132740706Y-56545986D01*
X132555134Y-56319866D01*
X132329013Y-56134294D01*
X132071033Y-55996401D01*
X131791110Y-55911487D01*
X131500000Y-55882815D01*
X131208889Y-55911487D01*
X130928966Y-55996401D01*
X130670986Y-56134294D01*
X130444866Y-56319866D01*
X130259294Y-56545987D01*
X130250000Y-56563374D01*
X130240706Y-56545986D01*
X130055134Y-56319866D01*
X129829013Y-56134294D01*
X129571033Y-55996401D01*
X129291110Y-55911487D01*
X129000000Y-55882815D01*
X128708889Y-55911487D01*
X128428966Y-55996401D01*
X128170986Y-56134294D01*
X127944866Y-56319866D01*
X127759294Y-56545987D01*
X127750000Y-56563374D01*
X127740706Y-56545986D01*
X127555134Y-56319866D01*
X127329013Y-56134294D01*
X127071033Y-55996401D01*
X126791110Y-55911487D01*
X126500000Y-55882815D01*
X126208889Y-55911487D01*
X125928966Y-55996401D01*
X125670986Y-56134294D01*
X125444866Y-56319866D01*
X125259294Y-56545987D01*
X125121401Y-56803967D01*
X125036487Y-57083890D01*
X125015000Y-57302051D01*
X125015000Y-57697950D01*
X125036487Y-57916111D01*
X125121401Y-58196034D01*
X125259294Y-58454014D01*
X125444866Y-58680134D01*
X125487351Y-58715000D01*
X121538556Y-58715000D01*
X121500000Y-58711203D01*
X121461444Y-58715000D01*
X121461439Y-58715000D01*
X121421026Y-58718980D01*
X121346113Y-58726358D01*
X121198140Y-58771246D01*
X121061767Y-58844138D01*
X120942236Y-58942236D01*
X120917655Y-58972188D01*
X112898442Y-66991401D01*
X108707100Y-66991401D01*
X108752069Y-66936606D01*
X108891225Y-66676264D01*
X108976916Y-66393777D01*
X109005851Y-66100000D01*
X108976916Y-65806223D01*
X108959930Y-65750227D01*
X111027811Y-63682346D01*
X111057764Y-63657764D01*
X111155862Y-63538233D01*
X111228754Y-63401860D01*
X111228754Y-63401859D01*
X111273642Y-63253887D01*
X111281020Y-63178974D01*
X111285000Y-63138561D01*
X111285000Y-63138556D01*
X111288797Y-63100000D01*
X111285000Y-63061444D01*
X111285000Y-59391229D01*
X112465000Y-59391229D01*
X112465000Y-60008771D01*
X112585476Y-60614446D01*
X112821799Y-61184979D01*
X113164886Y-61698446D01*
X113601554Y-62135114D01*
X114115021Y-62478201D01*
X114685554Y-62714524D01*
X115291229Y-62835000D01*
X115908771Y-62835000D01*
X116514446Y-62714524D01*
X117084979Y-62478201D01*
X117598446Y-62135114D01*
X118035114Y-61698446D01*
X118378201Y-61184979D01*
X118614524Y-60614446D01*
X118735000Y-60008771D01*
X118735000Y-59391229D01*
X118614524Y-58785554D01*
X118378201Y-58215021D01*
X118035114Y-57701554D01*
X117598446Y-57264886D01*
X117084979Y-56921799D01*
X116514446Y-56685476D01*
X115908771Y-56565000D01*
X115291229Y-56565000D01*
X114685554Y-56685476D01*
X114115021Y-56921799D01*
X113601554Y-57264886D01*
X113164886Y-57701554D01*
X112821799Y-58215021D01*
X112585476Y-58785554D01*
X112465000Y-59391229D01*
X111285000Y-59391229D01*
X111285000Y-57825157D01*
X113325158Y-55785000D01*
X122461447Y-55785000D01*
X122500000Y-55788797D01*
X122538553Y-55785000D01*
X122538561Y-55785000D01*
X122653887Y-55773641D01*
X122801860Y-55728754D01*
X122938233Y-55655862D01*
X123057764Y-55557764D01*
X123082347Y-55527810D01*
X124825158Y-53785000D01*
X130961447Y-53785000D01*
X131000000Y-53788797D01*
X131038553Y-53785000D01*
X131038561Y-53785000D01*
X131153887Y-53773641D01*
X131301860Y-53728754D01*
X131438233Y-53655862D01*
X131557764Y-53557764D01*
X131582347Y-53527810D01*
X133565225Y-51544932D01*
X133708890Y-51588513D01*
X134000000Y-51617185D01*
X134291111Y-51588513D01*
X134571034Y-51503599D01*
X134829014Y-51365706D01*
X135055134Y-51180134D01*
X135240706Y-50954014D01*
X135378599Y-50696033D01*
X135463513Y-50416110D01*
X135485000Y-50197949D01*
X135485000Y-49802050D01*
X135463513Y-49583889D01*
X135378599Y-49303966D01*
X135240706Y-49045986D01*
X135055134Y-48819866D01*
X134829013Y-48634294D01*
X134571033Y-48496401D01*
X134291110Y-48411487D01*
X134000000Y-48382815D01*
X133708889Y-48411487D01*
X133428966Y-48496401D01*
X133170986Y-48634294D01*
X132944866Y-48819866D01*
X132759294Y-49045987D01*
X132750000Y-49063374D01*
X132740706Y-49045986D01*
X132555134Y-48819866D01*
X132329013Y-48634294D01*
X132071033Y-48496401D01*
X131791110Y-48411487D01*
X131500000Y-48382815D01*
X131208889Y-48411487D01*
X130928966Y-48496401D01*
X130670986Y-48634294D01*
X130444866Y-48819866D01*
X130259294Y-49045987D01*
X130250000Y-49063374D01*
X130240706Y-49045986D01*
X130055134Y-48819866D01*
X129829013Y-48634294D01*
X129571033Y-48496401D01*
X129291110Y-48411487D01*
X129000000Y-48382815D01*
X128708889Y-48411487D01*
X128428966Y-48496401D01*
X128170986Y-48634294D01*
X127944866Y-48819866D01*
X127759294Y-49045987D01*
X127750000Y-49063374D01*
X127740706Y-49045986D01*
X127555134Y-48819866D01*
X127329013Y-48634294D01*
X127071033Y-48496401D01*
X126791110Y-48411487D01*
X126500000Y-48382815D01*
X126208889Y-48411487D01*
X125928966Y-48496401D01*
X125670986Y-48634294D01*
X125444866Y-48819866D01*
X125259294Y-49045987D01*
X125121401Y-49303967D01*
X125036487Y-49583890D01*
X125015000Y-49802051D01*
X125015000Y-50197950D01*
X125036487Y-50416111D01*
X125121401Y-50696034D01*
X125259294Y-50954014D01*
X125444866Y-51180134D01*
X125670987Y-51365706D01*
X125928967Y-51503599D01*
X126208890Y-51588513D01*
X126293042Y-51596801D01*
X126174843Y-51715000D01*
X124038552Y-51715000D01*
X123999999Y-51711203D01*
X123961446Y-51715000D01*
X123961439Y-51715000D01*
X123860490Y-51724943D01*
X123846112Y-51726359D01*
X123698140Y-51771246D01*
X123561767Y-51844138D01*
X123501559Y-51893550D01*
X123472187Y-51917655D01*
X123472184Y-51917658D01*
X123442236Y-51942236D01*
X123417658Y-51972184D01*
X121674843Y-53715000D01*
X119476745Y-53715000D01*
X119488072Y-53599999D01*
X119488072Y-51400001D01*
X119471008Y-51226747D01*
X119420471Y-51060150D01*
X119338405Y-50906614D01*
X119227961Y-50772039D01*
X119093386Y-50661595D01*
X118939850Y-50579529D01*
X118773253Y-50528992D01*
X118599999Y-50511928D01*
X116400001Y-50511928D01*
X116226747Y-50528992D01*
X116060150Y-50579529D01*
X115906614Y-50661595D01*
X115772039Y-50772039D01*
X115661595Y-50906614D01*
X115579529Y-51060150D01*
X115528992Y-51226747D01*
X115511928Y-51400001D01*
X115511928Y-52238777D01*
X115448718Y-51920997D01*
X115299085Y-51559750D01*
X115081851Y-51234636D01*
X114805364Y-50958149D01*
X114480250Y-50740915D01*
X114119003Y-50591282D01*
X113735505Y-50515000D01*
X113344495Y-50515000D01*
X112960997Y-50591282D01*
X112599750Y-50740915D01*
X112274636Y-50958149D01*
X111998149Y-51234636D01*
X111780915Y-51559750D01*
X111631282Y-51920997D01*
X111555000Y-52304495D01*
X111555000Y-52695505D01*
X111631282Y-53079003D01*
X111780915Y-53440250D01*
X111998149Y-53765364D01*
X112071644Y-53838859D01*
X112061767Y-53844138D01*
X112001559Y-53893550D01*
X111972187Y-53917655D01*
X111972184Y-53917658D01*
X111942236Y-53942236D01*
X111917658Y-53972184D01*
X109472185Y-56417658D01*
X109442237Y-56442236D01*
X109417659Y-56472184D01*
X109417655Y-56472188D01*
X109384690Y-56512356D01*
X109344139Y-56561767D01*
X109342411Y-56565000D01*
X109271246Y-56698141D01*
X109226359Y-56846114D01*
X109211203Y-57000000D01*
X109215001Y-57038563D01*
X109215000Y-60734842D01*
X108999036Y-60950806D01*
X108976916Y-60726223D01*
X108891225Y-60443736D01*
X108752069Y-60183394D01*
X108564797Y-59955203D01*
X108336606Y-59767931D01*
X108303060Y-59750000D01*
X108336606Y-59732069D01*
X108564797Y-59544797D01*
X108752069Y-59316606D01*
X108891225Y-59056264D01*
X108976916Y-58773777D01*
X109005851Y-58480000D01*
X108976916Y-58186223D01*
X108891225Y-57903736D01*
X108752069Y-57643394D01*
X108564797Y-57415203D01*
X108336606Y-57227931D01*
X108303060Y-57210000D01*
X108336606Y-57192069D01*
X108564797Y-57004797D01*
X108752069Y-56776606D01*
X108891225Y-56516264D01*
X108976916Y-56233777D01*
X109005851Y-55940000D01*
X108976916Y-55646223D01*
X108891225Y-55363736D01*
X108752069Y-55103394D01*
X108564797Y-54875203D01*
X108336606Y-54687931D01*
X108076264Y-54548775D01*
X107793777Y-54463084D01*
X107573619Y-54441400D01*
X107426381Y-54441400D01*
X107206223Y-54463084D01*
X106923736Y-54548775D01*
X106663394Y-54687931D01*
X106435203Y-54875203D01*
X106247931Y-55103394D01*
X106230000Y-55136940D01*
X106212069Y-55103394D01*
X106024797Y-54875203D01*
X105796606Y-54687931D01*
X105536264Y-54548775D01*
X105253777Y-54463084D01*
X105033619Y-54441400D01*
X104886381Y-54441400D01*
X104666223Y-54463084D01*
X104383736Y-54548775D01*
X104123394Y-54687931D01*
X103895203Y-54875203D01*
X103707931Y-55103394D01*
X103568775Y-55363736D01*
X103483084Y-55646223D01*
X103454149Y-55940000D01*
X100660000Y-55940000D01*
X100660000Y-49032279D01*
X100688625Y-48740341D01*
X100764035Y-48490571D01*
X100886522Y-48260208D01*
X101051422Y-48058020D01*
X101252450Y-47891714D01*
X101481954Y-47767622D01*
X101731195Y-47690469D01*
X102021088Y-47660000D01*
X134967721Y-47660000D01*
X135259659Y-47688625D01*
X135259659Y-47688625D01*
G37*
X135259659Y-47688625D02*
X135509429Y-47764035D01*
X135739792Y-47886522D01*
X135941980Y-48051422D01*
X136108286Y-48252450D01*
X136232378Y-48481954D01*
X136309531Y-48731195D01*
X136340001Y-49021098D01*
X136340000Y-71032418D01*
X136342852Y-71061372D01*
X136342765Y-71073781D01*
X136343665Y-71082952D01*
X136384466Y-71471145D01*
X136396487Y-71529708D01*
X136407702Y-71588501D01*
X136410366Y-71597323D01*
X136525790Y-71970198D01*
X136548975Y-72025353D01*
X136571379Y-72080806D01*
X136575706Y-72088943D01*
X136761357Y-72432298D01*
X136794780Y-72481849D01*
X136827562Y-72531946D01*
X136833387Y-72539087D01*
X137082194Y-72839841D01*
X137124629Y-72881981D01*
X137166492Y-72924730D01*
X137173592Y-72930604D01*
X137476077Y-73177305D01*
X137525904Y-73210409D01*
X137575259Y-73244204D01*
X137583365Y-73248587D01*
X137928007Y-73431837D01*
X137983311Y-73454631D01*
X138038295Y-73478198D01*
X138047098Y-73480923D01*
X138420770Y-73593741D01*
X138479458Y-73605361D01*
X138537961Y-73617797D01*
X138547126Y-73618760D01*
X138935595Y-73656850D01*
X138935598Y-73656850D01*
X138967581Y-73660000D01*
X148967721Y-73660000D01*
X149259659Y-73688625D01*
X149509429Y-73764035D01*
X149739792Y-73886522D01*
X149941980Y-74051422D01*
X150108286Y-74252450D01*
X150232378Y-74481954D01*
X150309531Y-74731195D01*
X150340001Y-75021098D01*
X150340000Y-97967721D01*
X150311375Y-98259660D01*
X150235965Y-98509429D01*
X150113477Y-98739794D01*
X149948579Y-98941979D01*
X149747546Y-99108288D01*
X149518046Y-99232378D01*
X149268805Y-99309531D01*
X148978911Y-99340000D01*
X102032279Y-99340000D01*
X101740340Y-99311375D01*
X101490571Y-99235965D01*
X101260206Y-99113477D01*
X101058021Y-98948579D01*
X100891712Y-98747546D01*
X100767622Y-98518046D01*
X100690469Y-98268805D01*
X100660000Y-97978911D01*
X100660000Y-55940000D01*
X103454149Y-55940000D01*
X103483084Y-56233777D01*
X103568775Y-56516264D01*
X103707931Y-56776606D01*
X103895203Y-57004797D01*
X104123394Y-57192069D01*
X104156940Y-57210000D01*
X104123394Y-57227931D01*
X103895203Y-57415203D01*
X103707931Y-57643394D01*
X103568775Y-57903736D01*
X103483084Y-58186223D01*
X103454149Y-58480000D01*
X103483084Y-58773777D01*
X103568775Y-59056264D01*
X103707931Y-59316606D01*
X103895203Y-59544797D01*
X104123394Y-59732069D01*
X104156940Y-59750000D01*
X104123394Y-59767931D01*
X103895203Y-59955203D01*
X103707931Y-60183394D01*
X103568775Y-60443736D01*
X103483084Y-60726223D01*
X103454149Y-61020000D01*
X103483084Y-61313777D01*
X103568775Y-61596264D01*
X103707931Y-61856606D01*
X103895203Y-62084797D01*
X104123394Y-62272069D01*
X104156940Y-62290000D01*
X104123394Y-62307931D01*
X103895203Y-62495203D01*
X103707931Y-62723394D01*
X103568775Y-62983736D01*
X103483084Y-63266223D01*
X103454149Y-63560000D01*
X103483084Y-63853777D01*
X103568775Y-64136264D01*
X103707931Y-64396606D01*
X103895203Y-64624797D01*
X104123394Y-64812069D01*
X104156940Y-64830000D01*
X104123394Y-64847931D01*
X103895203Y-65035203D01*
X103707931Y-65263394D01*
X103568775Y-65523736D01*
X103483084Y-65806223D01*
X103454149Y-66100000D01*
X103483084Y-66393777D01*
X103568775Y-66676264D01*
X103707931Y-66936606D01*
X103895203Y-67164797D01*
X104123394Y-67352069D01*
X104156940Y-67370000D01*
X104123394Y-67387931D01*
X103895203Y-67575203D01*
X103707931Y-67803394D01*
X103568775Y-68063736D01*
X103483084Y-68346223D01*
X103454149Y-68640000D01*
X103483084Y-68933777D01*
X103568775Y-69216264D01*
X103707931Y-69476606D01*
X103895203Y-69704797D01*
X104123394Y-69892069D01*
X104156940Y-69910000D01*
X104123394Y-69927931D01*
X103895203Y-70115203D01*
X103707931Y-70343394D01*
X103568775Y-70603736D01*
X103483084Y-70886223D01*
X103454149Y-71180000D01*
X103483084Y-71473777D01*
X103568775Y-71756264D01*
X103707931Y-72016606D01*
X103895203Y-72244797D01*
X104123394Y-72432069D01*
X104156940Y-72450000D01*
X104123394Y-72467931D01*
X103895203Y-72655203D01*
X103707931Y-72883394D01*
X103568775Y-73143736D01*
X103483084Y-73426223D01*
X103454149Y-73720000D01*
X103483084Y-74013777D01*
X103568775Y-74296264D01*
X103707931Y-74556606D01*
X103895203Y-74784797D01*
X104123394Y-74972069D01*
X104156940Y-74990000D01*
X104123394Y-75007931D01*
X103895203Y-75195203D01*
X103707931Y-75423394D01*
X103568775Y-75683736D01*
X103483084Y-75966223D01*
X103454149Y-76260000D01*
X103483084Y-76553777D01*
X103568775Y-76836264D01*
X103707931Y-77096606D01*
X103895203Y-77324797D01*
X104123394Y-77512069D01*
X104156940Y-77530000D01*
X104123394Y-77547931D01*
X103895203Y-77735203D01*
X103707931Y-77963394D01*
X103568775Y-78223736D01*
X103483084Y-78506223D01*
X103454149Y-78800000D01*
X103483084Y-79093777D01*
X103568775Y-79376264D01*
X103707931Y-79636606D01*
X103895203Y-79864797D01*
X104123394Y-80052069D01*
X104156940Y-80070000D01*
X104123394Y-80087931D01*
X103895203Y-80275203D01*
X103707931Y-80503394D01*
X103568775Y-80763736D01*
X103483084Y-81046223D01*
X103454149Y-81340000D01*
X103483084Y-81633777D01*
X103568775Y-81916264D01*
X103707931Y-82176606D01*
X103895203Y-82404797D01*
X104123394Y-82592069D01*
X104156940Y-82610000D01*
X104123394Y-82627931D01*
X103895203Y-82815203D01*
X103707931Y-83043394D01*
X103568775Y-83303736D01*
X103483084Y-83586223D01*
X103454149Y-83880000D01*
X103483084Y-84173777D01*
X103568775Y-84456264D01*
X103707931Y-84716606D01*
X103895203Y-84944797D01*
X104123394Y-85132069D01*
X104156940Y-85150000D01*
X104123394Y-85167931D01*
X103895203Y-85355203D01*
X103707931Y-85583394D01*
X103568775Y-85843736D01*
X103483084Y-86126223D01*
X103454149Y-86420000D01*
X103483084Y-86713777D01*
X103568775Y-86996264D01*
X103707931Y-87256606D01*
X103895203Y-87484797D01*
X104123394Y-87672069D01*
X104156940Y-87690000D01*
X104123394Y-87707931D01*
X103895203Y-87895203D01*
X103707931Y-88123394D01*
X103568775Y-88383736D01*
X103483084Y-88666223D01*
X103454149Y-88960000D01*
X103483084Y-89253777D01*
X103568775Y-89536264D01*
X103707931Y-89796606D01*
X103895203Y-90024797D01*
X104123394Y-90212069D01*
X104156940Y-90230000D01*
X104123394Y-90247931D01*
X103895203Y-90435203D01*
X103707931Y-90663394D01*
X103568775Y-90923736D01*
X103483084Y-91206223D01*
X103454149Y-91500000D01*
X103483084Y-91793777D01*
X103568775Y-92076264D01*
X103707931Y-92336606D01*
X103895203Y-92564797D01*
X104123394Y-92752069D01*
X104383736Y-92891225D01*
X104666223Y-92976916D01*
X104886381Y-92998600D01*
X105033619Y-92998600D01*
X105253777Y-92976916D01*
X105536264Y-92891225D01*
X105796606Y-92752069D01*
X106024797Y-92564797D01*
X106212069Y-92336606D01*
X106231883Y-92299537D01*
X106335961Y-92455302D01*
X106544698Y-92664039D01*
X106790147Y-92828042D01*
X107062875Y-92941010D01*
X107352401Y-92998600D01*
X107647599Y-92998600D01*
X107937125Y-92941010D01*
X108209853Y-92828042D01*
X108455302Y-92664039D01*
X108664039Y-92455302D01*
X108828042Y-92209853D01*
X108941010Y-91937125D01*
X108998600Y-91647599D01*
X108998600Y-91352401D01*
X108941010Y-91062875D01*
X108828042Y-90790147D01*
X108664039Y-90544698D01*
X108455302Y-90335961D01*
X108299537Y-90231883D01*
X108336606Y-90212069D01*
X108564797Y-90024797D01*
X108752069Y-89796606D01*
X108891225Y-89536264D01*
X108976916Y-89253777D01*
X109005851Y-88960000D01*
X108976916Y-88666223D01*
X108942452Y-88552609D01*
X109215000Y-88825158D01*
X109215001Y-92961437D01*
X109211203Y-93000000D01*
X109226359Y-93153886D01*
X109271246Y-93301859D01*
X109271247Y-93301860D01*
X109344139Y-93438233D01*
X109384690Y-93487644D01*
X109417655Y-93527812D01*
X109417659Y-93527816D01*
X109442237Y-93557764D01*
X109472185Y-93582342D01*
X112917658Y-97027816D01*
X112942236Y-97057764D01*
X112972184Y-97082342D01*
X112972187Y-97082345D01*
X113001559Y-97106450D01*
X113061767Y-97155862D01*
X113198140Y-97228754D01*
X113311672Y-97263194D01*
X113346112Y-97273641D01*
X113360490Y-97275057D01*
X113461439Y-97285000D01*
X113461446Y-97285000D01*
X113499999Y-97288797D01*
X113538552Y-97285000D01*
X124110768Y-97285000D01*
X124134294Y-97329014D01*
X124319866Y-97555134D01*
X124545986Y-97740706D01*
X124803966Y-97878599D01*
X125083889Y-97963513D01*
X125302050Y-97985000D01*
X125697950Y-97985000D01*
X125916111Y-97963513D01*
X126196034Y-97878599D01*
X126454014Y-97740706D01*
X126680134Y-97555134D01*
X126865706Y-97329014D01*
X127003599Y-97071034D01*
X127088513Y-96791111D01*
X127117185Y-96500000D01*
X127088513Y-96208889D01*
X127003599Y-95928966D01*
X126865706Y-95670986D01*
X126680134Y-95444866D01*
X126454014Y-95259294D01*
X126436626Y-95250000D01*
X126454014Y-95240706D01*
X126680134Y-95055134D01*
X126865706Y-94829014D01*
X127003599Y-94571034D01*
X127088513Y-94291111D01*
X127117185Y-94000000D01*
X127088513Y-93708889D01*
X127003599Y-93428966D01*
X126865706Y-93170986D01*
X126680134Y-92944866D01*
X126616663Y-92892777D01*
X126718386Y-92838405D01*
X126852962Y-92727962D01*
X126963405Y-92593386D01*
X127045472Y-92439850D01*
X127096008Y-92273254D01*
X127113072Y-92100000D01*
X127113072Y-90900000D01*
X127096008Y-90726746D01*
X127045472Y-90560150D01*
X126963405Y-90406614D01*
X126863600Y-90285000D01*
X138961447Y-90285000D01*
X139000000Y-90288797D01*
X139038553Y-90285000D01*
X139038561Y-90285000D01*
X139153887Y-90273641D01*
X139301860Y-90228754D01*
X139438233Y-90155862D01*
X139557764Y-90057764D01*
X139582347Y-90027810D01*
X141325158Y-88285000D01*
X143155592Y-88285000D01*
X143259294Y-88479013D01*
X143444866Y-88705134D01*
X143670986Y-88890706D01*
X143928966Y-89028599D01*
X144208889Y-89113513D01*
X144500000Y-89142185D01*
X144791110Y-89113513D01*
X145071033Y-89028599D01*
X145329013Y-88890706D01*
X145555134Y-88705134D01*
X145607223Y-88641663D01*
X145661595Y-88743386D01*
X145772038Y-88877962D01*
X145906614Y-88988405D01*
X146060150Y-89070472D01*
X146226746Y-89121008D01*
X146400000Y-89138072D01*
X147600000Y-89138072D01*
X147773254Y-89121008D01*
X147939850Y-89070472D01*
X148093386Y-88988405D01*
X148227962Y-88877962D01*
X148338405Y-88743386D01*
X148420472Y-88589850D01*
X148471008Y-88423254D01*
X148488072Y-88250000D01*
X148488072Y-86750000D01*
X148471008Y-86576746D01*
X148420472Y-86410150D01*
X148338405Y-86256614D01*
X148227962Y-86122038D01*
X148093386Y-86011595D01*
X147939850Y-85929528D01*
X147773254Y-85878992D01*
X147600000Y-85861928D01*
X147573925Y-85861928D01*
X147557764Y-85842236D01*
X147527816Y-85817658D01*
X146182347Y-84472190D01*
X146157764Y-84442236D01*
X146038233Y-84344138D01*
X145901860Y-84271246D01*
X145753887Y-84226359D01*
X145638561Y-84215000D01*
X145638553Y-84215000D01*
X145600000Y-84211203D01*
X145561447Y-84215000D01*
X140038556Y-84215000D01*
X140000000Y-84211203D01*
X139961444Y-84215000D01*
X139961439Y-84215000D01*
X139921026Y-84218980D01*
X139846113Y-84226358D01*
X139698140Y-84271246D01*
X139561767Y-84344138D01*
X139501559Y-84393550D01*
X139472187Y-84417655D01*
X139472184Y-84417658D01*
X139442236Y-84442236D01*
X139417658Y-84472184D01*
X138027915Y-85861928D01*
X136972085Y-85861928D01*
X131480717Y-80370560D01*
X131456136Y-80340608D01*
X131336605Y-80242510D01*
X131200232Y-80169618D01*
X131052259Y-80124731D01*
X130936933Y-80113372D01*
X130936925Y-80113372D01*
X130898372Y-80109575D01*
X130859819Y-80113372D01*
X127113072Y-80113372D01*
X127113072Y-79400000D01*
X127096008Y-79226746D01*
X127045472Y-79060150D01*
X126963405Y-78906614D01*
X126852962Y-78772038D01*
X126718386Y-78661595D01*
X126564850Y-78579528D01*
X126398254Y-78528992D01*
X126225000Y-78511928D01*
X124775000Y-78511928D01*
X124601746Y-78528992D01*
X124435150Y-78579528D01*
X124281614Y-78661595D01*
X124147038Y-78772038D01*
X124036595Y-78906614D01*
X123954528Y-79060150D01*
X123907555Y-79215000D01*
X112825158Y-79215000D01*
X111387208Y-77777050D01*
X133515000Y-77777050D01*
X133515000Y-78222949D01*
X133536487Y-78441110D01*
X133621401Y-78721033D01*
X133759294Y-78979013D01*
X133944866Y-79205134D01*
X134170986Y-79390706D01*
X134428966Y-79528599D01*
X134708889Y-79613513D01*
X135000000Y-79642185D01*
X135291110Y-79613513D01*
X135571033Y-79528599D01*
X135829013Y-79390706D01*
X136055134Y-79205134D01*
X136107223Y-79141663D01*
X136161595Y-79243386D01*
X136272038Y-79377962D01*
X136406614Y-79488405D01*
X136560150Y-79570472D01*
X136726746Y-79621008D01*
X136900000Y-79638072D01*
X138100000Y-79638072D01*
X138273254Y-79621008D01*
X138439850Y-79570472D01*
X138593386Y-79488405D01*
X138727962Y-79377962D01*
X138838405Y-79243386D01*
X138920472Y-79089850D01*
X138971008Y-78923254D01*
X138988072Y-78750000D01*
X138988072Y-77777050D01*
X143015000Y-77777050D01*
X143015000Y-78222949D01*
X143036487Y-78441110D01*
X143121401Y-78721033D01*
X143259294Y-78979013D01*
X143444866Y-79205134D01*
X143670986Y-79390706D01*
X143928966Y-79528599D01*
X144208889Y-79613513D01*
X144500000Y-79642185D01*
X144791110Y-79613513D01*
X145071033Y-79528599D01*
X145329013Y-79390706D01*
X145555134Y-79205134D01*
X145607223Y-79141663D01*
X145661595Y-79243386D01*
X145772038Y-79377962D01*
X145906614Y-79488405D01*
X146060150Y-79570472D01*
X146226746Y-79621008D01*
X146400000Y-79638072D01*
X147600000Y-79638072D01*
X147773254Y-79621008D01*
X147939850Y-79570472D01*
X148093386Y-79488405D01*
X148227962Y-79377962D01*
X148338405Y-79243386D01*
X148420472Y-79089850D01*
X148471008Y-78923254D01*
X148488072Y-78750000D01*
X148488072Y-77250000D01*
X148471008Y-77076746D01*
X148420472Y-76910150D01*
X148338405Y-76756614D01*
X148227962Y-76622038D01*
X148093386Y-76511595D01*
X147939850Y-76429528D01*
X147773254Y-76378992D01*
X147600000Y-76361928D01*
X146400000Y-76361928D01*
X146226746Y-76378992D01*
X146060150Y-76429528D01*
X145906614Y-76511595D01*
X145772038Y-76622038D01*
X145661595Y-76756614D01*
X145607223Y-76858337D01*
X145555134Y-76794866D01*
X145329014Y-76609294D01*
X145071034Y-76471401D01*
X144791111Y-76386487D01*
X144500000Y-76357815D01*
X144208890Y-76386487D01*
X143928967Y-76471401D01*
X143670987Y-76609294D01*
X143444866Y-76794866D01*
X143259294Y-77020986D01*
X143121401Y-77278966D01*
X143036487Y-77558889D01*
X143015000Y-77777050D01*
X138988072Y-77777050D01*
X138988072Y-77250000D01*
X138971008Y-77076746D01*
X138920472Y-76910150D01*
X138838405Y-76756614D01*
X138727962Y-76622038D01*
X138593386Y-76511595D01*
X138439850Y-76429528D01*
X138273254Y-76378992D01*
X138100000Y-76361928D01*
X136900000Y-76361928D01*
X136726746Y-76378992D01*
X136560150Y-76429528D01*
X136406614Y-76511595D01*
X136272038Y-76622038D01*
X136161595Y-76756614D01*
X136107223Y-76858337D01*
X136055134Y-76794866D01*
X135829014Y-76609294D01*
X135571034Y-76471401D01*
X135291111Y-76386487D01*
X135000000Y-76357815D01*
X134708890Y-76386487D01*
X134428967Y-76471401D01*
X134170987Y-76609294D01*
X133944866Y-76794866D01*
X133759294Y-77020986D01*
X133621401Y-77278966D01*
X133536487Y-77558889D01*
X133515000Y-77777050D01*
X111387208Y-77777050D01*
X110582347Y-76972190D01*
X110557764Y-76942236D01*
X110438233Y-76844138D01*
X110301860Y-76771246D01*
X110153887Y-76726359D01*
X110038561Y-76715000D01*
X110038553Y-76715000D01*
X110000000Y-76711203D01*
X109961447Y-76715000D01*
X108928010Y-76715000D01*
X108976916Y-76553777D01*
X109005851Y-76260000D01*
X108998110Y-76181401D01*
X110065046Y-76181401D01*
X110103599Y-76185198D01*
X110142152Y-76181401D01*
X110142160Y-76181401D01*
X110257486Y-76170042D01*
X110405459Y-76125155D01*
X110541832Y-76052263D01*
X110661363Y-75954165D01*
X110685946Y-75924211D01*
X115325157Y-71285000D01*
X131586447Y-71285000D01*
X131625000Y-71288797D01*
X131663553Y-71285000D01*
X131663561Y-71285000D01*
X131778887Y-71273641D01*
X131926860Y-71228754D01*
X132063233Y-71155862D01*
X132182764Y-71057764D01*
X132207347Y-71027810D01*
X133661132Y-69574026D01*
X133708890Y-69588513D01*
X134000000Y-69617185D01*
X134291111Y-69588513D01*
X134571034Y-69503599D01*
X134829014Y-69365706D01*
X135055134Y-69180134D01*
X135240706Y-68954014D01*
X135378599Y-68696033D01*
X135463513Y-68416110D01*
X135485000Y-68197949D01*
X135485000Y-67802050D01*
X135463513Y-67583889D01*
X135378599Y-67303966D01*
X135240706Y-67045986D01*
X135055134Y-66819866D01*
X134829013Y-66634294D01*
X134571033Y-66496401D01*
X134291110Y-66411487D01*
X134000000Y-66382815D01*
X133708889Y-66411487D01*
X133428966Y-66496401D01*
X133170986Y-66634294D01*
X132944866Y-66819866D01*
X132759294Y-67045987D01*
X132750000Y-67063374D01*
X132740706Y-67045986D01*
X132555134Y-66819866D01*
X132329013Y-66634294D01*
X132071033Y-66496401D01*
X131791110Y-66411487D01*
X131500000Y-66382815D01*
X131208889Y-66411487D01*
X130928966Y-66496401D01*
X130670986Y-66634294D01*
X130444866Y-66819866D01*
X130259294Y-67045987D01*
X130250000Y-67063374D01*
X130240706Y-67045986D01*
X130055134Y-66819866D01*
X129829013Y-66634294D01*
X129571033Y-66496401D01*
X129291110Y-66411487D01*
X129000000Y-66382815D01*
X128708889Y-66411487D01*
X128428966Y-66496401D01*
X128170986Y-66634294D01*
X127944866Y-66819866D01*
X127892777Y-66883337D01*
X127838405Y-66781614D01*
X127727962Y-66647038D01*
X127593386Y-66536595D01*
X127439850Y-66454528D01*
X127273254Y-66403992D01*
X127100000Y-66386928D01*
X125900000Y-66386928D01*
X125726746Y-66403992D01*
X125560150Y-66454528D01*
X125406614Y-66536595D01*
X125272038Y-66647038D01*
X125161595Y-66781614D01*
X125079528Y-66935150D01*
X125028992Y-67101746D01*
X125011928Y-67275000D01*
X125011928Y-68725000D01*
X125028992Y-68898254D01*
X125079528Y-69064850D01*
X125159780Y-69214990D01*
X114831444Y-69214990D01*
X114792888Y-69211193D01*
X114754332Y-69214990D01*
X114754327Y-69214990D01*
X114713914Y-69218970D01*
X114639001Y-69226348D01*
X114491028Y-69271236D01*
X114354655Y-69344128D01*
X114235124Y-69442226D01*
X114210543Y-69472178D01*
X110747721Y-72935000D01*
X108779653Y-72935000D01*
X108752069Y-72883394D01*
X108564797Y-72655203D01*
X108336606Y-72467931D01*
X108303060Y-72450000D01*
X108336606Y-72432069D01*
X108564797Y-72244797D01*
X108752069Y-72016606D01*
X108779653Y-71965000D01*
X110781447Y-71965000D01*
X110820000Y-71968797D01*
X110858553Y-71965000D01*
X110858561Y-71965000D01*
X110973887Y-71953641D01*
X111121860Y-71908754D01*
X111258233Y-71835862D01*
X111377764Y-71737764D01*
X111402347Y-71707810D01*
X122325157Y-60785000D01*
X131586447Y-60785000D01*
X131625000Y-60788797D01*
X131663553Y-60785000D01*
X131663561Y-60785000D01*
X131778887Y-60773641D01*
X131926860Y-60728754D01*
X132063233Y-60655862D01*
X132182764Y-60557764D01*
X132207347Y-60527810D01*
X133661132Y-59074026D01*
X133708890Y-59088513D01*
X134000000Y-59117185D01*
X134291111Y-59088513D01*
X134571034Y-59003599D01*
X134829014Y-58865706D01*
X135055134Y-58680134D01*
X135240706Y-58454014D01*
X135378599Y-58196033D01*
X135463513Y-57916110D01*
X135485000Y-57697949D01*
X135485000Y-57302050D01*
X135463513Y-57083889D01*
X135378599Y-56803966D01*
X135240706Y-56545986D01*
X135055134Y-56319866D01*
X134829013Y-56134294D01*
X134571033Y-55996401D01*
X134291110Y-55911487D01*
X134000000Y-55882815D01*
X133708889Y-55911487D01*
X133428966Y-55996401D01*
X133170986Y-56134294D01*
X132944866Y-56319866D01*
X132759294Y-56545987D01*
X132750000Y-56563374D01*
X132740706Y-56545986D01*
X132555134Y-56319866D01*
X132329013Y-56134294D01*
X132071033Y-55996401D01*
X131791110Y-55911487D01*
X131500000Y-55882815D01*
X131208889Y-55911487D01*
X130928966Y-55996401D01*
X130670986Y-56134294D01*
X130444866Y-56319866D01*
X130259294Y-56545987D01*
X130250000Y-56563374D01*
X130240706Y-56545986D01*
X130055134Y-56319866D01*
X129829013Y-56134294D01*
X129571033Y-55996401D01*
X129291110Y-55911487D01*
X129000000Y-55882815D01*
X128708889Y-55911487D01*
X128428966Y-55996401D01*
X128170986Y-56134294D01*
X127944866Y-56319866D01*
X127759294Y-56545987D01*
X127750000Y-56563374D01*
X127740706Y-56545986D01*
X127555134Y-56319866D01*
X127329013Y-56134294D01*
X127071033Y-55996401D01*
X126791110Y-55911487D01*
X126500000Y-55882815D01*
X126208889Y-55911487D01*
X125928966Y-55996401D01*
X125670986Y-56134294D01*
X125444866Y-56319866D01*
X125259294Y-56545987D01*
X125121401Y-56803967D01*
X125036487Y-57083890D01*
X125015000Y-57302051D01*
X125015000Y-57697950D01*
X125036487Y-57916111D01*
X125121401Y-58196034D01*
X125259294Y-58454014D01*
X125444866Y-58680134D01*
X125487351Y-58715000D01*
X121538556Y-58715000D01*
X121500000Y-58711203D01*
X121461444Y-58715000D01*
X121461439Y-58715000D01*
X121421026Y-58718980D01*
X121346113Y-58726358D01*
X121198140Y-58771246D01*
X121061767Y-58844138D01*
X120942236Y-58942236D01*
X120917655Y-58972188D01*
X112898442Y-66991401D01*
X108707100Y-66991401D01*
X108752069Y-66936606D01*
X108891225Y-66676264D01*
X108976916Y-66393777D01*
X109005851Y-66100000D01*
X108976916Y-65806223D01*
X108959930Y-65750227D01*
X111027811Y-63682346D01*
X111057764Y-63657764D01*
X111155862Y-63538233D01*
X111228754Y-63401860D01*
X111228754Y-63401859D01*
X111273642Y-63253887D01*
X111281020Y-63178974D01*
X111285000Y-63138561D01*
X111285000Y-63138556D01*
X111288797Y-63100000D01*
X111285000Y-63061444D01*
X111285000Y-59391229D01*
X112465000Y-59391229D01*
X112465000Y-60008771D01*
X112585476Y-60614446D01*
X112821799Y-61184979D01*
X113164886Y-61698446D01*
X113601554Y-62135114D01*
X114115021Y-62478201D01*
X114685554Y-62714524D01*
X115291229Y-62835000D01*
X115908771Y-62835000D01*
X116514446Y-62714524D01*
X117084979Y-62478201D01*
X117598446Y-62135114D01*
X118035114Y-61698446D01*
X118378201Y-61184979D01*
X118614524Y-60614446D01*
X118735000Y-60008771D01*
X118735000Y-59391229D01*
X118614524Y-58785554D01*
X118378201Y-58215021D01*
X118035114Y-57701554D01*
X117598446Y-57264886D01*
X117084979Y-56921799D01*
X116514446Y-56685476D01*
X115908771Y-56565000D01*
X115291229Y-56565000D01*
X114685554Y-56685476D01*
X114115021Y-56921799D01*
X113601554Y-57264886D01*
X113164886Y-57701554D01*
X112821799Y-58215021D01*
X112585476Y-58785554D01*
X112465000Y-59391229D01*
X111285000Y-59391229D01*
X111285000Y-57825157D01*
X113325158Y-55785000D01*
X122461447Y-55785000D01*
X122500000Y-55788797D01*
X122538553Y-55785000D01*
X122538561Y-55785000D01*
X122653887Y-55773641D01*
X122801860Y-55728754D01*
X122938233Y-55655862D01*
X123057764Y-55557764D01*
X123082347Y-55527810D01*
X124825158Y-53785000D01*
X130961447Y-53785000D01*
X131000000Y-53788797D01*
X131038553Y-53785000D01*
X131038561Y-53785000D01*
X131153887Y-53773641D01*
X131301860Y-53728754D01*
X131438233Y-53655862D01*
X131557764Y-53557764D01*
X131582347Y-53527810D01*
X133565225Y-51544932D01*
X133708890Y-51588513D01*
X134000000Y-51617185D01*
X134291111Y-51588513D01*
X134571034Y-51503599D01*
X134829014Y-51365706D01*
X135055134Y-51180134D01*
X135240706Y-50954014D01*
X135378599Y-50696033D01*
X135463513Y-50416110D01*
X135485000Y-50197949D01*
X135485000Y-49802050D01*
X135463513Y-49583889D01*
X135378599Y-49303966D01*
X135240706Y-49045986D01*
X135055134Y-48819866D01*
X134829013Y-48634294D01*
X134571033Y-48496401D01*
X134291110Y-48411487D01*
X134000000Y-48382815D01*
X133708889Y-48411487D01*
X133428966Y-48496401D01*
X133170986Y-48634294D01*
X132944866Y-48819866D01*
X132759294Y-49045987D01*
X132750000Y-49063374D01*
X132740706Y-49045986D01*
X132555134Y-48819866D01*
X132329013Y-48634294D01*
X132071033Y-48496401D01*
X131791110Y-48411487D01*
X131500000Y-48382815D01*
X131208889Y-48411487D01*
X130928966Y-48496401D01*
X130670986Y-48634294D01*
X130444866Y-48819866D01*
X130259294Y-49045987D01*
X130250000Y-49063374D01*
X130240706Y-49045986D01*
X130055134Y-48819866D01*
X129829013Y-48634294D01*
X129571033Y-48496401D01*
X129291110Y-48411487D01*
X129000000Y-48382815D01*
X128708889Y-48411487D01*
X128428966Y-48496401D01*
X128170986Y-48634294D01*
X127944866Y-48819866D01*
X127759294Y-49045987D01*
X127750000Y-49063374D01*
X127740706Y-49045986D01*
X127555134Y-48819866D01*
X127329013Y-48634294D01*
X127071033Y-48496401D01*
X126791110Y-48411487D01*
X126500000Y-48382815D01*
X126208889Y-48411487D01*
X125928966Y-48496401D01*
X125670986Y-48634294D01*
X125444866Y-48819866D01*
X125259294Y-49045987D01*
X125121401Y-49303967D01*
X125036487Y-49583890D01*
X125015000Y-49802051D01*
X125015000Y-50197950D01*
X125036487Y-50416111D01*
X125121401Y-50696034D01*
X125259294Y-50954014D01*
X125444866Y-51180134D01*
X125670987Y-51365706D01*
X125928967Y-51503599D01*
X126208890Y-51588513D01*
X126293042Y-51596801D01*
X126174843Y-51715000D01*
X124038552Y-51715000D01*
X123999999Y-51711203D01*
X123961446Y-51715000D01*
X123961439Y-51715000D01*
X123860490Y-51724943D01*
X123846112Y-51726359D01*
X123698140Y-51771246D01*
X123561767Y-51844138D01*
X123501559Y-51893550D01*
X123472187Y-51917655D01*
X123472184Y-51917658D01*
X123442236Y-51942236D01*
X123417658Y-51972184D01*
X121674843Y-53715000D01*
X119476745Y-53715000D01*
X119488072Y-53599999D01*
X119488072Y-51400001D01*
X119471008Y-51226747D01*
X119420471Y-51060150D01*
X119338405Y-50906614D01*
X119227961Y-50772039D01*
X119093386Y-50661595D01*
X118939850Y-50579529D01*
X118773253Y-50528992D01*
X118599999Y-50511928D01*
X116400001Y-50511928D01*
X116226747Y-50528992D01*
X116060150Y-50579529D01*
X115906614Y-50661595D01*
X115772039Y-50772039D01*
X115661595Y-50906614D01*
X115579529Y-51060150D01*
X115528992Y-51226747D01*
X115511928Y-51400001D01*
X115511928Y-52238777D01*
X115448718Y-51920997D01*
X115299085Y-51559750D01*
X115081851Y-51234636D01*
X114805364Y-50958149D01*
X114480250Y-50740915D01*
X114119003Y-50591282D01*
X113735505Y-50515000D01*
X113344495Y-50515000D01*
X112960997Y-50591282D01*
X112599750Y-50740915D01*
X112274636Y-50958149D01*
X111998149Y-51234636D01*
X111780915Y-51559750D01*
X111631282Y-51920997D01*
X111555000Y-52304495D01*
X111555000Y-52695505D01*
X111631282Y-53079003D01*
X111780915Y-53440250D01*
X111998149Y-53765364D01*
X112071644Y-53838859D01*
X112061767Y-53844138D01*
X112001559Y-53893550D01*
X111972187Y-53917655D01*
X111972184Y-53917658D01*
X111942236Y-53942236D01*
X111917658Y-53972184D01*
X109472185Y-56417658D01*
X109442237Y-56442236D01*
X109417659Y-56472184D01*
X109417655Y-56472188D01*
X109384690Y-56512356D01*
X109344139Y-56561767D01*
X109342411Y-56565000D01*
X109271246Y-56698141D01*
X109226359Y-56846114D01*
X109211203Y-57000000D01*
X109215001Y-57038563D01*
X109215000Y-60734842D01*
X108999036Y-60950806D01*
X108976916Y-60726223D01*
X108891225Y-60443736D01*
X108752069Y-60183394D01*
X108564797Y-59955203D01*
X108336606Y-59767931D01*
X108303060Y-59750000D01*
X108336606Y-59732069D01*
X108564797Y-59544797D01*
X108752069Y-59316606D01*
X108891225Y-59056264D01*
X108976916Y-58773777D01*
X109005851Y-58480000D01*
X108976916Y-58186223D01*
X108891225Y-57903736D01*
X108752069Y-57643394D01*
X108564797Y-57415203D01*
X108336606Y-57227931D01*
X108303060Y-57210000D01*
X108336606Y-57192069D01*
X108564797Y-57004797D01*
X108752069Y-56776606D01*
X108891225Y-56516264D01*
X108976916Y-56233777D01*
X109005851Y-55940000D01*
X108976916Y-55646223D01*
X108891225Y-55363736D01*
X108752069Y-55103394D01*
X108564797Y-54875203D01*
X108336606Y-54687931D01*
X108076264Y-54548775D01*
X107793777Y-54463084D01*
X107573619Y-54441400D01*
X107426381Y-54441400D01*
X107206223Y-54463084D01*
X106923736Y-54548775D01*
X106663394Y-54687931D01*
X106435203Y-54875203D01*
X106247931Y-55103394D01*
X106230000Y-55136940D01*
X106212069Y-55103394D01*
X106024797Y-54875203D01*
X105796606Y-54687931D01*
X105536264Y-54548775D01*
X105253777Y-54463084D01*
X105033619Y-54441400D01*
X104886381Y-54441400D01*
X104666223Y-54463084D01*
X104383736Y-54548775D01*
X104123394Y-54687931D01*
X103895203Y-54875203D01*
X103707931Y-55103394D01*
X103568775Y-55363736D01*
X103483084Y-55646223D01*
X103454149Y-55940000D01*
X100660000Y-55940000D01*
X100660000Y-49032279D01*
X100688625Y-48740341D01*
X100764035Y-48490571D01*
X100886522Y-48260208D01*
X101051422Y-48058020D01*
X101252450Y-47891714D01*
X101481954Y-47767622D01*
X101731195Y-47690469D01*
X102021088Y-47660000D01*
X134967721Y-47660000D01*
X135259659Y-47688625D01*
G36*
X111417653Y-90027810D02*
G01*
X111442236Y-90057764D01*
X111561767Y-90155862D01*
X111698140Y-90228754D01*
X111846113Y-90273642D01*
X111921026Y-90281020D01*
X111961439Y-90285000D01*
X111961444Y-90285000D01*
X112000000Y-90288797D01*
X112038556Y-90285000D01*
X113870773Y-90285000D01*
X113601554Y-90464886D01*
X113164886Y-90901554D01*
X112821799Y-91415021D01*
X112585476Y-91985554D01*
X112465000Y-92591229D01*
X112465000Y-93208771D01*
X112585476Y-93814446D01*
X112821799Y-94384979D01*
X113164886Y-94898446D01*
X113601554Y-95335114D01*
X114115021Y-95678201D01*
X114203861Y-95715000D01*
X113825158Y-95715000D01*
X110785000Y-92674843D01*
X110785000Y-89395157D01*
X111417653Y-90027810D01*
X111417653Y-90027810D01*
G37*
X111417653Y-90027810D02*
X111442236Y-90057764D01*
X111561767Y-90155862D01*
X111698140Y-90228754D01*
X111846113Y-90273642D01*
X111921026Y-90281020D01*
X111961439Y-90285000D01*
X111961444Y-90285000D01*
X112000000Y-90288797D01*
X112038556Y-90285000D01*
X113870773Y-90285000D01*
X113601554Y-90464886D01*
X113164886Y-90901554D01*
X112821799Y-91415021D01*
X112585476Y-91985554D01*
X112465000Y-92591229D01*
X112465000Y-93208771D01*
X112585476Y-93814446D01*
X112821799Y-94384979D01*
X113164886Y-94898446D01*
X113601554Y-95335114D01*
X114115021Y-95678201D01*
X114203861Y-95715000D01*
X113825158Y-95715000D01*
X110785000Y-92674843D01*
X110785000Y-89395157D01*
X111417653Y-90027810D01*
G36*
X124036595Y-90406614D02*
G01*
X123954528Y-90560150D01*
X123903992Y-90726746D01*
X123886928Y-90900000D01*
X123886928Y-92100000D01*
X123903992Y-92273254D01*
X123954528Y-92439850D01*
X124036595Y-92593386D01*
X124147038Y-92727962D01*
X124281614Y-92838405D01*
X124383337Y-92892777D01*
X124319866Y-92944866D01*
X124134294Y-93170986D01*
X123996401Y-93428966D01*
X123911487Y-93708889D01*
X123882815Y-94000000D01*
X123911487Y-94291111D01*
X123996401Y-94571034D01*
X124134294Y-94829014D01*
X124319866Y-95055134D01*
X124545986Y-95240706D01*
X124563374Y-95250000D01*
X124545986Y-95259294D01*
X124319866Y-95444866D01*
X124134294Y-95670986D01*
X124110768Y-95715000D01*
X116996139Y-95715000D01*
X117084979Y-95678201D01*
X117598446Y-95335114D01*
X118035114Y-94898446D01*
X118378201Y-94384979D01*
X118614524Y-93814446D01*
X118735000Y-93208771D01*
X118735000Y-92591229D01*
X118614524Y-91985554D01*
X118378201Y-91415021D01*
X118035114Y-90901554D01*
X117598446Y-90464886D01*
X117329227Y-90285000D01*
X124136400Y-90285000D01*
X124036595Y-90406614D01*
X124036595Y-90406614D01*
G37*
X124036595Y-90406614D02*
X123954528Y-90560150D01*
X123903992Y-90726746D01*
X123886928Y-90900000D01*
X123886928Y-92100000D01*
X123903992Y-92273254D01*
X123954528Y-92439850D01*
X124036595Y-92593386D01*
X124147038Y-92727962D01*
X124281614Y-92838405D01*
X124383337Y-92892777D01*
X124319866Y-92944866D01*
X124134294Y-93170986D01*
X123996401Y-93428966D01*
X123911487Y-93708889D01*
X123882815Y-94000000D01*
X123911487Y-94291111D01*
X123996401Y-94571034D01*
X124134294Y-94829014D01*
X124319866Y-95055134D01*
X124545986Y-95240706D01*
X124563374Y-95250000D01*
X124545986Y-95259294D01*
X124319866Y-95444866D01*
X124134294Y-95670986D01*
X124110768Y-95715000D01*
X116996139Y-95715000D01*
X117084979Y-95678201D01*
X117598446Y-95335114D01*
X118035114Y-94898446D01*
X118378201Y-94384979D01*
X118614524Y-93814446D01*
X118735000Y-93208771D01*
X118735000Y-92591229D01*
X118614524Y-91985554D01*
X118378201Y-91415021D01*
X118035114Y-90901554D01*
X117598446Y-90464886D01*
X117329227Y-90285000D01*
X124136400Y-90285000D01*
X124036595Y-90406614D01*
G36*
X106247931Y-89796606D02*
G01*
X106435203Y-90024797D01*
X106663394Y-90212069D01*
X106700463Y-90231883D01*
X106544698Y-90335961D01*
X106335961Y-90544698D01*
X106231883Y-90700463D01*
X106212069Y-90663394D01*
X106024797Y-90435203D01*
X105796606Y-90247931D01*
X105763060Y-90230000D01*
X105796606Y-90212069D01*
X106024797Y-90024797D01*
X106212069Y-89796606D01*
X106230000Y-89763060D01*
X106247931Y-89796606D01*
X106247931Y-89796606D01*
G37*
X106247931Y-89796606D02*
X106435203Y-90024797D01*
X106663394Y-90212069D01*
X106700463Y-90231883D01*
X106544698Y-90335961D01*
X106335961Y-90544698D01*
X106231883Y-90700463D01*
X106212069Y-90663394D01*
X106024797Y-90435203D01*
X105796606Y-90247931D01*
X105763060Y-90230000D01*
X105796606Y-90212069D01*
X106024797Y-90024797D01*
X106212069Y-89796606D01*
X106230000Y-89763060D01*
X106247931Y-89796606D01*
G36*
X115617655Y-88027813D02*
G01*
X115642236Y-88057764D01*
X115672184Y-88082342D01*
X115672187Y-88082345D01*
X115701559Y-88106450D01*
X115761767Y-88155862D01*
X115898140Y-88228754D01*
X116046113Y-88273641D01*
X116161439Y-88285000D01*
X116161447Y-88285000D01*
X116200000Y-88288797D01*
X116238553Y-88285000D01*
X133655592Y-88285000D01*
X133759294Y-88479013D01*
X133944866Y-88705134D01*
X133956888Y-88715000D01*
X112325157Y-88715000D01*
X109502347Y-85892190D01*
X109477764Y-85862236D01*
X109358233Y-85764138D01*
X109221860Y-85691246D01*
X109073887Y-85646359D01*
X108958561Y-85635000D01*
X108958553Y-85635000D01*
X108920000Y-85631203D01*
X108881447Y-85635000D01*
X108779653Y-85635000D01*
X108752069Y-85583394D01*
X108564797Y-85355203D01*
X108336606Y-85167931D01*
X108303060Y-85150000D01*
X108336606Y-85132069D01*
X108564797Y-84944797D01*
X108752069Y-84716606D01*
X108891225Y-84456264D01*
X108976916Y-84173777D01*
X109005851Y-83880000D01*
X108976916Y-83586223D01*
X108891225Y-83303736D01*
X108752069Y-83043394D01*
X108564797Y-82815203D01*
X108336606Y-82627931D01*
X108303060Y-82610000D01*
X108336606Y-82592069D01*
X108564797Y-82404797D01*
X108752069Y-82176606D01*
X108891225Y-81916264D01*
X108976916Y-81633777D01*
X108999036Y-81409193D01*
X115617655Y-88027813D01*
X115617655Y-88027813D01*
G37*
X115617655Y-88027813D02*
X115642236Y-88057764D01*
X115672184Y-88082342D01*
X115672187Y-88082345D01*
X115701559Y-88106450D01*
X115761767Y-88155862D01*
X115898140Y-88228754D01*
X116046113Y-88273641D01*
X116161439Y-88285000D01*
X116161447Y-88285000D01*
X116200000Y-88288797D01*
X116238553Y-88285000D01*
X133655592Y-88285000D01*
X133759294Y-88479013D01*
X133944866Y-88705134D01*
X133956888Y-88715000D01*
X112325157Y-88715000D01*
X109502347Y-85892190D01*
X109477764Y-85862236D01*
X109358233Y-85764138D01*
X109221860Y-85691246D01*
X109073887Y-85646359D01*
X108958561Y-85635000D01*
X108958553Y-85635000D01*
X108920000Y-85631203D01*
X108881447Y-85635000D01*
X108779653Y-85635000D01*
X108752069Y-85583394D01*
X108564797Y-85355203D01*
X108336606Y-85167931D01*
X108303060Y-85150000D01*
X108336606Y-85132069D01*
X108564797Y-84944797D01*
X108752069Y-84716606D01*
X108891225Y-84456264D01*
X108976916Y-84173777D01*
X109005851Y-83880000D01*
X108976916Y-83586223D01*
X108891225Y-83303736D01*
X108752069Y-83043394D01*
X108564797Y-82815203D01*
X108336606Y-82627931D01*
X108303060Y-82610000D01*
X108336606Y-82592069D01*
X108564797Y-82404797D01*
X108752069Y-82176606D01*
X108891225Y-81916264D01*
X108976916Y-81633777D01*
X108999036Y-81409193D01*
X115617655Y-88027813D01*
G36*
X136146422Y-88715000D02*
G01*
X136043112Y-88715000D01*
X136055134Y-88705134D01*
X136107223Y-88641663D01*
X136146422Y-88715000D01*
X136146422Y-88715000D01*
G37*
X136146422Y-88715000D02*
X136043112Y-88715000D01*
X136055134Y-88705134D01*
X136107223Y-88641663D01*
X136146422Y-88715000D01*
G36*
X145699847Y-86210004D02*
G01*
X145661595Y-86256614D01*
X145607223Y-86358337D01*
X145555134Y-86294866D01*
X145329014Y-86109294D01*
X145071034Y-85971401D01*
X144791111Y-85886487D01*
X144500000Y-85857815D01*
X144208890Y-85886487D01*
X143928967Y-85971401D01*
X143670987Y-86109294D01*
X143444866Y-86294866D01*
X143259294Y-86520986D01*
X143155591Y-86715000D01*
X141038552Y-86715000D01*
X140999999Y-86711203D01*
X140961446Y-86715000D01*
X140961439Y-86715000D01*
X140860490Y-86724943D01*
X140846112Y-86726359D01*
X140698140Y-86771246D01*
X140561767Y-86844138D01*
X140501559Y-86893550D01*
X140472187Y-86917655D01*
X140472184Y-86917658D01*
X140442236Y-86942236D01*
X140417658Y-86972184D01*
X138971491Y-88418352D01*
X138988072Y-88250000D01*
X138988072Y-87122085D01*
X140325158Y-85785000D01*
X145274843Y-85785000D01*
X145699847Y-86210004D01*
X145699847Y-86210004D01*
G37*
X145699847Y-86210004D02*
X145661595Y-86256614D01*
X145607223Y-86358337D01*
X145555134Y-86294866D01*
X145329014Y-86109294D01*
X145071034Y-85971401D01*
X144791111Y-85886487D01*
X144500000Y-85857815D01*
X144208890Y-85886487D01*
X143928967Y-85971401D01*
X143670987Y-86109294D01*
X143444866Y-86294866D01*
X143259294Y-86520986D01*
X143155591Y-86715000D01*
X141038552Y-86715000D01*
X140999999Y-86711203D01*
X140961446Y-86715000D01*
X140961439Y-86715000D01*
X140860490Y-86724943D01*
X140846112Y-86726359D01*
X140698140Y-86771246D01*
X140561767Y-86844138D01*
X140501559Y-86893550D01*
X140472187Y-86917655D01*
X140472184Y-86917658D01*
X140442236Y-86942236D01*
X140417658Y-86972184D01*
X138971491Y-88418352D01*
X138988072Y-88250000D01*
X138988072Y-87122085D01*
X140325158Y-85785000D01*
X145274843Y-85785000D01*
X145699847Y-86210004D01*
G36*
X111917658Y-80527816D02*
G01*
X111942236Y-80557764D01*
X111972184Y-80582342D01*
X111972187Y-80582345D01*
X111989450Y-80596512D01*
X112061767Y-80655862D01*
X112198140Y-80728754D01*
X112346113Y-80773642D01*
X112421026Y-80781020D01*
X112461439Y-80785000D01*
X112461444Y-80785000D01*
X112500000Y-80788797D01*
X112538556Y-80785000D01*
X123907555Y-80785000D01*
X123954528Y-80939850D01*
X124036595Y-81093386D01*
X124147038Y-81227962D01*
X124281614Y-81338405D01*
X124383337Y-81392777D01*
X124319866Y-81444866D01*
X124134294Y-81670986D01*
X123996401Y-81928966D01*
X123911487Y-82208889D01*
X123882815Y-82500000D01*
X123911487Y-82791111D01*
X123996401Y-83071034D01*
X124134294Y-83329014D01*
X124319866Y-83555134D01*
X124545986Y-83740706D01*
X124563374Y-83750000D01*
X124545986Y-83759294D01*
X124319866Y-83944866D01*
X124134294Y-84170986D01*
X123996401Y-84428966D01*
X123911487Y-84708889D01*
X123882815Y-85000000D01*
X123911487Y-85291111D01*
X123996401Y-85571034D01*
X124134294Y-85829014D01*
X124319866Y-86055134D01*
X124545986Y-86240706D01*
X124803966Y-86378599D01*
X125083889Y-86463513D01*
X125302050Y-86485000D01*
X125697950Y-86485000D01*
X125916111Y-86463513D01*
X126196034Y-86378599D01*
X126454014Y-86240706D01*
X126680134Y-86055134D01*
X126865706Y-85829014D01*
X127003599Y-85571034D01*
X127088513Y-85291111D01*
X127117185Y-85000000D01*
X127088513Y-84708889D01*
X127003599Y-84428966D01*
X126865706Y-84170986D01*
X126680134Y-83944866D01*
X126454014Y-83759294D01*
X126436626Y-83750000D01*
X126454014Y-83740706D01*
X126680134Y-83555134D01*
X126865706Y-83329014D01*
X127003599Y-83071034D01*
X127088513Y-82791111D01*
X127117185Y-82500000D01*
X127088513Y-82208889D01*
X127003599Y-81928966D01*
X126872326Y-81683372D01*
X130573215Y-81683372D01*
X134770283Y-85880440D01*
X134708890Y-85886487D01*
X134428967Y-85971401D01*
X134170987Y-86109294D01*
X133944866Y-86294866D01*
X133759294Y-86520986D01*
X133655591Y-86715000D01*
X116525158Y-86715000D01*
X108959930Y-79149773D01*
X108976916Y-79093777D01*
X109005851Y-78800000D01*
X108976916Y-78506223D01*
X108909809Y-78285000D01*
X109674843Y-78285000D01*
X111917658Y-80527816D01*
X111917658Y-80527816D01*
G37*
X111917658Y-80527816D02*
X111942236Y-80557764D01*
X111972184Y-80582342D01*
X111972187Y-80582345D01*
X111989450Y-80596512D01*
X112061767Y-80655862D01*
X112198140Y-80728754D01*
X112346113Y-80773642D01*
X112421026Y-80781020D01*
X112461439Y-80785000D01*
X112461444Y-80785000D01*
X112500000Y-80788797D01*
X112538556Y-80785000D01*
X123907555Y-80785000D01*
X123954528Y-80939850D01*
X124036595Y-81093386D01*
X124147038Y-81227962D01*
X124281614Y-81338405D01*
X124383337Y-81392777D01*
X124319866Y-81444866D01*
X124134294Y-81670986D01*
X123996401Y-81928966D01*
X123911487Y-82208889D01*
X123882815Y-82500000D01*
X123911487Y-82791111D01*
X123996401Y-83071034D01*
X124134294Y-83329014D01*
X124319866Y-83555134D01*
X124545986Y-83740706D01*
X124563374Y-83750000D01*
X124545986Y-83759294D01*
X124319866Y-83944866D01*
X124134294Y-84170986D01*
X123996401Y-84428966D01*
X123911487Y-84708889D01*
X123882815Y-85000000D01*
X123911487Y-85291111D01*
X123996401Y-85571034D01*
X124134294Y-85829014D01*
X124319866Y-86055134D01*
X124545986Y-86240706D01*
X124803966Y-86378599D01*
X125083889Y-86463513D01*
X125302050Y-86485000D01*
X125697950Y-86485000D01*
X125916111Y-86463513D01*
X126196034Y-86378599D01*
X126454014Y-86240706D01*
X126680134Y-86055134D01*
X126865706Y-85829014D01*
X127003599Y-85571034D01*
X127088513Y-85291111D01*
X127117185Y-85000000D01*
X127088513Y-84708889D01*
X127003599Y-84428966D01*
X126865706Y-84170986D01*
X126680134Y-83944866D01*
X126454014Y-83759294D01*
X126436626Y-83750000D01*
X126454014Y-83740706D01*
X126680134Y-83555134D01*
X126865706Y-83329014D01*
X127003599Y-83071034D01*
X127088513Y-82791111D01*
X127117185Y-82500000D01*
X127088513Y-82208889D01*
X127003599Y-81928966D01*
X126872326Y-81683372D01*
X130573215Y-81683372D01*
X134770283Y-85880440D01*
X134708890Y-85886487D01*
X134428967Y-85971401D01*
X134170987Y-86109294D01*
X133944866Y-86294866D01*
X133759294Y-86520986D01*
X133655591Y-86715000D01*
X116525158Y-86715000D01*
X108959930Y-79149773D01*
X108976916Y-79093777D01*
X109005851Y-78800000D01*
X108976916Y-78506223D01*
X108909809Y-78285000D01*
X109674843Y-78285000D01*
X111917658Y-80527816D01*
G36*
X106247931Y-84716606D02*
G01*
X106435203Y-84944797D01*
X106663394Y-85132069D01*
X106696940Y-85150000D01*
X106663394Y-85167931D01*
X106435203Y-85355203D01*
X106247931Y-85583394D01*
X106230000Y-85616940D01*
X106212069Y-85583394D01*
X106024797Y-85355203D01*
X105796606Y-85167931D01*
X105763060Y-85150000D01*
X105796606Y-85132069D01*
X106024797Y-84944797D01*
X106212069Y-84716606D01*
X106230000Y-84683060D01*
X106247931Y-84716606D01*
X106247931Y-84716606D01*
G37*
X106247931Y-84716606D02*
X106435203Y-84944797D01*
X106663394Y-85132069D01*
X106696940Y-85150000D01*
X106663394Y-85167931D01*
X106435203Y-85355203D01*
X106247931Y-85583394D01*
X106230000Y-85616940D01*
X106212069Y-85583394D01*
X106024797Y-85355203D01*
X105796606Y-85167931D01*
X105763060Y-85150000D01*
X105796606Y-85132069D01*
X106024797Y-84944797D01*
X106212069Y-84716606D01*
X106230000Y-84683060D01*
X106247931Y-84716606D01*
G36*
X106247931Y-82176606D02*
G01*
X106435203Y-82404797D01*
X106663394Y-82592069D01*
X106696940Y-82610000D01*
X106663394Y-82627931D01*
X106435203Y-82815203D01*
X106247931Y-83043394D01*
X106230000Y-83076940D01*
X106212069Y-83043394D01*
X106024797Y-82815203D01*
X105796606Y-82627931D01*
X105763060Y-82610000D01*
X105796606Y-82592069D01*
X106024797Y-82404797D01*
X106212069Y-82176606D01*
X106230000Y-82143060D01*
X106247931Y-82176606D01*
X106247931Y-82176606D01*
G37*
X106247931Y-82176606D02*
X106435203Y-82404797D01*
X106663394Y-82592069D01*
X106696940Y-82610000D01*
X106663394Y-82627931D01*
X106435203Y-82815203D01*
X106247931Y-83043394D01*
X106230000Y-83076940D01*
X106212069Y-83043394D01*
X106024797Y-82815203D01*
X105796606Y-82627931D01*
X105763060Y-82610000D01*
X105796606Y-82592069D01*
X106024797Y-82404797D01*
X106212069Y-82176606D01*
X106230000Y-82143060D01*
X106247931Y-82176606D01*
G36*
X106247931Y-79636606D02*
G01*
X106435203Y-79864797D01*
X106663394Y-80052069D01*
X106696940Y-80070000D01*
X106663394Y-80087931D01*
X106435203Y-80275203D01*
X106247931Y-80503394D01*
X106230000Y-80536940D01*
X106212069Y-80503394D01*
X106024797Y-80275203D01*
X105796606Y-80087931D01*
X105763060Y-80070000D01*
X105796606Y-80052069D01*
X106024797Y-79864797D01*
X106212069Y-79636606D01*
X106230000Y-79603060D01*
X106247931Y-79636606D01*
X106247931Y-79636606D01*
G37*
X106247931Y-79636606D02*
X106435203Y-79864797D01*
X106663394Y-80052069D01*
X106696940Y-80070000D01*
X106663394Y-80087931D01*
X106435203Y-80275203D01*
X106247931Y-80503394D01*
X106230000Y-80536940D01*
X106212069Y-80503394D01*
X106024797Y-80275203D01*
X105796606Y-80087931D01*
X105763060Y-80070000D01*
X105796606Y-80052069D01*
X106024797Y-79864797D01*
X106212069Y-79636606D01*
X106230000Y-79603060D01*
X106247931Y-79636606D01*
G36*
X106247931Y-74556606D02*
G01*
X106435203Y-74784797D01*
X106663394Y-74972069D01*
X106696940Y-74990000D01*
X106663394Y-75007931D01*
X106435203Y-75195203D01*
X106247931Y-75423394D01*
X106230000Y-75456940D01*
X106212069Y-75423394D01*
X106024797Y-75195203D01*
X105796606Y-75007931D01*
X105763060Y-74990000D01*
X105796606Y-74972069D01*
X106024797Y-74784797D01*
X106212069Y-74556606D01*
X106230000Y-74523060D01*
X106247931Y-74556606D01*
X106247931Y-74556606D01*
G37*
X106247931Y-74556606D02*
X106435203Y-74784797D01*
X106663394Y-74972069D01*
X106696940Y-74990000D01*
X106663394Y-75007931D01*
X106435203Y-75195203D01*
X106247931Y-75423394D01*
X106230000Y-75456940D01*
X106212069Y-75423394D01*
X106024797Y-75195203D01*
X105796606Y-75007931D01*
X105763060Y-74990000D01*
X105796606Y-74972069D01*
X106024797Y-74784797D01*
X106212069Y-74556606D01*
X106230000Y-74523060D01*
X106247931Y-74556606D01*
G36*
X109778442Y-74611401D02*
G01*
X108707100Y-74611401D01*
X108752069Y-74556606D01*
X108779653Y-74505000D01*
X109884843Y-74505000D01*
X109778442Y-74611401D01*
X109778442Y-74611401D01*
G37*
X109778442Y-74611401D02*
X108707100Y-74611401D01*
X108752069Y-74556606D01*
X108779653Y-74505000D01*
X109884843Y-74505000D01*
X109778442Y-74611401D01*
G36*
X106247931Y-72016606D02*
G01*
X106435203Y-72244797D01*
X106663394Y-72432069D01*
X106696940Y-72450000D01*
X106663394Y-72467931D01*
X106435203Y-72655203D01*
X106247931Y-72883394D01*
X106230000Y-72916940D01*
X106212069Y-72883394D01*
X106024797Y-72655203D01*
X105796606Y-72467931D01*
X105763060Y-72450000D01*
X105796606Y-72432069D01*
X106024797Y-72244797D01*
X106212069Y-72016606D01*
X106230000Y-71983060D01*
X106247931Y-72016606D01*
X106247931Y-72016606D01*
G37*
X106247931Y-72016606D02*
X106435203Y-72244797D01*
X106663394Y-72432069D01*
X106696940Y-72450000D01*
X106663394Y-72467931D01*
X106435203Y-72655203D01*
X106247931Y-72883394D01*
X106230000Y-72916940D01*
X106212069Y-72883394D01*
X106024797Y-72655203D01*
X105796606Y-72467931D01*
X105763060Y-72450000D01*
X105796606Y-72432069D01*
X106024797Y-72244797D01*
X106212069Y-72016606D01*
X106230000Y-71983060D01*
X106247931Y-72016606D01*
G36*
X110494843Y-70395000D02*
G01*
X108779653Y-70395000D01*
X108752069Y-70343394D01*
X108564797Y-70115203D01*
X108336606Y-69927931D01*
X108303060Y-69910000D01*
X108336606Y-69892069D01*
X108564797Y-69704797D01*
X108752069Y-69476606D01*
X108891225Y-69216264D01*
X108976916Y-68933777D01*
X109005851Y-68640000D01*
X108998110Y-68561401D01*
X112328442Y-68561401D01*
X110494843Y-70395000D01*
X110494843Y-70395000D01*
G37*
X110494843Y-70395000D02*
X108779653Y-70395000D01*
X108752069Y-70343394D01*
X108564797Y-70115203D01*
X108336606Y-69927931D01*
X108303060Y-69910000D01*
X108336606Y-69892069D01*
X108564797Y-69704797D01*
X108752069Y-69476606D01*
X108891225Y-69216264D01*
X108976916Y-68933777D01*
X109005851Y-68640000D01*
X108998110Y-68561401D01*
X112328442Y-68561401D01*
X110494843Y-70395000D01*
G36*
X106247931Y-69476606D02*
G01*
X106435203Y-69704797D01*
X106663394Y-69892069D01*
X106696940Y-69910000D01*
X106663394Y-69927931D01*
X106435203Y-70115203D01*
X106247931Y-70343394D01*
X106230000Y-70376940D01*
X106212069Y-70343394D01*
X106024797Y-70115203D01*
X105796606Y-69927931D01*
X105763060Y-69910000D01*
X105796606Y-69892069D01*
X106024797Y-69704797D01*
X106212069Y-69476606D01*
X106230000Y-69443060D01*
X106247931Y-69476606D01*
X106247931Y-69476606D01*
G37*
X106247931Y-69476606D02*
X106435203Y-69704797D01*
X106663394Y-69892069D01*
X106696940Y-69910000D01*
X106663394Y-69927931D01*
X106435203Y-70115203D01*
X106247931Y-70343394D01*
X106230000Y-70376940D01*
X106212069Y-70343394D01*
X106024797Y-70115203D01*
X105796606Y-69927931D01*
X105763060Y-69910000D01*
X105796606Y-69892069D01*
X106024797Y-69704797D01*
X106212069Y-69476606D01*
X106230000Y-69443060D01*
X106247931Y-69476606D01*
G36*
X130259294Y-68954014D02*
G01*
X130444866Y-69180134D01*
X130670987Y-69365706D01*
X130928967Y-69503599D01*
X131208890Y-69588513D01*
X131406834Y-69608009D01*
X131299843Y-69715000D01*
X128520157Y-69715000D01*
X128661132Y-69574026D01*
X128708890Y-69588513D01*
X129000000Y-69617185D01*
X129291111Y-69588513D01*
X129571034Y-69503599D01*
X129829014Y-69365706D01*
X130055134Y-69180134D01*
X130240706Y-68954014D01*
X130250000Y-68936626D01*
X130259294Y-68954014D01*
X130259294Y-68954014D01*
G37*
X130259294Y-68954014D02*
X130444866Y-69180134D01*
X130670987Y-69365706D01*
X130928967Y-69503599D01*
X131208890Y-69588513D01*
X131406834Y-69608009D01*
X131299843Y-69715000D01*
X128520157Y-69715000D01*
X128661132Y-69574026D01*
X128708890Y-69588513D01*
X129000000Y-69617185D01*
X129291111Y-69588513D01*
X129571034Y-69503599D01*
X129829014Y-69365706D01*
X130055134Y-69180134D01*
X130240706Y-68954014D01*
X130250000Y-68936626D01*
X130259294Y-68954014D01*
G36*
X106247931Y-66936606D02*
G01*
X106435203Y-67164797D01*
X106663394Y-67352069D01*
X106696940Y-67370000D01*
X106663394Y-67387931D01*
X106435203Y-67575203D01*
X106247931Y-67803394D01*
X106230000Y-67836940D01*
X106212069Y-67803394D01*
X106024797Y-67575203D01*
X105796606Y-67387931D01*
X105763060Y-67370000D01*
X105796606Y-67352069D01*
X106024797Y-67164797D01*
X106212069Y-66936606D01*
X106230000Y-66903060D01*
X106247931Y-66936606D01*
X106247931Y-66936606D01*
G37*
X106247931Y-66936606D02*
X106435203Y-67164797D01*
X106663394Y-67352069D01*
X106696940Y-67370000D01*
X106663394Y-67387931D01*
X106435203Y-67575203D01*
X106247931Y-67803394D01*
X106230000Y-67836940D01*
X106212069Y-67803394D01*
X106024797Y-67575203D01*
X105796606Y-67387931D01*
X105763060Y-67370000D01*
X105796606Y-67352069D01*
X106024797Y-67164797D01*
X106212069Y-66936606D01*
X106230000Y-66903060D01*
X106247931Y-66936606D01*
G36*
X106247931Y-64396606D02*
G01*
X106435203Y-64624797D01*
X106663394Y-64812069D01*
X106696940Y-64830000D01*
X106663394Y-64847931D01*
X106435203Y-65035203D01*
X106247931Y-65263394D01*
X106230000Y-65296940D01*
X106212069Y-65263394D01*
X106024797Y-65035203D01*
X105796606Y-64847931D01*
X105763060Y-64830000D01*
X105796606Y-64812069D01*
X106024797Y-64624797D01*
X106212069Y-64396606D01*
X106230000Y-64363060D01*
X106247931Y-64396606D01*
X106247931Y-64396606D01*
G37*
X106247931Y-64396606D02*
X106435203Y-64624797D01*
X106663394Y-64812069D01*
X106696940Y-64830000D01*
X106663394Y-64847931D01*
X106435203Y-65035203D01*
X106247931Y-65263394D01*
X106230000Y-65296940D01*
X106212069Y-65263394D01*
X106024797Y-65035203D01*
X105796606Y-64847931D01*
X105763060Y-64830000D01*
X105796606Y-64812069D01*
X106024797Y-64624797D01*
X106212069Y-64396606D01*
X106230000Y-64363060D01*
X106247931Y-64396606D01*
G36*
X109715000Y-62774843D02*
G01*
X108999036Y-63490807D01*
X108976916Y-63266223D01*
X108959930Y-63210227D01*
X109715000Y-62455158D01*
X109715000Y-62774843D01*
X109715000Y-62774843D01*
G37*
X109715000Y-62774843D02*
X108999036Y-63490807D01*
X108976916Y-63266223D01*
X108959930Y-63210227D01*
X109715000Y-62455158D01*
X109715000Y-62774843D01*
G36*
X106247931Y-61856606D02*
G01*
X106435203Y-62084797D01*
X106663394Y-62272069D01*
X106696940Y-62290000D01*
X106663394Y-62307931D01*
X106435203Y-62495203D01*
X106247931Y-62723394D01*
X106230000Y-62756940D01*
X106212069Y-62723394D01*
X106024797Y-62495203D01*
X105796606Y-62307931D01*
X105763060Y-62290000D01*
X105796606Y-62272069D01*
X106024797Y-62084797D01*
X106212069Y-61856606D01*
X106230000Y-61823060D01*
X106247931Y-61856606D01*
X106247931Y-61856606D01*
G37*
X106247931Y-61856606D02*
X106435203Y-62084797D01*
X106663394Y-62272069D01*
X106696940Y-62290000D01*
X106663394Y-62307931D01*
X106435203Y-62495203D01*
X106247931Y-62723394D01*
X106230000Y-62756940D01*
X106212069Y-62723394D01*
X106024797Y-62495203D01*
X105796606Y-62307931D01*
X105763060Y-62290000D01*
X105796606Y-62272069D01*
X106024797Y-62084797D01*
X106212069Y-61856606D01*
X106230000Y-61823060D01*
X106247931Y-61856606D01*
G36*
X106247931Y-59316606D02*
G01*
X106435203Y-59544797D01*
X106663394Y-59732069D01*
X106696940Y-59750000D01*
X106663394Y-59767931D01*
X106435203Y-59955203D01*
X106247931Y-60183394D01*
X106230000Y-60216940D01*
X106212069Y-60183394D01*
X106024797Y-59955203D01*
X105796606Y-59767931D01*
X105763060Y-59750000D01*
X105796606Y-59732069D01*
X106024797Y-59544797D01*
X106212069Y-59316606D01*
X106230000Y-59283060D01*
X106247931Y-59316606D01*
X106247931Y-59316606D01*
G37*
X106247931Y-59316606D02*
X106435203Y-59544797D01*
X106663394Y-59732069D01*
X106696940Y-59750000D01*
X106663394Y-59767931D01*
X106435203Y-59955203D01*
X106247931Y-60183394D01*
X106230000Y-60216940D01*
X106212069Y-60183394D01*
X106024797Y-59955203D01*
X105796606Y-59767931D01*
X105763060Y-59750000D01*
X105796606Y-59732069D01*
X106024797Y-59544797D01*
X106212069Y-59316606D01*
X106230000Y-59283060D01*
X106247931Y-59316606D01*
G36*
X130259294Y-58454014D02*
G01*
X130444866Y-58680134D01*
X130670987Y-58865706D01*
X130928967Y-59003599D01*
X131208890Y-59088513D01*
X131406834Y-59108009D01*
X131299843Y-59215000D01*
X128520157Y-59215000D01*
X128661132Y-59074026D01*
X128708890Y-59088513D01*
X129000000Y-59117185D01*
X129291111Y-59088513D01*
X129571034Y-59003599D01*
X129829014Y-58865706D01*
X130055134Y-58680134D01*
X130240706Y-58454014D01*
X130250000Y-58436626D01*
X130259294Y-58454014D01*
X130259294Y-58454014D01*
G37*
X130259294Y-58454014D02*
X130444866Y-58680134D01*
X130670987Y-58865706D01*
X130928967Y-59003599D01*
X131208890Y-59088513D01*
X131406834Y-59108009D01*
X131299843Y-59215000D01*
X128520157Y-59215000D01*
X128661132Y-59074026D01*
X128708890Y-59088513D01*
X129000000Y-59117185D01*
X129291111Y-59088513D01*
X129571034Y-59003599D01*
X129829014Y-58865706D01*
X130055134Y-58680134D01*
X130240706Y-58454014D01*
X130250000Y-58436626D01*
X130259294Y-58454014D01*
G36*
X106247931Y-56776606D02*
G01*
X106435203Y-57004797D01*
X106663394Y-57192069D01*
X106696940Y-57210000D01*
X106663394Y-57227931D01*
X106435203Y-57415203D01*
X106247931Y-57643394D01*
X106230000Y-57676940D01*
X106212069Y-57643394D01*
X106024797Y-57415203D01*
X105796606Y-57227931D01*
X105763060Y-57210000D01*
X105796606Y-57192069D01*
X106024797Y-57004797D01*
X106212069Y-56776606D01*
X106230000Y-56743060D01*
X106247931Y-56776606D01*
X106247931Y-56776606D01*
G37*
X106247931Y-56776606D02*
X106435203Y-57004797D01*
X106663394Y-57192069D01*
X106696940Y-57210000D01*
X106663394Y-57227931D01*
X106435203Y-57415203D01*
X106247931Y-57643394D01*
X106230000Y-57676940D01*
X106212069Y-57643394D01*
X106024797Y-57415203D01*
X105796606Y-57227931D01*
X105763060Y-57210000D01*
X105796606Y-57192069D01*
X106024797Y-57004797D01*
X106212069Y-56776606D01*
X106230000Y-56743060D01*
X106247931Y-56776606D01*
G36*
X115511928Y-53599999D02*
G01*
X115523255Y-53715000D01*
X115115503Y-53715000D01*
X115299085Y-53440250D01*
X115448718Y-53079003D01*
X115511928Y-52761223D01*
X115511928Y-53599999D01*
X115511928Y-53599999D01*
G37*
X115511928Y-53599999D02*
X115523255Y-53715000D01*
X115115503Y-53715000D01*
X115299085Y-53440250D01*
X115448718Y-53079003D01*
X115511928Y-52761223D01*
X115511928Y-53599999D01*
G36*
X130259294Y-50954014D02*
G01*
X130444866Y-51180134D01*
X130670987Y-51365706D01*
X130928967Y-51503599D01*
X131208890Y-51588513D01*
X131293042Y-51596801D01*
X130674843Y-52215000D01*
X127895157Y-52215000D01*
X128565225Y-51544933D01*
X128708890Y-51588513D01*
X129000000Y-51617185D01*
X129291111Y-51588513D01*
X129571034Y-51503599D01*
X129829014Y-51365706D01*
X130055134Y-51180134D01*
X130240706Y-50954014D01*
X130250000Y-50936626D01*
X130259294Y-50954014D01*
X130259294Y-50954014D01*
G37*
X130259294Y-50954014D02*
X130444866Y-51180134D01*
X130670987Y-51365706D01*
X130928967Y-51503599D01*
X131208890Y-51588513D01*
X131293042Y-51596801D01*
X130674843Y-52215000D01*
X127895157Y-52215000D01*
X128565225Y-51544933D01*
X128708890Y-51588513D01*
X129000000Y-51617185D01*
X129291111Y-51588513D01*
X129571034Y-51503599D01*
X129829014Y-51365706D01*
X130055134Y-51180134D01*
X130240706Y-50954014D01*
X130250000Y-50936626D01*
X130259294Y-50954014D01*
M02*
