G04 #@! TF.GenerationSoftware,KiCad,Pcbnew,(5.1.4-0-10_14)*
G04 #@! TF.CreationDate,2019-10-10T19:21:02+03:00*
G04 #@! TF.ProjectId,Transfer_Board,5472616e-7366-4657-925f-426f6172642e,rev?*
G04 #@! TF.SameCoordinates,Original*
G04 #@! TF.FileFunction,Legend,Top*
G04 #@! TF.FilePolarity,Positive*
%FSLAX46Y46*%
G04 Gerber Fmt 4.6, Leading zero omitted, Abs format (unit mm)*
G04 Created by KiCad (PCBNEW (5.1.4-0-10_14)) date 2019-10-10 19:21:02*
%MOMM*%
%LPD*%
G04 APERTURE LIST*
%ADD10C,0.120000*%
%ADD11C,0.150000*%
G04 APERTURE END LIST*
D10*
X116851000Y-92900000D02*
G75*
G03X116851000Y-92900000I-1251000J0D01*
G01*
X116851000Y-59700000D02*
G75*
G03X116851000Y-59700000I-1251000J0D01*
G01*
X140350000Y-90250000D02*
X140350000Y-89000000D01*
X139100000Y-90250000D02*
X140350000Y-90250000D01*
X133200000Y-84750000D02*
X136250000Y-84750000D01*
X133200000Y-87700000D02*
X133200000Y-84750000D01*
X132450000Y-87700000D02*
X133200000Y-87700000D01*
X139300000Y-84750000D02*
X136250000Y-84750000D01*
X139300000Y-87700000D02*
X139300000Y-84750000D01*
X140050000Y-87700000D02*
X139300000Y-87700000D01*
X132450000Y-89950000D02*
X134250000Y-89950000D01*
X132450000Y-89200000D02*
X132450000Y-89950000D01*
X134250000Y-89200000D02*
X132450000Y-89200000D01*
X134250000Y-89950000D02*
X134250000Y-89200000D01*
X138250000Y-89950000D02*
X140050000Y-89950000D01*
X138250000Y-89200000D02*
X138250000Y-89950000D01*
X140050000Y-89200000D02*
X138250000Y-89200000D01*
X140050000Y-89950000D02*
X140050000Y-89200000D01*
X135750000Y-89950000D02*
X136750000Y-89950000D01*
X135750000Y-89200000D02*
X135750000Y-89950000D01*
X136750000Y-89200000D02*
X135750000Y-89200000D01*
X136750000Y-89950000D02*
X136750000Y-89200000D01*
X132440000Y-89960000D02*
X140060000Y-89960000D01*
X132440000Y-83990000D02*
X132440000Y-89960000D01*
X140060000Y-83990000D02*
X132440000Y-83990000D01*
X140060000Y-89960000D02*
X140060000Y-83990000D01*
X149850000Y-90250000D02*
X149850000Y-89000000D01*
X148600000Y-90250000D02*
X149850000Y-90250000D01*
X142700000Y-84750000D02*
X145750000Y-84750000D01*
X142700000Y-87700000D02*
X142700000Y-84750000D01*
X141950000Y-87700000D02*
X142700000Y-87700000D01*
X148800000Y-84750000D02*
X145750000Y-84750000D01*
X148800000Y-87700000D02*
X148800000Y-84750000D01*
X149550000Y-87700000D02*
X148800000Y-87700000D01*
X141950000Y-89950000D02*
X143750000Y-89950000D01*
X141950000Y-89200000D02*
X141950000Y-89950000D01*
X143750000Y-89200000D02*
X141950000Y-89200000D01*
X143750000Y-89950000D02*
X143750000Y-89200000D01*
X147750000Y-89950000D02*
X149550000Y-89950000D01*
X147750000Y-89200000D02*
X147750000Y-89950000D01*
X149550000Y-89200000D02*
X147750000Y-89200000D01*
X149550000Y-89950000D02*
X149550000Y-89200000D01*
X145250000Y-89950000D02*
X146250000Y-89950000D01*
X145250000Y-89200000D02*
X145250000Y-89950000D01*
X146250000Y-89200000D02*
X145250000Y-89200000D01*
X146250000Y-89950000D02*
X146250000Y-89200000D01*
X141940000Y-89960000D02*
X149560000Y-89960000D01*
X141940000Y-83990000D02*
X141940000Y-89960000D01*
X149560000Y-83990000D02*
X141940000Y-83990000D01*
X149560000Y-89960000D02*
X149560000Y-83990000D01*
X103370000Y-50590000D02*
X103370000Y-96850000D01*
X103370000Y-50590000D02*
X94020000Y-50590000D01*
X103370000Y-71470000D02*
X94020000Y-71470000D01*
X103370000Y-75970000D02*
X94020000Y-75970000D01*
X103370000Y-96850000D02*
X94020000Y-96850000D01*
X94020000Y-96850000D02*
X94020000Y-50590000D01*
X107500000Y-92770000D02*
X108770000Y-92770000D01*
X108770000Y-92770000D02*
X108770000Y-91500000D01*
X140350000Y-80750000D02*
X140350000Y-79500000D01*
X139100000Y-80750000D02*
X140350000Y-80750000D01*
X133200000Y-75250000D02*
X136250000Y-75250000D01*
X133200000Y-78200000D02*
X133200000Y-75250000D01*
X132450000Y-78200000D02*
X133200000Y-78200000D01*
X139300000Y-75250000D02*
X136250000Y-75250000D01*
X139300000Y-78200000D02*
X139300000Y-75250000D01*
X140050000Y-78200000D02*
X139300000Y-78200000D01*
X132450000Y-80450000D02*
X134250000Y-80450000D01*
X132450000Y-79700000D02*
X132450000Y-80450000D01*
X134250000Y-79700000D02*
X132450000Y-79700000D01*
X134250000Y-80450000D02*
X134250000Y-79700000D01*
X138250000Y-80450000D02*
X140050000Y-80450000D01*
X138250000Y-79700000D02*
X138250000Y-80450000D01*
X140050000Y-79700000D02*
X138250000Y-79700000D01*
X140050000Y-80450000D02*
X140050000Y-79700000D01*
X135750000Y-80450000D02*
X136750000Y-80450000D01*
X135750000Y-79700000D02*
X135750000Y-80450000D01*
X136750000Y-79700000D02*
X135750000Y-79700000D01*
X136750000Y-80450000D02*
X136750000Y-79700000D01*
X132440000Y-80460000D02*
X140060000Y-80460000D01*
X132440000Y-74490000D02*
X132440000Y-80460000D01*
X140060000Y-74490000D02*
X132440000Y-74490000D01*
X140060000Y-80460000D02*
X140060000Y-74490000D01*
X123650000Y-47250000D02*
X123650000Y-48500000D01*
X124900000Y-47250000D02*
X123650000Y-47250000D01*
X135800000Y-52750000D02*
X130250000Y-52750000D01*
X135800000Y-49800000D02*
X135800000Y-52750000D01*
X136550000Y-49800000D02*
X135800000Y-49800000D01*
X124700000Y-52750000D02*
X130250000Y-52750000D01*
X124700000Y-49800000D02*
X124700000Y-52750000D01*
X123950000Y-49800000D02*
X124700000Y-49800000D01*
X136550000Y-47550000D02*
X134750000Y-47550000D01*
X136550000Y-48300000D02*
X136550000Y-47550000D01*
X134750000Y-48300000D02*
X136550000Y-48300000D01*
X134750000Y-47550000D02*
X134750000Y-48300000D01*
X125750000Y-47550000D02*
X123950000Y-47550000D01*
X125750000Y-48300000D02*
X125750000Y-47550000D01*
X123950000Y-48300000D02*
X125750000Y-48300000D01*
X123950000Y-47550000D02*
X123950000Y-48300000D01*
X133250000Y-47550000D02*
X127250000Y-47550000D01*
X133250000Y-48300000D02*
X133250000Y-47550000D01*
X127250000Y-48300000D02*
X133250000Y-48300000D01*
X127250000Y-47550000D02*
X127250000Y-48300000D01*
X136560000Y-47540000D02*
X123940000Y-47540000D01*
X136560000Y-53510000D02*
X136560000Y-47540000D01*
X123940000Y-53510000D02*
X136560000Y-53510000D01*
X123940000Y-47540000D02*
X123940000Y-53510000D01*
X123650000Y-54750000D02*
X123650000Y-56000000D01*
X124900000Y-54750000D02*
X123650000Y-54750000D01*
X135800000Y-60250000D02*
X130250000Y-60250000D01*
X135800000Y-57300000D02*
X135800000Y-60250000D01*
X136550000Y-57300000D02*
X135800000Y-57300000D01*
X124700000Y-60250000D02*
X130250000Y-60250000D01*
X124700000Y-57300000D02*
X124700000Y-60250000D01*
X123950000Y-57300000D02*
X124700000Y-57300000D01*
X136550000Y-55050000D02*
X134750000Y-55050000D01*
X136550000Y-55800000D02*
X136550000Y-55050000D01*
X134750000Y-55800000D02*
X136550000Y-55800000D01*
X134750000Y-55050000D02*
X134750000Y-55800000D01*
X125750000Y-55050000D02*
X123950000Y-55050000D01*
X125750000Y-55800000D02*
X125750000Y-55050000D01*
X123950000Y-55800000D02*
X125750000Y-55800000D01*
X123950000Y-55050000D02*
X123950000Y-55800000D01*
X133250000Y-55050000D02*
X127250000Y-55050000D01*
X133250000Y-55800000D02*
X133250000Y-55050000D01*
X127250000Y-55800000D02*
X133250000Y-55800000D01*
X127250000Y-55050000D02*
X127250000Y-55800000D01*
X136560000Y-55040000D02*
X123940000Y-55040000D01*
X136560000Y-61010000D02*
X136560000Y-55040000D01*
X123940000Y-61010000D02*
X136560000Y-61010000D01*
X123940000Y-55040000D02*
X123940000Y-61010000D01*
X128250000Y-88650000D02*
X127000000Y-88650000D01*
X128250000Y-89900000D02*
X128250000Y-88650000D01*
X122750000Y-98300000D02*
X122750000Y-94000000D01*
X125700000Y-98300000D02*
X122750000Y-98300000D01*
X125700000Y-99050000D02*
X125700000Y-98300000D01*
X122750000Y-89700000D02*
X122750000Y-94000000D01*
X125700000Y-89700000D02*
X122750000Y-89700000D01*
X125700000Y-88950000D02*
X125700000Y-89700000D01*
X127950000Y-99050000D02*
X127950000Y-97250000D01*
X127200000Y-99050000D02*
X127950000Y-99050000D01*
X127200000Y-97250000D02*
X127200000Y-99050000D01*
X127950000Y-97250000D02*
X127200000Y-97250000D01*
X127950000Y-90750000D02*
X127950000Y-88950000D01*
X127200000Y-90750000D02*
X127950000Y-90750000D01*
X127200000Y-88950000D02*
X127200000Y-90750000D01*
X127950000Y-88950000D02*
X127200000Y-88950000D01*
X127950000Y-95750000D02*
X127950000Y-92250000D01*
X127200000Y-95750000D02*
X127950000Y-95750000D01*
X127200000Y-92250000D02*
X127200000Y-95750000D01*
X127950000Y-92250000D02*
X127200000Y-92250000D01*
X127960000Y-99060000D02*
X127960000Y-88940000D01*
X121990000Y-99060000D02*
X127960000Y-99060000D01*
X121990000Y-88940000D02*
X121990000Y-99060000D01*
X127960000Y-88940000D02*
X121990000Y-88940000D01*
X149850000Y-80750000D02*
X149850000Y-79500000D01*
X148600000Y-80750000D02*
X149850000Y-80750000D01*
X142700000Y-75250000D02*
X145750000Y-75250000D01*
X142700000Y-78200000D02*
X142700000Y-75250000D01*
X141950000Y-78200000D02*
X142700000Y-78200000D01*
X148800000Y-75250000D02*
X145750000Y-75250000D01*
X148800000Y-78200000D02*
X148800000Y-75250000D01*
X149550000Y-78200000D02*
X148800000Y-78200000D01*
X141950000Y-80450000D02*
X143750000Y-80450000D01*
X141950000Y-79700000D02*
X141950000Y-80450000D01*
X143750000Y-79700000D02*
X141950000Y-79700000D01*
X143750000Y-80450000D02*
X143750000Y-79700000D01*
X147750000Y-80450000D02*
X149550000Y-80450000D01*
X147750000Y-79700000D02*
X147750000Y-80450000D01*
X149550000Y-79700000D02*
X147750000Y-79700000D01*
X149550000Y-80450000D02*
X149550000Y-79700000D01*
X145250000Y-80450000D02*
X146250000Y-80450000D01*
X145250000Y-79700000D02*
X145250000Y-80450000D01*
X146250000Y-79700000D02*
X145250000Y-79700000D01*
X146250000Y-80450000D02*
X146250000Y-79700000D01*
X141940000Y-80460000D02*
X149560000Y-80460000D01*
X141940000Y-74490000D02*
X141940000Y-80460000D01*
X149560000Y-74490000D02*
X141940000Y-74490000D01*
X149560000Y-80460000D02*
X149560000Y-74490000D01*
X120360000Y-52800000D02*
X119760000Y-52500000D01*
X120360000Y-52200000D02*
X120360000Y-52800000D01*
X119760000Y-52500000D02*
X120360000Y-52200000D01*
X111480000Y-47590000D02*
X119560000Y-47590000D01*
X111480000Y-54610000D02*
X111480000Y-47590000D01*
X112680000Y-54610000D02*
X111480000Y-54610000D01*
X112680000Y-56310000D02*
X112680000Y-54610000D01*
X118360000Y-56310000D02*
X112680000Y-56310000D01*
X118360000Y-54610000D02*
X118360000Y-56310000D01*
X119560000Y-54610000D02*
X118360000Y-54610000D01*
X119560000Y-47590000D02*
X119560000Y-54610000D01*
X128250000Y-77150000D02*
X127000000Y-77150000D01*
X128250000Y-78400000D02*
X128250000Y-77150000D01*
X122750000Y-86800000D02*
X122750000Y-82500000D01*
X125700000Y-86800000D02*
X122750000Y-86800000D01*
X125700000Y-87550000D02*
X125700000Y-86800000D01*
X122750000Y-78200000D02*
X122750000Y-82500000D01*
X125700000Y-78200000D02*
X122750000Y-78200000D01*
X125700000Y-77450000D02*
X125700000Y-78200000D01*
X127950000Y-87550000D02*
X127950000Y-85750000D01*
X127200000Y-87550000D02*
X127950000Y-87550000D01*
X127200000Y-85750000D02*
X127200000Y-87550000D01*
X127950000Y-85750000D02*
X127200000Y-85750000D01*
X127950000Y-79250000D02*
X127950000Y-77450000D01*
X127200000Y-79250000D02*
X127950000Y-79250000D01*
X127200000Y-77450000D02*
X127200000Y-79250000D01*
X127950000Y-77450000D02*
X127200000Y-77450000D01*
X127950000Y-84250000D02*
X127950000Y-80750000D01*
X127200000Y-84250000D02*
X127950000Y-84250000D01*
X127200000Y-80750000D02*
X127200000Y-84250000D01*
X127950000Y-80750000D02*
X127200000Y-80750000D01*
X127960000Y-87560000D02*
X127960000Y-77440000D01*
X121990000Y-87560000D02*
X127960000Y-87560000D01*
X121990000Y-77440000D02*
X121990000Y-87560000D01*
X127960000Y-77440000D02*
X121990000Y-77440000D01*
X123650000Y-65250000D02*
X123650000Y-66500000D01*
X124900000Y-65250000D02*
X123650000Y-65250000D01*
X135800000Y-70750000D02*
X130250000Y-70750000D01*
X135800000Y-67800000D02*
X135800000Y-70750000D01*
X136550000Y-67800000D02*
X135800000Y-67800000D01*
X124700000Y-70750000D02*
X130250000Y-70750000D01*
X124700000Y-67800000D02*
X124700000Y-70750000D01*
X123950000Y-67800000D02*
X124700000Y-67800000D01*
X136550000Y-65550000D02*
X134750000Y-65550000D01*
X136550000Y-66300000D02*
X136550000Y-65550000D01*
X134750000Y-66300000D02*
X136550000Y-66300000D01*
X134750000Y-65550000D02*
X134750000Y-66300000D01*
X125750000Y-65550000D02*
X123950000Y-65550000D01*
X125750000Y-66300000D02*
X125750000Y-65550000D01*
X123950000Y-66300000D02*
X125750000Y-66300000D01*
X123950000Y-65550000D02*
X123950000Y-66300000D01*
X133250000Y-65550000D02*
X127250000Y-65550000D01*
X133250000Y-66300000D02*
X133250000Y-65550000D01*
X127250000Y-66300000D02*
X133250000Y-66300000D01*
X127250000Y-65550000D02*
X127250000Y-66300000D01*
X136560000Y-65540000D02*
X123940000Y-65540000D01*
X136560000Y-71510000D02*
X136560000Y-65540000D01*
X123940000Y-71510000D02*
X136560000Y-71510000D01*
X123940000Y-65540000D02*
X123940000Y-71510000D01*
D11*
X134202380Y-90502380D02*
X134869047Y-91502380D01*
X134869047Y-90502380D02*
X134202380Y-91502380D01*
X135011904Y-91597619D02*
X135773809Y-91597619D01*
X136011904Y-91502380D02*
X136011904Y-90502380D01*
X136345238Y-91216666D01*
X136678571Y-90502380D01*
X136678571Y-91502380D01*
X137154761Y-91502380D02*
X137154761Y-90502380D01*
X137630952Y-91502380D02*
X137630952Y-90502380D01*
X138202380Y-91502380D01*
X138202380Y-90502380D01*
X144940476Y-90502380D02*
X145511904Y-90502380D01*
X145226190Y-91502380D02*
X145226190Y-90502380D01*
X145845238Y-91502380D02*
X145845238Y-90502380D01*
X145845238Y-90978571D02*
X146416666Y-90978571D01*
X146416666Y-91502380D02*
X146416666Y-90502380D01*
X132916666Y-82002380D02*
X132916666Y-81002380D01*
X133297619Y-81002380D01*
X133392857Y-81050000D01*
X133440476Y-81097619D01*
X133488095Y-81192857D01*
X133488095Y-81335714D01*
X133440476Y-81430952D01*
X133392857Y-81478571D01*
X133297619Y-81526190D01*
X132916666Y-81526190D01*
X133869047Y-81716666D02*
X134345238Y-81716666D01*
X133773809Y-82002380D02*
X134107142Y-81002380D01*
X134440476Y-82002380D01*
X135345238Y-82002380D02*
X135011904Y-81526190D01*
X134773809Y-82002380D02*
X134773809Y-81002380D01*
X135154761Y-81002380D01*
X135250000Y-81050000D01*
X135297619Y-81097619D01*
X135345238Y-81192857D01*
X135345238Y-81335714D01*
X135297619Y-81430952D01*
X135250000Y-81478571D01*
X135154761Y-81526190D01*
X134773809Y-81526190D01*
X135630952Y-81002380D02*
X136202380Y-81002380D01*
X135916666Y-82002380D02*
X135916666Y-81002380D01*
X136297619Y-82097619D02*
X137059523Y-82097619D01*
X137630952Y-81478571D02*
X137297619Y-81478571D01*
X137297619Y-82002380D02*
X137297619Y-81002380D01*
X137773809Y-81002380D01*
X138107142Y-81716666D02*
X138583333Y-81716666D01*
X138011904Y-82002380D02*
X138345238Y-81002380D01*
X138678571Y-82002380D01*
X139011904Y-82002380D02*
X139011904Y-81002380D01*
X139583333Y-82002380D01*
X139583333Y-81002380D01*
X122952380Y-53619047D02*
X121952380Y-53619047D01*
X122666666Y-53285714D01*
X121952380Y-52952380D01*
X122952380Y-52952380D01*
X121952380Y-52285714D02*
X121952380Y-52095238D01*
X122000000Y-52000000D01*
X122095238Y-51904761D01*
X122285714Y-51857142D01*
X122619047Y-51857142D01*
X122809523Y-51904761D01*
X122904761Y-52000000D01*
X122952380Y-52095238D01*
X122952380Y-52285714D01*
X122904761Y-52380952D01*
X122809523Y-52476190D01*
X122619047Y-52523809D01*
X122285714Y-52523809D01*
X122095238Y-52476190D01*
X122000000Y-52380952D01*
X121952380Y-52285714D01*
X121952380Y-51571428D02*
X121952380Y-51000000D01*
X122952380Y-51285714D02*
X121952380Y-51285714D01*
X121952380Y-50476190D02*
X121952380Y-50285714D01*
X122000000Y-50190476D01*
X122095238Y-50095238D01*
X122285714Y-50047619D01*
X122619047Y-50047619D01*
X122809523Y-50095238D01*
X122904761Y-50190476D01*
X122952380Y-50285714D01*
X122952380Y-50476190D01*
X122904761Y-50571428D01*
X122809523Y-50666666D01*
X122619047Y-50714285D01*
X122285714Y-50714285D01*
X122095238Y-50666666D01*
X122000000Y-50571428D01*
X121952380Y-50476190D01*
X122952380Y-49047619D02*
X122476190Y-49380952D01*
X122952380Y-49619047D02*
X121952380Y-49619047D01*
X121952380Y-49238095D01*
X122000000Y-49142857D01*
X122047619Y-49095238D01*
X122142857Y-49047619D01*
X122285714Y-49047619D01*
X122380952Y-49095238D01*
X122428571Y-49142857D01*
X122476190Y-49238095D01*
X122476190Y-49619047D01*
X123047619Y-48857142D02*
X123047619Y-48095238D01*
X121952380Y-47952380D02*
X122952380Y-47285714D01*
X121952380Y-47285714D02*
X122952380Y-47952380D01*
X122952380Y-61095238D02*
X121952380Y-61095238D01*
X122666666Y-60761904D01*
X121952380Y-60428571D01*
X122952380Y-60428571D01*
X121952380Y-59761904D02*
X121952380Y-59571428D01*
X122000000Y-59476190D01*
X122095238Y-59380952D01*
X122285714Y-59333333D01*
X122619047Y-59333333D01*
X122809523Y-59380952D01*
X122904761Y-59476190D01*
X122952380Y-59571428D01*
X122952380Y-59761904D01*
X122904761Y-59857142D01*
X122809523Y-59952380D01*
X122619047Y-60000000D01*
X122285714Y-60000000D01*
X122095238Y-59952380D01*
X122000000Y-59857142D01*
X121952380Y-59761904D01*
X121952380Y-59047619D02*
X121952380Y-58476190D01*
X122952380Y-58761904D02*
X121952380Y-58761904D01*
X121952380Y-57952380D02*
X121952380Y-57761904D01*
X122000000Y-57666666D01*
X122095238Y-57571428D01*
X122285714Y-57523809D01*
X122619047Y-57523809D01*
X122809523Y-57571428D01*
X122904761Y-57666666D01*
X122952380Y-57761904D01*
X122952380Y-57952380D01*
X122904761Y-58047619D01*
X122809523Y-58142857D01*
X122619047Y-58190476D01*
X122285714Y-58190476D01*
X122095238Y-58142857D01*
X122000000Y-58047619D01*
X121952380Y-57952380D01*
X122952380Y-56523809D02*
X122476190Y-56857142D01*
X122952380Y-57095238D02*
X121952380Y-57095238D01*
X121952380Y-56714285D01*
X122000000Y-56619047D01*
X122047619Y-56571428D01*
X122142857Y-56523809D01*
X122285714Y-56523809D01*
X122380952Y-56571428D01*
X122428571Y-56619047D01*
X122476190Y-56714285D01*
X122476190Y-57095238D01*
X123047619Y-56333333D02*
X123047619Y-55571428D01*
X122428571Y-55333333D02*
X122428571Y-55000000D01*
X122952380Y-54857142D02*
X122952380Y-55333333D01*
X121952380Y-55333333D01*
X121952380Y-54857142D01*
X129502380Y-94642857D02*
X129502380Y-95119047D01*
X128502380Y-95119047D01*
X128978571Y-94309523D02*
X128978571Y-93976190D01*
X129502380Y-93833333D02*
X129502380Y-94309523D01*
X128502380Y-94309523D01*
X128502380Y-93833333D01*
X129502380Y-93404761D02*
X128502380Y-93404761D01*
X128502380Y-93166666D01*
X128550000Y-93023809D01*
X128645238Y-92928571D01*
X128740476Y-92880952D01*
X128930952Y-92833333D01*
X129073809Y-92833333D01*
X129264285Y-92880952D01*
X129359523Y-92928571D01*
X129454761Y-93023809D01*
X129502380Y-93166666D01*
X129502380Y-93404761D01*
X142440476Y-82002380D02*
X142440476Y-81002380D01*
X142440476Y-81478571D02*
X143011904Y-81478571D01*
X143011904Y-82002380D02*
X143011904Y-81002380D01*
X143488095Y-81478571D02*
X143821428Y-81478571D01*
X143964285Y-82002380D02*
X143488095Y-82002380D01*
X143488095Y-81002380D01*
X143964285Y-81002380D01*
X144345238Y-81716666D02*
X144821428Y-81716666D01*
X144250000Y-82002380D02*
X144583333Y-81002380D01*
X144916666Y-82002380D01*
X145107142Y-81002380D02*
X145678571Y-81002380D01*
X145392857Y-82002380D02*
X145392857Y-81002380D01*
X145773809Y-82097619D02*
X146535714Y-82097619D01*
X147107142Y-81478571D02*
X146773809Y-81478571D01*
X146773809Y-82002380D02*
X146773809Y-81002380D01*
X147250000Y-81002380D01*
X147583333Y-81716666D02*
X148059523Y-81716666D01*
X147488095Y-82002380D02*
X147821428Y-81002380D01*
X148154761Y-82002380D01*
X148488095Y-82002380D02*
X148488095Y-81002380D01*
X149059523Y-82002380D01*
X149059523Y-81002380D01*
X113972380Y-55952380D02*
X113972380Y-54952380D01*
X113972380Y-55428571D02*
X114543809Y-55428571D01*
X114543809Y-55952380D02*
X114543809Y-54952380D01*
X115020000Y-55428571D02*
X115353333Y-55428571D01*
X115496190Y-55952380D02*
X115020000Y-55952380D01*
X115020000Y-54952380D01*
X115496190Y-54952380D01*
X115877142Y-55666666D02*
X116353333Y-55666666D01*
X115781904Y-55952380D02*
X116115238Y-54952380D01*
X116448571Y-55952380D01*
X116639047Y-54952380D02*
X117210476Y-54952380D01*
X116924761Y-55952380D02*
X116924761Y-54952380D01*
X128978571Y-85309523D02*
X128978571Y-85642857D01*
X129502380Y-85642857D02*
X128502380Y-85642857D01*
X128502380Y-85166666D01*
X129502380Y-84785714D02*
X128502380Y-84785714D01*
X129502380Y-83833333D02*
X129502380Y-84309523D01*
X128502380Y-84309523D01*
X129597619Y-83738095D02*
X129597619Y-82976190D01*
X129454761Y-82785714D02*
X129502380Y-82642857D01*
X129502380Y-82404761D01*
X129454761Y-82309523D01*
X129407142Y-82261904D01*
X129311904Y-82214285D01*
X129216666Y-82214285D01*
X129121428Y-82261904D01*
X129073809Y-82309523D01*
X129026190Y-82404761D01*
X128978571Y-82595238D01*
X128930952Y-82690476D01*
X128883333Y-82738095D01*
X128788095Y-82785714D01*
X128692857Y-82785714D01*
X128597619Y-82738095D01*
X128550000Y-82690476D01*
X128502380Y-82595238D01*
X128502380Y-82357142D01*
X128550000Y-82214285D01*
X128978571Y-81785714D02*
X128978571Y-81452380D01*
X129502380Y-81309523D02*
X129502380Y-81785714D01*
X128502380Y-81785714D01*
X128502380Y-81309523D01*
X129502380Y-80880952D02*
X128502380Y-80880952D01*
X129502380Y-80309523D01*
X128502380Y-80309523D01*
X129454761Y-79880952D02*
X129502380Y-79738095D01*
X129502380Y-79500000D01*
X129454761Y-79404761D01*
X129407142Y-79357142D01*
X129311904Y-79309523D01*
X129216666Y-79309523D01*
X129121428Y-79357142D01*
X129073809Y-79404761D01*
X129026190Y-79500000D01*
X128978571Y-79690476D01*
X128930952Y-79785714D01*
X128883333Y-79833333D01*
X128788095Y-79880952D01*
X128692857Y-79880952D01*
X128597619Y-79833333D01*
X128550000Y-79785714D01*
X128502380Y-79690476D01*
X128502380Y-79452380D01*
X128550000Y-79309523D01*
X127083333Y-64378571D02*
X127226190Y-64426190D01*
X127273809Y-64473809D01*
X127321428Y-64569047D01*
X127321428Y-64711904D01*
X127273809Y-64807142D01*
X127226190Y-64854761D01*
X127130952Y-64902380D01*
X126750000Y-64902380D01*
X126750000Y-63902380D01*
X127083333Y-63902380D01*
X127178571Y-63950000D01*
X127226190Y-63997619D01*
X127273809Y-64092857D01*
X127273809Y-64188095D01*
X127226190Y-64283333D01*
X127178571Y-64330952D01*
X127083333Y-64378571D01*
X126750000Y-64378571D01*
X128226190Y-64902380D02*
X127750000Y-64902380D01*
X127750000Y-63902380D01*
X128321428Y-64997619D02*
X129083333Y-64997619D01*
X129178571Y-63902380D02*
X129750000Y-63902380D01*
X129464285Y-64902380D02*
X129464285Y-63902380D01*
X130273809Y-63902380D02*
X130464285Y-63902380D01*
X130559523Y-63950000D01*
X130654761Y-64045238D01*
X130702380Y-64235714D01*
X130702380Y-64569047D01*
X130654761Y-64759523D01*
X130559523Y-64854761D01*
X130464285Y-64902380D01*
X130273809Y-64902380D01*
X130178571Y-64854761D01*
X130083333Y-64759523D01*
X130035714Y-64569047D01*
X130035714Y-64235714D01*
X130083333Y-64045238D01*
X130178571Y-63950000D01*
X130273809Y-63902380D01*
X131130952Y-63902380D02*
X131130952Y-64711904D01*
X131178571Y-64807142D01*
X131226190Y-64854761D01*
X131321428Y-64902380D01*
X131511904Y-64902380D01*
X131607142Y-64854761D01*
X131654761Y-64807142D01*
X131702380Y-64711904D01*
X131702380Y-63902380D01*
X132750000Y-64807142D02*
X132702380Y-64854761D01*
X132559523Y-64902380D01*
X132464285Y-64902380D01*
X132321428Y-64854761D01*
X132226190Y-64759523D01*
X132178571Y-64664285D01*
X132130952Y-64473809D01*
X132130952Y-64330952D01*
X132178571Y-64140476D01*
X132226190Y-64045238D01*
X132321428Y-63950000D01*
X132464285Y-63902380D01*
X132559523Y-63902380D01*
X132702380Y-63950000D01*
X132750000Y-63997619D01*
X133178571Y-64902380D02*
X133178571Y-63902380D01*
X133178571Y-64378571D02*
X133750000Y-64378571D01*
X133750000Y-64902380D02*
X133750000Y-63902380D01*
M02*
