G04 #@! TF.GenerationSoftware,KiCad,Pcbnew,(5.1.4-0-10_14)*
G04 #@! TF.CreationDate,2019-10-10T23:16:06+03:00*
G04 #@! TF.ProjectId,Transfer_Board,5472616e-7366-4657-925f-426f6172642e,rev?*
G04 #@! TF.SameCoordinates,Original*
G04 #@! TF.FileFunction,Soldermask,Top*
G04 #@! TF.FilePolarity,Negative*
%FSLAX46Y46*%
G04 Gerber Fmt 4.6, Leading zero omitted, Abs format (unit mm)*
G04 Created by KiCad (PCBNEW (5.1.4-0-10_14)) date 2019-10-10 23:16:06*
%MOMM*%
%LPD*%
G04 APERTURE LIST*
%ADD10C,0.100000*%
G04 APERTURE END LIST*
D10*
G36*
X125735442Y-95605518D02*
G01*
X125801627Y-95612037D01*
X125971466Y-95663557D01*
X126127991Y-95747222D01*
X126163729Y-95776552D01*
X126265186Y-95859814D01*
X126348448Y-95961271D01*
X126377778Y-95997009D01*
X126461443Y-96153534D01*
X126512963Y-96323373D01*
X126530359Y-96500000D01*
X126512963Y-96676627D01*
X126461443Y-96846466D01*
X126377778Y-97002991D01*
X126348448Y-97038729D01*
X126265186Y-97140186D01*
X126163729Y-97223448D01*
X126127991Y-97252778D01*
X125971466Y-97336443D01*
X125801627Y-97387963D01*
X125735443Y-97394481D01*
X125669260Y-97401000D01*
X125330740Y-97401000D01*
X125264557Y-97394481D01*
X125198373Y-97387963D01*
X125028534Y-97336443D01*
X124872009Y-97252778D01*
X124836271Y-97223448D01*
X124734814Y-97140186D01*
X124651552Y-97038729D01*
X124622222Y-97002991D01*
X124538557Y-96846466D01*
X124487037Y-96676627D01*
X124469641Y-96500000D01*
X124487037Y-96323373D01*
X124538557Y-96153534D01*
X124622222Y-95997009D01*
X124651552Y-95961271D01*
X124734814Y-95859814D01*
X124836271Y-95776552D01*
X124872009Y-95747222D01*
X125028534Y-95663557D01*
X125198373Y-95612037D01*
X125264557Y-95605519D01*
X125330740Y-95599000D01*
X125669260Y-95599000D01*
X125735442Y-95605518D01*
X125735442Y-95605518D01*
G37*
G36*
X116344098Y-90447033D02*
G01*
X116763001Y-90620548D01*
X116808352Y-90639333D01*
X117226168Y-90918509D01*
X117581491Y-91273832D01*
X117852412Y-91679294D01*
X117860668Y-91691650D01*
X118052967Y-92155902D01*
X118151000Y-92648747D01*
X118151000Y-93151253D01*
X118052967Y-93644098D01*
X118049059Y-93653532D01*
X117860667Y-94108352D01*
X117581491Y-94526168D01*
X117226168Y-94881491D01*
X116808352Y-95160667D01*
X116808351Y-95160668D01*
X116808350Y-95160668D01*
X116344098Y-95352967D01*
X115851253Y-95451000D01*
X115348747Y-95451000D01*
X114855902Y-95352967D01*
X114391650Y-95160668D01*
X114391649Y-95160668D01*
X114391648Y-95160667D01*
X113973832Y-94881491D01*
X113618509Y-94526168D01*
X113339333Y-94108352D01*
X113150941Y-93653532D01*
X113147033Y-93644098D01*
X113049000Y-93151253D01*
X113049000Y-92648747D01*
X113147033Y-92155902D01*
X113339332Y-91691650D01*
X113347588Y-91679294D01*
X113618509Y-91273832D01*
X113973832Y-90918509D01*
X114391648Y-90639333D01*
X114436999Y-90620548D01*
X114855902Y-90447033D01*
X115348747Y-90349000D01*
X115851253Y-90349000D01*
X116344098Y-90447033D01*
X116344098Y-90447033D01*
G37*
G36*
X125735442Y-93105518D02*
G01*
X125801627Y-93112037D01*
X125971466Y-93163557D01*
X126127991Y-93247222D01*
X126163729Y-93276552D01*
X126265186Y-93359814D01*
X126348448Y-93461271D01*
X126377778Y-93497009D01*
X126461443Y-93653534D01*
X126512963Y-93823373D01*
X126530359Y-94000000D01*
X126512963Y-94176627D01*
X126461443Y-94346466D01*
X126377778Y-94502991D01*
X126358758Y-94526167D01*
X126265186Y-94640186D01*
X126163729Y-94723448D01*
X126127991Y-94752778D01*
X125971466Y-94836443D01*
X125801627Y-94887963D01*
X125735443Y-94894481D01*
X125669260Y-94901000D01*
X125330740Y-94901000D01*
X125264557Y-94894481D01*
X125198373Y-94887963D01*
X125028534Y-94836443D01*
X124872009Y-94752778D01*
X124836271Y-94723448D01*
X124734814Y-94640186D01*
X124641242Y-94526167D01*
X124622222Y-94502991D01*
X124538557Y-94346466D01*
X124487037Y-94176627D01*
X124469641Y-94000000D01*
X124487037Y-93823373D01*
X124538557Y-93653534D01*
X124622222Y-93497009D01*
X124651552Y-93461271D01*
X124734814Y-93359814D01*
X124836271Y-93276552D01*
X124872009Y-93247222D01*
X125028534Y-93163557D01*
X125198373Y-93112037D01*
X125264558Y-93105518D01*
X125330740Y-93099000D01*
X125669260Y-93099000D01*
X125735442Y-93105518D01*
X125735442Y-93105518D01*
G37*
G36*
X107766778Y-90620547D02*
G01*
X107933224Y-90689491D01*
X108083022Y-90789583D01*
X108210417Y-90916978D01*
X108310509Y-91066776D01*
X108379453Y-91233222D01*
X108414600Y-91409918D01*
X108414600Y-91590082D01*
X108379453Y-91766778D01*
X108310509Y-91933224D01*
X108210417Y-92083022D01*
X108083022Y-92210417D01*
X107933224Y-92310509D01*
X107766778Y-92379453D01*
X107590082Y-92414600D01*
X107409918Y-92414600D01*
X107233222Y-92379453D01*
X107066776Y-92310509D01*
X106916978Y-92210417D01*
X106789583Y-92083022D01*
X106689491Y-91933224D01*
X106620547Y-91766778D01*
X106585400Y-91590082D01*
X106585400Y-91409918D01*
X106620547Y-91233222D01*
X106689491Y-91066776D01*
X106789583Y-90916978D01*
X106916978Y-90789583D01*
X107066776Y-90689491D01*
X107233222Y-90620547D01*
X107409918Y-90585400D01*
X107590082Y-90585400D01*
X107766778Y-90620547D01*
X107766778Y-90620547D01*
G37*
G36*
X105139294Y-90598633D02*
G01*
X105311695Y-90650931D01*
X105470583Y-90735858D01*
X105609849Y-90850151D01*
X105724142Y-90989417D01*
X105809069Y-91148305D01*
X105861367Y-91320706D01*
X105879025Y-91500000D01*
X105861367Y-91679294D01*
X105809069Y-91851695D01*
X105724142Y-92010583D01*
X105609849Y-92149849D01*
X105470583Y-92264142D01*
X105311695Y-92349069D01*
X105139294Y-92401367D01*
X105004931Y-92414600D01*
X104915069Y-92414600D01*
X104780706Y-92401367D01*
X104608305Y-92349069D01*
X104449417Y-92264142D01*
X104310151Y-92149849D01*
X104195858Y-92010583D01*
X104110931Y-91851695D01*
X104058633Y-91679294D01*
X104040975Y-91500000D01*
X104058633Y-91320706D01*
X104110931Y-91148305D01*
X104195858Y-90989417D01*
X104310151Y-90850151D01*
X104449417Y-90735858D01*
X104608305Y-90650931D01*
X104780706Y-90598633D01*
X104915069Y-90585400D01*
X105004931Y-90585400D01*
X105139294Y-90598633D01*
X105139294Y-90598633D01*
G37*
G36*
X126383600Y-90602989D02*
G01*
X126416652Y-90613015D01*
X126447103Y-90629292D01*
X126473799Y-90651201D01*
X126495708Y-90677897D01*
X126511985Y-90708348D01*
X126522011Y-90741400D01*
X126526000Y-90781903D01*
X126526000Y-92218097D01*
X126522011Y-92258600D01*
X126511985Y-92291652D01*
X126495708Y-92322103D01*
X126473799Y-92348799D01*
X126447103Y-92370708D01*
X126416652Y-92386985D01*
X126383600Y-92397011D01*
X126343097Y-92401000D01*
X124656903Y-92401000D01*
X124616400Y-92397011D01*
X124583348Y-92386985D01*
X124552897Y-92370708D01*
X124526201Y-92348799D01*
X124504292Y-92322103D01*
X124488015Y-92291652D01*
X124477989Y-92258600D01*
X124474000Y-92218097D01*
X124474000Y-90781903D01*
X124477989Y-90741400D01*
X124488015Y-90708348D01*
X124504292Y-90677897D01*
X124526201Y-90651201D01*
X124552897Y-90629292D01*
X124583348Y-90613015D01*
X124616400Y-90602989D01*
X124656903Y-90599000D01*
X126343097Y-90599000D01*
X126383600Y-90602989D01*
X126383600Y-90602989D01*
G37*
G36*
X107679294Y-88058633D02*
G01*
X107851695Y-88110931D01*
X108010583Y-88195858D01*
X108149849Y-88310151D01*
X108264142Y-88449417D01*
X108349069Y-88608305D01*
X108401367Y-88780706D01*
X108419025Y-88960000D01*
X108401367Y-89139294D01*
X108349069Y-89311695D01*
X108264142Y-89470583D01*
X108149849Y-89609849D01*
X108010583Y-89724142D01*
X107851695Y-89809069D01*
X107679294Y-89861367D01*
X107544931Y-89874600D01*
X107455069Y-89874600D01*
X107320706Y-89861367D01*
X107148305Y-89809069D01*
X106989417Y-89724142D01*
X106850151Y-89609849D01*
X106735858Y-89470583D01*
X106650931Y-89311695D01*
X106598633Y-89139294D01*
X106580975Y-88960000D01*
X106598633Y-88780706D01*
X106650931Y-88608305D01*
X106735858Y-88449417D01*
X106850151Y-88310151D01*
X106989417Y-88195858D01*
X107148305Y-88110931D01*
X107320706Y-88058633D01*
X107455069Y-88045400D01*
X107544931Y-88045400D01*
X107679294Y-88058633D01*
X107679294Y-88058633D01*
G37*
G36*
X105139294Y-88058633D02*
G01*
X105311695Y-88110931D01*
X105470583Y-88195858D01*
X105609849Y-88310151D01*
X105724142Y-88449417D01*
X105809069Y-88608305D01*
X105861367Y-88780706D01*
X105879025Y-88960000D01*
X105861367Y-89139294D01*
X105809069Y-89311695D01*
X105724142Y-89470583D01*
X105609849Y-89609849D01*
X105470583Y-89724142D01*
X105311695Y-89809069D01*
X105139294Y-89861367D01*
X105004931Y-89874600D01*
X104915069Y-89874600D01*
X104780706Y-89861367D01*
X104608305Y-89809069D01*
X104449417Y-89724142D01*
X104310151Y-89609849D01*
X104195858Y-89470583D01*
X104110931Y-89311695D01*
X104058633Y-89139294D01*
X104040975Y-88960000D01*
X104058633Y-88780706D01*
X104110931Y-88608305D01*
X104195858Y-88449417D01*
X104310151Y-88310151D01*
X104449417Y-88195858D01*
X104608305Y-88110931D01*
X104780706Y-88058633D01*
X104915069Y-88045400D01*
X105004931Y-88045400D01*
X105139294Y-88058633D01*
X105139294Y-88058633D01*
G37*
G36*
X135176627Y-86462037D02*
G01*
X135346466Y-86513557D01*
X135502991Y-86597222D01*
X135538729Y-86626552D01*
X135640186Y-86709814D01*
X135690970Y-86771696D01*
X135752778Y-86847009D01*
X135836443Y-87003534D01*
X135887963Y-87173374D01*
X135901000Y-87305743D01*
X135901000Y-87694258D01*
X135887963Y-87826627D01*
X135836443Y-87996466D01*
X135752778Y-88152991D01*
X135723448Y-88188729D01*
X135640186Y-88290186D01*
X135502989Y-88402779D01*
X135346467Y-88486442D01*
X135346465Y-88486443D01*
X135176626Y-88537963D01*
X135000000Y-88555359D01*
X134823373Y-88537963D01*
X134653534Y-88486443D01*
X134497009Y-88402778D01*
X134454750Y-88368097D01*
X134359814Y-88290186D01*
X134247221Y-88152989D01*
X134163558Y-87996467D01*
X134163557Y-87996465D01*
X134112037Y-87826626D01*
X134099000Y-87694257D01*
X134099000Y-87305742D01*
X134112037Y-87173373D01*
X134163557Y-87003534D01*
X134247222Y-86847009D01*
X134359815Y-86709815D01*
X134497010Y-86597222D01*
X134653535Y-86513557D01*
X134823374Y-86462037D01*
X135000000Y-86444641D01*
X135176627Y-86462037D01*
X135176627Y-86462037D01*
G37*
G36*
X144676627Y-86462037D02*
G01*
X144846466Y-86513557D01*
X145002991Y-86597222D01*
X145038729Y-86626552D01*
X145140186Y-86709814D01*
X145190970Y-86771696D01*
X145252778Y-86847009D01*
X145336443Y-87003534D01*
X145387963Y-87173374D01*
X145401000Y-87305743D01*
X145401000Y-87694258D01*
X145387963Y-87826627D01*
X145336443Y-87996466D01*
X145252778Y-88152991D01*
X145223448Y-88188729D01*
X145140186Y-88290186D01*
X145002989Y-88402779D01*
X144846467Y-88486442D01*
X144846465Y-88486443D01*
X144676626Y-88537963D01*
X144500000Y-88555359D01*
X144323373Y-88537963D01*
X144153534Y-88486443D01*
X143997009Y-88402778D01*
X143954750Y-88368097D01*
X143859814Y-88290186D01*
X143747221Y-88152989D01*
X143663558Y-87996467D01*
X143663557Y-87996465D01*
X143612037Y-87826626D01*
X143599000Y-87694257D01*
X143599000Y-87305742D01*
X143612037Y-87173373D01*
X143663557Y-87003534D01*
X143747222Y-86847009D01*
X143859815Y-86709815D01*
X143997010Y-86597222D01*
X144153535Y-86513557D01*
X144323374Y-86462037D01*
X144500000Y-86444641D01*
X144676627Y-86462037D01*
X144676627Y-86462037D01*
G37*
G36*
X147758600Y-86452989D02*
G01*
X147791652Y-86463015D01*
X147822103Y-86479292D01*
X147848799Y-86501201D01*
X147870708Y-86527897D01*
X147886985Y-86558348D01*
X147897011Y-86591400D01*
X147901000Y-86631903D01*
X147901000Y-88368097D01*
X147897011Y-88408600D01*
X147886985Y-88441652D01*
X147870708Y-88472103D01*
X147848799Y-88498799D01*
X147822103Y-88520708D01*
X147791652Y-88536985D01*
X147758600Y-88547011D01*
X147718097Y-88551000D01*
X146281903Y-88551000D01*
X146241400Y-88547011D01*
X146208348Y-88536985D01*
X146177897Y-88520708D01*
X146151201Y-88498799D01*
X146129292Y-88472103D01*
X146113015Y-88441652D01*
X146102989Y-88408600D01*
X146099000Y-88368097D01*
X146099000Y-86631903D01*
X146102989Y-86591400D01*
X146113015Y-86558348D01*
X146129292Y-86527897D01*
X146151201Y-86501201D01*
X146177897Y-86479292D01*
X146208348Y-86463015D01*
X146241400Y-86452989D01*
X146281903Y-86449000D01*
X147718097Y-86449000D01*
X147758600Y-86452989D01*
X147758600Y-86452989D01*
G37*
G36*
X138258600Y-86452989D02*
G01*
X138291652Y-86463015D01*
X138322103Y-86479292D01*
X138348799Y-86501201D01*
X138370708Y-86527897D01*
X138386985Y-86558348D01*
X138397011Y-86591400D01*
X138401000Y-86631903D01*
X138401000Y-88368097D01*
X138397011Y-88408600D01*
X138386985Y-88441652D01*
X138370708Y-88472103D01*
X138348799Y-88498799D01*
X138322103Y-88520708D01*
X138291652Y-88536985D01*
X138258600Y-88547011D01*
X138218097Y-88551000D01*
X136781903Y-88551000D01*
X136741400Y-88547011D01*
X136708348Y-88536985D01*
X136677897Y-88520708D01*
X136651201Y-88498799D01*
X136629292Y-88472103D01*
X136613015Y-88441652D01*
X136602989Y-88408600D01*
X136599000Y-88368097D01*
X136599000Y-86631903D01*
X136602989Y-86591400D01*
X136613015Y-86558348D01*
X136629292Y-86527897D01*
X136651201Y-86501201D01*
X136677897Y-86479292D01*
X136708348Y-86463015D01*
X136741400Y-86452989D01*
X136781903Y-86449000D01*
X138218097Y-86449000D01*
X138258600Y-86452989D01*
X138258600Y-86452989D01*
G37*
G36*
X107679294Y-85518633D02*
G01*
X107851695Y-85570931D01*
X108010583Y-85655858D01*
X108149849Y-85770151D01*
X108264142Y-85909417D01*
X108349069Y-86068305D01*
X108401367Y-86240706D01*
X108419025Y-86420000D01*
X108401367Y-86599294D01*
X108349069Y-86771695D01*
X108264142Y-86930583D01*
X108149849Y-87069849D01*
X108010583Y-87184142D01*
X107851695Y-87269069D01*
X107679294Y-87321367D01*
X107544931Y-87334600D01*
X107455069Y-87334600D01*
X107320706Y-87321367D01*
X107148305Y-87269069D01*
X106989417Y-87184142D01*
X106850151Y-87069849D01*
X106735858Y-86930583D01*
X106650931Y-86771695D01*
X106598633Y-86599294D01*
X106580975Y-86420000D01*
X106598633Y-86240706D01*
X106650931Y-86068305D01*
X106735858Y-85909417D01*
X106850151Y-85770151D01*
X106989417Y-85655858D01*
X107148305Y-85570931D01*
X107320706Y-85518633D01*
X107455069Y-85505400D01*
X107544931Y-85505400D01*
X107679294Y-85518633D01*
X107679294Y-85518633D01*
G37*
G36*
X105139294Y-85518633D02*
G01*
X105311695Y-85570931D01*
X105470583Y-85655858D01*
X105609849Y-85770151D01*
X105724142Y-85909417D01*
X105809069Y-86068305D01*
X105861367Y-86240706D01*
X105879025Y-86420000D01*
X105861367Y-86599294D01*
X105809069Y-86771695D01*
X105724142Y-86930583D01*
X105609849Y-87069849D01*
X105470583Y-87184142D01*
X105311695Y-87269069D01*
X105139294Y-87321367D01*
X105004931Y-87334600D01*
X104915069Y-87334600D01*
X104780706Y-87321367D01*
X104608305Y-87269069D01*
X104449417Y-87184142D01*
X104310151Y-87069849D01*
X104195858Y-86930583D01*
X104110931Y-86771695D01*
X104058633Y-86599294D01*
X104040975Y-86420000D01*
X104058633Y-86240706D01*
X104110931Y-86068305D01*
X104195858Y-85909417D01*
X104310151Y-85770151D01*
X104449417Y-85655858D01*
X104608305Y-85570931D01*
X104780706Y-85518633D01*
X104915069Y-85505400D01*
X105004931Y-85505400D01*
X105139294Y-85518633D01*
X105139294Y-85518633D01*
G37*
G36*
X125735443Y-84105519D02*
G01*
X125801627Y-84112037D01*
X125971466Y-84163557D01*
X126127991Y-84247222D01*
X126163729Y-84276552D01*
X126265186Y-84359814D01*
X126348448Y-84461271D01*
X126377778Y-84497009D01*
X126461443Y-84653534D01*
X126512963Y-84823373D01*
X126530359Y-85000000D01*
X126512963Y-85176627D01*
X126461443Y-85346466D01*
X126377778Y-85502991D01*
X126364940Y-85518634D01*
X126265186Y-85640186D01*
X126163729Y-85723448D01*
X126127991Y-85752778D01*
X125971466Y-85836443D01*
X125801627Y-85887963D01*
X125735443Y-85894481D01*
X125669260Y-85901000D01*
X125330740Y-85901000D01*
X125264557Y-85894481D01*
X125198373Y-85887963D01*
X125028534Y-85836443D01*
X124872009Y-85752778D01*
X124836271Y-85723448D01*
X124734814Y-85640186D01*
X124635060Y-85518634D01*
X124622222Y-85502991D01*
X124538557Y-85346466D01*
X124487037Y-85176627D01*
X124469641Y-85000000D01*
X124487037Y-84823373D01*
X124538557Y-84653534D01*
X124622222Y-84497009D01*
X124651552Y-84461271D01*
X124734814Y-84359814D01*
X124836271Y-84276552D01*
X124872009Y-84247222D01*
X125028534Y-84163557D01*
X125198373Y-84112037D01*
X125264557Y-84105519D01*
X125330740Y-84099000D01*
X125669260Y-84099000D01*
X125735443Y-84105519D01*
X125735443Y-84105519D01*
G37*
G36*
X105139294Y-82978633D02*
G01*
X105311695Y-83030931D01*
X105470583Y-83115858D01*
X105609849Y-83230151D01*
X105724142Y-83369417D01*
X105809069Y-83528305D01*
X105861367Y-83700706D01*
X105879025Y-83880000D01*
X105861367Y-84059294D01*
X105809069Y-84231695D01*
X105724142Y-84390583D01*
X105609849Y-84529849D01*
X105470583Y-84644142D01*
X105311695Y-84729069D01*
X105139294Y-84781367D01*
X105004931Y-84794600D01*
X104915069Y-84794600D01*
X104780706Y-84781367D01*
X104608305Y-84729069D01*
X104449417Y-84644142D01*
X104310151Y-84529849D01*
X104195858Y-84390583D01*
X104110931Y-84231695D01*
X104058633Y-84059294D01*
X104040975Y-83880000D01*
X104058633Y-83700706D01*
X104110931Y-83528305D01*
X104195858Y-83369417D01*
X104310151Y-83230151D01*
X104449417Y-83115858D01*
X104608305Y-83030931D01*
X104780706Y-82978633D01*
X104915069Y-82965400D01*
X105004931Y-82965400D01*
X105139294Y-82978633D01*
X105139294Y-82978633D01*
G37*
G36*
X107679294Y-82978633D02*
G01*
X107851695Y-83030931D01*
X108010583Y-83115858D01*
X108149849Y-83230151D01*
X108264142Y-83369417D01*
X108349069Y-83528305D01*
X108401367Y-83700706D01*
X108419025Y-83880000D01*
X108401367Y-84059294D01*
X108349069Y-84231695D01*
X108264142Y-84390583D01*
X108149849Y-84529849D01*
X108010583Y-84644142D01*
X107851695Y-84729069D01*
X107679294Y-84781367D01*
X107544931Y-84794600D01*
X107455069Y-84794600D01*
X107320706Y-84781367D01*
X107148305Y-84729069D01*
X106989417Y-84644142D01*
X106850151Y-84529849D01*
X106735858Y-84390583D01*
X106650931Y-84231695D01*
X106598633Y-84059294D01*
X106580975Y-83880000D01*
X106598633Y-83700706D01*
X106650931Y-83528305D01*
X106735858Y-83369417D01*
X106850151Y-83230151D01*
X106989417Y-83115858D01*
X107148305Y-83030931D01*
X107320706Y-82978633D01*
X107455069Y-82965400D01*
X107544931Y-82965400D01*
X107679294Y-82978633D01*
X107679294Y-82978633D01*
G37*
G36*
X125735442Y-81605518D02*
G01*
X125801627Y-81612037D01*
X125971466Y-81663557D01*
X126127991Y-81747222D01*
X126163729Y-81776552D01*
X126265186Y-81859814D01*
X126348448Y-81961271D01*
X126377778Y-81997009D01*
X126461443Y-82153534D01*
X126512963Y-82323373D01*
X126530359Y-82500000D01*
X126512963Y-82676627D01*
X126461443Y-82846466D01*
X126377778Y-83002991D01*
X126354848Y-83030931D01*
X126265186Y-83140186D01*
X126163729Y-83223448D01*
X126127991Y-83252778D01*
X125971466Y-83336443D01*
X125801627Y-83387963D01*
X125735443Y-83394481D01*
X125669260Y-83401000D01*
X125330740Y-83401000D01*
X125264557Y-83394481D01*
X125198373Y-83387963D01*
X125028534Y-83336443D01*
X124872009Y-83252778D01*
X124836271Y-83223448D01*
X124734814Y-83140186D01*
X124645152Y-83030931D01*
X124622222Y-83002991D01*
X124538557Y-82846466D01*
X124487037Y-82676627D01*
X124469641Y-82500000D01*
X124487037Y-82323373D01*
X124538557Y-82153534D01*
X124622222Y-81997009D01*
X124651552Y-81961271D01*
X124734814Y-81859814D01*
X124836271Y-81776552D01*
X124872009Y-81747222D01*
X125028534Y-81663557D01*
X125198373Y-81612037D01*
X125264558Y-81605518D01*
X125330740Y-81599000D01*
X125669260Y-81599000D01*
X125735442Y-81605518D01*
X125735442Y-81605518D01*
G37*
G36*
X105139294Y-80438633D02*
G01*
X105311695Y-80490931D01*
X105470583Y-80575858D01*
X105609849Y-80690151D01*
X105724142Y-80829417D01*
X105809069Y-80988305D01*
X105861367Y-81160706D01*
X105879025Y-81340000D01*
X105861367Y-81519294D01*
X105809069Y-81691695D01*
X105724142Y-81850583D01*
X105609849Y-81989849D01*
X105470583Y-82104142D01*
X105311695Y-82189069D01*
X105139294Y-82241367D01*
X105004931Y-82254600D01*
X104915069Y-82254600D01*
X104780706Y-82241367D01*
X104608305Y-82189069D01*
X104449417Y-82104142D01*
X104310151Y-81989849D01*
X104195858Y-81850583D01*
X104110931Y-81691695D01*
X104058633Y-81519294D01*
X104040975Y-81340000D01*
X104058633Y-81160706D01*
X104110931Y-80988305D01*
X104195858Y-80829417D01*
X104310151Y-80690151D01*
X104449417Y-80575858D01*
X104608305Y-80490931D01*
X104780706Y-80438633D01*
X104915069Y-80425400D01*
X105004931Y-80425400D01*
X105139294Y-80438633D01*
X105139294Y-80438633D01*
G37*
G36*
X107679294Y-80438633D02*
G01*
X107851695Y-80490931D01*
X108010583Y-80575858D01*
X108149849Y-80690151D01*
X108264142Y-80829417D01*
X108349069Y-80988305D01*
X108401367Y-81160706D01*
X108419025Y-81340000D01*
X108401367Y-81519294D01*
X108349069Y-81691695D01*
X108264142Y-81850583D01*
X108149849Y-81989849D01*
X108010583Y-82104142D01*
X107851695Y-82189069D01*
X107679294Y-82241367D01*
X107544931Y-82254600D01*
X107455069Y-82254600D01*
X107320706Y-82241367D01*
X107148305Y-82189069D01*
X106989417Y-82104142D01*
X106850151Y-81989849D01*
X106735858Y-81850583D01*
X106650931Y-81691695D01*
X106598633Y-81519294D01*
X106580975Y-81340000D01*
X106598633Y-81160706D01*
X106650931Y-80988305D01*
X106735858Y-80829417D01*
X106850151Y-80690151D01*
X106989417Y-80575858D01*
X107148305Y-80490931D01*
X107320706Y-80438633D01*
X107455069Y-80425400D01*
X107544931Y-80425400D01*
X107679294Y-80438633D01*
X107679294Y-80438633D01*
G37*
G36*
X126383600Y-79102989D02*
G01*
X126416652Y-79113015D01*
X126447103Y-79129292D01*
X126473799Y-79151201D01*
X126495708Y-79177897D01*
X126511985Y-79208348D01*
X126522011Y-79241400D01*
X126526000Y-79281903D01*
X126526000Y-80718097D01*
X126522011Y-80758600D01*
X126511985Y-80791652D01*
X126495708Y-80822103D01*
X126473799Y-80848799D01*
X126447103Y-80870708D01*
X126416652Y-80886985D01*
X126383600Y-80897011D01*
X126343097Y-80901000D01*
X124656903Y-80901000D01*
X124616400Y-80897011D01*
X124583348Y-80886985D01*
X124552897Y-80870708D01*
X124526201Y-80848799D01*
X124504292Y-80822103D01*
X124488015Y-80791652D01*
X124477989Y-80758600D01*
X124474000Y-80718097D01*
X124474000Y-79281903D01*
X124477989Y-79241400D01*
X124488015Y-79208348D01*
X124504292Y-79177897D01*
X124526201Y-79151201D01*
X124552897Y-79129292D01*
X124583348Y-79113015D01*
X124616400Y-79102989D01*
X124656903Y-79099000D01*
X126343097Y-79099000D01*
X126383600Y-79102989D01*
X126383600Y-79102989D01*
G37*
G36*
X107679294Y-77898633D02*
G01*
X107851695Y-77950931D01*
X108010583Y-78035858D01*
X108149849Y-78150151D01*
X108264142Y-78289417D01*
X108349069Y-78448305D01*
X108401367Y-78620706D01*
X108419025Y-78800000D01*
X108401367Y-78979294D01*
X108349069Y-79151695D01*
X108264142Y-79310583D01*
X108149849Y-79449849D01*
X108010583Y-79564142D01*
X107851695Y-79649069D01*
X107679294Y-79701367D01*
X107544931Y-79714600D01*
X107455069Y-79714600D01*
X107320706Y-79701367D01*
X107148305Y-79649069D01*
X106989417Y-79564142D01*
X106850151Y-79449849D01*
X106735858Y-79310583D01*
X106650931Y-79151695D01*
X106598633Y-78979294D01*
X106580975Y-78800000D01*
X106598633Y-78620706D01*
X106650931Y-78448305D01*
X106735858Y-78289417D01*
X106850151Y-78150151D01*
X106989417Y-78035858D01*
X107148305Y-77950931D01*
X107320706Y-77898633D01*
X107455069Y-77885400D01*
X107544931Y-77885400D01*
X107679294Y-77898633D01*
X107679294Y-77898633D01*
G37*
G36*
X105139294Y-77898633D02*
G01*
X105311695Y-77950931D01*
X105470583Y-78035858D01*
X105609849Y-78150151D01*
X105724142Y-78289417D01*
X105809069Y-78448305D01*
X105861367Y-78620706D01*
X105879025Y-78800000D01*
X105861367Y-78979294D01*
X105809069Y-79151695D01*
X105724142Y-79310583D01*
X105609849Y-79449849D01*
X105470583Y-79564142D01*
X105311695Y-79649069D01*
X105139294Y-79701367D01*
X105004931Y-79714600D01*
X104915069Y-79714600D01*
X104780706Y-79701367D01*
X104608305Y-79649069D01*
X104449417Y-79564142D01*
X104310151Y-79449849D01*
X104195858Y-79310583D01*
X104110931Y-79151695D01*
X104058633Y-78979294D01*
X104040975Y-78800000D01*
X104058633Y-78620706D01*
X104110931Y-78448305D01*
X104195858Y-78289417D01*
X104310151Y-78150151D01*
X104449417Y-78035858D01*
X104608305Y-77950931D01*
X104780706Y-77898633D01*
X104915069Y-77885400D01*
X105004931Y-77885400D01*
X105139294Y-77898633D01*
X105139294Y-77898633D01*
G37*
G36*
X144676627Y-76962037D02*
G01*
X144846466Y-77013557D01*
X145002991Y-77097222D01*
X145038729Y-77126552D01*
X145140186Y-77209814D01*
X145223448Y-77311271D01*
X145252778Y-77347009D01*
X145336443Y-77503534D01*
X145387963Y-77673374D01*
X145401000Y-77805743D01*
X145401000Y-78194258D01*
X145387963Y-78326627D01*
X145336443Y-78496466D01*
X145252778Y-78652991D01*
X145223448Y-78688729D01*
X145140186Y-78790186D01*
X145002989Y-78902779D01*
X144859842Y-78979293D01*
X144846465Y-78986443D01*
X144676626Y-79037963D01*
X144500000Y-79055359D01*
X144323373Y-79037963D01*
X144153534Y-78986443D01*
X143997009Y-78902778D01*
X143954750Y-78868097D01*
X143859814Y-78790186D01*
X143747221Y-78652989D01*
X143663558Y-78496467D01*
X143648948Y-78448304D01*
X143612037Y-78326626D01*
X143599000Y-78194257D01*
X143599000Y-77805742D01*
X143612037Y-77673373D01*
X143663557Y-77503534D01*
X143747222Y-77347009D01*
X143859815Y-77209815D01*
X143997010Y-77097222D01*
X144153535Y-77013557D01*
X144323374Y-76962037D01*
X144500000Y-76944641D01*
X144676627Y-76962037D01*
X144676627Y-76962037D01*
G37*
G36*
X135176627Y-76962037D02*
G01*
X135346466Y-77013557D01*
X135502991Y-77097222D01*
X135538729Y-77126552D01*
X135640186Y-77209814D01*
X135723448Y-77311271D01*
X135752778Y-77347009D01*
X135836443Y-77503534D01*
X135887963Y-77673374D01*
X135901000Y-77805743D01*
X135901000Y-78194258D01*
X135887963Y-78326627D01*
X135836443Y-78496466D01*
X135752778Y-78652991D01*
X135723448Y-78688729D01*
X135640186Y-78790186D01*
X135502989Y-78902779D01*
X135359842Y-78979293D01*
X135346465Y-78986443D01*
X135176626Y-79037963D01*
X135000000Y-79055359D01*
X134823373Y-79037963D01*
X134653534Y-78986443D01*
X134497009Y-78902778D01*
X134454750Y-78868097D01*
X134359814Y-78790186D01*
X134247221Y-78652989D01*
X134163558Y-78496467D01*
X134148948Y-78448304D01*
X134112037Y-78326626D01*
X134099000Y-78194257D01*
X134099000Y-77805742D01*
X134112037Y-77673373D01*
X134163557Y-77503534D01*
X134247222Y-77347009D01*
X134359815Y-77209815D01*
X134497010Y-77097222D01*
X134653535Y-77013557D01*
X134823374Y-76962037D01*
X135000000Y-76944641D01*
X135176627Y-76962037D01*
X135176627Y-76962037D01*
G37*
G36*
X147758600Y-76952989D02*
G01*
X147791652Y-76963015D01*
X147822103Y-76979292D01*
X147848799Y-77001201D01*
X147870708Y-77027897D01*
X147886985Y-77058348D01*
X147897011Y-77091400D01*
X147901000Y-77131903D01*
X147901000Y-78868097D01*
X147897011Y-78908600D01*
X147886985Y-78941652D01*
X147870708Y-78972103D01*
X147848799Y-78998799D01*
X147822103Y-79020708D01*
X147791652Y-79036985D01*
X147758600Y-79047011D01*
X147718097Y-79051000D01*
X146281903Y-79051000D01*
X146241400Y-79047011D01*
X146208348Y-79036985D01*
X146177897Y-79020708D01*
X146151201Y-78998799D01*
X146129292Y-78972103D01*
X146113015Y-78941652D01*
X146102989Y-78908600D01*
X146099000Y-78868097D01*
X146099000Y-77131903D01*
X146102989Y-77091400D01*
X146113015Y-77058348D01*
X146129292Y-77027897D01*
X146151201Y-77001201D01*
X146177897Y-76979292D01*
X146208348Y-76963015D01*
X146241400Y-76952989D01*
X146281903Y-76949000D01*
X147718097Y-76949000D01*
X147758600Y-76952989D01*
X147758600Y-76952989D01*
G37*
G36*
X138258600Y-76952989D02*
G01*
X138291652Y-76963015D01*
X138322103Y-76979292D01*
X138348799Y-77001201D01*
X138370708Y-77027897D01*
X138386985Y-77058348D01*
X138397011Y-77091400D01*
X138401000Y-77131903D01*
X138401000Y-78868097D01*
X138397011Y-78908600D01*
X138386985Y-78941652D01*
X138370708Y-78972103D01*
X138348799Y-78998799D01*
X138322103Y-79020708D01*
X138291652Y-79036985D01*
X138258600Y-79047011D01*
X138218097Y-79051000D01*
X136781903Y-79051000D01*
X136741400Y-79047011D01*
X136708348Y-79036985D01*
X136677897Y-79020708D01*
X136651201Y-78998799D01*
X136629292Y-78972103D01*
X136613015Y-78941652D01*
X136602989Y-78908600D01*
X136599000Y-78868097D01*
X136599000Y-77131903D01*
X136602989Y-77091400D01*
X136613015Y-77058348D01*
X136629292Y-77027897D01*
X136651201Y-77001201D01*
X136677897Y-76979292D01*
X136708348Y-76963015D01*
X136741400Y-76952989D01*
X136781903Y-76949000D01*
X138218097Y-76949000D01*
X138258600Y-76952989D01*
X138258600Y-76952989D01*
G37*
G36*
X107679294Y-75358633D02*
G01*
X107851695Y-75410931D01*
X108010583Y-75495858D01*
X108149849Y-75610151D01*
X108264142Y-75749417D01*
X108349069Y-75908305D01*
X108401367Y-76080706D01*
X108419025Y-76260000D01*
X108401367Y-76439294D01*
X108349069Y-76611695D01*
X108264142Y-76770583D01*
X108149849Y-76909849D01*
X108010583Y-77024142D01*
X107851695Y-77109069D01*
X107679294Y-77161367D01*
X107544931Y-77174600D01*
X107455069Y-77174600D01*
X107320706Y-77161367D01*
X107148305Y-77109069D01*
X106989417Y-77024142D01*
X106850151Y-76909849D01*
X106735858Y-76770583D01*
X106650931Y-76611695D01*
X106598633Y-76439294D01*
X106580975Y-76260000D01*
X106598633Y-76080706D01*
X106650931Y-75908305D01*
X106735858Y-75749417D01*
X106850151Y-75610151D01*
X106989417Y-75495858D01*
X107148305Y-75410931D01*
X107320706Y-75358633D01*
X107455069Y-75345400D01*
X107544931Y-75345400D01*
X107679294Y-75358633D01*
X107679294Y-75358633D01*
G37*
G36*
X105139294Y-75358633D02*
G01*
X105311695Y-75410931D01*
X105470583Y-75495858D01*
X105609849Y-75610151D01*
X105724142Y-75749417D01*
X105809069Y-75908305D01*
X105861367Y-76080706D01*
X105879025Y-76260000D01*
X105861367Y-76439294D01*
X105809069Y-76611695D01*
X105724142Y-76770583D01*
X105609849Y-76909849D01*
X105470583Y-77024142D01*
X105311695Y-77109069D01*
X105139294Y-77161367D01*
X105004931Y-77174600D01*
X104915069Y-77174600D01*
X104780706Y-77161367D01*
X104608305Y-77109069D01*
X104449417Y-77024142D01*
X104310151Y-76909849D01*
X104195858Y-76770583D01*
X104110931Y-76611695D01*
X104058633Y-76439294D01*
X104040975Y-76260000D01*
X104058633Y-76080706D01*
X104110931Y-75908305D01*
X104195858Y-75749417D01*
X104310151Y-75610151D01*
X104449417Y-75495858D01*
X104608305Y-75410931D01*
X104780706Y-75358633D01*
X104915069Y-75345400D01*
X105004931Y-75345400D01*
X105139294Y-75358633D01*
X105139294Y-75358633D01*
G37*
G36*
X107679294Y-72818633D02*
G01*
X107851695Y-72870931D01*
X108010583Y-72955858D01*
X108149849Y-73070151D01*
X108264142Y-73209417D01*
X108349069Y-73368305D01*
X108401367Y-73540706D01*
X108419025Y-73720000D01*
X108401367Y-73899294D01*
X108349069Y-74071695D01*
X108264142Y-74230583D01*
X108149849Y-74369849D01*
X108010583Y-74484142D01*
X107851695Y-74569069D01*
X107679294Y-74621367D01*
X107544931Y-74634600D01*
X107455069Y-74634600D01*
X107320706Y-74621367D01*
X107148305Y-74569069D01*
X106989417Y-74484142D01*
X106850151Y-74369849D01*
X106735858Y-74230583D01*
X106650931Y-74071695D01*
X106598633Y-73899294D01*
X106580975Y-73720000D01*
X106598633Y-73540706D01*
X106650931Y-73368305D01*
X106735858Y-73209417D01*
X106850151Y-73070151D01*
X106989417Y-72955858D01*
X107148305Y-72870931D01*
X107320706Y-72818633D01*
X107455069Y-72805400D01*
X107544931Y-72805400D01*
X107679294Y-72818633D01*
X107679294Y-72818633D01*
G37*
G36*
X105139294Y-72818633D02*
G01*
X105311695Y-72870931D01*
X105470583Y-72955858D01*
X105609849Y-73070151D01*
X105724142Y-73209417D01*
X105809069Y-73368305D01*
X105861367Y-73540706D01*
X105879025Y-73720000D01*
X105861367Y-73899294D01*
X105809069Y-74071695D01*
X105724142Y-74230583D01*
X105609849Y-74369849D01*
X105470583Y-74484142D01*
X105311695Y-74569069D01*
X105139294Y-74621367D01*
X105004931Y-74634600D01*
X104915069Y-74634600D01*
X104780706Y-74621367D01*
X104608305Y-74569069D01*
X104449417Y-74484142D01*
X104310151Y-74369849D01*
X104195858Y-74230583D01*
X104110931Y-74071695D01*
X104058633Y-73899294D01*
X104040975Y-73720000D01*
X104058633Y-73540706D01*
X104110931Y-73368305D01*
X104195858Y-73209417D01*
X104310151Y-73070151D01*
X104449417Y-72955858D01*
X104608305Y-72870931D01*
X104780706Y-72818633D01*
X104915069Y-72805400D01*
X105004931Y-72805400D01*
X105139294Y-72818633D01*
X105139294Y-72818633D01*
G37*
G36*
X105139294Y-70278633D02*
G01*
X105311695Y-70330931D01*
X105470583Y-70415858D01*
X105609849Y-70530151D01*
X105724142Y-70669417D01*
X105809069Y-70828305D01*
X105861367Y-71000706D01*
X105879025Y-71180000D01*
X105861367Y-71359294D01*
X105809069Y-71531695D01*
X105724142Y-71690583D01*
X105609849Y-71829849D01*
X105470583Y-71944142D01*
X105311695Y-72029069D01*
X105139294Y-72081367D01*
X105004931Y-72094600D01*
X104915069Y-72094600D01*
X104780706Y-72081367D01*
X104608305Y-72029069D01*
X104449417Y-71944142D01*
X104310151Y-71829849D01*
X104195858Y-71690583D01*
X104110931Y-71531695D01*
X104058633Y-71359294D01*
X104040975Y-71180000D01*
X104058633Y-71000706D01*
X104110931Y-70828305D01*
X104195858Y-70669417D01*
X104310151Y-70530151D01*
X104449417Y-70415858D01*
X104608305Y-70330931D01*
X104780706Y-70278633D01*
X104915069Y-70265400D01*
X105004931Y-70265400D01*
X105139294Y-70278633D01*
X105139294Y-70278633D01*
G37*
G36*
X107679294Y-70278633D02*
G01*
X107851695Y-70330931D01*
X108010583Y-70415858D01*
X108149849Y-70530151D01*
X108264142Y-70669417D01*
X108349069Y-70828305D01*
X108401367Y-71000706D01*
X108419025Y-71180000D01*
X108401367Y-71359294D01*
X108349069Y-71531695D01*
X108264142Y-71690583D01*
X108149849Y-71829849D01*
X108010583Y-71944142D01*
X107851695Y-72029069D01*
X107679294Y-72081367D01*
X107544931Y-72094600D01*
X107455069Y-72094600D01*
X107320706Y-72081367D01*
X107148305Y-72029069D01*
X106989417Y-71944142D01*
X106850151Y-71829849D01*
X106735858Y-71690583D01*
X106650931Y-71531695D01*
X106598633Y-71359294D01*
X106580975Y-71180000D01*
X106598633Y-71000706D01*
X106650931Y-70828305D01*
X106735858Y-70669417D01*
X106850151Y-70530151D01*
X106989417Y-70415858D01*
X107148305Y-70330931D01*
X107320706Y-70278633D01*
X107455069Y-70265400D01*
X107544931Y-70265400D01*
X107679294Y-70278633D01*
X107679294Y-70278633D01*
G37*
G36*
X105139294Y-67738633D02*
G01*
X105311695Y-67790931D01*
X105470583Y-67875858D01*
X105609849Y-67990151D01*
X105724142Y-68129417D01*
X105809069Y-68288305D01*
X105861367Y-68460706D01*
X105879025Y-68640000D01*
X105861367Y-68819294D01*
X105809069Y-68991695D01*
X105724142Y-69150583D01*
X105609849Y-69289849D01*
X105470583Y-69404142D01*
X105311695Y-69489069D01*
X105139294Y-69541367D01*
X105004931Y-69554600D01*
X104915069Y-69554600D01*
X104780706Y-69541367D01*
X104608305Y-69489069D01*
X104449417Y-69404142D01*
X104310151Y-69289849D01*
X104195858Y-69150583D01*
X104110931Y-68991695D01*
X104058633Y-68819294D01*
X104040975Y-68640000D01*
X104058633Y-68460706D01*
X104110931Y-68288305D01*
X104195858Y-68129417D01*
X104310151Y-67990151D01*
X104449417Y-67875858D01*
X104608305Y-67790931D01*
X104780706Y-67738633D01*
X104915069Y-67725400D01*
X105004931Y-67725400D01*
X105139294Y-67738633D01*
X105139294Y-67738633D01*
G37*
G36*
X107679294Y-67738633D02*
G01*
X107851695Y-67790931D01*
X108010583Y-67875858D01*
X108149849Y-67990151D01*
X108264142Y-68129417D01*
X108349069Y-68288305D01*
X108401367Y-68460706D01*
X108419025Y-68640000D01*
X108401367Y-68819294D01*
X108349069Y-68991695D01*
X108264142Y-69150583D01*
X108149849Y-69289849D01*
X108010583Y-69404142D01*
X107851695Y-69489069D01*
X107679294Y-69541367D01*
X107544931Y-69554600D01*
X107455069Y-69554600D01*
X107320706Y-69541367D01*
X107148305Y-69489069D01*
X106989417Y-69404142D01*
X106850151Y-69289849D01*
X106735858Y-69150583D01*
X106650931Y-68991695D01*
X106598633Y-68819294D01*
X106580975Y-68640000D01*
X106598633Y-68460706D01*
X106650931Y-68288305D01*
X106735858Y-68129417D01*
X106850151Y-67990151D01*
X106989417Y-67875858D01*
X107148305Y-67790931D01*
X107320706Y-67738633D01*
X107455069Y-67725400D01*
X107544931Y-67725400D01*
X107679294Y-67738633D01*
X107679294Y-67738633D01*
G37*
G36*
X134176626Y-66987037D02*
G01*
X134346465Y-67038557D01*
X134346467Y-67038558D01*
X134502989Y-67122221D01*
X134640186Y-67234814D01*
X134723448Y-67336271D01*
X134752778Y-67372009D01*
X134836443Y-67528534D01*
X134887963Y-67698373D01*
X134901000Y-67830742D01*
X134901000Y-68169257D01*
X134887963Y-68301626D01*
X134836443Y-68471466D01*
X134752778Y-68627991D01*
X134742922Y-68640000D01*
X134640186Y-68765186D01*
X134545250Y-68843097D01*
X134502991Y-68877778D01*
X134346466Y-68961443D01*
X134176627Y-69012963D01*
X134000000Y-69030359D01*
X133823374Y-69012963D01*
X133653535Y-68961443D01*
X133497010Y-68877778D01*
X133359815Y-68765185D01*
X133247222Y-68627991D01*
X133163557Y-68471466D01*
X133112037Y-68301627D01*
X133099000Y-68169258D01*
X133099000Y-67830743D01*
X133112037Y-67698374D01*
X133163557Y-67528535D01*
X133247222Y-67372010D01*
X133247223Y-67372009D01*
X133359814Y-67234814D01*
X133461271Y-67151552D01*
X133497009Y-67122222D01*
X133653534Y-67038557D01*
X133823373Y-66987037D01*
X134000000Y-66969641D01*
X134176626Y-66987037D01*
X134176626Y-66987037D01*
G37*
G36*
X129176626Y-66987037D02*
G01*
X129346465Y-67038557D01*
X129346467Y-67038558D01*
X129502989Y-67122221D01*
X129640186Y-67234814D01*
X129723448Y-67336271D01*
X129752778Y-67372009D01*
X129836443Y-67528534D01*
X129887963Y-67698373D01*
X129901000Y-67830742D01*
X129901000Y-68169257D01*
X129887963Y-68301626D01*
X129836443Y-68471466D01*
X129752778Y-68627991D01*
X129742922Y-68640000D01*
X129640186Y-68765186D01*
X129545250Y-68843097D01*
X129502991Y-68877778D01*
X129346466Y-68961443D01*
X129176627Y-69012963D01*
X129000000Y-69030359D01*
X128823374Y-69012963D01*
X128653535Y-68961443D01*
X128497010Y-68877778D01*
X128359815Y-68765185D01*
X128247222Y-68627991D01*
X128163557Y-68471466D01*
X128112037Y-68301627D01*
X128099000Y-68169258D01*
X128099000Y-67830743D01*
X128112037Y-67698374D01*
X128163557Y-67528535D01*
X128247222Y-67372010D01*
X128247223Y-67372009D01*
X128359814Y-67234814D01*
X128461271Y-67151552D01*
X128497009Y-67122222D01*
X128653534Y-67038557D01*
X128823373Y-66987037D01*
X129000000Y-66969641D01*
X129176626Y-66987037D01*
X129176626Y-66987037D01*
G37*
G36*
X131676626Y-66987037D02*
G01*
X131846465Y-67038557D01*
X131846467Y-67038558D01*
X132002989Y-67122221D01*
X132140186Y-67234814D01*
X132223448Y-67336271D01*
X132252778Y-67372009D01*
X132336443Y-67528534D01*
X132387963Y-67698373D01*
X132401000Y-67830742D01*
X132401000Y-68169257D01*
X132387963Y-68301626D01*
X132336443Y-68471466D01*
X132252778Y-68627991D01*
X132242922Y-68640000D01*
X132140186Y-68765186D01*
X132045250Y-68843097D01*
X132002991Y-68877778D01*
X131846466Y-68961443D01*
X131676627Y-69012963D01*
X131500000Y-69030359D01*
X131323374Y-69012963D01*
X131153535Y-68961443D01*
X130997010Y-68877778D01*
X130859815Y-68765185D01*
X130747222Y-68627991D01*
X130663557Y-68471466D01*
X130612037Y-68301627D01*
X130599000Y-68169258D01*
X130599000Y-67830743D01*
X130612037Y-67698374D01*
X130663557Y-67528535D01*
X130747222Y-67372010D01*
X130747223Y-67372009D01*
X130859814Y-67234814D01*
X130961271Y-67151552D01*
X130997009Y-67122222D01*
X131153534Y-67038557D01*
X131323373Y-66987037D01*
X131500000Y-66969641D01*
X131676626Y-66987037D01*
X131676626Y-66987037D01*
G37*
G36*
X127258600Y-66977989D02*
G01*
X127291652Y-66988015D01*
X127322103Y-67004292D01*
X127348799Y-67026201D01*
X127370708Y-67052897D01*
X127386985Y-67083348D01*
X127397011Y-67116400D01*
X127401000Y-67156903D01*
X127401000Y-68843097D01*
X127397011Y-68883600D01*
X127386985Y-68916652D01*
X127370708Y-68947103D01*
X127348799Y-68973799D01*
X127322103Y-68995708D01*
X127291652Y-69011985D01*
X127258600Y-69022011D01*
X127218097Y-69026000D01*
X125781903Y-69026000D01*
X125741400Y-69022011D01*
X125708348Y-69011985D01*
X125677897Y-68995708D01*
X125651201Y-68973799D01*
X125629292Y-68947103D01*
X125613015Y-68916652D01*
X125602989Y-68883600D01*
X125599000Y-68843097D01*
X125599000Y-67156903D01*
X125602989Y-67116400D01*
X125613015Y-67083348D01*
X125629292Y-67052897D01*
X125651201Y-67026201D01*
X125677897Y-67004292D01*
X125708348Y-66988015D01*
X125741400Y-66977989D01*
X125781903Y-66974000D01*
X127218097Y-66974000D01*
X127258600Y-66977989D01*
X127258600Y-66977989D01*
G37*
G36*
X105139294Y-65198633D02*
G01*
X105311695Y-65250931D01*
X105470583Y-65335858D01*
X105609849Y-65450151D01*
X105724142Y-65589417D01*
X105809069Y-65748305D01*
X105861367Y-65920706D01*
X105879025Y-66100000D01*
X105861367Y-66279294D01*
X105809069Y-66451695D01*
X105724142Y-66610583D01*
X105609849Y-66749849D01*
X105470583Y-66864142D01*
X105311695Y-66949069D01*
X105139294Y-67001367D01*
X105004931Y-67014600D01*
X104915069Y-67014600D01*
X104780706Y-67001367D01*
X104608305Y-66949069D01*
X104449417Y-66864142D01*
X104310151Y-66749849D01*
X104195858Y-66610583D01*
X104110931Y-66451695D01*
X104058633Y-66279294D01*
X104040975Y-66100000D01*
X104058633Y-65920706D01*
X104110931Y-65748305D01*
X104195858Y-65589417D01*
X104310151Y-65450151D01*
X104449417Y-65335858D01*
X104608305Y-65250931D01*
X104780706Y-65198633D01*
X104915069Y-65185400D01*
X105004931Y-65185400D01*
X105139294Y-65198633D01*
X105139294Y-65198633D01*
G37*
G36*
X107679294Y-65198633D02*
G01*
X107851695Y-65250931D01*
X108010583Y-65335858D01*
X108149849Y-65450151D01*
X108264142Y-65589417D01*
X108349069Y-65748305D01*
X108401367Y-65920706D01*
X108419025Y-66100000D01*
X108401367Y-66279294D01*
X108349069Y-66451695D01*
X108264142Y-66610583D01*
X108149849Y-66749849D01*
X108010583Y-66864142D01*
X107851695Y-66949069D01*
X107679294Y-67001367D01*
X107544931Y-67014600D01*
X107455069Y-67014600D01*
X107320706Y-67001367D01*
X107148305Y-66949069D01*
X106989417Y-66864142D01*
X106850151Y-66749849D01*
X106735858Y-66610583D01*
X106650931Y-66451695D01*
X106598633Y-66279294D01*
X106580975Y-66100000D01*
X106598633Y-65920706D01*
X106650931Y-65748305D01*
X106735858Y-65589417D01*
X106850151Y-65450151D01*
X106989417Y-65335858D01*
X107148305Y-65250931D01*
X107320706Y-65198633D01*
X107455069Y-65185400D01*
X107544931Y-65185400D01*
X107679294Y-65198633D01*
X107679294Y-65198633D01*
G37*
G36*
X107679294Y-62658633D02*
G01*
X107851695Y-62710931D01*
X108010583Y-62795858D01*
X108149849Y-62910151D01*
X108264142Y-63049417D01*
X108349069Y-63208305D01*
X108401367Y-63380706D01*
X108419025Y-63560000D01*
X108401367Y-63739294D01*
X108349069Y-63911695D01*
X108264142Y-64070583D01*
X108149849Y-64209849D01*
X108010583Y-64324142D01*
X107851695Y-64409069D01*
X107679294Y-64461367D01*
X107544931Y-64474600D01*
X107455069Y-64474600D01*
X107320706Y-64461367D01*
X107148305Y-64409069D01*
X106989417Y-64324142D01*
X106850151Y-64209849D01*
X106735858Y-64070583D01*
X106650931Y-63911695D01*
X106598633Y-63739294D01*
X106580975Y-63560000D01*
X106598633Y-63380706D01*
X106650931Y-63208305D01*
X106735858Y-63049417D01*
X106850151Y-62910151D01*
X106989417Y-62795858D01*
X107148305Y-62710931D01*
X107320706Y-62658633D01*
X107455069Y-62645400D01*
X107544931Y-62645400D01*
X107679294Y-62658633D01*
X107679294Y-62658633D01*
G37*
G36*
X105139294Y-62658633D02*
G01*
X105311695Y-62710931D01*
X105470583Y-62795858D01*
X105609849Y-62910151D01*
X105724142Y-63049417D01*
X105809069Y-63208305D01*
X105861367Y-63380706D01*
X105879025Y-63560000D01*
X105861367Y-63739294D01*
X105809069Y-63911695D01*
X105724142Y-64070583D01*
X105609849Y-64209849D01*
X105470583Y-64324142D01*
X105311695Y-64409069D01*
X105139294Y-64461367D01*
X105004931Y-64474600D01*
X104915069Y-64474600D01*
X104780706Y-64461367D01*
X104608305Y-64409069D01*
X104449417Y-64324142D01*
X104310151Y-64209849D01*
X104195858Y-64070583D01*
X104110931Y-63911695D01*
X104058633Y-63739294D01*
X104040975Y-63560000D01*
X104058633Y-63380706D01*
X104110931Y-63208305D01*
X104195858Y-63049417D01*
X104310151Y-62910151D01*
X104449417Y-62795858D01*
X104608305Y-62710931D01*
X104780706Y-62658633D01*
X104915069Y-62645400D01*
X105004931Y-62645400D01*
X105139294Y-62658633D01*
X105139294Y-62658633D01*
G37*
G36*
X116344098Y-57247033D02*
G01*
X116808350Y-57439332D01*
X116808352Y-57439333D01*
X117226168Y-57718509D01*
X117581491Y-58073832D01*
X117852884Y-58480000D01*
X117860668Y-58491650D01*
X118052967Y-58955902D01*
X118151000Y-59448747D01*
X118151000Y-59951253D01*
X118052967Y-60444098D01*
X117860668Y-60908350D01*
X117860667Y-60908352D01*
X117581491Y-61326168D01*
X117226168Y-61681491D01*
X116808352Y-61960667D01*
X116808351Y-61960668D01*
X116808350Y-61960668D01*
X116344098Y-62152967D01*
X115851253Y-62251000D01*
X115348747Y-62251000D01*
X114855902Y-62152967D01*
X114391650Y-61960668D01*
X114391649Y-61960668D01*
X114391648Y-61960667D01*
X113973832Y-61681491D01*
X113618509Y-61326168D01*
X113339333Y-60908352D01*
X113339332Y-60908350D01*
X113147033Y-60444098D01*
X113049000Y-59951253D01*
X113049000Y-59448747D01*
X113147033Y-58955902D01*
X113339332Y-58491650D01*
X113347116Y-58480000D01*
X113618509Y-58073832D01*
X113973832Y-57718509D01*
X114391648Y-57439333D01*
X114391650Y-57439332D01*
X114855902Y-57247033D01*
X115348747Y-57149000D01*
X115851253Y-57149000D01*
X116344098Y-57247033D01*
X116344098Y-57247033D01*
G37*
G36*
X107679294Y-60118633D02*
G01*
X107851695Y-60170931D01*
X108010583Y-60255858D01*
X108149849Y-60370151D01*
X108264142Y-60509417D01*
X108349069Y-60668305D01*
X108401367Y-60840706D01*
X108419025Y-61020000D01*
X108401367Y-61199294D01*
X108349069Y-61371695D01*
X108264142Y-61530583D01*
X108149849Y-61669849D01*
X108010583Y-61784142D01*
X107851695Y-61869069D01*
X107679294Y-61921367D01*
X107544931Y-61934600D01*
X107455069Y-61934600D01*
X107320706Y-61921367D01*
X107148305Y-61869069D01*
X106989417Y-61784142D01*
X106850151Y-61669849D01*
X106735858Y-61530583D01*
X106650931Y-61371695D01*
X106598633Y-61199294D01*
X106580975Y-61020000D01*
X106598633Y-60840706D01*
X106650931Y-60668305D01*
X106735858Y-60509417D01*
X106850151Y-60370151D01*
X106989417Y-60255858D01*
X107148305Y-60170931D01*
X107320706Y-60118633D01*
X107455069Y-60105400D01*
X107544931Y-60105400D01*
X107679294Y-60118633D01*
X107679294Y-60118633D01*
G37*
G36*
X105139294Y-60118633D02*
G01*
X105311695Y-60170931D01*
X105470583Y-60255858D01*
X105609849Y-60370151D01*
X105724142Y-60509417D01*
X105809069Y-60668305D01*
X105861367Y-60840706D01*
X105879025Y-61020000D01*
X105861367Y-61199294D01*
X105809069Y-61371695D01*
X105724142Y-61530583D01*
X105609849Y-61669849D01*
X105470583Y-61784142D01*
X105311695Y-61869069D01*
X105139294Y-61921367D01*
X105004931Y-61934600D01*
X104915069Y-61934600D01*
X104780706Y-61921367D01*
X104608305Y-61869069D01*
X104449417Y-61784142D01*
X104310151Y-61669849D01*
X104195858Y-61530583D01*
X104110931Y-61371695D01*
X104058633Y-61199294D01*
X104040975Y-61020000D01*
X104058633Y-60840706D01*
X104110931Y-60668305D01*
X104195858Y-60509417D01*
X104310151Y-60370151D01*
X104449417Y-60255858D01*
X104608305Y-60170931D01*
X104780706Y-60118633D01*
X104915069Y-60105400D01*
X105004931Y-60105400D01*
X105139294Y-60118633D01*
X105139294Y-60118633D01*
G37*
G36*
X107679294Y-57578633D02*
G01*
X107851695Y-57630931D01*
X108010583Y-57715858D01*
X108149849Y-57830151D01*
X108264142Y-57969417D01*
X108349069Y-58128305D01*
X108401367Y-58300706D01*
X108419025Y-58480000D01*
X108401367Y-58659294D01*
X108349069Y-58831695D01*
X108264142Y-58990583D01*
X108149849Y-59129849D01*
X108010583Y-59244142D01*
X107851695Y-59329069D01*
X107679294Y-59381367D01*
X107544931Y-59394600D01*
X107455069Y-59394600D01*
X107320706Y-59381367D01*
X107148305Y-59329069D01*
X106989417Y-59244142D01*
X106850151Y-59129849D01*
X106735858Y-58990583D01*
X106650931Y-58831695D01*
X106598633Y-58659294D01*
X106580975Y-58480000D01*
X106598633Y-58300706D01*
X106650931Y-58128305D01*
X106735858Y-57969417D01*
X106850151Y-57830151D01*
X106989417Y-57715858D01*
X107148305Y-57630931D01*
X107320706Y-57578633D01*
X107455069Y-57565400D01*
X107544931Y-57565400D01*
X107679294Y-57578633D01*
X107679294Y-57578633D01*
G37*
G36*
X105139294Y-57578633D02*
G01*
X105311695Y-57630931D01*
X105470583Y-57715858D01*
X105609849Y-57830151D01*
X105724142Y-57969417D01*
X105809069Y-58128305D01*
X105861367Y-58300706D01*
X105879025Y-58480000D01*
X105861367Y-58659294D01*
X105809069Y-58831695D01*
X105724142Y-58990583D01*
X105609849Y-59129849D01*
X105470583Y-59244142D01*
X105311695Y-59329069D01*
X105139294Y-59381367D01*
X105004931Y-59394600D01*
X104915069Y-59394600D01*
X104780706Y-59381367D01*
X104608305Y-59329069D01*
X104449417Y-59244142D01*
X104310151Y-59129849D01*
X104195858Y-58990583D01*
X104110931Y-58831695D01*
X104058633Y-58659294D01*
X104040975Y-58480000D01*
X104058633Y-58300706D01*
X104110931Y-58128305D01*
X104195858Y-57969417D01*
X104310151Y-57830151D01*
X104449417Y-57715858D01*
X104608305Y-57630931D01*
X104780706Y-57578633D01*
X104915069Y-57565400D01*
X105004931Y-57565400D01*
X105139294Y-57578633D01*
X105139294Y-57578633D01*
G37*
G36*
X131676626Y-56487037D02*
G01*
X131846465Y-56538557D01*
X131846467Y-56538558D01*
X132002989Y-56622221D01*
X132140186Y-56734814D01*
X132223448Y-56836271D01*
X132252778Y-56872009D01*
X132336443Y-57028534D01*
X132387963Y-57198373D01*
X132401000Y-57330742D01*
X132401000Y-57669257D01*
X132387963Y-57801626D01*
X132336443Y-57971466D01*
X132252778Y-58127991D01*
X132252520Y-58128305D01*
X132140186Y-58265186D01*
X132038729Y-58348448D01*
X132002991Y-58377778D01*
X131846466Y-58461443D01*
X131676627Y-58512963D01*
X131500000Y-58530359D01*
X131323374Y-58512963D01*
X131153535Y-58461443D01*
X130997010Y-58377778D01*
X130859815Y-58265185D01*
X130747222Y-58127991D01*
X130663557Y-57971466D01*
X130612037Y-57801627D01*
X130599000Y-57669258D01*
X130599000Y-57330743D01*
X130612037Y-57198374D01*
X130663557Y-57028535D01*
X130747222Y-56872010D01*
X130772370Y-56841367D01*
X130859814Y-56734814D01*
X130961271Y-56651552D01*
X130997009Y-56622222D01*
X131153534Y-56538557D01*
X131323373Y-56487037D01*
X131500000Y-56469641D01*
X131676626Y-56487037D01*
X131676626Y-56487037D01*
G37*
G36*
X134176626Y-56487037D02*
G01*
X134346465Y-56538557D01*
X134346467Y-56538558D01*
X134502989Y-56622221D01*
X134640186Y-56734814D01*
X134723448Y-56836271D01*
X134752778Y-56872009D01*
X134836443Y-57028534D01*
X134887963Y-57198373D01*
X134901000Y-57330742D01*
X134901000Y-57669257D01*
X134887963Y-57801626D01*
X134836443Y-57971466D01*
X134752778Y-58127991D01*
X134752520Y-58128305D01*
X134640186Y-58265186D01*
X134538729Y-58348448D01*
X134502991Y-58377778D01*
X134346466Y-58461443D01*
X134176627Y-58512963D01*
X134000000Y-58530359D01*
X133823374Y-58512963D01*
X133653535Y-58461443D01*
X133497010Y-58377778D01*
X133359815Y-58265185D01*
X133247222Y-58127991D01*
X133163557Y-57971466D01*
X133112037Y-57801627D01*
X133099000Y-57669258D01*
X133099000Y-57330743D01*
X133112037Y-57198374D01*
X133163557Y-57028535D01*
X133247222Y-56872010D01*
X133272370Y-56841367D01*
X133359814Y-56734814D01*
X133461271Y-56651552D01*
X133497009Y-56622222D01*
X133653534Y-56538557D01*
X133823373Y-56487037D01*
X134000000Y-56469641D01*
X134176626Y-56487037D01*
X134176626Y-56487037D01*
G37*
G36*
X129176626Y-56487037D02*
G01*
X129346465Y-56538557D01*
X129346467Y-56538558D01*
X129502989Y-56622221D01*
X129640186Y-56734814D01*
X129723448Y-56836271D01*
X129752778Y-56872009D01*
X129836443Y-57028534D01*
X129887963Y-57198373D01*
X129901000Y-57330742D01*
X129901000Y-57669257D01*
X129887963Y-57801626D01*
X129836443Y-57971466D01*
X129752778Y-58127991D01*
X129752520Y-58128305D01*
X129640186Y-58265186D01*
X129538729Y-58348448D01*
X129502991Y-58377778D01*
X129346466Y-58461443D01*
X129176627Y-58512963D01*
X129000000Y-58530359D01*
X128823374Y-58512963D01*
X128653535Y-58461443D01*
X128497010Y-58377778D01*
X128359815Y-58265185D01*
X128247222Y-58127991D01*
X128163557Y-57971466D01*
X128112037Y-57801627D01*
X128099000Y-57669258D01*
X128099000Y-57330743D01*
X128112037Y-57198374D01*
X128163557Y-57028535D01*
X128247222Y-56872010D01*
X128272370Y-56841367D01*
X128359814Y-56734814D01*
X128461271Y-56651552D01*
X128497009Y-56622222D01*
X128653534Y-56538557D01*
X128823373Y-56487037D01*
X129000000Y-56469641D01*
X129176626Y-56487037D01*
X129176626Y-56487037D01*
G37*
G36*
X126676626Y-56487037D02*
G01*
X126846465Y-56538557D01*
X126846467Y-56538558D01*
X127002989Y-56622221D01*
X127140186Y-56734814D01*
X127223448Y-56836271D01*
X127252778Y-56872009D01*
X127336443Y-57028534D01*
X127387963Y-57198373D01*
X127401000Y-57330742D01*
X127401000Y-57669257D01*
X127387963Y-57801626D01*
X127336443Y-57971466D01*
X127252778Y-58127991D01*
X127252520Y-58128305D01*
X127140186Y-58265186D01*
X127038729Y-58348448D01*
X127002991Y-58377778D01*
X126846466Y-58461443D01*
X126676627Y-58512963D01*
X126500000Y-58530359D01*
X126323374Y-58512963D01*
X126153535Y-58461443D01*
X125997010Y-58377778D01*
X125859815Y-58265185D01*
X125747222Y-58127991D01*
X125663557Y-57971466D01*
X125612037Y-57801627D01*
X125599000Y-57669258D01*
X125599000Y-57330743D01*
X125612037Y-57198374D01*
X125663557Y-57028535D01*
X125747222Y-56872010D01*
X125772370Y-56841367D01*
X125859814Y-56734814D01*
X125961271Y-56651552D01*
X125997009Y-56622222D01*
X126153534Y-56538557D01*
X126323373Y-56487037D01*
X126500000Y-56469641D01*
X126676626Y-56487037D01*
X126676626Y-56487037D01*
G37*
G36*
X105139294Y-55038633D02*
G01*
X105311695Y-55090931D01*
X105470583Y-55175858D01*
X105609849Y-55290151D01*
X105724142Y-55429417D01*
X105809069Y-55588305D01*
X105861367Y-55760706D01*
X105879025Y-55940000D01*
X105861367Y-56119294D01*
X105809069Y-56291695D01*
X105724142Y-56450583D01*
X105609849Y-56589849D01*
X105470583Y-56704142D01*
X105311695Y-56789069D01*
X105139294Y-56841367D01*
X105004931Y-56854600D01*
X104915069Y-56854600D01*
X104780706Y-56841367D01*
X104608305Y-56789069D01*
X104449417Y-56704142D01*
X104310151Y-56589849D01*
X104195858Y-56450583D01*
X104110931Y-56291695D01*
X104058633Y-56119294D01*
X104040975Y-55940000D01*
X104058633Y-55760706D01*
X104110931Y-55588305D01*
X104195858Y-55429417D01*
X104310151Y-55290151D01*
X104449417Y-55175858D01*
X104608305Y-55090931D01*
X104780706Y-55038633D01*
X104915069Y-55025400D01*
X105004931Y-55025400D01*
X105139294Y-55038633D01*
X105139294Y-55038633D01*
G37*
G36*
X107679294Y-55038633D02*
G01*
X107851695Y-55090931D01*
X108010583Y-55175858D01*
X108149849Y-55290151D01*
X108264142Y-55429417D01*
X108349069Y-55588305D01*
X108401367Y-55760706D01*
X108419025Y-55940000D01*
X108401367Y-56119294D01*
X108349069Y-56291695D01*
X108264142Y-56450583D01*
X108149849Y-56589849D01*
X108010583Y-56704142D01*
X107851695Y-56789069D01*
X107679294Y-56841367D01*
X107544931Y-56854600D01*
X107455069Y-56854600D01*
X107320706Y-56841367D01*
X107148305Y-56789069D01*
X106989417Y-56704142D01*
X106850151Y-56589849D01*
X106735858Y-56450583D01*
X106650931Y-56291695D01*
X106598633Y-56119294D01*
X106580975Y-55940000D01*
X106598633Y-55760706D01*
X106650931Y-55588305D01*
X106735858Y-55429417D01*
X106850151Y-55290151D01*
X106989417Y-55175858D01*
X107148305Y-55090931D01*
X107320706Y-55038633D01*
X107455069Y-55025400D01*
X107544931Y-55025400D01*
X107679294Y-55038633D01*
X107679294Y-55038633D01*
G37*
G36*
X113814038Y-51126062D02*
G01*
X113948657Y-51152839D01*
X114054097Y-51196514D01*
X114203621Y-51258449D01*
X114277525Y-51307830D01*
X114433086Y-51411772D01*
X114628228Y-51606914D01*
X114730675Y-51760237D01*
X114781551Y-51836379D01*
X114887161Y-52091344D01*
X114941000Y-52362012D01*
X114941000Y-52637988D01*
X114887161Y-52908656D01*
X114781551Y-53163621D01*
X114781550Y-53163622D01*
X114628228Y-53393086D01*
X114433086Y-53588228D01*
X114353276Y-53641555D01*
X114203621Y-53741551D01*
X114125207Y-53774031D01*
X113948657Y-53847161D01*
X113858433Y-53865107D01*
X113677988Y-53901000D01*
X113402012Y-53901000D01*
X113221567Y-53865107D01*
X113131343Y-53847161D01*
X112954793Y-53774031D01*
X112876379Y-53741551D01*
X112726724Y-53641555D01*
X112646914Y-53588228D01*
X112451772Y-53393086D01*
X112298450Y-53163622D01*
X112298449Y-53163621D01*
X112192839Y-52908656D01*
X112139000Y-52637988D01*
X112139000Y-52362012D01*
X112192839Y-52091344D01*
X112298449Y-51836379D01*
X112349325Y-51760237D01*
X112451772Y-51606914D01*
X112646914Y-51411772D01*
X112802475Y-51307830D01*
X112876379Y-51258449D01*
X113025903Y-51196514D01*
X113131343Y-51152839D01*
X113265962Y-51126062D01*
X113402012Y-51099000D01*
X113677988Y-51099000D01*
X113814038Y-51126062D01*
X113814038Y-51126062D01*
G37*
G36*
X118774031Y-51102621D02*
G01*
X118803486Y-51111556D01*
X118830623Y-51126062D01*
X118854414Y-51145586D01*
X118873938Y-51169377D01*
X118888444Y-51196514D01*
X118897379Y-51225969D01*
X118901000Y-51262734D01*
X118901000Y-53737266D01*
X118897379Y-53774031D01*
X118888444Y-53803486D01*
X118873938Y-53830623D01*
X118854414Y-53854414D01*
X118830623Y-53873938D01*
X118803486Y-53888444D01*
X118774031Y-53897379D01*
X118737266Y-53901000D01*
X116262734Y-53901000D01*
X116225969Y-53897379D01*
X116196514Y-53888444D01*
X116169377Y-53873938D01*
X116145586Y-53854414D01*
X116126062Y-53830623D01*
X116111556Y-53803486D01*
X116102621Y-53774031D01*
X116099000Y-53737266D01*
X116099000Y-51262734D01*
X116102621Y-51225969D01*
X116111556Y-51196514D01*
X116126062Y-51169377D01*
X116145586Y-51145586D01*
X116169377Y-51126062D01*
X116196514Y-51111556D01*
X116225969Y-51102621D01*
X116262734Y-51099000D01*
X118737266Y-51099000D01*
X118774031Y-51102621D01*
X118774031Y-51102621D01*
G37*
G36*
X134176626Y-48987037D02*
G01*
X134346465Y-49038557D01*
X134346467Y-49038558D01*
X134502989Y-49122221D01*
X134640186Y-49234814D01*
X134723448Y-49336271D01*
X134752778Y-49372009D01*
X134836443Y-49528534D01*
X134887963Y-49698373D01*
X134901000Y-49830742D01*
X134901000Y-50169257D01*
X134887963Y-50301626D01*
X134836443Y-50471466D01*
X134752778Y-50627991D01*
X134723448Y-50663729D01*
X134640186Y-50765186D01*
X134538729Y-50848448D01*
X134502991Y-50877778D01*
X134346466Y-50961443D01*
X134176627Y-51012963D01*
X134000000Y-51030359D01*
X133823374Y-51012963D01*
X133653535Y-50961443D01*
X133497010Y-50877778D01*
X133359815Y-50765185D01*
X133247222Y-50627991D01*
X133163557Y-50471466D01*
X133112037Y-50301627D01*
X133099000Y-50169258D01*
X133099000Y-49830743D01*
X133112037Y-49698374D01*
X133163557Y-49528535D01*
X133247222Y-49372010D01*
X133247223Y-49372009D01*
X133359814Y-49234814D01*
X133461271Y-49151552D01*
X133497009Y-49122222D01*
X133653534Y-49038557D01*
X133823373Y-48987037D01*
X134000000Y-48969641D01*
X134176626Y-48987037D01*
X134176626Y-48987037D01*
G37*
G36*
X126676626Y-48987037D02*
G01*
X126846465Y-49038557D01*
X126846467Y-49038558D01*
X127002989Y-49122221D01*
X127140186Y-49234814D01*
X127223448Y-49336271D01*
X127252778Y-49372009D01*
X127336443Y-49528534D01*
X127387963Y-49698373D01*
X127401000Y-49830742D01*
X127401000Y-50169257D01*
X127387963Y-50301626D01*
X127336443Y-50471466D01*
X127252778Y-50627991D01*
X127223448Y-50663729D01*
X127140186Y-50765186D01*
X127038729Y-50848448D01*
X127002991Y-50877778D01*
X126846466Y-50961443D01*
X126676627Y-51012963D01*
X126500000Y-51030359D01*
X126323374Y-51012963D01*
X126153535Y-50961443D01*
X125997010Y-50877778D01*
X125859815Y-50765185D01*
X125747222Y-50627991D01*
X125663557Y-50471466D01*
X125612037Y-50301627D01*
X125599000Y-50169258D01*
X125599000Y-49830743D01*
X125612037Y-49698374D01*
X125663557Y-49528535D01*
X125747222Y-49372010D01*
X125747223Y-49372009D01*
X125859814Y-49234814D01*
X125961271Y-49151552D01*
X125997009Y-49122222D01*
X126153534Y-49038557D01*
X126323373Y-48987037D01*
X126500000Y-48969641D01*
X126676626Y-48987037D01*
X126676626Y-48987037D01*
G37*
G36*
X129176626Y-48987037D02*
G01*
X129346465Y-49038557D01*
X129346467Y-49038558D01*
X129502989Y-49122221D01*
X129640186Y-49234814D01*
X129723448Y-49336271D01*
X129752778Y-49372009D01*
X129836443Y-49528534D01*
X129887963Y-49698373D01*
X129901000Y-49830742D01*
X129901000Y-50169257D01*
X129887963Y-50301626D01*
X129836443Y-50471466D01*
X129752778Y-50627991D01*
X129723448Y-50663729D01*
X129640186Y-50765186D01*
X129538729Y-50848448D01*
X129502991Y-50877778D01*
X129346466Y-50961443D01*
X129176627Y-51012963D01*
X129000000Y-51030359D01*
X128823374Y-51012963D01*
X128653535Y-50961443D01*
X128497010Y-50877778D01*
X128359815Y-50765185D01*
X128247222Y-50627991D01*
X128163557Y-50471466D01*
X128112037Y-50301627D01*
X128099000Y-50169258D01*
X128099000Y-49830743D01*
X128112037Y-49698374D01*
X128163557Y-49528535D01*
X128247222Y-49372010D01*
X128247223Y-49372009D01*
X128359814Y-49234814D01*
X128461271Y-49151552D01*
X128497009Y-49122222D01*
X128653534Y-49038557D01*
X128823373Y-48987037D01*
X129000000Y-48969641D01*
X129176626Y-48987037D01*
X129176626Y-48987037D01*
G37*
G36*
X131676626Y-48987037D02*
G01*
X131846465Y-49038557D01*
X131846467Y-49038558D01*
X132002989Y-49122221D01*
X132140186Y-49234814D01*
X132223448Y-49336271D01*
X132252778Y-49372009D01*
X132336443Y-49528534D01*
X132387963Y-49698373D01*
X132401000Y-49830742D01*
X132401000Y-50169257D01*
X132387963Y-50301626D01*
X132336443Y-50471466D01*
X132252778Y-50627991D01*
X132223448Y-50663729D01*
X132140186Y-50765186D01*
X132038729Y-50848448D01*
X132002991Y-50877778D01*
X131846466Y-50961443D01*
X131676627Y-51012963D01*
X131500000Y-51030359D01*
X131323374Y-51012963D01*
X131153535Y-50961443D01*
X130997010Y-50877778D01*
X130859815Y-50765185D01*
X130747222Y-50627991D01*
X130663557Y-50471466D01*
X130612037Y-50301627D01*
X130599000Y-50169258D01*
X130599000Y-49830743D01*
X130612037Y-49698374D01*
X130663557Y-49528535D01*
X130747222Y-49372010D01*
X130747223Y-49372009D01*
X130859814Y-49234814D01*
X130961271Y-49151552D01*
X130997009Y-49122222D01*
X131153534Y-49038557D01*
X131323373Y-48987037D01*
X131500000Y-48969641D01*
X131676626Y-48987037D01*
X131676626Y-48987037D01*
G37*
M02*
